0
SECTION
2
HEADER
9
$INSUNITS
70
4
9
$ACADVER
1
AC1014
9
$HANDSEED
5
FFFF
0
ENDSEC
0
SECTION
2
TABLES
0
TABLE
2
VPORT
5
8
100
AcDbSymbolTable
0
ENDTAB
0
TABLE
2
LTYPE
5
5
100
AcDbSymbolTable
0
LTYPE
5
14
100
AcDbSymbolTableRecord
100
AcDbLinetypeTableRecord
2
BYBLOCK
70
0
0
LTYPE
5
15
100
AcDbSymbolTableRecord
100
AcDbLinetypeTableRecord
2
BYLAYER
70
0
0
LTYPE
5
16
100
AcDbSymbolTableRecord
100
AcDbLinetypeTableRecord
2
DASHED
70
0
3
Dashed __ __ __ __ __ __ __ __ __ __ __ __ __ _
72
65
73
2
40
0.75
49
0.5
74
0
49
-0.25
74
0
0
ENDTAB
0
TABLE
2
LAYER
5
2
100
AcDbSymbolTable
70
3
0
LAYER
5
50
100
AcDbSymbolTableRecord
100
AcDbLayerTableRecord
2
1
70
0
62
7
6
DASHED
0
LAYER
5
51
100
AcDbSymbolTableRecord
100
AcDbLayerTableRecord
2
0
70
0
62
7
6
CONTINUOUS
0
ENDTAB
0
TABLE
2
STYLE
5
3
100
AcDbSymbolTable
70
1
0
STYLE
5
11
100
AcDbSymbolTableRecord
100
AcDbTextStyleTableRecord
2
STANDARD
70
0
0
ENDTAB
0
TABLE
2
VIEW
5
6
100
AcDbSymbolTable
70
0
0
ENDTAB
0
TABLE
2
UCS
5
7
100
AcDbSymbolTable
70
0
0
ENDTAB
0
TABLE
2
APPID
5
9
100
AcDbSymbolTable
70
2
0
APPID
5
12
100
AcDbSymbolTableRecord
100
AcDbRegAppTableRecord
2
ACAD
70
0
0
ENDTAB
0
TABLE
2
DIMSTYLE
5
A
100
AcDbSymbolTable
70
1
0
ENDTAB
0
TABLE
2
BLOCK_RECORD
5
1
100
AcDbSymbolTable
70
1
0
BLOCK_RECORD
5
1F
100
AcDbSymbolTableRecord
100
AcDbBlockTableRecord
2
*MODEL_SPACE
0
BLOCK_RECORD
5
1B
100
AcDbSymbolTableRecord
100
AcDbBlockTableRecord
2
*PAPER_SPACE
0
ENDTAB
0
ENDSEC
0
SECTION
2
BLOCKS
0
BLOCK
5
20
100
AcDbEntity
100
AcDbBlockBegin
2
*MODEL_SPACE
0
ENDBLK
5
21
100
AcDbEntity
100
AcDbBlockEnd
0
BLOCK
5
1C
100
AcDbEntity
100
AcDbBlockBegin
2
*PAPER_SPACE
0
ENDBLK
5
1D
100
AcDbEntity
100
AcDbBlockEnd
0
ENDSEC
0
SECTION
2
ENTITIES
0
LWPOLYLINE
5
100
100
AcDbEntity
8
0
100
AcDbPolyline
90
4
70
1
43
0.0
10
-148.87500000000003
20
107.06249999999999
10
-148.87500000000003
20
118.0625
10
-145.87500000000003
20
118.0625
10
-145.87500000000003
20
107.06249999999999
0
LWPOLYLINE
5
101
100
AcDbEntity
8
0
100
AcDbPolyline
90
14
70
1
43
0.0
10
-128.76250000000002
20
65.424308873314374
10
-128.76250000000002
20
47.424308873314388
10
-134.76249999999999
20
47.424308873314388
10
-134.76249999999996
20
49.424308873314388
10
-135.66250000000002
20
49.424308873314388
10
-135.66249999999999
20
49.062499999999993
42
-0.41421356237308893
10
-137.36250000000001
20
47.362500000000011
10
-150.06250000000006
20
47.362500000000011
42
-0.41421356237307977
10
-151.76249999999999
20
49.062500000000007
10
-151.76249999999999
20
49.424308873314388
10
-152.66250000000002
20
49.424308873314388
10
-152.66250000000002
20
47.424308873314388
10
-158.66249999999999
20
47.424308873314388
10
-158.66249999999999
20
65.424308873314374
0
LWPOLYLINE
5
102
100
AcDbEntity
8
0
100
AcDbPolyline
90
12
70
1
43
0.0
10
-126.38125000000002
20
103.01250000000002
10
-126.38125000000002
20
85.012499999999989
10
-132.38124999999999
20
85.012499999999989
10
-132.38124999999999
20
87.012499999999989
10
-133.28788057781239
20
87.012499999999989
42
-0.38856686094334952
10
-134.98125000000002
20
85.46250000000002
10
-147.68124999999992
20
85.462500000000034
42
-0.38856686094336995
10
-149.37461942218758
20
87.012499999999989
10
-150.28125
20
87.012499999999989
10
-150.28125
20
85.012499999999989
10
-156.28125000000003
20
85.012499999999989
10
-156.28125000000003
20
103.01249999999997
0
LWPOLYLINE
5
103
100
AcDbEntity
8
0
100
AcDbPolyline
90
12
70
1
43
0.0
10
-114.47499999999999
20
122.0625
10
-114.47499999999999
20
104.06250000000001
10
-120.47500000000001
20
104.06250000000001
10
-120.47500000000002
20
106.06250000000038
10
-121.38163057781239
20
106.06250000000038
42
-0.38856686094341314
10
-123.07500000000002
20
104.51250000000002
10
-135.77500000000006
20
104.51250000000002
42
-0.38856686094335297
10
-137.46836942218761
20
106.0625000000001
10
-138.37500000000003
20
106.0625000000001
10
-138.37500000000003
20
104.06250000000001
10
-144.375
20
104.06250000000001
10
-144.375
20
122.0625
0
LWPOLYLINE
5
104
100
AcDbEntity
8
0
100
AcDbPolyline
90
12
70
1
43
0.0
10
-12.081250000000011
20
141.11250000000001
10
-12.081250000000011
20
123.11250000000001
10
-18.081250000000011
20
123.11250000000001
10
-18.081250000000011
20
125.11250000000003
10
-18.987880577812419
20
125.11250000000003
42
-0.38856686094334714
10
-20.681250000000013
20
123.56250000000001
10
-33.381249999999966
20
123.56250000000001
42
-0.38856686094335841
10
-35.074619422187631
20
125.11250000000003
10
-35.981250000000017
20
125.11250000000003
10
-35.981250000000017
20
123.1125
10
-41.98125000000001
20
123.1125
10
-41.98125000000001
20
141.11250000000001
0
LWPOLYLINE
5
105
100
AcDbEntity
8
0
100
AcDbPolyline
90
12
70
1
43
0.0
10
-142.125
20
66.412500000000009
42
0.41421356237308743
10
-140.42500000000001
20
68.112499999999997
10
-140.42500000000001
20
80.8125
42
0.41421356237307672
10
-142.12499999999994
20
82.512500000000003
10
-154.82500000000002
20
82.512499999999989
42
0.41421356237312262
10
-156.52500000000001
20
80.812499999999915
10
-156.52500000000001
20
79.962500000000006
10
-159.47499999999999
20
79.962500000000006
10
-159.47499999999999
20
68.962500000000006
10
-156.52500000000001
20
68.962500000000006
10
-156.52500000000001
20
68.112500000000011
42
0.41421356237309048
10
-154.82500000000002
20
66.412499999999994
0
LWPOLYLINE
5
106
100
AcDbEntity
8
0
100
AcDbPolyline
90
84
70
1
43
0.0
10
-118.3125
20
66.412500000000009
42
0.41421356237310575
10
-116.61250000000001
20
68.112500000000026
10
-116.61250000000001
20
68.962500000000006
10
-113.66250000000001
20
68.962500000000006
10
-113.66250000000001
20
68.112500000000011
42
0.41421356237307816
10
-111.96250000000012
20
66.412499999999994
10
-99.262500000000017
20
66.412500000000009
42
0.41421356237308743
10
-97.562500000000014
20
68.112499999999997
10
-97.562500000000014
20
68.962500000000006
10
-94.612499999999997
20
68.962500000000006
10
-94.612499999999997
20
68.112500000000011
42
0.4142135623731088
10
-92.91249999999998
20
66.412500000000023
10
-80.21250000000002
20
66.412500000000009
42
0.41421356237311185
10
-78.512499999999989
20
68.112500000000054
10
-78.512499999999989
20
68.962500000000006
10
-75.5625
20
68.962500000000006
10
-75.5625
20
68.112500000000011
42
0.4142135623731088
10
-73.862499999999955
20
66.412500000000009
10
-61.162500000000001
20
66.412500000000009
42
0.4142135623731073
10
-59.462499999999999
20
68.112500000000054
10
-59.462499999999999
20
68.962500000000006
10
-56.512500000000003
20
68.962500000000006
10
-56.512500000000003
20
68.112500000000011
42
0.41421356237309964
10
-54.8125
20
66.412500000000009
10
-42.112499999999997
20
66.412500000000009
42
0.41421356237311036
10
-40.412499999999987
20
68.112500000000054
10
-40.412499999999987
20
68.962500000000006
10
-37.462500000000006
20
68.962500000000006
10
-37.462500000000006
20
68.112500000000011
42
0.41421356237308815
10
-35.762500000000017
20
66.412500000000009
10
-23.062500000000004
20
66.412500000000009
42
0.41421356237310269
10
-21.362500000000004
20
68.112500000000026
10
-21.362500000000004
20
68.962500000000006
10
-18.412500000000001
20
68.962500000000006
10
-18.412500000000001
20
68.112500000000011
42
0.41421356237309465
10
-16.712499999999991
20
66.412500000000009
10
-4.0125000000000011
20
66.412500000000009
42
0.41421356237310314
10
-2.3124999999999969
20
68.112500000000026
10
-2.3125000000000009
20
80.8125
42
0.41421356237309898
10
-4.0125000000000099
20
82.512500000000017
10
-16.712500000000002
20
82.512499999999989
42
0.41421356237310614
10
-18.412499999999991
20
80.812499999999972
10
-18.412499999999991
20
79.962500000000006
10
-21.362500000000004
20
79.962500000000006
10
-21.362500000000004
20
80.8125
42
0.41421356237310042
10
-23.062499999999986
20
82.512500000000017
10
-35.762500000000003
20
82.512499999999989
42
0.41421356237310958
10
-37.462499999999984
20
80.812499999999972
10
-37.462499999999984
20
79.962500000000006
10
-40.412499999999987
20
79.962500000000006
10
-40.412499999999987
20
80.8125
42
0.41421356237309659
10
-42.11249999999999
20
82.512500000000003
10
-54.8125
20
82.512499999999989
42
0.41421356237311036
10
-56.512499999999989
20
80.812499999999957
10
-56.512499999999989
20
79.962500000000006
10
-59.462499999999999
20
79.962500000000006
10
-59.462499999999999
20
80.8125
42
0.41421356237308893
10
-61.16249999999998
20
82.512500000000003
10
-73.862500000000011
20
82.512499999999989
42
0.4142135623731088
10
-75.562499999999986
20
80.812499999999972
10
-75.562499999999986
20
79.962500000000006
10
-78.512500000000003
20
79.962500000000006
10
-78.512500000000003
20
80.8125
42
0.41421356237308588
10
-80.212499999999963
20
82.512500000000017
10
-92.912500000000023
20
82.512499999999989
42
0.41421356237312262
10
-94.612499999999997
20
80.812499999999915
10
-94.612499999999997
20
79.962500000000006
10
-97.562500000000014
20
79.962500000000006
10
-97.562500000000014
20
80.8125
42
0.41421356237307672
10
-99.26249999999996
20
82.512500000000003
10
-111.96250000000001
20
82.512499999999989
42
0.41421356237311646
10
-113.66249999999997
20
80.812499999999915
10
-113.66249999999997
20
79.962500000000006
10
-116.61250000000001
20
79.962500000000006
10
-116.61250000000001
20
80.8125
42
0.41421356237308893
10
-118.3125
20
82.512500000000003
10
-131.01250000000002
20
82.512499999999989
42
0.41421356237311646
10
-132.71249999999998
20
80.812499999999915
10
-132.71249999999998
20
79.962500000000006
10
-135.66250000000002
20
79.962500000000006
10
-135.66250000000002
20
68.962500000000006
10
-132.71250000000003
20
68.962500000000006
10
-132.71250000000003
20
68.112500000000011
42
0.41421356237307816
10
-131.01250000000013
20
66.412499999999994
0
LWPOLYLINE
5
107
100
AcDbEntity
8
0
100
AcDbPolyline
90
24
70
1
43
0.0
10
-37.350000000000009
20
23.550000000000004
42
0.41421356237309431
10
-35.650000000000006
20
25.250000000000004
10
-35.650000000000006
20
26.100000000000001
10
-32.700000000000003
20
26.100000000000001
10
-32.700000000000003
20
25.250000000000004
42
0.4142135623730912
10
-31.000000000000018
20
23.550000000000004
10
-18.299999999999997
20
23.550000000000004
42
0.41421356237309392
10
-16.599999999999998
20
25.250000000000004
10
-16.600000000000001
20
37.950000000000003
42
0.4142135623731088
10
-18.300000000000047
20
39.650000000000006
10
-31.000000000000007
20
39.650000000000006
42
0.41421356237309964
10
-32.700000000000003
20
37.949999999999982
10
-32.700000000000003
20
37.100000000000001
10
-35.650000000000006
20
37.100000000000001
10
-35.650000000000006
20
37.950000000000003
42
0.41421356237309581
10
-37.350000000000009
20
39.650000000000013
10
-50.049999999999997
20
39.650000000000006
42
0.41421356237310419
10
-51.749999999999986
20
37.949999999999982
10
-51.749999999999986
20
37.100000000000001
10
-54.700000000000003
20
37.100000000000001
10
-54.700000000000003
20
26.100000000000001
10
-51.75
20
26.100000000000001
10
-51.75
20
25.250000000000004
42
0.41421356237309737
10
-50.049999999999997
20
23.550000000000004
0
CIRCLE
5
108
100
AcDbEntity
8
0
100
AcDbCircle
10
-196
20
4
30
0
40
1.0500000000000014
210
0
220
0
230
1
0
CIRCLE
5
109
100
AcDbEntity
8
0
100
AcDbCircle
10
-4
20
4
30
0
40
1.0500000000000003
210
0
220
0
230
1
0
LWPOLYLINE
5
110
100
AcDbEntity
8
0
100
AcDbPolyline
90
72
70
1
43
0.0
10
-108.78750000000002
20
47.362500000000011
42
0.41421356237309048
10
-107.08750000000002
20
49.062500000000028
10
-107.08750000000003
20
49.912499999999994
10
-104.1375
20
49.912499999999994
10
-104.1375
20
49.062500000000007
42
0.41421356237307977
10
-102.43750000000006
20
47.362499999999997
10
-89.737500000000011
20
47.362500000000011
42
0.41421356237309048
10
-88.037500000000023
20
49.062500000000028
10
-88.037500000000023
20
49.912499999999994
10
-85.087499999999991
20
49.912499999999994
10
-85.087499999999991
20
49.062500000000007
42
0.41421356237311036
10
-83.38749999999996
20
47.362500000000018
10
-70.687499999999986
20
47.362500000000011
42
0.41421356237310419
10
-68.987499999999983
20
49.062500000000007
10
-68.987499999999983
20
49.912499999999994
10
-66.037499999999994
20
49.912499999999994
10
-66.037499999999994
20
49.062500000000007
42
0.41421356237310269
10
-64.337499999999977
20
47.362500000000011
10
-51.637499999999996
20
47.362500000000011
42
0.41421356237310419
10
-49.937499999999993
20
49.062500000000007
10
-49.937499999999993
20
49.912499999999994
10
-46.987499999999997
20
49.912499999999994
10
-46.987499999999997
20
49.062500000000007
42
0.41421356237310419
10
-45.287499999999994
20
47.362500000000011
10
-32.587500000000006
20
47.362500000000011
42
0.41421356237309809
10
-30.887500000000006
20
49.062500000000007
10
-30.887500000000006
20
49.912499999999994
10
-27.9375
20
49.912499999999994
10
-27.9375
20
49.062500000000007
42
0.41421356237309048
10
-26.237500000000015
20
47.362500000000011
10
-13.5375
20
47.362500000000011
42
0.41421356237309809
10
-11.837500000000002
20
49.062500000000007
10
-11.837499999999999
20
61.762499999999996
42
0.41421356237309659
10
-13.537500000000025
20
63.462500000000006
10
-26.237500000000004
20
63.462500000000006
42
0.41421356237309737
10
-27.9375
20
61.762500000000003
10
-27.9375
20
60.912500000000009
10
-30.887500000000003
20
60.912500000000009
10
-30.887500000000003
20
61.762500000000003
42
0.4142135623730912
10
-32.587499999999999
20
63.462500000000006
10
-45.287499999999994
20
63.462500000000006
42
0.41421356237310419
10
-46.987499999999997
20
61.762500000000003
10
-46.987499999999997
20
60.912500000000009
10
-49.937499999999993
20
60.912500000000009
10
-49.937499999999993
20
61.762500000000003
42
0.41421356237310419
10
-51.637499999999996
20
63.462500000000006
10
-64.337500000000006
20
63.462500000000006
42
0.41421356237309964
10
-66.037499999999994
20
61.762500000000003
10
-66.037499999999994
20
60.912500000000009
10
-68.987499999999983
20
60.912500000000009
10
-68.987499999999983
20
61.762500000000003
42
0.41421356237310419
10
-70.687499999999986
20
63.462500000000006
10
-83.387500000000017
20
63.462500000000006
42
0.41421356237308893
10
-85.087500000000006
20
61.762500000000024
10
-85.087500000000006
20
60.912500000000009
10
-88.037500000000023
20
60.912500000000009
10
-88.037500000000023
20
61.762500000000003
42
0.41421356237307977
10
-89.73749999999994
20
63.462500000000006
10
-102.4375
20
63.462500000000006
42
0.41421356237309048
10
-104.13749999999999
20
61.762499999999989
10
-104.13749999999999
20
60.912500000000009
10
-107.08750000000002
20
60.912500000000009
10
-107.08750000000002
20
61.762500000000003
42
0.41421356237307977
10
-108.78749999999997
20
63.462500000000013
10
-121.48750000000001
20
63.462500000000006
42
0.41421356237309048
10
-123.1875
20
61.762499999999989
10
-123.1875
20
60.912500000000009
10
-126.13750000000003
20
60.912500000000009
10
-126.13750000000003
20
49.912499999999994
10
-123.18750000000001
20
49.912499999999994
10
-123.18750000000001
20
49.062500000000007
42
0.41421356237307977
10
-121.48750000000007
20
47.362499999999997
0
LWPOLYLINE
5
111
100
AcDbEntity
8
0
100
AcDbPolyline
90
12
70
1
43
0.0
10
-54.018750000000011
20
123.56250000000001
42
0.41421356237309659
10
-52.318750000000009
20
125.26250000000002
10
-52.318750000000016
20
137.96250000000001
42
0.41421356237308893
10
-54.018749999999997
20
139.66249999999999
10
-66.718750000000014
20
139.66249999999999
42
0.41421356237309659
10
-68.418750000000017
20
137.96250000000001
10
-68.418750000000017
20
137.11250000000004
10
-71.36875000000002
20
137.11250000000004
10
-71.36875000000002
20
126.11250000000001
10
-68.418750000000003
20
126.11250000000001
10
-68.418750000000003
20
125.26250000000002
42
0.41421356237308893
10
-66.718750000000028
20
123.56250000000001
0
LWPOLYLINE
5
112
100
AcDbEntity
8
0
100
AcDbPolyline
90
36
70
1
43
0.0
10
-192.92500000000004
20
39.650000000000006
42
0.41421356237305451
10
-194.62500000000003
20
37.950000000000109
10
-194.62500000000003
20
36.596321667059193
10
-197.57499999999999
20
36.596321667059193
10
-197.57499999999999
20
25.5963216670592
10
-194.62500000000006
20
25.5963216670592
10
-194.62500000000006
20
25.250000000000004
42
0.41421356237310575
10
-192.92500000000004
20
23.549999999999986
10
-180.22500000000002
20
23.550000000000004
42
0.41421356237306139
10
-178.52499999999998
20
25.249999999999883
10
-178.52499999999998
20
25.5963216670592
10
-175.57500000000005
20
25.5963216670592
10
-175.57500000000005
20
25.250000000000004
42
0.41421356237310575
10
-173.87500000000003
20
23.549999999999986
10
-161.17500000000004
20
23.550000000000004
42
0.41421356237306595
10
-159.47499999999999
20
25.249999999999929
10
-159.47499999999999
20
25.5963216670592
10
-156.52500000000001
20
25.5963216670592
10
-156.52500000000001
20
25.250000000000004
42
0.41421356237309431
10
-154.82500000000002
20
23.550000000000001
10
-142.125
20
23.550000000000004
42
0.41421356237309198
10
-140.42500000000001
20
25.250000000000025
10
-140.42500000000001
20
37.950000000000003
42
0.41421356237307977
10
-142.12499999999994
20
39.650000000000013
10
-154.82500000000002
20
39.650000000000006
42
0.41421356237310042
10
-156.52500000000003
20
37.949999999999996
10
-156.52500000000003
20
36.596321667059193
10
-159.47500000000002
20
36.596321667059193
10
-159.47500000000002
20
37.95000000000001
42
0.41421356237310958
10
-161.1750000000001
20
39.650000000000006
10
-173.87500000000003
20
39.650000000000006
42
0.41421356237305451
10
-175.57500000000002
20
37.950000000000109
10
-175.57500000000002
20
36.596321667059193
10
-178.52499999999998
20
36.596321667059193
10
-178.52499999999998
20
37.950000000000003
42
0.4142135623731073
10
-180.22500000000002
20
39.650000000000027
0
CIRCLE
5
113
100
AcDbEntity
8
0
100
AcDbCircle
10
-4
20
116.00000000000001
30
0
40
1.0500000000000003
210
0
220
0
230
1
0
LWPOLYLINE
5
114
100
AcDbEntity
8
0
100
AcDbPolyline
90
4
70
1
43
0.0
10
-31.710000000000001
20
20.589999999999993
10
-31.710000000000001
20
0.58999999999999275
10
-69.710000000000008
20
0.58999999999999342
10
-69.710000000000008
20
20.589999999999993
0
CIRCLE
5
115
100
AcDbEntity
8
0
100
AcDbCircle
10
-196
20
142
30
0
40
1.0500000000000014
210
0
220
0
230
1
0
LWPOLYLINE
5
116
100
AcDbEntity
8
0
100
AcDbPolyline
90
48
70
1
43
0.0
10
-118.3125
20
23.550000000000004
42
0.41421356237310192
10
-116.61249999999997
20
25.250000000000004
10
-116.61249999999998
20
26.100000000000001
10
-113.66250000000001
20
26.100000000000001
10
-113.66250000000001
20
25.250000000000004
42
0.41421356237307899
10
-111.96250000000006
20
23.550000000000001
10
-99.262500000000017
20
23.550000000000004
42
0.41421356237309198
10
-97.562500000000028
20
25.250000000000025
10
-97.562500000000028
20
26.100000000000001
10
-94.612499999999997
20
26.100000000000001
10
-94.612499999999997
20
25.250000000000004
42
0.41421356237310958
10
-92.91249999999998
20
23.550000000000018
10
-80.212500000000006
20
23.550000000000004
42
0.41421356237309431
10
-78.512500000000003
20
25.250000000000004
10
-78.512500000000003
20
26.100000000000001
10
-75.5625
20
26.100000000000001
10
-75.5625
20
25.250000000000004
42
0.41421356237309581
10
-73.862500000000011
20
23.550000000000001
10
-61.162500000000001
20
23.550000000000004
42
0.41421356237309737
10
-59.462499999999999
20
25.250000000000004
10
-59.462499999999999
20
37.950000000000003
42
0.41421356237309886
10
-61.162500000000001
20
39.650000000000013
10
-73.862500000000011
20
39.650000000000006
42
0.41421356237310269
10
-75.5625
20
37.949999999999974
10
-75.5625
20
37.100000000000001
10
-78.512500000000003
20
37.100000000000001
10
-78.512500000000003
20
37.950000000000003
42
0.41421356237308665
10
-80.212499999999949
20
39.650000000000013
10
-92.912500000000023
20
39.650000000000006
42
0.41421356237310042
10
-94.61250000000004
20
37.949999999999996
10
-94.61250000000004
20
37.100000000000001
10
-97.562500000000014
20
37.100000000000001
10
-97.562500000000014
20
37.950000000000003
42
0.41421356237307977
10
-99.26249999999996
20
39.650000000000013
10
-111.96250000000001
20
39.650000000000006
42
0.41421356237309581
10
-113.66249999999999
20
37.949999999999982
10
-113.66249999999999
20
37.100000000000001
10
-116.61250000000001
20
37.100000000000001
10
-116.61250000000001
20
37.950000000000003
42
0.4142135623730912
10
-118.3125
20
39.650000000000013
10
-131.01250000000002
20
39.650000000000006
42
0.41421356237309581
10
-132.71250000000001
20
37.949999999999982
10
-132.71250000000001
20
37.100000000000001
10
-135.66249999999999
20
37.100000000000001
10
-135.66249999999999
20
26.100000000000001
10
-132.71250000000003
20
26.100000000000001
10
-132.71250000000003
20
25.250000000000004
42
0.41421356237307899
10
-131.01250000000007
20
23.550000000000001
0
LWPOLYLINE
5
117
100
AcDbEntity
8
0
100
AcDbPolyline
90
36
70
1
43
0.0
10
-113.55000000000004
20
123.56250000000001
42
0.41421356237308893
10
-111.85000000000004
20
125.26250000000002
10
-111.85000000000004
20
126.11250000000001
10
-108.90000000000002
20
126.11250000000001
10
-108.90000000000002
20
125.26250000000002
42
0.41421356237308893
10
-107.20000000000002
20
123.56250000000001
10
-94.500000000000014
20
123.56250000000001
42
0.41421356237308282
10
-92.800000000000011
20
125.26249999999996
10
-92.800000000000011
20
126.11250000000001
10
-89.850000000000009
20
126.11250000000001
10
-89.850000000000009
20
125.26250000000002
42
0.41421356237311646
10
-88.149999999999991
20
123.56250000000001
10
-75.450000000000003
20
123.56250000000001
42
0.41421356237309659
10
-73.75
20
125.26250000000002
10
-73.750000000000014
20
137.96250000000001
42
0.41421356237308893
10
-75.449999999999989
20
139.66249999999999
10
-88.150000000000034
20
139.66249999999999
42
0.41421356237308282
10
-89.850000000000023
20
137.96250000000006
10
-89.850000000000023
20
137.11250000000004
10
-92.800000000000026
20
137.11250000000004
10
-92.800000000000026
20
137.96250000000001
42
0.41421356237311646
10
-94.500000000000043
20
139.66249999999999
10
-107.20000000000002
20
139.66249999999999
42
0.41421356237308893
10
-108.90000000000002
20
137.96250000000001
10
-108.90000000000002
20
137.11250000000004
10
-111.85000000000004
20
137.11250000000004
10
-111.85000000000004
20
137.96250000000001
42
0.41421356237308893
10
-113.55000000000004
20
139.66249999999999
10
-126.25000000000001
20
139.66249999999999
42
0.41421356237308282
10
-127.95000000000002
20
137.96250000000006
10
-127.95000000000002
20
137.11250000000004
10
-130.90000000000001
20
137.11250000000004
10
-130.90000000000001
20
126.11250000000001
10
-127.95000000000002
20
126.11250000000001
10
-127.95000000000002
20
125.26250000000002
42
0.41421356237307672
10
-126.25000000000007
20
123.56250000000001
0
LWPOLYLINE
5
118
100
AcDbEntity
8
0
100
AcDbPolyline
90
12
70
1
43
0.0
10
-180.22500000000002
20
66.412500000000009
42
0.41421356237311036
10
-178.52499999999998
20
68.11250000000004
10
-178.52499999999998
20
80.8125
42
0.41421356237311036
10
-180.22500000000002
20
82.512500000000017
10
-192.92500000000004
20
82.512499999999989
42
0.41421356237308588
10
-194.625
20
80.8125
10
-194.625
20
79.96250000000002
10
-197.57499999999999
20
79.96250000000002
10
-197.57499999999999
20
68.962500000000006
10
-194.62500000000006
20
68.962500000000006
10
-194.62500000000006
20
68.112500000000011
42
0.41421356237313484
10
-192.92499999999993
20
66.412500000000023
0
LWPOLYLINE
5
119
100
AcDbEntity
8
0
100
AcDbPolyline
90
12
70
1
43
0.0
10
-156.41249999999999
20
109.27500000000002
42
0.41421356237307672
10
-154.71250000000001
20
110.97499999999997
10
-154.71250000000001
20
123.67500000000001
42
0.41421356237311646
10
-156.41250000000008
20
125.37499999999997
10
-169.11249999999998
20
125.37500000000001
42
0.41421356237310419
10
-170.81250000000006
20
123.67500000000005
10
-170.81250000000006
20
122.82500000000002
10
-173.76249999999999
20
122.82500000000002
10
-173.76249999999999
20
111.82500000000002
10
-170.81250000000006
20
111.82500000000002
10
-170.81250000000006
20
110.97500000000002
42
0.41421356237308893
10
-169.11250000000007
20
109.27500000000003
0
LWPOLYLINE
5
120
100
AcDbEntity
8
0
100
AcDbPolyline
90
12
70
1
43
0.0
10
-180.22500000000002
20
47.362500000000011
42
0.41421356237305068
10
-178.52500000000003
20
49.062499999999872
10
-178.52499999999998
20
61.762500000000003
42
0.41421356237312568
10
-180.22500000000008
20
63.462499999999984
10
-192.92500000000004
20
63.462500000000006
42
0.41421356237305068
10
-194.62500000000003
20
61.762500000000138
10
-194.62500000000003
20
60.912500000000016
10
-197.57499999999999
20
60.912500000000016
10
-197.57499999999999
20
49.912500000000001
10
-194.62500000000006
20
49.912500000000001
10
-194.62500000000006
20
49.062500000000007
42
0.41421356237312568
10
-192.92499999999995
20
47.362500000000026
0
LWPOLYLINE
5
121
100
AcDbEntity
8
0
100
AcDbPolyline
90
12
70
1
43
0.0
10
-180.22500000000005
20
104.51250000000002
42
0.41421356237310419
10
-178.52499999999998
20
106.21249999999998
10
-178.52499999999998
20
118.91250000000002
42
0.41421356237305218
10
-180.22499999999991
20
120.61250000000003
10
-192.92500000000004
20
120.61250000000001
42
0.41421356237307672
10
-194.62500000000003
20
118.91250000000012
10
-194.62500000000003
20
118.06250000000003
10
-197.57499999999999
20
118.06250000000003
10
-197.57499999999999
20
107.0625
10
-194.62500000000006
20
107.0625
10
-194.62500000000006
20
106.21250000000002
42
0.41421356237308893
10
-192.92500000000007
20
104.51250000000003
0
LWPOLYLINE
5
122
100
AcDbEntity
8
0
100
AcDbPolyline
90
12
70
1
43
0.0
10
-180.22500000000002
20
85.46250000000002
42
0.41421356237308893
10
-178.52500000000006
20
87.162500000000009
10
-178.52499999999998
20
99.862499999999997
42
0.41421356237308893
10
-180.22499999999997
20
101.56249999999999
10
-192.92500000000001
20
101.5625
42
0.41421356237310419
10
-194.62500000000006
20
99.86250000000004
10
-194.62500000000006
20
99.012500000000017
10
-197.57499999999999
20
99.012500000000017
10
-197.57499999999999
20
88.012499999999989
10
-194.62500000000006
20
88.012499999999989
10
-194.62500000000006
20
87.162500000000009
42
0.41421356237308893
10
-192.92500000000007
20
85.46250000000002
0
LWPOLYLINE
5
123
100
AcDbEntity
8
0
100
AcDbPolyline
90
60
70
1
43
0.0
10
-94.5
20
104.51250000000002
42
0.41421356237307672
10
-92.800000000000011
20
106.21249999999996
10
-92.799999999999997
20
107.0625
10
-89.849999999999994
20
107.0625
10
-89.849999999999994
20
106.21250000000002
42
0.41421356237311646
10
-88.14999999999992
20
104.51250000000005
10
-75.449999999999989
20
104.51250000000002
42
0.41421356237307977
10
-73.749999999999986
20
106.21249999999996
10
-73.749999999999986
20
107.0625
10
-70.799999999999997
20
107.0625
10
-70.799999999999997
20
106.21250000000002
42
0.41421356237310419
10
-69.099999999999937
20
104.51250000000003
10
-56.399999999999999
20
104.51250000000002
42
0.41421356237307977
10
-54.699999999999989
20
106.21249999999996
10
-54.699999999999989
20
107.0625
10
-51.75
20
107.0625
10
-51.75
20
106.21250000000002
42
0.41421356237309048
10
-50.049999999999983
20
104.51250000000003
10
-37.350000000000009
20
104.51250000000002
42
0.41421356237307977
10
-35.649999999999999
20
106.21249999999996
10
-35.649999999999999
20
107.0625
10
-32.700000000000003
20
107.0625
10
-32.700000000000003
20
106.21250000000002
42
0.41421356237309048
10
-31
20
104.51250000000003
10
-18.299999999999997
20
104.51250000000002
42
0.41421356237307977
10
-16.599999999999994
20
106.21249999999996
10
-16.600000000000001
20
118.91250000000002
42
0.41421356237309581
10
-18.30000000000004
20
120.6125
10
-31.000000000000007
20
120.61250000000001
42
0.41421356237309737
10
-32.70000000000001
20
118.91250000000002
10
-32.70000000000001
20
118.06250000000003
10
-35.650000000000006
20
118.06250000000003
10
-35.650000000000006
20
118.91250000000002
42
0.41421356237307816
10
-37.349999999999952
20
120.61250000000001
10
-50.049999999999997
20
120.61250000000001
42
0.41421356237310419
10
-51.750000000000007
20
118.91250000000002
10
-51.750000000000007
20
118.06250000000003
10
-54.699999999999996
20
118.06250000000003
10
-54.699999999999996
20
118.91250000000002
42
0.41421356237309659
10
-56.40000000000002
20
120.6125
10
-69.099999999999994
20
120.61250000000001
42
0.41421356237309659
10
-70.800000000000011
20
118.91250000000002
10
-70.800000000000011
20
118.06250000000003
10
-73.749999999999986
20
118.06250000000003
10
-73.749999999999986
20
118.91250000000002
42
0.41421356237309659
10
-75.450000000000017
20
120.6125
10
-88.150000000000006
20
120.61250000000001
42
0.41421356237311646
10
-89.850000000000009
20
118.91249999999999
10
-89.850000000000009
20
118.06250000000003
10
-92.800000000000011
20
118.06250000000003
10
-92.800000000000011
20
118.91250000000002
42
0.41421356237308282
10
-94.5
20
120.61249999999998
10
-107.2
20
120.61250000000001
42
0.41421356237310114
10
-108.89999999999999
20
118.91250000000002
10
-108.89999999999999
20
118.06250000000003
10
-111.85000000000001
20
118.06250000000003
10
-111.85000000000001
20
107.0625
10
-108.90000000000001
20
107.0625
10
-108.90000000000001
20
106.21250000000002
42
0.41421356237306139
10
-107.2000000000001
20
104.51250000000002
0
LWPOLYLINE
5
124
100
AcDbEntity
8
0
100
AcDbPolyline
90
72
70
1
43
0.0
10
-104.02500000000002
20
85.46250000000002
42
0.41421356237310114
10
-102.32500000000003
20
87.162500000000009
10
-102.32500000000003
20
88.012499999999989
10
-99.375
20
88.012499999999989
10
-99.375
20
87.162500000000009
42
0.41421356237311646
10
-97.674999999999926
20
85.462500000000034
10
-84.975000000000009
20
85.46250000000002
42
0.41421356237310114
10
-83.27500000000002
20
87.162500000000009
10
-83.27500000000002
20
88.012499999999989
10
-80.324999999999989
20
88.012499999999989
10
-80.324999999999989
20
87.162500000000009
42
0.41421356237309964
10
-78.624999999999986
20
85.46250000000002
10
-65.924999999999997
20
85.46250000000002
42
0.41421356237307977
10
-64.225000000000009
20
87.162499999999937
10
-64.225000000000009
20
88.012499999999989
10
-61.274999999999991
20
88.012499999999989
10
-61.274999999999991
20
87.162500000000009
42
0.41421356237310419
10
-59.574999999999925
20
85.46250000000002
10
-46.875
20
85.46250000000002
42
0.41421356237310114
10
-45.175000000000011
20
87.162500000000009
10
-45.175000000000011
20
88.012499999999989
10
-42.224999999999994
20
88.012499999999989
10
-42.224999999999994
20
87.162500000000009
42
0.41421356237309048
10
-40.524999999999977
20
85.46250000000002
10
-27.825000000000006
20
85.46250000000002
42
0.41421356237310114
10
-26.125000000000011
20
87.162500000000009
10
-26.125000000000011
20
88.012499999999989
10
-23.175000000000004
20
88.012499999999989
10
-23.175000000000004
20
87.162500000000009
42
0.41421356237309737
10
-21.475000000000005
20
85.46250000000002
10
-8.7749999999999986
20
85.46250000000002
42
0.41421356237310081
10
-7.0750000000000037
20
87.162500000000009
10
-7.0750000000000002
20
99.862499999999997
42
0.41421356237308643
10
-8.7749999999999808
20
101.5625
10
-21.475000000000005
20
101.5625
42
0.41421356237307977
10
-23.175000000000011
20
99.862500000000054
10
-23.175000000000011
20
99.012500000000017
10
-26.125000000000004
20
99.012500000000017
10
-26.125000000000004
20
99.862499999999997
42
0.41421356237308204
10
-27.824999999999939
20
101.5625
10
-40.524999999999991
20
101.5625
42
0.41421356237307977
10
-42.225000000000001
20
99.862500000000054
10
-42.225000000000001
20
99.012500000000017
10
-45.17499999999999
20
99.012500000000017
10
-45.17499999999999
20
99.862499999999997
42
0.41421356237308132
10
-46.874999999999943
20
101.5625
10
-59.574999999999996
20
101.5625
42
0.41421356237307816
10
-61.275000000000013
20
99.862500000000111
10
-61.275000000000013
20
99.012500000000017
10
-64.225000000000009
20
99.012500000000017
10
-64.225000000000009
20
99.862499999999997
42
0.41421356237309048
10
-65.925000000000026
20
101.56249999999999
10
-78.624999999999986
20
101.5625
42
0.41421356237307055
10
-80.325000000000003
20
99.862500000000111
10
-80.325000000000003
20
99.012500000000017
10
-83.27500000000002
20
99.012500000000017
10
-83.27500000000002
20
99.862499999999997
42
0.41421356237310114
10
-84.975000000000009
20
101.56249999999999
10
-97.675000000000011
20
101.5625
42
0.41421356237307672
10
-99.375000000000014
20
99.862500000000054
10
-99.375000000000014
20
99.012500000000017
10
-102.32500000000002
20
99.012500000000017
10
-102.32500000000002
20
99.862499999999997
42
0.41421356237306139
10
-104.02499999999992
20
101.5625
10
-116.72500000000001
20
101.5625
42
0.41421356237306139
10
-118.42500000000001
20
99.862500000000097
10
-118.42500000000001
20
99.012500000000017
10
-121.37500000000003
20
99.012500000000017
10
-121.37500000000003
20
88.012499999999989
10
-118.42500000000001
20
88.012499999999989
10
-118.42500000000001
20
87.162500000000009
42
0.41421356237306139
10
-116.72500000000011
20
85.462500000000006
0
LWPOLYLINE
5
125
100
AcDbEntity
8
0
100
AcDbPolyline
90
35
70
1
43
0.0
10
-175.46250000000003
20
128.32500000000005
10
-189.81250000000003
20
128.32500000000005
10
-189.81250000000003
20
126.00000000000001
10
-192.8125
20
126.00000000000001
10
-192.8125
20
137
10
-189.86250000000001
20
137
10
-189.86249999999998
20
142.72500000000002
42
-0.41421356237309809
10
-188.16249999999999
20
144.42500000000001
10
-175.46250000000009
20
144.42500000000001
42
-0.41421356237310419
10
-173.76250000000002
20
142.72500000000002
10
-173.76250000000002
20
141.875
10
-170.81250000000006
20
141.875
10
-170.81250000000006
20
142.72500000000005
42
-0.41421356237310419
10
-169.11249999999998
20
144.42500000000001
10
-156.41250000000008
20
144.42499999999998
42
-0.41421356237311646
10
-154.71250000000001
20
142.72500000000002
10
-154.71250000000001
20
141.875
10
-151.76249999999999
20
141.875
10
-151.76249999999999
20
142.72500000000011
42
-0.41421356237306139
10
-150.0625
20
144.42500000000001
10
-137.36249999999995
20
144.42500000000004
42
-0.41421356237308282
10
-135.66250000000002
20
142.72500000000002
10
-135.66250000000002
20
130.02499999999998
42
-0.41421356237307672
10
-137.36250000000001
20
128.32500000000005
10
-150.06250000000009
20
128.32500000000005
42
-0.41421356237306139
10
-151.76249999999999
20
130.02500000000003
10
-151.76249999999999
20
130.87500000000003
10
-154.71250000000001
20
130.87500000000003
10
-154.71250000000001
20
130.02499999999998
42
-0.41421356237307672
10
-156.41249999999999
20
128.32500000000005
10
-169.11250000000007
20
128.32500000000002
42
-0.41421356237308893
10
-170.81250000000006
20
130.02500000000003
10
-170.81250000000006
20
130.87500000000003
10
-173.76250000000002
20
130.87500000000003
10
-173.76250000000005
20
130.02500000000003
42
-0.41421356237309809
0
LWPOLYLINE
5
126
100
AcDbEntity
8
0
100
AcDbPolyline
90
12
70
1
43
0.0
10
-1.0000000000000009
20
-1.0000000000000044
42
0.41421356237309531
10
1.0000000000000004
20
0.99999999999999734
10
1.0000000000000004
20
145.00000000000003
42
0.41421356237309553
10
-0.99999999999999656
20
147.00000000000003
10
-199.00000000000006
20
147.00000000000003
42
0.4142135623730846
10
-201
20
145.00000000000006
10
-201.00000000000006
20
0.99999999999999645
42
0.41421356237309742
10
-199.00000000000006
20
-1.0000000000000124
10
-29.914554191481706
20
-1.0000000000000013
10
-29.914554191481713
20
13.073379241090725
10
-9.9145541914817148
20
13.073379241090725
10
-9.9145541914817148
20
-1.0000000000000009
0
CIRCLE
5
127
100
AcDbEntity
8
0
100
AcDbCircle
10
-76
20
10
30
0
40
1.0500000000000043
210
0
220
0
230
1
0
LWPOLYLINE
5
128
100
AcDbEntity
8
0
100
AcDbPolyline
90
4
70
1
43
0.0
10
-157.78125000000003
20
88.012499999999989
10
-160.78125000000003
20
88.012499999999989
10
-160.78125000000003
20
99.012500000000017
10
-157.78125000000003
20
99.012500000000017
0
LWPOLYLINE
5
129
100
AcDbEntity
8
0
100
AcDbPolyline
90
4
70
1
43
0.0
10
-160.16249999999999
20
49.912500000000001
10
-163.16249999999999
20
49.912500000000001
10
-163.16249999999999
20
60.912499999999994
10
-160.16249999999999
20
60.912499999999994
0
ENDSEC
0
SECTION
2
OBJECTS
0
DICTIONARY
5
C
100
AcDbDictionary
3
ACAD_GROUP
350
D
3
ACAD_MLINESTYLE
350
17
0
DICTIONARY
5
D
100
AcDbDictionary
0
DICTIONARY
5
1A
330
C
100
AcDbDictionary
0
DICTIONARY
5
17
100
AcDbDictionary
0
ENDSEC
0
EOF
