0
SECTION
2
HEADER
9
$INSUNITS
70
4
9
$ACADVER
1
AC1014
9
$HANDSEED
5
FFFF
0
ENDSEC
0
SECTION
2
TABLES
0
TABLE
2
VPORT
5
8
100
AcDbSymbolTable
0
ENDTAB
0
TABLE
2
LTYPE
5
5
100
AcDbSymbolTable
0
LTYPE
5
14
100
AcDbSymbolTableRecord
100
AcDbLinetypeTableRecord
2
BYBLOCK
70
0
0
LTYPE
5
15
100
AcDbSymbolTableRecord
100
AcDbLinetypeTableRecord
2
BYLAYER
70
0
0
LTYPE
5
16
100
AcDbSymbolTableRecord
100
AcDbLinetypeTableRecord
2
DASHED
70
0
3
Dashed __ __ __ __ __ __ __ __ __ __ __ __ __ _
72
65
73
2
40
0.75
49
0.5
74
0
49
-0.25
74
0
0
ENDTAB
0
TABLE
2
LAYER
5
2
100
AcDbSymbolTable
70
3
0
LAYER
5
50
100
AcDbSymbolTableRecord
100
AcDbLayerTableRecord
2
1
70
0
62
7
6
DASHED
0
LAYER
5
51
100
AcDbSymbolTableRecord
100
AcDbLayerTableRecord
2
0
70
0
62
7
6
CONTINUOUS
0
ENDTAB
0
TABLE
2
STYLE
5
3
100
AcDbSymbolTable
70
1
0
STYLE
5
11
100
AcDbSymbolTableRecord
100
AcDbTextStyleTableRecord
2
STANDARD
70
0
0
ENDTAB
0
TABLE
2
VIEW
5
6
100
AcDbSymbolTable
70
0
0
ENDTAB
0
TABLE
2
UCS
5
7
100
AcDbSymbolTable
70
0
0
ENDTAB
0
TABLE
2
APPID
5
9
100
AcDbSymbolTable
70
2
0
APPID
5
12
100
AcDbSymbolTableRecord
100
AcDbRegAppTableRecord
2
ACAD
70
0
0
ENDTAB
0
TABLE
2
DIMSTYLE
5
A
100
AcDbSymbolTable
70
1
0
ENDTAB
0
TABLE
2
BLOCK_RECORD
5
1
100
AcDbSymbolTable
70
1
0
BLOCK_RECORD
5
1F
100
AcDbSymbolTableRecord
100
AcDbBlockTableRecord
2
*MODEL_SPACE
0
BLOCK_RECORD
5
1B
100
AcDbSymbolTableRecord
100
AcDbBlockTableRecord
2
*PAPER_SPACE
0
ENDTAB
0
ENDSEC
0
SECTION
2
BLOCKS
0
BLOCK
5
20
100
AcDbEntity
100
AcDbBlockBegin
2
*MODEL_SPACE
0
ENDBLK
5
21
100
AcDbEntity
100
AcDbBlockEnd
0
BLOCK
5
1C
100
AcDbEntity
100
AcDbBlockBegin
2
*PAPER_SPACE
0
ENDBLK
5
1D
100
AcDbEntity
100
AcDbBlockEnd
0
ENDSEC
0
SECTION
2
ENTITIES
0
LWPOLYLINE
5
100
100
AcDbEntity
8
0
100
AcDbPolyline
90
4
70
1
43
0.0
10
-144.375
20
104.06250000000001
10
-144.375
20
121.06250000000001
10
-138.37500000000003
20
121.06250000000001
10
-138.37500000000003
20
104.06250000000001
0
LWPOLYLINE
5
101
100
AcDbEntity
8
0
100
AcDbPolyline
90
4
70
1
43
0.0
10
-114.47499999999999
20
104.06250000000001
10
-120.47500000000001
20
104.06250000000001
10
-120.47500000000001
20
121.06250000000001
10
-114.47499999999999
20
121.06250000000001
0
LWPOLYLINE
5
102
100
AcDbEntity
8
0
100
AcDbPolyline
90
4
70
1
43
0.0
10
-132.38124999999999
20
85.012499999999989
10
-132.38124999999999
20
102.01250000000002
10
-126.38125000000002
20
102.01250000000002
10
-126.38125000000002
20
85.012499999999989
0
LWPOLYLINE
5
103
100
AcDbEntity
8
0
100
AcDbPolyline
90
4
70
1
43
0.0
10
-134.76249999999999
20
47.424308873314388
10
-134.76249999999999
20
64.424308873314388
10
-128.76250000000002
20
64.424308873314388
10
-128.76250000000002
20
47.424308873314388
0
LWPOLYLINE
5
104
100
AcDbEntity
8
0
100
AcDbPolyline
90
4
70
1
43
0.0
10
-18.081250000000011
20
123.11250000000001
10
-18.081250000000011
20
140.11250000000001
10
-12.081250000000011
20
140.11250000000001
10
-12.081250000000011
20
123.11250000000001
0
LWPOLYLINE
5
105
100
AcDbEntity
8
0
100
AcDbPolyline
90
4
70
1
43
0.0
10
-150.28125
20
85.012499999999989
10
-156.28125000000003
20
85.012499999999989
10
-156.28125000000003
20
102.01249999999999
10
-150.28125
20
102.01249999999999
0
LWPOLYLINE
5
106
100
AcDbEntity
8
0
100
AcDbPolyline
90
4
70
1
43
0.0
10
-158.66249999999999
20
47.424308873314388
10
-158.66249999999999
20
64.424308873314388
10
-152.66250000000002
20
64.424308873314388
10
-152.66250000000002
20
47.424308873314388
0
LWPOLYLINE
5
107
100
AcDbEntity
8
0
100
AcDbPolyline
90
4
70
1
43
0.0
10
-41.98125000000001
20
123.1125
10
-41.98125000000001
20
140.11250000000001
10
-35.981250000000017
20
140.11250000000001
10
-35.981250000000017
20
123.1125
0
CIRCLE
5
108
100
AcDbEntity
8
0
100
AcDbCircle
10
-76
20
10
30
0
40
1.6000000000000041
210
0
220
0
230
1
0
LWPOLYLINE
5
109
100
AcDbEntity
8
0
100
AcDbPolyline
90
8
70
1
43
0.0
10
-199.00000000000006
20
-1.0000000000000013
10
-1.0000000000000142
20
-1.0000000000000016
42
0.41421356237309725
10
1.0000000000000007
20
0.99999999999999711
10
1.0000000000000004
20
145.00000000000003
42
0.41421356237309548
10
-1.0000000000000144
20
147.00000000000003
10
-199.00000000000006
20
147.00000000000003
42
0.41421356237309764
10
-201
20
145.00000000000003
10
-201.00000000000006
20
0.99999999999999645
42
0.41421356237309659
0
LWPOLYLINE
5
110
100
AcDbEntity
8
0
100
AcDbPolyline
90
8
70
1
43
0.0
10
-84.975000000000009
20
86.662500000000023
42
0.41421356237309503
10
-84.475000000000023
20
87.162500000000009
10
-84.475000000000023
20
99.862499999999997
42
0.41421356237309503
10
-84.975000000000009
20
100.36249999999998
10
-97.675000000000011
20
100.36250000000001
42
0.41421356237307422
10
-98.175000000000026
20
99.862499999999997
10
-98.175000000000011
20
87.162500000000009
42
0.41421356237312623
10
-97.675000000000011
20
86.662500000000023
0
LWPOLYLINE
5
111
100
AcDbEntity
8
0
100
AcDbPolyline
90
8
70
1
43
0.0
10
-56.399999999999999
20
105.71250000000001
42
0.41421356237307422
10
-55.899999999999991
20
106.21250000000002
10
-55.899999999999999
20
118.91250000000002
42
0.41421356237308982
10
-56.399999999999999
20
119.41250000000002
10
-69.099999999999994
20
119.41250000000002
42
0.41421356237310542
10
-69.600000000000009
20
118.91250000000002
10
-69.599999999999994
20
106.21250000000002
42
0.41421356237310542
10
-69.099999999999994
20
105.71250000000001
0
LWPOLYLINE
5
112
100
AcDbEntity
8
0
100
AcDbPolyline
90
8
70
1
43
0.0
10
-46.875
20
86.662500000000023
42
0.41421356237309503
10
-46.375000000000014
20
87.162500000000009
10
-46.374999999999993
20
99.862499999999997
42
0.41421356237307944
10
-46.875
20
100.36250000000001
10
-59.574999999999996
20
100.36250000000001
42
0.41421356237307944
10
-60.075000000000003
20
99.862499999999997
10
-60.074999999999996
20
87.162500000000009
42
0.41421356237310542
10
-59.574999999999996
20
86.662499999999994
0
LWPOLYLINE
5
113
100
AcDbEntity
8
0
100
AcDbPolyline
90
8
70
1
43
0.0
10
-27.825000000000006
20
86.662500000000023
42
0.41421356237309764
10
-27.325000000000014
20
87.162500000000009
10
-27.325000000000003
20
99.862499999999997
42
0.41421356237307161
10
-27.825000000000006
20
100.36250000000001
10
-40.524999999999991
20
100.36250000000001
42
0.41421356237307422
10
-41.024999999999999
20
99.862499999999997
10
-41.024999999999991
20
87.162500000000009
42
0.41421356237310025
10
-40.524999999999991
20
86.662499999999994
0
LWPOLYLINE
5
114
100
AcDbEntity
8
0
100
AcDbPolyline
90
8
70
1
43
0.0
10
-104.02500000000002
20
86.662500000000023
42
0.41421356237309503
10
-103.52500000000003
20
87.162500000000009
10
-103.52500000000001
20
99.862499999999997
42
0.4142135623730534
10
-104.02500000000002
20
100.36250000000001
10
-116.72500000000001
20
100.36250000000001
42
0.4142135623730534
10
-117.22500000000002
20
99.862499999999997
10
-117.22500000000002
20
87.162500000000009
42
0.4142135623730534
10
-116.72500000000001
20
86.662499999999994
0
LWPOLYLINE
5
115
100
AcDbEntity
8
0
100
AcDbPolyline
90
8
70
1
43
0.0
10
-65.924999999999997
20
86.662500000000023
42
0.41421356237308982
10
-65.425000000000011
20
87.162499999999994
10
-65.425000000000011
20
99.862499999999997
42
0.41421356237310025
10
-65.924999999999997
20
100.36250000000001
10
-78.624999999999986
20
100.36250000000001
42
0.41421356237307944
10
-79.125
20
99.862499999999997
10
-79.124999999999986
20
87.162500000000009
42
0.41421356237310542
10
-78.624999999999986
20
86.662499999999994
0
LWPOLYLINE
5
116
100
AcDbEntity
8
0
100
AcDbPolyline
90
8
70
1
43
0.0
10
-61.162500000000001
20
67.612500000000011
42
0.41421356237311063
10
-60.662500000000001
20
68.112500000000011
10
-60.662500000000001
20
80.8125
42
0.41421356237308982
10
-61.162500000000001
20
81.3125
10
-73.862500000000011
20
81.3125
42
0.41421356237311063
10
-74.362499999999997
20
80.8125
10
-74.362499999999997
20
68.112500000000011
42
0.41421356237310542
10
-73.862500000000011
20
67.612500000000011
0
LWPOLYLINE
5
117
100
AcDbEntity
8
0
100
AcDbPolyline
90
8
70
1
43
0.0
10
-180.22500000000002
20
86.662500000000023
42
0.41421356237307422
10
-179.72500000000002
20
87.162500000000009
10
-179.72499999999999
20
99.862499999999997
42
0.4142135623730846
10
-180.22500000000002
20
100.36250000000001
10
-192.92500000000004
20
100.36250000000001
42
0.4142135623730846
10
-193.42500000000004
20
99.862499999999997
10
-193.42500000000004
20
87.162500000000009
42
0.4142135623730846
10
-192.92500000000004
20
86.662499999999994
0
LWPOLYLINE
5
118
100
AcDbEntity
8
0
100
AcDbPolyline
90
8
70
1
43
0.0
10
-37.350000000000009
20
105.71250000000001
42
0.41421356237307422
10
-36.850000000000001
20
106.21250000000002
10
-36.850000000000009
20
118.91250000000002
42
0.41421356237306123
10
-37.350000000000009
20
119.41250000000002
10
-50.049999999999997
20
119.41250000000002
42
0.41421356237310542
10
-50.550000000000004
20
118.91250000000002
10
-50.549999999999997
20
106.21250000000002
42
0.41421356237310025
10
-50.049999999999997
20
105.71250000000001
0
LWPOLYLINE
5
119
100
AcDbEntity
8
0
100
AcDbPolyline
90
8
70
1
43
0.0
10
-75.449999999999989
20
105.71250000000001
42
0.41421356237307422
10
-74.949999999999989
20
106.21250000000002
10
-74.949999999999989
20
118.91250000000002
42
0.41421356237308982
10
-75.449999999999989
20
119.41250000000002
10
-88.150000000000006
20
119.41250000000002
42
0.41421356237312623
10
-88.65000000000002
20
118.91250000000002
10
-88.650000000000006
20
106.21250000000002
42
0.41421356237312623
10
-88.150000000000006
20
105.71250000000003
0
LWPOLYLINE
5
120
100
AcDbEntity
8
0
100
AcDbPolyline
90
8
70
1
43
0.0
10
-18.299999999999997
20
105.71250000000001
42
0.41421356237307422
10
-17.79999999999999
20
106.21250000000002
10
-17.800000000000001
20
118.91250000000002
42
0.41421356237307294
10
-18.299999999999997
20
119.41250000000002
10
-31.000000000000007
20
119.41250000000002
42
0.41421356237310281
10
-31.500000000000014
20
118.91250000000002
10
-31.500000000000004
20
106.21250000000002
42
0.41421356237310025
10
-31.000000000000007
20
105.71250000000001
0
LWPOLYLINE
5
121
100
AcDbEntity
8
0
100
AcDbPolyline
90
8
70
1
43
0.0
10
-8.7750000000000004
20
86.662500000000023
42
0.41421356237309959
10
-8.2750000000000039
20
87.162500000000009
10
-8.2750000000000004
20
99.862499999999997
42
0.41421356237307294
10
-8.7749999999999986
20
100.36250000000001
10
-21.475000000000005
20
100.36250000000001
42
0.41421356237307422
10
-21.975000000000012
20
99.862499999999997
10
-21.975000000000001
20
87.162500000000009
42
0.4142135623730846
10
-21.475000000000005
20
86.662499999999994
0
LWPOLYLINE
5
122
100
AcDbEntity
8
0
100
AcDbPolyline
90
8
70
1
43
0.0
10
-80.212500000000006
20
67.612500000000011
42
0.41421356237311585
10
-79.712499999999991
20
68.112500000000011
10
-79.712500000000006
20
80.8125
42
0.4142135623730846
10
-80.212500000000006
20
81.3125
10
-92.912500000000023
20
81.3125
42
0.41421356237313667
10
-93.412500000000009
20
80.8125
10
-93.412500000000009
20
68.112500000000011
42
0.41421356237311063
10
-92.912500000000023
20
67.612500000000026
0
LWPOLYLINE
5
123
100
AcDbEntity
8
0
100
AcDbPolyline
90
8
70
1
43
0.0
10
-42.112499999999997
20
67.612500000000011
42
0.41421356237311585
10
-41.61249999999999
20
68.112500000000011
10
-41.61249999999999
20
80.8125
42
0.41421356237310025
10
-42.112499999999997
20
81.312500000000014
10
-54.8125
20
81.3125
42
0.41421356237311585
10
-55.312499999999993
20
80.8125
10
-55.3125
20
68.112500000000011
42
0.41421356237309503
10
-54.8125
20
67.612500000000011
0
LWPOLYLINE
5
124
100
AcDbEntity
8
0
100
AcDbPolyline
90
8
70
1
43
0.0
10
-175.46250000000003
20
129.52500000000003
42
0.41421356237309503
10
-174.96250000000003
20
130.02500000000003
10
-174.96250000000003
20
142.72500000000002
42
0.41421356237309503
10
-175.46250000000003
20
143.22500000000002
10
-188.16249999999999
20
143.22500000000002
42
0.41421356237309503
10
-188.66250000000002
20
142.72500000000002
10
-188.66250000000002
20
130.02500000000003
42
0.41421356237309503
10
-188.16249999999999
20
129.52500000000003
0
LWPOLYLINE
5
125
100
AcDbEntity
8
0
100
AcDbPolyline
90
8
70
1
43
0.0
10
-4.0125000000000002
20
67.612500000000011
42
0.41421356237310314
10
-3.5124999999999966
20
68.112500000000011
10
-3.5125000000000006
20
80.8125
42
0.41421356237310447
10
-4.0124999999999993
20
81.312500000000014
10
-16.712499999999999
20
81.3125
42
0.41421356237311713
10
-17.212499999999991
20
80.8125
10
-17.212500000000002
20
68.112500000000011
42
0.41421356237309764
10
-16.712500000000002
20
67.612500000000011
0
LWPOLYLINE
5
126
100
AcDbEntity
8
0
100
AcDbPolyline
90
8
70
1
43
0.0
10
-18.299999999999997
20
24.750000000000007
42
0.41421356237309631
10
-17.799999999999997
20
25.250000000000004
10
-17.800000000000001
20
37.950000000000003
42
0.41421356237310153
10
-18.299999999999997
20
38.450000000000003
10
-31.000000000000007
20
38.450000000000003
42
0.41421356237310281
10
-31.500000000000004
20
37.950000000000003
10
-31.500000000000004
20
25.250000000000004
42
0.41421356237309503
10
-31.000000000000007
20
24.750000000000007
0
LWPOLYLINE
5
127
100
AcDbEntity
8
0
100
AcDbPolyline
90
8
70
1
43
0.0
10
-180.22500000000002
20
24.750000000000007
42
0.41421356237304563
10
-179.72499999999999
20
25.250000000000004
10
-179.72499999999999
20
37.950000000000003
42
0.41421356237310281
10
-180.22500000000002
20
38.450000000000017
10
-192.92500000000004
20
38.450000000000003
42
0.41421356237302737
10
-193.42500000000004
20
37.950000000000003
10
-193.42500000000004
20
25.250000000000004
42
0.41421356237310025
10
-192.92500000000004
20
24.749999999999996
0
LWPOLYLINE
5
128
100
AcDbEntity
8
0
100
AcDbPolyline
90
8
70
1
43
0.0
10
-123.07500000000002
20
105.71250000000001
42
0.41421356237307422
10
-122.575
20
106.21250000000002
10
-122.575
20
118.91250000000002
42
0.41421356237312623
10
-123.07500000000002
20
119.41250000000002
10
-135.77500000000001
20
119.41250000000002
42
0.41421356237312623
10
-136.27500000000001
20
118.91250000000002
10
-136.27500000000001
20
106.21250000000002
42
0.41421356237307422
10
-135.77500000000001
20
105.71250000000001
0
LWPOLYLINE
5
129
100
AcDbEntity
8
0
100
AcDbPolyline
90
8
70
1
43
0.0
10
-23.062500000000004
20
67.612500000000011
42
0.41421356237310025
10
-22.562500000000007
20
68.112500000000011
10
-22.562500000000007
20
80.8125
42
0.41421356237310542
10
-23.062500000000004
20
81.3125
10
-35.762500000000003
20
81.3125
42
0.41421356237311324
10
-36.262499999999989
20
80.8125
10
-36.262500000000003
20
68.112500000000011
42
0.41421356237308204
10
-35.762500000000003
20
67.612500000000011
0
LWPOLYLINE
5
130
100
AcDbEntity
8
0
100
AcDbPolyline
90
8
70
1
43
0.0
10
-156.41249999999999
20
110.47500000000001
42
0.41421356237307422
10
-155.91249999999999
20
110.97500000000002
10
-155.91249999999999
20
123.67500000000001
42
0.41421356237312623
10
-156.41249999999999
20
124.17500000000001
10
-169.11250000000001
20
124.17500000000003
42
0.4142135623730846
10
-169.61250000000004
20
123.67500000000001
10
-169.61250000000004
20
110.97500000000002
42
0.4142135623730846
10
-169.11250000000001
20
110.47500000000001
0
LWPOLYLINE
5
131
100
AcDbEntity
8
0
100
AcDbPolyline
90
8
70
1
43
0.0
10
-156.41249999999999
20
129.52500000000003
42
0.41421356237307422
10
-155.91249999999999
20
130.02500000000003
10
-155.91249999999999
20
142.72500000000002
42
0.41421356237312623
10
-156.41249999999999
20
143.22500000000002
10
-169.11250000000001
20
143.22500000000002
42
0.4142135623730846
10
-169.61250000000004
20
142.72500000000002
10
-169.61250000000004
20
130.02500000000003
42
0.4142135623730846
10
-169.11250000000001
20
129.52500000000003
0
LWPOLYLINE
5
132
100
AcDbEntity
8
0
100
AcDbPolyline
90
8
70
1
43
0.0
10
-32.587500000000006
20
48.562500000000014
42
0.41421356237309503
10
-32.087500000000006
20
49.062500000000007
10
-32.087500000000006
20
61.762500000000003
42
0.41421356237308721
10
-32.587500000000006
20
62.262500000000003
10
-45.287499999999994
20
62.262500000000003
42
0.41421356237309503
10
-45.787499999999994
20
61.762500000000003
10
-45.787499999999994
20
49.062500000000007
42
0.41421356237309503
10
-45.287499999999994
20
48.562500000000014
0
LWPOLYLINE
5
133
100
AcDbEntity
8
0
100
AcDbPolyline
90
8
70
1
43
0.0
10
-94.5
20
105.71250000000001
42
0.41421356237307422
10
-93.999999999999986
20
106.21250000000002
10
-94
20
118.91250000000002
42
0.41421356237307422
10
-94.5
20
119.41249999999999
10
-107.2
20
119.41250000000002
42
0.41421356237309503
10
-107.70000000000002
20
118.91250000000002
10
-107.70000000000002
20
106.21250000000002
42
0.4142135623730534
10
-107.2
20
105.71250000000001
0
LWPOLYLINE
5
134
100
AcDbEntity
8
0
100
AcDbPolyline
90
8
70
1
43
0.0
10
-142.125
20
67.612500000000011
42
0.41421356237307944
10
-141.625
20
68.112500000000011
10
-141.625
20
80.8125
42
0.41421356237307422
10
-142.125
20
81.312500000000014
10
-154.82500000000002
20
81.3125
42
0.41421356237313667
10
-155.32500000000002
20
80.8125
10
-155.32500000000002
20
68.112500000000011
42
0.41421356237310025
10
-154.82500000000002
20
67.612500000000011
0
LWPOLYLINE
5
135
100
AcDbEntity
8
0
100
AcDbPolyline
90
8
70
1
43
0.0
10
-180.22500000000002
20
67.612500000000011
42
0.41421356237312623
10
-179.72499999999997
20
68.112500000000011
10
-179.72499999999999
20
80.8125
42
0.41421356237310542
10
-180.22500000000002
20
81.312500000000014
10
-192.92500000000004
20
81.3125
42
0.41421356237307422
10
-193.42500000000001
20
80.8125
10
-193.42500000000004
20
68.112500000000011
42
0.41421356237312623
10
-192.92500000000004
20
67.612500000000011
0
LWPOLYLINE
5
136
100
AcDbEntity
8
0
100
AcDbPolyline
90
8
70
1
43
0.0
10
-161.17500000000004
20
24.750000000000007
42
0.41421356237307683
10
-160.67499999999998
20
25.250000000000004
10
-160.67500000000001
20
37.950000000000003
42
0.41421356237313406
10
-161.17500000000004
20
38.450000000000017
10
-173.87500000000003
20
38.450000000000003
42
0.41421356237302737
10
-174.37500000000003
20
37.950000000000003
10
-174.37500000000003
20
25.250000000000004
42
0.41421356237310025
10
-173.87500000000003
20
24.749999999999996
0
LWPOLYLINE
5
137
100
AcDbEntity
8
0
100
AcDbPolyline
90
8
70
1
43
0.0
10
-99.262500000000017
20
67.612500000000011
42
0.41421356237307944
10
-98.762500000000017
20
68.112500000000011
10
-98.762500000000003
20
80.8125
42
0.41421356237307422
10
-99.262500000000017
20
81.312500000000014
10
-111.96250000000001
20
81.3125
42
0.41421356237312623
10
-112.46250000000001
20
80.8125
10
-112.46250000000002
20
68.112500000000011
42
0.41421356237307944
10
-111.96250000000001
20
67.612500000000011
0
LWPOLYLINE
5
138
100
AcDbEntity
8
0
100
AcDbPolyline
90
8
70
1
43
0.0
10
-137.36250000000001
20
48.562500000000014
42
0.41421356237308982
10
-136.86250000000001
20
49.062500000000007
10
-136.86250000000001
20
61.762500000000003
42
0.41421356237309503
10
-137.36250000000001
20
62.26250000000001
10
-150.0625
20
62.262500000000003
42
0.41421356237310025
10
-150.5625
20
61.762500000000003
10
-150.5625
20
49.062500000000007
42
0.41421356237307422
10
-150.0625
20
48.5625
0
LWPOLYLINE
5
139
100
AcDbEntity
8
0
100
AcDbPolyline
90
8
70
1
43
0.0
10
-108.78750000000002
20
48.562500000000014
42
0.41421356237310025
10
-108.28750000000002
20
49.062500000000007
10
-108.28750000000001
20
61.762500000000003
42
0.41421356237307422
10
-108.78750000000002
20
62.26250000000001
10
-121.48750000000001
20
62.262500000000003
42
0.41421356237310025
10
-121.98750000000001
20
61.762500000000003
10
-121.98750000000003
20
49.062500000000007
42
0.41421356237307422
10
-121.48750000000001
20
48.5625
0
LWPOLYLINE
5
140
100
AcDbEntity
8
0
100
AcDbPolyline
90
8
70
1
43
0.0
10
-70.687499999999986
20
48.562500000000014
42
0.41421356237309503
10
-70.187499999999986
20
49.062500000000007
10
-70.187499999999986
20
61.762500000000003
42
0.41421356237309503
10
-70.687499999999986
20
62.262500000000003
10
-83.387500000000017
20
62.262500000000003
42
0.41421356237308982
10
-83.887500000000017
20
61.762500000000003
10
-83.887500000000003
20
49.062500000000007
42
0.41421356237311585
10
-83.387500000000017
20
48.562500000000021
0
LWPOLYLINE
5
141
100
AcDbEntity
8
0
100
AcDbPolyline
90
8
70
1
43
0.0
10
-51.637499999999996
20
48.562500000000014
42
0.41421356237309503
10
-51.137499999999996
20
49.062500000000007
10
-51.137499999999996
20
61.762500000000003
42
0.41421356237309503
10
-51.637499999999996
20
62.262500000000003
10
-64.337500000000006
20
62.262500000000003
42
0.41421356237309503
10
-64.837499999999991
20
61.762500000000003
10
-64.837499999999991
20
49.062500000000007
42
0.41421356237309503
10
-64.337500000000006
20
48.562500000000014
0
LWPOLYLINE
5
142
100
AcDbEntity
8
0
100
AcDbPolyline
90
8
70
1
43
0.0
10
-142.125
20
24.750000000000007
42
0.41421356237310025
10
-141.625
20
25.250000000000004
10
-141.625
20
37.950000000000003
42
0.41421356237307422
10
-142.125
20
38.450000000000017
10
-154.82500000000002
20
38.450000000000003
42
0.41421356237310802
10
-155.32500000000002
20
37.950000000000003
10
-155.32500000000002
20
25.250000000000004
42
0.41421356237309243
10
-154.82500000000002
20
24.749999999999996
0
LWPOLYLINE
5
143
100
AcDbEntity
8
0
100
AcDbPolyline
90
8
70
1
43
0.0
10
-13.5375
20
48.562500000000014
42
0.41421356237309503
10
-13.037500000000001
20
49.062500000000007
10
-13.0375
20
61.762500000000003
42
0.4142135623730937
10
-13.5375
20
62.262500000000003
10
-26.237500000000004
20
62.262500000000003
42
0.41421356237309503
10
-26.737500000000001
20
61.762500000000003
10
-26.737500000000001
20
49.062500000000007
42
0.41421356237309503
10
-26.237500000000004
20
48.562500000000014
0
LWPOLYLINE
5
144
100
AcDbEntity
8
0
100
AcDbPolyline
90
8
70
1
43
0.0
10
-89.737500000000011
20
48.562500000000014
42
0.41421356237310025
10
-89.237500000000011
20
49.062500000000007
10
-89.237500000000011
20
61.762500000000003
42
0.41421356237310025
10
-89.737500000000011
20
62.262499999999996
10
-102.4375
20
62.262500000000003
42
0.41421356237310025
10
-102.9375
20
61.762500000000003
10
-102.93750000000001
20
49.062500000000007
42
0.41421356237307422
10
-102.4375
20
48.5625
0
LWPOLYLINE
5
145
100
AcDbEntity
8
0
100
AcDbPolyline
90
8
70
1
43
0.0
10
-118.3125
20
67.612500000000011
42
0.41421356237310025
10
-117.8125
20
68.112500000000011
10
-117.8125
20
80.8125
42
0.41421356237309503
10
-118.3125
20
81.312500000000014
10
-131.01250000000002
20
81.3125
42
0.41421356237312623
10
-131.51250000000002
20
80.8125
10
-131.51250000000002
20
68.112500000000011
42
0.41421356237307944
10
-131.01250000000002
20
67.612500000000011
0
LWPOLYLINE
5
146
100
AcDbEntity
8
0
100
AcDbPolyline
90
8
70
1
43
0.0
10
-134.98125000000002
20
86.662500000000023
42
0.41421356237312623
10
-134.48125000000002
20
87.162500000000009
10
-134.48125000000002
20
99.862499999999997
42
0.41421356237312623
10
-134.98125000000002
20
100.36249999999998
10
-147.68125000000001
20
100.36250000000001
42
0.41421356237307422
10
-148.18125000000003
20
99.862499999999997
10
-148.18125000000001
20
87.162500000000009
42
0.41421356237312623
10
-147.68125000000001
20
86.662500000000023
0
LWPOLYLINE
5
147
100
AcDbEntity
8
0
100
AcDbPolyline
90
8
70
1
43
0.0
10
-37.350000000000009
20
24.750000000000007
42
0.41421356237309503
10
-36.850000000000009
20
25.250000000000004
10
-36.850000000000009
20
37.950000000000003
42
0.41421356237309764
10
-37.350000000000009
20
38.45000000000001
10
-50.049999999999997
20
38.450000000000003
42
0.41421356237310025
10
-50.549999999999997
20
37.950000000000003
10
-50.549999999999997
20
25.250000000000004
42
0.41421356237309503
10
-50.049999999999997
20
24.750000000000007
0
LWPOLYLINE
5
148
100
AcDbEntity
8
0
100
AcDbPolyline
90
8
70
1
43
0.0
10
-137.36250000000001
20
129.52500000000003
42
0.41421356237307422
10
-136.86250000000001
20
130.02500000000003
10
-136.86250000000001
20
142.72500000000002
42
0.41421356237307422
10
-137.36250000000001
20
143.22500000000002
10
-150.0625
20
143.22500000000002
42
0.4142135623730534
10
-150.5625
20
142.72500000000002
10
-150.5625
20
130.02500000000003
42
0.4142135623730534
10
-150.0625
20
129.52500000000003
0
LWPOLYLINE
5
149
100
AcDbEntity
8
0
100
AcDbPolyline
90
8
70
1
43
0.0
10
-80.212500000000006
20
24.750000000000007
42
0.41421356237309503
10
-79.712500000000006
20
25.250000000000004
10
-79.712500000000006
20
37.950000000000003
42
0.41421356237310025
10
-80.212500000000006
20
38.450000000000003
10
-92.912500000000023
20
38.450000000000003
42
0.41421356237310802
10
-93.412500000000023
20
37.950000000000003
10
-93.412500000000009
20
25.250000000000004
42
0.41421356237311324
10
-92.912500000000023
20
24.750000000000014
0
LWPOLYLINE
5
150
100
AcDbEntity
8
0
100
AcDbPolyline
90
8
70
1
43
0.0
10
-118.3125
20
24.750000000000007
42
0.41421356237310542
10
-117.8125
20
25.250000000000004
10
-117.8125
20
37.950000000000003
42
0.41421356237309503
10
-118.3125
20
38.450000000000017
10
-131.01250000000002
20
38.450000000000003
42
0.41421356237308982
10
-131.51250000000002
20
37.950000000000003
10
-131.51250000000002
20
25.250000000000004
42
0.41421356237307161
10
-131.01250000000002
20
24.749999999999996
0
LWPOLYLINE
5
151
100
AcDbEntity
8
0
100
AcDbPolyline
90
8
70
1
43
0.0
10
-180.22500000000002
20
105.71250000000001
42
0.4142135623730846
10
-179.72499999999997
20
106.21250000000002
10
-179.72499999999999
20
118.91250000000002
42
0.4142135623730534
10
-180.22500000000002
20
119.41250000000002
10
-192.92500000000004
20
119.41250000000002
42
0.4142135623730534
10
-193.42500000000004
20
118.91250000000002
10
-193.42500000000004
20
106.21250000000002
42
0.4142135623730846
10
-192.92500000000004
20
105.71250000000001
0
LWPOLYLINE
5
152
100
AcDbEntity
8
0
100
AcDbPolyline
90
8
70
1
43
0.0
10
-99.262500000000017
20
24.750000000000007
42
0.41421356237310025
10
-98.762500000000017
20
25.250000000000004
10
-98.762500000000003
20
37.950000000000003
42
0.41421356237307422
10
-99.262500000000017
20
38.450000000000017
10
-111.96250000000001
20
38.450000000000003
42
0.41421356237308982
10
-112.46250000000001
20
37.950000000000003
10
-112.46250000000002
20
25.250000000000004
42
0.41421356237307161
10
-111.96250000000001
20
24.749999999999996
0
LWPOLYLINE
5
153
100
AcDbEntity
8
0
100
AcDbPolyline
90
8
70
1
43
0.0
10
-61.162500000000001
20
24.750000000000007
42
0.41421356237309503
10
-60.662500000000001
20
25.250000000000004
10
-60.662500000000001
20
37.950000000000003
42
0.41421356237310025
10
-61.162500000000001
20
38.450000000000003
10
-73.862500000000011
20
38.450000000000003
42
0.41421356237310281
10
-74.362499999999997
20
37.950000000000003
10
-74.362499999999997
20
25.250000000000004
42
0.41421356237309764
10
-73.862500000000011
20
24.750000000000007
0
LWPOLYLINE
5
154
100
AcDbEntity
8
0
100
AcDbPolyline
90
8
70
1
43
0.0
10
-180.22500000000002
20
48.562500000000014
42
0.4142135623730222
10
-179.72500000000002
20
49.062500000000007
10
-179.72499999999999
20
61.762500000000003
42
0.41421356237312101
10
-180.22500000000002
20
62.26250000000001
10
-192.92500000000004
20
62.262500000000003
42
0.4142135623730222
10
-193.42500000000004
20
61.762500000000003
10
-193.42500000000004
20
49.062500000000007
42
0.41421356237312101
10
-192.92500000000004
20
48.5625
0
LWPOLYLINE
5
155
100
AcDbEntity
8
0
100
AcDbPolyline
90
4
70
1
43
0.0
10
-69.710000000000008
20
0.58999999999999253
10
-69.710000000000008
20
21.589999999999993
10
-31.710000000000001
20
21.589999999999993
10
-31.710000000000001
20
0.58999999999999275
0
LWPOLYLINE
5
156
100
AcDbEntity
8
0
100
AcDbPolyline
90
8
70
1
43
0.0
10
-126.75000000000003
20
125.26250000000002
10
-126.75000000000003
20
137.96250000000001
42
-0.41421356237307422
10
-126.25000000000001
20
138.46250000000001
10
-113.55000000000004
20
138.46250000000001
42
-0.41421356237309503
10
-113.05000000000004
20
137.96250000000001
10
-113.05000000000004
20
125.26250000000002
42
-0.41421356237309503
10
-113.55000000000004
20
124.7625
10
-126.25000000000001
20
124.7625
42
-0.41421356237307422
0
LWPOLYLINE
5
157
100
AcDbEntity
8
0
100
AcDbPolyline
90
8
70
1
43
0.0
10
-67.21875
20
125.26250000000002
10
-67.218750000000014
20
137.96250000000001
42
-0.41421356237309503
10
-66.718750000000014
20
138.46250000000001
10
-54.018750000000011
20
138.46250000000001
42
-0.41421356237308982
10
-53.518750000000011
20
137.96250000000001
10
-53.518750000000004
20
125.26250000000002
42
-0.41421356237309503
10
-54.018750000000011
20
124.7625
10
-66.718750000000014
20
124.7625
42
-0.41421356237308982
0
LWPOLYLINE
5
158
100
AcDbEntity
8
0
100
AcDbPolyline
90
8
70
1
43
0.0
10
-33.881250000000016
20
125.26250000000002
10
-33.881250000000016
20
137.96250000000001
42
-0.41421356237309243
10
-33.381250000000016
20
138.46250000000001
10
-20.681250000000013
20
138.46250000000001
42
-0.41421356237310542
10
-20.181250000000013
20
137.96250000000001
10
-20.181250000000009
20
125.26250000000002
42
-0.41421356237309243
10
-20.681250000000013
20
124.7625
10
-33.381250000000016
20
124.7625
42
-0.41421356237310542
0
LWPOLYLINE
5
159
100
AcDbEntity
8
0
100
AcDbPolyline
90
8
70
1
43
0.0
10
-107.70000000000003
20
125.26250000000002
10
-107.70000000000003
20
137.96250000000001
42
-0.41421356237309503
10
-107.20000000000002
20
138.46250000000001
10
-94.500000000000014
20
138.46250000000001
42
-0.41421356237312623
10
-94.000000000000028
20
137.96250000000001
10
-94
20
125.26250000000002
42
-0.41421356237307422
10
-94.500000000000014
20
124.7625
10
-107.20000000000002
20
124.7625
42
-0.41421356237309503
0
LWPOLYLINE
5
160
100
AcDbEntity
8
0
100
AcDbPolyline
90
8
70
1
43
0.0
10
-88.65000000000002
20
125.26250000000002
10
-88.650000000000034
20
137.96250000000001
42
-0.41421356237307422
10
-88.150000000000034
20
138.46250000000001
10
-75.450000000000003
20
138.46250000000001
42
-0.41421356237308982
10
-74.950000000000017
20
137.96250000000001
10
-74.950000000000003
20
125.26250000000002
42
-0.41421356237309503
10
-75.450000000000003
20
124.7625
10
-88.150000000000034
20
124.7625
42
-0.41421356237312623
0
LWPOLYLINE
5
161
100
AcDbEntity
8
0
100
AcDbPolyline
90
4
70
1
43
0.0
10
-159.47499999999999
20
25.5963216670592
10
-159.47499999999999
20
36.596321667059193
10
-156.47499999999999
20
36.596321667059193
10
-156.47499999999999
20
25.5963216670592
0
LWPOLYLINE
5
162
100
AcDbEntity
8
0
100
AcDbPolyline
90
4
70
1
43
0.0
10
-194.57500000000005
20
60.912500000000016
10
-194.57500000000005
20
49.912500000000001
10
-197.57499999999999
20
49.912500000000001
10
-197.57499999999999
20
60.912500000000016
0
LWPOLYLINE
5
163
100
AcDbEntity
8
0
100
AcDbPolyline
90
4
70
1
43
0.0
10
-30.887500000000003
20
49.912499999999994
10
-30.887500000000003
20
60.912500000000009
10
-27.887500000000003
20
60.912500000000009
10
-27.887500000000003
20
49.912499999999994
0
LWPOLYLINE
5
164
100
AcDbEntity
8
0
100
AcDbPolyline
90
4
70
1
43
0.0
10
-73.75
20
107.0625
10
-73.75
20
118.06250000000003
10
-70.750000000000014
20
118.06250000000003
10
-70.750000000000014
20
107.0625
0
LWPOLYLINE
5
165
100
AcDbEntity
8
0
100
AcDbPolyline
90
4
70
1
43
0.0
10
-78.512500000000003
20
68.962500000000006
10
-78.512500000000003
20
79.962500000000006
10
-75.512500000000017
20
79.962500000000006
10
-75.512500000000017
20
68.962500000000006
0
LWPOLYLINE
5
166
100
AcDbEntity
8
0
100
AcDbPolyline
90
4
70
1
43
0.0
10
-92.800000000000011
20
107.0625
10
-92.800000000000011
20
118.06250000000003
10
-89.800000000000011
20
118.06250000000003
10
-89.800000000000011
20
107.0625
0
LWPOLYLINE
5
167
100
AcDbEntity
8
0
100
AcDbPolyline
90
4
70
1
43
0.0
10
-97.562500000000014
20
37.100000000000001
10
-94.5625
20
37.100000000000001
10
-94.5625
20
26.100000000000001
10
-97.562500000000014
20
26.100000000000001
0
LWPOLYLINE
5
168
100
AcDbEntity
8
0
100
AcDbPolyline
90
4
70
1
43
0.0
10
-126.13750000000003
20
60.912500000000009
10
-123.13750000000002
20
60.912500000000009
10
-123.13750000000002
20
49.912499999999994
10
-126.13750000000003
20
49.912499999999994
0
LWPOLYLINE
5
169
100
AcDbEntity
8
0
100
AcDbPolyline
90
4
70
1
43
0.0
10
-111.85000000000001
20
126.11250000000001
10
-111.85000000000001
20
137.11250000000004
10
-108.84999999999999
20
137.11250000000004
10
-108.84999999999999
20
126.11250000000001
0
LWPOLYLINE
5
170
100
AcDbEntity
8
0
100
AcDbPolyline
90
4
70
1
43
0.0
10
-192.8125
20
126.00000000000001
10
-192.8125
20
137
10
-189.81250000000003
20
137
10
-189.81250000000003
20
126.00000000000001
0
LWPOLYLINE
5
171
100
AcDbEntity
8
0
100
AcDbPolyline
90
4
70
1
43
0.0
10
-40.412499999999994
20
68.962500000000006
10
-40.412499999999994
20
79.962500000000006
10
-37.412500000000001
20
79.962500000000006
10
-37.412500000000001
20
68.962500000000006
0
LWPOLYLINE
5
172
100
AcDbEntity
8
0
100
AcDbPolyline
90
4
70
1
43
0.0
10
-26.125000000000007
20
88.012499999999989
10
-26.125000000000007
20
99.012500000000017
10
-23.125
20
99.012500000000017
10
-23.125
20
88.012499999999989
0
LWPOLYLINE
5
173
100
AcDbEntity
8
0
100
AcDbPolyline
90
4
70
1
43
0.0
10
-111.85000000000001
20
107.0625
10
-111.85000000000001
20
118.06250000000003
10
-108.85000000000002
20
118.06250000000003
10
-108.85000000000002
20
107.0625
0
LWPOLYLINE
5
174
100
AcDbEntity
8
0
100
AcDbPolyline
90
4
70
1
43
0.0
10
-78.512500000000003
20
26.100000000000001
10
-78.512500000000003
20
37.100000000000001
10
-75.512500000000017
20
37.100000000000001
10
-75.512500000000017
20
26.100000000000001
0
LWPOLYLINE
5
175
100
AcDbEntity
8
0
100
AcDbPolyline
90
4
70
1
43
0.0
10
-107.08750000000002
20
60.912500000000009
10
-104.08750000000001
20
60.912500000000009
10
-104.08750000000001
20
49.912499999999994
10
-107.08750000000002
20
49.912499999999994
0
LWPOLYLINE
5
176
100
AcDbEntity
8
0
100
AcDbPolyline
90
4
70
1
43
0.0
10
-130.90000000000001
20
126.11250000000001
10
-130.90000000000001
20
137.11250000000004
10
-127.90000000000001
20
137.11250000000004
10
-127.90000000000001
20
126.11250000000001
0
LWPOLYLINE
5
177
100
AcDbEntity
8
0
100
AcDbPolyline
90
4
70
1
43
0.0
10
-88.037500000000009
20
60.912500000000009
10
-85.037500000000023
20
60.912500000000009
10
-85.037500000000023
20
49.912499999999994
10
-88.037500000000009
20
49.912499999999994
0
LWPOLYLINE
5
178
100
AcDbEntity
8
0
100
AcDbPolyline
90
4
70
1
43
0.0
10
-135.66249999999999
20
37.100000000000001
10
-132.66250000000002
20
37.100000000000001
10
-132.66250000000002
20
26.100000000000001
10
-135.66249999999999
20
26.100000000000001
0
LWPOLYLINE
5
179
100
AcDbEntity
8
0
100
AcDbPolyline
90
4
70
1
43
0.0
10
-71.36875000000002
20
126.11250000000001
10
-71.36875000000002
20
137.11250000000004
10
-68.368750000000006
20
137.11250000000004
10
-68.368750000000006
20
126.11250000000001
0
LWPOLYLINE
5
180
100
AcDbEntity
8
0
100
AcDbPolyline
90
4
70
1
43
0.0
10
-35.649999999999999
20
107.0625
10
-35.649999999999999
20
118.06250000000003
10
-32.649999999999999
20
118.06250000000003
10
-32.649999999999999
20
107.0625
0
LWPOLYLINE
5
181
100
AcDbEntity
8
0
100
AcDbPolyline
90
4
70
1
43
0.0
10
-194.57500000000005
20
79.96250000000002
10
-194.57500000000005
20
68.962500000000006
10
-197.57499999999999
20
68.962500000000006
10
-197.57499999999999
20
79.96250000000002
0
LWPOLYLINE
5
182
100
AcDbEntity
8
0
100
AcDbPolyline
90
4
70
1
43
0.0
10
-178.52499999999998
20
36.596321667059193
10
-175.52499999999998
20
36.596321667059193
10
-175.52499999999998
20
25.5963216670592
10
-178.52499999999998
20
25.5963216670592
0
CIRCLE
5
183
100
AcDbEntity
8
0
100
AcDbCircle
10
-4
20
4
30
0
40
1.6000000000000003
210
0
220
-0
230
1
0
LWPOLYLINE
5
184
100
AcDbEntity
8
0
100
AcDbPolyline
90
4
70
1
43
0.0
10
-159.47499999999999
20
68.962500000000006
10
-159.47499999999999
20
79.962500000000006
10
-156.47499999999999
20
79.962500000000006
10
-156.47499999999999
20
68.962500000000006
0
LWPOLYLINE
5
185
100
AcDbEntity
8
0
100
AcDbPolyline
90
4
70
1
43
0.0
10
-35.649999999999999
20
26.100000000000001
10
-35.649999999999999
20
37.100000000000001
10
-32.649999999999999
20
37.100000000000001
10
-32.649999999999999
20
26.100000000000001
0
LWPOLYLINE
5
186
100
AcDbEntity
8
0
100
AcDbPolyline
90
4
70
1
43
0.0
10
-173.76249999999999
20
111.82500000000002
10
-173.76249999999999
20
122.82500000000002
10
-170.76250000000002
20
122.82500000000002
10
-170.76250000000002
20
111.82500000000002
0
LWPOLYLINE
5
187
100
AcDbEntity
8
0
100
AcDbPolyline
90
4
70
1
43
0.0
10
-102.32500000000002
20
88.012499999999989
10
-102.32500000000002
20
99.012500000000017
10
-99.325000000000017
20
99.012500000000017
10
-99.325000000000017
20
88.012499999999989
0
LWPOLYLINE
5
188
100
AcDbEntity
8
0
100
AcDbPolyline
90
4
70
1
43
0.0
10
-121.37500000000003
20
88.012499999999989
10
-121.37500000000003
20
99.012500000000017
10
-118.37500000000003
20
99.012500000000017
10
-118.37500000000003
20
88.012499999999989
0
LWPOLYLINE
5
189
100
AcDbEntity
8
0
100
AcDbPolyline
90
4
70
1
43
0.0
10
-64.225000000000009
20
88.012499999999989
10
-64.225000000000009
20
99.012500000000017
10
-61.225000000000009
20
99.012500000000017
10
-61.225000000000009
20
88.012499999999989
0
LWPOLYLINE
5
190
100
AcDbEntity
8
0
100
AcDbPolyline
90
4
70
1
43
0.0
10
-92.800000000000011
20
126.11250000000001
10
-92.800000000000011
20
137.11250000000004
10
-89.800000000000011
20
137.11250000000004
10
-89.800000000000011
20
126.11250000000001
0
LWPOLYLINE
5
191
100
AcDbEntity
8
0
100
AcDbPolyline
90
4
70
1
43
0.0
10
-154.71250000000001
20
130.87500000000003
10
-154.71250000000001
20
141.875
10
-151.71250000000001
20
141.875
10
-151.71250000000001
20
130.87500000000003
0
LWPOLYLINE
5
192
100
AcDbEntity
8
0
100
AcDbPolyline
90
4
70
1
43
0.0
10
-68.987500000000011
20
60.912500000000009
10
-65.987500000000011
20
60.912500000000009
10
-65.987500000000011
20
49.912499999999994
10
-68.987500000000011
20
49.912499999999994
0
LWPOLYLINE
5
193
100
AcDbEntity
8
0
100
AcDbPolyline
90
4
70
1
43
0.0
10
-21.362500000000001
20
68.962500000000006
10
-21.362500000000001
20
79.962500000000006
10
-18.362500000000001
20
79.962500000000006
10
-18.362500000000001
20
68.962500000000006
0
LWPOLYLINE
5
194
100
AcDbEntity
8
0
100
AcDbPolyline
90
4
70
1
43
0.0
10
-116.61250000000001
20
37.100000000000001
10
-113.61250000000001
20
37.100000000000001
10
-113.61250000000001
20
26.100000000000001
10
-116.61250000000001
20
26.100000000000001
0
LWPOLYLINE
5
195
100
AcDbEntity
8
0
100
AcDbPolyline
90
4
70
1
43
0.0
10
-45.175000000000011
20
88.012499999999989
10
-45.175000000000011
20
99.012500000000017
10
-42.175000000000004
20
99.012500000000017
10
-42.175000000000004
20
88.012499999999989
0
LWPOLYLINE
5
196
100
AcDbEntity
8
0
100
AcDbPolyline
90
4
70
1
43
0.0
10
-116.61250000000003
20
68.962500000000006
10
-116.61250000000003
20
79.962500000000006
10
-113.61250000000001
20
79.962500000000006
10
-113.61250000000001
20
68.962500000000006
0
LWPOLYLINE
5
197
100
AcDbEntity
8
0
100
AcDbPolyline
90
4
70
1
43
0.0
10
-135.66250000000002
20
68.962500000000006
10
-135.66250000000002
20
79.962500000000006
10
-132.66250000000002
20
79.962500000000006
10
-132.66250000000002
20
68.962500000000006
0
LWPOLYLINE
5
198
100
AcDbEntity
8
0
100
AcDbPolyline
90
4
70
1
43
0.0
10
-173.76250000000002
20
141.875
10
-170.76250000000002
20
141.875
10
-170.76250000000002
20
130.87500000000003
10
-173.76250000000002
20
130.87500000000003
0
CIRCLE
5
199
100
AcDbEntity
8
0
100
AcDbCircle
10
-196
20
142
30
0
40
1.6000000000000014
210
0
220
-0
230
1
0
LWPOLYLINE
5
200
100
AcDbEntity
8
0
100
AcDbPolyline
90
4
70
1
43
0.0
10
-49.9375
20
60.912500000000009
10
-46.937500000000007
20
60.912500000000009
10
-46.937500000000007
20
49.912499999999994
10
-49.9375
20
49.912499999999994
0
LWPOLYLINE
5
201
100
AcDbEntity
8
0
100
AcDbPolyline
90
4
70
1
43
0.0
10
-97.562500000000014
20
68.962500000000006
10
-97.562500000000014
20
79.962500000000006
10
-94.5625
20
79.962500000000006
10
-94.5625
20
68.962500000000006
0
LWPOLYLINE
5
202
100
AcDbEntity
8
0
100
AcDbPolyline
90
4
70
1
43
0.0
10
-54.700000000000003
20
37.100000000000001
10
-51.700000000000003
20
37.100000000000001
10
-51.700000000000003
20
26.100000000000001
10
-54.700000000000003
20
26.100000000000001
0
LWPOLYLINE
5
203
100
AcDbEntity
8
0
100
AcDbPolyline
90
4
70
1
43
0.0
10
-194.57500000000005
20
107.0625
10
-197.57499999999999
20
107.0625
10
-197.57499999999999
20
118.06250000000003
10
-194.57500000000005
20
118.06250000000003
0
LWPOLYLINE
5
204
100
AcDbEntity
8
0
100
AcDbPolyline
90
4
70
1
43
0.0
10
-59.462500000000006
20
68.962500000000006
10
-59.462500000000006
20
79.962500000000006
10
-56.462500000000006
20
79.962500000000006
10
-56.462500000000006
20
68.962500000000006
0
LWPOLYLINE
5
205
100
AcDbEntity
8
0
100
AcDbPolyline
90
4
70
1
43
0.0
10
-54.700000000000003
20
107.0625
10
-54.700000000000003
20
118.06250000000003
10
-51.700000000000003
20
118.06250000000003
10
-51.700000000000003
20
107.0625
0
LWPOLYLINE
5
206
100
AcDbEntity
8
0
100
AcDbPolyline
90
4
70
1
43
0.0
10
-83.27500000000002
20
88.012499999999989
10
-83.27500000000002
20
99.012500000000017
10
-80.27500000000002
20
99.012500000000017
10
-80.27500000000002
20
88.012499999999989
0
CIRCLE
5
207
100
AcDbEntity
8
0
100
AcDbCircle
10
-4
20
116.00000000000001
30
0
40
1.6000000000000003
210
0
220
-0
230
1
0
LWPOLYLINE
5
208
100
AcDbEntity
8
0
100
AcDbPolyline
90
4
70
1
43
0.0
10
-194.57500000000005
20
99.012500000000017
10
-194.57500000000005
20
88.012499999999989
10
-197.57499999999999
20
88.012499999999989
10
-197.57499999999999
20
99.012500000000017
0
LWPOLYLINE
5
209
100
AcDbEntity
8
0
100
AcDbPolyline
90
4
70
1
43
0.0
10
-197.57499999999999
20
36.596321667059193
10
-194.57499999999999
20
36.596321667059193
10
-194.57499999999999
20
25.5963216670592
10
-197.57499999999999
20
25.5963216670592
0
CIRCLE
5
210
100
AcDbEntity
8
0
100
AcDbCircle
10
-196
20
4
30
0
40
1.6000000000000014
210
0
220
-0
230
1
0
LWPOLYLINE
5
211
100
AcDbEntity
8
0
100
AcDbPolyline
90
4
70
1
43
0.0
10
-160.78125000000003
20
88.012499999999989
10
-160.78125000000003
20
99.012500000000017
10
-157.78125000000003
20
99.012500000000017
10
-157.78125000000003
20
88.012499999999989
0
LWPOLYLINE
5
212
100
AcDbEntity
8
0
100
AcDbPolyline
90
4
70
1
43
0.0
10
-148.87500000000003
20
107.0625
10
-148.87500000000003
20
118.06250000000003
10
-145.87500000000003
20
118.06250000000003
10
-145.87500000000003
20
107.0625
0
LWPOLYLINE
5
213
100
AcDbEntity
8
0
100
AcDbPolyline
90
4
70
1
43
0.0
10
-163.16249999999999
20
49.912500000000001
10
-163.16249999999999
20
60.912499999999994
10
-160.16249999999999
20
60.912499999999994
10
-160.16249999999999
20
49.912500000000001
0
LWPOLYLINE
5
214
100
AcDbEntity
8
0
100
AcDbPolyline
90
4
70
1
43
0.0
10
-9.9145541914817237
20
1.9999999999999929
10
-29.91455419148172
20
1.9999999999999933
10
-29.914554191481713
20
13.073379241090725
10
-9.9145541914817148
20
13.073379241090725
0
ENDSEC
0
SECTION
2
OBJECTS
0
DICTIONARY
5
C
100
AcDbDictionary
3
ACAD_GROUP
350
D
3
ACAD_MLINESTYLE
350
17
0
DICTIONARY
5
D
100
AcDbDictionary
0
DICTIONARY
5
1A
330
C
100
AcDbDictionary
0
DICTIONARY
5
17
100
AcDbDictionary
0
ENDSEC
0
EOF
