0
SECTION
2
HEADER
9
$INSUNITS
70
4
9
$ACADVER
1
AC1014
9
$HANDSEED
5
FFFF
0
ENDSEC
0
SECTION
2
TABLES
0
TABLE
2
VPORT
5
8
100
AcDbSymbolTable
0
ENDTAB
0
TABLE
2
LTYPE
5
5
100
AcDbSymbolTable
0
LTYPE
5
14
100
AcDbSymbolTableRecord
100
AcDbLinetypeTableRecord
2
BYBLOCK
70
0
0
LTYPE
5
15
100
AcDbSymbolTableRecord
100
AcDbLinetypeTableRecord
2
BYLAYER
70
0
0
LTYPE
5
16
100
AcDbSymbolTableRecord
100
AcDbLinetypeTableRecord
2
DASHED
70
0
3
Dashed __ __ __ __ __ __ __ __ __ __ __ __ __ _
72
65
73
2
40
0.75
49
0.5
74
0
49
-0.25
74
0
0
ENDTAB
0
TABLE
2
LAYER
5
2
100
AcDbSymbolTable
70
3
0
LAYER
5
50
100
AcDbSymbolTableRecord
100
AcDbLayerTableRecord
2
1
70
0
62
7
6
DASHED
0
LAYER
5
51
100
AcDbSymbolTableRecord
100
AcDbLayerTableRecord
2
0
70
0
62
7
6
CONTINUOUS
0
ENDTAB
0
TABLE
2
STYLE
5
3
100
AcDbSymbolTable
70
1
0
STYLE
5
11
100
AcDbSymbolTableRecord
100
AcDbTextStyleTableRecord
2
STANDARD
70
0
0
ENDTAB
0
TABLE
2
VIEW
5
6
100
AcDbSymbolTable
70
0
0
ENDTAB
0
TABLE
2
UCS
5
7
100
AcDbSymbolTable
70
0
0
ENDTAB
0
TABLE
2
APPID
5
9
100
AcDbSymbolTable
70
2
0
APPID
5
12
100
AcDbSymbolTableRecord
100
AcDbRegAppTableRecord
2
ACAD
70
0
0
ENDTAB
0
TABLE
2
DIMSTYLE
5
A
100
AcDbSymbolTable
70
1
0
ENDTAB
0
TABLE
2
BLOCK_RECORD
5
1
100
AcDbSymbolTable
70
1
0
BLOCK_RECORD
5
1F
100
AcDbSymbolTableRecord
100
AcDbBlockTableRecord
2
*MODEL_SPACE
0
BLOCK_RECORD
5
1B
100
AcDbSymbolTableRecord
100
AcDbBlockTableRecord
2
*PAPER_SPACE
0
ENDTAB
0
ENDSEC
0
SECTION
2
BLOCKS
0
BLOCK
5
20
100
AcDbEntity
100
AcDbBlockBegin
2
*MODEL_SPACE
0
ENDBLK
5
21
100
AcDbEntity
100
AcDbBlockEnd
0
BLOCK
5
1C
100
AcDbEntity
100
AcDbBlockBegin
2
*PAPER_SPACE
0
ENDBLK
5
1D
100
AcDbEntity
100
AcDbBlockEnd
0
ENDSEC
0
SECTION
2
ENTITIES
0
LWPOLYLINE
5
100
100
AcDbEntity
8
0
100
AcDbPolyline
90
4
70
1
43
0.0
10
-158.47500000000005
20
41.600000000000001
10
-14.649999999999999
20
41.600000000000001
10
-14.649999999999999
20
21.600000000000001
10
-158.47500000000005
20
21.600000000000001
0
CIRCLE
5
101
100
AcDbEntity
8
0
100
AcDbCircle
10
-196
20
4
30
0
40
1.05
210
0
220
0
230
1
0
CIRCLE
5
102
100
AcDbEntity
8
0
100
AcDbCircle
10
-196
20
142
30
0
40
1.05
210
0
220
0
230
1
0
CIRCLE
5
103
100
AcDbEntity
8
0
100
AcDbCircle
10
-4
20
116.00000000000001
30
0
40
1.05
210
0
220
0
230
1
0
CIRCLE
5
104
100
AcDbEntity
8
0
100
AcDbCircle
10
-76
20
10
30
0
40
1.0500000000000043
210
0
220
0
230
1
0
LWPOLYLINE
5
105
100
AcDbEntity
8
0
100
AcDbPolyline
90
12
70
1
43
0.0
10
-199.00000000000006
20
147.00000000000003
42
0.41421356237309764
10
-201
20
145.00000000000003
10
-201.00000000000006
20
0.99999999999999645
42
0.41421356237309681
10
-199.00000000000006
20
-1.000000000000008
10
-29.914554191481706
20
-1.0000000000000102
10
-29.914554191481713
20
13.073379241090725
10
-9.9145541914817148
20
13.073379241090725
10
-9.9145541914817148
20
-1.0000000000000098
10
-1.0000000000000009
20
-1.0000000000000016
42
0.4142135623730947
10
0.99999999999999989
20
0.99999999999999667
10
1.0000000000000004
20
145.00000000000003
42
0.41421356237309548
10
-0.99999999999999978
20
147.00000000000003
0
LWPOLYLINE
5
106
100
AcDbEntity
8
0
100
AcDbPolyline
90
4
70
1
43
0.0
10
-176.57499999999999
20
41.600000000000001
10
-176.57499999999999
20
21.600000000000001
10
-196.57499999999999
20
21.600000000000001
10
-196.57499999999999
20
41.600000000000001
0
LWPOLYLINE
5
107
100
AcDbEntity
8
0
100
AcDbPolyline
90
16
70
1
43
0.0
10
-163.47499999999999
20
103.5125
10
-149.30625000000003
20
103.5125
10
-149.30625000000003
20
122.56250000000001
10
-129.90000000000003
20
122.56250000000001
10
-129.90000000000003
20
141.61250000000001
10
-5.1249999999999929
20
141.61250000000001
10
-5.1249999999999929
20
121.61250000000003
10
-14.649999999999999
20
121.61250000000003
10
-14.649999999999999
20
103.5125
10
-5.1250000000000018
20
103.5125
10
-5.1250000000000018
20
84.462500000000006
10
-0.36250000000000338
20
84.462500000000006
10
-0.36250000000000338
20
64.462500000000006
10
-9.8874999999999993
20
64.462500000000006
10
-9.8874999999999993
20
45.412500000000009
10
-163.47499999999999
20
45.412499999999994
0
LWPOLYLINE
5
108
100
AcDbEntity
8
0
100
AcDbPolyline
90
4
70
1
43
0.0
10
-69.710000000000008
20
0.58999999999999631
10
-69.710000000000008
20
20.600000000000001
10
-31.710000000000001
20
20.600000000000001
10
-31.710000000000001
20
0.58999999999999719
0
CIRCLE
5
109
100
AcDbEntity
8
0
100
AcDbCircle
10
-4
20
4
30
0
40
1.0500000000000003
210
0
220
-0
230
1
0
LWPOLYLINE
5
110
100
AcDbEntity
8
0
100
AcDbPolyline
90
4
70
1
43
0.0
10
-196.57499999999999
20
122.56250000000001
10
-176.57499999999999
20
122.56250000000001
10
-176.57499999999999
20
45.412500000000009
10
-196.57499999999999
20
45.412500000000009
0
LWPOLYLINE
5
111
100
AcDbEntity
8
0
100
AcDbPolyline
90
8
70
1
43
0.0
10
-191.81250000000003
20
146
10
-133.71250000000001
20
146
10
-133.71250000000001
20
126.37500000000001
10
-152.76250000000002
20
126.37500000000001
10
-152.76250000000002
20
107.32500000000002
10
-172.76250000000002
20
107.32500000000002
10
-172.76250000000002
20
126.37500000000001
10
-191.81250000000003
20
126.37500000000001
0
ENDSEC
0
SECTION
2
OBJECTS
0
DICTIONARY
5
C
100
AcDbDictionary
3
ACAD_GROUP
350
D
3
ACAD_MLINESTYLE
350
17
0
DICTIONARY
5
D
100
AcDbDictionary
0
DICTIONARY
5
1A
330
C
100
AcDbDictionary
0
DICTIONARY
5
17
100
AcDbDictionary
0
ENDSEC
0
EOF
