%TF.GenerationSoftware,KiCad,Pcbnew,8.0.7*%
%TF.CreationDate,2024-12-27T16:05:52+00:00*%
%TF.ProjectId,gateronLPkeyboard-left,67617465-726f-46e4-9c50-6b6579626f61,rev?*%
%TF.SameCoordinates,Original*%
%TF.FileFunction,Drillmap*%
%TF.FilePolarity,Positive*%
%FSLAX45Y45*%
G04 Gerber Fmt 4.5, Leading zero omitted, Abs format (unit mm)*
G04 Created by KiCad (PCBNEW 8.0.7) date 2024-12-27 16:05:52*
%MOMM*%
%LPD*%
G01*
G04 APERTURE LIST*
%ADD10C,0.100000*%
%ADD11C,0.120000*%
%ADD12C,0.200000*%
%ADD13C,0.102000*%
%ADD14C,0.158000*%
G04 APERTURE END LIST*
D10*
X200000Y-14400000D02*
G75*
G02*
X0Y-14200000I0J200000D01*
G01*
X18400000Y-14200000D02*
G75*
G02*
X18200000Y-14400000I-200000J0D01*
G01*
X18200000Y0D02*
G75*
G02*
X18400000Y-200000I0J-200000D01*
G01*
X0Y-200000D02*
G75*
G02*
X200000Y0I200000J0D01*
G01*
X0Y-200000D02*
X0Y-14200000D01*
X18400000Y-200000D02*
X18400000Y-14200000D01*
X200000Y-14400000D02*
X18200000Y-14400000D01*
X200000Y0D02*
X18200000Y0D01*
D11*
X12456875Y-12211250D02*
X13156875Y-12211250D01*
X13156875Y-14011250D01*
X12456875Y-14011250D01*
X12456875Y-12211250D01*
X14856875Y-12211250D02*
X15556875Y-12211250D01*
X15556875Y-14011250D01*
X14856875Y-14011250D01*
X14856875Y-12211250D01*
X4360625Y-10306250D02*
X5060625Y-10306250D01*
X5060625Y-12106250D01*
X4360625Y-12106250D01*
X4360625Y-10306250D01*
X6760625Y-10306250D02*
X7460625Y-10306250D01*
X7460625Y-12106250D01*
X6760625Y-12106250D01*
X6760625Y-10306250D01*
D12*
D10*
X1020000Y-770000D02*
X1080000Y-830000D01*
X1080000Y-770000D02*
X1020000Y-830000D01*
X11570000Y-1820000D02*
X11630000Y-1880000D01*
X11630000Y-1820000D02*
X11570000Y-1880000D01*
X2376250Y-4157750D02*
G75*
G02*
X2296250Y-4157750I-40000J0D01*
G01*
X2296250Y-4157750D02*
G75*
G02*
X2376250Y-4157750I40000J0D01*
G01*
X2376250Y-4919750D02*
G75*
G02*
X2296250Y-4919750I-40000J0D01*
G01*
X2296250Y-4919750D02*
G75*
G02*
X2376250Y-4919750I40000J0D01*
G01*
X2376250Y-6062750D02*
G75*
G02*
X2296250Y-6062750I-40000J0D01*
G01*
X2296250Y-6062750D02*
G75*
G02*
X2376250Y-6062750I40000J0D01*
G01*
X2376250Y-6824750D02*
G75*
G02*
X2296250Y-6824750I-40000J0D01*
G01*
X2296250Y-6824750D02*
G75*
G02*
X2376250Y-6824750I40000J0D01*
G01*
X2376250Y-7967750D02*
G75*
G02*
X2296250Y-7967750I-40000J0D01*
G01*
X2296250Y-7967750D02*
G75*
G02*
X2376250Y-7967750I40000J0D01*
G01*
X2376250Y-8729750D02*
G75*
G02*
X2296250Y-8729750I-40000J0D01*
G01*
X2296250Y-8729750D02*
G75*
G02*
X2376250Y-8729750I40000J0D01*
G01*
X2376250Y-9872750D02*
G75*
G02*
X2296250Y-9872750I-40000J0D01*
G01*
X2296250Y-9872750D02*
G75*
G02*
X2376250Y-9872750I40000J0D01*
G01*
X2376250Y-10634750D02*
G75*
G02*
X2296250Y-10634750I-40000J0D01*
G01*
X2296250Y-10634750D02*
G75*
G02*
X2376250Y-10634750I40000J0D01*
G01*
X2376250Y-11777750D02*
G75*
G02*
X2296250Y-11777750I-40000J0D01*
G01*
X2296250Y-11777750D02*
G75*
G02*
X2376250Y-11777750I40000J0D01*
G01*
X2376250Y-12539750D02*
G75*
G02*
X2296250Y-12539750I-40000J0D01*
G01*
X2296250Y-12539750D02*
G75*
G02*
X2376250Y-12539750I40000J0D01*
G01*
X5710000Y-2729000D02*
G75*
G02*
X5630000Y-2729000I-40000J0D01*
G01*
X5630000Y-2729000D02*
G75*
G02*
X5710000Y-2729000I40000J0D01*
G01*
X5710000Y-3491000D02*
G75*
G02*
X5630000Y-3491000I-40000J0D01*
G01*
X5630000Y-3491000D02*
G75*
G02*
X5710000Y-3491000I40000J0D01*
G01*
X5710000Y-5110250D02*
G75*
G02*
X5630000Y-5110250I-40000J0D01*
G01*
X5630000Y-5110250D02*
G75*
G02*
X5710000Y-5110250I40000J0D01*
G01*
X5710000Y-5872250D02*
G75*
G02*
X5630000Y-5872250I-40000J0D01*
G01*
X5630000Y-5872250D02*
G75*
G02*
X5710000Y-5872250I40000J0D01*
G01*
X6186250Y-7015250D02*
G75*
G02*
X6106250Y-7015250I-40000J0D01*
G01*
X6106250Y-7015250D02*
G75*
G02*
X6186250Y-7015250I40000J0D01*
G01*
X6186250Y-7777250D02*
G75*
G02*
X6106250Y-7777250I-40000J0D01*
G01*
X6106250Y-7777250D02*
G75*
G02*
X6186250Y-7777250I40000J0D01*
G01*
X6186250Y-12730250D02*
G75*
G02*
X6106250Y-12730250I-40000J0D01*
G01*
X6106250Y-12730250D02*
G75*
G02*
X6186250Y-12730250I40000J0D01*
G01*
X6186250Y-13492250D02*
G75*
G02*
X6106250Y-13492250I-40000J0D01*
G01*
X6106250Y-13492250D02*
G75*
G02*
X6186250Y-13492250I40000J0D01*
G01*
X6424375Y-8920250D02*
G75*
G02*
X6344375Y-8920250I-40000J0D01*
G01*
X6344375Y-8920250D02*
G75*
G02*
X6424375Y-8920250I40000J0D01*
G01*
X6424375Y-9682250D02*
G75*
G02*
X6344375Y-9682250I-40000J0D01*
G01*
X6344375Y-9682250D02*
G75*
G02*
X6424375Y-9682250I40000J0D01*
G01*
X7615000Y-5110250D02*
G75*
G02*
X7535000Y-5110250I-40000J0D01*
G01*
X7535000Y-5110250D02*
G75*
G02*
X7615000Y-5110250I40000J0D01*
G01*
X7615000Y-5872250D02*
G75*
G02*
X7535000Y-5872250I-40000J0D01*
G01*
X7535000Y-5872250D02*
G75*
G02*
X7615000Y-5872250I40000J0D01*
G01*
X7840000Y-10825250D02*
G75*
G02*
X7760000Y-10825250I-40000J0D01*
G01*
X7760000Y-10825250D02*
G75*
G02*
X7840000Y-10825250I40000J0D01*
G01*
X7840000Y-11587250D02*
G75*
G02*
X7760000Y-11587250I-40000J0D01*
G01*
X7760000Y-11587250D02*
G75*
G02*
X7840000Y-11587250I40000J0D01*
G01*
X8091250Y-2729000D02*
G75*
G02*
X8011250Y-2729000I-40000J0D01*
G01*
X8011250Y-2729000D02*
G75*
G02*
X8091250Y-2729000I40000J0D01*
G01*
X8091250Y-3491000D02*
G75*
G02*
X8011250Y-3491000I-40000J0D01*
G01*
X8011250Y-3491000D02*
G75*
G02*
X8091250Y-3491000I40000J0D01*
G01*
X8567500Y-7015250D02*
G75*
G02*
X8487500Y-7015250I-40000J0D01*
G01*
X8487500Y-7015250D02*
G75*
G02*
X8567500Y-7015250I40000J0D01*
G01*
X8567500Y-7777250D02*
G75*
G02*
X8487500Y-7777250I-40000J0D01*
G01*
X8487500Y-7777250D02*
G75*
G02*
X8567500Y-7777250I40000J0D01*
G01*
X8805625Y-12730250D02*
G75*
G02*
X8725625Y-12730250I-40000J0D01*
G01*
X8725625Y-12730250D02*
G75*
G02*
X8805625Y-12730250I40000J0D01*
G01*
X8805625Y-13492250D02*
G75*
G02*
X8725625Y-13492250I-40000J0D01*
G01*
X8725625Y-13492250D02*
G75*
G02*
X8805625Y-13492250I40000J0D01*
G01*
X9043750Y-8920250D02*
G75*
G02*
X8963750Y-8920250I-40000J0D01*
G01*
X8963750Y-8920250D02*
G75*
G02*
X9043750Y-8920250I40000J0D01*
G01*
X9043750Y-9682250D02*
G75*
G02*
X8963750Y-9682250I-40000J0D01*
G01*
X8963750Y-9682250D02*
G75*
G02*
X9043750Y-9682250I40000J0D01*
G01*
X9520000Y-5110250D02*
G75*
G02*
X9440000Y-5110250I-40000J0D01*
G01*
X9440000Y-5110250D02*
G75*
G02*
X9520000Y-5110250I40000J0D01*
G01*
X9520000Y-5872250D02*
G75*
G02*
X9440000Y-5872250I-40000J0D01*
G01*
X9440000Y-5872250D02*
G75*
G02*
X9520000Y-5872250I40000J0D01*
G01*
X9996250Y-2729000D02*
G75*
G02*
X9916250Y-2729000I-40000J0D01*
G01*
X9916250Y-2729000D02*
G75*
G02*
X9996250Y-2729000I40000J0D01*
G01*
X9996250Y-3491000D02*
G75*
G02*
X9916250Y-3491000I-40000J0D01*
G01*
X9916250Y-3491000D02*
G75*
G02*
X9996250Y-3491000I40000J0D01*
G01*
X9996250Y-10825250D02*
G75*
G02*
X9916250Y-10825250I-40000J0D01*
G01*
X9916250Y-10825250D02*
G75*
G02*
X9996250Y-10825250I40000J0D01*
G01*
X9996250Y-11587250D02*
G75*
G02*
X9916250Y-11587250I-40000J0D01*
G01*
X9916250Y-11587250D02*
G75*
G02*
X9996250Y-11587250I40000J0D01*
G01*
X10472500Y-7015250D02*
G75*
G02*
X10392500Y-7015250I-40000J0D01*
G01*
X10392500Y-7015250D02*
G75*
G02*
X10472500Y-7015250I40000J0D01*
G01*
X10472500Y-7777250D02*
G75*
G02*
X10392500Y-7777250I-40000J0D01*
G01*
X10392500Y-7777250D02*
G75*
G02*
X10472500Y-7777250I40000J0D01*
G01*
X10948750Y-8920250D02*
G75*
G02*
X10868750Y-8920250I-40000J0D01*
G01*
X10868750Y-8920250D02*
G75*
G02*
X10948750Y-8920250I40000J0D01*
G01*
X10948750Y-9682250D02*
G75*
G02*
X10868750Y-9682250I-40000J0D01*
G01*
X10868750Y-9682250D02*
G75*
G02*
X10948750Y-9682250I40000J0D01*
G01*
X11186875Y-12730250D02*
G75*
G02*
X11106875Y-12730250I-40000J0D01*
G01*
X11106875Y-12730250D02*
G75*
G02*
X11186875Y-12730250I40000J0D01*
G01*
X11186875Y-13492250D02*
G75*
G02*
X11106875Y-13492250I-40000J0D01*
G01*
X11106875Y-13492250D02*
G75*
G02*
X11186875Y-13492250I40000J0D01*
G01*
X11425000Y-5110250D02*
G75*
G02*
X11345000Y-5110250I-40000J0D01*
G01*
X11345000Y-5110250D02*
G75*
G02*
X11425000Y-5110250I40000J0D01*
G01*
X11425000Y-5872250D02*
G75*
G02*
X11345000Y-5872250I-40000J0D01*
G01*
X11345000Y-5872250D02*
G75*
G02*
X11425000Y-5872250I40000J0D01*
G01*
X11901250Y-2729000D02*
G75*
G02*
X11821250Y-2729000I-40000J0D01*
G01*
X11821250Y-2729000D02*
G75*
G02*
X11901250Y-2729000I40000J0D01*
G01*
X11901250Y-3491000D02*
G75*
G02*
X11821250Y-3491000I-40000J0D01*
G01*
X11821250Y-3491000D02*
G75*
G02*
X11901250Y-3491000I40000J0D01*
G01*
X11901250Y-10825250D02*
G75*
G02*
X11821250Y-10825250I-40000J0D01*
G01*
X11821250Y-10825250D02*
G75*
G02*
X11901250Y-10825250I40000J0D01*
G01*
X11901250Y-11587250D02*
G75*
G02*
X11821250Y-11587250I-40000J0D01*
G01*
X11821250Y-11587250D02*
G75*
G02*
X11901250Y-11587250I40000J0D01*
G01*
X12377500Y-7015250D02*
G75*
G02*
X12297500Y-7015250I-40000J0D01*
G01*
X12297500Y-7015250D02*
G75*
G02*
X12377500Y-7015250I40000J0D01*
G01*
X12377500Y-7777250D02*
G75*
G02*
X12297500Y-7777250I-40000J0D01*
G01*
X12297500Y-7777250D02*
G75*
G02*
X12377500Y-7777250I40000J0D01*
G01*
X12853750Y-8920250D02*
G75*
G02*
X12773750Y-8920250I-40000J0D01*
G01*
X12773750Y-8920250D02*
G75*
G02*
X12853750Y-8920250I40000J0D01*
G01*
X12853750Y-9682250D02*
G75*
G02*
X12773750Y-9682250I-40000J0D01*
G01*
X12773750Y-9682250D02*
G75*
G02*
X12853750Y-9682250I40000J0D01*
G01*
X13330000Y-5110250D02*
G75*
G02*
X13250000Y-5110250I-40000J0D01*
G01*
X13250000Y-5110250D02*
G75*
G02*
X13330000Y-5110250I40000J0D01*
G01*
X13330000Y-5872250D02*
G75*
G02*
X13250000Y-5872250I-40000J0D01*
G01*
X13250000Y-5872250D02*
G75*
G02*
X13330000Y-5872250I40000J0D01*
G01*
X13806250Y-2729000D02*
G75*
G02*
X13726250Y-2729000I-40000J0D01*
G01*
X13726250Y-2729000D02*
G75*
G02*
X13806250Y-2729000I40000J0D01*
G01*
X13806250Y-3491000D02*
G75*
G02*
X13726250Y-3491000I-40000J0D01*
G01*
X13726250Y-3491000D02*
G75*
G02*
X13806250Y-3491000I40000J0D01*
G01*
X13806250Y-10825250D02*
G75*
G02*
X13726250Y-10825250I-40000J0D01*
G01*
X13726250Y-10825250D02*
G75*
G02*
X13806250Y-10825250I40000J0D01*
G01*
X13806250Y-11587250D02*
G75*
G02*
X13726250Y-11587250I-40000J0D01*
G01*
X13726250Y-11587250D02*
G75*
G02*
X13806250Y-11587250I40000J0D01*
G01*
X14282500Y-7015250D02*
G75*
G02*
X14202500Y-7015250I-40000J0D01*
G01*
X14202500Y-7015250D02*
G75*
G02*
X14282500Y-7015250I40000J0D01*
G01*
X14282500Y-7777250D02*
G75*
G02*
X14202500Y-7777250I-40000J0D01*
G01*
X14202500Y-7777250D02*
G75*
G02*
X14282500Y-7777250I40000J0D01*
G01*
X14758750Y-8920250D02*
G75*
G02*
X14678750Y-8920250I-40000J0D01*
G01*
X14678750Y-8920250D02*
G75*
G02*
X14758750Y-8920250I40000J0D01*
G01*
X14758750Y-9682250D02*
G75*
G02*
X14678750Y-9682250I-40000J0D01*
G01*
X14678750Y-9682250D02*
G75*
G02*
X14758750Y-9682250I40000J0D01*
G01*
X15235000Y-5110250D02*
G75*
G02*
X15155000Y-5110250I-40000J0D01*
G01*
X15155000Y-5110250D02*
G75*
G02*
X15235000Y-5110250I40000J0D01*
G01*
X15235000Y-5872250D02*
G75*
G02*
X15155000Y-5872250I-40000J0D01*
G01*
X15155000Y-5872250D02*
G75*
G02*
X15235000Y-5872250I40000J0D01*
G01*
X15711250Y-10825250D02*
G75*
G02*
X15631250Y-10825250I-40000J0D01*
G01*
X15631250Y-10825250D02*
G75*
G02*
X15711250Y-10825250I40000J0D01*
G01*
X15711250Y-11587250D02*
G75*
G02*
X15631250Y-11587250I-40000J0D01*
G01*
X15631250Y-11587250D02*
G75*
G02*
X15711250Y-11587250I40000J0D01*
G01*
X15990000Y-12730250D02*
G75*
G02*
X15910000Y-12730250I-40000J0D01*
G01*
X15910000Y-12730250D02*
G75*
G02*
X15990000Y-12730250I40000J0D01*
G01*
X15990000Y-13492250D02*
G75*
G02*
X15910000Y-13492250I-40000J0D01*
G01*
X15910000Y-13492250D02*
G75*
G02*
X15990000Y-13492250I40000J0D01*
G01*
X16187500Y-2729000D02*
G75*
G02*
X16107500Y-2729000I-40000J0D01*
G01*
X16107500Y-2729000D02*
G75*
G02*
X16187500Y-2729000I40000J0D01*
G01*
X16187500Y-3491000D02*
G75*
G02*
X16107500Y-3491000I-40000J0D01*
G01*
X16107500Y-3491000D02*
G75*
G02*
X16187500Y-3491000I40000J0D01*
G01*
X16187500Y-7015250D02*
G75*
G02*
X16107500Y-7015250I-40000J0D01*
G01*
X16107500Y-7015250D02*
G75*
G02*
X16187500Y-7015250I40000J0D01*
G01*
X16187500Y-7777250D02*
G75*
G02*
X16107500Y-7777250I-40000J0D01*
G01*
X16107500Y-7777250D02*
G75*
G02*
X16187500Y-7777250I40000J0D01*
G01*
X16663750Y-8920250D02*
G75*
G02*
X16583750Y-8920250I-40000J0D01*
G01*
X16583750Y-8920250D02*
G75*
G02*
X16663750Y-8920250I40000J0D01*
G01*
X16663750Y-9682250D02*
G75*
G02*
X16583750Y-9682250I-40000J0D01*
G01*
X16583750Y-9682250D02*
G75*
G02*
X16663750Y-9682250I40000J0D01*
G01*
X17140000Y-5110250D02*
G75*
G02*
X17060000Y-5110250I-40000J0D01*
G01*
X17060000Y-5110250D02*
G75*
G02*
X17140000Y-5110250I40000J0D01*
G01*
X17140000Y-5872250D02*
G75*
G02*
X17060000Y-5872250I-40000J0D01*
G01*
X17060000Y-5872250D02*
G75*
G02*
X17140000Y-5872250I40000J0D01*
G01*
X17616250Y-10825250D02*
G75*
G02*
X17536250Y-10825250I-40000J0D01*
G01*
X17536250Y-10825250D02*
G75*
G02*
X17616250Y-10825250I40000J0D01*
G01*
X17616250Y-11587250D02*
G75*
G02*
X17536250Y-11587250I-40000J0D01*
G01*
X17536250Y-11587250D02*
G75*
G02*
X17616250Y-11587250I40000J0D01*
G01*
X18092500Y-2729000D02*
G75*
G02*
X18012500Y-2729000I-40000J0D01*
G01*
X18012500Y-2729000D02*
G75*
G02*
X18092500Y-2729000I40000J0D01*
G01*
X18092500Y-3491000D02*
G75*
G02*
X18012500Y-3491000I-40000J0D01*
G01*
X18012500Y-3491000D02*
G75*
G02*
X18092500Y-3491000I40000J0D01*
G01*
D13*
X15965000Y-1049000D02*
X15965000Y-1151000D01*
X15914000Y-1100000D02*
X16016000Y-1100000D01*
X16265000Y-1049000D02*
X16265000Y-1151000D01*
X16214000Y-1100000D02*
X16316000Y-1100000D01*
X16565000Y-1049000D02*
X16565000Y-1151000D01*
X16514000Y-1100000D02*
X16616000Y-1100000D01*
X16865000Y-1049000D02*
X16865000Y-1151000D01*
X16814000Y-1100000D02*
X16916000Y-1100000D01*
X17165000Y-1049000D02*
X17165000Y-1151000D01*
X17114000Y-1100000D02*
X17216000Y-1100000D01*
D14*
X558862Y-1143862D02*
X558862Y-1032138D01*
X447138Y-1032138D01*
X447138Y-1143862D01*
X558862Y-1143862D01*
X558862Y-2667862D02*
X558862Y-2556138D01*
X447138Y-2556138D01*
X447138Y-2667862D01*
X558862Y-2667862D01*
X812862Y-1143862D02*
X812862Y-1032138D01*
X701138Y-1032138D01*
X701138Y-1143862D01*
X812862Y-1143862D01*
X812862Y-2667862D02*
X812862Y-2556138D01*
X701138Y-2556138D01*
X701138Y-2667862D01*
X812862Y-2667862D01*
X1002112Y-5064612D02*
X1002112Y-4952888D01*
X890388Y-4952888D01*
X890388Y-5064612D01*
X1002112Y-5064612D01*
X1002112Y-6969612D02*
X1002112Y-6857888D01*
X890388Y-6857888D01*
X890388Y-6969612D01*
X1002112Y-6969612D01*
X1002112Y-8874612D02*
X1002112Y-8762888D01*
X890388Y-8762888D01*
X890388Y-8874612D01*
X1002112Y-8874612D01*
X1002112Y-10779612D02*
X1002112Y-10667888D01*
X890388Y-10667888D01*
X890388Y-10779612D01*
X1002112Y-10779612D01*
X1002112Y-12684612D02*
X1002112Y-12572888D01*
X890388Y-12572888D01*
X890388Y-12684612D01*
X1002112Y-12684612D01*
X1066862Y-1143862D02*
X1066862Y-1032138D01*
X955138Y-1032138D01*
X955138Y-1143862D01*
X1066862Y-1143862D01*
X1066862Y-2667862D02*
X1066862Y-2556138D01*
X955138Y-2556138D01*
X955138Y-2667862D01*
X1066862Y-2667862D01*
X1320862Y-1143862D02*
X1320862Y-1032138D01*
X1209138Y-1032138D01*
X1209138Y-1143862D01*
X1320862Y-1143862D01*
X1320862Y-2667862D02*
X1320862Y-2556138D01*
X1209138Y-2556138D01*
X1209138Y-2667862D01*
X1320862Y-2667862D01*
X1574862Y-1143862D02*
X1574862Y-1032138D01*
X1463138Y-1032138D01*
X1463138Y-1143862D01*
X1574862Y-1143862D01*
X1574862Y-2667862D02*
X1574862Y-2556138D01*
X1463138Y-2556138D01*
X1463138Y-2667862D01*
X1574862Y-2667862D01*
X1702112Y-5169612D02*
X1702112Y-5057888D01*
X1590388Y-5057888D01*
X1590388Y-5169612D01*
X1702112Y-5169612D01*
X1702112Y-7074612D02*
X1702112Y-6962888D01*
X1590388Y-6962888D01*
X1590388Y-7074612D01*
X1702112Y-7074612D01*
X1702112Y-8979612D02*
X1702112Y-8867888D01*
X1590388Y-8867888D01*
X1590388Y-8979612D01*
X1702112Y-8979612D01*
X1702112Y-10884612D02*
X1702112Y-10772888D01*
X1590388Y-10772888D01*
X1590388Y-10884612D01*
X1702112Y-10884612D01*
X1702112Y-12789612D02*
X1702112Y-12677888D01*
X1590388Y-12677888D01*
X1590388Y-12789612D01*
X1702112Y-12789612D01*
X1828862Y-1143862D02*
X1828862Y-1032138D01*
X1717138Y-1032138D01*
X1717138Y-1143862D01*
X1828862Y-1143862D01*
X1828862Y-2667862D02*
X1828862Y-2556138D01*
X1717138Y-2556138D01*
X1717138Y-2667862D01*
X1828862Y-2667862D01*
X2082862Y-1143862D02*
X2082862Y-1032138D01*
X1971138Y-1032138D01*
X1971138Y-1143862D01*
X2082862Y-1143862D01*
X2082862Y-2667862D02*
X2082862Y-2556138D01*
X1971138Y-2556138D01*
X1971138Y-2667862D01*
X2082862Y-2667862D01*
X2336862Y-1143862D02*
X2336862Y-1032138D01*
X2225138Y-1032138D01*
X2225138Y-1143862D01*
X2336862Y-1143862D01*
X2336862Y-2667862D02*
X2336862Y-2556138D01*
X2225138Y-2556138D01*
X2225138Y-2667862D01*
X2336862Y-2667862D01*
X2590862Y-1143862D02*
X2590862Y-1032138D01*
X2479138Y-1032138D01*
X2479138Y-1143862D01*
X2590862Y-1143862D01*
X2590862Y-2667862D02*
X2590862Y-2556138D01*
X2479138Y-2556138D01*
X2479138Y-2667862D01*
X2590862Y-2667862D01*
X2844862Y-1143862D02*
X2844862Y-1032138D01*
X2733138Y-1032138D01*
X2733138Y-1143862D01*
X2844862Y-1143862D01*
X2844862Y-2667862D02*
X2844862Y-2556138D01*
X2733138Y-2556138D01*
X2733138Y-2667862D01*
X2844862Y-2667862D01*
X3098862Y-1143862D02*
X3098862Y-1032138D01*
X2987138Y-1032138D01*
X2987138Y-1143862D01*
X3098862Y-1143862D01*
X3098862Y-2667862D02*
X3098862Y-2556138D01*
X2987138Y-2556138D01*
X2987138Y-2667862D01*
X3098862Y-2667862D01*
X3352862Y-1143862D02*
X3352862Y-1032138D01*
X3241138Y-1032138D01*
X3241138Y-1143862D01*
X3352862Y-1143862D01*
X3352862Y-1397862D02*
X3352862Y-1286138D01*
X3241138Y-1286138D01*
X3241138Y-1397862D01*
X3352862Y-1397862D01*
X3352862Y-1651862D02*
X3352862Y-1540138D01*
X3241138Y-1540138D01*
X3241138Y-1651862D01*
X3352862Y-1651862D01*
X3352862Y-1905862D02*
X3352862Y-1794138D01*
X3241138Y-1794138D01*
X3241138Y-1905862D01*
X3352862Y-1905862D01*
X3352862Y-2159862D02*
X3352862Y-2048138D01*
X3241138Y-2048138D01*
X3241138Y-2159862D01*
X3352862Y-2159862D01*
X3352862Y-2413862D02*
X3352862Y-2302138D01*
X3241138Y-2302138D01*
X3241138Y-2413862D01*
X3352862Y-2413862D01*
X3352862Y-2667862D02*
X3352862Y-2556138D01*
X3241138Y-2556138D01*
X3241138Y-2667862D01*
X3352862Y-2667862D01*
X4335862Y-3635862D02*
X4335862Y-3524138D01*
X4224138Y-3524138D01*
X4224138Y-3635862D01*
X4335862Y-3635862D01*
X4335862Y-6017112D02*
X4335862Y-5905388D01*
X4224138Y-5905388D01*
X4224138Y-6017112D01*
X4335862Y-6017112D01*
X4812112Y-7922112D02*
X4812112Y-7810388D01*
X4700388Y-7810388D01*
X4700388Y-7922112D01*
X4812112Y-7922112D01*
X4812112Y-13637112D02*
X4812112Y-13525388D01*
X4700388Y-13525388D01*
X4700388Y-13637112D01*
X4812112Y-13637112D01*
X5035862Y-3740862D02*
X5035862Y-3629138D01*
X4924138Y-3629138D01*
X4924138Y-3740862D01*
X5035862Y-3740862D01*
X5035862Y-6122112D02*
X5035862Y-6010388D01*
X4924138Y-6010388D01*
X4924138Y-6122112D01*
X5035862Y-6122112D01*
X5050237Y-9827112D02*
X5050237Y-9715388D01*
X4938513Y-9715388D01*
X4938513Y-9827112D01*
X5050237Y-9827112D01*
X5512112Y-8027112D02*
X5512112Y-7915388D01*
X5400388Y-7915388D01*
X5400388Y-8027112D01*
X5512112Y-8027112D01*
X5512112Y-13742112D02*
X5512112Y-13630388D01*
X5400388Y-13630388D01*
X5400388Y-13742112D01*
X5512112Y-13742112D01*
X5526487Y-11732112D02*
X5526487Y-11620388D01*
X5414763Y-11620388D01*
X5414763Y-11732112D01*
X5526487Y-11732112D01*
X5750237Y-9932112D02*
X5750237Y-9820388D01*
X5638513Y-9820388D01*
X5638513Y-9932112D01*
X5750237Y-9932112D01*
X6226487Y-11837112D02*
X6226487Y-11725388D01*
X6114763Y-11725388D01*
X6114763Y-11837112D01*
X6226487Y-11837112D01*
X6240862Y-6017112D02*
X6240862Y-5905388D01*
X6129138Y-5905388D01*
X6129138Y-6017112D01*
X6240862Y-6017112D01*
X6717112Y-3635862D02*
X6717112Y-3524138D01*
X6605388Y-3524138D01*
X6605388Y-3635862D01*
X6717112Y-3635862D01*
X6940862Y-6122112D02*
X6940862Y-6010388D01*
X6829138Y-6010388D01*
X6829138Y-6122112D01*
X6940862Y-6122112D01*
X7193362Y-7922112D02*
X7193362Y-7810388D01*
X7081638Y-7810388D01*
X7081638Y-7922112D01*
X7193362Y-7922112D01*
X7417112Y-3740862D02*
X7417112Y-3629138D01*
X7305388Y-3629138D01*
X7305388Y-3740862D01*
X7417112Y-3740862D01*
X7431487Y-13637112D02*
X7431487Y-13525388D01*
X7319763Y-13525388D01*
X7319763Y-13637112D01*
X7431487Y-13637112D01*
X7669612Y-9827112D02*
X7669612Y-9715388D01*
X7557888Y-9715388D01*
X7557888Y-9827112D01*
X7669612Y-9827112D01*
X7893362Y-8027112D02*
X7893362Y-7915388D01*
X7781638Y-7915388D01*
X7781638Y-8027112D01*
X7893362Y-8027112D01*
X8131487Y-13742112D02*
X8131487Y-13630388D01*
X8019763Y-13630388D01*
X8019763Y-13742112D01*
X8131487Y-13742112D01*
X8145862Y-6017112D02*
X8145862Y-5905388D01*
X8034138Y-5905388D01*
X8034138Y-6017112D01*
X8145862Y-6017112D01*
X8369612Y-9932112D02*
X8369612Y-9820388D01*
X8257888Y-9820388D01*
X8257888Y-9932112D01*
X8369612Y-9932112D01*
X8622112Y-3635862D02*
X8622112Y-3524138D01*
X8510388Y-3524138D01*
X8510388Y-3635862D01*
X8622112Y-3635862D01*
X8622112Y-11732112D02*
X8622112Y-11620388D01*
X8510388Y-11620388D01*
X8510388Y-11732112D01*
X8622112Y-11732112D01*
X8845862Y-6122112D02*
X8845862Y-6010388D01*
X8734138Y-6010388D01*
X8734138Y-6122112D01*
X8845862Y-6122112D01*
X9098362Y-7922112D02*
X9098362Y-7810388D01*
X8986638Y-7810388D01*
X8986638Y-7922112D01*
X9098362Y-7922112D01*
X9322112Y-3740862D02*
X9322112Y-3629138D01*
X9210388Y-3629138D01*
X9210388Y-3740862D01*
X9322112Y-3740862D01*
X9322112Y-11837112D02*
X9322112Y-11725388D01*
X9210388Y-11725388D01*
X9210388Y-11837112D01*
X9322112Y-11837112D01*
X9574612Y-9827112D02*
X9574612Y-9715388D01*
X9462888Y-9715388D01*
X9462888Y-9827112D01*
X9574612Y-9827112D01*
X9798362Y-8027112D02*
X9798362Y-7915388D01*
X9686638Y-7915388D01*
X9686638Y-8027112D01*
X9798362Y-8027112D01*
X9812737Y-13637112D02*
X9812737Y-13525388D01*
X9701013Y-13525388D01*
X9701013Y-13637112D01*
X9812737Y-13637112D01*
X10050862Y-6017112D02*
X10050862Y-5905388D01*
X9939138Y-5905388D01*
X9939138Y-6017112D01*
X10050862Y-6017112D01*
X10274612Y-9932112D02*
X10274612Y-9820388D01*
X10162888Y-9820388D01*
X10162888Y-9932112D01*
X10274612Y-9932112D01*
X10512737Y-13742112D02*
X10512737Y-13630388D01*
X10401013Y-13630388D01*
X10401013Y-13742112D01*
X10512737Y-13742112D01*
X10527112Y-3635862D02*
X10527112Y-3524138D01*
X10415388Y-3524138D01*
X10415388Y-3635862D01*
X10527112Y-3635862D01*
X10527112Y-11732112D02*
X10527112Y-11620388D01*
X10415388Y-11620388D01*
X10415388Y-11732112D01*
X10527112Y-11732112D01*
X10750862Y-6122112D02*
X10750862Y-6010388D01*
X10639138Y-6010388D01*
X10639138Y-6122112D01*
X10750862Y-6122112D01*
X11003362Y-7922112D02*
X11003362Y-7810388D01*
X10891638Y-7810388D01*
X10891638Y-7922112D01*
X11003362Y-7922112D01*
X11227112Y-3740862D02*
X11227112Y-3629138D01*
X11115388Y-3629138D01*
X11115388Y-3740862D01*
X11227112Y-3740862D01*
X11227112Y-11837112D02*
X11227112Y-11725388D01*
X11115388Y-11725388D01*
X11115388Y-11837112D01*
X11227112Y-11837112D01*
X11479612Y-9827112D02*
X11479612Y-9715388D01*
X11367888Y-9715388D01*
X11367888Y-9827112D01*
X11479612Y-9827112D01*
X11703362Y-8027112D02*
X11703362Y-7915388D01*
X11591638Y-7915388D01*
X11591638Y-8027112D01*
X11703362Y-8027112D01*
X11955862Y-6017112D02*
X11955862Y-5905388D01*
X11844138Y-5905388D01*
X11844138Y-6017112D01*
X11955862Y-6017112D01*
X12179612Y-9932112D02*
X12179612Y-9820388D01*
X12067888Y-9820388D01*
X12067888Y-9932112D01*
X12179612Y-9932112D01*
X12432112Y-3635862D02*
X12432112Y-3524138D01*
X12320388Y-3524138D01*
X12320388Y-3635862D01*
X12432112Y-3635862D01*
X12432112Y-11732112D02*
X12432112Y-11620388D01*
X12320388Y-11620388D01*
X12320388Y-11732112D01*
X12432112Y-11732112D01*
X12655862Y-6122112D02*
X12655862Y-6010388D01*
X12544138Y-6010388D01*
X12544138Y-6122112D01*
X12655862Y-6122112D01*
X12908362Y-7922112D02*
X12908362Y-7810388D01*
X12796638Y-7810388D01*
X12796638Y-7922112D01*
X12908362Y-7922112D01*
X13132112Y-3740862D02*
X13132112Y-3629138D01*
X13020388Y-3629138D01*
X13020388Y-3740862D01*
X13132112Y-3740862D01*
X13132112Y-11837112D02*
X13132112Y-11725388D01*
X13020388Y-11725388D01*
X13020388Y-11837112D01*
X13132112Y-11837112D01*
X13384612Y-9827112D02*
X13384612Y-9715388D01*
X13272888Y-9715388D01*
X13272888Y-9827112D01*
X13384612Y-9827112D01*
X13608362Y-8027112D02*
X13608362Y-7915388D01*
X13496638Y-7915388D01*
X13496638Y-8027112D01*
X13608362Y-8027112D01*
X13622737Y-13637112D02*
X13622737Y-13525388D01*
X13511013Y-13525388D01*
X13511013Y-13637112D01*
X13622737Y-13637112D01*
X13860862Y-6017112D02*
X13860862Y-5905388D01*
X13749138Y-5905388D01*
X13749138Y-6017112D01*
X13860862Y-6017112D01*
X14084612Y-9932112D02*
X14084612Y-9820388D01*
X13972888Y-9820388D01*
X13972888Y-9932112D01*
X14084612Y-9932112D01*
X14322737Y-13742112D02*
X14322737Y-13630388D01*
X14211013Y-13630388D01*
X14211013Y-13742112D01*
X14322737Y-13742112D01*
X14337112Y-11732112D02*
X14337112Y-11620388D01*
X14225388Y-11620388D01*
X14225388Y-11732112D01*
X14337112Y-11732112D01*
X14560862Y-6122112D02*
X14560862Y-6010388D01*
X14449138Y-6010388D01*
X14449138Y-6122112D01*
X14560862Y-6122112D01*
X14813362Y-3635862D02*
X14813362Y-3524138D01*
X14701638Y-3524138D01*
X14701638Y-3635862D01*
X14813362Y-3635862D01*
X14813362Y-7922112D02*
X14813362Y-7810388D01*
X14701638Y-7810388D01*
X14701638Y-7922112D01*
X14813362Y-7922112D01*
X15037112Y-11837112D02*
X15037112Y-11725388D01*
X14925388Y-11725388D01*
X14925388Y-11837112D01*
X15037112Y-11837112D01*
X15289612Y-9827112D02*
X15289612Y-9715388D01*
X15177888Y-9715388D01*
X15177888Y-9827112D01*
X15289612Y-9827112D01*
X15513362Y-3740862D02*
X15513362Y-3629138D01*
X15401638Y-3629138D01*
X15401638Y-3740862D01*
X15513362Y-3740862D01*
X15513362Y-8027112D02*
X15513362Y-7915388D01*
X15401638Y-7915388D01*
X15401638Y-8027112D01*
X15513362Y-8027112D01*
X15765862Y-6017112D02*
X15765862Y-5905388D01*
X15654138Y-5905388D01*
X15654138Y-6017112D01*
X15765862Y-6017112D01*
X15989612Y-9932112D02*
X15989612Y-9820388D01*
X15877888Y-9820388D01*
X15877888Y-9932112D01*
X15989612Y-9932112D01*
X16242112Y-11732112D02*
X16242112Y-11620388D01*
X16130388Y-11620388D01*
X16130388Y-11732112D01*
X16242112Y-11732112D01*
X16465862Y-6122112D02*
X16465862Y-6010388D01*
X16354138Y-6010388D01*
X16354138Y-6122112D01*
X16465862Y-6122112D01*
X16718362Y-3635862D02*
X16718362Y-3524138D01*
X16606638Y-3524138D01*
X16606638Y-3635862D01*
X16718362Y-3635862D01*
X16942112Y-11837112D02*
X16942112Y-11725388D01*
X16830388Y-11725388D01*
X16830388Y-11837112D01*
X16942112Y-11837112D01*
X17418362Y-3740862D02*
X17418362Y-3629138D01*
X17306638Y-3629138D01*
X17306638Y-3740862D01*
X17418362Y-3740862D01*
D12*
X255777Y-14716484D02*
X255777Y-14516484D01*
X255777Y-14516484D02*
X303396Y-14516484D01*
X303396Y-14516484D02*
X331967Y-14526008D01*
X331967Y-14526008D02*
X351015Y-14545055D01*
X351015Y-14545055D02*
X360539Y-14564103D01*
X360539Y-14564103D02*
X370062Y-14602198D01*
X370062Y-14602198D02*
X370062Y-14630769D01*
X370062Y-14630769D02*
X360539Y-14668865D01*
X360539Y-14668865D02*
X351015Y-14687912D01*
X351015Y-14687912D02*
X331967Y-14706960D01*
X331967Y-14706960D02*
X303396Y-14716484D01*
X303396Y-14716484D02*
X255777Y-14716484D01*
X455777Y-14716484D02*
X455777Y-14583150D01*
X455777Y-14621246D02*
X465301Y-14602198D01*
X465301Y-14602198D02*
X474824Y-14592674D01*
X474824Y-14592674D02*
X493872Y-14583150D01*
X493872Y-14583150D02*
X512920Y-14583150D01*
X579586Y-14716484D02*
X579586Y-14583150D01*
X579586Y-14516484D02*
X570063Y-14526008D01*
X570063Y-14526008D02*
X579586Y-14535531D01*
X579586Y-14535531D02*
X589110Y-14526008D01*
X589110Y-14526008D02*
X579586Y-14516484D01*
X579586Y-14516484D02*
X579586Y-14535531D01*
X703396Y-14716484D02*
X684348Y-14706960D01*
X684348Y-14706960D02*
X674824Y-14687912D01*
X674824Y-14687912D02*
X674824Y-14516484D01*
X808158Y-14716484D02*
X789110Y-14706960D01*
X789110Y-14706960D02*
X779586Y-14687912D01*
X779586Y-14687912D02*
X779586Y-14516484D01*
X1036729Y-14716484D02*
X1036729Y-14516484D01*
X1036729Y-14516484D02*
X1103396Y-14659341D01*
X1103396Y-14659341D02*
X1170063Y-14516484D01*
X1170063Y-14516484D02*
X1170063Y-14716484D01*
X1351015Y-14716484D02*
X1351015Y-14611722D01*
X1351015Y-14611722D02*
X1341491Y-14592674D01*
X1341491Y-14592674D02*
X1322444Y-14583150D01*
X1322444Y-14583150D02*
X1284348Y-14583150D01*
X1284348Y-14583150D02*
X1265301Y-14592674D01*
X1351015Y-14706960D02*
X1331967Y-14716484D01*
X1331967Y-14716484D02*
X1284348Y-14716484D01*
X1284348Y-14716484D02*
X1265301Y-14706960D01*
X1265301Y-14706960D02*
X1255777Y-14687912D01*
X1255777Y-14687912D02*
X1255777Y-14668865D01*
X1255777Y-14668865D02*
X1265301Y-14649817D01*
X1265301Y-14649817D02*
X1284348Y-14640293D01*
X1284348Y-14640293D02*
X1331967Y-14640293D01*
X1331967Y-14640293D02*
X1351015Y-14630769D01*
X1446253Y-14583150D02*
X1446253Y-14783150D01*
X1446253Y-14592674D02*
X1465301Y-14583150D01*
X1465301Y-14583150D02*
X1503396Y-14583150D01*
X1503396Y-14583150D02*
X1522443Y-14592674D01*
X1522443Y-14592674D02*
X1531967Y-14602198D01*
X1531967Y-14602198D02*
X1541491Y-14621246D01*
X1541491Y-14621246D02*
X1541491Y-14678388D01*
X1541491Y-14678388D02*
X1531967Y-14697436D01*
X1531967Y-14697436D02*
X1522443Y-14706960D01*
X1522443Y-14706960D02*
X1503396Y-14716484D01*
X1503396Y-14716484D02*
X1465301Y-14716484D01*
X1465301Y-14716484D02*
X1446253Y-14706960D01*
X1627205Y-14697436D02*
X1636729Y-14706960D01*
X1636729Y-14706960D02*
X1627205Y-14716484D01*
X1627205Y-14716484D02*
X1617682Y-14706960D01*
X1617682Y-14706960D02*
X1627205Y-14697436D01*
X1627205Y-14697436D02*
X1627205Y-14716484D01*
X1627205Y-14592674D02*
X1636729Y-14602198D01*
X1636729Y-14602198D02*
X1627205Y-14611722D01*
X1627205Y-14611722D02*
X1617682Y-14602198D01*
X1617682Y-14602198D02*
X1627205Y-14592674D01*
X1627205Y-14592674D02*
X1627205Y-14611722D01*
D10*
X-65000Y-15015000D02*
X-5000Y-15075000D01*
X-5000Y-15015000D02*
X-65000Y-15075000D01*
D12*
X293872Y-14936484D02*
X312920Y-14936484D01*
X312920Y-14936484D02*
X331967Y-14946008D01*
X331967Y-14946008D02*
X341491Y-14955531D01*
X341491Y-14955531D02*
X351015Y-14974579D01*
X351015Y-14974579D02*
X360539Y-15012674D01*
X360539Y-15012674D02*
X360539Y-15060293D01*
X360539Y-15060293D02*
X351015Y-15098388D01*
X351015Y-15098388D02*
X341491Y-15117436D01*
X341491Y-15117436D02*
X331967Y-15126960D01*
X331967Y-15126960D02*
X312920Y-15136484D01*
X312920Y-15136484D02*
X293872Y-15136484D01*
X293872Y-15136484D02*
X274824Y-15126960D01*
X274824Y-15126960D02*
X265301Y-15117436D01*
X265301Y-15117436D02*
X255777Y-15098388D01*
X255777Y-15098388D02*
X246253Y-15060293D01*
X246253Y-15060293D02*
X246253Y-15012674D01*
X246253Y-15012674D02*
X255777Y-14974579D01*
X255777Y-14974579D02*
X265301Y-14955531D01*
X265301Y-14955531D02*
X274824Y-14946008D01*
X274824Y-14946008D02*
X293872Y-14936484D01*
X446253Y-15117436D02*
X455777Y-15126960D01*
X455777Y-15126960D02*
X446253Y-15136484D01*
X446253Y-15136484D02*
X436729Y-15126960D01*
X436729Y-15126960D02*
X446253Y-15117436D01*
X446253Y-15117436D02*
X446253Y-15136484D01*
X627205Y-14936484D02*
X589110Y-14936484D01*
X589110Y-14936484D02*
X570063Y-14946008D01*
X570063Y-14946008D02*
X560539Y-14955531D01*
X560539Y-14955531D02*
X541491Y-14984103D01*
X541491Y-14984103D02*
X531967Y-15022198D01*
X531967Y-15022198D02*
X531967Y-15098388D01*
X531967Y-15098388D02*
X541491Y-15117436D01*
X541491Y-15117436D02*
X551015Y-15126960D01*
X551015Y-15126960D02*
X570063Y-15136484D01*
X570063Y-15136484D02*
X608158Y-15136484D01*
X608158Y-15136484D02*
X627205Y-15126960D01*
X627205Y-15126960D02*
X636729Y-15117436D01*
X636729Y-15117436D02*
X646253Y-15098388D01*
X646253Y-15098388D02*
X646253Y-15050769D01*
X646253Y-15050769D02*
X636729Y-15031722D01*
X636729Y-15031722D02*
X627205Y-15022198D01*
X627205Y-15022198D02*
X608158Y-15012674D01*
X608158Y-15012674D02*
X570063Y-15012674D01*
X570063Y-15012674D02*
X551015Y-15022198D01*
X551015Y-15022198D02*
X541491Y-15031722D01*
X541491Y-15031722D02*
X531967Y-15050769D01*
X770062Y-14936484D02*
X789110Y-14936484D01*
X789110Y-14936484D02*
X808158Y-14946008D01*
X808158Y-14946008D02*
X817682Y-14955531D01*
X817682Y-14955531D02*
X827205Y-14974579D01*
X827205Y-14974579D02*
X836729Y-15012674D01*
X836729Y-15012674D02*
X836729Y-15060293D01*
X836729Y-15060293D02*
X827205Y-15098388D01*
X827205Y-15098388D02*
X817682Y-15117436D01*
X817682Y-15117436D02*
X808158Y-15126960D01*
X808158Y-15126960D02*
X789110Y-15136484D01*
X789110Y-15136484D02*
X770062Y-15136484D01*
X770062Y-15136484D02*
X751015Y-15126960D01*
X751015Y-15126960D02*
X741491Y-15117436D01*
X741491Y-15117436D02*
X731967Y-15098388D01*
X731967Y-15098388D02*
X722443Y-15060293D01*
X722443Y-15060293D02*
X722443Y-15012674D01*
X722443Y-15012674D02*
X731967Y-14974579D01*
X731967Y-14974579D02*
X741491Y-14955531D01*
X741491Y-14955531D02*
X751015Y-14946008D01*
X751015Y-14946008D02*
X770062Y-14936484D01*
X960539Y-14936484D02*
X979586Y-14936484D01*
X979586Y-14936484D02*
X998634Y-14946008D01*
X998634Y-14946008D02*
X1008158Y-14955531D01*
X1008158Y-14955531D02*
X1017682Y-14974579D01*
X1017682Y-14974579D02*
X1027205Y-15012674D01*
X1027205Y-15012674D02*
X1027205Y-15060293D01*
X1027205Y-15060293D02*
X1017682Y-15098388D01*
X1017682Y-15098388D02*
X1008158Y-15117436D01*
X1008158Y-15117436D02*
X998634Y-15126960D01*
X998634Y-15126960D02*
X979586Y-15136484D01*
X979586Y-15136484D02*
X960539Y-15136484D01*
X960539Y-15136484D02*
X941491Y-15126960D01*
X941491Y-15126960D02*
X931967Y-15117436D01*
X931967Y-15117436D02*
X922443Y-15098388D01*
X922443Y-15098388D02*
X912920Y-15060293D01*
X912920Y-15060293D02*
X912920Y-15012674D01*
X912920Y-15012674D02*
X922443Y-14974579D01*
X922443Y-14974579D02*
X931967Y-14955531D01*
X931967Y-14955531D02*
X941491Y-14946008D01*
X941491Y-14946008D02*
X960539Y-14936484D01*
X1112920Y-15136484D02*
X1112920Y-15003150D01*
X1112920Y-15022198D02*
X1122444Y-15012674D01*
X1122444Y-15012674D02*
X1141491Y-15003150D01*
X1141491Y-15003150D02*
X1170063Y-15003150D01*
X1170063Y-15003150D02*
X1189110Y-15012674D01*
X1189110Y-15012674D02*
X1198634Y-15031722D01*
X1198634Y-15031722D02*
X1198634Y-15136484D01*
X1198634Y-15031722D02*
X1208158Y-15012674D01*
X1208158Y-15012674D02*
X1227205Y-15003150D01*
X1227205Y-15003150D02*
X1255777Y-15003150D01*
X1255777Y-15003150D02*
X1274825Y-15012674D01*
X1274825Y-15012674D02*
X1284348Y-15031722D01*
X1284348Y-15031722D02*
X1284348Y-15136484D01*
X1379586Y-15136484D02*
X1379586Y-15003150D01*
X1379586Y-15022198D02*
X1389110Y-15012674D01*
X1389110Y-15012674D02*
X1408158Y-15003150D01*
X1408158Y-15003150D02*
X1436729Y-15003150D01*
X1436729Y-15003150D02*
X1455777Y-15012674D01*
X1455777Y-15012674D02*
X1465301Y-15031722D01*
X1465301Y-15031722D02*
X1465301Y-15136484D01*
X1465301Y-15031722D02*
X1474824Y-15012674D01*
X1474824Y-15012674D02*
X1493872Y-15003150D01*
X1493872Y-15003150D02*
X1522443Y-15003150D01*
X1522443Y-15003150D02*
X1541491Y-15012674D01*
X1541491Y-15012674D02*
X1551015Y-15031722D01*
X1551015Y-15031722D02*
X1551015Y-15136484D01*
X1941491Y-14926960D02*
X1770063Y-15184103D01*
X2198634Y-14936484D02*
X2217682Y-14936484D01*
X2217682Y-14936484D02*
X2236729Y-14946008D01*
X2236729Y-14946008D02*
X2246253Y-14955531D01*
X2246253Y-14955531D02*
X2255777Y-14974579D01*
X2255777Y-14974579D02*
X2265301Y-15012674D01*
X2265301Y-15012674D02*
X2265301Y-15060293D01*
X2265301Y-15060293D02*
X2255777Y-15098388D01*
X2255777Y-15098388D02*
X2246253Y-15117436D01*
X2246253Y-15117436D02*
X2236729Y-15126960D01*
X2236729Y-15126960D02*
X2217682Y-15136484D01*
X2217682Y-15136484D02*
X2198634Y-15136484D01*
X2198634Y-15136484D02*
X2179587Y-15126960D01*
X2179587Y-15126960D02*
X2170063Y-15117436D01*
X2170063Y-15117436D02*
X2160539Y-15098388D01*
X2160539Y-15098388D02*
X2151015Y-15060293D01*
X2151015Y-15060293D02*
X2151015Y-15012674D01*
X2151015Y-15012674D02*
X2160539Y-14974579D01*
X2160539Y-14974579D02*
X2170063Y-14955531D01*
X2170063Y-14955531D02*
X2179587Y-14946008D01*
X2179587Y-14946008D02*
X2198634Y-14936484D01*
X2351015Y-15117436D02*
X2360539Y-15126960D01*
X2360539Y-15126960D02*
X2351015Y-15136484D01*
X2351015Y-15136484D02*
X2341491Y-15126960D01*
X2341491Y-15126960D02*
X2351015Y-15117436D01*
X2351015Y-15117436D02*
X2351015Y-15136484D01*
X2484348Y-14936484D02*
X2503396Y-14936484D01*
X2503396Y-14936484D02*
X2522444Y-14946008D01*
X2522444Y-14946008D02*
X2531968Y-14955531D01*
X2531968Y-14955531D02*
X2541491Y-14974579D01*
X2541491Y-14974579D02*
X2551015Y-15012674D01*
X2551015Y-15012674D02*
X2551015Y-15060293D01*
X2551015Y-15060293D02*
X2541491Y-15098388D01*
X2541491Y-15098388D02*
X2531968Y-15117436D01*
X2531968Y-15117436D02*
X2522444Y-15126960D01*
X2522444Y-15126960D02*
X2503396Y-15136484D01*
X2503396Y-15136484D02*
X2484348Y-15136484D01*
X2484348Y-15136484D02*
X2465301Y-15126960D01*
X2465301Y-15126960D02*
X2455777Y-15117436D01*
X2455777Y-15117436D02*
X2446253Y-15098388D01*
X2446253Y-15098388D02*
X2436729Y-15060293D01*
X2436729Y-15060293D02*
X2436729Y-15012674D01*
X2436729Y-15012674D02*
X2446253Y-14974579D01*
X2446253Y-14974579D02*
X2455777Y-14955531D01*
X2455777Y-14955531D02*
X2465301Y-14946008D01*
X2465301Y-14946008D02*
X2484348Y-14936484D01*
X2627206Y-14955531D02*
X2636729Y-14946008D01*
X2636729Y-14946008D02*
X2655777Y-14936484D01*
X2655777Y-14936484D02*
X2703396Y-14936484D01*
X2703396Y-14936484D02*
X2722444Y-14946008D01*
X2722444Y-14946008D02*
X2731968Y-14955531D01*
X2731968Y-14955531D02*
X2741491Y-14974579D01*
X2741491Y-14974579D02*
X2741491Y-14993627D01*
X2741491Y-14993627D02*
X2731968Y-15022198D01*
X2731968Y-15022198D02*
X2617682Y-15136484D01*
X2617682Y-15136484D02*
X2741491Y-15136484D01*
X2808158Y-14936484D02*
X2931967Y-14936484D01*
X2931967Y-14936484D02*
X2865301Y-15012674D01*
X2865301Y-15012674D02*
X2893872Y-15012674D01*
X2893872Y-15012674D02*
X2912920Y-15022198D01*
X2912920Y-15022198D02*
X2922444Y-15031722D01*
X2922444Y-15031722D02*
X2931967Y-15050769D01*
X2931967Y-15050769D02*
X2931967Y-15098388D01*
X2931967Y-15098388D02*
X2922444Y-15117436D01*
X2922444Y-15117436D02*
X2912920Y-15126960D01*
X2912920Y-15126960D02*
X2893872Y-15136484D01*
X2893872Y-15136484D02*
X2836729Y-15136484D01*
X2836729Y-15136484D02*
X2817682Y-15126960D01*
X2817682Y-15126960D02*
X2808158Y-15117436D01*
X3103396Y-14936484D02*
X3065301Y-14936484D01*
X3065301Y-14936484D02*
X3046253Y-14946008D01*
X3046253Y-14946008D02*
X3036729Y-14955531D01*
X3036729Y-14955531D02*
X3017682Y-14984103D01*
X3017682Y-14984103D02*
X3008158Y-15022198D01*
X3008158Y-15022198D02*
X3008158Y-15098388D01*
X3008158Y-15098388D02*
X3017682Y-15117436D01*
X3017682Y-15117436D02*
X3027206Y-15126960D01*
X3027206Y-15126960D02*
X3046253Y-15136484D01*
X3046253Y-15136484D02*
X3084348Y-15136484D01*
X3084348Y-15136484D02*
X3103396Y-15126960D01*
X3103396Y-15126960D02*
X3112920Y-15117436D01*
X3112920Y-15117436D02*
X3122444Y-15098388D01*
X3122444Y-15098388D02*
X3122444Y-15050769D01*
X3122444Y-15050769D02*
X3112920Y-15031722D01*
X3112920Y-15031722D02*
X3103396Y-15022198D01*
X3103396Y-15022198D02*
X3084348Y-15012674D01*
X3084348Y-15012674D02*
X3046253Y-15012674D01*
X3046253Y-15012674D02*
X3027206Y-15022198D01*
X3027206Y-15022198D02*
X3017682Y-15031722D01*
X3017682Y-15031722D02*
X3008158Y-15050769D01*
X3198634Y-14936484D02*
X3198634Y-14974579D01*
X3274825Y-14936484D02*
X3274825Y-14974579D01*
X3570063Y-15212674D02*
X3560539Y-15203150D01*
X3560539Y-15203150D02*
X3541491Y-15174579D01*
X3541491Y-15174579D02*
X3531968Y-15155531D01*
X3531968Y-15155531D02*
X3522444Y-15126960D01*
X3522444Y-15126960D02*
X3512920Y-15079341D01*
X3512920Y-15079341D02*
X3512920Y-15041246D01*
X3512920Y-15041246D02*
X3522444Y-14993627D01*
X3522444Y-14993627D02*
X3531968Y-14965055D01*
X3531968Y-14965055D02*
X3541491Y-14946008D01*
X3541491Y-14946008D02*
X3560539Y-14917436D01*
X3560539Y-14917436D02*
X3570063Y-14907912D01*
X3636729Y-14955531D02*
X3646253Y-14946008D01*
X3646253Y-14946008D02*
X3665301Y-14936484D01*
X3665301Y-14936484D02*
X3712920Y-14936484D01*
X3712920Y-14936484D02*
X3731968Y-14946008D01*
X3731968Y-14946008D02*
X3741491Y-14955531D01*
X3741491Y-14955531D02*
X3751015Y-14974579D01*
X3751015Y-14974579D02*
X3751015Y-14993627D01*
X3751015Y-14993627D02*
X3741491Y-15022198D01*
X3741491Y-15022198D02*
X3627206Y-15136484D01*
X3627206Y-15136484D02*
X3751015Y-15136484D01*
X3989110Y-15136484D02*
X3989110Y-14936484D01*
X4074825Y-15136484D02*
X4074825Y-15031722D01*
X4074825Y-15031722D02*
X4065301Y-15012674D01*
X4065301Y-15012674D02*
X4046253Y-15003150D01*
X4046253Y-15003150D02*
X4017682Y-15003150D01*
X4017682Y-15003150D02*
X3998634Y-15012674D01*
X3998634Y-15012674D02*
X3989110Y-15022198D01*
X4198634Y-15136484D02*
X4179587Y-15126960D01*
X4179587Y-15126960D02*
X4170063Y-15117436D01*
X4170063Y-15117436D02*
X4160539Y-15098388D01*
X4160539Y-15098388D02*
X4160539Y-15041246D01*
X4160539Y-15041246D02*
X4170063Y-15022198D01*
X4170063Y-15022198D02*
X4179587Y-15012674D01*
X4179587Y-15012674D02*
X4198634Y-15003150D01*
X4198634Y-15003150D02*
X4227206Y-15003150D01*
X4227206Y-15003150D02*
X4246253Y-15012674D01*
X4246253Y-15012674D02*
X4255777Y-15022198D01*
X4255777Y-15022198D02*
X4265301Y-15041246D01*
X4265301Y-15041246D02*
X4265301Y-15098388D01*
X4265301Y-15098388D02*
X4255777Y-15117436D01*
X4255777Y-15117436D02*
X4246253Y-15126960D01*
X4246253Y-15126960D02*
X4227206Y-15136484D01*
X4227206Y-15136484D02*
X4198634Y-15136484D01*
X4379587Y-15136484D02*
X4360539Y-15126960D01*
X4360539Y-15126960D02*
X4351015Y-15107912D01*
X4351015Y-15107912D02*
X4351015Y-14936484D01*
X4531968Y-15126960D02*
X4512920Y-15136484D01*
X4512920Y-15136484D02*
X4474825Y-15136484D01*
X4474825Y-15136484D02*
X4455777Y-15126960D01*
X4455777Y-15126960D02*
X4446253Y-15107912D01*
X4446253Y-15107912D02*
X4446253Y-15031722D01*
X4446253Y-15031722D02*
X4455777Y-15012674D01*
X4455777Y-15012674D02*
X4474825Y-15003150D01*
X4474825Y-15003150D02*
X4512920Y-15003150D01*
X4512920Y-15003150D02*
X4531968Y-15012674D01*
X4531968Y-15012674D02*
X4541492Y-15031722D01*
X4541492Y-15031722D02*
X4541492Y-15050769D01*
X4541492Y-15050769D02*
X4446253Y-15069817D01*
X4617682Y-15126960D02*
X4636730Y-15136484D01*
X4636730Y-15136484D02*
X4674825Y-15136484D01*
X4674825Y-15136484D02*
X4693873Y-15126960D01*
X4693873Y-15126960D02*
X4703396Y-15107912D01*
X4703396Y-15107912D02*
X4703396Y-15098388D01*
X4703396Y-15098388D02*
X4693873Y-15079341D01*
X4693873Y-15079341D02*
X4674825Y-15069817D01*
X4674825Y-15069817D02*
X4646253Y-15069817D01*
X4646253Y-15069817D02*
X4627206Y-15060293D01*
X4627206Y-15060293D02*
X4617682Y-15041246D01*
X4617682Y-15041246D02*
X4617682Y-15031722D01*
X4617682Y-15031722D02*
X4627206Y-15012674D01*
X4627206Y-15012674D02*
X4646253Y-15003150D01*
X4646253Y-15003150D02*
X4674825Y-15003150D01*
X4674825Y-15003150D02*
X4693873Y-15012674D01*
X4770063Y-15212674D02*
X4779587Y-15203150D01*
X4779587Y-15203150D02*
X4798634Y-15174579D01*
X4798634Y-15174579D02*
X4808158Y-15155531D01*
X4808158Y-15155531D02*
X4817682Y-15126960D01*
X4817682Y-15126960D02*
X4827206Y-15079341D01*
X4827206Y-15079341D02*
X4827206Y-15041246D01*
X4827206Y-15041246D02*
X4817682Y-14993627D01*
X4817682Y-14993627D02*
X4808158Y-14965055D01*
X4808158Y-14965055D02*
X4798634Y-14946008D01*
X4798634Y-14946008D02*
X4779587Y-14917436D01*
X4779587Y-14917436D02*
X4770063Y-14907912D01*
D10*
X-5000Y-15309000D02*
G75*
G02*
X-85000Y-15309000I-40000J0D01*
G01*
X-85000Y-15309000D02*
G75*
G02*
X-5000Y-15309000I40000J0D01*
G01*
D12*
X293872Y-15200484D02*
X312920Y-15200484D01*
X312920Y-15200484D02*
X331967Y-15210008D01*
X331967Y-15210008D02*
X341491Y-15219531D01*
X341491Y-15219531D02*
X351015Y-15238579D01*
X351015Y-15238579D02*
X360539Y-15276674D01*
X360539Y-15276674D02*
X360539Y-15324293D01*
X360539Y-15324293D02*
X351015Y-15362388D01*
X351015Y-15362388D02*
X341491Y-15381436D01*
X341491Y-15381436D02*
X331967Y-15390960D01*
X331967Y-15390960D02*
X312920Y-15400484D01*
X312920Y-15400484D02*
X293872Y-15400484D01*
X293872Y-15400484D02*
X274824Y-15390960D01*
X274824Y-15390960D02*
X265301Y-15381436D01*
X265301Y-15381436D02*
X255777Y-15362388D01*
X255777Y-15362388D02*
X246253Y-15324293D01*
X246253Y-15324293D02*
X246253Y-15276674D01*
X246253Y-15276674D02*
X255777Y-15238579D01*
X255777Y-15238579D02*
X265301Y-15219531D01*
X265301Y-15219531D02*
X274824Y-15210008D01*
X274824Y-15210008D02*
X293872Y-15200484D01*
X446253Y-15381436D02*
X455777Y-15390960D01*
X455777Y-15390960D02*
X446253Y-15400484D01*
X446253Y-15400484D02*
X436729Y-15390960D01*
X436729Y-15390960D02*
X446253Y-15381436D01*
X446253Y-15381436D02*
X446253Y-15400484D01*
X570063Y-15286198D02*
X551015Y-15276674D01*
X551015Y-15276674D02*
X541491Y-15267150D01*
X541491Y-15267150D02*
X531967Y-15248103D01*
X531967Y-15248103D02*
X531967Y-15238579D01*
X531967Y-15238579D02*
X541491Y-15219531D01*
X541491Y-15219531D02*
X551015Y-15210008D01*
X551015Y-15210008D02*
X570063Y-15200484D01*
X570063Y-15200484D02*
X608158Y-15200484D01*
X608158Y-15200484D02*
X627205Y-15210008D01*
X627205Y-15210008D02*
X636729Y-15219531D01*
X636729Y-15219531D02*
X646253Y-15238579D01*
X646253Y-15238579D02*
X646253Y-15248103D01*
X646253Y-15248103D02*
X636729Y-15267150D01*
X636729Y-15267150D02*
X627205Y-15276674D01*
X627205Y-15276674D02*
X608158Y-15286198D01*
X608158Y-15286198D02*
X570063Y-15286198D01*
X570063Y-15286198D02*
X551015Y-15295722D01*
X551015Y-15295722D02*
X541491Y-15305246D01*
X541491Y-15305246D02*
X531967Y-15324293D01*
X531967Y-15324293D02*
X531967Y-15362388D01*
X531967Y-15362388D02*
X541491Y-15381436D01*
X541491Y-15381436D02*
X551015Y-15390960D01*
X551015Y-15390960D02*
X570063Y-15400484D01*
X570063Y-15400484D02*
X608158Y-15400484D01*
X608158Y-15400484D02*
X627205Y-15390960D01*
X627205Y-15390960D02*
X636729Y-15381436D01*
X636729Y-15381436D02*
X646253Y-15362388D01*
X646253Y-15362388D02*
X646253Y-15324293D01*
X646253Y-15324293D02*
X636729Y-15305246D01*
X636729Y-15305246D02*
X627205Y-15295722D01*
X627205Y-15295722D02*
X608158Y-15286198D01*
X770062Y-15200484D02*
X789110Y-15200484D01*
X789110Y-15200484D02*
X808158Y-15210008D01*
X808158Y-15210008D02*
X817682Y-15219531D01*
X817682Y-15219531D02*
X827205Y-15238579D01*
X827205Y-15238579D02*
X836729Y-15276674D01*
X836729Y-15276674D02*
X836729Y-15324293D01*
X836729Y-15324293D02*
X827205Y-15362388D01*
X827205Y-15362388D02*
X817682Y-15381436D01*
X817682Y-15381436D02*
X808158Y-15390960D01*
X808158Y-15390960D02*
X789110Y-15400484D01*
X789110Y-15400484D02*
X770062Y-15400484D01*
X770062Y-15400484D02*
X751015Y-15390960D01*
X751015Y-15390960D02*
X741491Y-15381436D01*
X741491Y-15381436D02*
X731967Y-15362388D01*
X731967Y-15362388D02*
X722443Y-15324293D01*
X722443Y-15324293D02*
X722443Y-15276674D01*
X722443Y-15276674D02*
X731967Y-15238579D01*
X731967Y-15238579D02*
X741491Y-15219531D01*
X741491Y-15219531D02*
X751015Y-15210008D01*
X751015Y-15210008D02*
X770062Y-15200484D01*
X960539Y-15200484D02*
X979586Y-15200484D01*
X979586Y-15200484D02*
X998634Y-15210008D01*
X998634Y-15210008D02*
X1008158Y-15219531D01*
X1008158Y-15219531D02*
X1017682Y-15238579D01*
X1017682Y-15238579D02*
X1027205Y-15276674D01*
X1027205Y-15276674D02*
X1027205Y-15324293D01*
X1027205Y-15324293D02*
X1017682Y-15362388D01*
X1017682Y-15362388D02*
X1008158Y-15381436D01*
X1008158Y-15381436D02*
X998634Y-15390960D01*
X998634Y-15390960D02*
X979586Y-15400484D01*
X979586Y-15400484D02*
X960539Y-15400484D01*
X960539Y-15400484D02*
X941491Y-15390960D01*
X941491Y-15390960D02*
X931967Y-15381436D01*
X931967Y-15381436D02*
X922443Y-15362388D01*
X922443Y-15362388D02*
X912920Y-15324293D01*
X912920Y-15324293D02*
X912920Y-15276674D01*
X912920Y-15276674D02*
X922443Y-15238579D01*
X922443Y-15238579D02*
X931967Y-15219531D01*
X931967Y-15219531D02*
X941491Y-15210008D01*
X941491Y-15210008D02*
X960539Y-15200484D01*
X1112920Y-15400484D02*
X1112920Y-15267150D01*
X1112920Y-15286198D02*
X1122444Y-15276674D01*
X1122444Y-15276674D02*
X1141491Y-15267150D01*
X1141491Y-15267150D02*
X1170063Y-15267150D01*
X1170063Y-15267150D02*
X1189110Y-15276674D01*
X1189110Y-15276674D02*
X1198634Y-15295722D01*
X1198634Y-15295722D02*
X1198634Y-15400484D01*
X1198634Y-15295722D02*
X1208158Y-15276674D01*
X1208158Y-15276674D02*
X1227205Y-15267150D01*
X1227205Y-15267150D02*
X1255777Y-15267150D01*
X1255777Y-15267150D02*
X1274825Y-15276674D01*
X1274825Y-15276674D02*
X1284348Y-15295722D01*
X1284348Y-15295722D02*
X1284348Y-15400484D01*
X1379586Y-15400484D02*
X1379586Y-15267150D01*
X1379586Y-15286198D02*
X1389110Y-15276674D01*
X1389110Y-15276674D02*
X1408158Y-15267150D01*
X1408158Y-15267150D02*
X1436729Y-15267150D01*
X1436729Y-15267150D02*
X1455777Y-15276674D01*
X1455777Y-15276674D02*
X1465301Y-15295722D01*
X1465301Y-15295722D02*
X1465301Y-15400484D01*
X1465301Y-15295722D02*
X1474824Y-15276674D01*
X1474824Y-15276674D02*
X1493872Y-15267150D01*
X1493872Y-15267150D02*
X1522443Y-15267150D01*
X1522443Y-15267150D02*
X1541491Y-15276674D01*
X1541491Y-15276674D02*
X1551015Y-15295722D01*
X1551015Y-15295722D02*
X1551015Y-15400484D01*
X1941491Y-15190960D02*
X1770063Y-15448103D01*
X2198634Y-15200484D02*
X2217682Y-15200484D01*
X2217682Y-15200484D02*
X2236729Y-15210008D01*
X2236729Y-15210008D02*
X2246253Y-15219531D01*
X2246253Y-15219531D02*
X2255777Y-15238579D01*
X2255777Y-15238579D02*
X2265301Y-15276674D01*
X2265301Y-15276674D02*
X2265301Y-15324293D01*
X2265301Y-15324293D02*
X2255777Y-15362388D01*
X2255777Y-15362388D02*
X2246253Y-15381436D01*
X2246253Y-15381436D02*
X2236729Y-15390960D01*
X2236729Y-15390960D02*
X2217682Y-15400484D01*
X2217682Y-15400484D02*
X2198634Y-15400484D01*
X2198634Y-15400484D02*
X2179587Y-15390960D01*
X2179587Y-15390960D02*
X2170063Y-15381436D01*
X2170063Y-15381436D02*
X2160539Y-15362388D01*
X2160539Y-15362388D02*
X2151015Y-15324293D01*
X2151015Y-15324293D02*
X2151015Y-15276674D01*
X2151015Y-15276674D02*
X2160539Y-15238579D01*
X2160539Y-15238579D02*
X2170063Y-15219531D01*
X2170063Y-15219531D02*
X2179587Y-15210008D01*
X2179587Y-15210008D02*
X2198634Y-15200484D01*
X2351015Y-15381436D02*
X2360539Y-15390960D01*
X2360539Y-15390960D02*
X2351015Y-15400484D01*
X2351015Y-15400484D02*
X2341491Y-15390960D01*
X2341491Y-15390960D02*
X2351015Y-15381436D01*
X2351015Y-15381436D02*
X2351015Y-15400484D01*
X2484348Y-15200484D02*
X2503396Y-15200484D01*
X2503396Y-15200484D02*
X2522444Y-15210008D01*
X2522444Y-15210008D02*
X2531968Y-15219531D01*
X2531968Y-15219531D02*
X2541491Y-15238579D01*
X2541491Y-15238579D02*
X2551015Y-15276674D01*
X2551015Y-15276674D02*
X2551015Y-15324293D01*
X2551015Y-15324293D02*
X2541491Y-15362388D01*
X2541491Y-15362388D02*
X2531968Y-15381436D01*
X2531968Y-15381436D02*
X2522444Y-15390960D01*
X2522444Y-15390960D02*
X2503396Y-15400484D01*
X2503396Y-15400484D02*
X2484348Y-15400484D01*
X2484348Y-15400484D02*
X2465301Y-15390960D01*
X2465301Y-15390960D02*
X2455777Y-15381436D01*
X2455777Y-15381436D02*
X2446253Y-15362388D01*
X2446253Y-15362388D02*
X2436729Y-15324293D01*
X2436729Y-15324293D02*
X2436729Y-15276674D01*
X2436729Y-15276674D02*
X2446253Y-15238579D01*
X2446253Y-15238579D02*
X2455777Y-15219531D01*
X2455777Y-15219531D02*
X2465301Y-15210008D01*
X2465301Y-15210008D02*
X2484348Y-15200484D01*
X2617682Y-15200484D02*
X2741491Y-15200484D01*
X2741491Y-15200484D02*
X2674825Y-15276674D01*
X2674825Y-15276674D02*
X2703396Y-15276674D01*
X2703396Y-15276674D02*
X2722444Y-15286198D01*
X2722444Y-15286198D02*
X2731968Y-15295722D01*
X2731968Y-15295722D02*
X2741491Y-15314769D01*
X2741491Y-15314769D02*
X2741491Y-15362388D01*
X2741491Y-15362388D02*
X2731968Y-15381436D01*
X2731968Y-15381436D02*
X2722444Y-15390960D01*
X2722444Y-15390960D02*
X2703396Y-15400484D01*
X2703396Y-15400484D02*
X2646253Y-15400484D01*
X2646253Y-15400484D02*
X2627206Y-15390960D01*
X2627206Y-15390960D02*
X2617682Y-15381436D01*
X2931967Y-15400484D02*
X2817682Y-15400484D01*
X2874825Y-15400484D02*
X2874825Y-15200484D01*
X2874825Y-15200484D02*
X2855777Y-15229055D01*
X2855777Y-15229055D02*
X2836729Y-15248103D01*
X2836729Y-15248103D02*
X2817682Y-15257627D01*
X3112920Y-15200484D02*
X3017682Y-15200484D01*
X3017682Y-15200484D02*
X3008158Y-15295722D01*
X3008158Y-15295722D02*
X3017682Y-15286198D01*
X3017682Y-15286198D02*
X3036729Y-15276674D01*
X3036729Y-15276674D02*
X3084348Y-15276674D01*
X3084348Y-15276674D02*
X3103396Y-15286198D01*
X3103396Y-15286198D02*
X3112920Y-15295722D01*
X3112920Y-15295722D02*
X3122444Y-15314769D01*
X3122444Y-15314769D02*
X3122444Y-15362388D01*
X3122444Y-15362388D02*
X3112920Y-15381436D01*
X3112920Y-15381436D02*
X3103396Y-15390960D01*
X3103396Y-15390960D02*
X3084348Y-15400484D01*
X3084348Y-15400484D02*
X3036729Y-15400484D01*
X3036729Y-15400484D02*
X3017682Y-15390960D01*
X3017682Y-15390960D02*
X3008158Y-15381436D01*
X3198634Y-15200484D02*
X3198634Y-15238579D01*
X3274825Y-15200484D02*
X3274825Y-15238579D01*
X3570063Y-15476674D02*
X3560539Y-15467150D01*
X3560539Y-15467150D02*
X3541491Y-15438579D01*
X3541491Y-15438579D02*
X3531968Y-15419531D01*
X3531968Y-15419531D02*
X3522444Y-15390960D01*
X3522444Y-15390960D02*
X3512920Y-15343341D01*
X3512920Y-15343341D02*
X3512920Y-15305246D01*
X3512920Y-15305246D02*
X3522444Y-15257627D01*
X3522444Y-15257627D02*
X3531968Y-15229055D01*
X3531968Y-15229055D02*
X3541491Y-15210008D01*
X3541491Y-15210008D02*
X3560539Y-15181436D01*
X3560539Y-15181436D02*
X3570063Y-15171912D01*
X3674825Y-15286198D02*
X3655777Y-15276674D01*
X3655777Y-15276674D02*
X3646253Y-15267150D01*
X3646253Y-15267150D02*
X3636729Y-15248103D01*
X3636729Y-15248103D02*
X3636729Y-15238579D01*
X3636729Y-15238579D02*
X3646253Y-15219531D01*
X3646253Y-15219531D02*
X3655777Y-15210008D01*
X3655777Y-15210008D02*
X3674825Y-15200484D01*
X3674825Y-15200484D02*
X3712920Y-15200484D01*
X3712920Y-15200484D02*
X3731968Y-15210008D01*
X3731968Y-15210008D02*
X3741491Y-15219531D01*
X3741491Y-15219531D02*
X3751015Y-15238579D01*
X3751015Y-15238579D02*
X3751015Y-15248103D01*
X3751015Y-15248103D02*
X3741491Y-15267150D01*
X3741491Y-15267150D02*
X3731968Y-15276674D01*
X3731968Y-15276674D02*
X3712920Y-15286198D01*
X3712920Y-15286198D02*
X3674825Y-15286198D01*
X3674825Y-15286198D02*
X3655777Y-15295722D01*
X3655777Y-15295722D02*
X3646253Y-15305246D01*
X3646253Y-15305246D02*
X3636729Y-15324293D01*
X3636729Y-15324293D02*
X3636729Y-15362388D01*
X3636729Y-15362388D02*
X3646253Y-15381436D01*
X3646253Y-15381436D02*
X3655777Y-15390960D01*
X3655777Y-15390960D02*
X3674825Y-15400484D01*
X3674825Y-15400484D02*
X3712920Y-15400484D01*
X3712920Y-15400484D02*
X3731968Y-15390960D01*
X3731968Y-15390960D02*
X3741491Y-15381436D01*
X3741491Y-15381436D02*
X3751015Y-15362388D01*
X3751015Y-15362388D02*
X3751015Y-15324293D01*
X3751015Y-15324293D02*
X3741491Y-15305246D01*
X3741491Y-15305246D02*
X3731968Y-15295722D01*
X3731968Y-15295722D02*
X3712920Y-15286198D01*
X3827206Y-15219531D02*
X3836729Y-15210008D01*
X3836729Y-15210008D02*
X3855777Y-15200484D01*
X3855777Y-15200484D02*
X3903396Y-15200484D01*
X3903396Y-15200484D02*
X3922444Y-15210008D01*
X3922444Y-15210008D02*
X3931968Y-15219531D01*
X3931968Y-15219531D02*
X3941491Y-15238579D01*
X3941491Y-15238579D02*
X3941491Y-15257627D01*
X3941491Y-15257627D02*
X3931968Y-15286198D01*
X3931968Y-15286198D02*
X3817682Y-15400484D01*
X3817682Y-15400484D02*
X3941491Y-15400484D01*
X4179587Y-15400484D02*
X4179587Y-15200484D01*
X4265301Y-15400484D02*
X4265301Y-15295722D01*
X4265301Y-15295722D02*
X4255777Y-15276674D01*
X4255777Y-15276674D02*
X4236730Y-15267150D01*
X4236730Y-15267150D02*
X4208158Y-15267150D01*
X4208158Y-15267150D02*
X4189110Y-15276674D01*
X4189110Y-15276674D02*
X4179587Y-15286198D01*
X4389111Y-15400484D02*
X4370063Y-15390960D01*
X4370063Y-15390960D02*
X4360539Y-15381436D01*
X4360539Y-15381436D02*
X4351015Y-15362388D01*
X4351015Y-15362388D02*
X4351015Y-15305246D01*
X4351015Y-15305246D02*
X4360539Y-15286198D01*
X4360539Y-15286198D02*
X4370063Y-15276674D01*
X4370063Y-15276674D02*
X4389111Y-15267150D01*
X4389111Y-15267150D02*
X4417682Y-15267150D01*
X4417682Y-15267150D02*
X4436730Y-15276674D01*
X4436730Y-15276674D02*
X4446253Y-15286198D01*
X4446253Y-15286198D02*
X4455777Y-15305246D01*
X4455777Y-15305246D02*
X4455777Y-15362388D01*
X4455777Y-15362388D02*
X4446253Y-15381436D01*
X4446253Y-15381436D02*
X4436730Y-15390960D01*
X4436730Y-15390960D02*
X4417682Y-15400484D01*
X4417682Y-15400484D02*
X4389111Y-15400484D01*
X4570063Y-15400484D02*
X4551015Y-15390960D01*
X4551015Y-15390960D02*
X4541492Y-15371912D01*
X4541492Y-15371912D02*
X4541492Y-15200484D01*
X4722444Y-15390960D02*
X4703396Y-15400484D01*
X4703396Y-15400484D02*
X4665301Y-15400484D01*
X4665301Y-15400484D02*
X4646253Y-15390960D01*
X4646253Y-15390960D02*
X4636730Y-15371912D01*
X4636730Y-15371912D02*
X4636730Y-15295722D01*
X4636730Y-15295722D02*
X4646253Y-15276674D01*
X4646253Y-15276674D02*
X4665301Y-15267150D01*
X4665301Y-15267150D02*
X4703396Y-15267150D01*
X4703396Y-15267150D02*
X4722444Y-15276674D01*
X4722444Y-15276674D02*
X4731968Y-15295722D01*
X4731968Y-15295722D02*
X4731968Y-15314769D01*
X4731968Y-15314769D02*
X4636730Y-15333817D01*
X4808158Y-15390960D02*
X4827206Y-15400484D01*
X4827206Y-15400484D02*
X4865301Y-15400484D01*
X4865301Y-15400484D02*
X4884349Y-15390960D01*
X4884349Y-15390960D02*
X4893873Y-15371912D01*
X4893873Y-15371912D02*
X4893873Y-15362388D01*
X4893873Y-15362388D02*
X4884349Y-15343341D01*
X4884349Y-15343341D02*
X4865301Y-15333817D01*
X4865301Y-15333817D02*
X4836730Y-15333817D01*
X4836730Y-15333817D02*
X4817682Y-15324293D01*
X4817682Y-15324293D02*
X4808158Y-15305246D01*
X4808158Y-15305246D02*
X4808158Y-15295722D01*
X4808158Y-15295722D02*
X4817682Y-15276674D01*
X4817682Y-15276674D02*
X4836730Y-15267150D01*
X4836730Y-15267150D02*
X4865301Y-15267150D01*
X4865301Y-15267150D02*
X4884349Y-15276674D01*
X4960539Y-15476674D02*
X4970063Y-15467150D01*
X4970063Y-15467150D02*
X4989111Y-15438579D01*
X4989111Y-15438579D02*
X4998634Y-15419531D01*
X4998634Y-15419531D02*
X5008158Y-15390960D01*
X5008158Y-15390960D02*
X5017682Y-15343341D01*
X5017682Y-15343341D02*
X5017682Y-15305246D01*
X5017682Y-15305246D02*
X5008158Y-15257627D01*
X5008158Y-15257627D02*
X4998634Y-15229055D01*
X4998634Y-15229055D02*
X4989111Y-15210008D01*
X4989111Y-15210008D02*
X4970063Y-15181436D01*
X4970063Y-15181436D02*
X4960539Y-15171912D01*
D13*
X-56000Y-15522000D02*
X-56000Y-15624000D01*
X-107000Y-15573000D02*
X-5000Y-15573000D01*
D12*
X360539Y-15664484D02*
X246253Y-15664484D01*
X303396Y-15664484D02*
X303396Y-15464484D01*
X303396Y-15464484D02*
X284348Y-15493055D01*
X284348Y-15493055D02*
X265301Y-15512103D01*
X265301Y-15512103D02*
X246253Y-15521627D01*
X446253Y-15645436D02*
X455777Y-15654960D01*
X455777Y-15654960D02*
X446253Y-15664484D01*
X446253Y-15664484D02*
X436729Y-15654960D01*
X436729Y-15654960D02*
X446253Y-15645436D01*
X446253Y-15645436D02*
X446253Y-15664484D01*
X579586Y-15464484D02*
X598634Y-15464484D01*
X598634Y-15464484D02*
X617682Y-15474008D01*
X617682Y-15474008D02*
X627205Y-15483531D01*
X627205Y-15483531D02*
X636729Y-15502579D01*
X636729Y-15502579D02*
X646253Y-15540674D01*
X646253Y-15540674D02*
X646253Y-15588293D01*
X646253Y-15588293D02*
X636729Y-15626388D01*
X636729Y-15626388D02*
X627205Y-15645436D01*
X627205Y-15645436D02*
X617682Y-15654960D01*
X617682Y-15654960D02*
X598634Y-15664484D01*
X598634Y-15664484D02*
X579586Y-15664484D01*
X579586Y-15664484D02*
X560539Y-15654960D01*
X560539Y-15654960D02*
X551015Y-15645436D01*
X551015Y-15645436D02*
X541491Y-15626388D01*
X541491Y-15626388D02*
X531967Y-15588293D01*
X531967Y-15588293D02*
X531967Y-15540674D01*
X531967Y-15540674D02*
X541491Y-15502579D01*
X541491Y-15502579D02*
X551015Y-15483531D01*
X551015Y-15483531D02*
X560539Y-15474008D01*
X560539Y-15474008D02*
X579586Y-15464484D01*
X722443Y-15483531D02*
X731967Y-15474008D01*
X731967Y-15474008D02*
X751015Y-15464484D01*
X751015Y-15464484D02*
X798634Y-15464484D01*
X798634Y-15464484D02*
X817682Y-15474008D01*
X817682Y-15474008D02*
X827205Y-15483531D01*
X827205Y-15483531D02*
X836729Y-15502579D01*
X836729Y-15502579D02*
X836729Y-15521627D01*
X836729Y-15521627D02*
X827205Y-15550198D01*
X827205Y-15550198D02*
X712920Y-15664484D01*
X712920Y-15664484D02*
X836729Y-15664484D01*
X960539Y-15464484D02*
X979586Y-15464484D01*
X979586Y-15464484D02*
X998634Y-15474008D01*
X998634Y-15474008D02*
X1008158Y-15483531D01*
X1008158Y-15483531D02*
X1017682Y-15502579D01*
X1017682Y-15502579D02*
X1027205Y-15540674D01*
X1027205Y-15540674D02*
X1027205Y-15588293D01*
X1027205Y-15588293D02*
X1017682Y-15626388D01*
X1017682Y-15626388D02*
X1008158Y-15645436D01*
X1008158Y-15645436D02*
X998634Y-15654960D01*
X998634Y-15654960D02*
X979586Y-15664484D01*
X979586Y-15664484D02*
X960539Y-15664484D01*
X960539Y-15664484D02*
X941491Y-15654960D01*
X941491Y-15654960D02*
X931967Y-15645436D01*
X931967Y-15645436D02*
X922443Y-15626388D01*
X922443Y-15626388D02*
X912920Y-15588293D01*
X912920Y-15588293D02*
X912920Y-15540674D01*
X912920Y-15540674D02*
X922443Y-15502579D01*
X922443Y-15502579D02*
X931967Y-15483531D01*
X931967Y-15483531D02*
X941491Y-15474008D01*
X941491Y-15474008D02*
X960539Y-15464484D01*
X1112920Y-15664484D02*
X1112920Y-15531150D01*
X1112920Y-15550198D02*
X1122444Y-15540674D01*
X1122444Y-15540674D02*
X1141491Y-15531150D01*
X1141491Y-15531150D02*
X1170063Y-15531150D01*
X1170063Y-15531150D02*
X1189110Y-15540674D01*
X1189110Y-15540674D02*
X1198634Y-15559722D01*
X1198634Y-15559722D02*
X1198634Y-15664484D01*
X1198634Y-15559722D02*
X1208158Y-15540674D01*
X1208158Y-15540674D02*
X1227205Y-15531150D01*
X1227205Y-15531150D02*
X1255777Y-15531150D01*
X1255777Y-15531150D02*
X1274825Y-15540674D01*
X1274825Y-15540674D02*
X1284348Y-15559722D01*
X1284348Y-15559722D02*
X1284348Y-15664484D01*
X1379586Y-15664484D02*
X1379586Y-15531150D01*
X1379586Y-15550198D02*
X1389110Y-15540674D01*
X1389110Y-15540674D02*
X1408158Y-15531150D01*
X1408158Y-15531150D02*
X1436729Y-15531150D01*
X1436729Y-15531150D02*
X1455777Y-15540674D01*
X1455777Y-15540674D02*
X1465301Y-15559722D01*
X1465301Y-15559722D02*
X1465301Y-15664484D01*
X1465301Y-15559722D02*
X1474824Y-15540674D01*
X1474824Y-15540674D02*
X1493872Y-15531150D01*
X1493872Y-15531150D02*
X1522443Y-15531150D01*
X1522443Y-15531150D02*
X1541491Y-15540674D01*
X1541491Y-15540674D02*
X1551015Y-15559722D01*
X1551015Y-15559722D02*
X1551015Y-15664484D01*
X1941491Y-15454960D02*
X1770063Y-15712103D01*
X2198634Y-15464484D02*
X2217682Y-15464484D01*
X2217682Y-15464484D02*
X2236729Y-15474008D01*
X2236729Y-15474008D02*
X2246253Y-15483531D01*
X2246253Y-15483531D02*
X2255777Y-15502579D01*
X2255777Y-15502579D02*
X2265301Y-15540674D01*
X2265301Y-15540674D02*
X2265301Y-15588293D01*
X2265301Y-15588293D02*
X2255777Y-15626388D01*
X2255777Y-15626388D02*
X2246253Y-15645436D01*
X2246253Y-15645436D02*
X2236729Y-15654960D01*
X2236729Y-15654960D02*
X2217682Y-15664484D01*
X2217682Y-15664484D02*
X2198634Y-15664484D01*
X2198634Y-15664484D02*
X2179587Y-15654960D01*
X2179587Y-15654960D02*
X2170063Y-15645436D01*
X2170063Y-15645436D02*
X2160539Y-15626388D01*
X2160539Y-15626388D02*
X2151015Y-15588293D01*
X2151015Y-15588293D02*
X2151015Y-15540674D01*
X2151015Y-15540674D02*
X2160539Y-15502579D01*
X2160539Y-15502579D02*
X2170063Y-15483531D01*
X2170063Y-15483531D02*
X2179587Y-15474008D01*
X2179587Y-15474008D02*
X2198634Y-15464484D01*
X2351015Y-15645436D02*
X2360539Y-15654960D01*
X2360539Y-15654960D02*
X2351015Y-15664484D01*
X2351015Y-15664484D02*
X2341491Y-15654960D01*
X2341491Y-15654960D02*
X2351015Y-15645436D01*
X2351015Y-15645436D02*
X2351015Y-15664484D01*
X2484348Y-15464484D02*
X2503396Y-15464484D01*
X2503396Y-15464484D02*
X2522444Y-15474008D01*
X2522444Y-15474008D02*
X2531968Y-15483531D01*
X2531968Y-15483531D02*
X2541491Y-15502579D01*
X2541491Y-15502579D02*
X2551015Y-15540674D01*
X2551015Y-15540674D02*
X2551015Y-15588293D01*
X2551015Y-15588293D02*
X2541491Y-15626388D01*
X2541491Y-15626388D02*
X2531968Y-15645436D01*
X2531968Y-15645436D02*
X2522444Y-15654960D01*
X2522444Y-15654960D02*
X2503396Y-15664484D01*
X2503396Y-15664484D02*
X2484348Y-15664484D01*
X2484348Y-15664484D02*
X2465301Y-15654960D01*
X2465301Y-15654960D02*
X2455777Y-15645436D01*
X2455777Y-15645436D02*
X2446253Y-15626388D01*
X2446253Y-15626388D02*
X2436729Y-15588293D01*
X2436729Y-15588293D02*
X2436729Y-15540674D01*
X2436729Y-15540674D02*
X2446253Y-15502579D01*
X2446253Y-15502579D02*
X2455777Y-15483531D01*
X2455777Y-15483531D02*
X2465301Y-15474008D01*
X2465301Y-15474008D02*
X2484348Y-15464484D01*
X2722444Y-15531150D02*
X2722444Y-15664484D01*
X2674825Y-15454960D02*
X2627206Y-15597817D01*
X2627206Y-15597817D02*
X2751015Y-15597817D01*
X2865301Y-15464484D02*
X2884348Y-15464484D01*
X2884348Y-15464484D02*
X2903396Y-15474008D01*
X2903396Y-15474008D02*
X2912920Y-15483531D01*
X2912920Y-15483531D02*
X2922444Y-15502579D01*
X2922444Y-15502579D02*
X2931967Y-15540674D01*
X2931967Y-15540674D02*
X2931967Y-15588293D01*
X2931967Y-15588293D02*
X2922444Y-15626388D01*
X2922444Y-15626388D02*
X2912920Y-15645436D01*
X2912920Y-15645436D02*
X2903396Y-15654960D01*
X2903396Y-15654960D02*
X2884348Y-15664484D01*
X2884348Y-15664484D02*
X2865301Y-15664484D01*
X2865301Y-15664484D02*
X2846253Y-15654960D01*
X2846253Y-15654960D02*
X2836729Y-15645436D01*
X2836729Y-15645436D02*
X2827206Y-15626388D01*
X2827206Y-15626388D02*
X2817682Y-15588293D01*
X2817682Y-15588293D02*
X2817682Y-15540674D01*
X2817682Y-15540674D02*
X2827206Y-15502579D01*
X2827206Y-15502579D02*
X2836729Y-15483531D01*
X2836729Y-15483531D02*
X2846253Y-15474008D01*
X2846253Y-15474008D02*
X2865301Y-15464484D01*
X3008158Y-15483531D02*
X3017682Y-15474008D01*
X3017682Y-15474008D02*
X3036729Y-15464484D01*
X3036729Y-15464484D02*
X3084348Y-15464484D01*
X3084348Y-15464484D02*
X3103396Y-15474008D01*
X3103396Y-15474008D02*
X3112920Y-15483531D01*
X3112920Y-15483531D02*
X3122444Y-15502579D01*
X3122444Y-15502579D02*
X3122444Y-15521627D01*
X3122444Y-15521627D02*
X3112920Y-15550198D01*
X3112920Y-15550198D02*
X2998634Y-15664484D01*
X2998634Y-15664484D02*
X3122444Y-15664484D01*
X3198634Y-15464484D02*
X3198634Y-15502579D01*
X3274825Y-15464484D02*
X3274825Y-15502579D01*
X3570063Y-15740674D02*
X3560539Y-15731150D01*
X3560539Y-15731150D02*
X3541491Y-15702579D01*
X3541491Y-15702579D02*
X3531968Y-15683531D01*
X3531968Y-15683531D02*
X3522444Y-15654960D01*
X3522444Y-15654960D02*
X3512920Y-15607341D01*
X3512920Y-15607341D02*
X3512920Y-15569246D01*
X3512920Y-15569246D02*
X3522444Y-15521627D01*
X3522444Y-15521627D02*
X3531968Y-15493055D01*
X3531968Y-15493055D02*
X3541491Y-15474008D01*
X3541491Y-15474008D02*
X3560539Y-15445436D01*
X3560539Y-15445436D02*
X3570063Y-15435912D01*
X3741491Y-15464484D02*
X3646253Y-15464484D01*
X3646253Y-15464484D02*
X3636729Y-15559722D01*
X3636729Y-15559722D02*
X3646253Y-15550198D01*
X3646253Y-15550198D02*
X3665301Y-15540674D01*
X3665301Y-15540674D02*
X3712920Y-15540674D01*
X3712920Y-15540674D02*
X3731968Y-15550198D01*
X3731968Y-15550198D02*
X3741491Y-15559722D01*
X3741491Y-15559722D02*
X3751015Y-15578769D01*
X3751015Y-15578769D02*
X3751015Y-15626388D01*
X3751015Y-15626388D02*
X3741491Y-15645436D01*
X3741491Y-15645436D02*
X3731968Y-15654960D01*
X3731968Y-15654960D02*
X3712920Y-15664484D01*
X3712920Y-15664484D02*
X3665301Y-15664484D01*
X3665301Y-15664484D02*
X3646253Y-15654960D01*
X3646253Y-15654960D02*
X3636729Y-15645436D01*
X3989110Y-15664484D02*
X3989110Y-15464484D01*
X4074825Y-15664484D02*
X4074825Y-15559722D01*
X4074825Y-15559722D02*
X4065301Y-15540674D01*
X4065301Y-15540674D02*
X4046253Y-15531150D01*
X4046253Y-15531150D02*
X4017682Y-15531150D01*
X4017682Y-15531150D02*
X3998634Y-15540674D01*
X3998634Y-15540674D02*
X3989110Y-15550198D01*
X4198634Y-15664484D02*
X4179587Y-15654960D01*
X4179587Y-15654960D02*
X4170063Y-15645436D01*
X4170063Y-15645436D02*
X4160539Y-15626388D01*
X4160539Y-15626388D02*
X4160539Y-15569246D01*
X4160539Y-15569246D02*
X4170063Y-15550198D01*
X4170063Y-15550198D02*
X4179587Y-15540674D01*
X4179587Y-15540674D02*
X4198634Y-15531150D01*
X4198634Y-15531150D02*
X4227206Y-15531150D01*
X4227206Y-15531150D02*
X4246253Y-15540674D01*
X4246253Y-15540674D02*
X4255777Y-15550198D01*
X4255777Y-15550198D02*
X4265301Y-15569246D01*
X4265301Y-15569246D02*
X4265301Y-15626388D01*
X4265301Y-15626388D02*
X4255777Y-15645436D01*
X4255777Y-15645436D02*
X4246253Y-15654960D01*
X4246253Y-15654960D02*
X4227206Y-15664484D01*
X4227206Y-15664484D02*
X4198634Y-15664484D01*
X4379587Y-15664484D02*
X4360539Y-15654960D01*
X4360539Y-15654960D02*
X4351015Y-15635912D01*
X4351015Y-15635912D02*
X4351015Y-15464484D01*
X4531968Y-15654960D02*
X4512920Y-15664484D01*
X4512920Y-15664484D02*
X4474825Y-15664484D01*
X4474825Y-15664484D02*
X4455777Y-15654960D01*
X4455777Y-15654960D02*
X4446253Y-15635912D01*
X4446253Y-15635912D02*
X4446253Y-15559722D01*
X4446253Y-15559722D02*
X4455777Y-15540674D01*
X4455777Y-15540674D02*
X4474825Y-15531150D01*
X4474825Y-15531150D02*
X4512920Y-15531150D01*
X4512920Y-15531150D02*
X4531968Y-15540674D01*
X4531968Y-15540674D02*
X4541492Y-15559722D01*
X4541492Y-15559722D02*
X4541492Y-15578769D01*
X4541492Y-15578769D02*
X4446253Y-15597817D01*
X4617682Y-15654960D02*
X4636730Y-15664484D01*
X4636730Y-15664484D02*
X4674825Y-15664484D01*
X4674825Y-15664484D02*
X4693873Y-15654960D01*
X4693873Y-15654960D02*
X4703396Y-15635912D01*
X4703396Y-15635912D02*
X4703396Y-15626388D01*
X4703396Y-15626388D02*
X4693873Y-15607341D01*
X4693873Y-15607341D02*
X4674825Y-15597817D01*
X4674825Y-15597817D02*
X4646253Y-15597817D01*
X4646253Y-15597817D02*
X4627206Y-15588293D01*
X4627206Y-15588293D02*
X4617682Y-15569246D01*
X4617682Y-15569246D02*
X4617682Y-15559722D01*
X4617682Y-15559722D02*
X4627206Y-15540674D01*
X4627206Y-15540674D02*
X4646253Y-15531150D01*
X4646253Y-15531150D02*
X4674825Y-15531150D01*
X4674825Y-15531150D02*
X4693873Y-15540674D01*
X4770063Y-15740674D02*
X4779587Y-15731150D01*
X4779587Y-15731150D02*
X4798634Y-15702579D01*
X4798634Y-15702579D02*
X4808158Y-15683531D01*
X4808158Y-15683531D02*
X4817682Y-15654960D01*
X4817682Y-15654960D02*
X4827206Y-15607341D01*
X4827206Y-15607341D02*
X4827206Y-15569246D01*
X4827206Y-15569246D02*
X4817682Y-15521627D01*
X4817682Y-15521627D02*
X4808158Y-15493055D01*
X4808158Y-15493055D02*
X4798634Y-15474008D01*
X4798634Y-15474008D02*
X4779587Y-15445436D01*
X4779587Y-15445436D02*
X4770063Y-15435912D01*
D14*
X-28138Y-15892862D02*
X-28138Y-15781138D01*
X-139862Y-15781138D01*
X-139862Y-15892862D01*
X-28138Y-15892862D01*
D12*
X360539Y-15928484D02*
X246253Y-15928484D01*
X303396Y-15928484D02*
X303396Y-15728484D01*
X303396Y-15728484D02*
X284348Y-15757055D01*
X284348Y-15757055D02*
X265301Y-15776103D01*
X265301Y-15776103D02*
X246253Y-15785627D01*
X446253Y-15909436D02*
X455777Y-15918960D01*
X455777Y-15918960D02*
X446253Y-15928484D01*
X446253Y-15928484D02*
X436729Y-15918960D01*
X436729Y-15918960D02*
X446253Y-15909436D01*
X446253Y-15909436D02*
X446253Y-15928484D01*
X636729Y-15728484D02*
X541491Y-15728484D01*
X541491Y-15728484D02*
X531967Y-15823722D01*
X531967Y-15823722D02*
X541491Y-15814198D01*
X541491Y-15814198D02*
X560539Y-15804674D01*
X560539Y-15804674D02*
X608158Y-15804674D01*
X608158Y-15804674D02*
X627205Y-15814198D01*
X627205Y-15814198D02*
X636729Y-15823722D01*
X636729Y-15823722D02*
X646253Y-15842769D01*
X646253Y-15842769D02*
X646253Y-15890388D01*
X646253Y-15890388D02*
X636729Y-15909436D01*
X636729Y-15909436D02*
X627205Y-15918960D01*
X627205Y-15918960D02*
X608158Y-15928484D01*
X608158Y-15928484D02*
X560539Y-15928484D01*
X560539Y-15928484D02*
X541491Y-15918960D01*
X541491Y-15918960D02*
X531967Y-15909436D01*
X760539Y-15814198D02*
X741491Y-15804674D01*
X741491Y-15804674D02*
X731967Y-15795150D01*
X731967Y-15795150D02*
X722443Y-15776103D01*
X722443Y-15776103D02*
X722443Y-15766579D01*
X722443Y-15766579D02*
X731967Y-15747531D01*
X731967Y-15747531D02*
X741491Y-15738008D01*
X741491Y-15738008D02*
X760539Y-15728484D01*
X760539Y-15728484D02*
X798634Y-15728484D01*
X798634Y-15728484D02*
X817682Y-15738008D01*
X817682Y-15738008D02*
X827205Y-15747531D01*
X827205Y-15747531D02*
X836729Y-15766579D01*
X836729Y-15766579D02*
X836729Y-15776103D01*
X836729Y-15776103D02*
X827205Y-15795150D01*
X827205Y-15795150D02*
X817682Y-15804674D01*
X817682Y-15804674D02*
X798634Y-15814198D01*
X798634Y-15814198D02*
X760539Y-15814198D01*
X760539Y-15814198D02*
X741491Y-15823722D01*
X741491Y-15823722D02*
X731967Y-15833246D01*
X731967Y-15833246D02*
X722443Y-15852293D01*
X722443Y-15852293D02*
X722443Y-15890388D01*
X722443Y-15890388D02*
X731967Y-15909436D01*
X731967Y-15909436D02*
X741491Y-15918960D01*
X741491Y-15918960D02*
X760539Y-15928484D01*
X760539Y-15928484D02*
X798634Y-15928484D01*
X798634Y-15928484D02*
X817682Y-15918960D01*
X817682Y-15918960D02*
X827205Y-15909436D01*
X827205Y-15909436D02*
X836729Y-15890388D01*
X836729Y-15890388D02*
X836729Y-15852293D01*
X836729Y-15852293D02*
X827205Y-15833246D01*
X827205Y-15833246D02*
X817682Y-15823722D01*
X817682Y-15823722D02*
X798634Y-15814198D01*
X960539Y-15728484D02*
X979586Y-15728484D01*
X979586Y-15728484D02*
X998634Y-15738008D01*
X998634Y-15738008D02*
X1008158Y-15747531D01*
X1008158Y-15747531D02*
X1017682Y-15766579D01*
X1017682Y-15766579D02*
X1027205Y-15804674D01*
X1027205Y-15804674D02*
X1027205Y-15852293D01*
X1027205Y-15852293D02*
X1017682Y-15890388D01*
X1017682Y-15890388D02*
X1008158Y-15909436D01*
X1008158Y-15909436D02*
X998634Y-15918960D01*
X998634Y-15918960D02*
X979586Y-15928484D01*
X979586Y-15928484D02*
X960539Y-15928484D01*
X960539Y-15928484D02*
X941491Y-15918960D01*
X941491Y-15918960D02*
X931967Y-15909436D01*
X931967Y-15909436D02*
X922443Y-15890388D01*
X922443Y-15890388D02*
X912920Y-15852293D01*
X912920Y-15852293D02*
X912920Y-15804674D01*
X912920Y-15804674D02*
X922443Y-15766579D01*
X922443Y-15766579D02*
X931967Y-15747531D01*
X931967Y-15747531D02*
X941491Y-15738008D01*
X941491Y-15738008D02*
X960539Y-15728484D01*
X1112920Y-15928484D02*
X1112920Y-15795150D01*
X1112920Y-15814198D02*
X1122444Y-15804674D01*
X1122444Y-15804674D02*
X1141491Y-15795150D01*
X1141491Y-15795150D02*
X1170063Y-15795150D01*
X1170063Y-15795150D02*
X1189110Y-15804674D01*
X1189110Y-15804674D02*
X1198634Y-15823722D01*
X1198634Y-15823722D02*
X1198634Y-15928484D01*
X1198634Y-15823722D02*
X1208158Y-15804674D01*
X1208158Y-15804674D02*
X1227205Y-15795150D01*
X1227205Y-15795150D02*
X1255777Y-15795150D01*
X1255777Y-15795150D02*
X1274825Y-15804674D01*
X1274825Y-15804674D02*
X1284348Y-15823722D01*
X1284348Y-15823722D02*
X1284348Y-15928484D01*
X1379586Y-15928484D02*
X1379586Y-15795150D01*
X1379586Y-15814198D02*
X1389110Y-15804674D01*
X1389110Y-15804674D02*
X1408158Y-15795150D01*
X1408158Y-15795150D02*
X1436729Y-15795150D01*
X1436729Y-15795150D02*
X1455777Y-15804674D01*
X1455777Y-15804674D02*
X1465301Y-15823722D01*
X1465301Y-15823722D02*
X1465301Y-15928484D01*
X1465301Y-15823722D02*
X1474824Y-15804674D01*
X1474824Y-15804674D02*
X1493872Y-15795150D01*
X1493872Y-15795150D02*
X1522443Y-15795150D01*
X1522443Y-15795150D02*
X1541491Y-15804674D01*
X1541491Y-15804674D02*
X1551015Y-15823722D01*
X1551015Y-15823722D02*
X1551015Y-15928484D01*
X1941491Y-15718960D02*
X1770063Y-15976103D01*
X2198634Y-15728484D02*
X2217682Y-15728484D01*
X2217682Y-15728484D02*
X2236729Y-15738008D01*
X2236729Y-15738008D02*
X2246253Y-15747531D01*
X2246253Y-15747531D02*
X2255777Y-15766579D01*
X2255777Y-15766579D02*
X2265301Y-15804674D01*
X2265301Y-15804674D02*
X2265301Y-15852293D01*
X2265301Y-15852293D02*
X2255777Y-15890388D01*
X2255777Y-15890388D02*
X2246253Y-15909436D01*
X2246253Y-15909436D02*
X2236729Y-15918960D01*
X2236729Y-15918960D02*
X2217682Y-15928484D01*
X2217682Y-15928484D02*
X2198634Y-15928484D01*
X2198634Y-15928484D02*
X2179587Y-15918960D01*
X2179587Y-15918960D02*
X2170063Y-15909436D01*
X2170063Y-15909436D02*
X2160539Y-15890388D01*
X2160539Y-15890388D02*
X2151015Y-15852293D01*
X2151015Y-15852293D02*
X2151015Y-15804674D01*
X2151015Y-15804674D02*
X2160539Y-15766579D01*
X2160539Y-15766579D02*
X2170063Y-15747531D01*
X2170063Y-15747531D02*
X2179587Y-15738008D01*
X2179587Y-15738008D02*
X2198634Y-15728484D01*
X2351015Y-15909436D02*
X2360539Y-15918960D01*
X2360539Y-15918960D02*
X2351015Y-15928484D01*
X2351015Y-15928484D02*
X2341491Y-15918960D01*
X2341491Y-15918960D02*
X2351015Y-15909436D01*
X2351015Y-15909436D02*
X2351015Y-15928484D01*
X2484348Y-15728484D02*
X2503396Y-15728484D01*
X2503396Y-15728484D02*
X2522444Y-15738008D01*
X2522444Y-15738008D02*
X2531968Y-15747531D01*
X2531968Y-15747531D02*
X2541491Y-15766579D01*
X2541491Y-15766579D02*
X2551015Y-15804674D01*
X2551015Y-15804674D02*
X2551015Y-15852293D01*
X2551015Y-15852293D02*
X2541491Y-15890388D01*
X2541491Y-15890388D02*
X2531968Y-15909436D01*
X2531968Y-15909436D02*
X2522444Y-15918960D01*
X2522444Y-15918960D02*
X2503396Y-15928484D01*
X2503396Y-15928484D02*
X2484348Y-15928484D01*
X2484348Y-15928484D02*
X2465301Y-15918960D01*
X2465301Y-15918960D02*
X2455777Y-15909436D01*
X2455777Y-15909436D02*
X2446253Y-15890388D01*
X2446253Y-15890388D02*
X2436729Y-15852293D01*
X2436729Y-15852293D02*
X2436729Y-15804674D01*
X2436729Y-15804674D02*
X2446253Y-15766579D01*
X2446253Y-15766579D02*
X2455777Y-15747531D01*
X2455777Y-15747531D02*
X2465301Y-15738008D01*
X2465301Y-15738008D02*
X2484348Y-15728484D01*
X2722444Y-15728484D02*
X2684348Y-15728484D01*
X2684348Y-15728484D02*
X2665301Y-15738008D01*
X2665301Y-15738008D02*
X2655777Y-15747531D01*
X2655777Y-15747531D02*
X2636729Y-15776103D01*
X2636729Y-15776103D02*
X2627206Y-15814198D01*
X2627206Y-15814198D02*
X2627206Y-15890388D01*
X2627206Y-15890388D02*
X2636729Y-15909436D01*
X2636729Y-15909436D02*
X2646253Y-15918960D01*
X2646253Y-15918960D02*
X2665301Y-15928484D01*
X2665301Y-15928484D02*
X2703396Y-15928484D01*
X2703396Y-15928484D02*
X2722444Y-15918960D01*
X2722444Y-15918960D02*
X2731968Y-15909436D01*
X2731968Y-15909436D02*
X2741491Y-15890388D01*
X2741491Y-15890388D02*
X2741491Y-15842769D01*
X2741491Y-15842769D02*
X2731968Y-15823722D01*
X2731968Y-15823722D02*
X2722444Y-15814198D01*
X2722444Y-15814198D02*
X2703396Y-15804674D01*
X2703396Y-15804674D02*
X2665301Y-15804674D01*
X2665301Y-15804674D02*
X2646253Y-15814198D01*
X2646253Y-15814198D02*
X2636729Y-15823722D01*
X2636729Y-15823722D02*
X2627206Y-15842769D01*
X2817682Y-15747531D02*
X2827206Y-15738008D01*
X2827206Y-15738008D02*
X2846253Y-15728484D01*
X2846253Y-15728484D02*
X2893872Y-15728484D01*
X2893872Y-15728484D02*
X2912920Y-15738008D01*
X2912920Y-15738008D02*
X2922444Y-15747531D01*
X2922444Y-15747531D02*
X2931967Y-15766579D01*
X2931967Y-15766579D02*
X2931967Y-15785627D01*
X2931967Y-15785627D02*
X2922444Y-15814198D01*
X2922444Y-15814198D02*
X2808158Y-15928484D01*
X2808158Y-15928484D02*
X2931967Y-15928484D01*
X3008158Y-15747531D02*
X3017682Y-15738008D01*
X3017682Y-15738008D02*
X3036729Y-15728484D01*
X3036729Y-15728484D02*
X3084348Y-15728484D01*
X3084348Y-15728484D02*
X3103396Y-15738008D01*
X3103396Y-15738008D02*
X3112920Y-15747531D01*
X3112920Y-15747531D02*
X3122444Y-15766579D01*
X3122444Y-15766579D02*
X3122444Y-15785627D01*
X3122444Y-15785627D02*
X3112920Y-15814198D01*
X3112920Y-15814198D02*
X2998634Y-15928484D01*
X2998634Y-15928484D02*
X3122444Y-15928484D01*
X3198634Y-15728484D02*
X3198634Y-15766579D01*
X3274825Y-15728484D02*
X3274825Y-15766579D01*
X3570063Y-16004674D02*
X3560539Y-15995150D01*
X3560539Y-15995150D02*
X3541491Y-15966579D01*
X3541491Y-15966579D02*
X3531968Y-15947531D01*
X3531968Y-15947531D02*
X3522444Y-15918960D01*
X3522444Y-15918960D02*
X3512920Y-15871341D01*
X3512920Y-15871341D02*
X3512920Y-15833246D01*
X3512920Y-15833246D02*
X3522444Y-15785627D01*
X3522444Y-15785627D02*
X3531968Y-15757055D01*
X3531968Y-15757055D02*
X3541491Y-15738008D01*
X3541491Y-15738008D02*
X3560539Y-15709436D01*
X3560539Y-15709436D02*
X3570063Y-15699912D01*
X3751015Y-15928484D02*
X3636729Y-15928484D01*
X3693872Y-15928484D02*
X3693872Y-15728484D01*
X3693872Y-15728484D02*
X3674825Y-15757055D01*
X3674825Y-15757055D02*
X3655777Y-15776103D01*
X3655777Y-15776103D02*
X3636729Y-15785627D01*
X3941491Y-15928484D02*
X3827206Y-15928484D01*
X3884348Y-15928484D02*
X3884348Y-15728484D01*
X3884348Y-15728484D02*
X3865301Y-15757055D01*
X3865301Y-15757055D02*
X3846253Y-15776103D01*
X3846253Y-15776103D02*
X3827206Y-15785627D01*
X4131968Y-15928484D02*
X4017682Y-15928484D01*
X4074825Y-15928484D02*
X4074825Y-15728484D01*
X4074825Y-15728484D02*
X4055777Y-15757055D01*
X4055777Y-15757055D02*
X4036729Y-15776103D01*
X4036729Y-15776103D02*
X4017682Y-15785627D01*
X4370063Y-15928484D02*
X4370063Y-15728484D01*
X4455777Y-15928484D02*
X4455777Y-15823722D01*
X4455777Y-15823722D02*
X4446253Y-15804674D01*
X4446253Y-15804674D02*
X4427206Y-15795150D01*
X4427206Y-15795150D02*
X4398634Y-15795150D01*
X4398634Y-15795150D02*
X4379587Y-15804674D01*
X4379587Y-15804674D02*
X4370063Y-15814198D01*
X4579587Y-15928484D02*
X4560539Y-15918960D01*
X4560539Y-15918960D02*
X4551015Y-15909436D01*
X4551015Y-15909436D02*
X4541492Y-15890388D01*
X4541492Y-15890388D02*
X4541492Y-15833246D01*
X4541492Y-15833246D02*
X4551015Y-15814198D01*
X4551015Y-15814198D02*
X4560539Y-15804674D01*
X4560539Y-15804674D02*
X4579587Y-15795150D01*
X4579587Y-15795150D02*
X4608158Y-15795150D01*
X4608158Y-15795150D02*
X4627206Y-15804674D01*
X4627206Y-15804674D02*
X4636730Y-15814198D01*
X4636730Y-15814198D02*
X4646253Y-15833246D01*
X4646253Y-15833246D02*
X4646253Y-15890388D01*
X4646253Y-15890388D02*
X4636730Y-15909436D01*
X4636730Y-15909436D02*
X4627206Y-15918960D01*
X4627206Y-15918960D02*
X4608158Y-15928484D01*
X4608158Y-15928484D02*
X4579587Y-15928484D01*
X4760539Y-15928484D02*
X4741492Y-15918960D01*
X4741492Y-15918960D02*
X4731968Y-15899912D01*
X4731968Y-15899912D02*
X4731968Y-15728484D01*
X4912920Y-15918960D02*
X4893873Y-15928484D01*
X4893873Y-15928484D02*
X4855777Y-15928484D01*
X4855777Y-15928484D02*
X4836730Y-15918960D01*
X4836730Y-15918960D02*
X4827206Y-15899912D01*
X4827206Y-15899912D02*
X4827206Y-15823722D01*
X4827206Y-15823722D02*
X4836730Y-15804674D01*
X4836730Y-15804674D02*
X4855777Y-15795150D01*
X4855777Y-15795150D02*
X4893873Y-15795150D01*
X4893873Y-15795150D02*
X4912920Y-15804674D01*
X4912920Y-15804674D02*
X4922444Y-15823722D01*
X4922444Y-15823722D02*
X4922444Y-15842769D01*
X4922444Y-15842769D02*
X4827206Y-15861817D01*
X4998634Y-15918960D02*
X5017682Y-15928484D01*
X5017682Y-15928484D02*
X5055777Y-15928484D01*
X5055777Y-15928484D02*
X5074825Y-15918960D01*
X5074825Y-15918960D02*
X5084349Y-15899912D01*
X5084349Y-15899912D02*
X5084349Y-15890388D01*
X5084349Y-15890388D02*
X5074825Y-15871341D01*
X5074825Y-15871341D02*
X5055777Y-15861817D01*
X5055777Y-15861817D02*
X5027206Y-15861817D01*
X5027206Y-15861817D02*
X5008158Y-15852293D01*
X5008158Y-15852293D02*
X4998634Y-15833246D01*
X4998634Y-15833246D02*
X4998634Y-15823722D01*
X4998634Y-15823722D02*
X5008158Y-15804674D01*
X5008158Y-15804674D02*
X5027206Y-15795150D01*
X5027206Y-15795150D02*
X5055777Y-15795150D01*
X5055777Y-15795150D02*
X5074825Y-15804674D01*
X5151015Y-16004674D02*
X5160539Y-15995150D01*
X5160539Y-15995150D02*
X5179587Y-15966579D01*
X5179587Y-15966579D02*
X5189111Y-15947531D01*
X5189111Y-15947531D02*
X5198634Y-15918960D01*
X5198634Y-15918960D02*
X5208158Y-15871341D01*
X5208158Y-15871341D02*
X5208158Y-15833246D01*
X5208158Y-15833246D02*
X5198634Y-15785627D01*
X5198634Y-15785627D02*
X5189111Y-15757055D01*
X5189111Y-15757055D02*
X5179587Y-15738008D01*
X5179587Y-15738008D02*
X5160539Y-15709436D01*
X5160539Y-15709436D02*
X5151015Y-15699912D01*
M02*
