M48
; DRILL file {KiCad 8.0.7} date 2024-12-27T16:05:51+0000
; FORMAT={-:-/ absolute / metric / decimal}
; #@! TF.CreationDate,2024-12-27T16:05:51+00:00
; #@! TF.GenerationSoftware,Kicad,Pcbnew,8.0.7
; #@! TF.FileFunction,Plated,1,2,PTH
FMAT,2
METRIC
; #@! TA.AperFunction,Plated,PTH,ViaDrill
T1C0.600
; #@! TA.AperFunction,Plated,PTH,ComponentDrill
T2C0.800
; #@! TA.AperFunction,Plated,PTH,ComponentDrill
T3C1.020
; #@! TA.AperFunction,Plated,PTH,ComponentDrill
T4C1.580
%
G90
G05
T1
X10.5Y-8.0
X116.0Y-18.5
T2
X23.363Y-41.578
X23.363Y-49.197
X23.363Y-60.627
X23.363Y-68.248
X23.363Y-79.677
X23.363Y-87.297
X23.363Y-98.727
X23.363Y-106.347
X23.363Y-117.777
X23.363Y-125.397
X56.7Y-27.29
X56.7Y-34.91
X56.7Y-51.102
X56.7Y-58.722
X61.462Y-70.153
X61.462Y-77.772
X61.462Y-127.302
X61.462Y-134.922
X63.844Y-89.203
X63.844Y-96.822
X75.75Y-51.102
X75.75Y-58.722
X78.0Y-108.252
X78.0Y-115.872
X80.513Y-27.29
X80.513Y-34.91
X85.275Y-70.153
X85.275Y-77.772
X87.656Y-127.302
X87.656Y-134.922
X90.037Y-89.203
X90.037Y-96.822
X94.8Y-51.102
X94.8Y-58.722
X99.562Y-27.29
X99.562Y-34.91
X99.562Y-108.252
X99.562Y-115.872
X104.325Y-70.153
X104.325Y-77.772
X109.087Y-89.203
X109.087Y-96.822
X111.469Y-127.302
X111.469Y-134.922
X113.85Y-51.102
X113.85Y-58.722
X118.612Y-27.29
X118.612Y-34.91
X118.612Y-108.252
X118.612Y-115.872
X123.375Y-70.153
X123.375Y-77.772
X128.137Y-89.203
X128.137Y-96.822
X132.9Y-51.102
X132.9Y-58.722
X137.662Y-27.29
X137.662Y-34.91
X137.662Y-108.252
X137.662Y-115.872
X142.425Y-70.153
X142.425Y-77.772
X147.188Y-89.203
X147.188Y-96.822
X151.95Y-51.102
X151.95Y-58.722
X156.713Y-108.252
X156.713Y-115.872
X159.5Y-127.302
X159.5Y-134.922
X161.475Y-27.29
X161.475Y-34.91
X161.475Y-70.153
X161.475Y-77.772
X166.237Y-89.203
X166.237Y-96.822
X171.0Y-51.102
X171.0Y-58.722
X175.762Y-108.252
X175.762Y-115.872
X180.525Y-27.29
X180.525Y-34.91
T3
X159.65Y-11.0
X162.65Y-11.0
X165.65Y-11.0
X168.65Y-11.0
X171.65Y-11.0
T4
X5.03Y-10.88
X5.03Y-26.12
X7.57Y-10.88
X7.57Y-26.12
X9.463Y-50.087
X9.463Y-69.138
X9.463Y-88.188
X9.463Y-107.237
X9.463Y-126.287
X10.11Y-10.88
X10.11Y-26.12
X12.65Y-10.88
X12.65Y-26.12
X15.19Y-10.88
X15.19Y-26.12
X16.462Y-51.137
X16.462Y-70.188
X16.462Y-89.237
X16.462Y-108.287
X16.462Y-127.337
X17.73Y-10.88
X17.73Y-26.12
X20.27Y-10.88
X20.27Y-26.12
X22.81Y-10.88
X22.81Y-26.12
X25.35Y-10.88
X25.35Y-26.12
X27.89Y-10.88
X27.89Y-26.12
X30.43Y-10.88
X30.43Y-26.12
X32.97Y-10.88
X32.97Y-13.42
X32.97Y-15.96
X32.97Y-18.5
X32.97Y-21.04
X32.97Y-23.58
X32.97Y-26.12
X42.8Y-35.8
X42.8Y-59.612
X47.562Y-78.662
X47.562Y-135.812
X49.8Y-36.85
X49.8Y-60.662
X49.944Y-97.712
X54.562Y-79.712
X54.562Y-136.862
X54.706Y-116.762
X56.944Y-98.762
X61.706Y-117.812
X61.85Y-59.612
X66.612Y-35.8
X68.85Y-60.662
X71.375Y-78.662
X73.612Y-36.85
X73.756Y-135.812
X76.138Y-97.712
X78.375Y-79.712
X80.756Y-136.862
X80.9Y-59.612
X83.138Y-98.762
X85.662Y-35.8
X85.662Y-116.762
X87.9Y-60.662
X90.425Y-78.662
X92.662Y-36.85
X92.662Y-117.812
X95.188Y-97.712
X97.425Y-79.712
X97.569Y-135.812
X99.95Y-59.612
X102.188Y-98.762
X104.569Y-136.862
X104.712Y-35.8
X104.712Y-116.762
X106.95Y-60.662
X109.475Y-78.662
X111.712Y-36.85
X111.712Y-117.812
X114.237Y-97.712
X116.475Y-79.712
X119.0Y-59.612
X121.237Y-98.762
X123.762Y-35.8
X123.762Y-116.762
X126.0Y-60.662
X128.525Y-78.662
X130.762Y-36.85
X130.762Y-117.812
X133.287Y-97.712
X135.525Y-79.712
X135.669Y-135.812
X138.05Y-59.612
X140.287Y-98.762
X142.669Y-136.862
X142.812Y-116.762
X145.05Y-60.662
X147.575Y-35.8
X147.575Y-78.662
X149.812Y-117.812
X152.338Y-97.712
X154.575Y-36.85
X154.575Y-79.712
X157.1Y-59.612
X159.338Y-98.762
X161.862Y-116.762
X164.1Y-60.662
X166.625Y-35.8
X168.862Y-117.812
X173.625Y-36.85
M30
