G04 #@! TF.GenerationSoftware,KiCad,Pcbnew,8.0.7*
G04 #@! TF.CreationDate,2024-12-27T16:05:40+00:00*
G04 #@! TF.ProjectId,gateronLPkeyboard-left,67617465-726f-46e4-9c50-6b6579626f61,rev?*
G04 #@! TF.SameCoordinates,Original*
G04 #@! TF.FileFunction,Copper,L2,Bot*
G04 #@! TF.FilePolarity,Positive*
%FSLAX46Y46*%
G04 Gerber Fmt 4.6, Leading zero omitted, Abs format (unit mm)*
G04 Created by KiCad (PCBNEW 8.0.7) date 2024-12-27 16:05:40*
%MOMM*%
%LPD*%
G01*
G04 APERTURE LIST*
G04 Aperture macros list*
%AMRoundRect*
0 Rectangle with rounded corners*
0 $1 Rounding radius*
0 $2 $3 $4 $5 $6 $7 $8 $9 X,Y pos of 4 corners*
0 Add a 4 corners polygon primitive as box body*
4,1,4,$2,$3,$4,$5,$6,$7,$8,$9,$2,$3,0*
0 Add four circle primitives for the rounded corners*
1,1,$1+$1,$2,$3*
1,1,$1+$1,$4,$5*
1,1,$1+$1,$6,$7*
1,1,$1+$1,$8,$9*
0 Add four rect primitives between the rounded corners*
20,1,$1+$1,$2,$3,$4,$5,0*
20,1,$1+$1,$4,$5,$6,$7,0*
20,1,$1+$1,$6,$7,$8,$9,0*
20,1,$1+$1,$8,$9,$2,$3,0*%
G04 Aperture macros list end*
G04 #@! TA.AperFunction,ComponentPad*
%ADD10C,2.500000*%
G04 #@! TD*
G04 #@! TA.AperFunction,ComponentPad*
%ADD11R,1.600000X1.600000*%
G04 #@! TD*
G04 #@! TA.AperFunction,ComponentPad*
%ADD12O,1.600000X1.600000*%
G04 #@! TD*
G04 #@! TA.AperFunction,ComponentPad*
%ADD13R,2.200000X2.200000*%
G04 #@! TD*
G04 #@! TA.AperFunction,ComponentPad*
%ADD14C,2.200000*%
G04 #@! TD*
G04 #@! TA.AperFunction,ComponentPad*
%ADD15RoundRect,0.250001X-0.499999X-0.759999X0.499999X-0.759999X0.499999X0.759999X-0.499999X0.759999X0*%
G04 #@! TD*
G04 #@! TA.AperFunction,ComponentPad*
%ADD16O,1.500000X2.020000*%
G04 #@! TD*
G04 #@! TA.AperFunction,ViaPad*
%ADD17C,1.000000*%
G04 #@! TD*
G04 #@! TA.AperFunction,Conductor*
%ADD18C,0.400000*%
G04 #@! TD*
G04 #@! TA.AperFunction,Conductor*
%ADD19C,0.800000*%
G04 #@! TD*
G04 APERTURE END LIST*
D10*
X95187500Y-97712500D03*
X102187500Y-98762500D03*
D11*
X128137500Y-89202500D03*
D12*
X128137500Y-96822500D03*
D11*
X104325000Y-70152500D03*
D12*
X104325000Y-77772500D03*
D10*
X66612500Y-35800000D03*
X73612500Y-36850000D03*
X166625000Y-35800000D03*
X173625000Y-36850000D03*
D11*
X161475000Y-27290000D03*
D12*
X161475000Y-34910000D03*
D10*
X90425000Y-78662500D03*
X97425000Y-79712500D03*
D11*
X166237500Y-89202500D03*
D12*
X166237500Y-96822500D03*
D11*
X23362500Y-60627500D03*
D12*
X23362500Y-68247500D03*
D11*
X132900000Y-51102500D03*
D12*
X132900000Y-58722500D03*
D11*
X61462500Y-70152500D03*
D12*
X61462500Y-77772500D03*
D10*
X47562500Y-78662500D03*
X54562500Y-79712500D03*
X135668750Y-135812500D03*
X142668750Y-136862500D03*
D13*
X5030000Y-26120000D03*
D14*
X7570000Y-26120000D03*
X10110000Y-26120000D03*
X12650000Y-26120000D03*
X15190000Y-26120000D03*
X17730000Y-26120000D03*
X20270000Y-26120000D03*
X22810000Y-26120000D03*
X25350000Y-26120000D03*
X27890000Y-26120000D03*
X30430000Y-26120000D03*
X32970000Y-26120000D03*
X32970000Y-10880000D03*
X30430000Y-10880000D03*
X27890000Y-10880000D03*
X25350000Y-10880000D03*
X22810000Y-10880000D03*
X20270000Y-10880000D03*
X17730000Y-10880000D03*
X15190000Y-10880000D03*
X12650000Y-10880000D03*
X10110000Y-10880000D03*
X7570000Y-10880000D03*
X5030000Y-10880000D03*
X32970000Y-23580000D03*
X32970000Y-21040000D03*
X32970000Y-18500000D03*
X32970000Y-15960000D03*
X32970000Y-13420000D03*
D11*
X78000000Y-108252500D03*
D12*
X78000000Y-115872500D03*
D10*
X123762500Y-116762500D03*
X130762500Y-117812500D03*
X104712500Y-35800000D03*
X111712500Y-36850000D03*
D11*
X151950000Y-51102500D03*
D12*
X151950000Y-58722500D03*
D11*
X113850000Y-51102500D03*
D12*
X113850000Y-58722500D03*
D11*
X61462500Y-127302500D03*
D12*
X61462500Y-134922500D03*
D11*
X23362500Y-79677500D03*
D12*
X23362500Y-87297500D03*
D10*
X128525000Y-78662500D03*
X135525000Y-79712500D03*
D11*
X123375000Y-70152500D03*
D12*
X123375000Y-77772500D03*
D10*
X109475000Y-78662500D03*
X116475000Y-79712500D03*
D11*
X56700000Y-51102500D03*
D12*
X56700000Y-58722500D03*
D10*
X9462500Y-69137500D03*
X16462500Y-70187500D03*
D11*
X137662500Y-27290000D03*
D12*
X137662500Y-34910000D03*
D11*
X75750000Y-51102500D03*
D12*
X75750000Y-58722500D03*
D10*
X138050000Y-59612500D03*
X145050000Y-60662500D03*
D11*
X118612500Y-27290000D03*
D12*
X118612500Y-34910000D03*
D11*
X56700000Y-27290000D03*
D12*
X56700000Y-34910000D03*
D10*
X133287500Y-97712500D03*
X140287500Y-98762500D03*
X99950000Y-59612500D03*
X106950000Y-60662500D03*
X49943750Y-97712500D03*
X56943750Y-98762500D03*
X9462500Y-50087500D03*
X16462500Y-51137500D03*
X73756250Y-135812500D03*
X80756250Y-136862500D03*
X9462500Y-126287500D03*
X16462500Y-127337500D03*
D15*
X159650000Y-11000000D03*
D16*
X162650000Y-11000000D03*
X165650000Y-11000000D03*
X168650000Y-11000000D03*
X171650000Y-11000000D03*
D10*
X147575000Y-35800000D03*
X154575000Y-36850000D03*
D11*
X111468750Y-127302500D03*
D12*
X111468750Y-134922500D03*
D11*
X118612500Y-108252500D03*
D12*
X118612500Y-115872500D03*
D11*
X156712500Y-108252500D03*
D12*
X156712500Y-115872500D03*
D10*
X104712500Y-116762500D03*
X111712500Y-117812500D03*
X76137500Y-97712500D03*
X83137500Y-98762500D03*
D11*
X142425000Y-70152500D03*
D12*
X142425000Y-77772500D03*
D10*
X97568750Y-135812500D03*
X104568750Y-136862500D03*
X142812500Y-116762500D03*
X149812500Y-117812500D03*
D11*
X109087500Y-89202500D03*
D12*
X109087500Y-96822500D03*
D10*
X54706250Y-116762500D03*
X61706250Y-117812500D03*
X85662500Y-116762500D03*
X92662500Y-117812500D03*
D11*
X175762500Y-108252500D03*
D12*
X175762500Y-115872500D03*
D10*
X157100000Y-59612500D03*
X164100000Y-60662500D03*
D11*
X180525000Y-27290000D03*
D12*
X180525000Y-34910000D03*
D11*
X23362500Y-117777500D03*
D12*
X23362500Y-125397500D03*
D10*
X9462500Y-88187500D03*
X16462500Y-89237500D03*
X61850000Y-59612500D03*
X68850000Y-60662500D03*
X80900000Y-59612500D03*
X87900000Y-60662500D03*
X123762500Y-35800000D03*
X130762500Y-36850000D03*
X42800000Y-59612500D03*
X49800000Y-60662500D03*
D11*
X99562500Y-108252500D03*
D12*
X99562500Y-115872500D03*
D11*
X161475000Y-70152500D03*
D12*
X161475000Y-77772500D03*
D10*
X47562500Y-135812500D03*
X54562500Y-136862500D03*
D11*
X171000000Y-51102500D03*
D12*
X171000000Y-58722500D03*
D10*
X42800000Y-35800000D03*
X49800000Y-36850000D03*
X71375000Y-78662500D03*
X78375000Y-79712500D03*
D11*
X137662500Y-108252500D03*
D12*
X137662500Y-115872500D03*
D10*
X147575000Y-78662500D03*
X154575000Y-79712500D03*
D11*
X90037500Y-89202500D03*
D12*
X90037500Y-96822500D03*
D11*
X63843750Y-89202500D03*
D12*
X63843750Y-96822500D03*
D11*
X23362500Y-41577500D03*
D12*
X23362500Y-49197500D03*
D10*
X85662500Y-35800000D03*
X92662500Y-36850000D03*
X161862500Y-116762500D03*
X168862500Y-117812500D03*
D11*
X94800000Y-51102500D03*
D12*
X94800000Y-58722500D03*
D10*
X119000000Y-59612500D03*
X126000000Y-60662500D03*
D11*
X159500000Y-127302500D03*
D12*
X159500000Y-134922500D03*
D11*
X80512500Y-27290000D03*
D12*
X80512500Y-34910000D03*
D11*
X87656250Y-127302500D03*
D12*
X87656250Y-134922500D03*
D10*
X114237500Y-97712500D03*
X121237500Y-98762500D03*
D11*
X23362500Y-98727500D03*
D12*
X23362500Y-106347500D03*
D10*
X9462500Y-107237500D03*
X16462500Y-108287500D03*
D11*
X85275000Y-70152500D03*
D12*
X85275000Y-77772500D03*
D10*
X152337500Y-97712500D03*
X159337500Y-98762500D03*
D11*
X99562500Y-27290000D03*
D12*
X99562500Y-34910000D03*
D11*
X147187500Y-89202500D03*
D12*
X147187500Y-96822500D03*
D17*
X116000000Y-18500000D03*
X10500000Y-8000000D03*
D18*
X93000000Y-27290000D02*
X180525000Y-27290000D01*
X56700000Y-27290000D02*
X93000000Y-27290000D01*
X49800000Y-36850000D02*
X54760000Y-36850000D01*
X54760000Y-36850000D02*
X56700000Y-34910000D01*
X78572500Y-36850000D02*
X80512500Y-34910000D01*
X73612500Y-36850000D02*
X78572500Y-36850000D01*
X97622500Y-36850000D02*
X99562500Y-34910000D01*
X92662500Y-36850000D02*
X97622500Y-36850000D01*
X116672500Y-36850000D02*
X118612500Y-34910000D01*
X111712500Y-36850000D02*
X116672500Y-36850000D01*
X130762500Y-36850000D02*
X135722500Y-36850000D01*
X135722500Y-36850000D02*
X137662500Y-34910000D01*
X154575000Y-36850000D02*
X159535000Y-36850000D01*
X159535000Y-36850000D02*
X161475000Y-34910000D01*
X178585000Y-36850000D02*
X180525000Y-34910000D01*
X173625000Y-36850000D02*
X178585000Y-36850000D01*
X21422500Y-51137500D02*
X23362500Y-49197500D01*
X16462500Y-51137500D02*
X21422500Y-51137500D01*
X23362500Y-41577500D02*
X47175000Y-41577500D01*
X56700000Y-51102500D02*
X171000000Y-51102500D01*
X47175000Y-41577500D02*
X56700000Y-51102500D01*
X54760000Y-60662500D02*
X56700000Y-58722500D01*
X49800000Y-60662500D02*
X54760000Y-60662500D01*
X73810000Y-60662500D02*
X75750000Y-58722500D01*
X68850000Y-60662500D02*
X73810000Y-60662500D01*
X87900000Y-60662500D02*
X92860000Y-60662500D01*
X92860000Y-60662500D02*
X94800000Y-58722500D01*
X106950000Y-60662500D02*
X111910000Y-60662500D01*
X111910000Y-60662500D02*
X113850000Y-58722500D01*
X126000000Y-60662500D02*
X130960000Y-60662500D01*
X130960000Y-60662500D02*
X132900000Y-58722500D01*
X150010000Y-60662500D02*
X151950000Y-58722500D01*
X145050000Y-60662500D02*
X150010000Y-60662500D01*
X169060000Y-60662500D02*
X171000000Y-58722500D01*
X164100000Y-60662500D02*
X169060000Y-60662500D01*
X16462500Y-70187500D02*
X21422500Y-70187500D01*
X21422500Y-70187500D02*
X23362500Y-68247500D01*
X36127500Y-60627500D02*
X45652500Y-70152500D01*
X61462500Y-70152500D02*
X161475000Y-70152500D01*
X45652500Y-70152500D02*
X61462500Y-70152500D01*
X23362500Y-60627500D02*
X36127500Y-60627500D01*
X54562500Y-79712500D02*
X59522500Y-79712500D01*
X59522500Y-79712500D02*
X61462500Y-77772500D01*
X83335000Y-79712500D02*
X85275000Y-77772500D01*
X78375000Y-79712500D02*
X83335000Y-79712500D01*
X102385000Y-79712500D02*
X104325000Y-77772500D01*
X97425000Y-79712500D02*
X102385000Y-79712500D01*
X121435000Y-79712500D02*
X123375000Y-77772500D01*
X116475000Y-79712500D02*
X121435000Y-79712500D01*
X135525000Y-79712500D02*
X140485000Y-79712500D01*
X140485000Y-79712500D02*
X142425000Y-77772500D01*
X159535000Y-79712500D02*
X161475000Y-77772500D01*
X154575000Y-79712500D02*
X159535000Y-79712500D01*
X16462500Y-89237500D02*
X21422500Y-89237500D01*
X21422500Y-89237500D02*
X23362500Y-87297500D01*
X23362500Y-79677500D02*
X38500000Y-79677500D01*
X38500000Y-79677500D02*
X48025000Y-89202500D01*
X63843750Y-89202500D02*
X166237500Y-89202500D01*
X48025000Y-89202500D02*
X63843750Y-89202500D01*
X61903750Y-98762500D02*
X63843750Y-96822500D01*
X56943750Y-98762500D02*
X61903750Y-98762500D01*
X83137500Y-98762500D02*
X88097500Y-98762500D01*
X88097500Y-98762500D02*
X90037500Y-96822500D01*
X102187500Y-98762500D02*
X107147500Y-98762500D01*
X107147500Y-98762500D02*
X109087500Y-96822500D01*
X121237500Y-98762500D02*
X126197500Y-98762500D01*
X126197500Y-98762500D02*
X128137500Y-96822500D01*
X140287500Y-98762500D02*
X145247500Y-98762500D01*
X145247500Y-98762500D02*
X147187500Y-96822500D01*
X159337500Y-98762500D02*
X164297500Y-98762500D01*
X164297500Y-98762500D02*
X166237500Y-96822500D01*
X21422500Y-108287500D02*
X23362500Y-106347500D01*
X16462500Y-108287500D02*
X21422500Y-108287500D01*
X78000000Y-103500000D02*
X78000000Y-108252500D01*
X23362500Y-98727500D02*
X40727500Y-98727500D01*
X76500000Y-102000000D02*
X78000000Y-103500000D01*
X40727500Y-98727500D02*
X43750000Y-101750000D01*
X78000000Y-108252500D02*
X175762500Y-108252500D01*
X43750000Y-101750000D02*
X44000000Y-102000000D01*
X44000000Y-102000000D02*
X76500000Y-102000000D01*
X97622500Y-117812500D02*
X99562500Y-115872500D01*
X92662500Y-117812500D02*
X97622500Y-117812500D01*
X116672500Y-117812500D02*
X118612500Y-115872500D01*
X111712500Y-117812500D02*
X116672500Y-117812500D01*
X135722500Y-117812500D02*
X137662500Y-115872500D01*
X130762500Y-117812500D02*
X135722500Y-117812500D01*
X149812500Y-117812500D02*
X154772500Y-117812500D01*
X154772500Y-117812500D02*
X156712500Y-115872500D01*
X168862500Y-117812500D02*
X173822500Y-117812500D01*
X173822500Y-117812500D02*
X175762500Y-115872500D01*
X16462500Y-127337500D02*
X21422500Y-127337500D01*
X21422500Y-127337500D02*
X23362500Y-125397500D01*
X106762500Y-123000000D02*
X111065000Y-127302500D01*
X78000000Y-123000000D02*
X78591250Y-123000000D01*
X156000000Y-120500000D02*
X124000000Y-120500000D01*
X159500000Y-124000000D02*
X156000000Y-120500000D01*
X56500000Y-123000000D02*
X57000000Y-123000000D01*
X159500000Y-127302500D02*
X159500000Y-124000000D01*
X36500000Y-117777500D02*
X23362500Y-117777500D01*
X56500000Y-123000000D02*
X78000000Y-123000000D01*
X61462500Y-125081250D02*
X61462500Y-127302500D01*
X83353750Y-123000000D02*
X87656250Y-127302500D01*
X56500000Y-123000000D02*
X41722500Y-123000000D01*
X121500000Y-123000000D02*
X78000000Y-123000000D01*
X59381250Y-123000000D02*
X61462500Y-125081250D01*
X124000000Y-120500000D02*
X121500000Y-123000000D01*
X41722500Y-123000000D02*
X36500000Y-117777500D01*
X111065000Y-127302500D02*
X111468750Y-127302500D01*
X54562500Y-136862500D02*
X59522500Y-136862500D01*
X59522500Y-136862500D02*
X61462500Y-134922500D01*
X80756250Y-136862500D02*
X85716250Y-136862500D01*
X85716250Y-136862500D02*
X87656250Y-134922500D01*
X109528750Y-136862500D02*
X111468750Y-134922500D01*
X104568750Y-136862500D02*
X109528750Y-136862500D01*
X12000000Y-38500000D02*
X9462500Y-41037500D01*
X9462500Y-50087500D02*
X9462500Y-126287500D01*
X40100000Y-38500000D02*
X12000000Y-38500000D01*
X42800000Y-35800000D02*
X40100000Y-38500000D01*
X9462500Y-41037500D02*
X9462500Y-50087500D01*
X154500000Y-18500000D02*
X159650000Y-13350000D01*
X40000000Y-11500000D02*
X109000000Y-11500000D01*
X116000000Y-18500000D02*
X154500000Y-18500000D01*
X32970000Y-15960000D02*
X35540000Y-15960000D01*
X109000000Y-11500000D02*
X116000000Y-18500000D01*
X35540000Y-15960000D02*
X40000000Y-11500000D01*
X159650000Y-13350000D02*
X159650000Y-11000000D01*
D19*
X16500000Y-3000000D02*
X163000000Y-3000000D01*
X163000000Y-3000000D02*
X165650000Y-5650000D01*
X12650000Y-6850000D02*
X16500000Y-3000000D01*
X165650000Y-5650000D02*
X165650000Y-11000000D01*
X12650000Y-10880000D02*
X12650000Y-6850000D01*
D18*
X3000000Y-8500000D02*
X10000000Y-8500000D01*
X10000000Y-8500000D02*
X10500000Y-8000000D01*
X5030000Y-26120000D02*
X5030000Y-18530000D01*
X2500000Y-16000000D02*
X2500000Y-9000000D01*
X5030000Y-18530000D02*
X2500000Y-16000000D01*
X2500000Y-9000000D02*
X3000000Y-8500000D01*
M02*
