G04 #@! TF.GenerationSoftware,KiCad,Pcbnew,8.0.7*
G04 #@! TF.CreationDate,2024-12-27T16:05:41+00:00*
G04 #@! TF.ProjectId,gateronLPkeyboard-left,67617465-726f-46e4-9c50-6b6579626f61,rev?*
G04 #@! TF.SameCoordinates,Original*
G04 #@! TF.FileFunction,Legend,Top*
G04 #@! TF.FilePolarity,Positive*
%FSLAX46Y46*%
G04 Gerber Fmt 4.6, Leading zero omitted, Abs format (unit mm)*
G04 Created by KiCad (PCBNEW 8.0.7) date 2024-12-27 16:05:41*
%MOMM*%
%LPD*%
G01*
G04 APERTURE LIST*
G04 Aperture macros list*
%AMRoundRect*
0 Rectangle with rounded corners*
0 $1 Rounding radius*
0 $2 $3 $4 $5 $6 $7 $8 $9 X,Y pos of 4 corners*
0 Add a 4 corners polygon primitive as box body*
4,1,4,$2,$3,$4,$5,$6,$7,$8,$9,$2,$3,0*
0 Add four circle primitives for the rounded corners*
1,1,$1+$1,$2,$3*
1,1,$1+$1,$4,$5*
1,1,$1+$1,$6,$7*
1,1,$1+$1,$8,$9*
0 Add four rect primitives between the rounded corners*
20,1,$1+$1,$2,$3,$4,$5,0*
20,1,$1+$1,$4,$5,$6,$7,0*
20,1,$1+$1,$6,$7,$8,$9,0*
20,1,$1+$1,$8,$9,$2,$3,0*%
G04 Aperture macros list end*
%ADD10C,0.150000*%
%ADD11C,0.140000*%
%ADD12C,0.120000*%
%ADD13C,0.381000*%
%ADD14R,2.200000X2.200000*%
%ADD15C,5.250000*%
%ADD16C,2.500000*%
%ADD17R,1.600000X1.600000*%
%ADD18O,1.600000X1.600000*%
%ADD19C,3.200000*%
%ADD20C,2.200000*%
%ADD21C,3.000000*%
%ADD22RoundRect,0.250001X-0.499999X-0.759999X0.499999X-0.759999X0.499999X0.759999X-0.499999X0.759999X0*%
%ADD23O,1.500000X2.020000*%
G04 APERTURE END LIST*
D10*
X130712319Y-94226785D02*
X129712319Y-94226785D01*
X129712319Y-94226785D02*
X129712319Y-93988690D01*
X129712319Y-93988690D02*
X129759938Y-93845833D01*
X129759938Y-93845833D02*
X129855176Y-93750595D01*
X129855176Y-93750595D02*
X129950414Y-93702976D01*
X129950414Y-93702976D02*
X130140890Y-93655357D01*
X130140890Y-93655357D02*
X130283747Y-93655357D01*
X130283747Y-93655357D02*
X130474223Y-93702976D01*
X130474223Y-93702976D02*
X130569461Y-93750595D01*
X130569461Y-93750595D02*
X130664700Y-93845833D01*
X130664700Y-93845833D02*
X130712319Y-93988690D01*
X130712319Y-93988690D02*
X130712319Y-94226785D01*
X129807557Y-93274404D02*
X129759938Y-93226785D01*
X129759938Y-93226785D02*
X129712319Y-93131547D01*
X129712319Y-93131547D02*
X129712319Y-92893452D01*
X129712319Y-92893452D02*
X129759938Y-92798214D01*
X129759938Y-92798214D02*
X129807557Y-92750595D01*
X129807557Y-92750595D02*
X129902795Y-92702976D01*
X129902795Y-92702976D02*
X129998033Y-92702976D01*
X129998033Y-92702976D02*
X130140890Y-92750595D01*
X130140890Y-92750595D02*
X130712319Y-93322023D01*
X130712319Y-93322023D02*
X130712319Y-92702976D01*
X129712319Y-92369642D02*
X129712319Y-91702976D01*
X129712319Y-91702976D02*
X130712319Y-92131547D01*
X130392319Y-89464404D02*
X129392319Y-89464404D01*
X130392319Y-88892976D02*
X129820890Y-89321547D01*
X129392319Y-88892976D02*
X129963747Y-89464404D01*
X106899819Y-75176785D02*
X105899819Y-75176785D01*
X105899819Y-75176785D02*
X105899819Y-74938690D01*
X105899819Y-74938690D02*
X105947438Y-74795833D01*
X105947438Y-74795833D02*
X106042676Y-74700595D01*
X106042676Y-74700595D02*
X106137914Y-74652976D01*
X106137914Y-74652976D02*
X106328390Y-74605357D01*
X106328390Y-74605357D02*
X106471247Y-74605357D01*
X106471247Y-74605357D02*
X106661723Y-74652976D01*
X106661723Y-74652976D02*
X106756961Y-74700595D01*
X106756961Y-74700595D02*
X106852200Y-74795833D01*
X106852200Y-74795833D02*
X106899819Y-74938690D01*
X106899819Y-74938690D02*
X106899819Y-75176785D01*
X106899819Y-73652976D02*
X106899819Y-74224404D01*
X106899819Y-73938690D02*
X105899819Y-73938690D01*
X105899819Y-73938690D02*
X106042676Y-74033928D01*
X106042676Y-74033928D02*
X106137914Y-74129166D01*
X106137914Y-74129166D02*
X106185533Y-74224404D01*
X106899819Y-73176785D02*
X106899819Y-72986309D01*
X106899819Y-72986309D02*
X106852200Y-72891071D01*
X106852200Y-72891071D02*
X106804580Y-72843452D01*
X106804580Y-72843452D02*
X106661723Y-72748214D01*
X106661723Y-72748214D02*
X106471247Y-72700595D01*
X106471247Y-72700595D02*
X106090295Y-72700595D01*
X106090295Y-72700595D02*
X105995057Y-72748214D01*
X105995057Y-72748214D02*
X105947438Y-72795833D01*
X105947438Y-72795833D02*
X105899819Y-72891071D01*
X105899819Y-72891071D02*
X105899819Y-73081547D01*
X105899819Y-73081547D02*
X105947438Y-73176785D01*
X105947438Y-73176785D02*
X105995057Y-73224404D01*
X105995057Y-73224404D02*
X106090295Y-73272023D01*
X106090295Y-73272023D02*
X106328390Y-73272023D01*
X106328390Y-73272023D02*
X106423628Y-73224404D01*
X106423628Y-73224404D02*
X106471247Y-73176785D01*
X106471247Y-73176785D02*
X106518866Y-73081547D01*
X106518866Y-73081547D02*
X106518866Y-72891071D01*
X106518866Y-72891071D02*
X106471247Y-72795833D01*
X106471247Y-72795833D02*
X106423628Y-72748214D01*
X106423628Y-72748214D02*
X106328390Y-72700595D01*
X106579819Y-70414404D02*
X105579819Y-70414404D01*
X106579819Y-69842976D02*
X106008390Y-70271547D01*
X105579819Y-69842976D02*
X106151247Y-70414404D01*
X164049819Y-31838094D02*
X163049819Y-31838094D01*
X163049819Y-31838094D02*
X163049819Y-31599999D01*
X163049819Y-31599999D02*
X163097438Y-31457142D01*
X163097438Y-31457142D02*
X163192676Y-31361904D01*
X163192676Y-31361904D02*
X163287914Y-31314285D01*
X163287914Y-31314285D02*
X163478390Y-31266666D01*
X163478390Y-31266666D02*
X163621247Y-31266666D01*
X163621247Y-31266666D02*
X163811723Y-31314285D01*
X163811723Y-31314285D02*
X163906961Y-31361904D01*
X163906961Y-31361904D02*
X164002200Y-31457142D01*
X164002200Y-31457142D02*
X164049819Y-31599999D01*
X164049819Y-31599999D02*
X164049819Y-31838094D01*
X163049819Y-30409523D02*
X163049819Y-30599999D01*
X163049819Y-30599999D02*
X163097438Y-30695237D01*
X163097438Y-30695237D02*
X163145057Y-30742856D01*
X163145057Y-30742856D02*
X163287914Y-30838094D01*
X163287914Y-30838094D02*
X163478390Y-30885713D01*
X163478390Y-30885713D02*
X163859342Y-30885713D01*
X163859342Y-30885713D02*
X163954580Y-30838094D01*
X163954580Y-30838094D02*
X164002200Y-30790475D01*
X164002200Y-30790475D02*
X164049819Y-30695237D01*
X164049819Y-30695237D02*
X164049819Y-30504761D01*
X164049819Y-30504761D02*
X164002200Y-30409523D01*
X164002200Y-30409523D02*
X163954580Y-30361904D01*
X163954580Y-30361904D02*
X163859342Y-30314285D01*
X163859342Y-30314285D02*
X163621247Y-30314285D01*
X163621247Y-30314285D02*
X163526009Y-30361904D01*
X163526009Y-30361904D02*
X163478390Y-30409523D01*
X163478390Y-30409523D02*
X163430771Y-30504761D01*
X163430771Y-30504761D02*
X163430771Y-30695237D01*
X163430771Y-30695237D02*
X163478390Y-30790475D01*
X163478390Y-30790475D02*
X163526009Y-30838094D01*
X163526009Y-30838094D02*
X163621247Y-30885713D01*
X163729819Y-27551904D02*
X162729819Y-27551904D01*
X163729819Y-26980476D02*
X163158390Y-27409047D01*
X162729819Y-26980476D02*
X163301247Y-27551904D01*
X8190476Y-2954819D02*
X8190476Y-1954819D01*
X8190476Y-1954819D02*
X8523809Y-2669104D01*
X8523809Y-2669104D02*
X8857142Y-1954819D01*
X8857142Y-1954819D02*
X8857142Y-2954819D01*
X9238095Y-1954819D02*
X9857142Y-1954819D01*
X9857142Y-1954819D02*
X9523809Y-2335771D01*
X9523809Y-2335771D02*
X9666666Y-2335771D01*
X9666666Y-2335771D02*
X9761904Y-2383390D01*
X9761904Y-2383390D02*
X9809523Y-2431009D01*
X9809523Y-2431009D02*
X9857142Y-2526247D01*
X9857142Y-2526247D02*
X9857142Y-2764342D01*
X9857142Y-2764342D02*
X9809523Y-2859580D01*
X9809523Y-2859580D02*
X9761904Y-2907200D01*
X9761904Y-2907200D02*
X9666666Y-2954819D01*
X9666666Y-2954819D02*
X9380952Y-2954819D01*
X9380952Y-2954819D02*
X9285714Y-2907200D01*
X9285714Y-2907200D02*
X9238095Y-2859580D01*
X168812319Y-94226785D02*
X167812319Y-94226785D01*
X167812319Y-94226785D02*
X167812319Y-93988690D01*
X167812319Y-93988690D02*
X167859938Y-93845833D01*
X167859938Y-93845833D02*
X167955176Y-93750595D01*
X167955176Y-93750595D02*
X168050414Y-93702976D01*
X168050414Y-93702976D02*
X168240890Y-93655357D01*
X168240890Y-93655357D02*
X168383747Y-93655357D01*
X168383747Y-93655357D02*
X168574223Y-93702976D01*
X168574223Y-93702976D02*
X168669461Y-93750595D01*
X168669461Y-93750595D02*
X168764700Y-93845833D01*
X168764700Y-93845833D02*
X168812319Y-93988690D01*
X168812319Y-93988690D02*
X168812319Y-94226785D01*
X167907557Y-93274404D02*
X167859938Y-93226785D01*
X167859938Y-93226785D02*
X167812319Y-93131547D01*
X167812319Y-93131547D02*
X167812319Y-92893452D01*
X167812319Y-92893452D02*
X167859938Y-92798214D01*
X167859938Y-92798214D02*
X167907557Y-92750595D01*
X167907557Y-92750595D02*
X168002795Y-92702976D01*
X168002795Y-92702976D02*
X168098033Y-92702976D01*
X168098033Y-92702976D02*
X168240890Y-92750595D01*
X168240890Y-92750595D02*
X168812319Y-93322023D01*
X168812319Y-93322023D02*
X168812319Y-92702976D01*
X168812319Y-92226785D02*
X168812319Y-92036309D01*
X168812319Y-92036309D02*
X168764700Y-91941071D01*
X168764700Y-91941071D02*
X168717080Y-91893452D01*
X168717080Y-91893452D02*
X168574223Y-91798214D01*
X168574223Y-91798214D02*
X168383747Y-91750595D01*
X168383747Y-91750595D02*
X168002795Y-91750595D01*
X168002795Y-91750595D02*
X167907557Y-91798214D01*
X167907557Y-91798214D02*
X167859938Y-91845833D01*
X167859938Y-91845833D02*
X167812319Y-91941071D01*
X167812319Y-91941071D02*
X167812319Y-92131547D01*
X167812319Y-92131547D02*
X167859938Y-92226785D01*
X167859938Y-92226785D02*
X167907557Y-92274404D01*
X167907557Y-92274404D02*
X168002795Y-92322023D01*
X168002795Y-92322023D02*
X168240890Y-92322023D01*
X168240890Y-92322023D02*
X168336128Y-92274404D01*
X168336128Y-92274404D02*
X168383747Y-92226785D01*
X168383747Y-92226785D02*
X168431366Y-92131547D01*
X168431366Y-92131547D02*
X168431366Y-91941071D01*
X168431366Y-91941071D02*
X168383747Y-91845833D01*
X168383747Y-91845833D02*
X168336128Y-91798214D01*
X168336128Y-91798214D02*
X168240890Y-91750595D01*
X168492319Y-89464404D02*
X167492319Y-89464404D01*
X168492319Y-88892976D02*
X167920890Y-89321547D01*
X167492319Y-88892976D02*
X168063747Y-89464404D01*
X25937319Y-65651785D02*
X24937319Y-65651785D01*
X24937319Y-65651785D02*
X24937319Y-65413690D01*
X24937319Y-65413690D02*
X24984938Y-65270833D01*
X24984938Y-65270833D02*
X25080176Y-65175595D01*
X25080176Y-65175595D02*
X25175414Y-65127976D01*
X25175414Y-65127976D02*
X25365890Y-65080357D01*
X25365890Y-65080357D02*
X25508747Y-65080357D01*
X25508747Y-65080357D02*
X25699223Y-65127976D01*
X25699223Y-65127976D02*
X25794461Y-65175595D01*
X25794461Y-65175595D02*
X25889700Y-65270833D01*
X25889700Y-65270833D02*
X25937319Y-65413690D01*
X25937319Y-65413690D02*
X25937319Y-65651785D01*
X25937319Y-64127976D02*
X25937319Y-64699404D01*
X25937319Y-64413690D02*
X24937319Y-64413690D01*
X24937319Y-64413690D02*
X25080176Y-64508928D01*
X25080176Y-64508928D02*
X25175414Y-64604166D01*
X25175414Y-64604166D02*
X25223033Y-64699404D01*
X24937319Y-63270833D02*
X24937319Y-63461309D01*
X24937319Y-63461309D02*
X24984938Y-63556547D01*
X24984938Y-63556547D02*
X25032557Y-63604166D01*
X25032557Y-63604166D02*
X25175414Y-63699404D01*
X25175414Y-63699404D02*
X25365890Y-63747023D01*
X25365890Y-63747023D02*
X25746842Y-63747023D01*
X25746842Y-63747023D02*
X25842080Y-63699404D01*
X25842080Y-63699404D02*
X25889700Y-63651785D01*
X25889700Y-63651785D02*
X25937319Y-63556547D01*
X25937319Y-63556547D02*
X25937319Y-63366071D01*
X25937319Y-63366071D02*
X25889700Y-63270833D01*
X25889700Y-63270833D02*
X25842080Y-63223214D01*
X25842080Y-63223214D02*
X25746842Y-63175595D01*
X25746842Y-63175595D02*
X25508747Y-63175595D01*
X25508747Y-63175595D02*
X25413509Y-63223214D01*
X25413509Y-63223214D02*
X25365890Y-63270833D01*
X25365890Y-63270833D02*
X25318271Y-63366071D01*
X25318271Y-63366071D02*
X25318271Y-63556547D01*
X25318271Y-63556547D02*
X25365890Y-63651785D01*
X25365890Y-63651785D02*
X25413509Y-63699404D01*
X25413509Y-63699404D02*
X25508747Y-63747023D01*
X25617319Y-60889404D02*
X24617319Y-60889404D01*
X25617319Y-60317976D02*
X25045890Y-60746547D01*
X24617319Y-60317976D02*
X25188747Y-60889404D01*
X135474819Y-56126785D02*
X134474819Y-56126785D01*
X134474819Y-56126785D02*
X134474819Y-55888690D01*
X134474819Y-55888690D02*
X134522438Y-55745833D01*
X134522438Y-55745833D02*
X134617676Y-55650595D01*
X134617676Y-55650595D02*
X134712914Y-55602976D01*
X134712914Y-55602976D02*
X134903390Y-55555357D01*
X134903390Y-55555357D02*
X135046247Y-55555357D01*
X135046247Y-55555357D02*
X135236723Y-55602976D01*
X135236723Y-55602976D02*
X135331961Y-55650595D01*
X135331961Y-55650595D02*
X135427200Y-55745833D01*
X135427200Y-55745833D02*
X135474819Y-55888690D01*
X135474819Y-55888690D02*
X135474819Y-56126785D01*
X135474819Y-54602976D02*
X135474819Y-55174404D01*
X135474819Y-54888690D02*
X134474819Y-54888690D01*
X134474819Y-54888690D02*
X134617676Y-54983928D01*
X134617676Y-54983928D02*
X134712914Y-55079166D01*
X134712914Y-55079166D02*
X134760533Y-55174404D01*
X134474819Y-54269642D02*
X134474819Y-53650595D01*
X134474819Y-53650595D02*
X134855771Y-53983928D01*
X134855771Y-53983928D02*
X134855771Y-53841071D01*
X134855771Y-53841071D02*
X134903390Y-53745833D01*
X134903390Y-53745833D02*
X134951009Y-53698214D01*
X134951009Y-53698214D02*
X135046247Y-53650595D01*
X135046247Y-53650595D02*
X135284342Y-53650595D01*
X135284342Y-53650595D02*
X135379580Y-53698214D01*
X135379580Y-53698214D02*
X135427200Y-53745833D01*
X135427200Y-53745833D02*
X135474819Y-53841071D01*
X135474819Y-53841071D02*
X135474819Y-54126785D01*
X135474819Y-54126785D02*
X135427200Y-54222023D01*
X135427200Y-54222023D02*
X135379580Y-54269642D01*
X135154819Y-51364404D02*
X134154819Y-51364404D01*
X135154819Y-50792976D02*
X134583390Y-51221547D01*
X134154819Y-50792976D02*
X134726247Y-51364404D01*
X64037319Y-75176785D02*
X63037319Y-75176785D01*
X63037319Y-75176785D02*
X63037319Y-74938690D01*
X63037319Y-74938690D02*
X63084938Y-74795833D01*
X63084938Y-74795833D02*
X63180176Y-74700595D01*
X63180176Y-74700595D02*
X63275414Y-74652976D01*
X63275414Y-74652976D02*
X63465890Y-74605357D01*
X63465890Y-74605357D02*
X63608747Y-74605357D01*
X63608747Y-74605357D02*
X63799223Y-74652976D01*
X63799223Y-74652976D02*
X63894461Y-74700595D01*
X63894461Y-74700595D02*
X63989700Y-74795833D01*
X63989700Y-74795833D02*
X64037319Y-74938690D01*
X64037319Y-74938690D02*
X64037319Y-75176785D01*
X64037319Y-73652976D02*
X64037319Y-74224404D01*
X64037319Y-73938690D02*
X63037319Y-73938690D01*
X63037319Y-73938690D02*
X63180176Y-74033928D01*
X63180176Y-74033928D02*
X63275414Y-74129166D01*
X63275414Y-74129166D02*
X63323033Y-74224404D01*
X63037319Y-73319642D02*
X63037319Y-72652976D01*
X63037319Y-72652976D02*
X64037319Y-73081547D01*
X63717319Y-70414404D02*
X62717319Y-70414404D01*
X63717319Y-69842976D02*
X63145890Y-70271547D01*
X62717319Y-69842976D02*
X63288747Y-70414404D01*
X7170390Y-13648523D02*
X7132295Y-13724713D01*
X7132295Y-13724713D02*
X7132295Y-13838999D01*
X7132295Y-13838999D02*
X7170390Y-13953285D01*
X7170390Y-13953285D02*
X7246580Y-14029475D01*
X7246580Y-14029475D02*
X7322771Y-14067570D01*
X7322771Y-14067570D02*
X7475152Y-14105666D01*
X7475152Y-14105666D02*
X7589438Y-14105666D01*
X7589438Y-14105666D02*
X7741819Y-14067570D01*
X7741819Y-14067570D02*
X7818009Y-14029475D01*
X7818009Y-14029475D02*
X7894200Y-13953285D01*
X7894200Y-13953285D02*
X7932295Y-13838999D01*
X7932295Y-13838999D02*
X7932295Y-13762808D01*
X7932295Y-13762808D02*
X7894200Y-13648523D01*
X7894200Y-13648523D02*
X7856104Y-13610427D01*
X7856104Y-13610427D02*
X7589438Y-13610427D01*
X7589438Y-13610427D02*
X7589438Y-13762808D01*
X7932295Y-13267570D02*
X7132295Y-13267570D01*
X7132295Y-13267570D02*
X7932295Y-12810427D01*
X7932295Y-12810427D02*
X7132295Y-12810427D01*
X7932295Y-12429475D02*
X7132295Y-12429475D01*
X7132295Y-12429475D02*
X7132295Y-12238999D01*
X7132295Y-12238999D02*
X7170390Y-12124713D01*
X7170390Y-12124713D02*
X7246580Y-12048523D01*
X7246580Y-12048523D02*
X7322771Y-12010428D01*
X7322771Y-12010428D02*
X7475152Y-11972332D01*
X7475152Y-11972332D02*
X7589438Y-11972332D01*
X7589438Y-11972332D02*
X7741819Y-12010428D01*
X7741819Y-12010428D02*
X7818009Y-12048523D01*
X7818009Y-12048523D02*
X7894200Y-12124713D01*
X7894200Y-12124713D02*
X7932295Y-12238999D01*
X7932295Y-12238999D02*
X7932295Y-12429475D01*
X31686104Y-18633332D02*
X31724200Y-18671428D01*
X31724200Y-18671428D02*
X31762295Y-18785713D01*
X31762295Y-18785713D02*
X31762295Y-18861904D01*
X31762295Y-18861904D02*
X31724200Y-18976190D01*
X31724200Y-18976190D02*
X31648009Y-19052380D01*
X31648009Y-19052380D02*
X31571819Y-19090475D01*
X31571819Y-19090475D02*
X31419438Y-19128571D01*
X31419438Y-19128571D02*
X31305152Y-19128571D01*
X31305152Y-19128571D02*
X31152771Y-19090475D01*
X31152771Y-19090475D02*
X31076580Y-19052380D01*
X31076580Y-19052380D02*
X31000390Y-18976190D01*
X31000390Y-18976190D02*
X30962295Y-18861904D01*
X30962295Y-18861904D02*
X30962295Y-18785713D01*
X30962295Y-18785713D02*
X31000390Y-18671428D01*
X31000390Y-18671428D02*
X31038485Y-18633332D01*
X30962295Y-18366666D02*
X30962295Y-17833332D01*
X30962295Y-17833332D02*
X31762295Y-18176190D01*
X31549366Y-23283333D02*
X31582700Y-23183333D01*
X31582700Y-23183333D02*
X31616033Y-23149999D01*
X31616033Y-23149999D02*
X31682700Y-23116666D01*
X31682700Y-23116666D02*
X31782700Y-23116666D01*
X31782700Y-23116666D02*
X31849366Y-23149999D01*
X31849366Y-23149999D02*
X31882700Y-23183333D01*
X31882700Y-23183333D02*
X31916033Y-23249999D01*
X31916033Y-23249999D02*
X31916033Y-23516666D01*
X31916033Y-23516666D02*
X31216033Y-23516666D01*
X31216033Y-23516666D02*
X31216033Y-23283333D01*
X31216033Y-23283333D02*
X31249366Y-23216666D01*
X31249366Y-23216666D02*
X31282700Y-23183333D01*
X31282700Y-23183333D02*
X31349366Y-23149999D01*
X31349366Y-23149999D02*
X31416033Y-23149999D01*
X31416033Y-23149999D02*
X31482700Y-23183333D01*
X31482700Y-23183333D02*
X31516033Y-23216666D01*
X31516033Y-23216666D02*
X31549366Y-23283333D01*
X31549366Y-23283333D02*
X31549366Y-23516666D01*
X31216033Y-22883333D02*
X31216033Y-22416666D01*
X31216033Y-22416666D02*
X31916033Y-22716666D01*
X31343247Y-16226666D02*
X31343247Y-16493332D01*
X31762295Y-16493332D02*
X30962295Y-16493332D01*
X30962295Y-16493332D02*
X30962295Y-16112380D01*
X31762295Y-15388571D02*
X31762295Y-15845714D01*
X31762295Y-15617142D02*
X30962295Y-15617142D01*
X30962295Y-15617142D02*
X31076580Y-15693333D01*
X31076580Y-15693333D02*
X31152771Y-15769523D01*
X31152771Y-15769523D02*
X31190866Y-15845714D01*
X31864543Y-12336149D02*
X31817403Y-12241868D01*
X31817403Y-12241868D02*
X31817403Y-12194728D01*
X31817403Y-12194728D02*
X31840973Y-12124017D01*
X31840973Y-12124017D02*
X31911683Y-12053307D01*
X31911683Y-12053307D02*
X31982394Y-12029736D01*
X31982394Y-12029736D02*
X32029535Y-12029736D01*
X32029535Y-12029736D02*
X32100245Y-12053307D01*
X32100245Y-12053307D02*
X32288807Y-12241868D01*
X32288807Y-12241868D02*
X31793832Y-12736843D01*
X31793832Y-12736843D02*
X31628841Y-12571852D01*
X31628841Y-12571852D02*
X31605271Y-12501141D01*
X31605271Y-12501141D02*
X31605271Y-12454000D01*
X31605271Y-12454000D02*
X31628841Y-12383290D01*
X31628841Y-12383290D02*
X31675981Y-12336149D01*
X31675981Y-12336149D02*
X31746692Y-12312579D01*
X31746692Y-12312579D02*
X31793832Y-12312579D01*
X31793832Y-12312579D02*
X31864543Y-12336149D01*
X31864543Y-12336149D02*
X32029535Y-12501141D01*
X31086726Y-12029736D02*
X31181006Y-12124017D01*
X31181006Y-12124017D02*
X31251717Y-12147588D01*
X31251717Y-12147588D02*
X31298858Y-12147588D01*
X31298858Y-12147588D02*
X31416709Y-12124017D01*
X31416709Y-12124017D02*
X31534560Y-12053307D01*
X31534560Y-12053307D02*
X31723122Y-11864745D01*
X31723122Y-11864745D02*
X31746692Y-11794034D01*
X31746692Y-11794034D02*
X31746692Y-11746894D01*
X31746692Y-11746894D02*
X31723122Y-11676183D01*
X31723122Y-11676183D02*
X31628841Y-11581902D01*
X31628841Y-11581902D02*
X31558130Y-11558332D01*
X31558130Y-11558332D02*
X31510990Y-11558332D01*
X31510990Y-11558332D02*
X31440279Y-11581902D01*
X31440279Y-11581902D02*
X31322428Y-11699753D01*
X31322428Y-11699753D02*
X31298858Y-11770464D01*
X31298858Y-11770464D02*
X31298858Y-11817604D01*
X31298858Y-11817604D02*
X31322428Y-11888315D01*
X31322428Y-11888315D02*
X31416709Y-11982596D01*
X31416709Y-11982596D02*
X31487419Y-12006166D01*
X31487419Y-12006166D02*
X31534560Y-12006166D01*
X31534560Y-12006166D02*
X31605271Y-11982596D01*
X25293247Y-13362809D02*
X25331342Y-13248523D01*
X25331342Y-13248523D02*
X25369438Y-13210428D01*
X25369438Y-13210428D02*
X25445628Y-13172332D01*
X25445628Y-13172332D02*
X25559914Y-13172332D01*
X25559914Y-13172332D02*
X25636104Y-13210428D01*
X25636104Y-13210428D02*
X25674200Y-13248523D01*
X25674200Y-13248523D02*
X25712295Y-13324713D01*
X25712295Y-13324713D02*
X25712295Y-13629475D01*
X25712295Y-13629475D02*
X24912295Y-13629475D01*
X24912295Y-13629475D02*
X24912295Y-13362809D01*
X24912295Y-13362809D02*
X24950390Y-13286618D01*
X24950390Y-13286618D02*
X24988485Y-13248523D01*
X24988485Y-13248523D02*
X25064676Y-13210428D01*
X25064676Y-13210428D02*
X25140866Y-13210428D01*
X25140866Y-13210428D02*
X25217057Y-13248523D01*
X25217057Y-13248523D02*
X25255152Y-13286618D01*
X25255152Y-13286618D02*
X25293247Y-13362809D01*
X25293247Y-13362809D02*
X25293247Y-13629475D01*
X25712295Y-12410428D02*
X25712295Y-12867571D01*
X25712295Y-12638999D02*
X24912295Y-12638999D01*
X24912295Y-12638999D02*
X25026580Y-12715190D01*
X25026580Y-12715190D02*
X25102771Y-12791380D01*
X25102771Y-12791380D02*
X25140866Y-12867571D01*
X7932295Y-24551475D02*
X7132295Y-24551475D01*
X7132295Y-24551475D02*
X7132295Y-24360999D01*
X7132295Y-24360999D02*
X7170390Y-24246713D01*
X7170390Y-24246713D02*
X7246580Y-24170523D01*
X7246580Y-24170523D02*
X7322771Y-24132428D01*
X7322771Y-24132428D02*
X7475152Y-24094332D01*
X7475152Y-24094332D02*
X7589438Y-24094332D01*
X7589438Y-24094332D02*
X7741819Y-24132428D01*
X7741819Y-24132428D02*
X7818009Y-24170523D01*
X7818009Y-24170523D02*
X7894200Y-24246713D01*
X7894200Y-24246713D02*
X7932295Y-24360999D01*
X7932295Y-24360999D02*
X7932295Y-24551475D01*
X7208485Y-23789571D02*
X7170390Y-23751475D01*
X7170390Y-23751475D02*
X7132295Y-23675285D01*
X7132295Y-23675285D02*
X7132295Y-23484809D01*
X7132295Y-23484809D02*
X7170390Y-23408618D01*
X7170390Y-23408618D02*
X7208485Y-23370523D01*
X7208485Y-23370523D02*
X7284676Y-23332428D01*
X7284676Y-23332428D02*
X7360866Y-23332428D01*
X7360866Y-23332428D02*
X7475152Y-23370523D01*
X7475152Y-23370523D02*
X7932295Y-23827666D01*
X7932295Y-23827666D02*
X7932295Y-23332428D01*
X4592295Y-24262348D02*
X4592295Y-23805205D01*
X5392295Y-24033777D02*
X4592295Y-24033777D01*
X4592295Y-23614729D02*
X5392295Y-23081395D01*
X4592295Y-23081395D02*
X5392295Y-23614729D01*
X4592295Y-22624252D02*
X4592295Y-22548062D01*
X4592295Y-22548062D02*
X4630390Y-22471871D01*
X4630390Y-22471871D02*
X4668485Y-22433776D01*
X4668485Y-22433776D02*
X4744676Y-22395681D01*
X4744676Y-22395681D02*
X4897057Y-22357586D01*
X4897057Y-22357586D02*
X5087533Y-22357586D01*
X5087533Y-22357586D02*
X5239914Y-22395681D01*
X5239914Y-22395681D02*
X5316104Y-22433776D01*
X5316104Y-22433776D02*
X5354200Y-22471871D01*
X5354200Y-22471871D02*
X5392295Y-22548062D01*
X5392295Y-22548062D02*
X5392295Y-22624252D01*
X5392295Y-22624252D02*
X5354200Y-22700443D01*
X5354200Y-22700443D02*
X5316104Y-22738538D01*
X5316104Y-22738538D02*
X5239914Y-22776633D01*
X5239914Y-22776633D02*
X5087533Y-22814729D01*
X5087533Y-22814729D02*
X4897057Y-22814729D01*
X4897057Y-22814729D02*
X4744676Y-22776633D01*
X4744676Y-22776633D02*
X4668485Y-22738538D01*
X4668485Y-22738538D02*
X4630390Y-22700443D01*
X4630390Y-22700443D02*
X4592295Y-22624252D01*
X4554200Y-21443300D02*
X5582771Y-22129014D01*
X5392295Y-21176633D02*
X4592295Y-21176633D01*
X4592295Y-21176633D02*
X4592295Y-20986157D01*
X4592295Y-20986157D02*
X4630390Y-20871871D01*
X4630390Y-20871871D02*
X4706580Y-20795681D01*
X4706580Y-20795681D02*
X4782771Y-20757586D01*
X4782771Y-20757586D02*
X4935152Y-20719490D01*
X4935152Y-20719490D02*
X5049438Y-20719490D01*
X5049438Y-20719490D02*
X5201819Y-20757586D01*
X5201819Y-20757586D02*
X5278009Y-20795681D01*
X5278009Y-20795681D02*
X5354200Y-20871871D01*
X5354200Y-20871871D02*
X5392295Y-20986157D01*
X5392295Y-20986157D02*
X5392295Y-21176633D01*
X4592295Y-20452824D02*
X4592295Y-19957586D01*
X4592295Y-19957586D02*
X4897057Y-20224252D01*
X4897057Y-20224252D02*
X4897057Y-20109967D01*
X4897057Y-20109967D02*
X4935152Y-20033776D01*
X4935152Y-20033776D02*
X4973247Y-19995681D01*
X4973247Y-19995681D02*
X5049438Y-19957586D01*
X5049438Y-19957586D02*
X5239914Y-19957586D01*
X5239914Y-19957586D02*
X5316104Y-19995681D01*
X5316104Y-19995681D02*
X5354200Y-20033776D01*
X5354200Y-20033776D02*
X5392295Y-20109967D01*
X5392295Y-20109967D02*
X5392295Y-20338538D01*
X5392295Y-20338538D02*
X5354200Y-20414729D01*
X5354200Y-20414729D02*
X5316104Y-20452824D01*
X27833247Y-13362809D02*
X27871342Y-13248523D01*
X27871342Y-13248523D02*
X27909438Y-13210428D01*
X27909438Y-13210428D02*
X27985628Y-13172332D01*
X27985628Y-13172332D02*
X28099914Y-13172332D01*
X28099914Y-13172332D02*
X28176104Y-13210428D01*
X28176104Y-13210428D02*
X28214200Y-13248523D01*
X28214200Y-13248523D02*
X28252295Y-13324713D01*
X28252295Y-13324713D02*
X28252295Y-13629475D01*
X28252295Y-13629475D02*
X27452295Y-13629475D01*
X27452295Y-13629475D02*
X27452295Y-13362809D01*
X27452295Y-13362809D02*
X27490390Y-13286618D01*
X27490390Y-13286618D02*
X27528485Y-13248523D01*
X27528485Y-13248523D02*
X27604676Y-13210428D01*
X27604676Y-13210428D02*
X27680866Y-13210428D01*
X27680866Y-13210428D02*
X27757057Y-13248523D01*
X27757057Y-13248523D02*
X27795152Y-13286618D01*
X27795152Y-13286618D02*
X27833247Y-13362809D01*
X27833247Y-13362809D02*
X27833247Y-13629475D01*
X27452295Y-12905666D02*
X27452295Y-12410428D01*
X27452295Y-12410428D02*
X27757057Y-12677094D01*
X27757057Y-12677094D02*
X27757057Y-12562809D01*
X27757057Y-12562809D02*
X27795152Y-12486618D01*
X27795152Y-12486618D02*
X27833247Y-12448523D01*
X27833247Y-12448523D02*
X27909438Y-12410428D01*
X27909438Y-12410428D02*
X28099914Y-12410428D01*
X28099914Y-12410428D02*
X28176104Y-12448523D01*
X28176104Y-12448523D02*
X28214200Y-12486618D01*
X28214200Y-12486618D02*
X28252295Y-12562809D01*
X28252295Y-12562809D02*
X28252295Y-12791380D01*
X28252295Y-12791380D02*
X28214200Y-12867571D01*
X28214200Y-12867571D02*
X28176104Y-12905666D01*
X25712295Y-24551475D02*
X24912295Y-24551475D01*
X24912295Y-24551475D02*
X24912295Y-24360999D01*
X24912295Y-24360999D02*
X24950390Y-24246713D01*
X24950390Y-24246713D02*
X25026580Y-24170523D01*
X25026580Y-24170523D02*
X25102771Y-24132428D01*
X25102771Y-24132428D02*
X25255152Y-24094332D01*
X25255152Y-24094332D02*
X25369438Y-24094332D01*
X25369438Y-24094332D02*
X25521819Y-24132428D01*
X25521819Y-24132428D02*
X25598009Y-24170523D01*
X25598009Y-24170523D02*
X25674200Y-24246713D01*
X25674200Y-24246713D02*
X25712295Y-24360999D01*
X25712295Y-24360999D02*
X25712295Y-24551475D01*
X24912295Y-23827666D02*
X24912295Y-23294332D01*
X24912295Y-23294332D02*
X25712295Y-23637190D01*
X12212295Y-14105666D02*
X13012295Y-13838999D01*
X13012295Y-13838999D02*
X12212295Y-13572333D01*
X12936104Y-12848523D02*
X12974200Y-12886619D01*
X12974200Y-12886619D02*
X13012295Y-13000904D01*
X13012295Y-13000904D02*
X13012295Y-13077095D01*
X13012295Y-13077095D02*
X12974200Y-13191381D01*
X12974200Y-13191381D02*
X12898009Y-13267571D01*
X12898009Y-13267571D02*
X12821819Y-13305666D01*
X12821819Y-13305666D02*
X12669438Y-13343762D01*
X12669438Y-13343762D02*
X12555152Y-13343762D01*
X12555152Y-13343762D02*
X12402771Y-13305666D01*
X12402771Y-13305666D02*
X12326580Y-13267571D01*
X12326580Y-13267571D02*
X12250390Y-13191381D01*
X12250390Y-13191381D02*
X12212295Y-13077095D01*
X12212295Y-13077095D02*
X12212295Y-13000904D01*
X12212295Y-13000904D02*
X12250390Y-12886619D01*
X12250390Y-12886619D02*
X12288485Y-12848523D01*
X12936104Y-12048523D02*
X12974200Y-12086619D01*
X12974200Y-12086619D02*
X13012295Y-12200904D01*
X13012295Y-12200904D02*
X13012295Y-12277095D01*
X13012295Y-12277095D02*
X12974200Y-12391381D01*
X12974200Y-12391381D02*
X12898009Y-12467571D01*
X12898009Y-12467571D02*
X12821819Y-12505666D01*
X12821819Y-12505666D02*
X12669438Y-12543762D01*
X12669438Y-12543762D02*
X12555152Y-12543762D01*
X12555152Y-12543762D02*
X12402771Y-12505666D01*
X12402771Y-12505666D02*
X12326580Y-12467571D01*
X12326580Y-12467571D02*
X12250390Y-12391381D01*
X12250390Y-12391381D02*
X12212295Y-12277095D01*
X12212295Y-12277095D02*
X12212295Y-12200904D01*
X12212295Y-12200904D02*
X12250390Y-12086619D01*
X12250390Y-12086619D02*
X12288485Y-12048523D01*
X31549366Y-14233333D02*
X31549366Y-14466666D01*
X31916033Y-14466666D02*
X31216033Y-14466666D01*
X31216033Y-14466666D02*
X31216033Y-14133333D01*
X31216033Y-13733333D02*
X31216033Y-13666666D01*
X31216033Y-13666666D02*
X31249366Y-13599999D01*
X31249366Y-13599999D02*
X31282700Y-13566666D01*
X31282700Y-13566666D02*
X31349366Y-13533333D01*
X31349366Y-13533333D02*
X31482700Y-13499999D01*
X31482700Y-13499999D02*
X31649366Y-13499999D01*
X31649366Y-13499999D02*
X31782700Y-13533333D01*
X31782700Y-13533333D02*
X31849366Y-13566666D01*
X31849366Y-13566666D02*
X31882700Y-13599999D01*
X31882700Y-13599999D02*
X31916033Y-13666666D01*
X31916033Y-13666666D02*
X31916033Y-13733333D01*
X31916033Y-13733333D02*
X31882700Y-13799999D01*
X31882700Y-13799999D02*
X31849366Y-13833333D01*
X31849366Y-13833333D02*
X31782700Y-13866666D01*
X31782700Y-13866666D02*
X31649366Y-13899999D01*
X31649366Y-13899999D02*
X31482700Y-13899999D01*
X31482700Y-13899999D02*
X31349366Y-13866666D01*
X31349366Y-13866666D02*
X31282700Y-13833333D01*
X31282700Y-13833333D02*
X31249366Y-13799999D01*
X31249366Y-13799999D02*
X31216033Y-13733333D01*
X20213247Y-13305666D02*
X20213247Y-13572332D01*
X20632295Y-13572332D02*
X19832295Y-13572332D01*
X19832295Y-13572332D02*
X19832295Y-13191380D01*
X19832295Y-12543761D02*
X19832295Y-12696142D01*
X19832295Y-12696142D02*
X19870390Y-12772333D01*
X19870390Y-12772333D02*
X19908485Y-12810428D01*
X19908485Y-12810428D02*
X20022771Y-12886618D01*
X20022771Y-12886618D02*
X20175152Y-12924714D01*
X20175152Y-12924714D02*
X20479914Y-12924714D01*
X20479914Y-12924714D02*
X20556104Y-12886618D01*
X20556104Y-12886618D02*
X20594200Y-12848523D01*
X20594200Y-12848523D02*
X20632295Y-12772333D01*
X20632295Y-12772333D02*
X20632295Y-12619952D01*
X20632295Y-12619952D02*
X20594200Y-12543761D01*
X20594200Y-12543761D02*
X20556104Y-12505666D01*
X20556104Y-12505666D02*
X20479914Y-12467571D01*
X20479914Y-12467571D02*
X20289438Y-12467571D01*
X20289438Y-12467571D02*
X20213247Y-12505666D01*
X20213247Y-12505666D02*
X20175152Y-12543761D01*
X20175152Y-12543761D02*
X20137057Y-12619952D01*
X20137057Y-12619952D02*
X20137057Y-12772333D01*
X20137057Y-12772333D02*
X20175152Y-12848523D01*
X20175152Y-12848523D02*
X20213247Y-12886618D01*
X20213247Y-12886618D02*
X20289438Y-12924714D01*
X9710390Y-24570523D02*
X9672295Y-24646713D01*
X9672295Y-24646713D02*
X9672295Y-24760999D01*
X9672295Y-24760999D02*
X9710390Y-24875285D01*
X9710390Y-24875285D02*
X9786580Y-24951475D01*
X9786580Y-24951475D02*
X9862771Y-24989570D01*
X9862771Y-24989570D02*
X10015152Y-25027666D01*
X10015152Y-25027666D02*
X10129438Y-25027666D01*
X10129438Y-25027666D02*
X10281819Y-24989570D01*
X10281819Y-24989570D02*
X10358009Y-24951475D01*
X10358009Y-24951475D02*
X10434200Y-24875285D01*
X10434200Y-24875285D02*
X10472295Y-24760999D01*
X10472295Y-24760999D02*
X10472295Y-24684808D01*
X10472295Y-24684808D02*
X10434200Y-24570523D01*
X10434200Y-24570523D02*
X10396104Y-24532427D01*
X10396104Y-24532427D02*
X10129438Y-24532427D01*
X10129438Y-24532427D02*
X10129438Y-24684808D01*
X10472295Y-24189570D02*
X9672295Y-24189570D01*
X9672295Y-24189570D02*
X10472295Y-23732427D01*
X10472295Y-23732427D02*
X9672295Y-23732427D01*
X10472295Y-23351475D02*
X9672295Y-23351475D01*
X9672295Y-23351475D02*
X9672295Y-23160999D01*
X9672295Y-23160999D02*
X9710390Y-23046713D01*
X9710390Y-23046713D02*
X9786580Y-22970523D01*
X9786580Y-22970523D02*
X9862771Y-22932428D01*
X9862771Y-22932428D02*
X10015152Y-22894332D01*
X10015152Y-22894332D02*
X10129438Y-22894332D01*
X10129438Y-22894332D02*
X10281819Y-22932428D01*
X10281819Y-22932428D02*
X10358009Y-22970523D01*
X10358009Y-22970523D02*
X10434200Y-23046713D01*
X10434200Y-23046713D02*
X10472295Y-23160999D01*
X10472295Y-23160999D02*
X10472295Y-23351475D01*
X12250390Y-24570523D02*
X12212295Y-24646713D01*
X12212295Y-24646713D02*
X12212295Y-24760999D01*
X12212295Y-24760999D02*
X12250390Y-24875285D01*
X12250390Y-24875285D02*
X12326580Y-24951475D01*
X12326580Y-24951475D02*
X12402771Y-24989570D01*
X12402771Y-24989570D02*
X12555152Y-25027666D01*
X12555152Y-25027666D02*
X12669438Y-25027666D01*
X12669438Y-25027666D02*
X12821819Y-24989570D01*
X12821819Y-24989570D02*
X12898009Y-24951475D01*
X12898009Y-24951475D02*
X12974200Y-24875285D01*
X12974200Y-24875285D02*
X13012295Y-24760999D01*
X13012295Y-24760999D02*
X13012295Y-24684808D01*
X13012295Y-24684808D02*
X12974200Y-24570523D01*
X12974200Y-24570523D02*
X12936104Y-24532427D01*
X12936104Y-24532427D02*
X12669438Y-24532427D01*
X12669438Y-24532427D02*
X12669438Y-24684808D01*
X13012295Y-24189570D02*
X12212295Y-24189570D01*
X12212295Y-24189570D02*
X13012295Y-23732427D01*
X13012295Y-23732427D02*
X12212295Y-23732427D01*
X13012295Y-23351475D02*
X12212295Y-23351475D01*
X12212295Y-23351475D02*
X12212295Y-23160999D01*
X12212295Y-23160999D02*
X12250390Y-23046713D01*
X12250390Y-23046713D02*
X12326580Y-22970523D01*
X12326580Y-22970523D02*
X12402771Y-22932428D01*
X12402771Y-22932428D02*
X12555152Y-22894332D01*
X12555152Y-22894332D02*
X12669438Y-22894332D01*
X12669438Y-22894332D02*
X12821819Y-22932428D01*
X12821819Y-22932428D02*
X12898009Y-22970523D01*
X12898009Y-22970523D02*
X12974200Y-23046713D01*
X12974200Y-23046713D02*
X13012295Y-23160999D01*
X13012295Y-23160999D02*
X13012295Y-23351475D01*
X31463850Y-25064543D02*
X31558131Y-25017403D01*
X31558131Y-25017403D02*
X31605271Y-25017403D01*
X31605271Y-25017403D02*
X31675982Y-25040973D01*
X31675982Y-25040973D02*
X31746692Y-25111683D01*
X31746692Y-25111683D02*
X31770263Y-25182394D01*
X31770263Y-25182394D02*
X31770263Y-25229535D01*
X31770263Y-25229535D02*
X31746692Y-25300245D01*
X31746692Y-25300245D02*
X31558131Y-25488807D01*
X31558131Y-25488807D02*
X31063156Y-24993832D01*
X31063156Y-24993832D02*
X31228147Y-24828841D01*
X31228147Y-24828841D02*
X31298858Y-24805271D01*
X31298858Y-24805271D02*
X31345999Y-24805271D01*
X31345999Y-24805271D02*
X31416709Y-24828841D01*
X31416709Y-24828841D02*
X31463850Y-24875981D01*
X31463850Y-24875981D02*
X31487420Y-24946692D01*
X31487420Y-24946692D02*
X31487420Y-24993832D01*
X31487420Y-24993832D02*
X31463850Y-25064543D01*
X31463850Y-25064543D02*
X31298858Y-25229535D01*
X31793833Y-24263155D02*
X31558131Y-24498858D01*
X31558131Y-24498858D02*
X31770263Y-24758130D01*
X31770263Y-24758130D02*
X31770263Y-24710990D01*
X31770263Y-24710990D02*
X31793833Y-24640279D01*
X31793833Y-24640279D02*
X31911684Y-24522428D01*
X31911684Y-24522428D02*
X31982395Y-24498858D01*
X31982395Y-24498858D02*
X32029535Y-24498858D01*
X32029535Y-24498858D02*
X32100246Y-24522428D01*
X32100246Y-24522428D02*
X32218097Y-24640279D01*
X32218097Y-24640279D02*
X32241667Y-24710990D01*
X32241667Y-24710990D02*
X32241667Y-24758130D01*
X32241667Y-24758130D02*
X32218097Y-24828841D01*
X32218097Y-24828841D02*
X32100246Y-24946692D01*
X32100246Y-24946692D02*
X32029535Y-24970262D01*
X32029535Y-24970262D02*
X31982395Y-24970262D01*
X18092295Y-24551475D02*
X17292295Y-24551475D01*
X17292295Y-24551475D02*
X17292295Y-24360999D01*
X17292295Y-24360999D02*
X17330390Y-24246713D01*
X17330390Y-24246713D02*
X17406580Y-24170523D01*
X17406580Y-24170523D02*
X17482771Y-24132428D01*
X17482771Y-24132428D02*
X17635152Y-24094332D01*
X17635152Y-24094332D02*
X17749438Y-24094332D01*
X17749438Y-24094332D02*
X17901819Y-24132428D01*
X17901819Y-24132428D02*
X17978009Y-24170523D01*
X17978009Y-24170523D02*
X18054200Y-24246713D01*
X18054200Y-24246713D02*
X18092295Y-24360999D01*
X18092295Y-24360999D02*
X18092295Y-24551475D01*
X17292295Y-23599094D02*
X17292295Y-23522904D01*
X17292295Y-23522904D02*
X17330390Y-23446713D01*
X17330390Y-23446713D02*
X17368485Y-23408618D01*
X17368485Y-23408618D02*
X17444676Y-23370523D01*
X17444676Y-23370523D02*
X17597057Y-23332428D01*
X17597057Y-23332428D02*
X17787533Y-23332428D01*
X17787533Y-23332428D02*
X17939914Y-23370523D01*
X17939914Y-23370523D02*
X18016104Y-23408618D01*
X18016104Y-23408618D02*
X18054200Y-23446713D01*
X18054200Y-23446713D02*
X18092295Y-23522904D01*
X18092295Y-23522904D02*
X18092295Y-23599094D01*
X18092295Y-23599094D02*
X18054200Y-23675285D01*
X18054200Y-23675285D02*
X18016104Y-23713380D01*
X18016104Y-23713380D02*
X17939914Y-23751475D01*
X17939914Y-23751475D02*
X17787533Y-23789571D01*
X17787533Y-23789571D02*
X17597057Y-23789571D01*
X17597057Y-23789571D02*
X17444676Y-23751475D01*
X17444676Y-23751475D02*
X17368485Y-23713380D01*
X17368485Y-23713380D02*
X17330390Y-23675285D01*
X17330390Y-23675285D02*
X17292295Y-23599094D01*
X17673247Y-13305666D02*
X17673247Y-13572332D01*
X18092295Y-13572332D02*
X17292295Y-13572332D01*
X17292295Y-13572332D02*
X17292295Y-13191380D01*
X17292295Y-12505666D02*
X17292295Y-12886618D01*
X17292295Y-12886618D02*
X17673247Y-12924714D01*
X17673247Y-12924714D02*
X17635152Y-12886618D01*
X17635152Y-12886618D02*
X17597057Y-12810428D01*
X17597057Y-12810428D02*
X17597057Y-12619952D01*
X17597057Y-12619952D02*
X17635152Y-12543761D01*
X17635152Y-12543761D02*
X17673247Y-12505666D01*
X17673247Y-12505666D02*
X17749438Y-12467571D01*
X17749438Y-12467571D02*
X17939914Y-12467571D01*
X17939914Y-12467571D02*
X18016104Y-12505666D01*
X18016104Y-12505666D02*
X18054200Y-12543761D01*
X18054200Y-12543761D02*
X18092295Y-12619952D01*
X18092295Y-12619952D02*
X18092295Y-12810428D01*
X18092295Y-12810428D02*
X18054200Y-12886618D01*
X18054200Y-12886618D02*
X18016104Y-12924714D01*
X30373247Y-24284809D02*
X30411342Y-24170523D01*
X30411342Y-24170523D02*
X30449438Y-24132428D01*
X30449438Y-24132428D02*
X30525628Y-24094332D01*
X30525628Y-24094332D02*
X30639914Y-24094332D01*
X30639914Y-24094332D02*
X30716104Y-24132428D01*
X30716104Y-24132428D02*
X30754200Y-24170523D01*
X30754200Y-24170523D02*
X30792295Y-24246713D01*
X30792295Y-24246713D02*
X30792295Y-24551475D01*
X30792295Y-24551475D02*
X29992295Y-24551475D01*
X29992295Y-24551475D02*
X29992295Y-24284809D01*
X29992295Y-24284809D02*
X30030390Y-24208618D01*
X30030390Y-24208618D02*
X30068485Y-24170523D01*
X30068485Y-24170523D02*
X30144676Y-24132428D01*
X30144676Y-24132428D02*
X30220866Y-24132428D01*
X30220866Y-24132428D02*
X30297057Y-24170523D01*
X30297057Y-24170523D02*
X30335152Y-24208618D01*
X30335152Y-24208618D02*
X30373247Y-24284809D01*
X30373247Y-24284809D02*
X30373247Y-24551475D01*
X30258961Y-23408618D02*
X30792295Y-23408618D01*
X29954200Y-23599094D02*
X30525628Y-23789571D01*
X30525628Y-23789571D02*
X30525628Y-23294332D01*
X15552295Y-24551475D02*
X14752295Y-24551475D01*
X14752295Y-24551475D02*
X14752295Y-24360999D01*
X14752295Y-24360999D02*
X14790390Y-24246713D01*
X14790390Y-24246713D02*
X14866580Y-24170523D01*
X14866580Y-24170523D02*
X14942771Y-24132428D01*
X14942771Y-24132428D02*
X15095152Y-24094332D01*
X15095152Y-24094332D02*
X15209438Y-24094332D01*
X15209438Y-24094332D02*
X15361819Y-24132428D01*
X15361819Y-24132428D02*
X15438009Y-24170523D01*
X15438009Y-24170523D02*
X15514200Y-24246713D01*
X15514200Y-24246713D02*
X15552295Y-24360999D01*
X15552295Y-24360999D02*
X15552295Y-24551475D01*
X15552295Y-23332428D02*
X15552295Y-23789571D01*
X15552295Y-23560999D02*
X14752295Y-23560999D01*
X14752295Y-23560999D02*
X14866580Y-23637190D01*
X14866580Y-23637190D02*
X14942771Y-23713380D01*
X14942771Y-23713380D02*
X14980866Y-23789571D01*
X20632295Y-24551475D02*
X19832295Y-24551475D01*
X19832295Y-24551475D02*
X19832295Y-24360999D01*
X19832295Y-24360999D02*
X19870390Y-24246713D01*
X19870390Y-24246713D02*
X19946580Y-24170523D01*
X19946580Y-24170523D02*
X20022771Y-24132428D01*
X20022771Y-24132428D02*
X20175152Y-24094332D01*
X20175152Y-24094332D02*
X20289438Y-24094332D01*
X20289438Y-24094332D02*
X20441819Y-24132428D01*
X20441819Y-24132428D02*
X20518009Y-24170523D01*
X20518009Y-24170523D02*
X20594200Y-24246713D01*
X20594200Y-24246713D02*
X20632295Y-24360999D01*
X20632295Y-24360999D02*
X20632295Y-24551475D01*
X20098961Y-23408618D02*
X20632295Y-23408618D01*
X19794200Y-23599094D02*
X20365628Y-23789571D01*
X20365628Y-23789571D02*
X20365628Y-23294332D01*
X15133247Y-13305666D02*
X15133247Y-13572332D01*
X15552295Y-13572332D02*
X14752295Y-13572332D01*
X14752295Y-13572332D02*
X14752295Y-13191380D01*
X15018961Y-12543761D02*
X15552295Y-12543761D01*
X14714200Y-12734237D02*
X15285628Y-12924714D01*
X15285628Y-12924714D02*
X15285628Y-12429475D01*
X27833247Y-24513380D02*
X27833247Y-24246714D01*
X28252295Y-24132428D02*
X28252295Y-24513380D01*
X28252295Y-24513380D02*
X27452295Y-24513380D01*
X27452295Y-24513380D02*
X27452295Y-24132428D01*
X27452295Y-23446713D02*
X27452295Y-23599094D01*
X27452295Y-23599094D02*
X27490390Y-23675285D01*
X27490390Y-23675285D02*
X27528485Y-23713380D01*
X27528485Y-23713380D02*
X27642771Y-23789570D01*
X27642771Y-23789570D02*
X27795152Y-23827666D01*
X27795152Y-23827666D02*
X28099914Y-23827666D01*
X28099914Y-23827666D02*
X28176104Y-23789570D01*
X28176104Y-23789570D02*
X28214200Y-23751475D01*
X28214200Y-23751475D02*
X28252295Y-23675285D01*
X28252295Y-23675285D02*
X28252295Y-23522904D01*
X28252295Y-23522904D02*
X28214200Y-23446713D01*
X28214200Y-23446713D02*
X28176104Y-23408618D01*
X28176104Y-23408618D02*
X28099914Y-23370523D01*
X28099914Y-23370523D02*
X27909438Y-23370523D01*
X27909438Y-23370523D02*
X27833247Y-23408618D01*
X27833247Y-23408618D02*
X27795152Y-23446713D01*
X27795152Y-23446713D02*
X27757057Y-23522904D01*
X27757057Y-23522904D02*
X27757057Y-23675285D01*
X27757057Y-23675285D02*
X27795152Y-23751475D01*
X27795152Y-23751475D02*
X27833247Y-23789570D01*
X27833247Y-23789570D02*
X27909438Y-23827666D01*
X10404200Y-13300213D02*
X10442295Y-13185927D01*
X10442295Y-13185927D02*
X10442295Y-12995451D01*
X10442295Y-12995451D02*
X10404200Y-12919260D01*
X10404200Y-12919260D02*
X10366104Y-12881165D01*
X10366104Y-12881165D02*
X10289914Y-12843070D01*
X10289914Y-12843070D02*
X10213723Y-12843070D01*
X10213723Y-12843070D02*
X10137533Y-12881165D01*
X10137533Y-12881165D02*
X10099438Y-12919260D01*
X10099438Y-12919260D02*
X10061342Y-12995451D01*
X10061342Y-12995451D02*
X10023247Y-13147832D01*
X10023247Y-13147832D02*
X9985152Y-13224022D01*
X9985152Y-13224022D02*
X9947057Y-13262117D01*
X9947057Y-13262117D02*
X9870866Y-13300213D01*
X9870866Y-13300213D02*
X9794676Y-13300213D01*
X9794676Y-13300213D02*
X9718485Y-13262117D01*
X9718485Y-13262117D02*
X9680390Y-13224022D01*
X9680390Y-13224022D02*
X9642295Y-13147832D01*
X9642295Y-13147832D02*
X9642295Y-12957355D01*
X9642295Y-12957355D02*
X9680390Y-12843070D01*
X9642295Y-12614498D02*
X9642295Y-12157355D01*
X10442295Y-12385927D02*
X9642295Y-12385927D01*
X4973247Y-13362809D02*
X5011342Y-13248523D01*
X5011342Y-13248523D02*
X5049438Y-13210428D01*
X5049438Y-13210428D02*
X5125628Y-13172332D01*
X5125628Y-13172332D02*
X5239914Y-13172332D01*
X5239914Y-13172332D02*
X5316104Y-13210428D01*
X5316104Y-13210428D02*
X5354200Y-13248523D01*
X5354200Y-13248523D02*
X5392295Y-13324713D01*
X5392295Y-13324713D02*
X5392295Y-13629475D01*
X5392295Y-13629475D02*
X4592295Y-13629475D01*
X4592295Y-13629475D02*
X4592295Y-13362809D01*
X4592295Y-13362809D02*
X4630390Y-13286618D01*
X4630390Y-13286618D02*
X4668485Y-13248523D01*
X4668485Y-13248523D02*
X4744676Y-13210428D01*
X4744676Y-13210428D02*
X4820866Y-13210428D01*
X4820866Y-13210428D02*
X4897057Y-13248523D01*
X4897057Y-13248523D02*
X4935152Y-13286618D01*
X4935152Y-13286618D02*
X4973247Y-13362809D01*
X4973247Y-13362809D02*
X4973247Y-13629475D01*
X4592295Y-12677094D02*
X4592295Y-12600904D01*
X4592295Y-12600904D02*
X4630390Y-12524713D01*
X4630390Y-12524713D02*
X4668485Y-12486618D01*
X4668485Y-12486618D02*
X4744676Y-12448523D01*
X4744676Y-12448523D02*
X4897057Y-12410428D01*
X4897057Y-12410428D02*
X5087533Y-12410428D01*
X5087533Y-12410428D02*
X5239914Y-12448523D01*
X5239914Y-12448523D02*
X5316104Y-12486618D01*
X5316104Y-12486618D02*
X5354200Y-12524713D01*
X5354200Y-12524713D02*
X5392295Y-12600904D01*
X5392295Y-12600904D02*
X5392295Y-12677094D01*
X5392295Y-12677094D02*
X5354200Y-12753285D01*
X5354200Y-12753285D02*
X5316104Y-12791380D01*
X5316104Y-12791380D02*
X5239914Y-12829475D01*
X5239914Y-12829475D02*
X5087533Y-12867571D01*
X5087533Y-12867571D02*
X4897057Y-12867571D01*
X4897057Y-12867571D02*
X4744676Y-12829475D01*
X4744676Y-12829475D02*
X4668485Y-12791380D01*
X4668485Y-12791380D02*
X4630390Y-12753285D01*
X4630390Y-12753285D02*
X4592295Y-12677094D01*
X31762295Y-21630475D02*
X30962295Y-21630475D01*
X30962295Y-21630475D02*
X30962295Y-21439999D01*
X30962295Y-21439999D02*
X31000390Y-21325713D01*
X31000390Y-21325713D02*
X31076580Y-21249523D01*
X31076580Y-21249523D02*
X31152771Y-21211428D01*
X31152771Y-21211428D02*
X31305152Y-21173332D01*
X31305152Y-21173332D02*
X31419438Y-21173332D01*
X31419438Y-21173332D02*
X31571819Y-21211428D01*
X31571819Y-21211428D02*
X31648009Y-21249523D01*
X31648009Y-21249523D02*
X31724200Y-21325713D01*
X31724200Y-21325713D02*
X31762295Y-21439999D01*
X31762295Y-21439999D02*
X31762295Y-21630475D01*
X30962295Y-20449523D02*
X30962295Y-20830475D01*
X30962295Y-20830475D02*
X31343247Y-20868571D01*
X31343247Y-20868571D02*
X31305152Y-20830475D01*
X31305152Y-20830475D02*
X31267057Y-20754285D01*
X31267057Y-20754285D02*
X31267057Y-20563809D01*
X31267057Y-20563809D02*
X31305152Y-20487618D01*
X31305152Y-20487618D02*
X31343247Y-20449523D01*
X31343247Y-20449523D02*
X31419438Y-20411428D01*
X31419438Y-20411428D02*
X31609914Y-20411428D01*
X31609914Y-20411428D02*
X31686104Y-20449523D01*
X31686104Y-20449523D02*
X31724200Y-20487618D01*
X31724200Y-20487618D02*
X31762295Y-20563809D01*
X31762295Y-20563809D02*
X31762295Y-20754285D01*
X31762295Y-20754285D02*
X31724200Y-20830475D01*
X31724200Y-20830475D02*
X31686104Y-20868571D01*
X30373247Y-13362809D02*
X30411342Y-13248523D01*
X30411342Y-13248523D02*
X30449438Y-13210428D01*
X30449438Y-13210428D02*
X30525628Y-13172332D01*
X30525628Y-13172332D02*
X30639914Y-13172332D01*
X30639914Y-13172332D02*
X30716104Y-13210428D01*
X30716104Y-13210428D02*
X30754200Y-13248523D01*
X30754200Y-13248523D02*
X30792295Y-13324713D01*
X30792295Y-13324713D02*
X30792295Y-13629475D01*
X30792295Y-13629475D02*
X29992295Y-13629475D01*
X29992295Y-13629475D02*
X29992295Y-13362809D01*
X29992295Y-13362809D02*
X30030390Y-13286618D01*
X30030390Y-13286618D02*
X30068485Y-13248523D01*
X30068485Y-13248523D02*
X30144676Y-13210428D01*
X30144676Y-13210428D02*
X30220866Y-13210428D01*
X30220866Y-13210428D02*
X30297057Y-13248523D01*
X30297057Y-13248523D02*
X30335152Y-13286618D01*
X30335152Y-13286618D02*
X30373247Y-13362809D01*
X30373247Y-13362809D02*
X30373247Y-13629475D01*
X30068485Y-12867571D02*
X30030390Y-12829475D01*
X30030390Y-12829475D02*
X29992295Y-12753285D01*
X29992295Y-12753285D02*
X29992295Y-12562809D01*
X29992295Y-12562809D02*
X30030390Y-12486618D01*
X30030390Y-12486618D02*
X30068485Y-12448523D01*
X30068485Y-12448523D02*
X30144676Y-12410428D01*
X30144676Y-12410428D02*
X30220866Y-12410428D01*
X30220866Y-12410428D02*
X30335152Y-12448523D01*
X30335152Y-12448523D02*
X30792295Y-12905666D01*
X30792295Y-12905666D02*
X30792295Y-12410428D01*
X23096104Y-24094332D02*
X23134200Y-24132428D01*
X23134200Y-24132428D02*
X23172295Y-24246713D01*
X23172295Y-24246713D02*
X23172295Y-24322904D01*
X23172295Y-24322904D02*
X23134200Y-24437190D01*
X23134200Y-24437190D02*
X23058009Y-24513380D01*
X23058009Y-24513380D02*
X22981819Y-24551475D01*
X22981819Y-24551475D02*
X22829438Y-24589571D01*
X22829438Y-24589571D02*
X22715152Y-24589571D01*
X22715152Y-24589571D02*
X22562771Y-24551475D01*
X22562771Y-24551475D02*
X22486580Y-24513380D01*
X22486580Y-24513380D02*
X22410390Y-24437190D01*
X22410390Y-24437190D02*
X22372295Y-24322904D01*
X22372295Y-24322904D02*
X22372295Y-24246713D01*
X22372295Y-24246713D02*
X22410390Y-24132428D01*
X22410390Y-24132428D02*
X22448485Y-24094332D01*
X22372295Y-23408618D02*
X22372295Y-23560999D01*
X22372295Y-23560999D02*
X22410390Y-23637190D01*
X22410390Y-23637190D02*
X22448485Y-23675285D01*
X22448485Y-23675285D02*
X22562771Y-23751475D01*
X22562771Y-23751475D02*
X22715152Y-23789571D01*
X22715152Y-23789571D02*
X23019914Y-23789571D01*
X23019914Y-23789571D02*
X23096104Y-23751475D01*
X23096104Y-23751475D02*
X23134200Y-23713380D01*
X23134200Y-23713380D02*
X23172295Y-23637190D01*
X23172295Y-23637190D02*
X23172295Y-23484809D01*
X23172295Y-23484809D02*
X23134200Y-23408618D01*
X23134200Y-23408618D02*
X23096104Y-23370523D01*
X23096104Y-23370523D02*
X23019914Y-23332428D01*
X23019914Y-23332428D02*
X22829438Y-23332428D01*
X22829438Y-23332428D02*
X22753247Y-23370523D01*
X22753247Y-23370523D02*
X22715152Y-23408618D01*
X22715152Y-23408618D02*
X22677057Y-23484809D01*
X22677057Y-23484809D02*
X22677057Y-23637190D01*
X22677057Y-23637190D02*
X22715152Y-23713380D01*
X22715152Y-23713380D02*
X22753247Y-23751475D01*
X22753247Y-23751475D02*
X22829438Y-23789571D01*
X22753247Y-13305666D02*
X22753247Y-13572332D01*
X23172295Y-13572332D02*
X22372295Y-13572332D01*
X22372295Y-13572332D02*
X22372295Y-13191380D01*
X22372295Y-12962809D02*
X22372295Y-12429475D01*
X22372295Y-12429475D02*
X23172295Y-12772333D01*
X80574819Y-113276785D02*
X79574819Y-113276785D01*
X79574819Y-113276785D02*
X79574819Y-113038690D01*
X79574819Y-113038690D02*
X79622438Y-112895833D01*
X79622438Y-112895833D02*
X79717676Y-112800595D01*
X79717676Y-112800595D02*
X79812914Y-112752976D01*
X79812914Y-112752976D02*
X80003390Y-112705357D01*
X80003390Y-112705357D02*
X80146247Y-112705357D01*
X80146247Y-112705357D02*
X80336723Y-112752976D01*
X80336723Y-112752976D02*
X80431961Y-112800595D01*
X80431961Y-112800595D02*
X80527200Y-112895833D01*
X80527200Y-112895833D02*
X80574819Y-113038690D01*
X80574819Y-113038690D02*
X80574819Y-113276785D01*
X79574819Y-112372023D02*
X79574819Y-111752976D01*
X79574819Y-111752976D02*
X79955771Y-112086309D01*
X79955771Y-112086309D02*
X79955771Y-111943452D01*
X79955771Y-111943452D02*
X80003390Y-111848214D01*
X80003390Y-111848214D02*
X80051009Y-111800595D01*
X80051009Y-111800595D02*
X80146247Y-111752976D01*
X80146247Y-111752976D02*
X80384342Y-111752976D01*
X80384342Y-111752976D02*
X80479580Y-111800595D01*
X80479580Y-111800595D02*
X80527200Y-111848214D01*
X80527200Y-111848214D02*
X80574819Y-111943452D01*
X80574819Y-111943452D02*
X80574819Y-112229166D01*
X80574819Y-112229166D02*
X80527200Y-112324404D01*
X80527200Y-112324404D02*
X80479580Y-112372023D01*
X80574819Y-110800595D02*
X80574819Y-111372023D01*
X80574819Y-111086309D02*
X79574819Y-111086309D01*
X79574819Y-111086309D02*
X79717676Y-111181547D01*
X79717676Y-111181547D02*
X79812914Y-111276785D01*
X79812914Y-111276785D02*
X79860533Y-111372023D01*
X80254819Y-108514404D02*
X79254819Y-108514404D01*
X80254819Y-107942976D02*
X79683390Y-108371547D01*
X79254819Y-107942976D02*
X79826247Y-108514404D01*
X154524819Y-56126785D02*
X153524819Y-56126785D01*
X153524819Y-56126785D02*
X153524819Y-55888690D01*
X153524819Y-55888690D02*
X153572438Y-55745833D01*
X153572438Y-55745833D02*
X153667676Y-55650595D01*
X153667676Y-55650595D02*
X153762914Y-55602976D01*
X153762914Y-55602976D02*
X153953390Y-55555357D01*
X153953390Y-55555357D02*
X154096247Y-55555357D01*
X154096247Y-55555357D02*
X154286723Y-55602976D01*
X154286723Y-55602976D02*
X154381961Y-55650595D01*
X154381961Y-55650595D02*
X154477200Y-55745833D01*
X154477200Y-55745833D02*
X154524819Y-55888690D01*
X154524819Y-55888690D02*
X154524819Y-56126785D01*
X154524819Y-54602976D02*
X154524819Y-55174404D01*
X154524819Y-54888690D02*
X153524819Y-54888690D01*
X153524819Y-54888690D02*
X153667676Y-54983928D01*
X153667676Y-54983928D02*
X153762914Y-55079166D01*
X153762914Y-55079166D02*
X153810533Y-55174404D01*
X153858152Y-53745833D02*
X154524819Y-53745833D01*
X153477200Y-53983928D02*
X154191485Y-54222023D01*
X154191485Y-54222023D02*
X154191485Y-53602976D01*
X154204819Y-51364404D02*
X153204819Y-51364404D01*
X154204819Y-50792976D02*
X153633390Y-51221547D01*
X153204819Y-50792976D02*
X153776247Y-51364404D01*
X116424819Y-56126785D02*
X115424819Y-56126785D01*
X115424819Y-56126785D02*
X115424819Y-55888690D01*
X115424819Y-55888690D02*
X115472438Y-55745833D01*
X115472438Y-55745833D02*
X115567676Y-55650595D01*
X115567676Y-55650595D02*
X115662914Y-55602976D01*
X115662914Y-55602976D02*
X115853390Y-55555357D01*
X115853390Y-55555357D02*
X115996247Y-55555357D01*
X115996247Y-55555357D02*
X116186723Y-55602976D01*
X116186723Y-55602976D02*
X116281961Y-55650595D01*
X116281961Y-55650595D02*
X116377200Y-55745833D01*
X116377200Y-55745833D02*
X116424819Y-55888690D01*
X116424819Y-55888690D02*
X116424819Y-56126785D01*
X116424819Y-54602976D02*
X116424819Y-55174404D01*
X116424819Y-54888690D02*
X115424819Y-54888690D01*
X115424819Y-54888690D02*
X115567676Y-54983928D01*
X115567676Y-54983928D02*
X115662914Y-55079166D01*
X115662914Y-55079166D02*
X115710533Y-55174404D01*
X115520057Y-54222023D02*
X115472438Y-54174404D01*
X115472438Y-54174404D02*
X115424819Y-54079166D01*
X115424819Y-54079166D02*
X115424819Y-53841071D01*
X115424819Y-53841071D02*
X115472438Y-53745833D01*
X115472438Y-53745833D02*
X115520057Y-53698214D01*
X115520057Y-53698214D02*
X115615295Y-53650595D01*
X115615295Y-53650595D02*
X115710533Y-53650595D01*
X115710533Y-53650595D02*
X115853390Y-53698214D01*
X115853390Y-53698214D02*
X116424819Y-54269642D01*
X116424819Y-54269642D02*
X116424819Y-53650595D01*
X116104819Y-51364404D02*
X115104819Y-51364404D01*
X116104819Y-50792976D02*
X115533390Y-51221547D01*
X115104819Y-50792976D02*
X115676247Y-51364404D01*
X64037319Y-132326785D02*
X63037319Y-132326785D01*
X63037319Y-132326785D02*
X63037319Y-132088690D01*
X63037319Y-132088690D02*
X63084938Y-131945833D01*
X63084938Y-131945833D02*
X63180176Y-131850595D01*
X63180176Y-131850595D02*
X63275414Y-131802976D01*
X63275414Y-131802976D02*
X63465890Y-131755357D01*
X63465890Y-131755357D02*
X63608747Y-131755357D01*
X63608747Y-131755357D02*
X63799223Y-131802976D01*
X63799223Y-131802976D02*
X63894461Y-131850595D01*
X63894461Y-131850595D02*
X63989700Y-131945833D01*
X63989700Y-131945833D02*
X64037319Y-132088690D01*
X64037319Y-132088690D02*
X64037319Y-132326785D01*
X63037319Y-131422023D02*
X63037319Y-130802976D01*
X63037319Y-130802976D02*
X63418271Y-131136309D01*
X63418271Y-131136309D02*
X63418271Y-130993452D01*
X63418271Y-130993452D02*
X63465890Y-130898214D01*
X63465890Y-130898214D02*
X63513509Y-130850595D01*
X63513509Y-130850595D02*
X63608747Y-130802976D01*
X63608747Y-130802976D02*
X63846842Y-130802976D01*
X63846842Y-130802976D02*
X63942080Y-130850595D01*
X63942080Y-130850595D02*
X63989700Y-130898214D01*
X63989700Y-130898214D02*
X64037319Y-130993452D01*
X64037319Y-130993452D02*
X64037319Y-131279166D01*
X64037319Y-131279166D02*
X63989700Y-131374404D01*
X63989700Y-131374404D02*
X63942080Y-131422023D01*
X63465890Y-130231547D02*
X63418271Y-130326785D01*
X63418271Y-130326785D02*
X63370652Y-130374404D01*
X63370652Y-130374404D02*
X63275414Y-130422023D01*
X63275414Y-130422023D02*
X63227795Y-130422023D01*
X63227795Y-130422023D02*
X63132557Y-130374404D01*
X63132557Y-130374404D02*
X63084938Y-130326785D01*
X63084938Y-130326785D02*
X63037319Y-130231547D01*
X63037319Y-130231547D02*
X63037319Y-130041071D01*
X63037319Y-130041071D02*
X63084938Y-129945833D01*
X63084938Y-129945833D02*
X63132557Y-129898214D01*
X63132557Y-129898214D02*
X63227795Y-129850595D01*
X63227795Y-129850595D02*
X63275414Y-129850595D01*
X63275414Y-129850595D02*
X63370652Y-129898214D01*
X63370652Y-129898214D02*
X63418271Y-129945833D01*
X63418271Y-129945833D02*
X63465890Y-130041071D01*
X63465890Y-130041071D02*
X63465890Y-130231547D01*
X63465890Y-130231547D02*
X63513509Y-130326785D01*
X63513509Y-130326785D02*
X63561128Y-130374404D01*
X63561128Y-130374404D02*
X63656366Y-130422023D01*
X63656366Y-130422023D02*
X63846842Y-130422023D01*
X63846842Y-130422023D02*
X63942080Y-130374404D01*
X63942080Y-130374404D02*
X63989700Y-130326785D01*
X63989700Y-130326785D02*
X64037319Y-130231547D01*
X64037319Y-130231547D02*
X64037319Y-130041071D01*
X64037319Y-130041071D02*
X63989700Y-129945833D01*
X63989700Y-129945833D02*
X63942080Y-129898214D01*
X63942080Y-129898214D02*
X63846842Y-129850595D01*
X63846842Y-129850595D02*
X63656366Y-129850595D01*
X63656366Y-129850595D02*
X63561128Y-129898214D01*
X63561128Y-129898214D02*
X63513509Y-129945833D01*
X63513509Y-129945833D02*
X63465890Y-130041071D01*
X63717319Y-127564404D02*
X62717319Y-127564404D01*
X63717319Y-126992976D02*
X63145890Y-127421547D01*
X62717319Y-126992976D02*
X63288747Y-127564404D01*
X4190476Y-135604819D02*
X4190476Y-134604819D01*
X4190476Y-134604819D02*
X4523809Y-135319104D01*
X4523809Y-135319104D02*
X4857142Y-134604819D01*
X4857142Y-134604819D02*
X4857142Y-135604819D01*
X5238095Y-134604819D02*
X5857142Y-134604819D01*
X5857142Y-134604819D02*
X5523809Y-134985771D01*
X5523809Y-134985771D02*
X5666666Y-134985771D01*
X5666666Y-134985771D02*
X5761904Y-135033390D01*
X5761904Y-135033390D02*
X5809523Y-135081009D01*
X5809523Y-135081009D02*
X5857142Y-135176247D01*
X5857142Y-135176247D02*
X5857142Y-135414342D01*
X5857142Y-135414342D02*
X5809523Y-135509580D01*
X5809523Y-135509580D02*
X5761904Y-135557200D01*
X5761904Y-135557200D02*
X5666666Y-135604819D01*
X5666666Y-135604819D02*
X5380952Y-135604819D01*
X5380952Y-135604819D02*
X5285714Y-135557200D01*
X5285714Y-135557200D02*
X5238095Y-135509580D01*
X151190476Y-14454819D02*
X151190476Y-13454819D01*
X151190476Y-13454819D02*
X151523809Y-14169104D01*
X151523809Y-14169104D02*
X151857142Y-13454819D01*
X151857142Y-13454819D02*
X151857142Y-14454819D01*
X152238095Y-13454819D02*
X152857142Y-13454819D01*
X152857142Y-13454819D02*
X152523809Y-13835771D01*
X152523809Y-13835771D02*
X152666666Y-13835771D01*
X152666666Y-13835771D02*
X152761904Y-13883390D01*
X152761904Y-13883390D02*
X152809523Y-13931009D01*
X152809523Y-13931009D02*
X152857142Y-14026247D01*
X152857142Y-14026247D02*
X152857142Y-14264342D01*
X152857142Y-14264342D02*
X152809523Y-14359580D01*
X152809523Y-14359580D02*
X152761904Y-14407200D01*
X152761904Y-14407200D02*
X152666666Y-14454819D01*
X152666666Y-14454819D02*
X152380952Y-14454819D01*
X152380952Y-14454819D02*
X152285714Y-14407200D01*
X152285714Y-14407200D02*
X152238095Y-14359580D01*
X25937319Y-84701785D02*
X24937319Y-84701785D01*
X24937319Y-84701785D02*
X24937319Y-84463690D01*
X24937319Y-84463690D02*
X24984938Y-84320833D01*
X24984938Y-84320833D02*
X25080176Y-84225595D01*
X25080176Y-84225595D02*
X25175414Y-84177976D01*
X25175414Y-84177976D02*
X25365890Y-84130357D01*
X25365890Y-84130357D02*
X25508747Y-84130357D01*
X25508747Y-84130357D02*
X25699223Y-84177976D01*
X25699223Y-84177976D02*
X25794461Y-84225595D01*
X25794461Y-84225595D02*
X25889700Y-84320833D01*
X25889700Y-84320833D02*
X25937319Y-84463690D01*
X25937319Y-84463690D02*
X25937319Y-84701785D01*
X25032557Y-83749404D02*
X24984938Y-83701785D01*
X24984938Y-83701785D02*
X24937319Y-83606547D01*
X24937319Y-83606547D02*
X24937319Y-83368452D01*
X24937319Y-83368452D02*
X24984938Y-83273214D01*
X24984938Y-83273214D02*
X25032557Y-83225595D01*
X25032557Y-83225595D02*
X25127795Y-83177976D01*
X25127795Y-83177976D02*
X25223033Y-83177976D01*
X25223033Y-83177976D02*
X25365890Y-83225595D01*
X25365890Y-83225595D02*
X25937319Y-83797023D01*
X25937319Y-83797023D02*
X25937319Y-83177976D01*
X24937319Y-82844642D02*
X24937319Y-82225595D01*
X24937319Y-82225595D02*
X25318271Y-82558928D01*
X25318271Y-82558928D02*
X25318271Y-82416071D01*
X25318271Y-82416071D02*
X25365890Y-82320833D01*
X25365890Y-82320833D02*
X25413509Y-82273214D01*
X25413509Y-82273214D02*
X25508747Y-82225595D01*
X25508747Y-82225595D02*
X25746842Y-82225595D01*
X25746842Y-82225595D02*
X25842080Y-82273214D01*
X25842080Y-82273214D02*
X25889700Y-82320833D01*
X25889700Y-82320833D02*
X25937319Y-82416071D01*
X25937319Y-82416071D02*
X25937319Y-82701785D01*
X25937319Y-82701785D02*
X25889700Y-82797023D01*
X25889700Y-82797023D02*
X25842080Y-82844642D01*
X25617319Y-79939404D02*
X24617319Y-79939404D01*
X25617319Y-79367976D02*
X25045890Y-79796547D01*
X24617319Y-79367976D02*
X25188747Y-79939404D01*
X125949819Y-75176785D02*
X124949819Y-75176785D01*
X124949819Y-75176785D02*
X124949819Y-74938690D01*
X124949819Y-74938690D02*
X124997438Y-74795833D01*
X124997438Y-74795833D02*
X125092676Y-74700595D01*
X125092676Y-74700595D02*
X125187914Y-74652976D01*
X125187914Y-74652976D02*
X125378390Y-74605357D01*
X125378390Y-74605357D02*
X125521247Y-74605357D01*
X125521247Y-74605357D02*
X125711723Y-74652976D01*
X125711723Y-74652976D02*
X125806961Y-74700595D01*
X125806961Y-74700595D02*
X125902200Y-74795833D01*
X125902200Y-74795833D02*
X125949819Y-74938690D01*
X125949819Y-74938690D02*
X125949819Y-75176785D01*
X125045057Y-74224404D02*
X124997438Y-74176785D01*
X124997438Y-74176785D02*
X124949819Y-74081547D01*
X124949819Y-74081547D02*
X124949819Y-73843452D01*
X124949819Y-73843452D02*
X124997438Y-73748214D01*
X124997438Y-73748214D02*
X125045057Y-73700595D01*
X125045057Y-73700595D02*
X125140295Y-73652976D01*
X125140295Y-73652976D02*
X125235533Y-73652976D01*
X125235533Y-73652976D02*
X125378390Y-73700595D01*
X125378390Y-73700595D02*
X125949819Y-74272023D01*
X125949819Y-74272023D02*
X125949819Y-73652976D01*
X124949819Y-73033928D02*
X124949819Y-72938690D01*
X124949819Y-72938690D02*
X124997438Y-72843452D01*
X124997438Y-72843452D02*
X125045057Y-72795833D01*
X125045057Y-72795833D02*
X125140295Y-72748214D01*
X125140295Y-72748214D02*
X125330771Y-72700595D01*
X125330771Y-72700595D02*
X125568866Y-72700595D01*
X125568866Y-72700595D02*
X125759342Y-72748214D01*
X125759342Y-72748214D02*
X125854580Y-72795833D01*
X125854580Y-72795833D02*
X125902200Y-72843452D01*
X125902200Y-72843452D02*
X125949819Y-72938690D01*
X125949819Y-72938690D02*
X125949819Y-73033928D01*
X125949819Y-73033928D02*
X125902200Y-73129166D01*
X125902200Y-73129166D02*
X125854580Y-73176785D01*
X125854580Y-73176785D02*
X125759342Y-73224404D01*
X125759342Y-73224404D02*
X125568866Y-73272023D01*
X125568866Y-73272023D02*
X125330771Y-73272023D01*
X125330771Y-73272023D02*
X125140295Y-73224404D01*
X125140295Y-73224404D02*
X125045057Y-73176785D01*
X125045057Y-73176785D02*
X124997438Y-73129166D01*
X124997438Y-73129166D02*
X124949819Y-73033928D01*
X125629819Y-70414404D02*
X124629819Y-70414404D01*
X125629819Y-69842976D02*
X125058390Y-70271547D01*
X124629819Y-69842976D02*
X125201247Y-70414404D01*
X59274819Y-55650594D02*
X58274819Y-55650594D01*
X58274819Y-55650594D02*
X58274819Y-55412499D01*
X58274819Y-55412499D02*
X58322438Y-55269642D01*
X58322438Y-55269642D02*
X58417676Y-55174404D01*
X58417676Y-55174404D02*
X58512914Y-55126785D01*
X58512914Y-55126785D02*
X58703390Y-55079166D01*
X58703390Y-55079166D02*
X58846247Y-55079166D01*
X58846247Y-55079166D02*
X59036723Y-55126785D01*
X59036723Y-55126785D02*
X59131961Y-55174404D01*
X59131961Y-55174404D02*
X59227200Y-55269642D01*
X59227200Y-55269642D02*
X59274819Y-55412499D01*
X59274819Y-55412499D02*
X59274819Y-55650594D01*
X59274819Y-54602975D02*
X59274819Y-54412499D01*
X59274819Y-54412499D02*
X59227200Y-54317261D01*
X59227200Y-54317261D02*
X59179580Y-54269642D01*
X59179580Y-54269642D02*
X59036723Y-54174404D01*
X59036723Y-54174404D02*
X58846247Y-54126785D01*
X58846247Y-54126785D02*
X58465295Y-54126785D01*
X58465295Y-54126785D02*
X58370057Y-54174404D01*
X58370057Y-54174404D02*
X58322438Y-54222023D01*
X58322438Y-54222023D02*
X58274819Y-54317261D01*
X58274819Y-54317261D02*
X58274819Y-54507737D01*
X58274819Y-54507737D02*
X58322438Y-54602975D01*
X58322438Y-54602975D02*
X58370057Y-54650594D01*
X58370057Y-54650594D02*
X58465295Y-54698213D01*
X58465295Y-54698213D02*
X58703390Y-54698213D01*
X58703390Y-54698213D02*
X58798628Y-54650594D01*
X58798628Y-54650594D02*
X58846247Y-54602975D01*
X58846247Y-54602975D02*
X58893866Y-54507737D01*
X58893866Y-54507737D02*
X58893866Y-54317261D01*
X58893866Y-54317261D02*
X58846247Y-54222023D01*
X58846247Y-54222023D02*
X58798628Y-54174404D01*
X58798628Y-54174404D02*
X58703390Y-54126785D01*
X58954819Y-51364404D02*
X57954819Y-51364404D01*
X58954819Y-50792976D02*
X58383390Y-51221547D01*
X57954819Y-50792976D02*
X58526247Y-51364404D01*
X140237319Y-31838094D02*
X139237319Y-31838094D01*
X139237319Y-31838094D02*
X139237319Y-31599999D01*
X139237319Y-31599999D02*
X139284938Y-31457142D01*
X139284938Y-31457142D02*
X139380176Y-31361904D01*
X139380176Y-31361904D02*
X139475414Y-31314285D01*
X139475414Y-31314285D02*
X139665890Y-31266666D01*
X139665890Y-31266666D02*
X139808747Y-31266666D01*
X139808747Y-31266666D02*
X139999223Y-31314285D01*
X139999223Y-31314285D02*
X140094461Y-31361904D01*
X140094461Y-31361904D02*
X140189700Y-31457142D01*
X140189700Y-31457142D02*
X140237319Y-31599999D01*
X140237319Y-31599999D02*
X140237319Y-31838094D01*
X139237319Y-30361904D02*
X139237319Y-30838094D01*
X139237319Y-30838094D02*
X139713509Y-30885713D01*
X139713509Y-30885713D02*
X139665890Y-30838094D01*
X139665890Y-30838094D02*
X139618271Y-30742856D01*
X139618271Y-30742856D02*
X139618271Y-30504761D01*
X139618271Y-30504761D02*
X139665890Y-30409523D01*
X139665890Y-30409523D02*
X139713509Y-30361904D01*
X139713509Y-30361904D02*
X139808747Y-30314285D01*
X139808747Y-30314285D02*
X140046842Y-30314285D01*
X140046842Y-30314285D02*
X140142080Y-30361904D01*
X140142080Y-30361904D02*
X140189700Y-30409523D01*
X140189700Y-30409523D02*
X140237319Y-30504761D01*
X140237319Y-30504761D02*
X140237319Y-30742856D01*
X140237319Y-30742856D02*
X140189700Y-30838094D01*
X140189700Y-30838094D02*
X140142080Y-30885713D01*
X139917319Y-27551904D02*
X138917319Y-27551904D01*
X139917319Y-26980476D02*
X139345890Y-27409047D01*
X138917319Y-26980476D02*
X139488747Y-27551904D01*
X78324819Y-56126785D02*
X77324819Y-56126785D01*
X77324819Y-56126785D02*
X77324819Y-55888690D01*
X77324819Y-55888690D02*
X77372438Y-55745833D01*
X77372438Y-55745833D02*
X77467676Y-55650595D01*
X77467676Y-55650595D02*
X77562914Y-55602976D01*
X77562914Y-55602976D02*
X77753390Y-55555357D01*
X77753390Y-55555357D02*
X77896247Y-55555357D01*
X77896247Y-55555357D02*
X78086723Y-55602976D01*
X78086723Y-55602976D02*
X78181961Y-55650595D01*
X78181961Y-55650595D02*
X78277200Y-55745833D01*
X78277200Y-55745833D02*
X78324819Y-55888690D01*
X78324819Y-55888690D02*
X78324819Y-56126785D01*
X78324819Y-54602976D02*
X78324819Y-55174404D01*
X78324819Y-54888690D02*
X77324819Y-54888690D01*
X77324819Y-54888690D02*
X77467676Y-54983928D01*
X77467676Y-54983928D02*
X77562914Y-55079166D01*
X77562914Y-55079166D02*
X77610533Y-55174404D01*
X77324819Y-53983928D02*
X77324819Y-53888690D01*
X77324819Y-53888690D02*
X77372438Y-53793452D01*
X77372438Y-53793452D02*
X77420057Y-53745833D01*
X77420057Y-53745833D02*
X77515295Y-53698214D01*
X77515295Y-53698214D02*
X77705771Y-53650595D01*
X77705771Y-53650595D02*
X77943866Y-53650595D01*
X77943866Y-53650595D02*
X78134342Y-53698214D01*
X78134342Y-53698214D02*
X78229580Y-53745833D01*
X78229580Y-53745833D02*
X78277200Y-53793452D01*
X78277200Y-53793452D02*
X78324819Y-53888690D01*
X78324819Y-53888690D02*
X78324819Y-53983928D01*
X78324819Y-53983928D02*
X78277200Y-54079166D01*
X78277200Y-54079166D02*
X78229580Y-54126785D01*
X78229580Y-54126785D02*
X78134342Y-54174404D01*
X78134342Y-54174404D02*
X77943866Y-54222023D01*
X77943866Y-54222023D02*
X77705771Y-54222023D01*
X77705771Y-54222023D02*
X77515295Y-54174404D01*
X77515295Y-54174404D02*
X77420057Y-54126785D01*
X77420057Y-54126785D02*
X77372438Y-54079166D01*
X77372438Y-54079166D02*
X77324819Y-53983928D01*
X78004819Y-51364404D02*
X77004819Y-51364404D01*
X78004819Y-50792976D02*
X77433390Y-51221547D01*
X77004819Y-50792976D02*
X77576247Y-51364404D01*
X121187319Y-31838094D02*
X120187319Y-31838094D01*
X120187319Y-31838094D02*
X120187319Y-31599999D01*
X120187319Y-31599999D02*
X120234938Y-31457142D01*
X120234938Y-31457142D02*
X120330176Y-31361904D01*
X120330176Y-31361904D02*
X120425414Y-31314285D01*
X120425414Y-31314285D02*
X120615890Y-31266666D01*
X120615890Y-31266666D02*
X120758747Y-31266666D01*
X120758747Y-31266666D02*
X120949223Y-31314285D01*
X120949223Y-31314285D02*
X121044461Y-31361904D01*
X121044461Y-31361904D02*
X121139700Y-31457142D01*
X121139700Y-31457142D02*
X121187319Y-31599999D01*
X121187319Y-31599999D02*
X121187319Y-31838094D01*
X120520652Y-30409523D02*
X121187319Y-30409523D01*
X120139700Y-30647618D02*
X120853985Y-30885713D01*
X120853985Y-30885713D02*
X120853985Y-30266666D01*
X120867319Y-27551904D02*
X119867319Y-27551904D01*
X120867319Y-26980476D02*
X120295890Y-27409047D01*
X119867319Y-26980476D02*
X120438747Y-27551904D01*
X59274819Y-31838094D02*
X58274819Y-31838094D01*
X58274819Y-31838094D02*
X58274819Y-31599999D01*
X58274819Y-31599999D02*
X58322438Y-31457142D01*
X58322438Y-31457142D02*
X58417676Y-31361904D01*
X58417676Y-31361904D02*
X58512914Y-31314285D01*
X58512914Y-31314285D02*
X58703390Y-31266666D01*
X58703390Y-31266666D02*
X58846247Y-31266666D01*
X58846247Y-31266666D02*
X59036723Y-31314285D01*
X59036723Y-31314285D02*
X59131961Y-31361904D01*
X59131961Y-31361904D02*
X59227200Y-31457142D01*
X59227200Y-31457142D02*
X59274819Y-31599999D01*
X59274819Y-31599999D02*
X59274819Y-31838094D01*
X59274819Y-30314285D02*
X59274819Y-30885713D01*
X59274819Y-30599999D02*
X58274819Y-30599999D01*
X58274819Y-30599999D02*
X58417676Y-30695237D01*
X58417676Y-30695237D02*
X58512914Y-30790475D01*
X58512914Y-30790475D02*
X58560533Y-30885713D01*
X58954819Y-27551904D02*
X57954819Y-27551904D01*
X58954819Y-26980476D02*
X58383390Y-27409047D01*
X57954819Y-26980476D02*
X58526247Y-27551904D01*
X178190476Y-9454819D02*
X178190476Y-8454819D01*
X178190476Y-8454819D02*
X178523809Y-9169104D01*
X178523809Y-9169104D02*
X178857142Y-8454819D01*
X178857142Y-8454819D02*
X178857142Y-9454819D01*
X179238095Y-8454819D02*
X179857142Y-8454819D01*
X179857142Y-8454819D02*
X179523809Y-8835771D01*
X179523809Y-8835771D02*
X179666666Y-8835771D01*
X179666666Y-8835771D02*
X179761904Y-8883390D01*
X179761904Y-8883390D02*
X179809523Y-8931009D01*
X179809523Y-8931009D02*
X179857142Y-9026247D01*
X179857142Y-9026247D02*
X179857142Y-9264342D01*
X179857142Y-9264342D02*
X179809523Y-9359580D01*
X179809523Y-9359580D02*
X179761904Y-9407200D01*
X179761904Y-9407200D02*
X179666666Y-9454819D01*
X179666666Y-9454819D02*
X179380952Y-9454819D01*
X179380952Y-9454819D02*
X179285714Y-9407200D01*
X179285714Y-9407200D02*
X179238095Y-9359580D01*
X165316666Y-2454819D02*
X165316666Y-3169104D01*
X165316666Y-3169104D02*
X165269047Y-3311961D01*
X165269047Y-3311961D02*
X165173809Y-3407200D01*
X165173809Y-3407200D02*
X165030952Y-3454819D01*
X165030952Y-3454819D02*
X164935714Y-3454819D01*
X166316666Y-3454819D02*
X165745238Y-3454819D01*
X166030952Y-3454819D02*
X166030952Y-2454819D01*
X166030952Y-2454819D02*
X165935714Y-2597676D01*
X165935714Y-2597676D02*
X165840476Y-2692914D01*
X165840476Y-2692914D02*
X165745238Y-2740533D01*
X114043569Y-132326785D02*
X113043569Y-132326785D01*
X113043569Y-132326785D02*
X113043569Y-132088690D01*
X113043569Y-132088690D02*
X113091188Y-131945833D01*
X113091188Y-131945833D02*
X113186426Y-131850595D01*
X113186426Y-131850595D02*
X113281664Y-131802976D01*
X113281664Y-131802976D02*
X113472140Y-131755357D01*
X113472140Y-131755357D02*
X113614997Y-131755357D01*
X113614997Y-131755357D02*
X113805473Y-131802976D01*
X113805473Y-131802976D02*
X113900711Y-131850595D01*
X113900711Y-131850595D02*
X113995950Y-131945833D01*
X113995950Y-131945833D02*
X114043569Y-132088690D01*
X114043569Y-132088690D02*
X114043569Y-132326785D01*
X113376902Y-130898214D02*
X114043569Y-130898214D01*
X112995950Y-131136309D02*
X113710235Y-131374404D01*
X113710235Y-131374404D02*
X113710235Y-130755357D01*
X113043569Y-130183928D02*
X113043569Y-130088690D01*
X113043569Y-130088690D02*
X113091188Y-129993452D01*
X113091188Y-129993452D02*
X113138807Y-129945833D01*
X113138807Y-129945833D02*
X113234045Y-129898214D01*
X113234045Y-129898214D02*
X113424521Y-129850595D01*
X113424521Y-129850595D02*
X113662616Y-129850595D01*
X113662616Y-129850595D02*
X113853092Y-129898214D01*
X113853092Y-129898214D02*
X113948330Y-129945833D01*
X113948330Y-129945833D02*
X113995950Y-129993452D01*
X113995950Y-129993452D02*
X114043569Y-130088690D01*
X114043569Y-130088690D02*
X114043569Y-130183928D01*
X114043569Y-130183928D02*
X113995950Y-130279166D01*
X113995950Y-130279166D02*
X113948330Y-130326785D01*
X113948330Y-130326785D02*
X113853092Y-130374404D01*
X113853092Y-130374404D02*
X113662616Y-130422023D01*
X113662616Y-130422023D02*
X113424521Y-130422023D01*
X113424521Y-130422023D02*
X113234045Y-130374404D01*
X113234045Y-130374404D02*
X113138807Y-130326785D01*
X113138807Y-130326785D02*
X113091188Y-130279166D01*
X113091188Y-130279166D02*
X113043569Y-130183928D01*
X113723569Y-127564404D02*
X112723569Y-127564404D01*
X113723569Y-126992976D02*
X113152140Y-127421547D01*
X112723569Y-126992976D02*
X113294997Y-127564404D01*
X121187319Y-113276785D02*
X120187319Y-113276785D01*
X120187319Y-113276785D02*
X120187319Y-113038690D01*
X120187319Y-113038690D02*
X120234938Y-112895833D01*
X120234938Y-112895833D02*
X120330176Y-112800595D01*
X120330176Y-112800595D02*
X120425414Y-112752976D01*
X120425414Y-112752976D02*
X120615890Y-112705357D01*
X120615890Y-112705357D02*
X120758747Y-112705357D01*
X120758747Y-112705357D02*
X120949223Y-112752976D01*
X120949223Y-112752976D02*
X121044461Y-112800595D01*
X121044461Y-112800595D02*
X121139700Y-112895833D01*
X121139700Y-112895833D02*
X121187319Y-113038690D01*
X121187319Y-113038690D02*
X121187319Y-113276785D01*
X120187319Y-112372023D02*
X120187319Y-111752976D01*
X120187319Y-111752976D02*
X120568271Y-112086309D01*
X120568271Y-112086309D02*
X120568271Y-111943452D01*
X120568271Y-111943452D02*
X120615890Y-111848214D01*
X120615890Y-111848214D02*
X120663509Y-111800595D01*
X120663509Y-111800595D02*
X120758747Y-111752976D01*
X120758747Y-111752976D02*
X120996842Y-111752976D01*
X120996842Y-111752976D02*
X121092080Y-111800595D01*
X121092080Y-111800595D02*
X121139700Y-111848214D01*
X121139700Y-111848214D02*
X121187319Y-111943452D01*
X121187319Y-111943452D02*
X121187319Y-112229166D01*
X121187319Y-112229166D02*
X121139700Y-112324404D01*
X121139700Y-112324404D02*
X121092080Y-112372023D01*
X120187319Y-111419642D02*
X120187319Y-110800595D01*
X120187319Y-110800595D02*
X120568271Y-111133928D01*
X120568271Y-111133928D02*
X120568271Y-110991071D01*
X120568271Y-110991071D02*
X120615890Y-110895833D01*
X120615890Y-110895833D02*
X120663509Y-110848214D01*
X120663509Y-110848214D02*
X120758747Y-110800595D01*
X120758747Y-110800595D02*
X120996842Y-110800595D01*
X120996842Y-110800595D02*
X121092080Y-110848214D01*
X121092080Y-110848214D02*
X121139700Y-110895833D01*
X121139700Y-110895833D02*
X121187319Y-110991071D01*
X121187319Y-110991071D02*
X121187319Y-111276785D01*
X121187319Y-111276785D02*
X121139700Y-111372023D01*
X121139700Y-111372023D02*
X121092080Y-111419642D01*
X120867319Y-108514404D02*
X119867319Y-108514404D01*
X120867319Y-107942976D02*
X120295890Y-108371547D01*
X119867319Y-107942976D02*
X120438747Y-108514404D01*
X159287319Y-113276785D02*
X158287319Y-113276785D01*
X158287319Y-113276785D02*
X158287319Y-113038690D01*
X158287319Y-113038690D02*
X158334938Y-112895833D01*
X158334938Y-112895833D02*
X158430176Y-112800595D01*
X158430176Y-112800595D02*
X158525414Y-112752976D01*
X158525414Y-112752976D02*
X158715890Y-112705357D01*
X158715890Y-112705357D02*
X158858747Y-112705357D01*
X158858747Y-112705357D02*
X159049223Y-112752976D01*
X159049223Y-112752976D02*
X159144461Y-112800595D01*
X159144461Y-112800595D02*
X159239700Y-112895833D01*
X159239700Y-112895833D02*
X159287319Y-113038690D01*
X159287319Y-113038690D02*
X159287319Y-113276785D01*
X158287319Y-112372023D02*
X158287319Y-111752976D01*
X158287319Y-111752976D02*
X158668271Y-112086309D01*
X158668271Y-112086309D02*
X158668271Y-111943452D01*
X158668271Y-111943452D02*
X158715890Y-111848214D01*
X158715890Y-111848214D02*
X158763509Y-111800595D01*
X158763509Y-111800595D02*
X158858747Y-111752976D01*
X158858747Y-111752976D02*
X159096842Y-111752976D01*
X159096842Y-111752976D02*
X159192080Y-111800595D01*
X159192080Y-111800595D02*
X159239700Y-111848214D01*
X159239700Y-111848214D02*
X159287319Y-111943452D01*
X159287319Y-111943452D02*
X159287319Y-112229166D01*
X159287319Y-112229166D02*
X159239700Y-112324404D01*
X159239700Y-112324404D02*
X159192080Y-112372023D01*
X158287319Y-110848214D02*
X158287319Y-111324404D01*
X158287319Y-111324404D02*
X158763509Y-111372023D01*
X158763509Y-111372023D02*
X158715890Y-111324404D01*
X158715890Y-111324404D02*
X158668271Y-111229166D01*
X158668271Y-111229166D02*
X158668271Y-110991071D01*
X158668271Y-110991071D02*
X158715890Y-110895833D01*
X158715890Y-110895833D02*
X158763509Y-110848214D01*
X158763509Y-110848214D02*
X158858747Y-110800595D01*
X158858747Y-110800595D02*
X159096842Y-110800595D01*
X159096842Y-110800595D02*
X159192080Y-110848214D01*
X159192080Y-110848214D02*
X159239700Y-110895833D01*
X159239700Y-110895833D02*
X159287319Y-110991071D01*
X159287319Y-110991071D02*
X159287319Y-111229166D01*
X159287319Y-111229166D02*
X159239700Y-111324404D01*
X159239700Y-111324404D02*
X159192080Y-111372023D01*
X158967319Y-108514404D02*
X157967319Y-108514404D01*
X158967319Y-107942976D02*
X158395890Y-108371547D01*
X157967319Y-107942976D02*
X158538747Y-108514404D01*
X144999819Y-75176785D02*
X143999819Y-75176785D01*
X143999819Y-75176785D02*
X143999819Y-74938690D01*
X143999819Y-74938690D02*
X144047438Y-74795833D01*
X144047438Y-74795833D02*
X144142676Y-74700595D01*
X144142676Y-74700595D02*
X144237914Y-74652976D01*
X144237914Y-74652976D02*
X144428390Y-74605357D01*
X144428390Y-74605357D02*
X144571247Y-74605357D01*
X144571247Y-74605357D02*
X144761723Y-74652976D01*
X144761723Y-74652976D02*
X144856961Y-74700595D01*
X144856961Y-74700595D02*
X144952200Y-74795833D01*
X144952200Y-74795833D02*
X144999819Y-74938690D01*
X144999819Y-74938690D02*
X144999819Y-75176785D01*
X144095057Y-74224404D02*
X144047438Y-74176785D01*
X144047438Y-74176785D02*
X143999819Y-74081547D01*
X143999819Y-74081547D02*
X143999819Y-73843452D01*
X143999819Y-73843452D02*
X144047438Y-73748214D01*
X144047438Y-73748214D02*
X144095057Y-73700595D01*
X144095057Y-73700595D02*
X144190295Y-73652976D01*
X144190295Y-73652976D02*
X144285533Y-73652976D01*
X144285533Y-73652976D02*
X144428390Y-73700595D01*
X144428390Y-73700595D02*
X144999819Y-74272023D01*
X144999819Y-74272023D02*
X144999819Y-73652976D01*
X144999819Y-72700595D02*
X144999819Y-73272023D01*
X144999819Y-72986309D02*
X143999819Y-72986309D01*
X143999819Y-72986309D02*
X144142676Y-73081547D01*
X144142676Y-73081547D02*
X144237914Y-73176785D01*
X144237914Y-73176785D02*
X144285533Y-73272023D01*
X144679819Y-70414404D02*
X143679819Y-70414404D01*
X144679819Y-69842976D02*
X144108390Y-70271547D01*
X143679819Y-69842976D02*
X144251247Y-70414404D01*
X111662319Y-94226785D02*
X110662319Y-94226785D01*
X110662319Y-94226785D02*
X110662319Y-93988690D01*
X110662319Y-93988690D02*
X110709938Y-93845833D01*
X110709938Y-93845833D02*
X110805176Y-93750595D01*
X110805176Y-93750595D02*
X110900414Y-93702976D01*
X110900414Y-93702976D02*
X111090890Y-93655357D01*
X111090890Y-93655357D02*
X111233747Y-93655357D01*
X111233747Y-93655357D02*
X111424223Y-93702976D01*
X111424223Y-93702976D02*
X111519461Y-93750595D01*
X111519461Y-93750595D02*
X111614700Y-93845833D01*
X111614700Y-93845833D02*
X111662319Y-93988690D01*
X111662319Y-93988690D02*
X111662319Y-94226785D01*
X110757557Y-93274404D02*
X110709938Y-93226785D01*
X110709938Y-93226785D02*
X110662319Y-93131547D01*
X110662319Y-93131547D02*
X110662319Y-92893452D01*
X110662319Y-92893452D02*
X110709938Y-92798214D01*
X110709938Y-92798214D02*
X110757557Y-92750595D01*
X110757557Y-92750595D02*
X110852795Y-92702976D01*
X110852795Y-92702976D02*
X110948033Y-92702976D01*
X110948033Y-92702976D02*
X111090890Y-92750595D01*
X111090890Y-92750595D02*
X111662319Y-93322023D01*
X111662319Y-93322023D02*
X111662319Y-92702976D01*
X110662319Y-91845833D02*
X110662319Y-92036309D01*
X110662319Y-92036309D02*
X110709938Y-92131547D01*
X110709938Y-92131547D02*
X110757557Y-92179166D01*
X110757557Y-92179166D02*
X110900414Y-92274404D01*
X110900414Y-92274404D02*
X111090890Y-92322023D01*
X111090890Y-92322023D02*
X111471842Y-92322023D01*
X111471842Y-92322023D02*
X111567080Y-92274404D01*
X111567080Y-92274404D02*
X111614700Y-92226785D01*
X111614700Y-92226785D02*
X111662319Y-92131547D01*
X111662319Y-92131547D02*
X111662319Y-91941071D01*
X111662319Y-91941071D02*
X111614700Y-91845833D01*
X111614700Y-91845833D02*
X111567080Y-91798214D01*
X111567080Y-91798214D02*
X111471842Y-91750595D01*
X111471842Y-91750595D02*
X111233747Y-91750595D01*
X111233747Y-91750595D02*
X111138509Y-91798214D01*
X111138509Y-91798214D02*
X111090890Y-91845833D01*
X111090890Y-91845833D02*
X111043271Y-91941071D01*
X111043271Y-91941071D02*
X111043271Y-92131547D01*
X111043271Y-92131547D02*
X111090890Y-92226785D01*
X111090890Y-92226785D02*
X111138509Y-92274404D01*
X111138509Y-92274404D02*
X111233747Y-92322023D01*
X111342319Y-89464404D02*
X110342319Y-89464404D01*
X111342319Y-88892976D02*
X110770890Y-89321547D01*
X110342319Y-88892976D02*
X110913747Y-89464404D01*
X178337319Y-113276785D02*
X177337319Y-113276785D01*
X177337319Y-113276785D02*
X177337319Y-113038690D01*
X177337319Y-113038690D02*
X177384938Y-112895833D01*
X177384938Y-112895833D02*
X177480176Y-112800595D01*
X177480176Y-112800595D02*
X177575414Y-112752976D01*
X177575414Y-112752976D02*
X177765890Y-112705357D01*
X177765890Y-112705357D02*
X177908747Y-112705357D01*
X177908747Y-112705357D02*
X178099223Y-112752976D01*
X178099223Y-112752976D02*
X178194461Y-112800595D01*
X178194461Y-112800595D02*
X178289700Y-112895833D01*
X178289700Y-112895833D02*
X178337319Y-113038690D01*
X178337319Y-113038690D02*
X178337319Y-113276785D01*
X177337319Y-112372023D02*
X177337319Y-111752976D01*
X177337319Y-111752976D02*
X177718271Y-112086309D01*
X177718271Y-112086309D02*
X177718271Y-111943452D01*
X177718271Y-111943452D02*
X177765890Y-111848214D01*
X177765890Y-111848214D02*
X177813509Y-111800595D01*
X177813509Y-111800595D02*
X177908747Y-111752976D01*
X177908747Y-111752976D02*
X178146842Y-111752976D01*
X178146842Y-111752976D02*
X178242080Y-111800595D01*
X178242080Y-111800595D02*
X178289700Y-111848214D01*
X178289700Y-111848214D02*
X178337319Y-111943452D01*
X178337319Y-111943452D02*
X178337319Y-112229166D01*
X178337319Y-112229166D02*
X178289700Y-112324404D01*
X178289700Y-112324404D02*
X178242080Y-112372023D01*
X177337319Y-110895833D02*
X177337319Y-111086309D01*
X177337319Y-111086309D02*
X177384938Y-111181547D01*
X177384938Y-111181547D02*
X177432557Y-111229166D01*
X177432557Y-111229166D02*
X177575414Y-111324404D01*
X177575414Y-111324404D02*
X177765890Y-111372023D01*
X177765890Y-111372023D02*
X178146842Y-111372023D01*
X178146842Y-111372023D02*
X178242080Y-111324404D01*
X178242080Y-111324404D02*
X178289700Y-111276785D01*
X178289700Y-111276785D02*
X178337319Y-111181547D01*
X178337319Y-111181547D02*
X178337319Y-110991071D01*
X178337319Y-110991071D02*
X178289700Y-110895833D01*
X178289700Y-110895833D02*
X178242080Y-110848214D01*
X178242080Y-110848214D02*
X178146842Y-110800595D01*
X178146842Y-110800595D02*
X177908747Y-110800595D01*
X177908747Y-110800595D02*
X177813509Y-110848214D01*
X177813509Y-110848214D02*
X177765890Y-110895833D01*
X177765890Y-110895833D02*
X177718271Y-110991071D01*
X177718271Y-110991071D02*
X177718271Y-111181547D01*
X177718271Y-111181547D02*
X177765890Y-111276785D01*
X177765890Y-111276785D02*
X177813509Y-111324404D01*
X177813509Y-111324404D02*
X177908747Y-111372023D01*
X178017319Y-108514404D02*
X177017319Y-108514404D01*
X178017319Y-107942976D02*
X177445890Y-108371547D01*
X177017319Y-107942976D02*
X177588747Y-108514404D01*
X182954819Y-31838094D02*
X181954819Y-31838094D01*
X181954819Y-31838094D02*
X181954819Y-31599999D01*
X181954819Y-31599999D02*
X182002438Y-31457142D01*
X182002438Y-31457142D02*
X182097676Y-31361904D01*
X182097676Y-31361904D02*
X182192914Y-31314285D01*
X182192914Y-31314285D02*
X182383390Y-31266666D01*
X182383390Y-31266666D02*
X182526247Y-31266666D01*
X182526247Y-31266666D02*
X182716723Y-31314285D01*
X182716723Y-31314285D02*
X182811961Y-31361904D01*
X182811961Y-31361904D02*
X182907200Y-31457142D01*
X182907200Y-31457142D02*
X182954819Y-31599999D01*
X182954819Y-31599999D02*
X182954819Y-31838094D01*
X181954819Y-30933332D02*
X181954819Y-30266666D01*
X181954819Y-30266666D02*
X182954819Y-30695237D01*
X182779819Y-27551904D02*
X181779819Y-27551904D01*
X182779819Y-26980476D02*
X182208390Y-27409047D01*
X181779819Y-26980476D02*
X182351247Y-27551904D01*
X25937319Y-122801785D02*
X24937319Y-122801785D01*
X24937319Y-122801785D02*
X24937319Y-122563690D01*
X24937319Y-122563690D02*
X24984938Y-122420833D01*
X24984938Y-122420833D02*
X25080176Y-122325595D01*
X25080176Y-122325595D02*
X25175414Y-122277976D01*
X25175414Y-122277976D02*
X25365890Y-122230357D01*
X25365890Y-122230357D02*
X25508747Y-122230357D01*
X25508747Y-122230357D02*
X25699223Y-122277976D01*
X25699223Y-122277976D02*
X25794461Y-122325595D01*
X25794461Y-122325595D02*
X25889700Y-122420833D01*
X25889700Y-122420833D02*
X25937319Y-122563690D01*
X25937319Y-122563690D02*
X25937319Y-122801785D01*
X24937319Y-121897023D02*
X24937319Y-121277976D01*
X24937319Y-121277976D02*
X25318271Y-121611309D01*
X25318271Y-121611309D02*
X25318271Y-121468452D01*
X25318271Y-121468452D02*
X25365890Y-121373214D01*
X25365890Y-121373214D02*
X25413509Y-121325595D01*
X25413509Y-121325595D02*
X25508747Y-121277976D01*
X25508747Y-121277976D02*
X25746842Y-121277976D01*
X25746842Y-121277976D02*
X25842080Y-121325595D01*
X25842080Y-121325595D02*
X25889700Y-121373214D01*
X25889700Y-121373214D02*
X25937319Y-121468452D01*
X25937319Y-121468452D02*
X25937319Y-121754166D01*
X25937319Y-121754166D02*
X25889700Y-121849404D01*
X25889700Y-121849404D02*
X25842080Y-121897023D01*
X24937319Y-120944642D02*
X24937319Y-120277976D01*
X24937319Y-120277976D02*
X25937319Y-120706547D01*
X25617319Y-118039404D02*
X24617319Y-118039404D01*
X25617319Y-117467976D02*
X25045890Y-117896547D01*
X24617319Y-117467976D02*
X25188747Y-118039404D01*
X102137319Y-113276785D02*
X101137319Y-113276785D01*
X101137319Y-113276785D02*
X101137319Y-113038690D01*
X101137319Y-113038690D02*
X101184938Y-112895833D01*
X101184938Y-112895833D02*
X101280176Y-112800595D01*
X101280176Y-112800595D02*
X101375414Y-112752976D01*
X101375414Y-112752976D02*
X101565890Y-112705357D01*
X101565890Y-112705357D02*
X101708747Y-112705357D01*
X101708747Y-112705357D02*
X101899223Y-112752976D01*
X101899223Y-112752976D02*
X101994461Y-112800595D01*
X101994461Y-112800595D02*
X102089700Y-112895833D01*
X102089700Y-112895833D02*
X102137319Y-113038690D01*
X102137319Y-113038690D02*
X102137319Y-113276785D01*
X101137319Y-112372023D02*
X101137319Y-111752976D01*
X101137319Y-111752976D02*
X101518271Y-112086309D01*
X101518271Y-112086309D02*
X101518271Y-111943452D01*
X101518271Y-111943452D02*
X101565890Y-111848214D01*
X101565890Y-111848214D02*
X101613509Y-111800595D01*
X101613509Y-111800595D02*
X101708747Y-111752976D01*
X101708747Y-111752976D02*
X101946842Y-111752976D01*
X101946842Y-111752976D02*
X102042080Y-111800595D01*
X102042080Y-111800595D02*
X102089700Y-111848214D01*
X102089700Y-111848214D02*
X102137319Y-111943452D01*
X102137319Y-111943452D02*
X102137319Y-112229166D01*
X102137319Y-112229166D02*
X102089700Y-112324404D01*
X102089700Y-112324404D02*
X102042080Y-112372023D01*
X101232557Y-111372023D02*
X101184938Y-111324404D01*
X101184938Y-111324404D02*
X101137319Y-111229166D01*
X101137319Y-111229166D02*
X101137319Y-110991071D01*
X101137319Y-110991071D02*
X101184938Y-110895833D01*
X101184938Y-110895833D02*
X101232557Y-110848214D01*
X101232557Y-110848214D02*
X101327795Y-110800595D01*
X101327795Y-110800595D02*
X101423033Y-110800595D01*
X101423033Y-110800595D02*
X101565890Y-110848214D01*
X101565890Y-110848214D02*
X102137319Y-111419642D01*
X102137319Y-111419642D02*
X102137319Y-110800595D01*
X101817319Y-108514404D02*
X100817319Y-108514404D01*
X101817319Y-107942976D02*
X101245890Y-108371547D01*
X100817319Y-107942976D02*
X101388747Y-108514404D01*
X164049819Y-75176785D02*
X163049819Y-75176785D01*
X163049819Y-75176785D02*
X163049819Y-74938690D01*
X163049819Y-74938690D02*
X163097438Y-74795833D01*
X163097438Y-74795833D02*
X163192676Y-74700595D01*
X163192676Y-74700595D02*
X163287914Y-74652976D01*
X163287914Y-74652976D02*
X163478390Y-74605357D01*
X163478390Y-74605357D02*
X163621247Y-74605357D01*
X163621247Y-74605357D02*
X163811723Y-74652976D01*
X163811723Y-74652976D02*
X163906961Y-74700595D01*
X163906961Y-74700595D02*
X164002200Y-74795833D01*
X164002200Y-74795833D02*
X164049819Y-74938690D01*
X164049819Y-74938690D02*
X164049819Y-75176785D01*
X163145057Y-74224404D02*
X163097438Y-74176785D01*
X163097438Y-74176785D02*
X163049819Y-74081547D01*
X163049819Y-74081547D02*
X163049819Y-73843452D01*
X163049819Y-73843452D02*
X163097438Y-73748214D01*
X163097438Y-73748214D02*
X163145057Y-73700595D01*
X163145057Y-73700595D02*
X163240295Y-73652976D01*
X163240295Y-73652976D02*
X163335533Y-73652976D01*
X163335533Y-73652976D02*
X163478390Y-73700595D01*
X163478390Y-73700595D02*
X164049819Y-74272023D01*
X164049819Y-74272023D02*
X164049819Y-73652976D01*
X163145057Y-73272023D02*
X163097438Y-73224404D01*
X163097438Y-73224404D02*
X163049819Y-73129166D01*
X163049819Y-73129166D02*
X163049819Y-72891071D01*
X163049819Y-72891071D02*
X163097438Y-72795833D01*
X163097438Y-72795833D02*
X163145057Y-72748214D01*
X163145057Y-72748214D02*
X163240295Y-72700595D01*
X163240295Y-72700595D02*
X163335533Y-72700595D01*
X163335533Y-72700595D02*
X163478390Y-72748214D01*
X163478390Y-72748214D02*
X164049819Y-73319642D01*
X164049819Y-73319642D02*
X164049819Y-72700595D01*
X163729819Y-70414404D02*
X162729819Y-70414404D01*
X163729819Y-69842976D02*
X163158390Y-70271547D01*
X162729819Y-69842976D02*
X163301247Y-70414404D01*
X173574819Y-56126785D02*
X172574819Y-56126785D01*
X172574819Y-56126785D02*
X172574819Y-55888690D01*
X172574819Y-55888690D02*
X172622438Y-55745833D01*
X172622438Y-55745833D02*
X172717676Y-55650595D01*
X172717676Y-55650595D02*
X172812914Y-55602976D01*
X172812914Y-55602976D02*
X173003390Y-55555357D01*
X173003390Y-55555357D02*
X173146247Y-55555357D01*
X173146247Y-55555357D02*
X173336723Y-55602976D01*
X173336723Y-55602976D02*
X173431961Y-55650595D01*
X173431961Y-55650595D02*
X173527200Y-55745833D01*
X173527200Y-55745833D02*
X173574819Y-55888690D01*
X173574819Y-55888690D02*
X173574819Y-56126785D01*
X173574819Y-54602976D02*
X173574819Y-55174404D01*
X173574819Y-54888690D02*
X172574819Y-54888690D01*
X172574819Y-54888690D02*
X172717676Y-54983928D01*
X172717676Y-54983928D02*
X172812914Y-55079166D01*
X172812914Y-55079166D02*
X172860533Y-55174404D01*
X172574819Y-53698214D02*
X172574819Y-54174404D01*
X172574819Y-54174404D02*
X173051009Y-54222023D01*
X173051009Y-54222023D02*
X173003390Y-54174404D01*
X173003390Y-54174404D02*
X172955771Y-54079166D01*
X172955771Y-54079166D02*
X172955771Y-53841071D01*
X172955771Y-53841071D02*
X173003390Y-53745833D01*
X173003390Y-53745833D02*
X173051009Y-53698214D01*
X173051009Y-53698214D02*
X173146247Y-53650595D01*
X173146247Y-53650595D02*
X173384342Y-53650595D01*
X173384342Y-53650595D02*
X173479580Y-53698214D01*
X173479580Y-53698214D02*
X173527200Y-53745833D01*
X173527200Y-53745833D02*
X173574819Y-53841071D01*
X173574819Y-53841071D02*
X173574819Y-54079166D01*
X173574819Y-54079166D02*
X173527200Y-54174404D01*
X173527200Y-54174404D02*
X173479580Y-54222023D01*
X173254819Y-51364404D02*
X172254819Y-51364404D01*
X173254819Y-50792976D02*
X172683390Y-51221547D01*
X172254819Y-50792976D02*
X172826247Y-51364404D01*
X45190476Y-14454819D02*
X45190476Y-13454819D01*
X45190476Y-13454819D02*
X45523809Y-14169104D01*
X45523809Y-14169104D02*
X45857142Y-13454819D01*
X45857142Y-13454819D02*
X45857142Y-14454819D01*
X46238095Y-13454819D02*
X46857142Y-13454819D01*
X46857142Y-13454819D02*
X46523809Y-13835771D01*
X46523809Y-13835771D02*
X46666666Y-13835771D01*
X46666666Y-13835771D02*
X46761904Y-13883390D01*
X46761904Y-13883390D02*
X46809523Y-13931009D01*
X46809523Y-13931009D02*
X46857142Y-14026247D01*
X46857142Y-14026247D02*
X46857142Y-14264342D01*
X46857142Y-14264342D02*
X46809523Y-14359580D01*
X46809523Y-14359580D02*
X46761904Y-14407200D01*
X46761904Y-14407200D02*
X46666666Y-14454819D01*
X46666666Y-14454819D02*
X46380952Y-14454819D01*
X46380952Y-14454819D02*
X46285714Y-14407200D01*
X46285714Y-14407200D02*
X46238095Y-14359580D01*
X140237319Y-113276785D02*
X139237319Y-113276785D01*
X139237319Y-113276785D02*
X139237319Y-113038690D01*
X139237319Y-113038690D02*
X139284938Y-112895833D01*
X139284938Y-112895833D02*
X139380176Y-112800595D01*
X139380176Y-112800595D02*
X139475414Y-112752976D01*
X139475414Y-112752976D02*
X139665890Y-112705357D01*
X139665890Y-112705357D02*
X139808747Y-112705357D01*
X139808747Y-112705357D02*
X139999223Y-112752976D01*
X139999223Y-112752976D02*
X140094461Y-112800595D01*
X140094461Y-112800595D02*
X140189700Y-112895833D01*
X140189700Y-112895833D02*
X140237319Y-113038690D01*
X140237319Y-113038690D02*
X140237319Y-113276785D01*
X139237319Y-112372023D02*
X139237319Y-111752976D01*
X139237319Y-111752976D02*
X139618271Y-112086309D01*
X139618271Y-112086309D02*
X139618271Y-111943452D01*
X139618271Y-111943452D02*
X139665890Y-111848214D01*
X139665890Y-111848214D02*
X139713509Y-111800595D01*
X139713509Y-111800595D02*
X139808747Y-111752976D01*
X139808747Y-111752976D02*
X140046842Y-111752976D01*
X140046842Y-111752976D02*
X140142080Y-111800595D01*
X140142080Y-111800595D02*
X140189700Y-111848214D01*
X140189700Y-111848214D02*
X140237319Y-111943452D01*
X140237319Y-111943452D02*
X140237319Y-112229166D01*
X140237319Y-112229166D02*
X140189700Y-112324404D01*
X140189700Y-112324404D02*
X140142080Y-112372023D01*
X139570652Y-110895833D02*
X140237319Y-110895833D01*
X139189700Y-111133928D02*
X139903985Y-111372023D01*
X139903985Y-111372023D02*
X139903985Y-110752976D01*
X139917319Y-108514404D02*
X138917319Y-108514404D01*
X139917319Y-107942976D02*
X139345890Y-108371547D01*
X138917319Y-107942976D02*
X139488747Y-108514404D01*
X92612319Y-94226785D02*
X91612319Y-94226785D01*
X91612319Y-94226785D02*
X91612319Y-93988690D01*
X91612319Y-93988690D02*
X91659938Y-93845833D01*
X91659938Y-93845833D02*
X91755176Y-93750595D01*
X91755176Y-93750595D02*
X91850414Y-93702976D01*
X91850414Y-93702976D02*
X92040890Y-93655357D01*
X92040890Y-93655357D02*
X92183747Y-93655357D01*
X92183747Y-93655357D02*
X92374223Y-93702976D01*
X92374223Y-93702976D02*
X92469461Y-93750595D01*
X92469461Y-93750595D02*
X92564700Y-93845833D01*
X92564700Y-93845833D02*
X92612319Y-93988690D01*
X92612319Y-93988690D02*
X92612319Y-94226785D01*
X91707557Y-93274404D02*
X91659938Y-93226785D01*
X91659938Y-93226785D02*
X91612319Y-93131547D01*
X91612319Y-93131547D02*
X91612319Y-92893452D01*
X91612319Y-92893452D02*
X91659938Y-92798214D01*
X91659938Y-92798214D02*
X91707557Y-92750595D01*
X91707557Y-92750595D02*
X91802795Y-92702976D01*
X91802795Y-92702976D02*
X91898033Y-92702976D01*
X91898033Y-92702976D02*
X92040890Y-92750595D01*
X92040890Y-92750595D02*
X92612319Y-93322023D01*
X92612319Y-93322023D02*
X92612319Y-92702976D01*
X91612319Y-91798214D02*
X91612319Y-92274404D01*
X91612319Y-92274404D02*
X92088509Y-92322023D01*
X92088509Y-92322023D02*
X92040890Y-92274404D01*
X92040890Y-92274404D02*
X91993271Y-92179166D01*
X91993271Y-92179166D02*
X91993271Y-91941071D01*
X91993271Y-91941071D02*
X92040890Y-91845833D01*
X92040890Y-91845833D02*
X92088509Y-91798214D01*
X92088509Y-91798214D02*
X92183747Y-91750595D01*
X92183747Y-91750595D02*
X92421842Y-91750595D01*
X92421842Y-91750595D02*
X92517080Y-91798214D01*
X92517080Y-91798214D02*
X92564700Y-91845833D01*
X92564700Y-91845833D02*
X92612319Y-91941071D01*
X92612319Y-91941071D02*
X92612319Y-92179166D01*
X92612319Y-92179166D02*
X92564700Y-92274404D01*
X92564700Y-92274404D02*
X92517080Y-92322023D01*
X92292319Y-89464404D02*
X91292319Y-89464404D01*
X92292319Y-88892976D02*
X91720890Y-89321547D01*
X91292319Y-88892976D02*
X91863747Y-89464404D01*
X66418569Y-94226785D02*
X65418569Y-94226785D01*
X65418569Y-94226785D02*
X65418569Y-93988690D01*
X65418569Y-93988690D02*
X65466188Y-93845833D01*
X65466188Y-93845833D02*
X65561426Y-93750595D01*
X65561426Y-93750595D02*
X65656664Y-93702976D01*
X65656664Y-93702976D02*
X65847140Y-93655357D01*
X65847140Y-93655357D02*
X65989997Y-93655357D01*
X65989997Y-93655357D02*
X66180473Y-93702976D01*
X66180473Y-93702976D02*
X66275711Y-93750595D01*
X66275711Y-93750595D02*
X66370950Y-93845833D01*
X66370950Y-93845833D02*
X66418569Y-93988690D01*
X66418569Y-93988690D02*
X66418569Y-94226785D01*
X65513807Y-93274404D02*
X65466188Y-93226785D01*
X65466188Y-93226785D02*
X65418569Y-93131547D01*
X65418569Y-93131547D02*
X65418569Y-92893452D01*
X65418569Y-92893452D02*
X65466188Y-92798214D01*
X65466188Y-92798214D02*
X65513807Y-92750595D01*
X65513807Y-92750595D02*
X65609045Y-92702976D01*
X65609045Y-92702976D02*
X65704283Y-92702976D01*
X65704283Y-92702976D02*
X65847140Y-92750595D01*
X65847140Y-92750595D02*
X66418569Y-93322023D01*
X66418569Y-93322023D02*
X66418569Y-92702976D01*
X65751902Y-91845833D02*
X66418569Y-91845833D01*
X65370950Y-92083928D02*
X66085235Y-92322023D01*
X66085235Y-92322023D02*
X66085235Y-91702976D01*
X66098569Y-89464404D02*
X65098569Y-89464404D01*
X66098569Y-88892976D02*
X65527140Y-89321547D01*
X65098569Y-88892976D02*
X65669997Y-89464404D01*
X25937319Y-46125594D02*
X24937319Y-46125594D01*
X24937319Y-46125594D02*
X24937319Y-45887499D01*
X24937319Y-45887499D02*
X24984938Y-45744642D01*
X24984938Y-45744642D02*
X25080176Y-45649404D01*
X25080176Y-45649404D02*
X25175414Y-45601785D01*
X25175414Y-45601785D02*
X25365890Y-45554166D01*
X25365890Y-45554166D02*
X25508747Y-45554166D01*
X25508747Y-45554166D02*
X25699223Y-45601785D01*
X25699223Y-45601785D02*
X25794461Y-45649404D01*
X25794461Y-45649404D02*
X25889700Y-45744642D01*
X25889700Y-45744642D02*
X25937319Y-45887499D01*
X25937319Y-45887499D02*
X25937319Y-46125594D01*
X25365890Y-44982737D02*
X25318271Y-45077975D01*
X25318271Y-45077975D02*
X25270652Y-45125594D01*
X25270652Y-45125594D02*
X25175414Y-45173213D01*
X25175414Y-45173213D02*
X25127795Y-45173213D01*
X25127795Y-45173213D02*
X25032557Y-45125594D01*
X25032557Y-45125594D02*
X24984938Y-45077975D01*
X24984938Y-45077975D02*
X24937319Y-44982737D01*
X24937319Y-44982737D02*
X24937319Y-44792261D01*
X24937319Y-44792261D02*
X24984938Y-44697023D01*
X24984938Y-44697023D02*
X25032557Y-44649404D01*
X25032557Y-44649404D02*
X25127795Y-44601785D01*
X25127795Y-44601785D02*
X25175414Y-44601785D01*
X25175414Y-44601785D02*
X25270652Y-44649404D01*
X25270652Y-44649404D02*
X25318271Y-44697023D01*
X25318271Y-44697023D02*
X25365890Y-44792261D01*
X25365890Y-44792261D02*
X25365890Y-44982737D01*
X25365890Y-44982737D02*
X25413509Y-45077975D01*
X25413509Y-45077975D02*
X25461128Y-45125594D01*
X25461128Y-45125594D02*
X25556366Y-45173213D01*
X25556366Y-45173213D02*
X25746842Y-45173213D01*
X25746842Y-45173213D02*
X25842080Y-45125594D01*
X25842080Y-45125594D02*
X25889700Y-45077975D01*
X25889700Y-45077975D02*
X25937319Y-44982737D01*
X25937319Y-44982737D02*
X25937319Y-44792261D01*
X25937319Y-44792261D02*
X25889700Y-44697023D01*
X25889700Y-44697023D02*
X25842080Y-44649404D01*
X25842080Y-44649404D02*
X25746842Y-44601785D01*
X25746842Y-44601785D02*
X25556366Y-44601785D01*
X25556366Y-44601785D02*
X25461128Y-44649404D01*
X25461128Y-44649404D02*
X25413509Y-44697023D01*
X25413509Y-44697023D02*
X25365890Y-44792261D01*
X25617319Y-41839404D02*
X24617319Y-41839404D01*
X25617319Y-41267976D02*
X25045890Y-41696547D01*
X24617319Y-41267976D02*
X25188747Y-41839404D01*
X97374819Y-56126785D02*
X96374819Y-56126785D01*
X96374819Y-56126785D02*
X96374819Y-55888690D01*
X96374819Y-55888690D02*
X96422438Y-55745833D01*
X96422438Y-55745833D02*
X96517676Y-55650595D01*
X96517676Y-55650595D02*
X96612914Y-55602976D01*
X96612914Y-55602976D02*
X96803390Y-55555357D01*
X96803390Y-55555357D02*
X96946247Y-55555357D01*
X96946247Y-55555357D02*
X97136723Y-55602976D01*
X97136723Y-55602976D02*
X97231961Y-55650595D01*
X97231961Y-55650595D02*
X97327200Y-55745833D01*
X97327200Y-55745833D02*
X97374819Y-55888690D01*
X97374819Y-55888690D02*
X97374819Y-56126785D01*
X97374819Y-54602976D02*
X97374819Y-55174404D01*
X97374819Y-54888690D02*
X96374819Y-54888690D01*
X96374819Y-54888690D02*
X96517676Y-54983928D01*
X96517676Y-54983928D02*
X96612914Y-55079166D01*
X96612914Y-55079166D02*
X96660533Y-55174404D01*
X97374819Y-53650595D02*
X97374819Y-54222023D01*
X97374819Y-53936309D02*
X96374819Y-53936309D01*
X96374819Y-53936309D02*
X96517676Y-54031547D01*
X96517676Y-54031547D02*
X96612914Y-54126785D01*
X96612914Y-54126785D02*
X96660533Y-54222023D01*
X97054819Y-51364404D02*
X96054819Y-51364404D01*
X97054819Y-50792976D02*
X96483390Y-51221547D01*
X96054819Y-50792976D02*
X96626247Y-51364404D01*
X162074819Y-132326785D02*
X161074819Y-132326785D01*
X161074819Y-132326785D02*
X161074819Y-132088690D01*
X161074819Y-132088690D02*
X161122438Y-131945833D01*
X161122438Y-131945833D02*
X161217676Y-131850595D01*
X161217676Y-131850595D02*
X161312914Y-131802976D01*
X161312914Y-131802976D02*
X161503390Y-131755357D01*
X161503390Y-131755357D02*
X161646247Y-131755357D01*
X161646247Y-131755357D02*
X161836723Y-131802976D01*
X161836723Y-131802976D02*
X161931961Y-131850595D01*
X161931961Y-131850595D02*
X162027200Y-131945833D01*
X162027200Y-131945833D02*
X162074819Y-132088690D01*
X162074819Y-132088690D02*
X162074819Y-132326785D01*
X161408152Y-130898214D02*
X162074819Y-130898214D01*
X161027200Y-131136309D02*
X161741485Y-131374404D01*
X161741485Y-131374404D02*
X161741485Y-130755357D01*
X162074819Y-129850595D02*
X162074819Y-130422023D01*
X162074819Y-130136309D02*
X161074819Y-130136309D01*
X161074819Y-130136309D02*
X161217676Y-130231547D01*
X161217676Y-130231547D02*
X161312914Y-130326785D01*
X161312914Y-130326785D02*
X161360533Y-130422023D01*
X161754819Y-127564404D02*
X160754819Y-127564404D01*
X161754819Y-126992976D02*
X161183390Y-127421547D01*
X160754819Y-126992976D02*
X161326247Y-127564404D01*
X83087319Y-31838094D02*
X82087319Y-31838094D01*
X82087319Y-31838094D02*
X82087319Y-31599999D01*
X82087319Y-31599999D02*
X82134938Y-31457142D01*
X82134938Y-31457142D02*
X82230176Y-31361904D01*
X82230176Y-31361904D02*
X82325414Y-31314285D01*
X82325414Y-31314285D02*
X82515890Y-31266666D01*
X82515890Y-31266666D02*
X82658747Y-31266666D01*
X82658747Y-31266666D02*
X82849223Y-31314285D01*
X82849223Y-31314285D02*
X82944461Y-31361904D01*
X82944461Y-31361904D02*
X83039700Y-31457142D01*
X83039700Y-31457142D02*
X83087319Y-31599999D01*
X83087319Y-31599999D02*
X83087319Y-31838094D01*
X82182557Y-30885713D02*
X82134938Y-30838094D01*
X82134938Y-30838094D02*
X82087319Y-30742856D01*
X82087319Y-30742856D02*
X82087319Y-30504761D01*
X82087319Y-30504761D02*
X82134938Y-30409523D01*
X82134938Y-30409523D02*
X82182557Y-30361904D01*
X82182557Y-30361904D02*
X82277795Y-30314285D01*
X82277795Y-30314285D02*
X82373033Y-30314285D01*
X82373033Y-30314285D02*
X82515890Y-30361904D01*
X82515890Y-30361904D02*
X83087319Y-30933332D01*
X83087319Y-30933332D02*
X83087319Y-30314285D01*
X82767319Y-27551904D02*
X81767319Y-27551904D01*
X82767319Y-26980476D02*
X82195890Y-27409047D01*
X81767319Y-26980476D02*
X82338747Y-27551904D01*
X90231069Y-132326785D02*
X89231069Y-132326785D01*
X89231069Y-132326785D02*
X89231069Y-132088690D01*
X89231069Y-132088690D02*
X89278688Y-131945833D01*
X89278688Y-131945833D02*
X89373926Y-131850595D01*
X89373926Y-131850595D02*
X89469164Y-131802976D01*
X89469164Y-131802976D02*
X89659640Y-131755357D01*
X89659640Y-131755357D02*
X89802497Y-131755357D01*
X89802497Y-131755357D02*
X89992973Y-131802976D01*
X89992973Y-131802976D02*
X90088211Y-131850595D01*
X90088211Y-131850595D02*
X90183450Y-131945833D01*
X90183450Y-131945833D02*
X90231069Y-132088690D01*
X90231069Y-132088690D02*
X90231069Y-132326785D01*
X89231069Y-131422023D02*
X89231069Y-130802976D01*
X89231069Y-130802976D02*
X89612021Y-131136309D01*
X89612021Y-131136309D02*
X89612021Y-130993452D01*
X89612021Y-130993452D02*
X89659640Y-130898214D01*
X89659640Y-130898214D02*
X89707259Y-130850595D01*
X89707259Y-130850595D02*
X89802497Y-130802976D01*
X89802497Y-130802976D02*
X90040592Y-130802976D01*
X90040592Y-130802976D02*
X90135830Y-130850595D01*
X90135830Y-130850595D02*
X90183450Y-130898214D01*
X90183450Y-130898214D02*
X90231069Y-130993452D01*
X90231069Y-130993452D02*
X90231069Y-131279166D01*
X90231069Y-131279166D02*
X90183450Y-131374404D01*
X90183450Y-131374404D02*
X90135830Y-131422023D01*
X90231069Y-130326785D02*
X90231069Y-130136309D01*
X90231069Y-130136309D02*
X90183450Y-130041071D01*
X90183450Y-130041071D02*
X90135830Y-129993452D01*
X90135830Y-129993452D02*
X89992973Y-129898214D01*
X89992973Y-129898214D02*
X89802497Y-129850595D01*
X89802497Y-129850595D02*
X89421545Y-129850595D01*
X89421545Y-129850595D02*
X89326307Y-129898214D01*
X89326307Y-129898214D02*
X89278688Y-129945833D01*
X89278688Y-129945833D02*
X89231069Y-130041071D01*
X89231069Y-130041071D02*
X89231069Y-130231547D01*
X89231069Y-130231547D02*
X89278688Y-130326785D01*
X89278688Y-130326785D02*
X89326307Y-130374404D01*
X89326307Y-130374404D02*
X89421545Y-130422023D01*
X89421545Y-130422023D02*
X89659640Y-130422023D01*
X89659640Y-130422023D02*
X89754878Y-130374404D01*
X89754878Y-130374404D02*
X89802497Y-130326785D01*
X89802497Y-130326785D02*
X89850116Y-130231547D01*
X89850116Y-130231547D02*
X89850116Y-130041071D01*
X89850116Y-130041071D02*
X89802497Y-129945833D01*
X89802497Y-129945833D02*
X89754878Y-129898214D01*
X89754878Y-129898214D02*
X89659640Y-129850595D01*
X89911069Y-127564404D02*
X88911069Y-127564404D01*
X89911069Y-126992976D02*
X89339640Y-127421547D01*
X88911069Y-126992976D02*
X89482497Y-127564404D01*
X25937319Y-103751785D02*
X24937319Y-103751785D01*
X24937319Y-103751785D02*
X24937319Y-103513690D01*
X24937319Y-103513690D02*
X24984938Y-103370833D01*
X24984938Y-103370833D02*
X25080176Y-103275595D01*
X25080176Y-103275595D02*
X25175414Y-103227976D01*
X25175414Y-103227976D02*
X25365890Y-103180357D01*
X25365890Y-103180357D02*
X25508747Y-103180357D01*
X25508747Y-103180357D02*
X25699223Y-103227976D01*
X25699223Y-103227976D02*
X25794461Y-103275595D01*
X25794461Y-103275595D02*
X25889700Y-103370833D01*
X25889700Y-103370833D02*
X25937319Y-103513690D01*
X25937319Y-103513690D02*
X25937319Y-103751785D01*
X24937319Y-102847023D02*
X24937319Y-102227976D01*
X24937319Y-102227976D02*
X25318271Y-102561309D01*
X25318271Y-102561309D02*
X25318271Y-102418452D01*
X25318271Y-102418452D02*
X25365890Y-102323214D01*
X25365890Y-102323214D02*
X25413509Y-102275595D01*
X25413509Y-102275595D02*
X25508747Y-102227976D01*
X25508747Y-102227976D02*
X25746842Y-102227976D01*
X25746842Y-102227976D02*
X25842080Y-102275595D01*
X25842080Y-102275595D02*
X25889700Y-102323214D01*
X25889700Y-102323214D02*
X25937319Y-102418452D01*
X25937319Y-102418452D02*
X25937319Y-102704166D01*
X25937319Y-102704166D02*
X25889700Y-102799404D01*
X25889700Y-102799404D02*
X25842080Y-102847023D01*
X24937319Y-101608928D02*
X24937319Y-101513690D01*
X24937319Y-101513690D02*
X24984938Y-101418452D01*
X24984938Y-101418452D02*
X25032557Y-101370833D01*
X25032557Y-101370833D02*
X25127795Y-101323214D01*
X25127795Y-101323214D02*
X25318271Y-101275595D01*
X25318271Y-101275595D02*
X25556366Y-101275595D01*
X25556366Y-101275595D02*
X25746842Y-101323214D01*
X25746842Y-101323214D02*
X25842080Y-101370833D01*
X25842080Y-101370833D02*
X25889700Y-101418452D01*
X25889700Y-101418452D02*
X25937319Y-101513690D01*
X25937319Y-101513690D02*
X25937319Y-101608928D01*
X25937319Y-101608928D02*
X25889700Y-101704166D01*
X25889700Y-101704166D02*
X25842080Y-101751785D01*
X25842080Y-101751785D02*
X25746842Y-101799404D01*
X25746842Y-101799404D02*
X25556366Y-101847023D01*
X25556366Y-101847023D02*
X25318271Y-101847023D01*
X25318271Y-101847023D02*
X25127795Y-101799404D01*
X25127795Y-101799404D02*
X25032557Y-101751785D01*
X25032557Y-101751785D02*
X24984938Y-101704166D01*
X24984938Y-101704166D02*
X24937319Y-101608928D01*
X25617319Y-98989404D02*
X24617319Y-98989404D01*
X25617319Y-98417976D02*
X25045890Y-98846547D01*
X24617319Y-98417976D02*
X25188747Y-98989404D01*
X178190476Y-135604819D02*
X178190476Y-134604819D01*
X178190476Y-134604819D02*
X178523809Y-135319104D01*
X178523809Y-135319104D02*
X178857142Y-134604819D01*
X178857142Y-134604819D02*
X178857142Y-135604819D01*
X179238095Y-134604819D02*
X179857142Y-134604819D01*
X179857142Y-134604819D02*
X179523809Y-134985771D01*
X179523809Y-134985771D02*
X179666666Y-134985771D01*
X179666666Y-134985771D02*
X179761904Y-135033390D01*
X179761904Y-135033390D02*
X179809523Y-135081009D01*
X179809523Y-135081009D02*
X179857142Y-135176247D01*
X179857142Y-135176247D02*
X179857142Y-135414342D01*
X179857142Y-135414342D02*
X179809523Y-135509580D01*
X179809523Y-135509580D02*
X179761904Y-135557200D01*
X179761904Y-135557200D02*
X179666666Y-135604819D01*
X179666666Y-135604819D02*
X179380952Y-135604819D01*
X179380952Y-135604819D02*
X179285714Y-135557200D01*
X179285714Y-135557200D02*
X179238095Y-135509580D01*
X87849819Y-75176785D02*
X86849819Y-75176785D01*
X86849819Y-75176785D02*
X86849819Y-74938690D01*
X86849819Y-74938690D02*
X86897438Y-74795833D01*
X86897438Y-74795833D02*
X86992676Y-74700595D01*
X86992676Y-74700595D02*
X87087914Y-74652976D01*
X87087914Y-74652976D02*
X87278390Y-74605357D01*
X87278390Y-74605357D02*
X87421247Y-74605357D01*
X87421247Y-74605357D02*
X87611723Y-74652976D01*
X87611723Y-74652976D02*
X87706961Y-74700595D01*
X87706961Y-74700595D02*
X87802200Y-74795833D01*
X87802200Y-74795833D02*
X87849819Y-74938690D01*
X87849819Y-74938690D02*
X87849819Y-75176785D01*
X87849819Y-73652976D02*
X87849819Y-74224404D01*
X87849819Y-73938690D02*
X86849819Y-73938690D01*
X86849819Y-73938690D02*
X86992676Y-74033928D01*
X86992676Y-74033928D02*
X87087914Y-74129166D01*
X87087914Y-74129166D02*
X87135533Y-74224404D01*
X87278390Y-73081547D02*
X87230771Y-73176785D01*
X87230771Y-73176785D02*
X87183152Y-73224404D01*
X87183152Y-73224404D02*
X87087914Y-73272023D01*
X87087914Y-73272023D02*
X87040295Y-73272023D01*
X87040295Y-73272023D02*
X86945057Y-73224404D01*
X86945057Y-73224404D02*
X86897438Y-73176785D01*
X86897438Y-73176785D02*
X86849819Y-73081547D01*
X86849819Y-73081547D02*
X86849819Y-72891071D01*
X86849819Y-72891071D02*
X86897438Y-72795833D01*
X86897438Y-72795833D02*
X86945057Y-72748214D01*
X86945057Y-72748214D02*
X87040295Y-72700595D01*
X87040295Y-72700595D02*
X87087914Y-72700595D01*
X87087914Y-72700595D02*
X87183152Y-72748214D01*
X87183152Y-72748214D02*
X87230771Y-72795833D01*
X87230771Y-72795833D02*
X87278390Y-72891071D01*
X87278390Y-72891071D02*
X87278390Y-73081547D01*
X87278390Y-73081547D02*
X87326009Y-73176785D01*
X87326009Y-73176785D02*
X87373628Y-73224404D01*
X87373628Y-73224404D02*
X87468866Y-73272023D01*
X87468866Y-73272023D02*
X87659342Y-73272023D01*
X87659342Y-73272023D02*
X87754580Y-73224404D01*
X87754580Y-73224404D02*
X87802200Y-73176785D01*
X87802200Y-73176785D02*
X87849819Y-73081547D01*
X87849819Y-73081547D02*
X87849819Y-72891071D01*
X87849819Y-72891071D02*
X87802200Y-72795833D01*
X87802200Y-72795833D02*
X87754580Y-72748214D01*
X87754580Y-72748214D02*
X87659342Y-72700595D01*
X87659342Y-72700595D02*
X87468866Y-72700595D01*
X87468866Y-72700595D02*
X87373628Y-72748214D01*
X87373628Y-72748214D02*
X87326009Y-72795833D01*
X87326009Y-72795833D02*
X87278390Y-72891071D01*
X87529819Y-70414404D02*
X86529819Y-70414404D01*
X87529819Y-69842976D02*
X86958390Y-70271547D01*
X86529819Y-69842976D02*
X87101247Y-70414404D01*
X102137319Y-31838094D02*
X101137319Y-31838094D01*
X101137319Y-31838094D02*
X101137319Y-31599999D01*
X101137319Y-31599999D02*
X101184938Y-31457142D01*
X101184938Y-31457142D02*
X101280176Y-31361904D01*
X101280176Y-31361904D02*
X101375414Y-31314285D01*
X101375414Y-31314285D02*
X101565890Y-31266666D01*
X101565890Y-31266666D02*
X101708747Y-31266666D01*
X101708747Y-31266666D02*
X101899223Y-31314285D01*
X101899223Y-31314285D02*
X101994461Y-31361904D01*
X101994461Y-31361904D02*
X102089700Y-31457142D01*
X102089700Y-31457142D02*
X102137319Y-31599999D01*
X102137319Y-31599999D02*
X102137319Y-31838094D01*
X101137319Y-30933332D02*
X101137319Y-30314285D01*
X101137319Y-30314285D02*
X101518271Y-30647618D01*
X101518271Y-30647618D02*
X101518271Y-30504761D01*
X101518271Y-30504761D02*
X101565890Y-30409523D01*
X101565890Y-30409523D02*
X101613509Y-30361904D01*
X101613509Y-30361904D02*
X101708747Y-30314285D01*
X101708747Y-30314285D02*
X101946842Y-30314285D01*
X101946842Y-30314285D02*
X102042080Y-30361904D01*
X102042080Y-30361904D02*
X102089700Y-30409523D01*
X102089700Y-30409523D02*
X102137319Y-30504761D01*
X102137319Y-30504761D02*
X102137319Y-30790475D01*
X102137319Y-30790475D02*
X102089700Y-30885713D01*
X102089700Y-30885713D02*
X102042080Y-30933332D01*
X101817319Y-27551904D02*
X100817319Y-27551904D01*
X101817319Y-26980476D02*
X101245890Y-27409047D01*
X100817319Y-26980476D02*
X101388747Y-27551904D01*
X149762319Y-94226785D02*
X148762319Y-94226785D01*
X148762319Y-94226785D02*
X148762319Y-93988690D01*
X148762319Y-93988690D02*
X148809938Y-93845833D01*
X148809938Y-93845833D02*
X148905176Y-93750595D01*
X148905176Y-93750595D02*
X149000414Y-93702976D01*
X149000414Y-93702976D02*
X149190890Y-93655357D01*
X149190890Y-93655357D02*
X149333747Y-93655357D01*
X149333747Y-93655357D02*
X149524223Y-93702976D01*
X149524223Y-93702976D02*
X149619461Y-93750595D01*
X149619461Y-93750595D02*
X149714700Y-93845833D01*
X149714700Y-93845833D02*
X149762319Y-93988690D01*
X149762319Y-93988690D02*
X149762319Y-94226785D01*
X148857557Y-93274404D02*
X148809938Y-93226785D01*
X148809938Y-93226785D02*
X148762319Y-93131547D01*
X148762319Y-93131547D02*
X148762319Y-92893452D01*
X148762319Y-92893452D02*
X148809938Y-92798214D01*
X148809938Y-92798214D02*
X148857557Y-92750595D01*
X148857557Y-92750595D02*
X148952795Y-92702976D01*
X148952795Y-92702976D02*
X149048033Y-92702976D01*
X149048033Y-92702976D02*
X149190890Y-92750595D01*
X149190890Y-92750595D02*
X149762319Y-93322023D01*
X149762319Y-93322023D02*
X149762319Y-92702976D01*
X149190890Y-92131547D02*
X149143271Y-92226785D01*
X149143271Y-92226785D02*
X149095652Y-92274404D01*
X149095652Y-92274404D02*
X149000414Y-92322023D01*
X149000414Y-92322023D02*
X148952795Y-92322023D01*
X148952795Y-92322023D02*
X148857557Y-92274404D01*
X148857557Y-92274404D02*
X148809938Y-92226785D01*
X148809938Y-92226785D02*
X148762319Y-92131547D01*
X148762319Y-92131547D02*
X148762319Y-91941071D01*
X148762319Y-91941071D02*
X148809938Y-91845833D01*
X148809938Y-91845833D02*
X148857557Y-91798214D01*
X148857557Y-91798214D02*
X148952795Y-91750595D01*
X148952795Y-91750595D02*
X149000414Y-91750595D01*
X149000414Y-91750595D02*
X149095652Y-91798214D01*
X149095652Y-91798214D02*
X149143271Y-91845833D01*
X149143271Y-91845833D02*
X149190890Y-91941071D01*
X149190890Y-91941071D02*
X149190890Y-92131547D01*
X149190890Y-92131547D02*
X149238509Y-92226785D01*
X149238509Y-92226785D02*
X149286128Y-92274404D01*
X149286128Y-92274404D02*
X149381366Y-92322023D01*
X149381366Y-92322023D02*
X149571842Y-92322023D01*
X149571842Y-92322023D02*
X149667080Y-92274404D01*
X149667080Y-92274404D02*
X149714700Y-92226785D01*
X149714700Y-92226785D02*
X149762319Y-92131547D01*
X149762319Y-92131547D02*
X149762319Y-91941071D01*
X149762319Y-91941071D02*
X149714700Y-91845833D01*
X149714700Y-91845833D02*
X149667080Y-91798214D01*
X149667080Y-91798214D02*
X149571842Y-91750595D01*
X149571842Y-91750595D02*
X149381366Y-91750595D01*
X149381366Y-91750595D02*
X149286128Y-91798214D01*
X149286128Y-91798214D02*
X149238509Y-91845833D01*
X149238509Y-91845833D02*
X149190890Y-91941071D01*
X149442319Y-89464404D02*
X148442319Y-89464404D01*
X149442319Y-88892976D02*
X148870890Y-89321547D01*
X148442319Y-88892976D02*
X149013747Y-89464404D01*
D11*
X93087500Y-87512500D02*
X93087500Y-86512500D01*
X93087500Y-99512500D02*
X93087500Y-98512500D01*
X93087500Y-99512500D02*
X94087500Y-99512500D01*
X94087500Y-86512500D02*
X93087500Y-86512500D01*
X105087500Y-99512500D02*
X106087500Y-99512500D01*
X106087500Y-86512500D02*
X105087500Y-86512500D01*
X106087500Y-86512500D02*
X106087500Y-87512500D01*
X106087500Y-98512500D02*
X106087500Y-99512500D01*
D12*
X128137500Y-90242500D02*
X128137500Y-90892500D01*
X129257500Y-90892500D02*
X127017500Y-90892500D01*
X127017500Y-90892500D02*
X127017500Y-95132500D01*
X129257500Y-91492500D02*
X127017500Y-91492500D01*
X129257500Y-91612500D02*
X127017500Y-91612500D01*
X129257500Y-91732500D02*
X127017500Y-91732500D01*
X129257500Y-95132500D02*
X129257500Y-90892500D01*
X127017500Y-95132500D02*
X129257500Y-95132500D01*
X128137500Y-95782500D02*
X128137500Y-95132500D01*
X104325000Y-71192500D02*
X104325000Y-71842500D01*
X105445000Y-71842500D02*
X103205000Y-71842500D01*
X103205000Y-71842500D02*
X103205000Y-76082500D01*
X105445000Y-72442500D02*
X103205000Y-72442500D01*
X105445000Y-72562500D02*
X103205000Y-72562500D01*
X105445000Y-72682500D02*
X103205000Y-72682500D01*
X105445000Y-76082500D02*
X105445000Y-71842500D01*
X103205000Y-76082500D02*
X105445000Y-76082500D01*
X104325000Y-76732500D02*
X104325000Y-76082500D01*
D11*
X64512500Y-25600000D02*
X64512500Y-24600000D01*
X64512500Y-37600000D02*
X64512500Y-36600000D01*
X64512500Y-37600000D02*
X65512500Y-37600000D01*
X65512500Y-24600000D02*
X64512500Y-24600000D01*
X76512500Y-37600000D02*
X77512500Y-37600000D01*
X77512500Y-24600000D02*
X76512500Y-24600000D01*
X77512500Y-24600000D02*
X77512500Y-25600000D01*
X77512500Y-36600000D02*
X77512500Y-37600000D01*
X164525000Y-25600000D02*
X164525000Y-24600000D01*
X164525000Y-37600000D02*
X164525000Y-36600000D01*
X164525000Y-37600000D02*
X165525000Y-37600000D01*
X165525000Y-24600000D02*
X164525000Y-24600000D01*
X176525000Y-37600000D02*
X177525000Y-37600000D01*
X177525000Y-24600000D02*
X176525000Y-24600000D01*
X177525000Y-24600000D02*
X177525000Y-25600000D01*
X177525000Y-36600000D02*
X177525000Y-37600000D01*
D12*
X161475000Y-28330000D02*
X161475000Y-28980000D01*
X162595000Y-28980000D02*
X160355000Y-28980000D01*
X160355000Y-28980000D02*
X160355000Y-33220000D01*
X162595000Y-29580000D02*
X160355000Y-29580000D01*
X162595000Y-29700000D02*
X160355000Y-29700000D01*
X162595000Y-29820000D02*
X160355000Y-29820000D01*
X162595000Y-33220000D02*
X162595000Y-28980000D01*
X160355000Y-33220000D02*
X162595000Y-33220000D01*
X161475000Y-33870000D02*
X161475000Y-33220000D01*
D11*
X88325000Y-68462500D02*
X88325000Y-67462500D01*
X88325000Y-80462500D02*
X88325000Y-79462500D01*
X88325000Y-80462500D02*
X89325000Y-80462500D01*
X89325000Y-67462500D02*
X88325000Y-67462500D01*
X100325000Y-80462500D02*
X101325000Y-80462500D01*
X101325000Y-67462500D02*
X100325000Y-67462500D01*
X101325000Y-67462500D02*
X101325000Y-68462500D01*
X101325000Y-79462500D02*
X101325000Y-80462500D01*
D12*
X166237500Y-90242500D02*
X166237500Y-90892500D01*
X167357500Y-90892500D02*
X165117500Y-90892500D01*
X165117500Y-90892500D02*
X165117500Y-95132500D01*
X167357500Y-91492500D02*
X165117500Y-91492500D01*
X167357500Y-91612500D02*
X165117500Y-91612500D01*
X167357500Y-91732500D02*
X165117500Y-91732500D01*
X167357500Y-95132500D02*
X167357500Y-90892500D01*
X165117500Y-95132500D02*
X167357500Y-95132500D01*
X166237500Y-95782500D02*
X166237500Y-95132500D01*
X23362500Y-61667500D02*
X23362500Y-62317500D01*
X24482500Y-62317500D02*
X22242500Y-62317500D01*
X22242500Y-62317500D02*
X22242500Y-66557500D01*
X24482500Y-62917500D02*
X22242500Y-62917500D01*
X24482500Y-63037500D02*
X22242500Y-63037500D01*
X24482500Y-63157500D02*
X22242500Y-63157500D01*
X24482500Y-66557500D02*
X24482500Y-62317500D01*
X22242500Y-66557500D02*
X24482500Y-66557500D01*
X23362500Y-67207500D02*
X23362500Y-66557500D01*
X132900000Y-52142500D02*
X132900000Y-52792500D01*
X134020000Y-52792500D02*
X131780000Y-52792500D01*
X131780000Y-52792500D02*
X131780000Y-57032500D01*
X134020000Y-53392500D02*
X131780000Y-53392500D01*
X134020000Y-53512500D02*
X131780000Y-53512500D01*
X134020000Y-53632500D02*
X131780000Y-53632500D01*
X134020000Y-57032500D02*
X134020000Y-52792500D01*
X131780000Y-57032500D02*
X134020000Y-57032500D01*
X132900000Y-57682500D02*
X132900000Y-57032500D01*
X61462500Y-71192500D02*
X61462500Y-71842500D01*
X62582500Y-71842500D02*
X60342500Y-71842500D01*
X60342500Y-71842500D02*
X60342500Y-76082500D01*
X62582500Y-72442500D02*
X60342500Y-72442500D01*
X62582500Y-72562500D02*
X60342500Y-72562500D01*
X62582500Y-72682500D02*
X60342500Y-72682500D01*
X62582500Y-76082500D02*
X62582500Y-71842500D01*
X60342500Y-76082500D02*
X62582500Y-76082500D01*
X61462500Y-76732500D02*
X61462500Y-76082500D01*
D11*
X45462500Y-68462500D02*
X45462500Y-67462500D01*
X45462500Y-80462500D02*
X45462500Y-79462500D01*
X45462500Y-80462500D02*
X46462500Y-80462500D01*
X46462500Y-67462500D02*
X45462500Y-67462500D01*
X57462500Y-80462500D02*
X58462500Y-80462500D01*
X58462500Y-67462500D02*
X57462500Y-67462500D01*
X58462500Y-67462500D02*
X58462500Y-68462500D01*
X58462500Y-79462500D02*
X58462500Y-80462500D01*
X133568750Y-125612500D02*
X133568750Y-124612500D01*
X133568750Y-137612500D02*
X133568750Y-136612500D01*
X133568750Y-137612500D02*
X134568750Y-137612500D01*
X134568750Y-124612500D02*
X133568750Y-124612500D01*
X145568750Y-137612500D02*
X146568750Y-137612500D01*
X146568750Y-124612500D02*
X145568750Y-124612500D01*
X146568750Y-124612500D02*
X146568750Y-125612500D01*
X146568750Y-136612500D02*
X146568750Y-137612500D01*
D13*
X1220000Y-9610000D02*
X1220000Y-27390000D01*
X1220000Y-27390000D02*
X3760000Y-27390000D01*
X3760000Y-9610000D02*
X1220000Y-9610000D01*
X3760000Y-24850000D02*
X3760000Y-27390000D01*
X3760000Y-24850000D02*
X6300000Y-24850000D01*
X3760000Y-27390000D02*
X34240000Y-27390000D01*
X6300000Y-24850000D02*
X6300000Y-27390000D01*
X34240000Y-9610000D02*
X3760000Y-9610000D01*
X34240000Y-27390000D02*
X34240000Y-9610000D01*
D10*
X9739360Y-14068432D02*
X9639360Y-14068432D01*
X9639360Y-13568432D01*
X9739360Y-13568432D01*
X9739360Y-14068432D01*
G36*
X9739360Y-14068432D02*
G01*
X9639360Y-14068432D01*
X9639360Y-13568432D01*
X9739360Y-13568432D01*
X9739360Y-14068432D01*
G37*
X9939360Y-13668432D02*
X9639360Y-13668432D01*
X9639360Y-13568432D01*
X9939360Y-13568432D01*
X9939360Y-13668432D01*
G36*
X9939360Y-13668432D02*
G01*
X9639360Y-13668432D01*
X9639360Y-13568432D01*
X9939360Y-13568432D01*
X9939360Y-13668432D01*
G37*
X10439360Y-14068432D02*
X9639360Y-14068432D01*
X9639360Y-13968432D01*
X10439360Y-13968432D01*
X10439360Y-14068432D01*
G36*
X10439360Y-14068432D02*
G01*
X9639360Y-14068432D01*
X9639360Y-13968432D01*
X10439360Y-13968432D01*
X10439360Y-14068432D01*
G37*
X10139360Y-13868432D02*
X10039360Y-13868432D01*
X10039360Y-13768432D01*
X10139360Y-13768432D01*
X10139360Y-13868432D01*
G36*
X10139360Y-13868432D02*
G01*
X10039360Y-13868432D01*
X10039360Y-13768432D01*
X10139360Y-13768432D01*
X10139360Y-13868432D01*
G37*
X10439360Y-13668432D02*
X10239360Y-13668432D01*
X10239360Y-13568432D01*
X10439360Y-13568432D01*
X10439360Y-13668432D01*
G36*
X10439360Y-13668432D02*
G01*
X10239360Y-13668432D01*
X10239360Y-13568432D01*
X10439360Y-13568432D01*
X10439360Y-13668432D01*
G37*
D12*
X78000000Y-109292500D02*
X78000000Y-109942500D01*
X79120000Y-109942500D02*
X76880000Y-109942500D01*
X76880000Y-109942500D02*
X76880000Y-114182500D01*
X79120000Y-110542500D02*
X76880000Y-110542500D01*
X79120000Y-110662500D02*
X76880000Y-110662500D01*
X79120000Y-110782500D02*
X76880000Y-110782500D01*
X79120000Y-114182500D02*
X79120000Y-109942500D01*
X76880000Y-114182500D02*
X79120000Y-114182500D01*
X78000000Y-114832500D02*
X78000000Y-114182500D01*
D11*
X121662500Y-106562500D02*
X121662500Y-105562500D01*
X121662500Y-118562500D02*
X121662500Y-117562500D01*
X121662500Y-118562500D02*
X122662500Y-118562500D01*
X122662500Y-105562500D02*
X121662500Y-105562500D01*
X133662500Y-118562500D02*
X134662500Y-118562500D01*
X134662500Y-105562500D02*
X133662500Y-105562500D01*
X134662500Y-105562500D02*
X134662500Y-106562500D01*
X134662500Y-117562500D02*
X134662500Y-118562500D01*
X102612500Y-25600000D02*
X102612500Y-24600000D01*
X102612500Y-37600000D02*
X102612500Y-36600000D01*
X102612500Y-37600000D02*
X103612500Y-37600000D01*
X103612500Y-24600000D02*
X102612500Y-24600000D01*
X114612500Y-37600000D02*
X115612500Y-37600000D01*
X115612500Y-24600000D02*
X114612500Y-24600000D01*
X115612500Y-24600000D02*
X115612500Y-25600000D01*
X115612500Y-36600000D02*
X115612500Y-37600000D01*
D12*
X151950000Y-52142500D02*
X151950000Y-52792500D01*
X153070000Y-52792500D02*
X150830000Y-52792500D01*
X150830000Y-52792500D02*
X150830000Y-57032500D01*
X153070000Y-53392500D02*
X150830000Y-53392500D01*
X153070000Y-53512500D02*
X150830000Y-53512500D01*
X153070000Y-53632500D02*
X150830000Y-53632500D01*
X153070000Y-57032500D02*
X153070000Y-52792500D01*
X150830000Y-57032500D02*
X153070000Y-57032500D01*
X151950000Y-57682500D02*
X151950000Y-57032500D01*
X113850000Y-52142500D02*
X113850000Y-52792500D01*
X114970000Y-52792500D02*
X112730000Y-52792500D01*
X112730000Y-52792500D02*
X112730000Y-57032500D01*
X114970000Y-53392500D02*
X112730000Y-53392500D01*
X114970000Y-53512500D02*
X112730000Y-53512500D01*
X114970000Y-53632500D02*
X112730000Y-53632500D01*
X114970000Y-57032500D02*
X114970000Y-52792500D01*
X112730000Y-57032500D02*
X114970000Y-57032500D01*
X113850000Y-57682500D02*
X113850000Y-57032500D01*
X61462500Y-128342500D02*
X61462500Y-128992500D01*
X62582500Y-128992500D02*
X60342500Y-128992500D01*
X60342500Y-128992500D02*
X60342500Y-133232500D01*
X62582500Y-129592500D02*
X60342500Y-129592500D01*
X62582500Y-129712500D02*
X60342500Y-129712500D01*
X62582500Y-129832500D02*
X60342500Y-129832500D01*
X62582500Y-133232500D02*
X62582500Y-128992500D01*
X60342500Y-133232500D02*
X62582500Y-133232500D01*
X61462500Y-133882500D02*
X61462500Y-133232500D01*
X23362500Y-80717500D02*
X23362500Y-81367500D01*
X24482500Y-81367500D02*
X22242500Y-81367500D01*
X22242500Y-81367500D02*
X22242500Y-85607500D01*
X24482500Y-81967500D02*
X22242500Y-81967500D01*
X24482500Y-82087500D02*
X22242500Y-82087500D01*
X24482500Y-82207500D02*
X22242500Y-82207500D01*
X24482500Y-85607500D02*
X24482500Y-81367500D01*
X22242500Y-85607500D02*
X24482500Y-85607500D01*
X23362500Y-86257500D02*
X23362500Y-85607500D01*
D11*
X126425000Y-68462500D02*
X126425000Y-67462500D01*
X126425000Y-80462500D02*
X126425000Y-79462500D01*
X126425000Y-80462500D02*
X127425000Y-80462500D01*
X127425000Y-67462500D02*
X126425000Y-67462500D01*
X138425000Y-80462500D02*
X139425000Y-80462500D01*
X139425000Y-67462500D02*
X138425000Y-67462500D01*
X139425000Y-67462500D02*
X139425000Y-68462500D01*
X139425000Y-79462500D02*
X139425000Y-80462500D01*
D12*
X123375000Y-71192500D02*
X123375000Y-71842500D01*
X124495000Y-71842500D02*
X122255000Y-71842500D01*
X122255000Y-71842500D02*
X122255000Y-76082500D01*
X124495000Y-72442500D02*
X122255000Y-72442500D01*
X124495000Y-72562500D02*
X122255000Y-72562500D01*
X124495000Y-72682500D02*
X122255000Y-72682500D01*
X124495000Y-76082500D02*
X124495000Y-71842500D01*
X122255000Y-76082500D02*
X124495000Y-76082500D01*
X123375000Y-76732500D02*
X123375000Y-76082500D01*
D11*
X107375000Y-68462500D02*
X107375000Y-67462500D01*
X107375000Y-80462500D02*
X107375000Y-79462500D01*
X107375000Y-80462500D02*
X108375000Y-80462500D01*
X108375000Y-67462500D02*
X107375000Y-67462500D01*
X119375000Y-80462500D02*
X120375000Y-80462500D01*
X120375000Y-67462500D02*
X119375000Y-67462500D01*
X120375000Y-67462500D02*
X120375000Y-68462500D01*
X120375000Y-79462500D02*
X120375000Y-80462500D01*
D12*
X56700000Y-52142500D02*
X56700000Y-52792500D01*
X57820000Y-52792500D02*
X55580000Y-52792500D01*
X55580000Y-52792500D02*
X55580000Y-57032500D01*
X57820000Y-53392500D02*
X55580000Y-53392500D01*
X57820000Y-53512500D02*
X55580000Y-53512500D01*
X57820000Y-53632500D02*
X55580000Y-53632500D01*
X57820000Y-57032500D02*
X57820000Y-52792500D01*
X55580000Y-57032500D02*
X57820000Y-57032500D01*
X56700000Y-57682500D02*
X56700000Y-57032500D01*
D11*
X7362500Y-58937500D02*
X7362500Y-57937500D01*
X7362500Y-70937500D02*
X7362500Y-69937500D01*
X7362500Y-70937500D02*
X8362500Y-70937500D01*
X8362500Y-57937500D02*
X7362500Y-57937500D01*
X19362500Y-70937500D02*
X20362500Y-70937500D01*
X20362500Y-57937500D02*
X19362500Y-57937500D01*
X20362500Y-57937500D02*
X20362500Y-58937500D01*
X20362500Y-69937500D02*
X20362500Y-70937500D01*
D12*
X137662500Y-28330000D02*
X137662500Y-28980000D01*
X138782500Y-28980000D02*
X136542500Y-28980000D01*
X136542500Y-28980000D02*
X136542500Y-33220000D01*
X138782500Y-29580000D02*
X136542500Y-29580000D01*
X138782500Y-29700000D02*
X136542500Y-29700000D01*
X138782500Y-29820000D02*
X136542500Y-29820000D01*
X138782500Y-33220000D02*
X138782500Y-28980000D01*
X136542500Y-33220000D02*
X138782500Y-33220000D01*
X137662500Y-33870000D02*
X137662500Y-33220000D01*
X75750000Y-52142500D02*
X75750000Y-52792500D01*
X76870000Y-52792500D02*
X74630000Y-52792500D01*
X74630000Y-52792500D02*
X74630000Y-57032500D01*
X76870000Y-53392500D02*
X74630000Y-53392500D01*
X76870000Y-53512500D02*
X74630000Y-53512500D01*
X76870000Y-53632500D02*
X74630000Y-53632500D01*
X76870000Y-57032500D02*
X76870000Y-52792500D01*
X74630000Y-57032500D02*
X76870000Y-57032500D01*
X75750000Y-57682500D02*
X75750000Y-57032500D01*
D11*
X135950000Y-49412500D02*
X135950000Y-48412500D01*
X135950000Y-61412500D02*
X135950000Y-60412500D01*
X135950000Y-61412500D02*
X136950000Y-61412500D01*
X136950000Y-48412500D02*
X135950000Y-48412500D01*
X147950000Y-61412500D02*
X148950000Y-61412500D01*
X148950000Y-48412500D02*
X147950000Y-48412500D01*
X148950000Y-48412500D02*
X148950000Y-49412500D01*
X148950000Y-60412500D02*
X148950000Y-61412500D01*
D12*
X118612500Y-28330000D02*
X118612500Y-28980000D01*
X119732500Y-28980000D02*
X117492500Y-28980000D01*
X117492500Y-28980000D02*
X117492500Y-33220000D01*
X119732500Y-29580000D02*
X117492500Y-29580000D01*
X119732500Y-29700000D02*
X117492500Y-29700000D01*
X119732500Y-29820000D02*
X117492500Y-29820000D01*
X119732500Y-33220000D02*
X119732500Y-28980000D01*
X117492500Y-33220000D02*
X119732500Y-33220000D01*
X118612500Y-33870000D02*
X118612500Y-33220000D01*
X56700000Y-28330000D02*
X56700000Y-28980000D01*
X57820000Y-28980000D02*
X55580000Y-28980000D01*
X55580000Y-28980000D02*
X55580000Y-33220000D01*
X57820000Y-29580000D02*
X55580000Y-29580000D01*
X57820000Y-29700000D02*
X55580000Y-29700000D01*
X57820000Y-29820000D02*
X55580000Y-29820000D01*
X57820000Y-33220000D02*
X57820000Y-28980000D01*
X55580000Y-33220000D02*
X57820000Y-33220000D01*
X56700000Y-33870000D02*
X56700000Y-33220000D01*
D11*
X131187500Y-87512500D02*
X131187500Y-86512500D01*
X131187500Y-99512500D02*
X131187500Y-98512500D01*
X131187500Y-99512500D02*
X132187500Y-99512500D01*
X132187500Y-86512500D02*
X131187500Y-86512500D01*
X143187500Y-99512500D02*
X144187500Y-99512500D01*
X144187500Y-86512500D02*
X143187500Y-86512500D01*
X144187500Y-86512500D02*
X144187500Y-87512500D01*
X144187500Y-98512500D02*
X144187500Y-99512500D01*
X97850000Y-49412500D02*
X97850000Y-48412500D01*
X97850000Y-61412500D02*
X97850000Y-60412500D01*
X97850000Y-61412500D02*
X98850000Y-61412500D01*
X98850000Y-48412500D02*
X97850000Y-48412500D01*
X109850000Y-61412500D02*
X110850000Y-61412500D01*
X110850000Y-48412500D02*
X109850000Y-48412500D01*
X110850000Y-48412500D02*
X110850000Y-49412500D01*
X110850000Y-60412500D02*
X110850000Y-61412500D01*
X47843750Y-87512500D02*
X47843750Y-86512500D01*
X47843750Y-99512500D02*
X47843750Y-98512500D01*
X47843750Y-99512500D02*
X48843750Y-99512500D01*
X48843750Y-86512500D02*
X47843750Y-86512500D01*
X59843750Y-99512500D02*
X60843750Y-99512500D01*
X60843750Y-86512500D02*
X59843750Y-86512500D01*
X60843750Y-86512500D02*
X60843750Y-87512500D01*
X60843750Y-98512500D02*
X60843750Y-99512500D01*
X7362500Y-39887500D02*
X7362500Y-38887500D01*
X7362500Y-51887500D02*
X7362500Y-50887500D01*
X7362500Y-51887500D02*
X8362500Y-51887500D01*
X8362500Y-38887500D02*
X7362500Y-38887500D01*
X19362500Y-51887500D02*
X20362500Y-51887500D01*
X20362500Y-38887500D02*
X19362500Y-38887500D01*
X20362500Y-38887500D02*
X20362500Y-39887500D01*
X20362500Y-50887500D02*
X20362500Y-51887500D01*
X71656250Y-125612500D02*
X71656250Y-124612500D01*
X71656250Y-137612500D02*
X71656250Y-136612500D01*
X71656250Y-137612500D02*
X72656250Y-137612500D01*
X72656250Y-124612500D02*
X71656250Y-124612500D01*
X83656250Y-137612500D02*
X84656250Y-137612500D01*
X84656250Y-124612500D02*
X83656250Y-124612500D01*
X84656250Y-124612500D02*
X84656250Y-125612500D01*
X84656250Y-136612500D02*
X84656250Y-137612500D01*
X7362500Y-116087500D02*
X7362500Y-115087500D01*
X7362500Y-128087500D02*
X7362500Y-127087500D01*
X7362500Y-128087500D02*
X8362500Y-128087500D01*
X8362500Y-115087500D02*
X7362500Y-115087500D01*
X19362500Y-128087500D02*
X20362500Y-128087500D01*
X20362500Y-115087500D02*
X19362500Y-115087500D01*
X20362500Y-115087500D02*
X20362500Y-116087500D01*
X20362500Y-127087500D02*
X20362500Y-128087500D01*
D12*
X156215000Y-2970000D02*
X157215000Y-1970000D01*
X156215000Y-12090000D02*
X156215000Y-2970000D01*
X156215000Y-12090000D02*
X158640000Y-12090000D01*
X157215000Y-1970000D02*
X174085000Y-1970000D01*
X160660000Y-12090000D02*
X161998233Y-12090000D01*
X163301767Y-12090000D02*
X164998233Y-12090000D01*
X166301767Y-12090000D02*
X167998233Y-12090000D01*
X169301767Y-12090000D02*
X170998233Y-12090000D01*
X174085000Y-1970000D02*
X175085000Y-2970000D01*
X175085000Y-2970000D02*
X175085000Y-12090000D01*
X175085000Y-12090000D02*
X172301767Y-12090000D01*
D11*
X145475000Y-25600000D02*
X145475000Y-24600000D01*
X145475000Y-37600000D02*
X145475000Y-36600000D01*
X145475000Y-37600000D02*
X146475000Y-37600000D01*
X146475000Y-24600000D02*
X145475000Y-24600000D01*
X157475000Y-37600000D02*
X158475000Y-37600000D01*
X158475000Y-24600000D02*
X157475000Y-24600000D01*
X158475000Y-24600000D02*
X158475000Y-25600000D01*
X158475000Y-36600000D02*
X158475000Y-37600000D01*
D12*
X111468750Y-128342500D02*
X111468750Y-128992500D01*
X112588750Y-128992500D02*
X110348750Y-128992500D01*
X110348750Y-128992500D02*
X110348750Y-133232500D01*
X112588750Y-129592500D02*
X110348750Y-129592500D01*
X112588750Y-129712500D02*
X110348750Y-129712500D01*
X112588750Y-129832500D02*
X110348750Y-129832500D01*
X112588750Y-133232500D02*
X112588750Y-128992500D01*
X110348750Y-133232500D02*
X112588750Y-133232500D01*
X111468750Y-133882500D02*
X111468750Y-133232500D01*
X118612500Y-109292500D02*
X118612500Y-109942500D01*
X119732500Y-109942500D02*
X117492500Y-109942500D01*
X117492500Y-109942500D02*
X117492500Y-114182500D01*
X119732500Y-110542500D02*
X117492500Y-110542500D01*
X119732500Y-110662500D02*
X117492500Y-110662500D01*
X119732500Y-110782500D02*
X117492500Y-110782500D01*
X119732500Y-114182500D02*
X119732500Y-109942500D01*
X117492500Y-114182500D02*
X119732500Y-114182500D01*
X118612500Y-114832500D02*
X118612500Y-114182500D01*
X156712500Y-109292500D02*
X156712500Y-109942500D01*
X157832500Y-109942500D02*
X155592500Y-109942500D01*
X155592500Y-109942500D02*
X155592500Y-114182500D01*
X157832500Y-110542500D02*
X155592500Y-110542500D01*
X157832500Y-110662500D02*
X155592500Y-110662500D01*
X157832500Y-110782500D02*
X155592500Y-110782500D01*
X157832500Y-114182500D02*
X157832500Y-109942500D01*
X155592500Y-114182500D02*
X157832500Y-114182500D01*
X156712500Y-114832500D02*
X156712500Y-114182500D01*
D11*
X102612500Y-106562500D02*
X102612500Y-105562500D01*
X102612500Y-118562500D02*
X102612500Y-117562500D01*
X102612500Y-118562500D02*
X103612500Y-118562500D01*
X103612500Y-105562500D02*
X102612500Y-105562500D01*
X114612500Y-118562500D02*
X115612500Y-118562500D01*
X115612500Y-105562500D02*
X114612500Y-105562500D01*
X115612500Y-105562500D02*
X115612500Y-106562500D01*
X115612500Y-117562500D02*
X115612500Y-118562500D01*
X74037500Y-87512500D02*
X74037500Y-86512500D01*
X74037500Y-99512500D02*
X74037500Y-98512500D01*
X74037500Y-99512500D02*
X75037500Y-99512500D01*
X75037500Y-86512500D02*
X74037500Y-86512500D01*
X86037500Y-99512500D02*
X87037500Y-99512500D01*
X87037500Y-86512500D02*
X86037500Y-86512500D01*
X87037500Y-86512500D02*
X87037500Y-87512500D01*
X87037500Y-98512500D02*
X87037500Y-99512500D01*
D12*
X142425000Y-71192500D02*
X142425000Y-71842500D01*
X143545000Y-71842500D02*
X141305000Y-71842500D01*
X141305000Y-71842500D02*
X141305000Y-76082500D01*
X143545000Y-72442500D02*
X141305000Y-72442500D01*
X143545000Y-72562500D02*
X141305000Y-72562500D01*
X143545000Y-72682500D02*
X141305000Y-72682500D01*
X143545000Y-76082500D02*
X143545000Y-71842500D01*
X141305000Y-76082500D02*
X143545000Y-76082500D01*
X142425000Y-76732500D02*
X142425000Y-76082500D01*
D11*
X95468750Y-125612500D02*
X95468750Y-124612500D01*
X95468750Y-137612500D02*
X95468750Y-136612500D01*
X95468750Y-137612500D02*
X96468750Y-137612500D01*
X96468750Y-124612500D02*
X95468750Y-124612500D01*
X107468750Y-137612500D02*
X108468750Y-137612500D01*
X108468750Y-124612500D02*
X107468750Y-124612500D01*
X108468750Y-124612500D02*
X108468750Y-125612500D01*
X108468750Y-136612500D02*
X108468750Y-137612500D01*
X140712500Y-106562500D02*
X140712500Y-105562500D01*
X140712500Y-118562500D02*
X140712500Y-117562500D01*
X140712500Y-118562500D02*
X141712500Y-118562500D01*
X141712500Y-105562500D02*
X140712500Y-105562500D01*
X152712500Y-118562500D02*
X153712500Y-118562500D01*
X153712500Y-105562500D02*
X152712500Y-105562500D01*
X153712500Y-105562500D02*
X153712500Y-106562500D01*
X153712500Y-117562500D02*
X153712500Y-118562500D01*
D12*
X109087500Y-90242500D02*
X109087500Y-90892500D01*
X110207500Y-90892500D02*
X107967500Y-90892500D01*
X107967500Y-90892500D02*
X107967500Y-95132500D01*
X110207500Y-91492500D02*
X107967500Y-91492500D01*
X110207500Y-91612500D02*
X107967500Y-91612500D01*
X110207500Y-91732500D02*
X107967500Y-91732500D01*
X110207500Y-95132500D02*
X110207500Y-90892500D01*
X107967500Y-95132500D02*
X110207500Y-95132500D01*
X109087500Y-95782500D02*
X109087500Y-95132500D01*
D11*
X52606250Y-106562500D02*
X52606250Y-105562500D01*
X52606250Y-118562500D02*
X52606250Y-117562500D01*
X52606250Y-118562500D02*
X53606250Y-118562500D01*
X53606250Y-105562500D02*
X52606250Y-105562500D01*
X64606250Y-118562500D02*
X65606250Y-118562500D01*
X65606250Y-105562500D02*
X64606250Y-105562500D01*
X65606250Y-105562500D02*
X65606250Y-106562500D01*
X65606250Y-117562500D02*
X65606250Y-118562500D01*
X83562500Y-106562500D02*
X83562500Y-105562500D01*
X83562500Y-118562500D02*
X83562500Y-117562500D01*
X83562500Y-118562500D02*
X84562500Y-118562500D01*
X84562500Y-105562500D02*
X83562500Y-105562500D01*
X95562500Y-118562500D02*
X96562500Y-118562500D01*
X96562500Y-105562500D02*
X95562500Y-105562500D01*
X96562500Y-105562500D02*
X96562500Y-106562500D01*
X96562500Y-117562500D02*
X96562500Y-118562500D01*
D12*
X175762500Y-109292500D02*
X175762500Y-109942500D01*
X176882500Y-109942500D02*
X174642500Y-109942500D01*
X174642500Y-109942500D02*
X174642500Y-114182500D01*
X176882500Y-110542500D02*
X174642500Y-110542500D01*
X176882500Y-110662500D02*
X174642500Y-110662500D01*
X176882500Y-110782500D02*
X174642500Y-110782500D01*
X176882500Y-114182500D02*
X176882500Y-109942500D01*
X174642500Y-114182500D02*
X176882500Y-114182500D01*
X175762500Y-114832500D02*
X175762500Y-114182500D01*
D11*
X155000000Y-49412500D02*
X155000000Y-48412500D01*
X155000000Y-61412500D02*
X155000000Y-60412500D01*
X155000000Y-61412500D02*
X156000000Y-61412500D01*
X156000000Y-48412500D02*
X155000000Y-48412500D01*
X167000000Y-61412500D02*
X168000000Y-61412500D01*
X168000000Y-48412500D02*
X167000000Y-48412500D01*
X168000000Y-48412500D02*
X168000000Y-49412500D01*
X168000000Y-60412500D02*
X168000000Y-61412500D01*
D12*
X180525000Y-28330000D02*
X180525000Y-28980000D01*
X181645000Y-28980000D02*
X179405000Y-28980000D01*
X179405000Y-28980000D02*
X179405000Y-33220000D01*
X181645000Y-29580000D02*
X179405000Y-29580000D01*
X181645000Y-29700000D02*
X179405000Y-29700000D01*
X181645000Y-29820000D02*
X179405000Y-29820000D01*
X181645000Y-33220000D02*
X181645000Y-28980000D01*
X179405000Y-33220000D02*
X181645000Y-33220000D01*
X180525000Y-33870000D02*
X180525000Y-33220000D01*
X23362500Y-118817500D02*
X23362500Y-119467500D01*
X24482500Y-119467500D02*
X22242500Y-119467500D01*
X22242500Y-119467500D02*
X22242500Y-123707500D01*
X24482500Y-120067500D02*
X22242500Y-120067500D01*
X24482500Y-120187500D02*
X22242500Y-120187500D01*
X24482500Y-120307500D02*
X22242500Y-120307500D01*
X24482500Y-123707500D02*
X24482500Y-119467500D01*
X22242500Y-123707500D02*
X24482500Y-123707500D01*
X23362500Y-124357500D02*
X23362500Y-123707500D01*
D11*
X7362500Y-77987500D02*
X7362500Y-76987500D01*
X7362500Y-89987500D02*
X7362500Y-88987500D01*
X7362500Y-89987500D02*
X8362500Y-89987500D01*
X8362500Y-76987500D02*
X7362500Y-76987500D01*
X19362500Y-89987500D02*
X20362500Y-89987500D01*
X20362500Y-76987500D02*
X19362500Y-76987500D01*
X20362500Y-76987500D02*
X20362500Y-77987500D01*
X20362500Y-88987500D02*
X20362500Y-89987500D01*
X59750000Y-49412500D02*
X59750000Y-48412500D01*
X59750000Y-61412500D02*
X59750000Y-60412500D01*
X59750000Y-61412500D02*
X60750000Y-61412500D01*
X60750000Y-48412500D02*
X59750000Y-48412500D01*
X71750000Y-61412500D02*
X72750000Y-61412500D01*
X72750000Y-48412500D02*
X71750000Y-48412500D01*
X72750000Y-48412500D02*
X72750000Y-49412500D01*
X72750000Y-60412500D02*
X72750000Y-61412500D01*
X78800000Y-49412500D02*
X78800000Y-48412500D01*
X78800000Y-61412500D02*
X78800000Y-60412500D01*
X78800000Y-61412500D02*
X79800000Y-61412500D01*
X79800000Y-48412500D02*
X78800000Y-48412500D01*
X90800000Y-61412500D02*
X91800000Y-61412500D01*
X91800000Y-48412500D02*
X90800000Y-48412500D01*
X91800000Y-48412500D02*
X91800000Y-49412500D01*
X91800000Y-60412500D02*
X91800000Y-61412500D01*
X121662500Y-25600000D02*
X121662500Y-24600000D01*
X121662500Y-37600000D02*
X121662500Y-36600000D01*
X121662500Y-37600000D02*
X122662500Y-37600000D01*
X122662500Y-24600000D02*
X121662500Y-24600000D01*
X133662500Y-37600000D02*
X134662500Y-37600000D01*
X134662500Y-24600000D02*
X133662500Y-24600000D01*
X134662500Y-24600000D02*
X134662500Y-25600000D01*
X134662500Y-36600000D02*
X134662500Y-37600000D01*
X40700000Y-49412500D02*
X40700000Y-48412500D01*
X40700000Y-61412500D02*
X40700000Y-60412500D01*
X40700000Y-61412500D02*
X41700000Y-61412500D01*
X41700000Y-48412500D02*
X40700000Y-48412500D01*
X52700000Y-61412500D02*
X53700000Y-61412500D01*
X53700000Y-48412500D02*
X52700000Y-48412500D01*
X53700000Y-48412500D02*
X53700000Y-49412500D01*
X53700000Y-60412500D02*
X53700000Y-61412500D01*
D12*
X99562500Y-109292500D02*
X99562500Y-109942500D01*
X100682500Y-109942500D02*
X98442500Y-109942500D01*
X98442500Y-109942500D02*
X98442500Y-114182500D01*
X100682500Y-110542500D02*
X98442500Y-110542500D01*
X100682500Y-110662500D02*
X98442500Y-110662500D01*
X100682500Y-110782500D02*
X98442500Y-110782500D01*
X100682500Y-114182500D02*
X100682500Y-109942500D01*
X98442500Y-114182500D02*
X100682500Y-114182500D01*
X99562500Y-114832500D02*
X99562500Y-114182500D01*
X161475000Y-71192500D02*
X161475000Y-71842500D01*
X162595000Y-71842500D02*
X160355000Y-71842500D01*
X160355000Y-71842500D02*
X160355000Y-76082500D01*
X162595000Y-72442500D02*
X160355000Y-72442500D01*
X162595000Y-72562500D02*
X160355000Y-72562500D01*
X162595000Y-72682500D02*
X160355000Y-72682500D01*
X162595000Y-76082500D02*
X162595000Y-71842500D01*
X160355000Y-76082500D02*
X162595000Y-76082500D01*
X161475000Y-76732500D02*
X161475000Y-76082500D01*
D11*
X45462500Y-125612500D02*
X45462500Y-124612500D01*
X45462500Y-137612500D02*
X45462500Y-136612500D01*
X45462500Y-137612500D02*
X46462500Y-137612500D01*
X46462500Y-124612500D02*
X45462500Y-124612500D01*
X57462500Y-137612500D02*
X58462500Y-137612500D01*
X58462500Y-124612500D02*
X57462500Y-124612500D01*
X58462500Y-124612500D02*
X58462500Y-125612500D01*
X58462500Y-136612500D02*
X58462500Y-137612500D01*
D12*
X171000000Y-52142500D02*
X171000000Y-52792500D01*
X172120000Y-52792500D02*
X169880000Y-52792500D01*
X169880000Y-52792500D02*
X169880000Y-57032500D01*
X172120000Y-53392500D02*
X169880000Y-53392500D01*
X172120000Y-53512500D02*
X169880000Y-53512500D01*
X172120000Y-53632500D02*
X169880000Y-53632500D01*
X172120000Y-57032500D02*
X172120000Y-52792500D01*
X169880000Y-57032500D02*
X172120000Y-57032500D01*
X171000000Y-57682500D02*
X171000000Y-57032500D01*
D11*
X40700000Y-25600000D02*
X40700000Y-24600000D01*
X40700000Y-37600000D02*
X40700000Y-36600000D01*
X40700000Y-37600000D02*
X41700000Y-37600000D01*
X41700000Y-24600000D02*
X40700000Y-24600000D01*
X52700000Y-37600000D02*
X53700000Y-37600000D01*
X53700000Y-24600000D02*
X52700000Y-24600000D01*
X53700000Y-24600000D02*
X53700000Y-25600000D01*
X53700000Y-36600000D02*
X53700000Y-37600000D01*
X69275000Y-68462500D02*
X69275000Y-67462500D01*
X69275000Y-80462500D02*
X69275000Y-79462500D01*
X69275000Y-80462500D02*
X70275000Y-80462500D01*
X70275000Y-67462500D02*
X69275000Y-67462500D01*
X81275000Y-80462500D02*
X82275000Y-80462500D01*
X82275000Y-67462500D02*
X81275000Y-67462500D01*
X82275000Y-67462500D02*
X82275000Y-68462500D01*
X82275000Y-79462500D02*
X82275000Y-80462500D01*
D12*
X137662500Y-109292500D02*
X137662500Y-109942500D01*
X138782500Y-109942500D02*
X136542500Y-109942500D01*
X136542500Y-109942500D02*
X136542500Y-114182500D01*
X138782500Y-110542500D02*
X136542500Y-110542500D01*
X138782500Y-110662500D02*
X136542500Y-110662500D01*
X138782500Y-110782500D02*
X136542500Y-110782500D01*
X138782500Y-114182500D02*
X138782500Y-109942500D01*
X136542500Y-114182500D02*
X138782500Y-114182500D01*
X137662500Y-114832500D02*
X137662500Y-114182500D01*
D11*
X145475000Y-68462500D02*
X145475000Y-67462500D01*
X145475000Y-80462500D02*
X145475000Y-79462500D01*
X145475000Y-80462500D02*
X146475000Y-80462500D01*
X146475000Y-67462500D02*
X145475000Y-67462500D01*
X157475000Y-80462500D02*
X158475000Y-80462500D01*
X158475000Y-67462500D02*
X157475000Y-67462500D01*
X158475000Y-67462500D02*
X158475000Y-68462500D01*
X158475000Y-79462500D02*
X158475000Y-80462500D01*
D12*
X90037500Y-90242500D02*
X90037500Y-90892500D01*
X91157500Y-90892500D02*
X88917500Y-90892500D01*
X88917500Y-90892500D02*
X88917500Y-95132500D01*
X91157500Y-91492500D02*
X88917500Y-91492500D01*
X91157500Y-91612500D02*
X88917500Y-91612500D01*
X91157500Y-91732500D02*
X88917500Y-91732500D01*
X91157500Y-95132500D02*
X91157500Y-90892500D01*
X88917500Y-95132500D02*
X91157500Y-95132500D01*
X90037500Y-95782500D02*
X90037500Y-95132500D01*
X63843750Y-90242500D02*
X63843750Y-90892500D01*
X64963750Y-90892500D02*
X62723750Y-90892500D01*
X62723750Y-90892500D02*
X62723750Y-95132500D01*
X64963750Y-91492500D02*
X62723750Y-91492500D01*
X64963750Y-91612500D02*
X62723750Y-91612500D01*
X64963750Y-91732500D02*
X62723750Y-91732500D01*
X64963750Y-95132500D02*
X64963750Y-90892500D01*
X62723750Y-95132500D02*
X64963750Y-95132500D01*
X63843750Y-95782500D02*
X63843750Y-95132500D01*
X23362500Y-42617500D02*
X23362500Y-43267500D01*
X24482500Y-43267500D02*
X22242500Y-43267500D01*
X22242500Y-43267500D02*
X22242500Y-47507500D01*
X24482500Y-43867500D02*
X22242500Y-43867500D01*
X24482500Y-43987500D02*
X22242500Y-43987500D01*
X24482500Y-44107500D02*
X22242500Y-44107500D01*
X24482500Y-47507500D02*
X24482500Y-43267500D01*
X22242500Y-47507500D02*
X24482500Y-47507500D01*
X23362500Y-48157500D02*
X23362500Y-47507500D01*
D11*
X83562500Y-25600000D02*
X83562500Y-24600000D01*
X83562500Y-37600000D02*
X83562500Y-36600000D01*
X83562500Y-37600000D02*
X84562500Y-37600000D01*
X84562500Y-24600000D02*
X83562500Y-24600000D01*
X95562500Y-37600000D02*
X96562500Y-37600000D01*
X96562500Y-24600000D02*
X95562500Y-24600000D01*
X96562500Y-24600000D02*
X96562500Y-25600000D01*
X96562500Y-36600000D02*
X96562500Y-37600000D01*
X159762500Y-106562500D02*
X159762500Y-105562500D01*
X159762500Y-118562500D02*
X159762500Y-117562500D01*
X159762500Y-118562500D02*
X160762500Y-118562500D01*
X160762500Y-105562500D02*
X159762500Y-105562500D01*
X171762500Y-118562500D02*
X172762500Y-118562500D01*
X172762500Y-105562500D02*
X171762500Y-105562500D01*
X172762500Y-105562500D02*
X172762500Y-106562500D01*
X172762500Y-117562500D02*
X172762500Y-118562500D01*
D12*
X94800000Y-52142500D02*
X94800000Y-52792500D01*
X95920000Y-52792500D02*
X93680000Y-52792500D01*
X93680000Y-52792500D02*
X93680000Y-57032500D01*
X95920000Y-53392500D02*
X93680000Y-53392500D01*
X95920000Y-53512500D02*
X93680000Y-53512500D01*
X95920000Y-53632500D02*
X93680000Y-53632500D01*
X95920000Y-57032500D02*
X95920000Y-52792500D01*
X93680000Y-57032500D02*
X95920000Y-57032500D01*
X94800000Y-57682500D02*
X94800000Y-57032500D01*
D11*
X116900000Y-49412500D02*
X116900000Y-48412500D01*
X116900000Y-61412500D02*
X116900000Y-60412500D01*
X116900000Y-61412500D02*
X117900000Y-61412500D01*
X117900000Y-48412500D02*
X116900000Y-48412500D01*
X128900000Y-61412500D02*
X129900000Y-61412500D01*
X129900000Y-48412500D02*
X128900000Y-48412500D01*
X129900000Y-48412500D02*
X129900000Y-49412500D01*
X129900000Y-60412500D02*
X129900000Y-61412500D01*
D12*
X159500000Y-128342500D02*
X159500000Y-128992500D01*
X160620000Y-128992500D02*
X158380000Y-128992500D01*
X158380000Y-128992500D02*
X158380000Y-133232500D01*
X160620000Y-129592500D02*
X158380000Y-129592500D01*
X160620000Y-129712500D02*
X158380000Y-129712500D01*
X160620000Y-129832500D02*
X158380000Y-129832500D01*
X160620000Y-133232500D02*
X160620000Y-128992500D01*
X158380000Y-133232500D02*
X160620000Y-133232500D01*
X159500000Y-133882500D02*
X159500000Y-133232500D01*
X80512500Y-28330000D02*
X80512500Y-28980000D01*
X81632500Y-28980000D02*
X79392500Y-28980000D01*
X79392500Y-28980000D02*
X79392500Y-33220000D01*
X81632500Y-29580000D02*
X79392500Y-29580000D01*
X81632500Y-29700000D02*
X79392500Y-29700000D01*
X81632500Y-29820000D02*
X79392500Y-29820000D01*
X81632500Y-33220000D02*
X81632500Y-28980000D01*
X79392500Y-33220000D02*
X81632500Y-33220000D01*
X80512500Y-33870000D02*
X80512500Y-33220000D01*
X87656250Y-128342500D02*
X87656250Y-128992500D01*
X88776250Y-128992500D02*
X86536250Y-128992500D01*
X86536250Y-128992500D02*
X86536250Y-133232500D01*
X88776250Y-129592500D02*
X86536250Y-129592500D01*
X88776250Y-129712500D02*
X86536250Y-129712500D01*
X88776250Y-129832500D02*
X86536250Y-129832500D01*
X88776250Y-133232500D02*
X88776250Y-128992500D01*
X86536250Y-133232500D02*
X88776250Y-133232500D01*
X87656250Y-133882500D02*
X87656250Y-133232500D01*
D11*
X112137500Y-87512500D02*
X112137500Y-86512500D01*
X112137500Y-99512500D02*
X112137500Y-98512500D01*
X112137500Y-99512500D02*
X113137500Y-99512500D01*
X113137500Y-86512500D02*
X112137500Y-86512500D01*
X124137500Y-99512500D02*
X125137500Y-99512500D01*
X125137500Y-86512500D02*
X124137500Y-86512500D01*
X125137500Y-86512500D02*
X125137500Y-87512500D01*
X125137500Y-98512500D02*
X125137500Y-99512500D01*
D12*
X23362500Y-99767500D02*
X23362500Y-100417500D01*
X24482500Y-100417500D02*
X22242500Y-100417500D01*
X22242500Y-100417500D02*
X22242500Y-104657500D01*
X24482500Y-101017500D02*
X22242500Y-101017500D01*
X24482500Y-101137500D02*
X22242500Y-101137500D01*
X24482500Y-101257500D02*
X22242500Y-101257500D01*
X24482500Y-104657500D02*
X24482500Y-100417500D01*
X22242500Y-104657500D02*
X24482500Y-104657500D01*
X23362500Y-105307500D02*
X23362500Y-104657500D01*
D11*
X7362500Y-97037500D02*
X7362500Y-96037500D01*
X7362500Y-109037500D02*
X7362500Y-108037500D01*
X7362500Y-109037500D02*
X8362500Y-109037500D01*
X8362500Y-96037500D02*
X7362500Y-96037500D01*
X19362500Y-109037500D02*
X20362500Y-109037500D01*
X20362500Y-96037500D02*
X19362500Y-96037500D01*
X20362500Y-96037500D02*
X20362500Y-97037500D01*
X20362500Y-108037500D02*
X20362500Y-109037500D01*
D12*
X85275000Y-71192500D02*
X85275000Y-71842500D01*
X86395000Y-71842500D02*
X84155000Y-71842500D01*
X84155000Y-71842500D02*
X84155000Y-76082500D01*
X86395000Y-72442500D02*
X84155000Y-72442500D01*
X86395000Y-72562500D02*
X84155000Y-72562500D01*
X86395000Y-72682500D02*
X84155000Y-72682500D01*
X86395000Y-76082500D02*
X86395000Y-71842500D01*
X84155000Y-76082500D02*
X86395000Y-76082500D01*
X85275000Y-76732500D02*
X85275000Y-76082500D01*
D11*
X150237500Y-87512500D02*
X150237500Y-86512500D01*
X150237500Y-99512500D02*
X150237500Y-98512500D01*
X150237500Y-99512500D02*
X151237500Y-99512500D01*
X151237500Y-86512500D02*
X150237500Y-86512500D01*
X162237500Y-99512500D02*
X163237500Y-99512500D01*
X163237500Y-86512500D02*
X162237500Y-86512500D01*
X163237500Y-86512500D02*
X163237500Y-87512500D01*
X163237500Y-98512500D02*
X163237500Y-99512500D01*
D12*
X99562500Y-28330000D02*
X99562500Y-28980000D01*
X100682500Y-28980000D02*
X98442500Y-28980000D01*
X98442500Y-28980000D02*
X98442500Y-33220000D01*
X100682500Y-29580000D02*
X98442500Y-29580000D01*
X100682500Y-29700000D02*
X98442500Y-29700000D01*
X100682500Y-29820000D02*
X98442500Y-29820000D01*
X100682500Y-33220000D02*
X100682500Y-28980000D01*
X98442500Y-33220000D02*
X100682500Y-33220000D01*
X99562500Y-33870000D02*
X99562500Y-33220000D01*
X147187500Y-90242500D02*
X147187500Y-90892500D01*
X148307500Y-90892500D02*
X146067500Y-90892500D01*
X146067500Y-90892500D02*
X146067500Y-95132500D01*
X148307500Y-91492500D02*
X146067500Y-91492500D01*
X148307500Y-91612500D02*
X146067500Y-91612500D01*
X148307500Y-91732500D02*
X146067500Y-91732500D01*
X148307500Y-95132500D02*
X148307500Y-90892500D01*
X146067500Y-95132500D02*
X148307500Y-95132500D01*
X147187500Y-95782500D02*
X147187500Y-95132500D01*
D14*
X5030000Y-26120000D03*
%LPC*%
D15*
X99587500Y-93012500D03*
D16*
X95187500Y-97712500D03*
X102187500Y-98762500D03*
D17*
X128137500Y-89202500D03*
D18*
X128137500Y-96822500D03*
D17*
X104325000Y-70152500D03*
D18*
X104325000Y-77772500D03*
D15*
X71012500Y-31100000D03*
D16*
X66612500Y-35800000D03*
X73612500Y-36850000D03*
D15*
X171025000Y-31100000D03*
D16*
X166625000Y-35800000D03*
X173625000Y-36850000D03*
D17*
X161475000Y-27290000D03*
D18*
X161475000Y-34910000D03*
D15*
X94825000Y-73962500D03*
D16*
X90425000Y-78662500D03*
X97425000Y-79712500D03*
D19*
X5000000Y-5000000D03*
D17*
X166237500Y-89202500D03*
D18*
X166237500Y-96822500D03*
D17*
X23362500Y-60627500D03*
D18*
X23362500Y-68247500D03*
D17*
X132900000Y-51102500D03*
D18*
X132900000Y-58722500D03*
D17*
X61462500Y-70152500D03*
D18*
X61462500Y-77772500D03*
D15*
X51962500Y-73962500D03*
D16*
X47562500Y-78662500D03*
X54562500Y-79712500D03*
D15*
X140068750Y-131112500D03*
D16*
X135668750Y-135812500D03*
X142668750Y-136862500D03*
D14*
X5030000Y-26120000D03*
D20*
X7570000Y-26120000D03*
X10110000Y-26120000D03*
X12650000Y-26120000D03*
X15190000Y-26120000D03*
X17730000Y-26120000D03*
X20270000Y-26120000D03*
X22810000Y-26120000D03*
X25350000Y-26120000D03*
X27890000Y-26120000D03*
X30430000Y-26120000D03*
X32970000Y-26120000D03*
X32970000Y-10880000D03*
X30430000Y-10880000D03*
X27890000Y-10880000D03*
X25350000Y-10880000D03*
X22810000Y-10880000D03*
X20270000Y-10880000D03*
X17730000Y-10880000D03*
X15190000Y-10880000D03*
X12650000Y-10880000D03*
X10110000Y-10880000D03*
X7570000Y-10880000D03*
X5030000Y-10880000D03*
X32970000Y-23580000D03*
X32970000Y-21040000D03*
X32970000Y-18500000D03*
X32970000Y-15960000D03*
X32970000Y-13420000D03*
D17*
X78000000Y-108252500D03*
D18*
X78000000Y-115872500D03*
D15*
X128162500Y-112062500D03*
D16*
X123762500Y-116762500D03*
X130762500Y-117812500D03*
D15*
X109112500Y-31100000D03*
D16*
X104712500Y-35800000D03*
X111712500Y-36850000D03*
D17*
X151950000Y-51102500D03*
D18*
X151950000Y-58722500D03*
D17*
X113850000Y-51102500D03*
D18*
X113850000Y-58722500D03*
D17*
X61462500Y-127302500D03*
D18*
X61462500Y-134922500D03*
D19*
X5000000Y-139000000D03*
X152000000Y-10000000D03*
D17*
X23362500Y-79677500D03*
D18*
X23362500Y-87297500D03*
D15*
X132925000Y-73962500D03*
D16*
X128525000Y-78662500D03*
X135525000Y-79712500D03*
D17*
X123375000Y-70152500D03*
D18*
X123375000Y-77772500D03*
D15*
X113875000Y-73962500D03*
D16*
X109475000Y-78662500D03*
X116475000Y-79712500D03*
D17*
X56700000Y-51102500D03*
D18*
X56700000Y-58722500D03*
D15*
X13862500Y-64437500D03*
D16*
X9462500Y-69137500D03*
X16462500Y-70187500D03*
D17*
X137662500Y-27290000D03*
D18*
X137662500Y-34910000D03*
D17*
X75750000Y-51102500D03*
D18*
X75750000Y-58722500D03*
D15*
X142450000Y-54912500D03*
D16*
X138050000Y-59612500D03*
X145050000Y-60662500D03*
D17*
X118612500Y-27290000D03*
D18*
X118612500Y-34910000D03*
D17*
X56700000Y-27290000D03*
D18*
X56700000Y-34910000D03*
D15*
X137687500Y-93012500D03*
D16*
X133287500Y-97712500D03*
X140287500Y-98762500D03*
D15*
X104350000Y-54912500D03*
D16*
X99950000Y-59612500D03*
X106950000Y-60662500D03*
D15*
X54343750Y-93012500D03*
D16*
X49943750Y-97712500D03*
X56943750Y-98762500D03*
D15*
X13862500Y-45387500D03*
D16*
X9462500Y-50087500D03*
X16462500Y-51137500D03*
D15*
X78156250Y-131112500D03*
D16*
X73756250Y-135812500D03*
X80756250Y-136862500D03*
D19*
X179000000Y-5000000D03*
D15*
X13862500Y-121587500D03*
D16*
X9462500Y-126287500D03*
X16462500Y-127337500D03*
D21*
X161800000Y-6680000D03*
X169500000Y-6680000D03*
D22*
X159650000Y-11000000D03*
D23*
X162650000Y-11000000D03*
X165650000Y-11000000D03*
X168650000Y-11000000D03*
X171650000Y-11000000D03*
D15*
X151975000Y-31100000D03*
D16*
X147575000Y-35800000D03*
X154575000Y-36850000D03*
D17*
X111468750Y-127302500D03*
D18*
X111468750Y-134922500D03*
D17*
X118612500Y-108252500D03*
D18*
X118612500Y-115872500D03*
D17*
X156712500Y-108252500D03*
D18*
X156712500Y-115872500D03*
D15*
X109112500Y-112062500D03*
D16*
X104712500Y-116762500D03*
X111712500Y-117812500D03*
D15*
X80537500Y-93012500D03*
D16*
X76137500Y-97712500D03*
X83137500Y-98762500D03*
D17*
X142425000Y-70152500D03*
D18*
X142425000Y-77772500D03*
D15*
X101968750Y-131112500D03*
D16*
X97568750Y-135812500D03*
X104568750Y-136862500D03*
D15*
X147212500Y-112062500D03*
D16*
X142812500Y-116762500D03*
X149812500Y-117812500D03*
D17*
X109087500Y-89202500D03*
D18*
X109087500Y-96822500D03*
D15*
X59106250Y-112062500D03*
D16*
X54706250Y-116762500D03*
X61706250Y-117812500D03*
D15*
X90062500Y-112062500D03*
D16*
X85662500Y-116762500D03*
X92662500Y-117812500D03*
D17*
X175762500Y-108252500D03*
D18*
X175762500Y-115872500D03*
D15*
X161500000Y-54912500D03*
D16*
X157100000Y-59612500D03*
X164100000Y-60662500D03*
D17*
X180525000Y-27290000D03*
D18*
X180525000Y-34910000D03*
D17*
X23362500Y-117777500D03*
D18*
X23362500Y-125397500D03*
D15*
X13862500Y-83487500D03*
D16*
X9462500Y-88187500D03*
X16462500Y-89237500D03*
D15*
X66250000Y-54912500D03*
D16*
X61850000Y-59612500D03*
X68850000Y-60662500D03*
D15*
X85300000Y-54912500D03*
D16*
X80900000Y-59612500D03*
X87900000Y-60662500D03*
D15*
X128162500Y-31100000D03*
D16*
X123762500Y-35800000D03*
X130762500Y-36850000D03*
D15*
X47200000Y-54912500D03*
D16*
X42800000Y-59612500D03*
X49800000Y-60662500D03*
D17*
X99562500Y-108252500D03*
D18*
X99562500Y-115872500D03*
D17*
X161475000Y-70152500D03*
D18*
X161475000Y-77772500D03*
D15*
X51962500Y-131112500D03*
D16*
X47562500Y-135812500D03*
X54562500Y-136862500D03*
D17*
X171000000Y-51102500D03*
D18*
X171000000Y-58722500D03*
D15*
X47200000Y-31100000D03*
D16*
X42800000Y-35800000D03*
X49800000Y-36850000D03*
D19*
X42000000Y-16500000D03*
D15*
X75775000Y-73962500D03*
D16*
X71375000Y-78662500D03*
X78375000Y-79712500D03*
D17*
X137662500Y-108252500D03*
D18*
X137662500Y-115872500D03*
D15*
X151975000Y-73962500D03*
D16*
X147575000Y-78662500D03*
X154575000Y-79712500D03*
D17*
X90037500Y-89202500D03*
D18*
X90037500Y-96822500D03*
D17*
X63843750Y-89202500D03*
D18*
X63843750Y-96822500D03*
D17*
X23362500Y-41577500D03*
D18*
X23362500Y-49197500D03*
D15*
X90062500Y-31100000D03*
D16*
X85662500Y-35800000D03*
X92662500Y-36850000D03*
D15*
X166262500Y-112062500D03*
D16*
X161862500Y-116762500D03*
X168862500Y-117812500D03*
D17*
X94800000Y-51102500D03*
D18*
X94800000Y-58722500D03*
D15*
X123400000Y-54912500D03*
D16*
X119000000Y-59612500D03*
X126000000Y-60662500D03*
D17*
X159500000Y-127302500D03*
D18*
X159500000Y-134922500D03*
D17*
X80512500Y-27290000D03*
D18*
X80512500Y-34910000D03*
D17*
X87656250Y-127302500D03*
D18*
X87656250Y-134922500D03*
D15*
X118637500Y-93012500D03*
D16*
X114237500Y-97712500D03*
X121237500Y-98762500D03*
D17*
X23362500Y-98727500D03*
D18*
X23362500Y-106347500D03*
D19*
X179000000Y-139000000D03*
D15*
X13862500Y-102537500D03*
D16*
X9462500Y-107237500D03*
X16462500Y-108287500D03*
D17*
X85275000Y-70152500D03*
D18*
X85275000Y-77772500D03*
D15*
X156737500Y-93012500D03*
D16*
X152337500Y-97712500D03*
X159337500Y-98762500D03*
D17*
X99562500Y-27290000D03*
D18*
X99562500Y-34910000D03*
D17*
X147187500Y-89202500D03*
D18*
X147187500Y-96822500D03*
%LPD*%
M02*
