M48
; DRILL file {KiCad 8.0.7} date 2024-12-27T16:05:51+0000
; FORMAT={-:-/ absolute / metric / decimal}
; #@! TF.CreationDate,2024-12-27T16:05:51+00:00
; #@! TF.GenerationSoftware,Kicad,Pcbnew,8.0.7
; #@! TF.FileFunction,NonPlated,1,2,NPTH
FMAT,2
METRIC
; #@! TA.AperFunction,NonPlated,NPTH,ComponentDrill
T1C3.000
; #@! TA.AperFunction,NonPlated,NPTH,ComponentDrill
T2C3.200
; #@! TA.AperFunction,NonPlated,NPTH,ComponentDrill
T3C5.250
%
G90
G05
T1
X161.8Y-6.68
X169.5Y-6.68
T2
X5.0Y-5.0
X5.0Y-139.0
X42.0Y-16.5
X152.0Y-10.0
X179.0Y-5.0
X179.0Y-139.0
T3
X13.862Y-45.387
X13.862Y-64.438
X13.862Y-83.487
X13.862Y-102.537
X13.862Y-121.587
X47.2Y-31.1
X47.2Y-54.912
X51.962Y-73.962
X51.962Y-131.112
X54.344Y-93.013
X59.106Y-112.062
X66.25Y-54.912
X71.013Y-31.1
X75.775Y-73.962
X78.156Y-131.112
X80.537Y-93.013
X85.3Y-54.912
X90.062Y-31.1
X90.062Y-112.062
X94.825Y-73.962
X99.587Y-93.013
X101.969Y-131.112
X104.35Y-54.912
X109.112Y-31.1
X109.112Y-112.062
X113.875Y-73.962
X118.637Y-93.013
X123.4Y-54.912
X128.162Y-31.1
X128.162Y-112.062
X132.925Y-73.962
X137.688Y-93.013
X140.069Y-131.112
X142.45Y-54.912
X147.213Y-112.062
X151.975Y-31.1
X151.975Y-73.962
X156.737Y-93.013
X161.5Y-54.912
X166.262Y-112.062
X171.025Y-31.1
M30
