G04 #@! TF.GenerationSoftware,KiCad,Pcbnew,8.0.7*
G04 #@! TF.CreationDate,2024-12-27T16:05:40+00:00*
G04 #@! TF.ProjectId,gateronLPkeyboard-left,67617465-726f-46e4-9c50-6b6579626f61,rev?*
G04 #@! TF.SameCoordinates,Original*
G04 #@! TF.FileFunction,Copper,L1,Top*
G04 #@! TF.FilePolarity,Positive*
%FSLAX46Y46*%
G04 Gerber Fmt 4.6, Leading zero omitted, Abs format (unit mm)*
G04 Created by KiCad (PCBNEW 8.0.7) date 2024-12-27 16:05:40*
%MOMM*%
%LPD*%
G01*
G04 APERTURE LIST*
G04 Aperture macros list*
%AMRoundRect*
0 Rectangle with rounded corners*
0 $1 Rounding radius*
0 $2 $3 $4 $5 $6 $7 $8 $9 X,Y pos of 4 corners*
0 Add a 4 corners polygon primitive as box body*
4,1,4,$2,$3,$4,$5,$6,$7,$8,$9,$2,$3,0*
0 Add four circle primitives for the rounded corners*
1,1,$1+$1,$2,$3*
1,1,$1+$1,$4,$5*
1,1,$1+$1,$6,$7*
1,1,$1+$1,$8,$9*
0 Add four rect primitives between the rounded corners*
20,1,$1+$1,$2,$3,$4,$5,0*
20,1,$1+$1,$4,$5,$6,$7,0*
20,1,$1+$1,$6,$7,$8,$9,0*
20,1,$1+$1,$8,$9,$2,$3,0*%
G04 Aperture macros list end*
G04 #@! TA.AperFunction,ComponentPad*
%ADD10C,2.500000*%
G04 #@! TD*
G04 #@! TA.AperFunction,ComponentPad*
%ADD11R,1.600000X1.600000*%
G04 #@! TD*
G04 #@! TA.AperFunction,ComponentPad*
%ADD12O,1.600000X1.600000*%
G04 #@! TD*
G04 #@! TA.AperFunction,ComponentPad*
%ADD13R,2.200000X2.200000*%
G04 #@! TD*
G04 #@! TA.AperFunction,ComponentPad*
%ADD14C,2.200000*%
G04 #@! TD*
G04 #@! TA.AperFunction,ComponentPad*
%ADD15RoundRect,0.250001X-0.499999X-0.759999X0.499999X-0.759999X0.499999X0.759999X-0.499999X0.759999X0*%
G04 #@! TD*
G04 #@! TA.AperFunction,ComponentPad*
%ADD16O,1.500000X2.020000*%
G04 #@! TD*
G04 #@! TA.AperFunction,ViaPad*
%ADD17C,1.000000*%
G04 #@! TD*
G04 #@! TA.AperFunction,Conductor*
%ADD18C,0.400000*%
G04 #@! TD*
G04 #@! TA.AperFunction,Conductor*
%ADD19C,0.800000*%
G04 #@! TD*
G04 APERTURE END LIST*
D10*
X95187500Y-97712500D03*
X102187500Y-98762500D03*
D11*
X128137500Y-89202500D03*
D12*
X128137500Y-96822500D03*
D11*
X104325000Y-70152500D03*
D12*
X104325000Y-77772500D03*
D10*
X66612500Y-35800000D03*
X73612500Y-36850000D03*
X166625000Y-35800000D03*
X173625000Y-36850000D03*
D11*
X161475000Y-27290000D03*
D12*
X161475000Y-34910000D03*
D10*
X90425000Y-78662500D03*
X97425000Y-79712500D03*
D11*
X166237500Y-89202500D03*
D12*
X166237500Y-96822500D03*
D11*
X23362500Y-60627500D03*
D12*
X23362500Y-68247500D03*
D11*
X132900000Y-51102500D03*
D12*
X132900000Y-58722500D03*
D11*
X61462500Y-70152500D03*
D12*
X61462500Y-77772500D03*
D10*
X47562500Y-78662500D03*
X54562500Y-79712500D03*
X135668750Y-135812500D03*
X142668750Y-136862500D03*
D13*
X5030000Y-26120000D03*
D14*
X7570000Y-26120000D03*
X10110000Y-26120000D03*
X12650000Y-26120000D03*
X15190000Y-26120000D03*
X17730000Y-26120000D03*
X20270000Y-26120000D03*
X22810000Y-26120000D03*
X25350000Y-26120000D03*
X27890000Y-26120000D03*
X30430000Y-26120000D03*
X32970000Y-26120000D03*
X32970000Y-10880000D03*
X30430000Y-10880000D03*
X27890000Y-10880000D03*
X25350000Y-10880000D03*
X22810000Y-10880000D03*
X20270000Y-10880000D03*
X17730000Y-10880000D03*
X15190000Y-10880000D03*
X12650000Y-10880000D03*
X10110000Y-10880000D03*
X7570000Y-10880000D03*
X5030000Y-10880000D03*
X32970000Y-23580000D03*
X32970000Y-21040000D03*
X32970000Y-18500000D03*
X32970000Y-15960000D03*
X32970000Y-13420000D03*
D11*
X78000000Y-108252500D03*
D12*
X78000000Y-115872500D03*
D10*
X123762500Y-116762500D03*
X130762500Y-117812500D03*
X104712500Y-35800000D03*
X111712500Y-36850000D03*
D11*
X151950000Y-51102500D03*
D12*
X151950000Y-58722500D03*
D11*
X113850000Y-51102500D03*
D12*
X113850000Y-58722500D03*
D11*
X61462500Y-127302500D03*
D12*
X61462500Y-134922500D03*
D11*
X23362500Y-79677500D03*
D12*
X23362500Y-87297500D03*
D10*
X128525000Y-78662500D03*
X135525000Y-79712500D03*
D11*
X123375000Y-70152500D03*
D12*
X123375000Y-77772500D03*
D10*
X109475000Y-78662500D03*
X116475000Y-79712500D03*
D11*
X56700000Y-51102500D03*
D12*
X56700000Y-58722500D03*
D10*
X9462500Y-69137500D03*
X16462500Y-70187500D03*
D11*
X137662500Y-27290000D03*
D12*
X137662500Y-34910000D03*
D11*
X75750000Y-51102500D03*
D12*
X75750000Y-58722500D03*
D10*
X138050000Y-59612500D03*
X145050000Y-60662500D03*
D11*
X118612500Y-27290000D03*
D12*
X118612500Y-34910000D03*
D11*
X56700000Y-27290000D03*
D12*
X56700000Y-34910000D03*
D10*
X133287500Y-97712500D03*
X140287500Y-98762500D03*
X99950000Y-59612500D03*
X106950000Y-60662500D03*
X49943750Y-97712500D03*
X56943750Y-98762500D03*
X9462500Y-50087500D03*
X16462500Y-51137500D03*
X73756250Y-135812500D03*
X80756250Y-136862500D03*
X9462500Y-126287500D03*
X16462500Y-127337500D03*
D15*
X159650000Y-11000000D03*
D16*
X162650000Y-11000000D03*
X165650000Y-11000000D03*
X168650000Y-11000000D03*
X171650000Y-11000000D03*
D10*
X147575000Y-35800000D03*
X154575000Y-36850000D03*
D11*
X111468750Y-127302500D03*
D12*
X111468750Y-134922500D03*
D11*
X118612500Y-108252500D03*
D12*
X118612500Y-115872500D03*
D11*
X156712500Y-108252500D03*
D12*
X156712500Y-115872500D03*
D10*
X104712500Y-116762500D03*
X111712500Y-117812500D03*
X76137500Y-97712500D03*
X83137500Y-98762500D03*
D11*
X142425000Y-70152500D03*
D12*
X142425000Y-77772500D03*
D10*
X97568750Y-135812500D03*
X104568750Y-136862500D03*
X142812500Y-116762500D03*
X149812500Y-117812500D03*
D11*
X109087500Y-89202500D03*
D12*
X109087500Y-96822500D03*
D10*
X54706250Y-116762500D03*
X61706250Y-117812500D03*
X85662500Y-116762500D03*
X92662500Y-117812500D03*
D11*
X175762500Y-108252500D03*
D12*
X175762500Y-115872500D03*
D10*
X157100000Y-59612500D03*
X164100000Y-60662500D03*
D11*
X180525000Y-27290000D03*
D12*
X180525000Y-34910000D03*
D11*
X23362500Y-117777500D03*
D12*
X23362500Y-125397500D03*
D10*
X9462500Y-88187500D03*
X16462500Y-89237500D03*
X61850000Y-59612500D03*
X68850000Y-60662500D03*
X80900000Y-59612500D03*
X87900000Y-60662500D03*
X123762500Y-35800000D03*
X130762500Y-36850000D03*
X42800000Y-59612500D03*
X49800000Y-60662500D03*
D11*
X99562500Y-108252500D03*
D12*
X99562500Y-115872500D03*
D11*
X161475000Y-70152500D03*
D12*
X161475000Y-77772500D03*
D10*
X47562500Y-135812500D03*
X54562500Y-136862500D03*
D11*
X171000000Y-51102500D03*
D12*
X171000000Y-58722500D03*
D10*
X42800000Y-35800000D03*
X49800000Y-36850000D03*
X71375000Y-78662500D03*
X78375000Y-79712500D03*
D11*
X137662500Y-108252500D03*
D12*
X137662500Y-115872500D03*
D10*
X147575000Y-78662500D03*
X154575000Y-79712500D03*
D11*
X90037500Y-89202500D03*
D12*
X90037500Y-96822500D03*
D11*
X63843750Y-89202500D03*
D12*
X63843750Y-96822500D03*
D11*
X23362500Y-41577500D03*
D12*
X23362500Y-49197500D03*
D10*
X85662500Y-35800000D03*
X92662500Y-36850000D03*
X161862500Y-116762500D03*
X168862500Y-117812500D03*
D11*
X94800000Y-51102500D03*
D12*
X94800000Y-58722500D03*
D10*
X119000000Y-59612500D03*
X126000000Y-60662500D03*
D11*
X159500000Y-127302500D03*
D12*
X159500000Y-134922500D03*
D11*
X80512500Y-27290000D03*
D12*
X80512500Y-34910000D03*
D11*
X87656250Y-127302500D03*
D12*
X87656250Y-134922500D03*
D10*
X114237500Y-97712500D03*
X121237500Y-98762500D03*
D11*
X23362500Y-98727500D03*
D12*
X23362500Y-106347500D03*
D10*
X9462500Y-107237500D03*
X16462500Y-108287500D03*
D11*
X85275000Y-70152500D03*
D12*
X85275000Y-77772500D03*
D10*
X152337500Y-97712500D03*
X159337500Y-98762500D03*
D11*
X99562500Y-27290000D03*
D12*
X99562500Y-34910000D03*
D11*
X147187500Y-89202500D03*
D12*
X147187500Y-96822500D03*
D17*
X116000000Y-18500000D03*
X10500000Y-8000000D03*
D18*
X55301400Y-25891400D02*
X56700000Y-27290000D01*
X55301400Y-25891400D02*
X32970000Y-25891400D01*
X15190000Y-38190000D02*
X18577500Y-41577500D01*
X18577500Y-41577500D02*
X23362500Y-41577500D01*
X15190000Y-26120000D02*
X15190000Y-38190000D01*
X24500000Y-39500000D02*
X26000000Y-41000000D01*
X26000000Y-41000000D02*
X26000000Y-52500000D01*
X26000000Y-52500000D02*
X23362500Y-55137500D01*
X17730000Y-26120000D02*
X17730000Y-35730000D01*
X23362500Y-55137500D02*
X23362500Y-60627500D01*
X21500000Y-39500000D02*
X24500000Y-39500000D01*
X17730000Y-35730000D02*
X21500000Y-39500000D01*
X23000000Y-38000000D02*
X20270000Y-35270000D01*
X25000000Y-38000000D02*
X23000000Y-38000000D01*
X27500000Y-40500000D02*
X25000000Y-38000000D01*
X23362500Y-79677500D02*
X27500000Y-75540000D01*
X27500000Y-75540000D02*
X27500000Y-40500000D01*
X20270000Y-35270000D02*
X20270000Y-26120000D01*
X22810000Y-34310000D02*
X22810000Y-26120000D01*
X23362500Y-98727500D02*
X24272500Y-98727500D01*
X29000000Y-94000000D02*
X29000000Y-40500000D01*
X29000000Y-40500000D02*
X22810000Y-34310000D01*
X24272500Y-98727500D02*
X29000000Y-94000000D01*
X61706250Y-117812500D02*
X66500000Y-122606250D01*
X74893750Y-122606250D02*
X78000000Y-119500000D01*
X66500000Y-122606250D02*
X74893750Y-122606250D01*
X78000000Y-119500000D02*
X78000000Y-115872500D01*
X30500000Y-39500000D02*
X30500000Y-114777500D01*
X25350000Y-26120000D02*
X25350000Y-34350000D01*
X30500000Y-114777500D02*
X27500000Y-117777500D01*
X27500000Y-117777500D02*
X23362500Y-117777500D01*
X25350000Y-34350000D02*
X30500000Y-39500000D01*
X30430000Y-26120000D02*
X30430000Y-32430000D01*
X33800000Y-35800000D02*
X42800000Y-35800000D01*
X30430000Y-32430000D02*
X33800000Y-35800000D01*
X47562500Y-95331250D02*
X49943750Y-97712500D01*
X39000000Y-45000000D02*
X45500000Y-45000000D01*
X49943750Y-97712500D02*
X54706250Y-102475000D01*
X54706250Y-121293750D02*
X53500000Y-122500000D01*
X47562500Y-124000000D02*
X47562500Y-135812500D01*
X27890000Y-33890000D02*
X39000000Y-45000000D01*
X42800000Y-47700000D02*
X42800000Y-59612500D01*
X54706250Y-102475000D02*
X54706250Y-116762500D01*
X66612500Y-35800000D02*
X63200000Y-35800000D01*
X42800000Y-59612500D02*
X42800000Y-73900000D01*
X54706250Y-116762500D02*
X54706250Y-121293750D01*
X47562500Y-78662500D02*
X47562500Y-95331250D01*
X49062500Y-122500000D02*
X47562500Y-124000000D01*
X45500000Y-45000000D02*
X42800000Y-47700000D01*
X54000000Y-45000000D02*
X45500000Y-45000000D01*
X42800000Y-73900000D02*
X47562500Y-78662500D01*
X27890000Y-26120000D02*
X27890000Y-33890000D01*
X53500000Y-122500000D02*
X49062500Y-122500000D01*
X63200000Y-35800000D02*
X54000000Y-45000000D01*
X37460000Y-23500000D02*
X60040000Y-23500000D01*
X76137500Y-97712500D02*
X71375000Y-92950000D01*
X32970000Y-21040000D02*
X35000000Y-21040000D01*
X85662500Y-107237500D02*
X76137500Y-97712500D01*
X66500000Y-64262500D02*
X61850000Y-59612500D01*
X81500000Y-44000000D02*
X64500000Y-44000000D01*
X71375000Y-92950000D02*
X71375000Y-78662500D01*
X64500000Y-44000000D02*
X61850000Y-46650000D01*
X60040000Y-23500000D02*
X62500000Y-21040000D01*
X80702500Y-21040000D02*
X85662500Y-26000000D01*
X35000000Y-21040000D02*
X37460000Y-23500000D01*
X71375000Y-78662500D02*
X66500000Y-73787500D01*
X62500000Y-21040000D02*
X80702500Y-21040000D01*
X85662500Y-39837500D02*
X81500000Y-44000000D01*
X85662500Y-116762500D02*
X73756250Y-128668750D01*
X61850000Y-46650000D02*
X61850000Y-59612500D01*
X73756250Y-128668750D02*
X73756250Y-135812500D01*
X66500000Y-73787500D02*
X66500000Y-64262500D01*
X85662500Y-26000000D02*
X85662500Y-35800000D01*
X85662500Y-116762500D02*
X85662500Y-107237500D01*
X85662500Y-35800000D02*
X85662500Y-39837500D01*
X80900000Y-59612500D02*
X80900000Y-61400000D01*
X80900000Y-47600000D02*
X80900000Y-59612500D01*
X98925000Y-18500000D02*
X49000000Y-18500000D01*
X95187500Y-86187500D02*
X95187500Y-97712500D01*
X90425000Y-78662500D02*
X90425000Y-81425000D01*
X36000000Y-18500000D02*
X32970000Y-18500000D01*
X104712500Y-107237500D02*
X104712500Y-116762500D01*
X104712500Y-40287500D02*
X101000000Y-44000000D01*
X97568750Y-127500000D02*
X97568750Y-135812500D01*
X104712500Y-24287500D02*
X98925000Y-18500000D01*
X104712500Y-119787500D02*
X97568750Y-126931250D01*
X90425000Y-68925000D02*
X90425000Y-78662500D01*
X97568750Y-126931250D02*
X97568750Y-127500000D01*
X38500000Y-21000000D02*
X46500000Y-21000000D01*
X95187500Y-97712500D02*
X104712500Y-107237500D01*
X101000000Y-44000000D02*
X84500000Y-44000000D01*
X90425000Y-81425000D02*
X95187500Y-86187500D01*
X84000000Y-64500000D02*
X86000000Y-64500000D01*
X86000000Y-64500000D02*
X90425000Y-68925000D01*
X104712500Y-35800000D02*
X104712500Y-40287500D01*
X36000000Y-18500000D02*
X38500000Y-21000000D01*
X46500000Y-21000000D02*
X49000000Y-18500000D01*
X104712500Y-116762500D02*
X104712500Y-119787500D01*
X104712500Y-35800000D02*
X104712500Y-24287500D01*
X80900000Y-61400000D02*
X84000000Y-64500000D01*
X84500000Y-44000000D02*
X80900000Y-47600000D01*
X123762500Y-116762500D02*
X123762500Y-107237500D01*
X123762500Y-107237500D02*
X114237500Y-97712500D01*
X124762500Y-120500000D02*
X123762500Y-119500000D01*
X115762500Y-18500000D02*
X116000000Y-18500000D01*
X133500000Y-120500000D02*
X124762500Y-120500000D01*
X123762500Y-116762500D02*
X123762500Y-119500000D01*
X114237500Y-83425000D02*
X114237500Y-97712500D01*
X116000000Y-18500000D02*
X116000000Y-18737500D01*
X117500000Y-44500000D02*
X105500000Y-44500000D01*
X135668750Y-122668750D02*
X133500000Y-120500000D01*
X99950000Y-59612500D02*
X109475000Y-69137500D01*
X123762500Y-38237500D02*
X117500000Y-44500000D01*
X115762500Y-18500000D02*
X115762500Y-18500000D01*
X116000000Y-18737500D02*
X123762500Y-26500000D01*
X123762500Y-35800000D02*
X123762500Y-38237500D01*
X109475000Y-78662500D02*
X114237500Y-83425000D01*
X99950000Y-50050000D02*
X99950000Y-59612500D01*
X105500000Y-44500000D02*
X99950000Y-50050000D01*
X135668750Y-135812500D02*
X135668750Y-122668750D01*
X123762500Y-26500000D02*
X123762500Y-35800000D01*
X109475000Y-69137500D02*
X109475000Y-78662500D01*
X133287500Y-85287500D02*
X133287500Y-97712500D01*
X119000000Y-46500000D02*
X119000000Y-59612500D01*
X133287500Y-97712500D02*
X142812500Y-107237500D01*
X119000000Y-59612500D02*
X128525000Y-69137500D01*
X47080000Y-12000000D02*
X48500000Y-13420000D01*
X142812500Y-107237500D02*
X142812500Y-116762500D01*
X128525000Y-69137500D02*
X128525000Y-78662500D01*
X147575000Y-31075000D02*
X147575000Y-35800000D01*
X122500000Y-43000000D02*
X119000000Y-46500000D01*
X147575000Y-35800000D02*
X140375000Y-43000000D01*
X128525000Y-80525000D02*
X133287500Y-85287500D01*
X128525000Y-78662500D02*
X128525000Y-80525000D01*
X48500000Y-13420000D02*
X129920000Y-13420000D01*
X129920000Y-13420000D02*
X147575000Y-31075000D01*
X140375000Y-43000000D02*
X122500000Y-43000000D01*
X37580000Y-13420000D02*
X39000000Y-12000000D01*
X32970000Y-13420000D02*
X37580000Y-13420000D01*
X39000000Y-12000000D02*
X47080000Y-12000000D01*
X152337500Y-85337500D02*
X152337500Y-97712500D01*
X152337500Y-97712500D02*
X152337500Y-100000000D01*
X144500000Y-46000000D02*
X140500000Y-46000000D01*
X137960000Y-10880000D02*
X148517500Y-21437500D01*
X166625000Y-35800000D02*
X161425000Y-41000000D01*
X152337500Y-100000000D02*
X161862500Y-109525000D01*
X138050000Y-59612500D02*
X147575000Y-69137500D01*
X140500000Y-46000000D02*
X138050000Y-48450000D01*
X147575000Y-78662500D02*
X147575000Y-80575000D01*
X49000000Y-10880000D02*
X137960000Y-10880000D01*
X161862500Y-109525000D02*
X161862500Y-116762500D01*
X38500000Y-10000000D02*
X48120000Y-10000000D01*
X48120000Y-10000000D02*
X49000000Y-10880000D01*
X166625000Y-26500000D02*
X166625000Y-35800000D01*
X148517500Y-21437500D02*
X161562500Y-21437500D01*
X147575000Y-69137500D02*
X147575000Y-78662500D01*
X147575000Y-80575000D02*
X152337500Y-85337500D01*
X37620000Y-10880000D02*
X38500000Y-10000000D01*
X149500000Y-41000000D02*
X144500000Y-46000000D01*
X32970000Y-10880000D02*
X37620000Y-10880000D01*
X138050000Y-48450000D02*
X138050000Y-59612500D01*
X161425000Y-41000000D02*
X149500000Y-41000000D01*
X161562500Y-21437500D02*
X166625000Y-26500000D01*
X176250000Y-27750000D02*
X176250000Y-41250000D01*
X176250000Y-41250000D02*
X172000000Y-45500000D01*
X30430000Y-9070000D02*
X31500000Y-8000000D01*
X31500000Y-8000000D02*
X142000000Y-8000000D01*
X157100000Y-48400000D02*
X157100000Y-59612500D01*
X151500000Y-17500000D02*
X166000000Y-17500000D01*
X30430000Y-10880000D02*
X30430000Y-9070000D01*
X166000000Y-17500000D02*
X176250000Y-27750000D01*
X160000000Y-45500000D02*
X157100000Y-48400000D01*
X172000000Y-45500000D02*
X160000000Y-45500000D01*
X142000000Y-8000000D02*
X151500000Y-17500000D01*
X166000000Y-7500000D02*
X168650000Y-10150000D01*
X10500000Y-8000000D02*
X12500000Y-6000000D01*
X158000000Y-4000000D02*
X164500000Y-4000000D01*
X166000000Y-5500000D02*
X166000000Y-7500000D01*
X12500000Y-6000000D02*
X156000000Y-6000000D01*
X168650000Y-10150000D02*
X168650000Y-11000000D01*
X164500000Y-4000000D02*
X166000000Y-5500000D01*
X156000000Y-6000000D02*
X158000000Y-4000000D01*
D19*
X171000000Y-2000000D02*
X14500000Y-2000000D01*
X7570000Y-8930000D02*
X7570000Y-10880000D01*
X14500000Y-2000000D02*
X7570000Y-8930000D01*
X173000000Y-9650000D02*
X173000000Y-4000000D01*
X171650000Y-11000000D02*
X173000000Y-9650000D01*
X173000000Y-4000000D02*
X171000000Y-2000000D01*
D18*
X142668750Y-136862500D02*
X145531250Y-134000000D01*
X157000000Y-134000000D02*
X157922500Y-134922500D01*
X167577500Y-134922500D02*
X180000000Y-122500000D01*
X155500000Y-120500000D02*
X157000000Y-122000000D01*
X159500000Y-134922500D02*
X167577500Y-134922500D01*
X177800000Y-22800000D02*
X170000000Y-15000000D01*
X145531250Y-122468750D02*
X147500000Y-120500000D01*
X157000000Y-122000000D02*
X157000000Y-134000000D01*
X177800000Y-48200000D02*
X177800000Y-22800000D01*
X165000000Y-15000000D02*
X162650000Y-12650000D01*
X147500000Y-120500000D02*
X155500000Y-120500000D01*
X180000000Y-50400000D02*
X177800000Y-48200000D01*
X170000000Y-15000000D02*
X165000000Y-15000000D01*
X180000000Y-122500000D02*
X180000000Y-50400000D01*
X162650000Y-12650000D02*
X162650000Y-11000000D01*
X145531250Y-134000000D02*
X145531250Y-122468750D01*
X157922500Y-134922500D02*
X159500000Y-134922500D01*
M02*
