G04 #@! TF.GenerationSoftware,KiCad,Pcbnew,8.0.7*
G04 #@! TF.CreationDate,2024-12-27T16:05:41+00:00*
G04 #@! TF.ProjectId,gateronLPkeyboard-left,67617465-726f-46e4-9c50-6b6579626f61,rev?*
G04 #@! TF.SameCoordinates,Original*
G04 #@! TF.FileFunction,Soldermask,Top*
G04 #@! TF.FilePolarity,Negative*
%FSLAX46Y46*%
G04 Gerber Fmt 4.6, Leading zero omitted, Abs format (unit mm)*
G04 Created by KiCad (PCBNEW 8.0.7) date 2024-12-27 16:05:41*
%MOMM*%
%LPD*%
G01*
G04 APERTURE LIST*
G04 Aperture macros list*
%AMRoundRect*
0 Rectangle with rounded corners*
0 $1 Rounding radius*
0 $2 $3 $4 $5 $6 $7 $8 $9 X,Y pos of 4 corners*
0 Add a 4 corners polygon primitive as box body*
4,1,4,$2,$3,$4,$5,$6,$7,$8,$9,$2,$3,0*
0 Add four circle primitives for the rounded corners*
1,1,$1+$1,$2,$3*
1,1,$1+$1,$4,$5*
1,1,$1+$1,$6,$7*
1,1,$1+$1,$8,$9*
0 Add four rect primitives between the rounded corners*
20,1,$1+$1,$2,$3,$4,$5,0*
20,1,$1+$1,$4,$5,$6,$7,0*
20,1,$1+$1,$6,$7,$8,$9,0*
20,1,$1+$1,$8,$9,$2,$3,0*%
G04 Aperture macros list end*
%ADD10C,5.250000*%
%ADD11C,2.500000*%
%ADD12R,1.600000X1.600000*%
%ADD13O,1.600000X1.600000*%
%ADD14C,3.200000*%
%ADD15R,2.200000X2.200000*%
%ADD16C,2.200000*%
%ADD17C,3.000000*%
%ADD18RoundRect,0.250001X-0.499999X-0.759999X0.499999X-0.759999X0.499999X0.759999X-0.499999X0.759999X0*%
%ADD19O,1.500000X2.020000*%
G04 APERTURE END LIST*
D10*
X99587500Y-93012500D03*
D11*
X95187500Y-97712500D03*
X102187500Y-98762500D03*
D12*
X128137500Y-89202500D03*
D13*
X128137500Y-96822500D03*
D12*
X104325000Y-70152500D03*
D13*
X104325000Y-77772500D03*
D10*
X71012500Y-31100000D03*
D11*
X66612500Y-35800000D03*
X73612500Y-36850000D03*
D10*
X171025000Y-31100000D03*
D11*
X166625000Y-35800000D03*
X173625000Y-36850000D03*
D12*
X161475000Y-27290000D03*
D13*
X161475000Y-34910000D03*
D10*
X94825000Y-73962500D03*
D11*
X90425000Y-78662500D03*
X97425000Y-79712500D03*
D14*
X5000000Y-5000000D03*
D12*
X166237500Y-89202500D03*
D13*
X166237500Y-96822500D03*
D12*
X23362500Y-60627500D03*
D13*
X23362500Y-68247500D03*
D12*
X132900000Y-51102500D03*
D13*
X132900000Y-58722500D03*
D12*
X61462500Y-70152500D03*
D13*
X61462500Y-77772500D03*
D10*
X51962500Y-73962500D03*
D11*
X47562500Y-78662500D03*
X54562500Y-79712500D03*
D10*
X140068750Y-131112500D03*
D11*
X135668750Y-135812500D03*
X142668750Y-136862500D03*
D15*
X5030000Y-26120000D03*
D16*
X7570000Y-26120000D03*
X10110000Y-26120000D03*
X12650000Y-26120000D03*
X15190000Y-26120000D03*
X17730000Y-26120000D03*
X20270000Y-26120000D03*
X22810000Y-26120000D03*
X25350000Y-26120000D03*
X27890000Y-26120000D03*
X30430000Y-26120000D03*
X32970000Y-26120000D03*
X32970000Y-10880000D03*
X30430000Y-10880000D03*
X27890000Y-10880000D03*
X25350000Y-10880000D03*
X22810000Y-10880000D03*
X20270000Y-10880000D03*
X17730000Y-10880000D03*
X15190000Y-10880000D03*
X12650000Y-10880000D03*
X10110000Y-10880000D03*
X7570000Y-10880000D03*
X5030000Y-10880000D03*
X32970000Y-23580000D03*
X32970000Y-21040000D03*
X32970000Y-18500000D03*
X32970000Y-15960000D03*
X32970000Y-13420000D03*
D12*
X78000000Y-108252500D03*
D13*
X78000000Y-115872500D03*
D10*
X128162500Y-112062500D03*
D11*
X123762500Y-116762500D03*
X130762500Y-117812500D03*
D10*
X109112500Y-31100000D03*
D11*
X104712500Y-35800000D03*
X111712500Y-36850000D03*
D12*
X151950000Y-51102500D03*
D13*
X151950000Y-58722500D03*
D12*
X113850000Y-51102500D03*
D13*
X113850000Y-58722500D03*
D12*
X61462500Y-127302500D03*
D13*
X61462500Y-134922500D03*
D14*
X5000000Y-139000000D03*
X152000000Y-10000000D03*
D12*
X23362500Y-79677500D03*
D13*
X23362500Y-87297500D03*
D10*
X132925000Y-73962500D03*
D11*
X128525000Y-78662500D03*
X135525000Y-79712500D03*
D12*
X123375000Y-70152500D03*
D13*
X123375000Y-77772500D03*
D10*
X113875000Y-73962500D03*
D11*
X109475000Y-78662500D03*
X116475000Y-79712500D03*
D12*
X56700000Y-51102500D03*
D13*
X56700000Y-58722500D03*
D10*
X13862500Y-64437500D03*
D11*
X9462500Y-69137500D03*
X16462500Y-70187500D03*
D12*
X137662500Y-27290000D03*
D13*
X137662500Y-34910000D03*
D12*
X75750000Y-51102500D03*
D13*
X75750000Y-58722500D03*
D10*
X142450000Y-54912500D03*
D11*
X138050000Y-59612500D03*
X145050000Y-60662500D03*
D12*
X118612500Y-27290000D03*
D13*
X118612500Y-34910000D03*
D12*
X56700000Y-27290000D03*
D13*
X56700000Y-34910000D03*
D10*
X137687500Y-93012500D03*
D11*
X133287500Y-97712500D03*
X140287500Y-98762500D03*
D10*
X104350000Y-54912500D03*
D11*
X99950000Y-59612500D03*
X106950000Y-60662500D03*
D10*
X54343750Y-93012500D03*
D11*
X49943750Y-97712500D03*
X56943750Y-98762500D03*
D10*
X13862500Y-45387500D03*
D11*
X9462500Y-50087500D03*
X16462500Y-51137500D03*
D10*
X78156250Y-131112500D03*
D11*
X73756250Y-135812500D03*
X80756250Y-136862500D03*
D14*
X179000000Y-5000000D03*
D10*
X13862500Y-121587500D03*
D11*
X9462500Y-126287500D03*
X16462500Y-127337500D03*
D17*
X161800000Y-6680000D03*
X169500000Y-6680000D03*
D18*
X159650000Y-11000000D03*
D19*
X162650000Y-11000000D03*
X165650000Y-11000000D03*
X168650000Y-11000000D03*
X171650000Y-11000000D03*
D10*
X151975000Y-31100000D03*
D11*
X147575000Y-35800000D03*
X154575000Y-36850000D03*
D12*
X111468750Y-127302500D03*
D13*
X111468750Y-134922500D03*
D12*
X118612500Y-108252500D03*
D13*
X118612500Y-115872500D03*
D12*
X156712500Y-108252500D03*
D13*
X156712500Y-115872500D03*
D10*
X109112500Y-112062500D03*
D11*
X104712500Y-116762500D03*
X111712500Y-117812500D03*
D10*
X80537500Y-93012500D03*
D11*
X76137500Y-97712500D03*
X83137500Y-98762500D03*
D12*
X142425000Y-70152500D03*
D13*
X142425000Y-77772500D03*
D10*
X101968750Y-131112500D03*
D11*
X97568750Y-135812500D03*
X104568750Y-136862500D03*
D10*
X147212500Y-112062500D03*
D11*
X142812500Y-116762500D03*
X149812500Y-117812500D03*
D12*
X109087500Y-89202500D03*
D13*
X109087500Y-96822500D03*
D10*
X59106250Y-112062500D03*
D11*
X54706250Y-116762500D03*
X61706250Y-117812500D03*
D10*
X90062500Y-112062500D03*
D11*
X85662500Y-116762500D03*
X92662500Y-117812500D03*
D12*
X175762500Y-108252500D03*
D13*
X175762500Y-115872500D03*
D10*
X161500000Y-54912500D03*
D11*
X157100000Y-59612500D03*
X164100000Y-60662500D03*
D12*
X180525000Y-27290000D03*
D13*
X180525000Y-34910000D03*
D12*
X23362500Y-117777500D03*
D13*
X23362500Y-125397500D03*
D10*
X13862500Y-83487500D03*
D11*
X9462500Y-88187500D03*
X16462500Y-89237500D03*
D10*
X66250000Y-54912500D03*
D11*
X61850000Y-59612500D03*
X68850000Y-60662500D03*
D10*
X85300000Y-54912500D03*
D11*
X80900000Y-59612500D03*
X87900000Y-60662500D03*
D10*
X128162500Y-31100000D03*
D11*
X123762500Y-35800000D03*
X130762500Y-36850000D03*
D10*
X47200000Y-54912500D03*
D11*
X42800000Y-59612500D03*
X49800000Y-60662500D03*
D12*
X99562500Y-108252500D03*
D13*
X99562500Y-115872500D03*
D12*
X161475000Y-70152500D03*
D13*
X161475000Y-77772500D03*
D10*
X51962500Y-131112500D03*
D11*
X47562500Y-135812500D03*
X54562500Y-136862500D03*
D12*
X171000000Y-51102500D03*
D13*
X171000000Y-58722500D03*
D10*
X47200000Y-31100000D03*
D11*
X42800000Y-35800000D03*
X49800000Y-36850000D03*
D14*
X42000000Y-16500000D03*
D10*
X75775000Y-73962500D03*
D11*
X71375000Y-78662500D03*
X78375000Y-79712500D03*
D12*
X137662500Y-108252500D03*
D13*
X137662500Y-115872500D03*
D10*
X151975000Y-73962500D03*
D11*
X147575000Y-78662500D03*
X154575000Y-79712500D03*
D12*
X90037500Y-89202500D03*
D13*
X90037500Y-96822500D03*
D12*
X63843750Y-89202500D03*
D13*
X63843750Y-96822500D03*
D12*
X23362500Y-41577500D03*
D13*
X23362500Y-49197500D03*
D10*
X90062500Y-31100000D03*
D11*
X85662500Y-35800000D03*
X92662500Y-36850000D03*
D10*
X166262500Y-112062500D03*
D11*
X161862500Y-116762500D03*
X168862500Y-117812500D03*
D12*
X94800000Y-51102500D03*
D13*
X94800000Y-58722500D03*
D10*
X123400000Y-54912500D03*
D11*
X119000000Y-59612500D03*
X126000000Y-60662500D03*
D12*
X159500000Y-127302500D03*
D13*
X159500000Y-134922500D03*
D12*
X80512500Y-27290000D03*
D13*
X80512500Y-34910000D03*
D12*
X87656250Y-127302500D03*
D13*
X87656250Y-134922500D03*
D10*
X118637500Y-93012500D03*
D11*
X114237500Y-97712500D03*
X121237500Y-98762500D03*
D12*
X23362500Y-98727500D03*
D13*
X23362500Y-106347500D03*
D14*
X179000000Y-139000000D03*
D10*
X13862500Y-102537500D03*
D11*
X9462500Y-107237500D03*
X16462500Y-108287500D03*
D12*
X85275000Y-70152500D03*
D13*
X85275000Y-77772500D03*
D10*
X156737500Y-93012500D03*
D11*
X152337500Y-97712500D03*
X159337500Y-98762500D03*
D12*
X99562500Y-27290000D03*
D13*
X99562500Y-34910000D03*
D12*
X147187500Y-89202500D03*
D13*
X147187500Y-96822500D03*
M02*
