G04 #@! TF.GenerationSoftware,KiCad,Pcbnew,8.0.7*
G04 #@! TF.CreationDate,2025-01-12T17:34:05+00:00*
G04 #@! TF.ProjectId,gateronLPkeyboard-right,67617465-726f-46e4-9c50-6b6579626f61,rev?*
G04 #@! TF.SameCoordinates,Original*
G04 #@! TF.FileFunction,Soldermask,Bot*
G04 #@! TF.FilePolarity,Negative*
%FSLAX46Y46*%
G04 Gerber Fmt 4.6, Leading zero omitted, Abs format (unit mm)*
G04 Created by KiCad (PCBNEW 8.0.7) date 2025-01-12 17:34:05*
%MOMM*%
%LPD*%
G01*
G04 APERTURE LIST*
G04 Aperture macros list*
%AMRoundRect*
0 Rectangle with rounded corners*
0 $1 Rounding radius*
0 $2 $3 $4 $5 $6 $7 $8 $9 X,Y pos of 4 corners*
0 Add a 4 corners polygon primitive as box body*
4,1,4,$2,$3,$4,$5,$6,$7,$8,$9,$2,$3,0*
0 Add four circle primitives for the rounded corners*
1,1,$1+$1,$2,$3*
1,1,$1+$1,$4,$5*
1,1,$1+$1,$6,$7*
1,1,$1+$1,$8,$9*
0 Add four rect primitives between the rounded corners*
20,1,$1+$1,$2,$3,$4,$5,0*
20,1,$1+$1,$4,$5,$6,$7,0*
20,1,$1+$1,$6,$7,$8,$9,0*
20,1,$1+$1,$8,$9,$2,$3,0*%
G04 Aperture macros list end*
%ADD10R,1.600000X1.600000*%
%ADD11O,1.600000X1.600000*%
%ADD12C,5.250000*%
%ADD13C,2.500000*%
%ADD14C,3.000000*%
%ADD15RoundRect,0.250001X-0.499999X-0.759999X0.499999X-0.759999X0.499999X0.759999X-0.499999X0.759999X0*%
%ADD16O,1.500000X2.020000*%
%ADD17C,3.200000*%
%ADD18R,2.200000X2.200000*%
%ADD19C,2.200000*%
G04 APERTURE END LIST*
D10*
X44675000Y-90702500D03*
D11*
X44675000Y-98322500D03*
D12*
X44700000Y-32600000D03*
D13*
X40300000Y-37300000D03*
X47300000Y-38350000D03*
D10*
X197075000Y-28790000D03*
D11*
X197075000Y-36410000D03*
D12*
X11362500Y-75462500D03*
D13*
X6962500Y-80162500D03*
X13962500Y-81212500D03*
D10*
X178025000Y-28790000D03*
D11*
X178025000Y-36410000D03*
D12*
X130425000Y-113562500D03*
D13*
X126025000Y-118262500D03*
X133025000Y-119312500D03*
D12*
X187575000Y-56412500D03*
D13*
X183175000Y-61112500D03*
X190175000Y-62162500D03*
D10*
X111350000Y-109752500D03*
D11*
X111350000Y-117372500D03*
D12*
X101850000Y-132612500D03*
D13*
X97450000Y-137312500D03*
X104450000Y-138362500D03*
D12*
X44700000Y-113562500D03*
D13*
X40300000Y-118262500D03*
X47300000Y-119312500D03*
D10*
X58962500Y-71652500D03*
D11*
X58962500Y-79272500D03*
D10*
X162662500Y-52602500D03*
D11*
X162662500Y-60222500D03*
D12*
X78037500Y-56412500D03*
D13*
X73637500Y-61112500D03*
X80637500Y-62162500D03*
D10*
X54200000Y-109752500D03*
D11*
X54200000Y-117372500D03*
D12*
X101850000Y-113562500D03*
D13*
X97450000Y-118262500D03*
X104450000Y-119312500D03*
D10*
X120875000Y-90702500D03*
D11*
X120875000Y-98322500D03*
D10*
X49437500Y-52602500D03*
D11*
X49437500Y-60222500D03*
D12*
X187575000Y-32600000D03*
D13*
X183175000Y-37300000D03*
X190175000Y-38350000D03*
D10*
X111350000Y-128802500D03*
D11*
X111350000Y-136422500D03*
D12*
X87562500Y-32600000D03*
D13*
X83162500Y-37300000D03*
X90162500Y-38350000D03*
D12*
X120900000Y-132612500D03*
D13*
X116500000Y-137312500D03*
X123500000Y-138362500D03*
D12*
X97087500Y-56412500D03*
D13*
X92687500Y-61112500D03*
X99687500Y-62162500D03*
D12*
X116137500Y-56412500D03*
D13*
X111737500Y-61112500D03*
X118737500Y-62162500D03*
D12*
X61368750Y-132612500D03*
D13*
X56968750Y-137312500D03*
X63968750Y-138362500D03*
D14*
X17150000Y-6680000D03*
X24850000Y-6680000D03*
D15*
X15000000Y-11000000D03*
D16*
X18000000Y-11000000D03*
X21000000Y-11000000D03*
X24000000Y-11000000D03*
X27000000Y-11000000D03*
D10*
X39912500Y-71652500D03*
D11*
X39912500Y-79272500D03*
D12*
X73275000Y-94512500D03*
D13*
X68875000Y-99212500D03*
X75875000Y-100262500D03*
D10*
X92300000Y-128802500D03*
D11*
X92300000Y-136422500D03*
D10*
X116112500Y-71652500D03*
D11*
X116112500Y-79272500D03*
D17*
X5000000Y-5000000D03*
D10*
X68487500Y-52602500D03*
D11*
X68487500Y-60222500D03*
D10*
X101825000Y-90702500D03*
D11*
X101825000Y-98322500D03*
D10*
X78012500Y-71652500D03*
D11*
X78012500Y-79272500D03*
D12*
X35175000Y-94512500D03*
D13*
X30775000Y-99212500D03*
X37775000Y-100262500D03*
D10*
X158975000Y-71652500D03*
D11*
X158975000Y-79272500D03*
D12*
X82800000Y-132612500D03*
D13*
X78400000Y-137312500D03*
X85400000Y-138362500D03*
D10*
X78012500Y-28790000D03*
D11*
X78012500Y-36410000D03*
D12*
X68512500Y-75462500D03*
D13*
X64112500Y-80162500D03*
X71112500Y-81212500D03*
D18*
X39530000Y-19120000D03*
D19*
X42070000Y-19120000D03*
X44610000Y-19120000D03*
X47150000Y-19120000D03*
X49690000Y-19120000D03*
X52230000Y-19120000D03*
X54770000Y-19120000D03*
X57310000Y-19120000D03*
X59850000Y-19120000D03*
X62390000Y-19120000D03*
X64930000Y-19120000D03*
X67470000Y-19120000D03*
X67470000Y-3880000D03*
X64930000Y-3880000D03*
X62390000Y-3880000D03*
X59850000Y-3880000D03*
X57310000Y-3880000D03*
X54770000Y-3880000D03*
X52230000Y-3880000D03*
X49690000Y-3880000D03*
X47150000Y-3880000D03*
X44610000Y-3880000D03*
X42070000Y-3880000D03*
X39530000Y-3880000D03*
X67470000Y-16580000D03*
X67470000Y-14040000D03*
X67470000Y-11500000D03*
X67470000Y-8960000D03*
X67470000Y-6420000D03*
D12*
X149475000Y-75462500D03*
D13*
X145075000Y-80162500D03*
X152075000Y-81212500D03*
D10*
X35150000Y-28790000D03*
D11*
X35150000Y-36410000D03*
D12*
X149475000Y-32600000D03*
D13*
X145075000Y-37300000D03*
X152075000Y-38350000D03*
D10*
X135162500Y-28790000D03*
D11*
X135162500Y-36410000D03*
D12*
X144712500Y-137375000D03*
D13*
X140312500Y-142075000D03*
X147312500Y-143125000D03*
D10*
X197075000Y-109752500D03*
D11*
X197075000Y-117372500D03*
D10*
X97062500Y-28790000D03*
D11*
X97062500Y-36410000D03*
D10*
X35150000Y-109752500D03*
D11*
X35150000Y-117372500D03*
D17*
X77000000Y-11000000D03*
D12*
X87562500Y-75462500D03*
D13*
X83162500Y-80162500D03*
X90162500Y-81212500D03*
D12*
X16125000Y-94512500D03*
D13*
X11725000Y-99212500D03*
X18725000Y-100262500D03*
D10*
X148375000Y-109752500D03*
D11*
X148375000Y-117372500D03*
D10*
X192312500Y-128690000D03*
D11*
X192312500Y-136310000D03*
D10*
X154212500Y-133565000D03*
D11*
X154212500Y-141185000D03*
D12*
X106612500Y-75462500D03*
D13*
X102212500Y-80162500D03*
X109212500Y-81212500D03*
D10*
X73250000Y-109752500D03*
D11*
X73250000Y-117372500D03*
D12*
X144712500Y-56412500D03*
D13*
X140312500Y-61112500D03*
X147312500Y-62162500D03*
D17*
X196000000Y-5000000D03*
D12*
X20887500Y-56412500D03*
D13*
X16487500Y-61112500D03*
X23487500Y-62162500D03*
D10*
X30387500Y-52602500D03*
D11*
X30387500Y-60222500D03*
D12*
X187575000Y-113562500D03*
D13*
X183175000Y-118262500D03*
X190175000Y-119312500D03*
D10*
X160281250Y-90702500D03*
D11*
X160281250Y-98322500D03*
D12*
X25650000Y-113562500D03*
D13*
X21250000Y-118262500D03*
X28250000Y-119312500D03*
D12*
X187575000Y-94512500D03*
D13*
X183175000Y-99212500D03*
X190175000Y-100262500D03*
D12*
X28031250Y-132612500D03*
D13*
X23631250Y-137312500D03*
X30631250Y-138362500D03*
D12*
X125662500Y-75462500D03*
D13*
X121262500Y-80162500D03*
X128262500Y-81212500D03*
D12*
X49462500Y-75462500D03*
D13*
X45062500Y-80162500D03*
X52062500Y-81212500D03*
D12*
X142331250Y-94512500D03*
D13*
X137931250Y-99212500D03*
X144931250Y-100262500D03*
D12*
X163762500Y-137375000D03*
D13*
X159362500Y-142075000D03*
X166362500Y-143125000D03*
D17*
X196000000Y-143000000D03*
D10*
X197075000Y-52602500D03*
D11*
X197075000Y-60222500D03*
D10*
X106587500Y-52602500D03*
D11*
X106587500Y-60222500D03*
D12*
X125662500Y-32600000D03*
D13*
X121262500Y-37300000D03*
X128262500Y-38350000D03*
D10*
X82775000Y-90702500D03*
D11*
X82775000Y-98322500D03*
D12*
X58987500Y-56412500D03*
D13*
X54587500Y-61112500D03*
X61587500Y-62162500D03*
D12*
X168525000Y-32600000D03*
D13*
X164125000Y-37300000D03*
X171125000Y-38350000D03*
D10*
X130400000Y-128802500D03*
D11*
X130400000Y-136422500D03*
D10*
X20862500Y-71652500D03*
D11*
X20862500Y-79272500D03*
D12*
X25650000Y-32600000D03*
D13*
X21250000Y-37300000D03*
X28250000Y-38350000D03*
D10*
X158975000Y-28790000D03*
D11*
X158975000Y-36410000D03*
D10*
X135162500Y-71652500D03*
D11*
X135162500Y-79272500D03*
D12*
X30412500Y-75462500D03*
D13*
X26012500Y-80162500D03*
X33012500Y-81212500D03*
D10*
X70868750Y-128802500D03*
D11*
X70868750Y-136422500D03*
D12*
X106612500Y-32600000D03*
D13*
X102212500Y-37300000D03*
X109212500Y-38350000D03*
D10*
X197075000Y-90702500D03*
D11*
X197075000Y-98322500D03*
D12*
X39937500Y-56412500D03*
D13*
X35537500Y-61112500D03*
X42537500Y-62162500D03*
D10*
X63725000Y-90702500D03*
D11*
X63725000Y-98322500D03*
D12*
X187575000Y-75462500D03*
D13*
X183175000Y-80162500D03*
X190175000Y-81212500D03*
D10*
X173262500Y-114515000D03*
D11*
X173262500Y-122135000D03*
D12*
X111375000Y-94512500D03*
D13*
X106975000Y-99212500D03*
X113975000Y-100262500D03*
D10*
X173262500Y-133565000D03*
D11*
X173262500Y-141185000D03*
D12*
X82800000Y-113562500D03*
D13*
X78400000Y-118262500D03*
X85400000Y-119312500D03*
D10*
X87537500Y-52602500D03*
D11*
X87537500Y-60222500D03*
D12*
X92325000Y-94512500D03*
D13*
X87925000Y-99212500D03*
X94925000Y-100262500D03*
D12*
X163762500Y-118325000D03*
D13*
X159362500Y-123025000D03*
X166362500Y-124075000D03*
D10*
X125637500Y-52602500D03*
D11*
X125637500Y-60222500D03*
D17*
X5000000Y-117000000D03*
D10*
X54200000Y-28790000D03*
D11*
X54200000Y-36410000D03*
D12*
X63750000Y-113562500D03*
D13*
X59350000Y-118262500D03*
X66350000Y-119312500D03*
D10*
X92300000Y-109752500D03*
D11*
X92300000Y-117372500D03*
D12*
X182812500Y-137375000D03*
D13*
X178412500Y-142075000D03*
X185412500Y-143125000D03*
D10*
X97062500Y-71652500D03*
D11*
X97062500Y-79272500D03*
D10*
X197075000Y-71652500D03*
D11*
X197075000Y-79272500D03*
D10*
X116112500Y-28790000D03*
D11*
X116112500Y-36410000D03*
D12*
X68512500Y-32600000D03*
D13*
X64112500Y-37300000D03*
X71112500Y-38350000D03*
D12*
X54225000Y-94512500D03*
D13*
X49825000Y-99212500D03*
X56825000Y-100262500D03*
D10*
X25625000Y-90702500D03*
D11*
X25625000Y-98322500D03*
M02*
