%TF.GenerationSoftware,KiCad,Pcbnew,8.0.7*%
%TF.CreationDate,2025-01-12T17:34:09+00:00*%
%TF.ProjectId,gateronLPkeyboard-right,67617465-726f-46e4-9c50-6b6579626f61,rev?*%
%TF.SameCoordinates,Original*%
%TF.FileFunction,Drillmap*%
%TF.FilePolarity,Positive*%
%FSLAX45Y45*%
G04 Gerber Fmt 4.5, Leading zero omitted, Abs format (unit mm)*
G04 Created by KiCad (PCBNEW 8.0.7) date 2025-01-12 17:34:09*
%MOMM*%
%LPD*%
G01*
G04 APERTURE LIST*
%ADD10C,0.100000*%
%ADD11C,0.120000*%
%ADD12C,0.200000*%
%ADD13C,0.102000*%
%ADD14C,0.158000*%
G04 APERTURE END LIST*
D10*
X200000Y-14800000D02*
X20000000Y-14800000D01*
X20200000Y-14600000D02*
G75*
G02*
X20000000Y-14800000I-200000J0D01*
G01*
X0Y-200000D02*
X0Y-14600000D01*
X200000Y-14800000D02*
G75*
G02*
X0Y-14600000I0J200000D01*
G01*
X0Y-200000D02*
G75*
G02*
X200000Y0I200000J0D01*
G01*
X20000000Y0D02*
G75*
G02*
X20200000Y-200000I0J-200000D01*
G01*
X20200000Y-200000D02*
X20200000Y-14600000D01*
X200000Y0D02*
X20000000Y0D01*
D11*
X11492500Y-10456250D02*
X12192500Y-10456250D01*
X12192500Y-12256250D01*
X11492500Y-12256250D01*
X11492500Y-10456250D01*
X13892500Y-10456250D02*
X14592500Y-10456250D01*
X14592500Y-12256250D01*
X13892500Y-12256250D01*
X13892500Y-10456250D01*
X1253125Y-12361250D02*
X1953125Y-12361250D01*
X1953125Y-14161250D01*
X1253125Y-14161250D01*
X1253125Y-12361250D01*
X3653125Y-12361250D02*
X4353125Y-12361250D01*
X4353125Y-14161250D01*
X3653125Y-14161250D01*
X3653125Y-12361250D01*
X12921250Y-4741250D02*
X13621250Y-4741250D01*
X13621250Y-6541250D01*
X12921250Y-6541250D01*
X12921250Y-4741250D01*
X15321250Y-4741250D02*
X16021250Y-4741250D01*
X16021250Y-6541250D01*
X15321250Y-6541250D01*
X15321250Y-4741250D01*
X12683125Y-8551250D02*
X13383125Y-8551250D01*
X13383125Y-10351250D01*
X12683125Y-10351250D01*
X12683125Y-8551250D01*
X15083125Y-8551250D02*
X15783125Y-8551250D01*
X15783125Y-10351250D01*
X15083125Y-10351250D01*
X15083125Y-8551250D01*
D12*
D10*
X17320000Y-8470000D02*
X17380000Y-8530000D01*
X17380000Y-8470000D02*
X17320000Y-8530000D01*
X2126250Y-7165250D02*
G75*
G02*
X2046250Y-7165250I-40000J0D01*
G01*
X2046250Y-7165250D02*
G75*
G02*
X2126250Y-7165250I40000J0D01*
G01*
X2126250Y-7927250D02*
G75*
G02*
X2046250Y-7927250I-40000J0D01*
G01*
X2046250Y-7927250D02*
G75*
G02*
X2126250Y-7927250I40000J0D01*
G01*
X2602500Y-9070250D02*
G75*
G02*
X2522500Y-9070250I-40000J0D01*
G01*
X2522500Y-9070250D02*
G75*
G02*
X2602500Y-9070250I40000J0D01*
G01*
X2602500Y-9832250D02*
G75*
G02*
X2522500Y-9832250I-40000J0D01*
G01*
X2522500Y-9832250D02*
G75*
G02*
X2602500Y-9832250I40000J0D01*
G01*
X3078750Y-5260250D02*
G75*
G02*
X2998750Y-5260250I-40000J0D01*
G01*
X2998750Y-5260250D02*
G75*
G02*
X3078750Y-5260250I40000J0D01*
G01*
X3078750Y-6022250D02*
G75*
G02*
X2998750Y-6022250I-40000J0D01*
G01*
X2998750Y-6022250D02*
G75*
G02*
X3078750Y-6022250I40000J0D01*
G01*
X3555000Y-2879000D02*
G75*
G02*
X3475000Y-2879000I-40000J0D01*
G01*
X3475000Y-2879000D02*
G75*
G02*
X3555000Y-2879000I40000J0D01*
G01*
X3555000Y-3641000D02*
G75*
G02*
X3475000Y-3641000I-40000J0D01*
G01*
X3475000Y-3641000D02*
G75*
G02*
X3555000Y-3641000I40000J0D01*
G01*
X3555000Y-10975250D02*
G75*
G02*
X3475000Y-10975250I-40000J0D01*
G01*
X3475000Y-10975250D02*
G75*
G02*
X3555000Y-10975250I40000J0D01*
G01*
X3555000Y-11737250D02*
G75*
G02*
X3475000Y-11737250I-40000J0D01*
G01*
X3475000Y-11737250D02*
G75*
G02*
X3555000Y-11737250I40000J0D01*
G01*
X4031250Y-7165250D02*
G75*
G02*
X3951250Y-7165250I-40000J0D01*
G01*
X3951250Y-7165250D02*
G75*
G02*
X4031250Y-7165250I40000J0D01*
G01*
X4031250Y-7927250D02*
G75*
G02*
X3951250Y-7927250I-40000J0D01*
G01*
X3951250Y-7927250D02*
G75*
G02*
X4031250Y-7927250I40000J0D01*
G01*
X4507500Y-9070250D02*
G75*
G02*
X4427500Y-9070250I-40000J0D01*
G01*
X4427500Y-9070250D02*
G75*
G02*
X4507500Y-9070250I40000J0D01*
G01*
X4507500Y-9832250D02*
G75*
G02*
X4427500Y-9832250I-40000J0D01*
G01*
X4427500Y-9832250D02*
G75*
G02*
X4507500Y-9832250I40000J0D01*
G01*
X4983750Y-5260250D02*
G75*
G02*
X4903750Y-5260250I-40000J0D01*
G01*
X4903750Y-5260250D02*
G75*
G02*
X4983750Y-5260250I40000J0D01*
G01*
X4983750Y-6022250D02*
G75*
G02*
X4903750Y-6022250I-40000J0D01*
G01*
X4903750Y-6022250D02*
G75*
G02*
X4983750Y-6022250I40000J0D01*
G01*
X5460000Y-2879000D02*
G75*
G02*
X5380000Y-2879000I-40000J0D01*
G01*
X5380000Y-2879000D02*
G75*
G02*
X5460000Y-2879000I40000J0D01*
G01*
X5460000Y-3641000D02*
G75*
G02*
X5380000Y-3641000I-40000J0D01*
G01*
X5380000Y-3641000D02*
G75*
G02*
X5460000Y-3641000I40000J0D01*
G01*
X5460000Y-10975250D02*
G75*
G02*
X5380000Y-10975250I-40000J0D01*
G01*
X5380000Y-10975250D02*
G75*
G02*
X5460000Y-10975250I40000J0D01*
G01*
X5460000Y-11737250D02*
G75*
G02*
X5380000Y-11737250I-40000J0D01*
G01*
X5380000Y-11737250D02*
G75*
G02*
X5460000Y-11737250I40000J0D01*
G01*
X5936250Y-7165250D02*
G75*
G02*
X5856250Y-7165250I-40000J0D01*
G01*
X5856250Y-7165250D02*
G75*
G02*
X5936250Y-7165250I40000J0D01*
G01*
X5936250Y-7927250D02*
G75*
G02*
X5856250Y-7927250I-40000J0D01*
G01*
X5856250Y-7927250D02*
G75*
G02*
X5936250Y-7927250I40000J0D01*
G01*
X6412500Y-9070250D02*
G75*
G02*
X6332500Y-9070250I-40000J0D01*
G01*
X6332500Y-9070250D02*
G75*
G02*
X6412500Y-9070250I40000J0D01*
G01*
X6412500Y-9832250D02*
G75*
G02*
X6332500Y-9832250I-40000J0D01*
G01*
X6332500Y-9832250D02*
G75*
G02*
X6412500Y-9832250I40000J0D01*
G01*
X6888750Y-5260250D02*
G75*
G02*
X6808750Y-5260250I-40000J0D01*
G01*
X6808750Y-5260250D02*
G75*
G02*
X6888750Y-5260250I40000J0D01*
G01*
X6888750Y-6022250D02*
G75*
G02*
X6808750Y-6022250I-40000J0D01*
G01*
X6808750Y-6022250D02*
G75*
G02*
X6888750Y-6022250I40000J0D01*
G01*
X7126875Y-12880250D02*
G75*
G02*
X7046875Y-12880250I-40000J0D01*
G01*
X7046875Y-12880250D02*
G75*
G02*
X7126875Y-12880250I40000J0D01*
G01*
X7126875Y-13642250D02*
G75*
G02*
X7046875Y-13642250I-40000J0D01*
G01*
X7046875Y-13642250D02*
G75*
G02*
X7126875Y-13642250I40000J0D01*
G01*
X7365000Y-10975250D02*
G75*
G02*
X7285000Y-10975250I-40000J0D01*
G01*
X7285000Y-10975250D02*
G75*
G02*
X7365000Y-10975250I40000J0D01*
G01*
X7365000Y-11737250D02*
G75*
G02*
X7285000Y-11737250I-40000J0D01*
G01*
X7285000Y-11737250D02*
G75*
G02*
X7365000Y-11737250I40000J0D01*
G01*
X7841250Y-2879000D02*
G75*
G02*
X7761250Y-2879000I-40000J0D01*
G01*
X7761250Y-2879000D02*
G75*
G02*
X7841250Y-2879000I40000J0D01*
G01*
X7841250Y-3641000D02*
G75*
G02*
X7761250Y-3641000I-40000J0D01*
G01*
X7761250Y-3641000D02*
G75*
G02*
X7841250Y-3641000I40000J0D01*
G01*
X7841250Y-7165250D02*
G75*
G02*
X7761250Y-7165250I-40000J0D01*
G01*
X7761250Y-7165250D02*
G75*
G02*
X7841250Y-7165250I40000J0D01*
G01*
X7841250Y-7927250D02*
G75*
G02*
X7761250Y-7927250I-40000J0D01*
G01*
X7761250Y-7927250D02*
G75*
G02*
X7841250Y-7927250I40000J0D01*
G01*
X8317500Y-9070250D02*
G75*
G02*
X8237500Y-9070250I-40000J0D01*
G01*
X8237500Y-9070250D02*
G75*
G02*
X8317500Y-9070250I40000J0D01*
G01*
X8317500Y-9832250D02*
G75*
G02*
X8237500Y-9832250I-40000J0D01*
G01*
X8237500Y-9832250D02*
G75*
G02*
X8317500Y-9832250I40000J0D01*
G01*
X8793750Y-5260250D02*
G75*
G02*
X8713750Y-5260250I-40000J0D01*
G01*
X8713750Y-5260250D02*
G75*
G02*
X8793750Y-5260250I40000J0D01*
G01*
X8793750Y-6022250D02*
G75*
G02*
X8713750Y-6022250I-40000J0D01*
G01*
X8713750Y-6022250D02*
G75*
G02*
X8793750Y-6022250I40000J0D01*
G01*
X9270000Y-10975250D02*
G75*
G02*
X9190000Y-10975250I-40000J0D01*
G01*
X9190000Y-10975250D02*
G75*
G02*
X9270000Y-10975250I40000J0D01*
G01*
X9270000Y-11737250D02*
G75*
G02*
X9190000Y-11737250I-40000J0D01*
G01*
X9190000Y-11737250D02*
G75*
G02*
X9270000Y-11737250I40000J0D01*
G01*
X9270000Y-12880250D02*
G75*
G02*
X9190000Y-12880250I-40000J0D01*
G01*
X9190000Y-12880250D02*
G75*
G02*
X9270000Y-12880250I40000J0D01*
G01*
X9270000Y-13642250D02*
G75*
G02*
X9190000Y-13642250I-40000J0D01*
G01*
X9190000Y-13642250D02*
G75*
G02*
X9270000Y-13642250I40000J0D01*
G01*
X9746250Y-2879000D02*
G75*
G02*
X9666250Y-2879000I-40000J0D01*
G01*
X9666250Y-2879000D02*
G75*
G02*
X9746250Y-2879000I40000J0D01*
G01*
X9746250Y-3641000D02*
G75*
G02*
X9666250Y-3641000I-40000J0D01*
G01*
X9666250Y-3641000D02*
G75*
G02*
X9746250Y-3641000I40000J0D01*
G01*
X9746250Y-7165250D02*
G75*
G02*
X9666250Y-7165250I-40000J0D01*
G01*
X9666250Y-7165250D02*
G75*
G02*
X9746250Y-7165250I40000J0D01*
G01*
X9746250Y-7927250D02*
G75*
G02*
X9666250Y-7927250I-40000J0D01*
G01*
X9666250Y-7927250D02*
G75*
G02*
X9746250Y-7927250I40000J0D01*
G01*
X10222500Y-9070250D02*
G75*
G02*
X10142500Y-9070250I-40000J0D01*
G01*
X10142500Y-9070250D02*
G75*
G02*
X10222500Y-9070250I40000J0D01*
G01*
X10222500Y-9832250D02*
G75*
G02*
X10142500Y-9832250I-40000J0D01*
G01*
X10142500Y-9832250D02*
G75*
G02*
X10222500Y-9832250I40000J0D01*
G01*
X10698750Y-5260250D02*
G75*
G02*
X10618750Y-5260250I-40000J0D01*
G01*
X10618750Y-5260250D02*
G75*
G02*
X10698750Y-5260250I40000J0D01*
G01*
X10698750Y-6022250D02*
G75*
G02*
X10618750Y-6022250I-40000J0D01*
G01*
X10618750Y-6022250D02*
G75*
G02*
X10698750Y-6022250I40000J0D01*
G01*
X11175000Y-10975250D02*
G75*
G02*
X11095000Y-10975250I-40000J0D01*
G01*
X11095000Y-10975250D02*
G75*
G02*
X11175000Y-10975250I40000J0D01*
G01*
X11175000Y-11737250D02*
G75*
G02*
X11095000Y-11737250I-40000J0D01*
G01*
X11095000Y-11737250D02*
G75*
G02*
X11175000Y-11737250I40000J0D01*
G01*
X11175000Y-12880250D02*
G75*
G02*
X11095000Y-12880250I-40000J0D01*
G01*
X11095000Y-12880250D02*
G75*
G02*
X11175000Y-12880250I40000J0D01*
G01*
X11175000Y-13642250D02*
G75*
G02*
X11095000Y-13642250I-40000J0D01*
G01*
X11095000Y-13642250D02*
G75*
G02*
X11175000Y-13642250I40000J0D01*
G01*
X11651250Y-2879000D02*
G75*
G02*
X11571250Y-2879000I-40000J0D01*
G01*
X11571250Y-2879000D02*
G75*
G02*
X11651250Y-2879000I40000J0D01*
G01*
X11651250Y-3641000D02*
G75*
G02*
X11571250Y-3641000I-40000J0D01*
G01*
X11571250Y-3641000D02*
G75*
G02*
X11651250Y-3641000I40000J0D01*
G01*
X11651250Y-7165250D02*
G75*
G02*
X11571250Y-7165250I-40000J0D01*
G01*
X11571250Y-7165250D02*
G75*
G02*
X11651250Y-7165250I40000J0D01*
G01*
X11651250Y-7927250D02*
G75*
G02*
X11571250Y-7927250I-40000J0D01*
G01*
X11571250Y-7927250D02*
G75*
G02*
X11651250Y-7927250I40000J0D01*
G01*
X12127500Y-9070250D02*
G75*
G02*
X12047500Y-9070250I-40000J0D01*
G01*
X12047500Y-9070250D02*
G75*
G02*
X12127500Y-9070250I40000J0D01*
G01*
X12127500Y-9832250D02*
G75*
G02*
X12047500Y-9832250I-40000J0D01*
G01*
X12047500Y-9832250D02*
G75*
G02*
X12127500Y-9832250I40000J0D01*
G01*
X12603750Y-5260250D02*
G75*
G02*
X12523750Y-5260250I-40000J0D01*
G01*
X12523750Y-5260250D02*
G75*
G02*
X12603750Y-5260250I40000J0D01*
G01*
X12603750Y-6022250D02*
G75*
G02*
X12523750Y-6022250I-40000J0D01*
G01*
X12523750Y-6022250D02*
G75*
G02*
X12603750Y-6022250I40000J0D01*
G01*
X13080000Y-12880250D02*
G75*
G02*
X13000000Y-12880250I-40000J0D01*
G01*
X13000000Y-12880250D02*
G75*
G02*
X13080000Y-12880250I40000J0D01*
G01*
X13080000Y-13642250D02*
G75*
G02*
X13000000Y-13642250I-40000J0D01*
G01*
X13000000Y-13642250D02*
G75*
G02*
X13080000Y-13642250I40000J0D01*
G01*
X13556250Y-2879000D02*
G75*
G02*
X13476250Y-2879000I-40000J0D01*
G01*
X13476250Y-2879000D02*
G75*
G02*
X13556250Y-2879000I40000J0D01*
G01*
X13556250Y-3641000D02*
G75*
G02*
X13476250Y-3641000I-40000J0D01*
G01*
X13476250Y-3641000D02*
G75*
G02*
X13556250Y-3641000I40000J0D01*
G01*
X13556250Y-7165250D02*
G75*
G02*
X13476250Y-7165250I-40000J0D01*
G01*
X13476250Y-7165250D02*
G75*
G02*
X13556250Y-7165250I40000J0D01*
G01*
X13556250Y-7927250D02*
G75*
G02*
X13476250Y-7927250I-40000J0D01*
G01*
X13476250Y-7927250D02*
G75*
G02*
X13556250Y-7927250I40000J0D01*
G01*
X14877500Y-10975250D02*
G75*
G02*
X14797500Y-10975250I-40000J0D01*
G01*
X14797500Y-10975250D02*
G75*
G02*
X14877500Y-10975250I40000J0D01*
G01*
X14877500Y-11737250D02*
G75*
G02*
X14797500Y-11737250I-40000J0D01*
G01*
X14797500Y-11737250D02*
G75*
G02*
X14877500Y-11737250I40000J0D01*
G01*
X15461250Y-13356500D02*
G75*
G02*
X15381250Y-13356500I-40000J0D01*
G01*
X15381250Y-13356500D02*
G75*
G02*
X15461250Y-13356500I40000J0D01*
G01*
X15461250Y-14118500D02*
G75*
G02*
X15381250Y-14118500I-40000J0D01*
G01*
X15381250Y-14118500D02*
G75*
G02*
X15461250Y-14118500I40000J0D01*
G01*
X15937500Y-2879000D02*
G75*
G02*
X15857500Y-2879000I-40000J0D01*
G01*
X15857500Y-2879000D02*
G75*
G02*
X15937500Y-2879000I40000J0D01*
G01*
X15937500Y-3641000D02*
G75*
G02*
X15857500Y-3641000I-40000J0D01*
G01*
X15857500Y-3641000D02*
G75*
G02*
X15937500Y-3641000I40000J0D01*
G01*
X15937500Y-7165250D02*
G75*
G02*
X15857500Y-7165250I-40000J0D01*
G01*
X15857500Y-7165250D02*
G75*
G02*
X15937500Y-7165250I40000J0D01*
G01*
X15937500Y-7927250D02*
G75*
G02*
X15857500Y-7927250I-40000J0D01*
G01*
X15857500Y-7927250D02*
G75*
G02*
X15937500Y-7927250I40000J0D01*
G01*
X16068125Y-9070250D02*
G75*
G02*
X15988125Y-9070250I-40000J0D01*
G01*
X15988125Y-9070250D02*
G75*
G02*
X16068125Y-9070250I40000J0D01*
G01*
X16068125Y-9832250D02*
G75*
G02*
X15988125Y-9832250I-40000J0D01*
G01*
X15988125Y-9832250D02*
G75*
G02*
X16068125Y-9832250I40000J0D01*
G01*
X16306250Y-5260250D02*
G75*
G02*
X16226250Y-5260250I-40000J0D01*
G01*
X16226250Y-5260250D02*
G75*
G02*
X16306250Y-5260250I40000J0D01*
G01*
X16306250Y-6022250D02*
G75*
G02*
X16226250Y-6022250I-40000J0D01*
G01*
X16226250Y-6022250D02*
G75*
G02*
X16306250Y-6022250I40000J0D01*
G01*
X17366250Y-11451500D02*
G75*
G02*
X17286250Y-11451500I-40000J0D01*
G01*
X17286250Y-11451500D02*
G75*
G02*
X17366250Y-11451500I40000J0D01*
G01*
X17366250Y-12213500D02*
G75*
G02*
X17286250Y-12213500I-40000J0D01*
G01*
X17286250Y-12213500D02*
G75*
G02*
X17366250Y-12213500I40000J0D01*
G01*
X17366250Y-13356500D02*
G75*
G02*
X17286250Y-13356500I-40000J0D01*
G01*
X17286250Y-13356500D02*
G75*
G02*
X17366250Y-13356500I40000J0D01*
G01*
X17366250Y-14118500D02*
G75*
G02*
X17286250Y-14118500I-40000J0D01*
G01*
X17286250Y-14118500D02*
G75*
G02*
X17366250Y-14118500I40000J0D01*
G01*
X17842500Y-2879000D02*
G75*
G02*
X17762500Y-2879000I-40000J0D01*
G01*
X17762500Y-2879000D02*
G75*
G02*
X17842500Y-2879000I40000J0D01*
G01*
X17842500Y-3641000D02*
G75*
G02*
X17762500Y-3641000I-40000J0D01*
G01*
X17762500Y-3641000D02*
G75*
G02*
X17842500Y-3641000I40000J0D01*
G01*
X19271250Y-12869000D02*
G75*
G02*
X19191250Y-12869000I-40000J0D01*
G01*
X19191250Y-12869000D02*
G75*
G02*
X19271250Y-12869000I40000J0D01*
G01*
X19271250Y-13631000D02*
G75*
G02*
X19191250Y-13631000I-40000J0D01*
G01*
X19191250Y-13631000D02*
G75*
G02*
X19271250Y-13631000I40000J0D01*
G01*
X19747500Y-2879000D02*
G75*
G02*
X19667500Y-2879000I-40000J0D01*
G01*
X19667500Y-2879000D02*
G75*
G02*
X19747500Y-2879000I40000J0D01*
G01*
X19747500Y-3641000D02*
G75*
G02*
X19667500Y-3641000I-40000J0D01*
G01*
X19667500Y-3641000D02*
G75*
G02*
X19747500Y-3641000I40000J0D01*
G01*
X19747500Y-5260250D02*
G75*
G02*
X19667500Y-5260250I-40000J0D01*
G01*
X19667500Y-5260250D02*
G75*
G02*
X19747500Y-5260250I40000J0D01*
G01*
X19747500Y-6022250D02*
G75*
G02*
X19667500Y-6022250I-40000J0D01*
G01*
X19667500Y-6022250D02*
G75*
G02*
X19747500Y-6022250I40000J0D01*
G01*
X19747500Y-7165250D02*
G75*
G02*
X19667500Y-7165250I-40000J0D01*
G01*
X19667500Y-7165250D02*
G75*
G02*
X19747500Y-7165250I40000J0D01*
G01*
X19747500Y-7927250D02*
G75*
G02*
X19667500Y-7927250I-40000J0D01*
G01*
X19667500Y-7927250D02*
G75*
G02*
X19747500Y-7927250I40000J0D01*
G01*
X19747500Y-9070250D02*
G75*
G02*
X19667500Y-9070250I-40000J0D01*
G01*
X19667500Y-9070250D02*
G75*
G02*
X19747500Y-9070250I40000J0D01*
G01*
X19747500Y-9832250D02*
G75*
G02*
X19667500Y-9832250I-40000J0D01*
G01*
X19667500Y-9832250D02*
G75*
G02*
X19747500Y-9832250I40000J0D01*
G01*
X19747500Y-10975250D02*
G75*
G02*
X19667500Y-10975250I-40000J0D01*
G01*
X19667500Y-10975250D02*
G75*
G02*
X19747500Y-10975250I40000J0D01*
G01*
X19747500Y-11737250D02*
G75*
G02*
X19667500Y-11737250I-40000J0D01*
G01*
X19667500Y-11737250D02*
G75*
G02*
X19747500Y-11737250I40000J0D01*
G01*
D13*
X1500000Y-1049000D02*
X1500000Y-1151000D01*
X1449000Y-1100000D02*
X1551000Y-1100000D01*
X1800000Y-1049000D02*
X1800000Y-1151000D01*
X1749000Y-1100000D02*
X1851000Y-1100000D01*
X2100000Y-1049000D02*
X2100000Y-1151000D01*
X2049000Y-1100000D02*
X2151000Y-1100000D01*
X2400000Y-1049000D02*
X2400000Y-1151000D01*
X2349000Y-1100000D02*
X2451000Y-1100000D01*
X2700000Y-1049000D02*
X2700000Y-1151000D01*
X2649000Y-1100000D02*
X2751000Y-1100000D01*
D14*
X752112Y-8072112D02*
X752112Y-7960388D01*
X640388Y-7960388D01*
X640388Y-8072112D01*
X752112Y-8072112D01*
X1228362Y-9977112D02*
X1228362Y-9865388D01*
X1116638Y-9865388D01*
X1116638Y-9977112D01*
X1228362Y-9977112D01*
X1452112Y-8177112D02*
X1452112Y-8065388D01*
X1340388Y-8065388D01*
X1340388Y-8177112D01*
X1452112Y-8177112D01*
X1704612Y-6167112D02*
X1704612Y-6055388D01*
X1592888Y-6055388D01*
X1592888Y-6167112D01*
X1704612Y-6167112D01*
X1928362Y-10082112D02*
X1928362Y-9970388D01*
X1816638Y-9970388D01*
X1816638Y-10082112D01*
X1928362Y-10082112D01*
X2180862Y-3785862D02*
X2180862Y-3674138D01*
X2069138Y-3674138D01*
X2069138Y-3785862D01*
X2180862Y-3785862D01*
X2180862Y-11882112D02*
X2180862Y-11770388D01*
X2069138Y-11770388D01*
X2069138Y-11882112D01*
X2180862Y-11882112D01*
X2404612Y-6272112D02*
X2404612Y-6160388D01*
X2292888Y-6160388D01*
X2292888Y-6272112D01*
X2404612Y-6272112D01*
X2418987Y-13787112D02*
X2418987Y-13675388D01*
X2307263Y-13675388D01*
X2307263Y-13787112D01*
X2418987Y-13787112D01*
X2657112Y-8072112D02*
X2657112Y-7960388D01*
X2545388Y-7960388D01*
X2545388Y-8072112D01*
X2657112Y-8072112D01*
X2880862Y-3890862D02*
X2880862Y-3779138D01*
X2769138Y-3779138D01*
X2769138Y-3890862D01*
X2880862Y-3890862D01*
X2880862Y-11987112D02*
X2880862Y-11875388D01*
X2769138Y-11875388D01*
X2769138Y-11987112D01*
X2880862Y-11987112D01*
X3118987Y-13892112D02*
X3118987Y-13780388D01*
X3007263Y-13780388D01*
X3007263Y-13892112D01*
X3118987Y-13892112D01*
X3133362Y-9977112D02*
X3133362Y-9865388D01*
X3021638Y-9865388D01*
X3021638Y-9977112D01*
X3133362Y-9977112D01*
X3357112Y-8177112D02*
X3357112Y-8065388D01*
X3245388Y-8065388D01*
X3245388Y-8177112D01*
X3357112Y-8177112D01*
X3609612Y-6167112D02*
X3609612Y-6055388D01*
X3497888Y-6055388D01*
X3497888Y-6167112D01*
X3609612Y-6167112D01*
X3833362Y-10082112D02*
X3833362Y-9970388D01*
X3721638Y-9970388D01*
X3721638Y-10082112D01*
X3833362Y-10082112D01*
X4008862Y-443862D02*
X4008862Y-332138D01*
X3897138Y-332138D01*
X3897138Y-443862D01*
X4008862Y-443862D01*
X4008862Y-1967862D02*
X4008862Y-1856138D01*
X3897138Y-1856138D01*
X3897138Y-1967862D01*
X4008862Y-1967862D01*
X4085862Y-3785862D02*
X4085862Y-3674138D01*
X3974138Y-3674138D01*
X3974138Y-3785862D01*
X4085862Y-3785862D01*
X4085862Y-11882112D02*
X4085862Y-11770388D01*
X3974138Y-11770388D01*
X3974138Y-11882112D01*
X4085862Y-11882112D01*
X4262862Y-443862D02*
X4262862Y-332138D01*
X4151138Y-332138D01*
X4151138Y-443862D01*
X4262862Y-443862D01*
X4262862Y-1967862D02*
X4262862Y-1856138D01*
X4151138Y-1856138D01*
X4151138Y-1967862D01*
X4262862Y-1967862D01*
X4309612Y-6272112D02*
X4309612Y-6160388D01*
X4197888Y-6160388D01*
X4197888Y-6272112D01*
X4309612Y-6272112D01*
X4516862Y-443862D02*
X4516862Y-332138D01*
X4405138Y-332138D01*
X4405138Y-443862D01*
X4516862Y-443862D01*
X4516862Y-1967862D02*
X4516862Y-1856138D01*
X4405138Y-1856138D01*
X4405138Y-1967862D01*
X4516862Y-1967862D01*
X4562112Y-8072112D02*
X4562112Y-7960388D01*
X4450388Y-7960388D01*
X4450388Y-8072112D01*
X4562112Y-8072112D01*
X4770862Y-443862D02*
X4770862Y-332138D01*
X4659138Y-332138D01*
X4659138Y-443862D01*
X4770862Y-443862D01*
X4770862Y-1967862D02*
X4770862Y-1856138D01*
X4659138Y-1856138D01*
X4659138Y-1967862D01*
X4770862Y-1967862D01*
X4785862Y-3890862D02*
X4785862Y-3779138D01*
X4674138Y-3779138D01*
X4674138Y-3890862D01*
X4785862Y-3890862D01*
X4785862Y-11987112D02*
X4785862Y-11875388D01*
X4674138Y-11875388D01*
X4674138Y-11987112D01*
X4785862Y-11987112D01*
X5024862Y-443862D02*
X5024862Y-332138D01*
X4913138Y-332138D01*
X4913138Y-443862D01*
X5024862Y-443862D01*
X5024862Y-1967862D02*
X5024862Y-1856138D01*
X4913138Y-1856138D01*
X4913138Y-1967862D01*
X5024862Y-1967862D01*
X5038362Y-9977112D02*
X5038362Y-9865388D01*
X4926638Y-9865388D01*
X4926638Y-9977112D01*
X5038362Y-9977112D01*
X5262112Y-8177112D02*
X5262112Y-8065388D01*
X5150388Y-8065388D01*
X5150388Y-8177112D01*
X5262112Y-8177112D01*
X5278862Y-443862D02*
X5278862Y-332138D01*
X5167138Y-332138D01*
X5167138Y-443862D01*
X5278862Y-443862D01*
X5278862Y-1967862D02*
X5278862Y-1856138D01*
X5167138Y-1856138D01*
X5167138Y-1967862D01*
X5278862Y-1967862D01*
X5514612Y-6167112D02*
X5514612Y-6055388D01*
X5402888Y-6055388D01*
X5402888Y-6167112D01*
X5514612Y-6167112D01*
X5532862Y-443862D02*
X5532862Y-332138D01*
X5421138Y-332138D01*
X5421138Y-443862D01*
X5532862Y-443862D01*
X5532862Y-1967862D02*
X5532862Y-1856138D01*
X5421138Y-1856138D01*
X5421138Y-1967862D01*
X5532862Y-1967862D01*
X5738362Y-10082112D02*
X5738362Y-9970388D01*
X5626638Y-9970388D01*
X5626638Y-10082112D01*
X5738362Y-10082112D01*
X5752737Y-13787112D02*
X5752737Y-13675388D01*
X5641013Y-13675388D01*
X5641013Y-13787112D01*
X5752737Y-13787112D01*
X5786862Y-443862D02*
X5786862Y-332138D01*
X5675138Y-332138D01*
X5675138Y-443862D01*
X5786862Y-443862D01*
X5786862Y-1967862D02*
X5786862Y-1856138D01*
X5675138Y-1856138D01*
X5675138Y-1967862D01*
X5786862Y-1967862D01*
X5990862Y-11882112D02*
X5990862Y-11770388D01*
X5879138Y-11770388D01*
X5879138Y-11882112D01*
X5990862Y-11882112D01*
X6040862Y-443862D02*
X6040862Y-332138D01*
X5929138Y-332138D01*
X5929138Y-443862D01*
X6040862Y-443862D01*
X6040862Y-1967862D02*
X6040862Y-1856138D01*
X5929138Y-1856138D01*
X5929138Y-1967862D01*
X6040862Y-1967862D01*
X6214612Y-6272112D02*
X6214612Y-6160388D01*
X6102888Y-6160388D01*
X6102888Y-6272112D01*
X6214612Y-6272112D01*
X6294862Y-443862D02*
X6294862Y-332138D01*
X6183138Y-332138D01*
X6183138Y-443862D01*
X6294862Y-443862D01*
X6294862Y-1967862D02*
X6294862Y-1856138D01*
X6183138Y-1856138D01*
X6183138Y-1967862D01*
X6294862Y-1967862D01*
X6452737Y-13892112D02*
X6452737Y-13780388D01*
X6341013Y-13780388D01*
X6341013Y-13892112D01*
X6452737Y-13892112D01*
X6467112Y-3785862D02*
X6467112Y-3674138D01*
X6355388Y-3674138D01*
X6355388Y-3785862D01*
X6467112Y-3785862D01*
X6467112Y-8072112D02*
X6467112Y-7960388D01*
X6355388Y-7960388D01*
X6355388Y-8072112D01*
X6467112Y-8072112D01*
X6548862Y-443862D02*
X6548862Y-332138D01*
X6437138Y-332138D01*
X6437138Y-443862D01*
X6548862Y-443862D01*
X6548862Y-1967862D02*
X6548862Y-1856138D01*
X6437138Y-1856138D01*
X6437138Y-1967862D01*
X6548862Y-1967862D01*
X6690862Y-11987112D02*
X6690862Y-11875388D01*
X6579138Y-11875388D01*
X6579138Y-11987112D01*
X6690862Y-11987112D01*
X6802862Y-443862D02*
X6802862Y-332138D01*
X6691138Y-332138D01*
X6691138Y-443862D01*
X6802862Y-443862D01*
X6802862Y-697862D02*
X6802862Y-586138D01*
X6691138Y-586138D01*
X6691138Y-697862D01*
X6802862Y-697862D01*
X6802862Y-951862D02*
X6802862Y-840138D01*
X6691138Y-840138D01*
X6691138Y-951862D01*
X6802862Y-951862D01*
X6802862Y-1205862D02*
X6802862Y-1094138D01*
X6691138Y-1094138D01*
X6691138Y-1205862D01*
X6802862Y-1205862D01*
X6802862Y-1459862D02*
X6802862Y-1348138D01*
X6691138Y-1348138D01*
X6691138Y-1459862D01*
X6802862Y-1459862D01*
X6802862Y-1713862D02*
X6802862Y-1602138D01*
X6691138Y-1602138D01*
X6691138Y-1713862D01*
X6802862Y-1713862D01*
X6802862Y-1967862D02*
X6802862Y-1856138D01*
X6691138Y-1856138D01*
X6691138Y-1967862D01*
X6802862Y-1967862D01*
X6943362Y-9977112D02*
X6943362Y-9865388D01*
X6831638Y-9865388D01*
X6831638Y-9977112D01*
X6943362Y-9977112D01*
X7167112Y-3890862D02*
X7167112Y-3779138D01*
X7055388Y-3779138D01*
X7055388Y-3890862D01*
X7167112Y-3890862D01*
X7167112Y-8177112D02*
X7167112Y-8065388D01*
X7055388Y-8065388D01*
X7055388Y-8177112D01*
X7167112Y-8177112D01*
X7419612Y-6167112D02*
X7419612Y-6055388D01*
X7307888Y-6055388D01*
X7307888Y-6167112D01*
X7419612Y-6167112D01*
X7643362Y-10082112D02*
X7643362Y-9970388D01*
X7531638Y-9970388D01*
X7531638Y-10082112D01*
X7643362Y-10082112D01*
X7895862Y-11882112D02*
X7895862Y-11770388D01*
X7784138Y-11770388D01*
X7784138Y-11882112D01*
X7895862Y-11882112D01*
X7895862Y-13787112D02*
X7895862Y-13675388D01*
X7784138Y-13675388D01*
X7784138Y-13787112D01*
X7895862Y-13787112D01*
X8119612Y-6272112D02*
X8119612Y-6160388D01*
X8007888Y-6160388D01*
X8007888Y-6272112D01*
X8119612Y-6272112D01*
X8372112Y-3785862D02*
X8372112Y-3674138D01*
X8260388Y-3674138D01*
X8260388Y-3785862D01*
X8372112Y-3785862D01*
X8372112Y-8072112D02*
X8372112Y-7960388D01*
X8260388Y-7960388D01*
X8260388Y-8072112D01*
X8372112Y-8072112D01*
X8595862Y-11987112D02*
X8595862Y-11875388D01*
X8484138Y-11875388D01*
X8484138Y-11987112D01*
X8595862Y-11987112D01*
X8595862Y-13892112D02*
X8595862Y-13780388D01*
X8484138Y-13780388D01*
X8484138Y-13892112D01*
X8595862Y-13892112D01*
X8848362Y-9977112D02*
X8848362Y-9865388D01*
X8736638Y-9865388D01*
X8736638Y-9977112D01*
X8848362Y-9977112D01*
X9072112Y-3890862D02*
X9072112Y-3779138D01*
X8960388Y-3779138D01*
X8960388Y-3890862D01*
X9072112Y-3890862D01*
X9072112Y-8177112D02*
X9072112Y-8065388D01*
X8960388Y-8065388D01*
X8960388Y-8177112D01*
X9072112Y-8177112D01*
X9324612Y-6167112D02*
X9324612Y-6055388D01*
X9212888Y-6055388D01*
X9212888Y-6167112D01*
X9324612Y-6167112D01*
X9548362Y-10082112D02*
X9548362Y-9970388D01*
X9436638Y-9970388D01*
X9436638Y-10082112D01*
X9548362Y-10082112D01*
X9800862Y-11882112D02*
X9800862Y-11770388D01*
X9689138Y-11770388D01*
X9689138Y-11882112D01*
X9800862Y-11882112D01*
X9800862Y-13787112D02*
X9800862Y-13675388D01*
X9689138Y-13675388D01*
X9689138Y-13787112D01*
X9800862Y-13787112D01*
X10024612Y-6272112D02*
X10024612Y-6160388D01*
X9912888Y-6160388D01*
X9912888Y-6272112D01*
X10024612Y-6272112D01*
X10277112Y-3785862D02*
X10277112Y-3674138D01*
X10165388Y-3674138D01*
X10165388Y-3785862D01*
X10277112Y-3785862D01*
X10277112Y-8072112D02*
X10277112Y-7960388D01*
X10165388Y-7960388D01*
X10165388Y-8072112D01*
X10277112Y-8072112D01*
X10500862Y-11987112D02*
X10500862Y-11875388D01*
X10389138Y-11875388D01*
X10389138Y-11987112D01*
X10500862Y-11987112D01*
X10500862Y-13892112D02*
X10500862Y-13780388D01*
X10389138Y-13780388D01*
X10389138Y-13892112D01*
X10500862Y-13892112D01*
X10753362Y-9977112D02*
X10753362Y-9865388D01*
X10641638Y-9865388D01*
X10641638Y-9977112D01*
X10753362Y-9977112D01*
X10977112Y-3890862D02*
X10977112Y-3779138D01*
X10865388Y-3779138D01*
X10865388Y-3890862D01*
X10977112Y-3890862D01*
X10977112Y-8177112D02*
X10977112Y-8065388D01*
X10865388Y-8065388D01*
X10865388Y-8177112D01*
X10977112Y-8177112D01*
X11229612Y-6167112D02*
X11229612Y-6055388D01*
X11117888Y-6055388D01*
X11117888Y-6167112D01*
X11229612Y-6167112D01*
X11453362Y-10082112D02*
X11453362Y-9970388D01*
X11341638Y-9970388D01*
X11341638Y-10082112D01*
X11453362Y-10082112D01*
X11705862Y-13787112D02*
X11705862Y-13675388D01*
X11594138Y-13675388D01*
X11594138Y-13787112D01*
X11705862Y-13787112D01*
X11929612Y-6272112D02*
X11929612Y-6160388D01*
X11817888Y-6160388D01*
X11817888Y-6272112D01*
X11929612Y-6272112D01*
X12182112Y-3785862D02*
X12182112Y-3674138D01*
X12070388Y-3674138D01*
X12070388Y-3785862D01*
X12182112Y-3785862D01*
X12182112Y-8072112D02*
X12182112Y-7960388D01*
X12070388Y-7960388D01*
X12070388Y-8072112D01*
X12182112Y-8072112D01*
X12405862Y-13892112D02*
X12405862Y-13780388D01*
X12294138Y-13780388D01*
X12294138Y-13892112D01*
X12405862Y-13892112D01*
X12658362Y-11882112D02*
X12658362Y-11770388D01*
X12546638Y-11770388D01*
X12546638Y-11882112D01*
X12658362Y-11882112D01*
X12882112Y-3890862D02*
X12882112Y-3779138D01*
X12770388Y-3779138D01*
X12770388Y-3890862D01*
X12882112Y-3890862D01*
X12882112Y-8177112D02*
X12882112Y-8065388D01*
X12770388Y-8065388D01*
X12770388Y-8177112D01*
X12882112Y-8177112D01*
X13358362Y-11987112D02*
X13358362Y-11875388D01*
X13246638Y-11875388D01*
X13246638Y-11987112D01*
X13358362Y-11987112D01*
X13848987Y-9977112D02*
X13848987Y-9865388D01*
X13737263Y-9865388D01*
X13737263Y-9977112D01*
X13848987Y-9977112D01*
X14087112Y-6167112D02*
X14087112Y-6055388D01*
X13975388Y-6055388D01*
X13975388Y-6167112D01*
X14087112Y-6167112D01*
X14087112Y-14263362D02*
X14087112Y-14151638D01*
X13975388Y-14151638D01*
X13975388Y-14263362D01*
X14087112Y-14263362D01*
X14548987Y-10082112D02*
X14548987Y-9970388D01*
X14437263Y-9970388D01*
X14437263Y-10082112D01*
X14548987Y-10082112D01*
X14563362Y-3785862D02*
X14563362Y-3674138D01*
X14451638Y-3674138D01*
X14451638Y-3785862D01*
X14563362Y-3785862D01*
X14563362Y-8072112D02*
X14563362Y-7960388D01*
X14451638Y-7960388D01*
X14451638Y-8072112D01*
X14563362Y-8072112D01*
X14787112Y-6272112D02*
X14787112Y-6160388D01*
X14675388Y-6160388D01*
X14675388Y-6272112D01*
X14787112Y-6272112D01*
X14787112Y-14368362D02*
X14787112Y-14256638D01*
X14675388Y-14256638D01*
X14675388Y-14368362D01*
X14787112Y-14368362D01*
X15263362Y-3890862D02*
X15263362Y-3779138D01*
X15151638Y-3779138D01*
X15151638Y-3890862D01*
X15263362Y-3890862D01*
X15263362Y-8177112D02*
X15263362Y-8065388D01*
X15151638Y-8065388D01*
X15151638Y-8177112D01*
X15263362Y-8177112D01*
X15992112Y-12358362D02*
X15992112Y-12246638D01*
X15880388Y-12246638D01*
X15880388Y-12358362D01*
X15992112Y-12358362D01*
X15992112Y-14263362D02*
X15992112Y-14151638D01*
X15880388Y-14151638D01*
X15880388Y-14263362D01*
X15992112Y-14263362D01*
X16468362Y-3785862D02*
X16468362Y-3674138D01*
X16356638Y-3674138D01*
X16356638Y-3785862D01*
X16468362Y-3785862D01*
X16692112Y-12463362D02*
X16692112Y-12351638D01*
X16580388Y-12351638D01*
X16580388Y-12463362D01*
X16692112Y-12463362D01*
X16692112Y-14368362D02*
X16692112Y-14256638D01*
X16580388Y-14256638D01*
X16580388Y-14368362D01*
X16692112Y-14368362D01*
X17168362Y-3890862D02*
X17168362Y-3779138D01*
X17056638Y-3779138D01*
X17056638Y-3890862D01*
X17168362Y-3890862D01*
X17897112Y-14263362D02*
X17897112Y-14151638D01*
X17785388Y-14151638D01*
X17785388Y-14263362D01*
X17897112Y-14263362D01*
X18373362Y-3785862D02*
X18373362Y-3674138D01*
X18261638Y-3674138D01*
X18261638Y-3785862D01*
X18373362Y-3785862D01*
X18373362Y-6167112D02*
X18373362Y-6055388D01*
X18261638Y-6055388D01*
X18261638Y-6167112D01*
X18373362Y-6167112D01*
X18373362Y-8072112D02*
X18373362Y-7960388D01*
X18261638Y-7960388D01*
X18261638Y-8072112D01*
X18373362Y-8072112D01*
X18373362Y-9977112D02*
X18373362Y-9865388D01*
X18261638Y-9865388D01*
X18261638Y-9977112D01*
X18373362Y-9977112D01*
X18373362Y-11882112D02*
X18373362Y-11770388D01*
X18261638Y-11770388D01*
X18261638Y-11882112D01*
X18373362Y-11882112D01*
X18597112Y-14368362D02*
X18597112Y-14256638D01*
X18485388Y-14256638D01*
X18485388Y-14368362D01*
X18597112Y-14368362D01*
X19073362Y-3890862D02*
X19073362Y-3779138D01*
X18961638Y-3779138D01*
X18961638Y-3890862D01*
X19073362Y-3890862D01*
X19073362Y-6272112D02*
X19073362Y-6160388D01*
X18961638Y-6160388D01*
X18961638Y-6272112D01*
X19073362Y-6272112D01*
X19073362Y-8177112D02*
X19073362Y-8065388D01*
X18961638Y-8065388D01*
X18961638Y-8177112D01*
X19073362Y-8177112D01*
X19073362Y-10082112D02*
X19073362Y-9970388D01*
X18961638Y-9970388D01*
X18961638Y-10082112D01*
X19073362Y-10082112D01*
X19073362Y-11987112D02*
X19073362Y-11875388D01*
X18961638Y-11875388D01*
X18961638Y-11987112D01*
X19073362Y-11987112D01*
D12*
X255777Y-15116484D02*
X255777Y-14916484D01*
X255777Y-14916484D02*
X303396Y-14916484D01*
X303396Y-14916484D02*
X331967Y-14926008D01*
X331967Y-14926008D02*
X351015Y-14945055D01*
X351015Y-14945055D02*
X360539Y-14964103D01*
X360539Y-14964103D02*
X370062Y-15002198D01*
X370062Y-15002198D02*
X370062Y-15030769D01*
X370062Y-15030769D02*
X360539Y-15068865D01*
X360539Y-15068865D02*
X351015Y-15087912D01*
X351015Y-15087912D02*
X331967Y-15106960D01*
X331967Y-15106960D02*
X303396Y-15116484D01*
X303396Y-15116484D02*
X255777Y-15116484D01*
X455777Y-15116484D02*
X455777Y-14983150D01*
X455777Y-15021246D02*
X465301Y-15002198D01*
X465301Y-15002198D02*
X474824Y-14992674D01*
X474824Y-14992674D02*
X493872Y-14983150D01*
X493872Y-14983150D02*
X512920Y-14983150D01*
X579586Y-15116484D02*
X579586Y-14983150D01*
X579586Y-14916484D02*
X570063Y-14926008D01*
X570063Y-14926008D02*
X579586Y-14935531D01*
X579586Y-14935531D02*
X589110Y-14926008D01*
X589110Y-14926008D02*
X579586Y-14916484D01*
X579586Y-14916484D02*
X579586Y-14935531D01*
X703396Y-15116484D02*
X684348Y-15106960D01*
X684348Y-15106960D02*
X674824Y-15087912D01*
X674824Y-15087912D02*
X674824Y-14916484D01*
X808158Y-15116484D02*
X789110Y-15106960D01*
X789110Y-15106960D02*
X779586Y-15087912D01*
X779586Y-15087912D02*
X779586Y-14916484D01*
X1036729Y-15116484D02*
X1036729Y-14916484D01*
X1036729Y-14916484D02*
X1103396Y-15059341D01*
X1103396Y-15059341D02*
X1170063Y-14916484D01*
X1170063Y-14916484D02*
X1170063Y-15116484D01*
X1351015Y-15116484D02*
X1351015Y-15011722D01*
X1351015Y-15011722D02*
X1341491Y-14992674D01*
X1341491Y-14992674D02*
X1322444Y-14983150D01*
X1322444Y-14983150D02*
X1284348Y-14983150D01*
X1284348Y-14983150D02*
X1265301Y-14992674D01*
X1351015Y-15106960D02*
X1331967Y-15116484D01*
X1331967Y-15116484D02*
X1284348Y-15116484D01*
X1284348Y-15116484D02*
X1265301Y-15106960D01*
X1265301Y-15106960D02*
X1255777Y-15087912D01*
X1255777Y-15087912D02*
X1255777Y-15068865D01*
X1255777Y-15068865D02*
X1265301Y-15049817D01*
X1265301Y-15049817D02*
X1284348Y-15040293D01*
X1284348Y-15040293D02*
X1331967Y-15040293D01*
X1331967Y-15040293D02*
X1351015Y-15030769D01*
X1446253Y-14983150D02*
X1446253Y-15183150D01*
X1446253Y-14992674D02*
X1465301Y-14983150D01*
X1465301Y-14983150D02*
X1503396Y-14983150D01*
X1503396Y-14983150D02*
X1522443Y-14992674D01*
X1522443Y-14992674D02*
X1531967Y-15002198D01*
X1531967Y-15002198D02*
X1541491Y-15021246D01*
X1541491Y-15021246D02*
X1541491Y-15078388D01*
X1541491Y-15078388D02*
X1531967Y-15097436D01*
X1531967Y-15097436D02*
X1522443Y-15106960D01*
X1522443Y-15106960D02*
X1503396Y-15116484D01*
X1503396Y-15116484D02*
X1465301Y-15116484D01*
X1465301Y-15116484D02*
X1446253Y-15106960D01*
X1627205Y-15097436D02*
X1636729Y-15106960D01*
X1636729Y-15106960D02*
X1627205Y-15116484D01*
X1627205Y-15116484D02*
X1617682Y-15106960D01*
X1617682Y-15106960D02*
X1627205Y-15097436D01*
X1627205Y-15097436D02*
X1627205Y-15116484D01*
X1627205Y-14992674D02*
X1636729Y-15002198D01*
X1636729Y-15002198D02*
X1627205Y-15011722D01*
X1627205Y-15011722D02*
X1617682Y-15002198D01*
X1617682Y-15002198D02*
X1627205Y-14992674D01*
X1627205Y-14992674D02*
X1627205Y-15011722D01*
D10*
X-65000Y-15415000D02*
X-5000Y-15475000D01*
X-5000Y-15415000D02*
X-65000Y-15475000D01*
D12*
X293872Y-15336484D02*
X312920Y-15336484D01*
X312920Y-15336484D02*
X331967Y-15346008D01*
X331967Y-15346008D02*
X341491Y-15355531D01*
X341491Y-15355531D02*
X351015Y-15374579D01*
X351015Y-15374579D02*
X360539Y-15412674D01*
X360539Y-15412674D02*
X360539Y-15460293D01*
X360539Y-15460293D02*
X351015Y-15498388D01*
X351015Y-15498388D02*
X341491Y-15517436D01*
X341491Y-15517436D02*
X331967Y-15526960D01*
X331967Y-15526960D02*
X312920Y-15536484D01*
X312920Y-15536484D02*
X293872Y-15536484D01*
X293872Y-15536484D02*
X274824Y-15526960D01*
X274824Y-15526960D02*
X265301Y-15517436D01*
X265301Y-15517436D02*
X255777Y-15498388D01*
X255777Y-15498388D02*
X246253Y-15460293D01*
X246253Y-15460293D02*
X246253Y-15412674D01*
X246253Y-15412674D02*
X255777Y-15374579D01*
X255777Y-15374579D02*
X265301Y-15355531D01*
X265301Y-15355531D02*
X274824Y-15346008D01*
X274824Y-15346008D02*
X293872Y-15336484D01*
X446253Y-15517436D02*
X455777Y-15526960D01*
X455777Y-15526960D02*
X446253Y-15536484D01*
X446253Y-15536484D02*
X436729Y-15526960D01*
X436729Y-15526960D02*
X446253Y-15517436D01*
X446253Y-15517436D02*
X446253Y-15536484D01*
X627205Y-15336484D02*
X589110Y-15336484D01*
X589110Y-15336484D02*
X570063Y-15346008D01*
X570063Y-15346008D02*
X560539Y-15355531D01*
X560539Y-15355531D02*
X541491Y-15384103D01*
X541491Y-15384103D02*
X531967Y-15422198D01*
X531967Y-15422198D02*
X531967Y-15498388D01*
X531967Y-15498388D02*
X541491Y-15517436D01*
X541491Y-15517436D02*
X551015Y-15526960D01*
X551015Y-15526960D02*
X570063Y-15536484D01*
X570063Y-15536484D02*
X608158Y-15536484D01*
X608158Y-15536484D02*
X627205Y-15526960D01*
X627205Y-15526960D02*
X636729Y-15517436D01*
X636729Y-15517436D02*
X646253Y-15498388D01*
X646253Y-15498388D02*
X646253Y-15450769D01*
X646253Y-15450769D02*
X636729Y-15431722D01*
X636729Y-15431722D02*
X627205Y-15422198D01*
X627205Y-15422198D02*
X608158Y-15412674D01*
X608158Y-15412674D02*
X570063Y-15412674D01*
X570063Y-15412674D02*
X551015Y-15422198D01*
X551015Y-15422198D02*
X541491Y-15431722D01*
X541491Y-15431722D02*
X531967Y-15450769D01*
X770062Y-15336484D02*
X789110Y-15336484D01*
X789110Y-15336484D02*
X808158Y-15346008D01*
X808158Y-15346008D02*
X817682Y-15355531D01*
X817682Y-15355531D02*
X827205Y-15374579D01*
X827205Y-15374579D02*
X836729Y-15412674D01*
X836729Y-15412674D02*
X836729Y-15460293D01*
X836729Y-15460293D02*
X827205Y-15498388D01*
X827205Y-15498388D02*
X817682Y-15517436D01*
X817682Y-15517436D02*
X808158Y-15526960D01*
X808158Y-15526960D02*
X789110Y-15536484D01*
X789110Y-15536484D02*
X770062Y-15536484D01*
X770062Y-15536484D02*
X751015Y-15526960D01*
X751015Y-15526960D02*
X741491Y-15517436D01*
X741491Y-15517436D02*
X731967Y-15498388D01*
X731967Y-15498388D02*
X722443Y-15460293D01*
X722443Y-15460293D02*
X722443Y-15412674D01*
X722443Y-15412674D02*
X731967Y-15374579D01*
X731967Y-15374579D02*
X741491Y-15355531D01*
X741491Y-15355531D02*
X751015Y-15346008D01*
X751015Y-15346008D02*
X770062Y-15336484D01*
X960539Y-15336484D02*
X979586Y-15336484D01*
X979586Y-15336484D02*
X998634Y-15346008D01*
X998634Y-15346008D02*
X1008158Y-15355531D01*
X1008158Y-15355531D02*
X1017682Y-15374579D01*
X1017682Y-15374579D02*
X1027205Y-15412674D01*
X1027205Y-15412674D02*
X1027205Y-15460293D01*
X1027205Y-15460293D02*
X1017682Y-15498388D01*
X1017682Y-15498388D02*
X1008158Y-15517436D01*
X1008158Y-15517436D02*
X998634Y-15526960D01*
X998634Y-15526960D02*
X979586Y-15536484D01*
X979586Y-15536484D02*
X960539Y-15536484D01*
X960539Y-15536484D02*
X941491Y-15526960D01*
X941491Y-15526960D02*
X931967Y-15517436D01*
X931967Y-15517436D02*
X922443Y-15498388D01*
X922443Y-15498388D02*
X912920Y-15460293D01*
X912920Y-15460293D02*
X912920Y-15412674D01*
X912920Y-15412674D02*
X922443Y-15374579D01*
X922443Y-15374579D02*
X931967Y-15355531D01*
X931967Y-15355531D02*
X941491Y-15346008D01*
X941491Y-15346008D02*
X960539Y-15336484D01*
X1112920Y-15536484D02*
X1112920Y-15403150D01*
X1112920Y-15422198D02*
X1122444Y-15412674D01*
X1122444Y-15412674D02*
X1141491Y-15403150D01*
X1141491Y-15403150D02*
X1170063Y-15403150D01*
X1170063Y-15403150D02*
X1189110Y-15412674D01*
X1189110Y-15412674D02*
X1198634Y-15431722D01*
X1198634Y-15431722D02*
X1198634Y-15536484D01*
X1198634Y-15431722D02*
X1208158Y-15412674D01*
X1208158Y-15412674D02*
X1227205Y-15403150D01*
X1227205Y-15403150D02*
X1255777Y-15403150D01*
X1255777Y-15403150D02*
X1274825Y-15412674D01*
X1274825Y-15412674D02*
X1284348Y-15431722D01*
X1284348Y-15431722D02*
X1284348Y-15536484D01*
X1379586Y-15536484D02*
X1379586Y-15403150D01*
X1379586Y-15422198D02*
X1389110Y-15412674D01*
X1389110Y-15412674D02*
X1408158Y-15403150D01*
X1408158Y-15403150D02*
X1436729Y-15403150D01*
X1436729Y-15403150D02*
X1455777Y-15412674D01*
X1455777Y-15412674D02*
X1465301Y-15431722D01*
X1465301Y-15431722D02*
X1465301Y-15536484D01*
X1465301Y-15431722D02*
X1474824Y-15412674D01*
X1474824Y-15412674D02*
X1493872Y-15403150D01*
X1493872Y-15403150D02*
X1522443Y-15403150D01*
X1522443Y-15403150D02*
X1541491Y-15412674D01*
X1541491Y-15412674D02*
X1551015Y-15431722D01*
X1551015Y-15431722D02*
X1551015Y-15536484D01*
X1941491Y-15326960D02*
X1770063Y-15584103D01*
X2198634Y-15336484D02*
X2217682Y-15336484D01*
X2217682Y-15336484D02*
X2236729Y-15346008D01*
X2236729Y-15346008D02*
X2246253Y-15355531D01*
X2246253Y-15355531D02*
X2255777Y-15374579D01*
X2255777Y-15374579D02*
X2265301Y-15412674D01*
X2265301Y-15412674D02*
X2265301Y-15460293D01*
X2265301Y-15460293D02*
X2255777Y-15498388D01*
X2255777Y-15498388D02*
X2246253Y-15517436D01*
X2246253Y-15517436D02*
X2236729Y-15526960D01*
X2236729Y-15526960D02*
X2217682Y-15536484D01*
X2217682Y-15536484D02*
X2198634Y-15536484D01*
X2198634Y-15536484D02*
X2179587Y-15526960D01*
X2179587Y-15526960D02*
X2170063Y-15517436D01*
X2170063Y-15517436D02*
X2160539Y-15498388D01*
X2160539Y-15498388D02*
X2151015Y-15460293D01*
X2151015Y-15460293D02*
X2151015Y-15412674D01*
X2151015Y-15412674D02*
X2160539Y-15374579D01*
X2160539Y-15374579D02*
X2170063Y-15355531D01*
X2170063Y-15355531D02*
X2179587Y-15346008D01*
X2179587Y-15346008D02*
X2198634Y-15336484D01*
X2351015Y-15517436D02*
X2360539Y-15526960D01*
X2360539Y-15526960D02*
X2351015Y-15536484D01*
X2351015Y-15536484D02*
X2341491Y-15526960D01*
X2341491Y-15526960D02*
X2351015Y-15517436D01*
X2351015Y-15517436D02*
X2351015Y-15536484D01*
X2484348Y-15336484D02*
X2503396Y-15336484D01*
X2503396Y-15336484D02*
X2522444Y-15346008D01*
X2522444Y-15346008D02*
X2531968Y-15355531D01*
X2531968Y-15355531D02*
X2541491Y-15374579D01*
X2541491Y-15374579D02*
X2551015Y-15412674D01*
X2551015Y-15412674D02*
X2551015Y-15460293D01*
X2551015Y-15460293D02*
X2541491Y-15498388D01*
X2541491Y-15498388D02*
X2531968Y-15517436D01*
X2531968Y-15517436D02*
X2522444Y-15526960D01*
X2522444Y-15526960D02*
X2503396Y-15536484D01*
X2503396Y-15536484D02*
X2484348Y-15536484D01*
X2484348Y-15536484D02*
X2465301Y-15526960D01*
X2465301Y-15526960D02*
X2455777Y-15517436D01*
X2455777Y-15517436D02*
X2446253Y-15498388D01*
X2446253Y-15498388D02*
X2436729Y-15460293D01*
X2436729Y-15460293D02*
X2436729Y-15412674D01*
X2436729Y-15412674D02*
X2446253Y-15374579D01*
X2446253Y-15374579D02*
X2455777Y-15355531D01*
X2455777Y-15355531D02*
X2465301Y-15346008D01*
X2465301Y-15346008D02*
X2484348Y-15336484D01*
X2627206Y-15355531D02*
X2636729Y-15346008D01*
X2636729Y-15346008D02*
X2655777Y-15336484D01*
X2655777Y-15336484D02*
X2703396Y-15336484D01*
X2703396Y-15336484D02*
X2722444Y-15346008D01*
X2722444Y-15346008D02*
X2731968Y-15355531D01*
X2731968Y-15355531D02*
X2741491Y-15374579D01*
X2741491Y-15374579D02*
X2741491Y-15393627D01*
X2741491Y-15393627D02*
X2731968Y-15422198D01*
X2731968Y-15422198D02*
X2617682Y-15536484D01*
X2617682Y-15536484D02*
X2741491Y-15536484D01*
X2808158Y-15336484D02*
X2931967Y-15336484D01*
X2931967Y-15336484D02*
X2865301Y-15412674D01*
X2865301Y-15412674D02*
X2893872Y-15412674D01*
X2893872Y-15412674D02*
X2912920Y-15422198D01*
X2912920Y-15422198D02*
X2922444Y-15431722D01*
X2922444Y-15431722D02*
X2931967Y-15450769D01*
X2931967Y-15450769D02*
X2931967Y-15498388D01*
X2931967Y-15498388D02*
X2922444Y-15517436D01*
X2922444Y-15517436D02*
X2912920Y-15526960D01*
X2912920Y-15526960D02*
X2893872Y-15536484D01*
X2893872Y-15536484D02*
X2836729Y-15536484D01*
X2836729Y-15536484D02*
X2817682Y-15526960D01*
X2817682Y-15526960D02*
X2808158Y-15517436D01*
X3103396Y-15336484D02*
X3065301Y-15336484D01*
X3065301Y-15336484D02*
X3046253Y-15346008D01*
X3046253Y-15346008D02*
X3036729Y-15355531D01*
X3036729Y-15355531D02*
X3017682Y-15384103D01*
X3017682Y-15384103D02*
X3008158Y-15422198D01*
X3008158Y-15422198D02*
X3008158Y-15498388D01*
X3008158Y-15498388D02*
X3017682Y-15517436D01*
X3017682Y-15517436D02*
X3027206Y-15526960D01*
X3027206Y-15526960D02*
X3046253Y-15536484D01*
X3046253Y-15536484D02*
X3084348Y-15536484D01*
X3084348Y-15536484D02*
X3103396Y-15526960D01*
X3103396Y-15526960D02*
X3112920Y-15517436D01*
X3112920Y-15517436D02*
X3122444Y-15498388D01*
X3122444Y-15498388D02*
X3122444Y-15450769D01*
X3122444Y-15450769D02*
X3112920Y-15431722D01*
X3112920Y-15431722D02*
X3103396Y-15422198D01*
X3103396Y-15422198D02*
X3084348Y-15412674D01*
X3084348Y-15412674D02*
X3046253Y-15412674D01*
X3046253Y-15412674D02*
X3027206Y-15422198D01*
X3027206Y-15422198D02*
X3017682Y-15431722D01*
X3017682Y-15431722D02*
X3008158Y-15450769D01*
X3198634Y-15336484D02*
X3198634Y-15374579D01*
X3274825Y-15336484D02*
X3274825Y-15374579D01*
X3570063Y-15612674D02*
X3560539Y-15603150D01*
X3560539Y-15603150D02*
X3541491Y-15574579D01*
X3541491Y-15574579D02*
X3531968Y-15555531D01*
X3531968Y-15555531D02*
X3522444Y-15526960D01*
X3522444Y-15526960D02*
X3512920Y-15479341D01*
X3512920Y-15479341D02*
X3512920Y-15441246D01*
X3512920Y-15441246D02*
X3522444Y-15393627D01*
X3522444Y-15393627D02*
X3531968Y-15365055D01*
X3531968Y-15365055D02*
X3541491Y-15346008D01*
X3541491Y-15346008D02*
X3560539Y-15317436D01*
X3560539Y-15317436D02*
X3570063Y-15307912D01*
X3751015Y-15536484D02*
X3636729Y-15536484D01*
X3693872Y-15536484D02*
X3693872Y-15336484D01*
X3693872Y-15336484D02*
X3674825Y-15365055D01*
X3674825Y-15365055D02*
X3655777Y-15384103D01*
X3655777Y-15384103D02*
X3636729Y-15393627D01*
X3989110Y-15536484D02*
X3989110Y-15336484D01*
X4074825Y-15536484D02*
X4074825Y-15431722D01*
X4074825Y-15431722D02*
X4065301Y-15412674D01*
X4065301Y-15412674D02*
X4046253Y-15403150D01*
X4046253Y-15403150D02*
X4017682Y-15403150D01*
X4017682Y-15403150D02*
X3998634Y-15412674D01*
X3998634Y-15412674D02*
X3989110Y-15422198D01*
X4198634Y-15536484D02*
X4179587Y-15526960D01*
X4179587Y-15526960D02*
X4170063Y-15517436D01*
X4170063Y-15517436D02*
X4160539Y-15498388D01*
X4160539Y-15498388D02*
X4160539Y-15441246D01*
X4160539Y-15441246D02*
X4170063Y-15422198D01*
X4170063Y-15422198D02*
X4179587Y-15412674D01*
X4179587Y-15412674D02*
X4198634Y-15403150D01*
X4198634Y-15403150D02*
X4227206Y-15403150D01*
X4227206Y-15403150D02*
X4246253Y-15412674D01*
X4246253Y-15412674D02*
X4255777Y-15422198D01*
X4255777Y-15422198D02*
X4265301Y-15441246D01*
X4265301Y-15441246D02*
X4265301Y-15498388D01*
X4265301Y-15498388D02*
X4255777Y-15517436D01*
X4255777Y-15517436D02*
X4246253Y-15526960D01*
X4246253Y-15526960D02*
X4227206Y-15536484D01*
X4227206Y-15536484D02*
X4198634Y-15536484D01*
X4379587Y-15536484D02*
X4360539Y-15526960D01*
X4360539Y-15526960D02*
X4351015Y-15507912D01*
X4351015Y-15507912D02*
X4351015Y-15336484D01*
X4531968Y-15526960D02*
X4512920Y-15536484D01*
X4512920Y-15536484D02*
X4474825Y-15536484D01*
X4474825Y-15536484D02*
X4455777Y-15526960D01*
X4455777Y-15526960D02*
X4446253Y-15507912D01*
X4446253Y-15507912D02*
X4446253Y-15431722D01*
X4446253Y-15431722D02*
X4455777Y-15412674D01*
X4455777Y-15412674D02*
X4474825Y-15403150D01*
X4474825Y-15403150D02*
X4512920Y-15403150D01*
X4512920Y-15403150D02*
X4531968Y-15412674D01*
X4531968Y-15412674D02*
X4541492Y-15431722D01*
X4541492Y-15431722D02*
X4541492Y-15450769D01*
X4541492Y-15450769D02*
X4446253Y-15469817D01*
X4608158Y-15612674D02*
X4617682Y-15603150D01*
X4617682Y-15603150D02*
X4636730Y-15574579D01*
X4636730Y-15574579D02*
X4646253Y-15555531D01*
X4646253Y-15555531D02*
X4655777Y-15526960D01*
X4655777Y-15526960D02*
X4665301Y-15479341D01*
X4665301Y-15479341D02*
X4665301Y-15441246D01*
X4665301Y-15441246D02*
X4655777Y-15393627D01*
X4655777Y-15393627D02*
X4646253Y-15365055D01*
X4646253Y-15365055D02*
X4636730Y-15346008D01*
X4636730Y-15346008D02*
X4617682Y-15317436D01*
X4617682Y-15317436D02*
X4608158Y-15307912D01*
D10*
X-5000Y-15709000D02*
G75*
G02*
X-85000Y-15709000I-40000J0D01*
G01*
X-85000Y-15709000D02*
G75*
G02*
X-5000Y-15709000I40000J0D01*
G01*
D12*
X293872Y-15600484D02*
X312920Y-15600484D01*
X312920Y-15600484D02*
X331967Y-15610008D01*
X331967Y-15610008D02*
X341491Y-15619531D01*
X341491Y-15619531D02*
X351015Y-15638579D01*
X351015Y-15638579D02*
X360539Y-15676674D01*
X360539Y-15676674D02*
X360539Y-15724293D01*
X360539Y-15724293D02*
X351015Y-15762388D01*
X351015Y-15762388D02*
X341491Y-15781436D01*
X341491Y-15781436D02*
X331967Y-15790960D01*
X331967Y-15790960D02*
X312920Y-15800484D01*
X312920Y-15800484D02*
X293872Y-15800484D01*
X293872Y-15800484D02*
X274824Y-15790960D01*
X274824Y-15790960D02*
X265301Y-15781436D01*
X265301Y-15781436D02*
X255777Y-15762388D01*
X255777Y-15762388D02*
X246253Y-15724293D01*
X246253Y-15724293D02*
X246253Y-15676674D01*
X246253Y-15676674D02*
X255777Y-15638579D01*
X255777Y-15638579D02*
X265301Y-15619531D01*
X265301Y-15619531D02*
X274824Y-15610008D01*
X274824Y-15610008D02*
X293872Y-15600484D01*
X446253Y-15781436D02*
X455777Y-15790960D01*
X455777Y-15790960D02*
X446253Y-15800484D01*
X446253Y-15800484D02*
X436729Y-15790960D01*
X436729Y-15790960D02*
X446253Y-15781436D01*
X446253Y-15781436D02*
X446253Y-15800484D01*
X570063Y-15686198D02*
X551015Y-15676674D01*
X551015Y-15676674D02*
X541491Y-15667150D01*
X541491Y-15667150D02*
X531967Y-15648103D01*
X531967Y-15648103D02*
X531967Y-15638579D01*
X531967Y-15638579D02*
X541491Y-15619531D01*
X541491Y-15619531D02*
X551015Y-15610008D01*
X551015Y-15610008D02*
X570063Y-15600484D01*
X570063Y-15600484D02*
X608158Y-15600484D01*
X608158Y-15600484D02*
X627205Y-15610008D01*
X627205Y-15610008D02*
X636729Y-15619531D01*
X636729Y-15619531D02*
X646253Y-15638579D01*
X646253Y-15638579D02*
X646253Y-15648103D01*
X646253Y-15648103D02*
X636729Y-15667150D01*
X636729Y-15667150D02*
X627205Y-15676674D01*
X627205Y-15676674D02*
X608158Y-15686198D01*
X608158Y-15686198D02*
X570063Y-15686198D01*
X570063Y-15686198D02*
X551015Y-15695722D01*
X551015Y-15695722D02*
X541491Y-15705246D01*
X541491Y-15705246D02*
X531967Y-15724293D01*
X531967Y-15724293D02*
X531967Y-15762388D01*
X531967Y-15762388D02*
X541491Y-15781436D01*
X541491Y-15781436D02*
X551015Y-15790960D01*
X551015Y-15790960D02*
X570063Y-15800484D01*
X570063Y-15800484D02*
X608158Y-15800484D01*
X608158Y-15800484D02*
X627205Y-15790960D01*
X627205Y-15790960D02*
X636729Y-15781436D01*
X636729Y-15781436D02*
X646253Y-15762388D01*
X646253Y-15762388D02*
X646253Y-15724293D01*
X646253Y-15724293D02*
X636729Y-15705246D01*
X636729Y-15705246D02*
X627205Y-15695722D01*
X627205Y-15695722D02*
X608158Y-15686198D01*
X770062Y-15600484D02*
X789110Y-15600484D01*
X789110Y-15600484D02*
X808158Y-15610008D01*
X808158Y-15610008D02*
X817682Y-15619531D01*
X817682Y-15619531D02*
X827205Y-15638579D01*
X827205Y-15638579D02*
X836729Y-15676674D01*
X836729Y-15676674D02*
X836729Y-15724293D01*
X836729Y-15724293D02*
X827205Y-15762388D01*
X827205Y-15762388D02*
X817682Y-15781436D01*
X817682Y-15781436D02*
X808158Y-15790960D01*
X808158Y-15790960D02*
X789110Y-15800484D01*
X789110Y-15800484D02*
X770062Y-15800484D01*
X770062Y-15800484D02*
X751015Y-15790960D01*
X751015Y-15790960D02*
X741491Y-15781436D01*
X741491Y-15781436D02*
X731967Y-15762388D01*
X731967Y-15762388D02*
X722443Y-15724293D01*
X722443Y-15724293D02*
X722443Y-15676674D01*
X722443Y-15676674D02*
X731967Y-15638579D01*
X731967Y-15638579D02*
X741491Y-15619531D01*
X741491Y-15619531D02*
X751015Y-15610008D01*
X751015Y-15610008D02*
X770062Y-15600484D01*
X960539Y-15600484D02*
X979586Y-15600484D01*
X979586Y-15600484D02*
X998634Y-15610008D01*
X998634Y-15610008D02*
X1008158Y-15619531D01*
X1008158Y-15619531D02*
X1017682Y-15638579D01*
X1017682Y-15638579D02*
X1027205Y-15676674D01*
X1027205Y-15676674D02*
X1027205Y-15724293D01*
X1027205Y-15724293D02*
X1017682Y-15762388D01*
X1017682Y-15762388D02*
X1008158Y-15781436D01*
X1008158Y-15781436D02*
X998634Y-15790960D01*
X998634Y-15790960D02*
X979586Y-15800484D01*
X979586Y-15800484D02*
X960539Y-15800484D01*
X960539Y-15800484D02*
X941491Y-15790960D01*
X941491Y-15790960D02*
X931967Y-15781436D01*
X931967Y-15781436D02*
X922443Y-15762388D01*
X922443Y-15762388D02*
X912920Y-15724293D01*
X912920Y-15724293D02*
X912920Y-15676674D01*
X912920Y-15676674D02*
X922443Y-15638579D01*
X922443Y-15638579D02*
X931967Y-15619531D01*
X931967Y-15619531D02*
X941491Y-15610008D01*
X941491Y-15610008D02*
X960539Y-15600484D01*
X1112920Y-15800484D02*
X1112920Y-15667150D01*
X1112920Y-15686198D02*
X1122444Y-15676674D01*
X1122444Y-15676674D02*
X1141491Y-15667150D01*
X1141491Y-15667150D02*
X1170063Y-15667150D01*
X1170063Y-15667150D02*
X1189110Y-15676674D01*
X1189110Y-15676674D02*
X1198634Y-15695722D01*
X1198634Y-15695722D02*
X1198634Y-15800484D01*
X1198634Y-15695722D02*
X1208158Y-15676674D01*
X1208158Y-15676674D02*
X1227205Y-15667150D01*
X1227205Y-15667150D02*
X1255777Y-15667150D01*
X1255777Y-15667150D02*
X1274825Y-15676674D01*
X1274825Y-15676674D02*
X1284348Y-15695722D01*
X1284348Y-15695722D02*
X1284348Y-15800484D01*
X1379586Y-15800484D02*
X1379586Y-15667150D01*
X1379586Y-15686198D02*
X1389110Y-15676674D01*
X1389110Y-15676674D02*
X1408158Y-15667150D01*
X1408158Y-15667150D02*
X1436729Y-15667150D01*
X1436729Y-15667150D02*
X1455777Y-15676674D01*
X1455777Y-15676674D02*
X1465301Y-15695722D01*
X1465301Y-15695722D02*
X1465301Y-15800484D01*
X1465301Y-15695722D02*
X1474824Y-15676674D01*
X1474824Y-15676674D02*
X1493872Y-15667150D01*
X1493872Y-15667150D02*
X1522443Y-15667150D01*
X1522443Y-15667150D02*
X1541491Y-15676674D01*
X1541491Y-15676674D02*
X1551015Y-15695722D01*
X1551015Y-15695722D02*
X1551015Y-15800484D01*
X1941491Y-15590960D02*
X1770063Y-15848103D01*
X2198634Y-15600484D02*
X2217682Y-15600484D01*
X2217682Y-15600484D02*
X2236729Y-15610008D01*
X2236729Y-15610008D02*
X2246253Y-15619531D01*
X2246253Y-15619531D02*
X2255777Y-15638579D01*
X2255777Y-15638579D02*
X2265301Y-15676674D01*
X2265301Y-15676674D02*
X2265301Y-15724293D01*
X2265301Y-15724293D02*
X2255777Y-15762388D01*
X2255777Y-15762388D02*
X2246253Y-15781436D01*
X2246253Y-15781436D02*
X2236729Y-15790960D01*
X2236729Y-15790960D02*
X2217682Y-15800484D01*
X2217682Y-15800484D02*
X2198634Y-15800484D01*
X2198634Y-15800484D02*
X2179587Y-15790960D01*
X2179587Y-15790960D02*
X2170063Y-15781436D01*
X2170063Y-15781436D02*
X2160539Y-15762388D01*
X2160539Y-15762388D02*
X2151015Y-15724293D01*
X2151015Y-15724293D02*
X2151015Y-15676674D01*
X2151015Y-15676674D02*
X2160539Y-15638579D01*
X2160539Y-15638579D02*
X2170063Y-15619531D01*
X2170063Y-15619531D02*
X2179587Y-15610008D01*
X2179587Y-15610008D02*
X2198634Y-15600484D01*
X2351015Y-15781436D02*
X2360539Y-15790960D01*
X2360539Y-15790960D02*
X2351015Y-15800484D01*
X2351015Y-15800484D02*
X2341491Y-15790960D01*
X2341491Y-15790960D02*
X2351015Y-15781436D01*
X2351015Y-15781436D02*
X2351015Y-15800484D01*
X2484348Y-15600484D02*
X2503396Y-15600484D01*
X2503396Y-15600484D02*
X2522444Y-15610008D01*
X2522444Y-15610008D02*
X2531968Y-15619531D01*
X2531968Y-15619531D02*
X2541491Y-15638579D01*
X2541491Y-15638579D02*
X2551015Y-15676674D01*
X2551015Y-15676674D02*
X2551015Y-15724293D01*
X2551015Y-15724293D02*
X2541491Y-15762388D01*
X2541491Y-15762388D02*
X2531968Y-15781436D01*
X2531968Y-15781436D02*
X2522444Y-15790960D01*
X2522444Y-15790960D02*
X2503396Y-15800484D01*
X2503396Y-15800484D02*
X2484348Y-15800484D01*
X2484348Y-15800484D02*
X2465301Y-15790960D01*
X2465301Y-15790960D02*
X2455777Y-15781436D01*
X2455777Y-15781436D02*
X2446253Y-15762388D01*
X2446253Y-15762388D02*
X2436729Y-15724293D01*
X2436729Y-15724293D02*
X2436729Y-15676674D01*
X2436729Y-15676674D02*
X2446253Y-15638579D01*
X2446253Y-15638579D02*
X2455777Y-15619531D01*
X2455777Y-15619531D02*
X2465301Y-15610008D01*
X2465301Y-15610008D02*
X2484348Y-15600484D01*
X2617682Y-15600484D02*
X2741491Y-15600484D01*
X2741491Y-15600484D02*
X2674825Y-15676674D01*
X2674825Y-15676674D02*
X2703396Y-15676674D01*
X2703396Y-15676674D02*
X2722444Y-15686198D01*
X2722444Y-15686198D02*
X2731968Y-15695722D01*
X2731968Y-15695722D02*
X2741491Y-15714769D01*
X2741491Y-15714769D02*
X2741491Y-15762388D01*
X2741491Y-15762388D02*
X2731968Y-15781436D01*
X2731968Y-15781436D02*
X2722444Y-15790960D01*
X2722444Y-15790960D02*
X2703396Y-15800484D01*
X2703396Y-15800484D02*
X2646253Y-15800484D01*
X2646253Y-15800484D02*
X2627206Y-15790960D01*
X2627206Y-15790960D02*
X2617682Y-15781436D01*
X2931967Y-15800484D02*
X2817682Y-15800484D01*
X2874825Y-15800484D02*
X2874825Y-15600484D01*
X2874825Y-15600484D02*
X2855777Y-15629055D01*
X2855777Y-15629055D02*
X2836729Y-15648103D01*
X2836729Y-15648103D02*
X2817682Y-15657627D01*
X3112920Y-15600484D02*
X3017682Y-15600484D01*
X3017682Y-15600484D02*
X3008158Y-15695722D01*
X3008158Y-15695722D02*
X3017682Y-15686198D01*
X3017682Y-15686198D02*
X3036729Y-15676674D01*
X3036729Y-15676674D02*
X3084348Y-15676674D01*
X3084348Y-15676674D02*
X3103396Y-15686198D01*
X3103396Y-15686198D02*
X3112920Y-15695722D01*
X3112920Y-15695722D02*
X3122444Y-15714769D01*
X3122444Y-15714769D02*
X3122444Y-15762388D01*
X3122444Y-15762388D02*
X3112920Y-15781436D01*
X3112920Y-15781436D02*
X3103396Y-15790960D01*
X3103396Y-15790960D02*
X3084348Y-15800484D01*
X3084348Y-15800484D02*
X3036729Y-15800484D01*
X3036729Y-15800484D02*
X3017682Y-15790960D01*
X3017682Y-15790960D02*
X3008158Y-15781436D01*
X3198634Y-15600484D02*
X3198634Y-15638579D01*
X3274825Y-15600484D02*
X3274825Y-15638579D01*
X3570063Y-15876674D02*
X3560539Y-15867150D01*
X3560539Y-15867150D02*
X3541491Y-15838579D01*
X3541491Y-15838579D02*
X3531968Y-15819531D01*
X3531968Y-15819531D02*
X3522444Y-15790960D01*
X3522444Y-15790960D02*
X3512920Y-15743341D01*
X3512920Y-15743341D02*
X3512920Y-15705246D01*
X3512920Y-15705246D02*
X3522444Y-15657627D01*
X3522444Y-15657627D02*
X3531968Y-15629055D01*
X3531968Y-15629055D02*
X3541491Y-15610008D01*
X3541491Y-15610008D02*
X3560539Y-15581436D01*
X3560539Y-15581436D02*
X3570063Y-15571912D01*
X3655777Y-15800484D02*
X3693872Y-15800484D01*
X3693872Y-15800484D02*
X3712920Y-15790960D01*
X3712920Y-15790960D02*
X3722444Y-15781436D01*
X3722444Y-15781436D02*
X3741491Y-15752865D01*
X3741491Y-15752865D02*
X3751015Y-15714769D01*
X3751015Y-15714769D02*
X3751015Y-15638579D01*
X3751015Y-15638579D02*
X3741491Y-15619531D01*
X3741491Y-15619531D02*
X3731968Y-15610008D01*
X3731968Y-15610008D02*
X3712920Y-15600484D01*
X3712920Y-15600484D02*
X3674825Y-15600484D01*
X3674825Y-15600484D02*
X3655777Y-15610008D01*
X3655777Y-15610008D02*
X3646253Y-15619531D01*
X3646253Y-15619531D02*
X3636729Y-15638579D01*
X3636729Y-15638579D02*
X3636729Y-15686198D01*
X3636729Y-15686198D02*
X3646253Y-15705246D01*
X3646253Y-15705246D02*
X3655777Y-15714769D01*
X3655777Y-15714769D02*
X3674825Y-15724293D01*
X3674825Y-15724293D02*
X3712920Y-15724293D01*
X3712920Y-15724293D02*
X3731968Y-15714769D01*
X3731968Y-15714769D02*
X3741491Y-15705246D01*
X3741491Y-15705246D02*
X3751015Y-15686198D01*
X3865301Y-15686198D02*
X3846253Y-15676674D01*
X3846253Y-15676674D02*
X3836729Y-15667150D01*
X3836729Y-15667150D02*
X3827206Y-15648103D01*
X3827206Y-15648103D02*
X3827206Y-15638579D01*
X3827206Y-15638579D02*
X3836729Y-15619531D01*
X3836729Y-15619531D02*
X3846253Y-15610008D01*
X3846253Y-15610008D02*
X3865301Y-15600484D01*
X3865301Y-15600484D02*
X3903396Y-15600484D01*
X3903396Y-15600484D02*
X3922444Y-15610008D01*
X3922444Y-15610008D02*
X3931968Y-15619531D01*
X3931968Y-15619531D02*
X3941491Y-15638579D01*
X3941491Y-15638579D02*
X3941491Y-15648103D01*
X3941491Y-15648103D02*
X3931968Y-15667150D01*
X3931968Y-15667150D02*
X3922444Y-15676674D01*
X3922444Y-15676674D02*
X3903396Y-15686198D01*
X3903396Y-15686198D02*
X3865301Y-15686198D01*
X3865301Y-15686198D02*
X3846253Y-15695722D01*
X3846253Y-15695722D02*
X3836729Y-15705246D01*
X3836729Y-15705246D02*
X3827206Y-15724293D01*
X3827206Y-15724293D02*
X3827206Y-15762388D01*
X3827206Y-15762388D02*
X3836729Y-15781436D01*
X3836729Y-15781436D02*
X3846253Y-15790960D01*
X3846253Y-15790960D02*
X3865301Y-15800484D01*
X3865301Y-15800484D02*
X3903396Y-15800484D01*
X3903396Y-15800484D02*
X3922444Y-15790960D01*
X3922444Y-15790960D02*
X3931968Y-15781436D01*
X3931968Y-15781436D02*
X3941491Y-15762388D01*
X3941491Y-15762388D02*
X3941491Y-15724293D01*
X3941491Y-15724293D02*
X3931968Y-15705246D01*
X3931968Y-15705246D02*
X3922444Y-15695722D01*
X3922444Y-15695722D02*
X3903396Y-15686198D01*
X4179587Y-15800484D02*
X4179587Y-15600484D01*
X4265301Y-15800484D02*
X4265301Y-15695722D01*
X4265301Y-15695722D02*
X4255777Y-15676674D01*
X4255777Y-15676674D02*
X4236730Y-15667150D01*
X4236730Y-15667150D02*
X4208158Y-15667150D01*
X4208158Y-15667150D02*
X4189110Y-15676674D01*
X4189110Y-15676674D02*
X4179587Y-15686198D01*
X4389111Y-15800484D02*
X4370063Y-15790960D01*
X4370063Y-15790960D02*
X4360539Y-15781436D01*
X4360539Y-15781436D02*
X4351015Y-15762388D01*
X4351015Y-15762388D02*
X4351015Y-15705246D01*
X4351015Y-15705246D02*
X4360539Y-15686198D01*
X4360539Y-15686198D02*
X4370063Y-15676674D01*
X4370063Y-15676674D02*
X4389111Y-15667150D01*
X4389111Y-15667150D02*
X4417682Y-15667150D01*
X4417682Y-15667150D02*
X4436730Y-15676674D01*
X4436730Y-15676674D02*
X4446253Y-15686198D01*
X4446253Y-15686198D02*
X4455777Y-15705246D01*
X4455777Y-15705246D02*
X4455777Y-15762388D01*
X4455777Y-15762388D02*
X4446253Y-15781436D01*
X4446253Y-15781436D02*
X4436730Y-15790960D01*
X4436730Y-15790960D02*
X4417682Y-15800484D01*
X4417682Y-15800484D02*
X4389111Y-15800484D01*
X4570063Y-15800484D02*
X4551015Y-15790960D01*
X4551015Y-15790960D02*
X4541492Y-15771912D01*
X4541492Y-15771912D02*
X4541492Y-15600484D01*
X4722444Y-15790960D02*
X4703396Y-15800484D01*
X4703396Y-15800484D02*
X4665301Y-15800484D01*
X4665301Y-15800484D02*
X4646253Y-15790960D01*
X4646253Y-15790960D02*
X4636730Y-15771912D01*
X4636730Y-15771912D02*
X4636730Y-15695722D01*
X4636730Y-15695722D02*
X4646253Y-15676674D01*
X4646253Y-15676674D02*
X4665301Y-15667150D01*
X4665301Y-15667150D02*
X4703396Y-15667150D01*
X4703396Y-15667150D02*
X4722444Y-15676674D01*
X4722444Y-15676674D02*
X4731968Y-15695722D01*
X4731968Y-15695722D02*
X4731968Y-15714769D01*
X4731968Y-15714769D02*
X4636730Y-15733817D01*
X4808158Y-15790960D02*
X4827206Y-15800484D01*
X4827206Y-15800484D02*
X4865301Y-15800484D01*
X4865301Y-15800484D02*
X4884349Y-15790960D01*
X4884349Y-15790960D02*
X4893873Y-15771912D01*
X4893873Y-15771912D02*
X4893873Y-15762388D01*
X4893873Y-15762388D02*
X4884349Y-15743341D01*
X4884349Y-15743341D02*
X4865301Y-15733817D01*
X4865301Y-15733817D02*
X4836730Y-15733817D01*
X4836730Y-15733817D02*
X4817682Y-15724293D01*
X4817682Y-15724293D02*
X4808158Y-15705246D01*
X4808158Y-15705246D02*
X4808158Y-15695722D01*
X4808158Y-15695722D02*
X4817682Y-15676674D01*
X4817682Y-15676674D02*
X4836730Y-15667150D01*
X4836730Y-15667150D02*
X4865301Y-15667150D01*
X4865301Y-15667150D02*
X4884349Y-15676674D01*
X4960539Y-15876674D02*
X4970063Y-15867150D01*
X4970063Y-15867150D02*
X4989111Y-15838579D01*
X4989111Y-15838579D02*
X4998634Y-15819531D01*
X4998634Y-15819531D02*
X5008158Y-15790960D01*
X5008158Y-15790960D02*
X5017682Y-15743341D01*
X5017682Y-15743341D02*
X5017682Y-15705246D01*
X5017682Y-15705246D02*
X5008158Y-15657627D01*
X5008158Y-15657627D02*
X4998634Y-15629055D01*
X4998634Y-15629055D02*
X4989111Y-15610008D01*
X4989111Y-15610008D02*
X4970063Y-15581436D01*
X4970063Y-15581436D02*
X4960539Y-15571912D01*
D13*
X-56000Y-15922000D02*
X-56000Y-16024000D01*
X-107000Y-15973000D02*
X-5000Y-15973000D01*
D12*
X360539Y-16064484D02*
X246253Y-16064484D01*
X303396Y-16064484D02*
X303396Y-15864484D01*
X303396Y-15864484D02*
X284348Y-15893055D01*
X284348Y-15893055D02*
X265301Y-15912103D01*
X265301Y-15912103D02*
X246253Y-15921627D01*
X446253Y-16045436D02*
X455777Y-16054960D01*
X455777Y-16054960D02*
X446253Y-16064484D01*
X446253Y-16064484D02*
X436729Y-16054960D01*
X436729Y-16054960D02*
X446253Y-16045436D01*
X446253Y-16045436D02*
X446253Y-16064484D01*
X579586Y-15864484D02*
X598634Y-15864484D01*
X598634Y-15864484D02*
X617682Y-15874008D01*
X617682Y-15874008D02*
X627205Y-15883531D01*
X627205Y-15883531D02*
X636729Y-15902579D01*
X636729Y-15902579D02*
X646253Y-15940674D01*
X646253Y-15940674D02*
X646253Y-15988293D01*
X646253Y-15988293D02*
X636729Y-16026388D01*
X636729Y-16026388D02*
X627205Y-16045436D01*
X627205Y-16045436D02*
X617682Y-16054960D01*
X617682Y-16054960D02*
X598634Y-16064484D01*
X598634Y-16064484D02*
X579586Y-16064484D01*
X579586Y-16064484D02*
X560539Y-16054960D01*
X560539Y-16054960D02*
X551015Y-16045436D01*
X551015Y-16045436D02*
X541491Y-16026388D01*
X541491Y-16026388D02*
X531967Y-15988293D01*
X531967Y-15988293D02*
X531967Y-15940674D01*
X531967Y-15940674D02*
X541491Y-15902579D01*
X541491Y-15902579D02*
X551015Y-15883531D01*
X551015Y-15883531D02*
X560539Y-15874008D01*
X560539Y-15874008D02*
X579586Y-15864484D01*
X722443Y-15883531D02*
X731967Y-15874008D01*
X731967Y-15874008D02*
X751015Y-15864484D01*
X751015Y-15864484D02*
X798634Y-15864484D01*
X798634Y-15864484D02*
X817682Y-15874008D01*
X817682Y-15874008D02*
X827205Y-15883531D01*
X827205Y-15883531D02*
X836729Y-15902579D01*
X836729Y-15902579D02*
X836729Y-15921627D01*
X836729Y-15921627D02*
X827205Y-15950198D01*
X827205Y-15950198D02*
X712920Y-16064484D01*
X712920Y-16064484D02*
X836729Y-16064484D01*
X960539Y-15864484D02*
X979586Y-15864484D01*
X979586Y-15864484D02*
X998634Y-15874008D01*
X998634Y-15874008D02*
X1008158Y-15883531D01*
X1008158Y-15883531D02*
X1017682Y-15902579D01*
X1017682Y-15902579D02*
X1027205Y-15940674D01*
X1027205Y-15940674D02*
X1027205Y-15988293D01*
X1027205Y-15988293D02*
X1017682Y-16026388D01*
X1017682Y-16026388D02*
X1008158Y-16045436D01*
X1008158Y-16045436D02*
X998634Y-16054960D01*
X998634Y-16054960D02*
X979586Y-16064484D01*
X979586Y-16064484D02*
X960539Y-16064484D01*
X960539Y-16064484D02*
X941491Y-16054960D01*
X941491Y-16054960D02*
X931967Y-16045436D01*
X931967Y-16045436D02*
X922443Y-16026388D01*
X922443Y-16026388D02*
X912920Y-15988293D01*
X912920Y-15988293D02*
X912920Y-15940674D01*
X912920Y-15940674D02*
X922443Y-15902579D01*
X922443Y-15902579D02*
X931967Y-15883531D01*
X931967Y-15883531D02*
X941491Y-15874008D01*
X941491Y-15874008D02*
X960539Y-15864484D01*
X1112920Y-16064484D02*
X1112920Y-15931150D01*
X1112920Y-15950198D02*
X1122444Y-15940674D01*
X1122444Y-15940674D02*
X1141491Y-15931150D01*
X1141491Y-15931150D02*
X1170063Y-15931150D01*
X1170063Y-15931150D02*
X1189110Y-15940674D01*
X1189110Y-15940674D02*
X1198634Y-15959722D01*
X1198634Y-15959722D02*
X1198634Y-16064484D01*
X1198634Y-15959722D02*
X1208158Y-15940674D01*
X1208158Y-15940674D02*
X1227205Y-15931150D01*
X1227205Y-15931150D02*
X1255777Y-15931150D01*
X1255777Y-15931150D02*
X1274825Y-15940674D01*
X1274825Y-15940674D02*
X1284348Y-15959722D01*
X1284348Y-15959722D02*
X1284348Y-16064484D01*
X1379586Y-16064484D02*
X1379586Y-15931150D01*
X1379586Y-15950198D02*
X1389110Y-15940674D01*
X1389110Y-15940674D02*
X1408158Y-15931150D01*
X1408158Y-15931150D02*
X1436729Y-15931150D01*
X1436729Y-15931150D02*
X1455777Y-15940674D01*
X1455777Y-15940674D02*
X1465301Y-15959722D01*
X1465301Y-15959722D02*
X1465301Y-16064484D01*
X1465301Y-15959722D02*
X1474824Y-15940674D01*
X1474824Y-15940674D02*
X1493872Y-15931150D01*
X1493872Y-15931150D02*
X1522443Y-15931150D01*
X1522443Y-15931150D02*
X1541491Y-15940674D01*
X1541491Y-15940674D02*
X1551015Y-15959722D01*
X1551015Y-15959722D02*
X1551015Y-16064484D01*
X1941491Y-15854960D02*
X1770063Y-16112103D01*
X2198634Y-15864484D02*
X2217682Y-15864484D01*
X2217682Y-15864484D02*
X2236729Y-15874008D01*
X2236729Y-15874008D02*
X2246253Y-15883531D01*
X2246253Y-15883531D02*
X2255777Y-15902579D01*
X2255777Y-15902579D02*
X2265301Y-15940674D01*
X2265301Y-15940674D02*
X2265301Y-15988293D01*
X2265301Y-15988293D02*
X2255777Y-16026388D01*
X2255777Y-16026388D02*
X2246253Y-16045436D01*
X2246253Y-16045436D02*
X2236729Y-16054960D01*
X2236729Y-16054960D02*
X2217682Y-16064484D01*
X2217682Y-16064484D02*
X2198634Y-16064484D01*
X2198634Y-16064484D02*
X2179587Y-16054960D01*
X2179587Y-16054960D02*
X2170063Y-16045436D01*
X2170063Y-16045436D02*
X2160539Y-16026388D01*
X2160539Y-16026388D02*
X2151015Y-15988293D01*
X2151015Y-15988293D02*
X2151015Y-15940674D01*
X2151015Y-15940674D02*
X2160539Y-15902579D01*
X2160539Y-15902579D02*
X2170063Y-15883531D01*
X2170063Y-15883531D02*
X2179587Y-15874008D01*
X2179587Y-15874008D02*
X2198634Y-15864484D01*
X2351015Y-16045436D02*
X2360539Y-16054960D01*
X2360539Y-16054960D02*
X2351015Y-16064484D01*
X2351015Y-16064484D02*
X2341491Y-16054960D01*
X2341491Y-16054960D02*
X2351015Y-16045436D01*
X2351015Y-16045436D02*
X2351015Y-16064484D01*
X2484348Y-15864484D02*
X2503396Y-15864484D01*
X2503396Y-15864484D02*
X2522444Y-15874008D01*
X2522444Y-15874008D02*
X2531968Y-15883531D01*
X2531968Y-15883531D02*
X2541491Y-15902579D01*
X2541491Y-15902579D02*
X2551015Y-15940674D01*
X2551015Y-15940674D02*
X2551015Y-15988293D01*
X2551015Y-15988293D02*
X2541491Y-16026388D01*
X2541491Y-16026388D02*
X2531968Y-16045436D01*
X2531968Y-16045436D02*
X2522444Y-16054960D01*
X2522444Y-16054960D02*
X2503396Y-16064484D01*
X2503396Y-16064484D02*
X2484348Y-16064484D01*
X2484348Y-16064484D02*
X2465301Y-16054960D01*
X2465301Y-16054960D02*
X2455777Y-16045436D01*
X2455777Y-16045436D02*
X2446253Y-16026388D01*
X2446253Y-16026388D02*
X2436729Y-15988293D01*
X2436729Y-15988293D02*
X2436729Y-15940674D01*
X2436729Y-15940674D02*
X2446253Y-15902579D01*
X2446253Y-15902579D02*
X2455777Y-15883531D01*
X2455777Y-15883531D02*
X2465301Y-15874008D01*
X2465301Y-15874008D02*
X2484348Y-15864484D01*
X2722444Y-15931150D02*
X2722444Y-16064484D01*
X2674825Y-15854960D02*
X2627206Y-15997817D01*
X2627206Y-15997817D02*
X2751015Y-15997817D01*
X2865301Y-15864484D02*
X2884348Y-15864484D01*
X2884348Y-15864484D02*
X2903396Y-15874008D01*
X2903396Y-15874008D02*
X2912920Y-15883531D01*
X2912920Y-15883531D02*
X2922444Y-15902579D01*
X2922444Y-15902579D02*
X2931967Y-15940674D01*
X2931967Y-15940674D02*
X2931967Y-15988293D01*
X2931967Y-15988293D02*
X2922444Y-16026388D01*
X2922444Y-16026388D02*
X2912920Y-16045436D01*
X2912920Y-16045436D02*
X2903396Y-16054960D01*
X2903396Y-16054960D02*
X2884348Y-16064484D01*
X2884348Y-16064484D02*
X2865301Y-16064484D01*
X2865301Y-16064484D02*
X2846253Y-16054960D01*
X2846253Y-16054960D02*
X2836729Y-16045436D01*
X2836729Y-16045436D02*
X2827206Y-16026388D01*
X2827206Y-16026388D02*
X2817682Y-15988293D01*
X2817682Y-15988293D02*
X2817682Y-15940674D01*
X2817682Y-15940674D02*
X2827206Y-15902579D01*
X2827206Y-15902579D02*
X2836729Y-15883531D01*
X2836729Y-15883531D02*
X2846253Y-15874008D01*
X2846253Y-15874008D02*
X2865301Y-15864484D01*
X3008158Y-15883531D02*
X3017682Y-15874008D01*
X3017682Y-15874008D02*
X3036729Y-15864484D01*
X3036729Y-15864484D02*
X3084348Y-15864484D01*
X3084348Y-15864484D02*
X3103396Y-15874008D01*
X3103396Y-15874008D02*
X3112920Y-15883531D01*
X3112920Y-15883531D02*
X3122444Y-15902579D01*
X3122444Y-15902579D02*
X3122444Y-15921627D01*
X3122444Y-15921627D02*
X3112920Y-15950198D01*
X3112920Y-15950198D02*
X2998634Y-16064484D01*
X2998634Y-16064484D02*
X3122444Y-16064484D01*
X3198634Y-15864484D02*
X3198634Y-15902579D01*
X3274825Y-15864484D02*
X3274825Y-15902579D01*
X3570063Y-16140674D02*
X3560539Y-16131150D01*
X3560539Y-16131150D02*
X3541491Y-16102579D01*
X3541491Y-16102579D02*
X3531968Y-16083531D01*
X3531968Y-16083531D02*
X3522444Y-16054960D01*
X3522444Y-16054960D02*
X3512920Y-16007341D01*
X3512920Y-16007341D02*
X3512920Y-15969246D01*
X3512920Y-15969246D02*
X3522444Y-15921627D01*
X3522444Y-15921627D02*
X3531968Y-15893055D01*
X3531968Y-15893055D02*
X3541491Y-15874008D01*
X3541491Y-15874008D02*
X3560539Y-15845436D01*
X3560539Y-15845436D02*
X3570063Y-15835912D01*
X3741491Y-15864484D02*
X3646253Y-15864484D01*
X3646253Y-15864484D02*
X3636729Y-15959722D01*
X3636729Y-15959722D02*
X3646253Y-15950198D01*
X3646253Y-15950198D02*
X3665301Y-15940674D01*
X3665301Y-15940674D02*
X3712920Y-15940674D01*
X3712920Y-15940674D02*
X3731968Y-15950198D01*
X3731968Y-15950198D02*
X3741491Y-15959722D01*
X3741491Y-15959722D02*
X3751015Y-15978769D01*
X3751015Y-15978769D02*
X3751015Y-16026388D01*
X3751015Y-16026388D02*
X3741491Y-16045436D01*
X3741491Y-16045436D02*
X3731968Y-16054960D01*
X3731968Y-16054960D02*
X3712920Y-16064484D01*
X3712920Y-16064484D02*
X3665301Y-16064484D01*
X3665301Y-16064484D02*
X3646253Y-16054960D01*
X3646253Y-16054960D02*
X3636729Y-16045436D01*
X3989110Y-16064484D02*
X3989110Y-15864484D01*
X4074825Y-16064484D02*
X4074825Y-15959722D01*
X4074825Y-15959722D02*
X4065301Y-15940674D01*
X4065301Y-15940674D02*
X4046253Y-15931150D01*
X4046253Y-15931150D02*
X4017682Y-15931150D01*
X4017682Y-15931150D02*
X3998634Y-15940674D01*
X3998634Y-15940674D02*
X3989110Y-15950198D01*
X4198634Y-16064484D02*
X4179587Y-16054960D01*
X4179587Y-16054960D02*
X4170063Y-16045436D01*
X4170063Y-16045436D02*
X4160539Y-16026388D01*
X4160539Y-16026388D02*
X4160539Y-15969246D01*
X4160539Y-15969246D02*
X4170063Y-15950198D01*
X4170063Y-15950198D02*
X4179587Y-15940674D01*
X4179587Y-15940674D02*
X4198634Y-15931150D01*
X4198634Y-15931150D02*
X4227206Y-15931150D01*
X4227206Y-15931150D02*
X4246253Y-15940674D01*
X4246253Y-15940674D02*
X4255777Y-15950198D01*
X4255777Y-15950198D02*
X4265301Y-15969246D01*
X4265301Y-15969246D02*
X4265301Y-16026388D01*
X4265301Y-16026388D02*
X4255777Y-16045436D01*
X4255777Y-16045436D02*
X4246253Y-16054960D01*
X4246253Y-16054960D02*
X4227206Y-16064484D01*
X4227206Y-16064484D02*
X4198634Y-16064484D01*
X4379587Y-16064484D02*
X4360539Y-16054960D01*
X4360539Y-16054960D02*
X4351015Y-16035912D01*
X4351015Y-16035912D02*
X4351015Y-15864484D01*
X4531968Y-16054960D02*
X4512920Y-16064484D01*
X4512920Y-16064484D02*
X4474825Y-16064484D01*
X4474825Y-16064484D02*
X4455777Y-16054960D01*
X4455777Y-16054960D02*
X4446253Y-16035912D01*
X4446253Y-16035912D02*
X4446253Y-15959722D01*
X4446253Y-15959722D02*
X4455777Y-15940674D01*
X4455777Y-15940674D02*
X4474825Y-15931150D01*
X4474825Y-15931150D02*
X4512920Y-15931150D01*
X4512920Y-15931150D02*
X4531968Y-15940674D01*
X4531968Y-15940674D02*
X4541492Y-15959722D01*
X4541492Y-15959722D02*
X4541492Y-15978769D01*
X4541492Y-15978769D02*
X4446253Y-15997817D01*
X4617682Y-16054960D02*
X4636730Y-16064484D01*
X4636730Y-16064484D02*
X4674825Y-16064484D01*
X4674825Y-16064484D02*
X4693873Y-16054960D01*
X4693873Y-16054960D02*
X4703396Y-16035912D01*
X4703396Y-16035912D02*
X4703396Y-16026388D01*
X4703396Y-16026388D02*
X4693873Y-16007341D01*
X4693873Y-16007341D02*
X4674825Y-15997817D01*
X4674825Y-15997817D02*
X4646253Y-15997817D01*
X4646253Y-15997817D02*
X4627206Y-15988293D01*
X4627206Y-15988293D02*
X4617682Y-15969246D01*
X4617682Y-15969246D02*
X4617682Y-15959722D01*
X4617682Y-15959722D02*
X4627206Y-15940674D01*
X4627206Y-15940674D02*
X4646253Y-15931150D01*
X4646253Y-15931150D02*
X4674825Y-15931150D01*
X4674825Y-15931150D02*
X4693873Y-15940674D01*
X4770063Y-16140674D02*
X4779587Y-16131150D01*
X4779587Y-16131150D02*
X4798634Y-16102579D01*
X4798634Y-16102579D02*
X4808158Y-16083531D01*
X4808158Y-16083531D02*
X4817682Y-16054960D01*
X4817682Y-16054960D02*
X4827206Y-16007341D01*
X4827206Y-16007341D02*
X4827206Y-15969246D01*
X4827206Y-15969246D02*
X4817682Y-15921627D01*
X4817682Y-15921627D02*
X4808158Y-15893055D01*
X4808158Y-15893055D02*
X4798634Y-15874008D01*
X4798634Y-15874008D02*
X4779587Y-15845436D01*
X4779587Y-15845436D02*
X4770063Y-15835912D01*
D14*
X-28138Y-16292862D02*
X-28138Y-16181138D01*
X-139862Y-16181138D01*
X-139862Y-16292862D01*
X-28138Y-16292862D01*
D12*
X360539Y-16328484D02*
X246253Y-16328484D01*
X303396Y-16328484D02*
X303396Y-16128484D01*
X303396Y-16128484D02*
X284348Y-16157055D01*
X284348Y-16157055D02*
X265301Y-16176103D01*
X265301Y-16176103D02*
X246253Y-16185627D01*
X446253Y-16309436D02*
X455777Y-16318960D01*
X455777Y-16318960D02*
X446253Y-16328484D01*
X446253Y-16328484D02*
X436729Y-16318960D01*
X436729Y-16318960D02*
X446253Y-16309436D01*
X446253Y-16309436D02*
X446253Y-16328484D01*
X636729Y-16128484D02*
X541491Y-16128484D01*
X541491Y-16128484D02*
X531967Y-16223722D01*
X531967Y-16223722D02*
X541491Y-16214198D01*
X541491Y-16214198D02*
X560539Y-16204674D01*
X560539Y-16204674D02*
X608158Y-16204674D01*
X608158Y-16204674D02*
X627205Y-16214198D01*
X627205Y-16214198D02*
X636729Y-16223722D01*
X636729Y-16223722D02*
X646253Y-16242769D01*
X646253Y-16242769D02*
X646253Y-16290388D01*
X646253Y-16290388D02*
X636729Y-16309436D01*
X636729Y-16309436D02*
X627205Y-16318960D01*
X627205Y-16318960D02*
X608158Y-16328484D01*
X608158Y-16328484D02*
X560539Y-16328484D01*
X560539Y-16328484D02*
X541491Y-16318960D01*
X541491Y-16318960D02*
X531967Y-16309436D01*
X760539Y-16214198D02*
X741491Y-16204674D01*
X741491Y-16204674D02*
X731967Y-16195150D01*
X731967Y-16195150D02*
X722443Y-16176103D01*
X722443Y-16176103D02*
X722443Y-16166579D01*
X722443Y-16166579D02*
X731967Y-16147531D01*
X731967Y-16147531D02*
X741491Y-16138008D01*
X741491Y-16138008D02*
X760539Y-16128484D01*
X760539Y-16128484D02*
X798634Y-16128484D01*
X798634Y-16128484D02*
X817682Y-16138008D01*
X817682Y-16138008D02*
X827205Y-16147531D01*
X827205Y-16147531D02*
X836729Y-16166579D01*
X836729Y-16166579D02*
X836729Y-16176103D01*
X836729Y-16176103D02*
X827205Y-16195150D01*
X827205Y-16195150D02*
X817682Y-16204674D01*
X817682Y-16204674D02*
X798634Y-16214198D01*
X798634Y-16214198D02*
X760539Y-16214198D01*
X760539Y-16214198D02*
X741491Y-16223722D01*
X741491Y-16223722D02*
X731967Y-16233246D01*
X731967Y-16233246D02*
X722443Y-16252293D01*
X722443Y-16252293D02*
X722443Y-16290388D01*
X722443Y-16290388D02*
X731967Y-16309436D01*
X731967Y-16309436D02*
X741491Y-16318960D01*
X741491Y-16318960D02*
X760539Y-16328484D01*
X760539Y-16328484D02*
X798634Y-16328484D01*
X798634Y-16328484D02*
X817682Y-16318960D01*
X817682Y-16318960D02*
X827205Y-16309436D01*
X827205Y-16309436D02*
X836729Y-16290388D01*
X836729Y-16290388D02*
X836729Y-16252293D01*
X836729Y-16252293D02*
X827205Y-16233246D01*
X827205Y-16233246D02*
X817682Y-16223722D01*
X817682Y-16223722D02*
X798634Y-16214198D01*
X960539Y-16128484D02*
X979586Y-16128484D01*
X979586Y-16128484D02*
X998634Y-16138008D01*
X998634Y-16138008D02*
X1008158Y-16147531D01*
X1008158Y-16147531D02*
X1017682Y-16166579D01*
X1017682Y-16166579D02*
X1027205Y-16204674D01*
X1027205Y-16204674D02*
X1027205Y-16252293D01*
X1027205Y-16252293D02*
X1017682Y-16290388D01*
X1017682Y-16290388D02*
X1008158Y-16309436D01*
X1008158Y-16309436D02*
X998634Y-16318960D01*
X998634Y-16318960D02*
X979586Y-16328484D01*
X979586Y-16328484D02*
X960539Y-16328484D01*
X960539Y-16328484D02*
X941491Y-16318960D01*
X941491Y-16318960D02*
X931967Y-16309436D01*
X931967Y-16309436D02*
X922443Y-16290388D01*
X922443Y-16290388D02*
X912920Y-16252293D01*
X912920Y-16252293D02*
X912920Y-16204674D01*
X912920Y-16204674D02*
X922443Y-16166579D01*
X922443Y-16166579D02*
X931967Y-16147531D01*
X931967Y-16147531D02*
X941491Y-16138008D01*
X941491Y-16138008D02*
X960539Y-16128484D01*
X1112920Y-16328484D02*
X1112920Y-16195150D01*
X1112920Y-16214198D02*
X1122444Y-16204674D01*
X1122444Y-16204674D02*
X1141491Y-16195150D01*
X1141491Y-16195150D02*
X1170063Y-16195150D01*
X1170063Y-16195150D02*
X1189110Y-16204674D01*
X1189110Y-16204674D02*
X1198634Y-16223722D01*
X1198634Y-16223722D02*
X1198634Y-16328484D01*
X1198634Y-16223722D02*
X1208158Y-16204674D01*
X1208158Y-16204674D02*
X1227205Y-16195150D01*
X1227205Y-16195150D02*
X1255777Y-16195150D01*
X1255777Y-16195150D02*
X1274825Y-16204674D01*
X1274825Y-16204674D02*
X1284348Y-16223722D01*
X1284348Y-16223722D02*
X1284348Y-16328484D01*
X1379586Y-16328484D02*
X1379586Y-16195150D01*
X1379586Y-16214198D02*
X1389110Y-16204674D01*
X1389110Y-16204674D02*
X1408158Y-16195150D01*
X1408158Y-16195150D02*
X1436729Y-16195150D01*
X1436729Y-16195150D02*
X1455777Y-16204674D01*
X1455777Y-16204674D02*
X1465301Y-16223722D01*
X1465301Y-16223722D02*
X1465301Y-16328484D01*
X1465301Y-16223722D02*
X1474824Y-16204674D01*
X1474824Y-16204674D02*
X1493872Y-16195150D01*
X1493872Y-16195150D02*
X1522443Y-16195150D01*
X1522443Y-16195150D02*
X1541491Y-16204674D01*
X1541491Y-16204674D02*
X1551015Y-16223722D01*
X1551015Y-16223722D02*
X1551015Y-16328484D01*
X1941491Y-16118960D02*
X1770063Y-16376103D01*
X2198634Y-16128484D02*
X2217682Y-16128484D01*
X2217682Y-16128484D02*
X2236729Y-16138008D01*
X2236729Y-16138008D02*
X2246253Y-16147531D01*
X2246253Y-16147531D02*
X2255777Y-16166579D01*
X2255777Y-16166579D02*
X2265301Y-16204674D01*
X2265301Y-16204674D02*
X2265301Y-16252293D01*
X2265301Y-16252293D02*
X2255777Y-16290388D01*
X2255777Y-16290388D02*
X2246253Y-16309436D01*
X2246253Y-16309436D02*
X2236729Y-16318960D01*
X2236729Y-16318960D02*
X2217682Y-16328484D01*
X2217682Y-16328484D02*
X2198634Y-16328484D01*
X2198634Y-16328484D02*
X2179587Y-16318960D01*
X2179587Y-16318960D02*
X2170063Y-16309436D01*
X2170063Y-16309436D02*
X2160539Y-16290388D01*
X2160539Y-16290388D02*
X2151015Y-16252293D01*
X2151015Y-16252293D02*
X2151015Y-16204674D01*
X2151015Y-16204674D02*
X2160539Y-16166579D01*
X2160539Y-16166579D02*
X2170063Y-16147531D01*
X2170063Y-16147531D02*
X2179587Y-16138008D01*
X2179587Y-16138008D02*
X2198634Y-16128484D01*
X2351015Y-16309436D02*
X2360539Y-16318960D01*
X2360539Y-16318960D02*
X2351015Y-16328484D01*
X2351015Y-16328484D02*
X2341491Y-16318960D01*
X2341491Y-16318960D02*
X2351015Y-16309436D01*
X2351015Y-16309436D02*
X2351015Y-16328484D01*
X2484348Y-16128484D02*
X2503396Y-16128484D01*
X2503396Y-16128484D02*
X2522444Y-16138008D01*
X2522444Y-16138008D02*
X2531968Y-16147531D01*
X2531968Y-16147531D02*
X2541491Y-16166579D01*
X2541491Y-16166579D02*
X2551015Y-16204674D01*
X2551015Y-16204674D02*
X2551015Y-16252293D01*
X2551015Y-16252293D02*
X2541491Y-16290388D01*
X2541491Y-16290388D02*
X2531968Y-16309436D01*
X2531968Y-16309436D02*
X2522444Y-16318960D01*
X2522444Y-16318960D02*
X2503396Y-16328484D01*
X2503396Y-16328484D02*
X2484348Y-16328484D01*
X2484348Y-16328484D02*
X2465301Y-16318960D01*
X2465301Y-16318960D02*
X2455777Y-16309436D01*
X2455777Y-16309436D02*
X2446253Y-16290388D01*
X2446253Y-16290388D02*
X2436729Y-16252293D01*
X2436729Y-16252293D02*
X2436729Y-16204674D01*
X2436729Y-16204674D02*
X2446253Y-16166579D01*
X2446253Y-16166579D02*
X2455777Y-16147531D01*
X2455777Y-16147531D02*
X2465301Y-16138008D01*
X2465301Y-16138008D02*
X2484348Y-16128484D01*
X2722444Y-16128484D02*
X2684348Y-16128484D01*
X2684348Y-16128484D02*
X2665301Y-16138008D01*
X2665301Y-16138008D02*
X2655777Y-16147531D01*
X2655777Y-16147531D02*
X2636729Y-16176103D01*
X2636729Y-16176103D02*
X2627206Y-16214198D01*
X2627206Y-16214198D02*
X2627206Y-16290388D01*
X2627206Y-16290388D02*
X2636729Y-16309436D01*
X2636729Y-16309436D02*
X2646253Y-16318960D01*
X2646253Y-16318960D02*
X2665301Y-16328484D01*
X2665301Y-16328484D02*
X2703396Y-16328484D01*
X2703396Y-16328484D02*
X2722444Y-16318960D01*
X2722444Y-16318960D02*
X2731968Y-16309436D01*
X2731968Y-16309436D02*
X2741491Y-16290388D01*
X2741491Y-16290388D02*
X2741491Y-16242769D01*
X2741491Y-16242769D02*
X2731968Y-16223722D01*
X2731968Y-16223722D02*
X2722444Y-16214198D01*
X2722444Y-16214198D02*
X2703396Y-16204674D01*
X2703396Y-16204674D02*
X2665301Y-16204674D01*
X2665301Y-16204674D02*
X2646253Y-16214198D01*
X2646253Y-16214198D02*
X2636729Y-16223722D01*
X2636729Y-16223722D02*
X2627206Y-16242769D01*
X2817682Y-16147531D02*
X2827206Y-16138008D01*
X2827206Y-16138008D02*
X2846253Y-16128484D01*
X2846253Y-16128484D02*
X2893872Y-16128484D01*
X2893872Y-16128484D02*
X2912920Y-16138008D01*
X2912920Y-16138008D02*
X2922444Y-16147531D01*
X2922444Y-16147531D02*
X2931967Y-16166579D01*
X2931967Y-16166579D02*
X2931967Y-16185627D01*
X2931967Y-16185627D02*
X2922444Y-16214198D01*
X2922444Y-16214198D02*
X2808158Y-16328484D01*
X2808158Y-16328484D02*
X2931967Y-16328484D01*
X3008158Y-16147531D02*
X3017682Y-16138008D01*
X3017682Y-16138008D02*
X3036729Y-16128484D01*
X3036729Y-16128484D02*
X3084348Y-16128484D01*
X3084348Y-16128484D02*
X3103396Y-16138008D01*
X3103396Y-16138008D02*
X3112920Y-16147531D01*
X3112920Y-16147531D02*
X3122444Y-16166579D01*
X3122444Y-16166579D02*
X3122444Y-16185627D01*
X3122444Y-16185627D02*
X3112920Y-16214198D01*
X3112920Y-16214198D02*
X2998634Y-16328484D01*
X2998634Y-16328484D02*
X3122444Y-16328484D01*
X3198634Y-16128484D02*
X3198634Y-16166579D01*
X3274825Y-16128484D02*
X3274825Y-16166579D01*
X3570063Y-16404674D02*
X3560539Y-16395150D01*
X3560539Y-16395150D02*
X3541491Y-16366579D01*
X3541491Y-16366579D02*
X3531968Y-16347531D01*
X3531968Y-16347531D02*
X3522444Y-16318960D01*
X3522444Y-16318960D02*
X3512920Y-16271341D01*
X3512920Y-16271341D02*
X3512920Y-16233246D01*
X3512920Y-16233246D02*
X3522444Y-16185627D01*
X3522444Y-16185627D02*
X3531968Y-16157055D01*
X3531968Y-16157055D02*
X3541491Y-16138008D01*
X3541491Y-16138008D02*
X3560539Y-16109436D01*
X3560539Y-16109436D02*
X3570063Y-16099912D01*
X3751015Y-16328484D02*
X3636729Y-16328484D01*
X3693872Y-16328484D02*
X3693872Y-16128484D01*
X3693872Y-16128484D02*
X3674825Y-16157055D01*
X3674825Y-16157055D02*
X3655777Y-16176103D01*
X3655777Y-16176103D02*
X3636729Y-16185627D01*
X3827206Y-16147531D02*
X3836729Y-16138008D01*
X3836729Y-16138008D02*
X3855777Y-16128484D01*
X3855777Y-16128484D02*
X3903396Y-16128484D01*
X3903396Y-16128484D02*
X3922444Y-16138008D01*
X3922444Y-16138008D02*
X3931968Y-16147531D01*
X3931968Y-16147531D02*
X3941491Y-16166579D01*
X3941491Y-16166579D02*
X3941491Y-16185627D01*
X3941491Y-16185627D02*
X3931968Y-16214198D01*
X3931968Y-16214198D02*
X3817682Y-16328484D01*
X3817682Y-16328484D02*
X3941491Y-16328484D01*
X4036729Y-16328484D02*
X4074825Y-16328484D01*
X4074825Y-16328484D02*
X4093872Y-16318960D01*
X4093872Y-16318960D02*
X4103396Y-16309436D01*
X4103396Y-16309436D02*
X4122444Y-16280865D01*
X4122444Y-16280865D02*
X4131968Y-16242769D01*
X4131968Y-16242769D02*
X4131968Y-16166579D01*
X4131968Y-16166579D02*
X4122444Y-16147531D01*
X4122444Y-16147531D02*
X4112920Y-16138008D01*
X4112920Y-16138008D02*
X4093872Y-16128484D01*
X4093872Y-16128484D02*
X4055777Y-16128484D01*
X4055777Y-16128484D02*
X4036729Y-16138008D01*
X4036729Y-16138008D02*
X4027206Y-16147531D01*
X4027206Y-16147531D02*
X4017682Y-16166579D01*
X4017682Y-16166579D02*
X4017682Y-16214198D01*
X4017682Y-16214198D02*
X4027206Y-16233246D01*
X4027206Y-16233246D02*
X4036729Y-16242769D01*
X4036729Y-16242769D02*
X4055777Y-16252293D01*
X4055777Y-16252293D02*
X4093872Y-16252293D01*
X4093872Y-16252293D02*
X4112920Y-16242769D01*
X4112920Y-16242769D02*
X4122444Y-16233246D01*
X4122444Y-16233246D02*
X4131968Y-16214198D01*
X4370063Y-16328484D02*
X4370063Y-16128484D01*
X4455777Y-16328484D02*
X4455777Y-16223722D01*
X4455777Y-16223722D02*
X4446253Y-16204674D01*
X4446253Y-16204674D02*
X4427206Y-16195150D01*
X4427206Y-16195150D02*
X4398634Y-16195150D01*
X4398634Y-16195150D02*
X4379587Y-16204674D01*
X4379587Y-16204674D02*
X4370063Y-16214198D01*
X4579587Y-16328484D02*
X4560539Y-16318960D01*
X4560539Y-16318960D02*
X4551015Y-16309436D01*
X4551015Y-16309436D02*
X4541492Y-16290388D01*
X4541492Y-16290388D02*
X4541492Y-16233246D01*
X4541492Y-16233246D02*
X4551015Y-16214198D01*
X4551015Y-16214198D02*
X4560539Y-16204674D01*
X4560539Y-16204674D02*
X4579587Y-16195150D01*
X4579587Y-16195150D02*
X4608158Y-16195150D01*
X4608158Y-16195150D02*
X4627206Y-16204674D01*
X4627206Y-16204674D02*
X4636730Y-16214198D01*
X4636730Y-16214198D02*
X4646253Y-16233246D01*
X4646253Y-16233246D02*
X4646253Y-16290388D01*
X4646253Y-16290388D02*
X4636730Y-16309436D01*
X4636730Y-16309436D02*
X4627206Y-16318960D01*
X4627206Y-16318960D02*
X4608158Y-16328484D01*
X4608158Y-16328484D02*
X4579587Y-16328484D01*
X4760539Y-16328484D02*
X4741492Y-16318960D01*
X4741492Y-16318960D02*
X4731968Y-16299912D01*
X4731968Y-16299912D02*
X4731968Y-16128484D01*
X4912920Y-16318960D02*
X4893873Y-16328484D01*
X4893873Y-16328484D02*
X4855777Y-16328484D01*
X4855777Y-16328484D02*
X4836730Y-16318960D01*
X4836730Y-16318960D02*
X4827206Y-16299912D01*
X4827206Y-16299912D02*
X4827206Y-16223722D01*
X4827206Y-16223722D02*
X4836730Y-16204674D01*
X4836730Y-16204674D02*
X4855777Y-16195150D01*
X4855777Y-16195150D02*
X4893873Y-16195150D01*
X4893873Y-16195150D02*
X4912920Y-16204674D01*
X4912920Y-16204674D02*
X4922444Y-16223722D01*
X4922444Y-16223722D02*
X4922444Y-16242769D01*
X4922444Y-16242769D02*
X4827206Y-16261817D01*
X4998634Y-16318960D02*
X5017682Y-16328484D01*
X5017682Y-16328484D02*
X5055777Y-16328484D01*
X5055777Y-16328484D02*
X5074825Y-16318960D01*
X5074825Y-16318960D02*
X5084349Y-16299912D01*
X5084349Y-16299912D02*
X5084349Y-16290388D01*
X5084349Y-16290388D02*
X5074825Y-16271341D01*
X5074825Y-16271341D02*
X5055777Y-16261817D01*
X5055777Y-16261817D02*
X5027206Y-16261817D01*
X5027206Y-16261817D02*
X5008158Y-16252293D01*
X5008158Y-16252293D02*
X4998634Y-16233246D01*
X4998634Y-16233246D02*
X4998634Y-16223722D01*
X4998634Y-16223722D02*
X5008158Y-16204674D01*
X5008158Y-16204674D02*
X5027206Y-16195150D01*
X5027206Y-16195150D02*
X5055777Y-16195150D01*
X5055777Y-16195150D02*
X5074825Y-16204674D01*
X5151015Y-16404674D02*
X5160539Y-16395150D01*
X5160539Y-16395150D02*
X5179587Y-16366579D01*
X5179587Y-16366579D02*
X5189111Y-16347531D01*
X5189111Y-16347531D02*
X5198634Y-16318960D01*
X5198634Y-16318960D02*
X5208158Y-16271341D01*
X5208158Y-16271341D02*
X5208158Y-16233246D01*
X5208158Y-16233246D02*
X5198634Y-16185627D01*
X5198634Y-16185627D02*
X5189111Y-16157055D01*
X5189111Y-16157055D02*
X5179587Y-16138008D01*
X5179587Y-16138008D02*
X5160539Y-16109436D01*
X5160539Y-16109436D02*
X5151015Y-16099912D01*
M02*
