M48
; DRILL file {KiCad 8.0.7} date 2025-01-12T17:34:08+0000
; FORMAT={-:-/ absolute / metric / decimal}
; #@! TF.CreationDate,2025-01-12T17:34:08+00:00
; #@! TF.GenerationSoftware,Kicad,Pcbnew,8.0.7
; #@! TF.FileFunction,NonPlated,1,2,NPTH
FMAT,2
METRIC
; #@! TA.AperFunction,NonPlated,NPTH,ComponentDrill
T1C3.000
; #@! TA.AperFunction,NonPlated,NPTH,ComponentDrill
T2C3.200
; #@! TA.AperFunction,NonPlated,NPTH,ComponentDrill
T3C5.250
%
G90
G05
T1
X17.15Y-6.68
X24.85Y-6.68
T2
X5.0Y-5.0
X5.0Y-117.0
X77.0Y-11.0
X196.0Y-5.0
X196.0Y-143.0
T3
X11.362Y-75.462
X16.125Y-94.512
X20.887Y-56.412
X25.65Y-32.6
X25.65Y-113.562
X28.031Y-132.612
X30.412Y-75.462
X35.175Y-94.512
X39.938Y-56.412
X44.7Y-32.6
X44.7Y-113.562
X49.462Y-75.462
X54.225Y-94.512
X58.987Y-56.412
X61.369Y-132.612
X63.75Y-113.562
X68.513Y-32.6
X68.513Y-75.462
X73.275Y-94.512
X78.037Y-56.412
X82.8Y-113.562
X82.8Y-132.612
X87.562Y-32.6
X87.562Y-75.462
X92.325Y-94.512
X97.087Y-56.412
X101.85Y-113.562
X101.85Y-132.612
X106.612Y-32.6
X106.612Y-75.462
X111.375Y-94.512
X116.137Y-56.412
X120.9Y-132.612
X125.662Y-32.6
X125.662Y-75.462
X130.425Y-113.562
X142.331Y-94.512
X144.713Y-56.412
X144.713Y-137.375
X149.475Y-32.6
X149.475Y-75.462
X163.762Y-118.325
X163.762Y-137.375
X168.525Y-32.6
X182.812Y-137.375
X187.575Y-32.6
X187.575Y-56.412
X187.575Y-75.462
X187.575Y-94.512
X187.575Y-113.562
M30
