M48
; DRILL file {KiCad 8.0.7} date 2025-01-12T17:34:08+0000
; FORMAT={-:-/ absolute / metric / decimal}
; #@! TF.CreationDate,2025-01-12T17:34:08+00:00
; #@! TF.GenerationSoftware,Kicad,Pcbnew,8.0.7
; #@! TF.FileFunction,Plated,1,2,PTH
FMAT,2
METRIC
; #@! TA.AperFunction,Plated,PTH,ViaDrill
T1C0.600
; #@! TA.AperFunction,Plated,PTH,ComponentDrill
T2C0.800
; #@! TA.AperFunction,Plated,PTH,ComponentDrill
T3C1.020
; #@! TA.AperFunction,Plated,PTH,ComponentDrill
T4C1.580
%
G90
G05
T1
X173.5Y-85.0
T2
X20.863Y-71.653
X20.863Y-79.272
X25.625Y-90.703
X25.625Y-98.322
X30.387Y-52.602
X30.387Y-60.222
X35.15Y-28.79
X35.15Y-36.41
X35.15Y-109.752
X35.15Y-117.372
X39.913Y-71.653
X39.913Y-79.272
X44.675Y-90.703
X44.675Y-98.322
X49.438Y-52.602
X49.438Y-60.222
X54.2Y-28.79
X54.2Y-36.41
X54.2Y-109.752
X54.2Y-117.372
X58.962Y-71.653
X58.962Y-79.272
X63.725Y-90.703
X63.725Y-98.322
X68.487Y-52.602
X68.487Y-60.222
X70.869Y-128.802
X70.869Y-136.422
X73.25Y-109.752
X73.25Y-117.372
X78.013Y-28.79
X78.013Y-36.41
X78.013Y-71.653
X78.013Y-79.272
X82.775Y-90.703
X82.775Y-98.322
X87.537Y-52.602
X87.537Y-60.222
X92.3Y-109.752
X92.3Y-117.372
X92.3Y-128.802
X92.3Y-136.422
X97.062Y-28.79
X97.062Y-36.41
X97.062Y-71.653
X97.062Y-79.272
X101.825Y-90.703
X101.825Y-98.322
X106.587Y-52.602
X106.587Y-60.222
X111.35Y-109.752
X111.35Y-117.372
X111.35Y-128.802
X111.35Y-136.422
X116.112Y-28.79
X116.112Y-36.41
X116.112Y-71.653
X116.112Y-79.272
X120.875Y-90.703
X120.875Y-98.322
X125.637Y-52.602
X125.637Y-60.222
X130.4Y-128.802
X130.4Y-136.422
X135.162Y-28.79
X135.162Y-36.41
X135.162Y-71.653
X135.162Y-79.272
X148.375Y-109.752
X148.375Y-117.372
X154.213Y-133.565
X154.213Y-141.185
X158.975Y-28.79
X158.975Y-36.41
X158.975Y-71.653
X158.975Y-79.272
X160.281Y-90.703
X160.281Y-98.322
X162.662Y-52.602
X162.662Y-60.222
X173.262Y-114.515
X173.262Y-122.135
X173.262Y-133.565
X173.262Y-141.185
X178.025Y-28.79
X178.025Y-36.41
X192.312Y-128.69
X192.312Y-136.31
X197.075Y-28.79
X197.075Y-36.41
X197.075Y-52.602
X197.075Y-60.222
X197.075Y-71.653
X197.075Y-79.272
X197.075Y-90.703
X197.075Y-98.322
X197.075Y-109.752
X197.075Y-117.372
T3
X15.0Y-11.0
X18.0Y-11.0
X21.0Y-11.0
X24.0Y-11.0
X27.0Y-11.0
T4
X6.962Y-80.162
X11.725Y-99.212
X13.962Y-81.212
X16.488Y-61.112
X18.725Y-100.262
X21.25Y-37.3
X21.25Y-118.262
X23.488Y-62.162
X23.631Y-137.312
X26.012Y-80.162
X28.25Y-38.35
X28.25Y-119.312
X30.631Y-138.362
X30.775Y-99.212
X33.012Y-81.212
X35.538Y-61.112
X37.775Y-100.262
X39.53Y-3.88
X39.53Y-19.12
X40.3Y-37.3
X40.3Y-118.262
X42.07Y-3.88
X42.07Y-19.12
X42.538Y-62.162
X44.61Y-3.88
X44.61Y-19.12
X45.062Y-80.162
X47.15Y-3.88
X47.15Y-19.12
X47.3Y-38.35
X47.3Y-119.312
X49.69Y-3.88
X49.69Y-19.12
X49.825Y-99.212
X52.062Y-81.212
X52.23Y-3.88
X52.23Y-19.12
X54.587Y-61.112
X54.77Y-3.88
X54.77Y-19.12
X56.825Y-100.262
X56.969Y-137.312
X57.31Y-3.88
X57.31Y-19.12
X59.35Y-118.262
X59.85Y-3.88
X59.85Y-19.12
X61.587Y-62.162
X62.39Y-3.88
X62.39Y-19.12
X63.969Y-138.362
X64.112Y-37.3
X64.112Y-80.162
X64.93Y-3.88
X64.93Y-19.12
X66.35Y-119.312
X67.47Y-3.88
X67.47Y-6.42
X67.47Y-8.96
X67.47Y-11.5
X67.47Y-14.04
X67.47Y-16.58
X67.47Y-19.12
X68.875Y-99.212
X71.112Y-38.35
X71.112Y-81.212
X73.638Y-61.112
X75.875Y-100.262
X78.4Y-118.262
X78.4Y-137.312
X80.638Y-62.162
X83.162Y-37.3
X83.162Y-80.162
X85.4Y-119.312
X85.4Y-138.362
X87.925Y-99.212
X90.162Y-38.35
X90.162Y-81.212
X92.688Y-61.112
X94.925Y-100.262
X97.45Y-118.262
X97.45Y-137.312
X99.688Y-62.162
X102.212Y-37.3
X102.212Y-80.162
X104.45Y-119.312
X104.45Y-138.362
X106.975Y-99.212
X109.212Y-38.35
X109.212Y-81.212
X111.737Y-61.112
X113.975Y-100.262
X116.5Y-137.312
X118.737Y-62.162
X121.262Y-37.3
X121.262Y-80.162
X123.5Y-138.362
X126.025Y-118.262
X128.262Y-38.35
X128.262Y-81.212
X133.025Y-119.312
X137.931Y-99.212
X140.312Y-61.112
X140.312Y-142.075
X144.931Y-100.262
X145.075Y-37.3
X145.075Y-80.162
X147.312Y-62.162
X147.312Y-143.125
X152.075Y-38.35
X152.075Y-81.212
X159.362Y-123.025
X159.362Y-142.075
X164.125Y-37.3
X166.362Y-124.075
X166.362Y-143.125
X171.125Y-38.35
X178.412Y-142.075
X183.175Y-37.3
X183.175Y-61.112
X183.175Y-80.162
X183.175Y-99.212
X183.175Y-118.262
X185.412Y-143.125
X190.175Y-38.35
X190.175Y-62.162
X190.175Y-81.212
X190.175Y-100.262
X190.175Y-119.312
M30
