G04 #@! TF.GenerationSoftware,KiCad,Pcbnew,8.0.7*
G04 #@! TF.CreationDate,2025-01-12T17:34:05+00:00*
G04 #@! TF.ProjectId,gateronLPkeyboard-right,67617465-726f-46e4-9c50-6b6579626f61,rev?*
G04 #@! TF.SameCoordinates,Original*
G04 #@! TF.FileFunction,Legend,Top*
G04 #@! TF.FilePolarity,Positive*
%FSLAX46Y46*%
G04 Gerber Fmt 4.6, Leading zero omitted, Abs format (unit mm)*
G04 Created by KiCad (PCBNEW 8.0.7) date 2025-01-12 17:34:05*
%MOMM*%
%LPD*%
G01*
G04 APERTURE LIST*
G04 Aperture macros list*
%AMRoundRect*
0 Rectangle with rounded corners*
0 $1 Rounding radius*
0 $2 $3 $4 $5 $6 $7 $8 $9 X,Y pos of 4 corners*
0 Add a 4 corners polygon primitive as box body*
4,1,4,$2,$3,$4,$5,$6,$7,$8,$9,$2,$3,0*
0 Add four circle primitives for the rounded corners*
1,1,$1+$1,$2,$3*
1,1,$1+$1,$4,$5*
1,1,$1+$1,$6,$7*
1,1,$1+$1,$8,$9*
0 Add four rect primitives between the rounded corners*
20,1,$1+$1,$2,$3,$4,$5,0*
20,1,$1+$1,$4,$5,$6,$7,0*
20,1,$1+$1,$6,$7,$8,$9,0*
20,1,$1+$1,$8,$9,$2,$3,0*%
G04 Aperture macros list end*
%ADD10C,0.150000*%
%ADD11C,0.120000*%
%ADD12C,0.140000*%
%ADD13C,0.381000*%
%ADD14R,2.200000X2.200000*%
%ADD15C,2.200000*%
%ADD16R,1.600000X1.600000*%
%ADD17O,1.600000X1.600000*%
%ADD18C,5.250000*%
%ADD19C,2.500000*%
%ADD20C,3.000000*%
%ADD21RoundRect,0.250001X-0.499999X-0.759999X0.499999X-0.759999X0.499999X0.759999X-0.499999X0.759999X0*%
%ADD22O,1.500000X2.020000*%
%ADD23C,3.200000*%
G04 APERTURE END LIST*
D10*
X47249819Y-95726785D02*
X46249819Y-95726785D01*
X46249819Y-95726785D02*
X46249819Y-95488690D01*
X46249819Y-95488690D02*
X46297438Y-95345833D01*
X46297438Y-95345833D02*
X46392676Y-95250595D01*
X46392676Y-95250595D02*
X46487914Y-95202976D01*
X46487914Y-95202976D02*
X46678390Y-95155357D01*
X46678390Y-95155357D02*
X46821247Y-95155357D01*
X46821247Y-95155357D02*
X47011723Y-95202976D01*
X47011723Y-95202976D02*
X47106961Y-95250595D01*
X47106961Y-95250595D02*
X47202200Y-95345833D01*
X47202200Y-95345833D02*
X47249819Y-95488690D01*
X47249819Y-95488690D02*
X47249819Y-95726785D01*
X46345057Y-94774404D02*
X46297438Y-94726785D01*
X46297438Y-94726785D02*
X46249819Y-94631547D01*
X46249819Y-94631547D02*
X46249819Y-94393452D01*
X46249819Y-94393452D02*
X46297438Y-94298214D01*
X46297438Y-94298214D02*
X46345057Y-94250595D01*
X46345057Y-94250595D02*
X46440295Y-94202976D01*
X46440295Y-94202976D02*
X46535533Y-94202976D01*
X46535533Y-94202976D02*
X46678390Y-94250595D01*
X46678390Y-94250595D02*
X47249819Y-94822023D01*
X47249819Y-94822023D02*
X47249819Y-94202976D01*
X46678390Y-93631547D02*
X46630771Y-93726785D01*
X46630771Y-93726785D02*
X46583152Y-93774404D01*
X46583152Y-93774404D02*
X46487914Y-93822023D01*
X46487914Y-93822023D02*
X46440295Y-93822023D01*
X46440295Y-93822023D02*
X46345057Y-93774404D01*
X46345057Y-93774404D02*
X46297438Y-93726785D01*
X46297438Y-93726785D02*
X46249819Y-93631547D01*
X46249819Y-93631547D02*
X46249819Y-93441071D01*
X46249819Y-93441071D02*
X46297438Y-93345833D01*
X46297438Y-93345833D02*
X46345057Y-93298214D01*
X46345057Y-93298214D02*
X46440295Y-93250595D01*
X46440295Y-93250595D02*
X46487914Y-93250595D01*
X46487914Y-93250595D02*
X46583152Y-93298214D01*
X46583152Y-93298214D02*
X46630771Y-93345833D01*
X46630771Y-93345833D02*
X46678390Y-93441071D01*
X46678390Y-93441071D02*
X46678390Y-93631547D01*
X46678390Y-93631547D02*
X46726009Y-93726785D01*
X46726009Y-93726785D02*
X46773628Y-93774404D01*
X46773628Y-93774404D02*
X46868866Y-93822023D01*
X46868866Y-93822023D02*
X47059342Y-93822023D01*
X47059342Y-93822023D02*
X47154580Y-93774404D01*
X47154580Y-93774404D02*
X47202200Y-93726785D01*
X47202200Y-93726785D02*
X47249819Y-93631547D01*
X47249819Y-93631547D02*
X47249819Y-93441071D01*
X47249819Y-93441071D02*
X47202200Y-93345833D01*
X47202200Y-93345833D02*
X47154580Y-93298214D01*
X47154580Y-93298214D02*
X47059342Y-93250595D01*
X47059342Y-93250595D02*
X46868866Y-93250595D01*
X46868866Y-93250595D02*
X46773628Y-93298214D01*
X46773628Y-93298214D02*
X46726009Y-93345833D01*
X46726009Y-93345833D02*
X46678390Y-93441071D01*
X46929819Y-90964404D02*
X45929819Y-90964404D01*
X46929819Y-90392976D02*
X46358390Y-90821547D01*
X45929819Y-90392976D02*
X46501247Y-90964404D01*
X199649819Y-33338094D02*
X198649819Y-33338094D01*
X198649819Y-33338094D02*
X198649819Y-33099999D01*
X198649819Y-33099999D02*
X198697438Y-32957142D01*
X198697438Y-32957142D02*
X198792676Y-32861904D01*
X198792676Y-32861904D02*
X198887914Y-32814285D01*
X198887914Y-32814285D02*
X199078390Y-32766666D01*
X199078390Y-32766666D02*
X199221247Y-32766666D01*
X199221247Y-32766666D02*
X199411723Y-32814285D01*
X199411723Y-32814285D02*
X199506961Y-32861904D01*
X199506961Y-32861904D02*
X199602200Y-32957142D01*
X199602200Y-32957142D02*
X199649819Y-33099999D01*
X199649819Y-33099999D02*
X199649819Y-33338094D01*
X199649819Y-32290475D02*
X199649819Y-32099999D01*
X199649819Y-32099999D02*
X199602200Y-32004761D01*
X199602200Y-32004761D02*
X199554580Y-31957142D01*
X199554580Y-31957142D02*
X199411723Y-31861904D01*
X199411723Y-31861904D02*
X199221247Y-31814285D01*
X199221247Y-31814285D02*
X198840295Y-31814285D01*
X198840295Y-31814285D02*
X198745057Y-31861904D01*
X198745057Y-31861904D02*
X198697438Y-31909523D01*
X198697438Y-31909523D02*
X198649819Y-32004761D01*
X198649819Y-32004761D02*
X198649819Y-32195237D01*
X198649819Y-32195237D02*
X198697438Y-32290475D01*
X198697438Y-32290475D02*
X198745057Y-32338094D01*
X198745057Y-32338094D02*
X198840295Y-32385713D01*
X198840295Y-32385713D02*
X199078390Y-32385713D01*
X199078390Y-32385713D02*
X199173628Y-32338094D01*
X199173628Y-32338094D02*
X199221247Y-32290475D01*
X199221247Y-32290475D02*
X199268866Y-32195237D01*
X199268866Y-32195237D02*
X199268866Y-32004761D01*
X199268866Y-32004761D02*
X199221247Y-31909523D01*
X199221247Y-31909523D02*
X199173628Y-31861904D01*
X199173628Y-31861904D02*
X199078390Y-31814285D01*
X199329819Y-29051904D02*
X198329819Y-29051904D01*
X199329819Y-28480476D02*
X198758390Y-28909047D01*
X198329819Y-28480476D02*
X198901247Y-29051904D01*
X180599819Y-33338094D02*
X179599819Y-33338094D01*
X179599819Y-33338094D02*
X179599819Y-33099999D01*
X179599819Y-33099999D02*
X179647438Y-32957142D01*
X179647438Y-32957142D02*
X179742676Y-32861904D01*
X179742676Y-32861904D02*
X179837914Y-32814285D01*
X179837914Y-32814285D02*
X180028390Y-32766666D01*
X180028390Y-32766666D02*
X180171247Y-32766666D01*
X180171247Y-32766666D02*
X180361723Y-32814285D01*
X180361723Y-32814285D02*
X180456961Y-32861904D01*
X180456961Y-32861904D02*
X180552200Y-32957142D01*
X180552200Y-32957142D02*
X180599819Y-33099999D01*
X180599819Y-33099999D02*
X180599819Y-33338094D01*
X180028390Y-32195237D02*
X179980771Y-32290475D01*
X179980771Y-32290475D02*
X179933152Y-32338094D01*
X179933152Y-32338094D02*
X179837914Y-32385713D01*
X179837914Y-32385713D02*
X179790295Y-32385713D01*
X179790295Y-32385713D02*
X179695057Y-32338094D01*
X179695057Y-32338094D02*
X179647438Y-32290475D01*
X179647438Y-32290475D02*
X179599819Y-32195237D01*
X179599819Y-32195237D02*
X179599819Y-32004761D01*
X179599819Y-32004761D02*
X179647438Y-31909523D01*
X179647438Y-31909523D02*
X179695057Y-31861904D01*
X179695057Y-31861904D02*
X179790295Y-31814285D01*
X179790295Y-31814285D02*
X179837914Y-31814285D01*
X179837914Y-31814285D02*
X179933152Y-31861904D01*
X179933152Y-31861904D02*
X179980771Y-31909523D01*
X179980771Y-31909523D02*
X180028390Y-32004761D01*
X180028390Y-32004761D02*
X180028390Y-32195237D01*
X180028390Y-32195237D02*
X180076009Y-32290475D01*
X180076009Y-32290475D02*
X180123628Y-32338094D01*
X180123628Y-32338094D02*
X180218866Y-32385713D01*
X180218866Y-32385713D02*
X180409342Y-32385713D01*
X180409342Y-32385713D02*
X180504580Y-32338094D01*
X180504580Y-32338094D02*
X180552200Y-32290475D01*
X180552200Y-32290475D02*
X180599819Y-32195237D01*
X180599819Y-32195237D02*
X180599819Y-32004761D01*
X180599819Y-32004761D02*
X180552200Y-31909523D01*
X180552200Y-31909523D02*
X180504580Y-31861904D01*
X180504580Y-31861904D02*
X180409342Y-31814285D01*
X180409342Y-31814285D02*
X180218866Y-31814285D01*
X180218866Y-31814285D02*
X180123628Y-31861904D01*
X180123628Y-31861904D02*
X180076009Y-31909523D01*
X180076009Y-31909523D02*
X180028390Y-32004761D01*
X180279819Y-29051904D02*
X179279819Y-29051904D01*
X180279819Y-28480476D02*
X179708390Y-28909047D01*
X179279819Y-28480476D02*
X179851247Y-29051904D01*
X113924819Y-114776785D02*
X112924819Y-114776785D01*
X112924819Y-114776785D02*
X112924819Y-114538690D01*
X112924819Y-114538690D02*
X112972438Y-114395833D01*
X112972438Y-114395833D02*
X113067676Y-114300595D01*
X113067676Y-114300595D02*
X113162914Y-114252976D01*
X113162914Y-114252976D02*
X113353390Y-114205357D01*
X113353390Y-114205357D02*
X113496247Y-114205357D01*
X113496247Y-114205357D02*
X113686723Y-114252976D01*
X113686723Y-114252976D02*
X113781961Y-114300595D01*
X113781961Y-114300595D02*
X113877200Y-114395833D01*
X113877200Y-114395833D02*
X113924819Y-114538690D01*
X113924819Y-114538690D02*
X113924819Y-114776785D01*
X112924819Y-113872023D02*
X112924819Y-113252976D01*
X112924819Y-113252976D02*
X113305771Y-113586309D01*
X113305771Y-113586309D02*
X113305771Y-113443452D01*
X113305771Y-113443452D02*
X113353390Y-113348214D01*
X113353390Y-113348214D02*
X113401009Y-113300595D01*
X113401009Y-113300595D02*
X113496247Y-113252976D01*
X113496247Y-113252976D02*
X113734342Y-113252976D01*
X113734342Y-113252976D02*
X113829580Y-113300595D01*
X113829580Y-113300595D02*
X113877200Y-113348214D01*
X113877200Y-113348214D02*
X113924819Y-113443452D01*
X113924819Y-113443452D02*
X113924819Y-113729166D01*
X113924819Y-113729166D02*
X113877200Y-113824404D01*
X113877200Y-113824404D02*
X113829580Y-113872023D01*
X113924819Y-112776785D02*
X113924819Y-112586309D01*
X113924819Y-112586309D02*
X113877200Y-112491071D01*
X113877200Y-112491071D02*
X113829580Y-112443452D01*
X113829580Y-112443452D02*
X113686723Y-112348214D01*
X113686723Y-112348214D02*
X113496247Y-112300595D01*
X113496247Y-112300595D02*
X113115295Y-112300595D01*
X113115295Y-112300595D02*
X113020057Y-112348214D01*
X113020057Y-112348214D02*
X112972438Y-112395833D01*
X112972438Y-112395833D02*
X112924819Y-112491071D01*
X112924819Y-112491071D02*
X112924819Y-112681547D01*
X112924819Y-112681547D02*
X112972438Y-112776785D01*
X112972438Y-112776785D02*
X113020057Y-112824404D01*
X113020057Y-112824404D02*
X113115295Y-112872023D01*
X113115295Y-112872023D02*
X113353390Y-112872023D01*
X113353390Y-112872023D02*
X113448628Y-112824404D01*
X113448628Y-112824404D02*
X113496247Y-112776785D01*
X113496247Y-112776785D02*
X113543866Y-112681547D01*
X113543866Y-112681547D02*
X113543866Y-112491071D01*
X113543866Y-112491071D02*
X113496247Y-112395833D01*
X113496247Y-112395833D02*
X113448628Y-112348214D01*
X113448628Y-112348214D02*
X113353390Y-112300595D01*
X113604819Y-110014404D02*
X112604819Y-110014404D01*
X113604819Y-109442976D02*
X113033390Y-109871547D01*
X112604819Y-109442976D02*
X113176247Y-110014404D01*
X61537319Y-76676785D02*
X60537319Y-76676785D01*
X60537319Y-76676785D02*
X60537319Y-76438690D01*
X60537319Y-76438690D02*
X60584938Y-76295833D01*
X60584938Y-76295833D02*
X60680176Y-76200595D01*
X60680176Y-76200595D02*
X60775414Y-76152976D01*
X60775414Y-76152976D02*
X60965890Y-76105357D01*
X60965890Y-76105357D02*
X61108747Y-76105357D01*
X61108747Y-76105357D02*
X61299223Y-76152976D01*
X61299223Y-76152976D02*
X61394461Y-76200595D01*
X61394461Y-76200595D02*
X61489700Y-76295833D01*
X61489700Y-76295833D02*
X61537319Y-76438690D01*
X61537319Y-76438690D02*
X61537319Y-76676785D01*
X60632557Y-75724404D02*
X60584938Y-75676785D01*
X60584938Y-75676785D02*
X60537319Y-75581547D01*
X60537319Y-75581547D02*
X60537319Y-75343452D01*
X60537319Y-75343452D02*
X60584938Y-75248214D01*
X60584938Y-75248214D02*
X60632557Y-75200595D01*
X60632557Y-75200595D02*
X60727795Y-75152976D01*
X60727795Y-75152976D02*
X60823033Y-75152976D01*
X60823033Y-75152976D02*
X60965890Y-75200595D01*
X60965890Y-75200595D02*
X61537319Y-75772023D01*
X61537319Y-75772023D02*
X61537319Y-75152976D01*
X60537319Y-74533928D02*
X60537319Y-74438690D01*
X60537319Y-74438690D02*
X60584938Y-74343452D01*
X60584938Y-74343452D02*
X60632557Y-74295833D01*
X60632557Y-74295833D02*
X60727795Y-74248214D01*
X60727795Y-74248214D02*
X60918271Y-74200595D01*
X60918271Y-74200595D02*
X61156366Y-74200595D01*
X61156366Y-74200595D02*
X61346842Y-74248214D01*
X61346842Y-74248214D02*
X61442080Y-74295833D01*
X61442080Y-74295833D02*
X61489700Y-74343452D01*
X61489700Y-74343452D02*
X61537319Y-74438690D01*
X61537319Y-74438690D02*
X61537319Y-74533928D01*
X61537319Y-74533928D02*
X61489700Y-74629166D01*
X61489700Y-74629166D02*
X61442080Y-74676785D01*
X61442080Y-74676785D02*
X61346842Y-74724404D01*
X61346842Y-74724404D02*
X61156366Y-74772023D01*
X61156366Y-74772023D02*
X60918271Y-74772023D01*
X60918271Y-74772023D02*
X60727795Y-74724404D01*
X60727795Y-74724404D02*
X60632557Y-74676785D01*
X60632557Y-74676785D02*
X60584938Y-74629166D01*
X60584938Y-74629166D02*
X60537319Y-74533928D01*
X61217319Y-71914404D02*
X60217319Y-71914404D01*
X61217319Y-71342976D02*
X60645890Y-71771547D01*
X60217319Y-71342976D02*
X60788747Y-71914404D01*
X165237319Y-57626785D02*
X164237319Y-57626785D01*
X164237319Y-57626785D02*
X164237319Y-57388690D01*
X164237319Y-57388690D02*
X164284938Y-57245833D01*
X164284938Y-57245833D02*
X164380176Y-57150595D01*
X164380176Y-57150595D02*
X164475414Y-57102976D01*
X164475414Y-57102976D02*
X164665890Y-57055357D01*
X164665890Y-57055357D02*
X164808747Y-57055357D01*
X164808747Y-57055357D02*
X164999223Y-57102976D01*
X164999223Y-57102976D02*
X165094461Y-57150595D01*
X165094461Y-57150595D02*
X165189700Y-57245833D01*
X165189700Y-57245833D02*
X165237319Y-57388690D01*
X165237319Y-57388690D02*
X165237319Y-57626785D01*
X165237319Y-56102976D02*
X165237319Y-56674404D01*
X165237319Y-56388690D02*
X164237319Y-56388690D01*
X164237319Y-56388690D02*
X164380176Y-56483928D01*
X164380176Y-56483928D02*
X164475414Y-56579166D01*
X164475414Y-56579166D02*
X164523033Y-56674404D01*
X164237319Y-55245833D02*
X164237319Y-55436309D01*
X164237319Y-55436309D02*
X164284938Y-55531547D01*
X164284938Y-55531547D02*
X164332557Y-55579166D01*
X164332557Y-55579166D02*
X164475414Y-55674404D01*
X164475414Y-55674404D02*
X164665890Y-55722023D01*
X164665890Y-55722023D02*
X165046842Y-55722023D01*
X165046842Y-55722023D02*
X165142080Y-55674404D01*
X165142080Y-55674404D02*
X165189700Y-55626785D01*
X165189700Y-55626785D02*
X165237319Y-55531547D01*
X165237319Y-55531547D02*
X165237319Y-55341071D01*
X165237319Y-55341071D02*
X165189700Y-55245833D01*
X165189700Y-55245833D02*
X165142080Y-55198214D01*
X165142080Y-55198214D02*
X165046842Y-55150595D01*
X165046842Y-55150595D02*
X164808747Y-55150595D01*
X164808747Y-55150595D02*
X164713509Y-55198214D01*
X164713509Y-55198214D02*
X164665890Y-55245833D01*
X164665890Y-55245833D02*
X164618271Y-55341071D01*
X164618271Y-55341071D02*
X164618271Y-55531547D01*
X164618271Y-55531547D02*
X164665890Y-55626785D01*
X164665890Y-55626785D02*
X164713509Y-55674404D01*
X164713509Y-55674404D02*
X164808747Y-55722023D01*
X164917319Y-52864404D02*
X163917319Y-52864404D01*
X164917319Y-52292976D02*
X164345890Y-52721547D01*
X163917319Y-52292976D02*
X164488747Y-52864404D01*
X56774819Y-114776785D02*
X55774819Y-114776785D01*
X55774819Y-114776785D02*
X55774819Y-114538690D01*
X55774819Y-114538690D02*
X55822438Y-114395833D01*
X55822438Y-114395833D02*
X55917676Y-114300595D01*
X55917676Y-114300595D02*
X56012914Y-114252976D01*
X56012914Y-114252976D02*
X56203390Y-114205357D01*
X56203390Y-114205357D02*
X56346247Y-114205357D01*
X56346247Y-114205357D02*
X56536723Y-114252976D01*
X56536723Y-114252976D02*
X56631961Y-114300595D01*
X56631961Y-114300595D02*
X56727200Y-114395833D01*
X56727200Y-114395833D02*
X56774819Y-114538690D01*
X56774819Y-114538690D02*
X56774819Y-114776785D01*
X55774819Y-113872023D02*
X55774819Y-113252976D01*
X55774819Y-113252976D02*
X56155771Y-113586309D01*
X56155771Y-113586309D02*
X56155771Y-113443452D01*
X56155771Y-113443452D02*
X56203390Y-113348214D01*
X56203390Y-113348214D02*
X56251009Y-113300595D01*
X56251009Y-113300595D02*
X56346247Y-113252976D01*
X56346247Y-113252976D02*
X56584342Y-113252976D01*
X56584342Y-113252976D02*
X56679580Y-113300595D01*
X56679580Y-113300595D02*
X56727200Y-113348214D01*
X56727200Y-113348214D02*
X56774819Y-113443452D01*
X56774819Y-113443452D02*
X56774819Y-113729166D01*
X56774819Y-113729166D02*
X56727200Y-113824404D01*
X56727200Y-113824404D02*
X56679580Y-113872023D01*
X55774819Y-112395833D02*
X55774819Y-112586309D01*
X55774819Y-112586309D02*
X55822438Y-112681547D01*
X55822438Y-112681547D02*
X55870057Y-112729166D01*
X55870057Y-112729166D02*
X56012914Y-112824404D01*
X56012914Y-112824404D02*
X56203390Y-112872023D01*
X56203390Y-112872023D02*
X56584342Y-112872023D01*
X56584342Y-112872023D02*
X56679580Y-112824404D01*
X56679580Y-112824404D02*
X56727200Y-112776785D01*
X56727200Y-112776785D02*
X56774819Y-112681547D01*
X56774819Y-112681547D02*
X56774819Y-112491071D01*
X56774819Y-112491071D02*
X56727200Y-112395833D01*
X56727200Y-112395833D02*
X56679580Y-112348214D01*
X56679580Y-112348214D02*
X56584342Y-112300595D01*
X56584342Y-112300595D02*
X56346247Y-112300595D01*
X56346247Y-112300595D02*
X56251009Y-112348214D01*
X56251009Y-112348214D02*
X56203390Y-112395833D01*
X56203390Y-112395833D02*
X56155771Y-112491071D01*
X56155771Y-112491071D02*
X56155771Y-112681547D01*
X56155771Y-112681547D02*
X56203390Y-112776785D01*
X56203390Y-112776785D02*
X56251009Y-112824404D01*
X56251009Y-112824404D02*
X56346247Y-112872023D01*
X56454819Y-110014404D02*
X55454819Y-110014404D01*
X56454819Y-109442976D02*
X55883390Y-109871547D01*
X55454819Y-109442976D02*
X56026247Y-110014404D01*
X123449819Y-95726785D02*
X122449819Y-95726785D01*
X122449819Y-95726785D02*
X122449819Y-95488690D01*
X122449819Y-95488690D02*
X122497438Y-95345833D01*
X122497438Y-95345833D02*
X122592676Y-95250595D01*
X122592676Y-95250595D02*
X122687914Y-95202976D01*
X122687914Y-95202976D02*
X122878390Y-95155357D01*
X122878390Y-95155357D02*
X123021247Y-95155357D01*
X123021247Y-95155357D02*
X123211723Y-95202976D01*
X123211723Y-95202976D02*
X123306961Y-95250595D01*
X123306961Y-95250595D02*
X123402200Y-95345833D01*
X123402200Y-95345833D02*
X123449819Y-95488690D01*
X123449819Y-95488690D02*
X123449819Y-95726785D01*
X122449819Y-94822023D02*
X122449819Y-94202976D01*
X122449819Y-94202976D02*
X122830771Y-94536309D01*
X122830771Y-94536309D02*
X122830771Y-94393452D01*
X122830771Y-94393452D02*
X122878390Y-94298214D01*
X122878390Y-94298214D02*
X122926009Y-94250595D01*
X122926009Y-94250595D02*
X123021247Y-94202976D01*
X123021247Y-94202976D02*
X123259342Y-94202976D01*
X123259342Y-94202976D02*
X123354580Y-94250595D01*
X123354580Y-94250595D02*
X123402200Y-94298214D01*
X123402200Y-94298214D02*
X123449819Y-94393452D01*
X123449819Y-94393452D02*
X123449819Y-94679166D01*
X123449819Y-94679166D02*
X123402200Y-94774404D01*
X123402200Y-94774404D02*
X123354580Y-94822023D01*
X122545057Y-93822023D02*
X122497438Y-93774404D01*
X122497438Y-93774404D02*
X122449819Y-93679166D01*
X122449819Y-93679166D02*
X122449819Y-93441071D01*
X122449819Y-93441071D02*
X122497438Y-93345833D01*
X122497438Y-93345833D02*
X122545057Y-93298214D01*
X122545057Y-93298214D02*
X122640295Y-93250595D01*
X122640295Y-93250595D02*
X122735533Y-93250595D01*
X122735533Y-93250595D02*
X122878390Y-93298214D01*
X122878390Y-93298214D02*
X123449819Y-93869642D01*
X123449819Y-93869642D02*
X123449819Y-93250595D01*
X123129819Y-90964404D02*
X122129819Y-90964404D01*
X123129819Y-90392976D02*
X122558390Y-90821547D01*
X122129819Y-90392976D02*
X122701247Y-90964404D01*
X52012319Y-57626785D02*
X51012319Y-57626785D01*
X51012319Y-57626785D02*
X51012319Y-57388690D01*
X51012319Y-57388690D02*
X51059938Y-57245833D01*
X51059938Y-57245833D02*
X51155176Y-57150595D01*
X51155176Y-57150595D02*
X51250414Y-57102976D01*
X51250414Y-57102976D02*
X51440890Y-57055357D01*
X51440890Y-57055357D02*
X51583747Y-57055357D01*
X51583747Y-57055357D02*
X51774223Y-57102976D01*
X51774223Y-57102976D02*
X51869461Y-57150595D01*
X51869461Y-57150595D02*
X51964700Y-57245833D01*
X51964700Y-57245833D02*
X52012319Y-57388690D01*
X52012319Y-57388690D02*
X52012319Y-57626785D01*
X52012319Y-56102976D02*
X52012319Y-56674404D01*
X52012319Y-56388690D02*
X51012319Y-56388690D01*
X51012319Y-56388690D02*
X51155176Y-56483928D01*
X51155176Y-56483928D02*
X51250414Y-56579166D01*
X51250414Y-56579166D02*
X51298033Y-56674404D01*
X52012319Y-55150595D02*
X52012319Y-55722023D01*
X52012319Y-55436309D02*
X51012319Y-55436309D01*
X51012319Y-55436309D02*
X51155176Y-55531547D01*
X51155176Y-55531547D02*
X51250414Y-55626785D01*
X51250414Y-55626785D02*
X51298033Y-55722023D01*
X51692319Y-52864404D02*
X50692319Y-52864404D01*
X51692319Y-52292976D02*
X51120890Y-52721547D01*
X50692319Y-52292976D02*
X51263747Y-52864404D01*
X113924819Y-133826785D02*
X112924819Y-133826785D01*
X112924819Y-133826785D02*
X112924819Y-133588690D01*
X112924819Y-133588690D02*
X112972438Y-133445833D01*
X112972438Y-133445833D02*
X113067676Y-133350595D01*
X113067676Y-133350595D02*
X113162914Y-133302976D01*
X113162914Y-133302976D02*
X113353390Y-133255357D01*
X113353390Y-133255357D02*
X113496247Y-133255357D01*
X113496247Y-133255357D02*
X113686723Y-133302976D01*
X113686723Y-133302976D02*
X113781961Y-133350595D01*
X113781961Y-133350595D02*
X113877200Y-133445833D01*
X113877200Y-133445833D02*
X113924819Y-133588690D01*
X113924819Y-133588690D02*
X113924819Y-133826785D01*
X113258152Y-132398214D02*
X113924819Y-132398214D01*
X112877200Y-132636309D02*
X113591485Y-132874404D01*
X113591485Y-132874404D02*
X113591485Y-132255357D01*
X112924819Y-131398214D02*
X112924819Y-131874404D01*
X112924819Y-131874404D02*
X113401009Y-131922023D01*
X113401009Y-131922023D02*
X113353390Y-131874404D01*
X113353390Y-131874404D02*
X113305771Y-131779166D01*
X113305771Y-131779166D02*
X113305771Y-131541071D01*
X113305771Y-131541071D02*
X113353390Y-131445833D01*
X113353390Y-131445833D02*
X113401009Y-131398214D01*
X113401009Y-131398214D02*
X113496247Y-131350595D01*
X113496247Y-131350595D02*
X113734342Y-131350595D01*
X113734342Y-131350595D02*
X113829580Y-131398214D01*
X113829580Y-131398214D02*
X113877200Y-131445833D01*
X113877200Y-131445833D02*
X113924819Y-131541071D01*
X113924819Y-131541071D02*
X113924819Y-131779166D01*
X113924819Y-131779166D02*
X113877200Y-131874404D01*
X113877200Y-131874404D02*
X113829580Y-131922023D01*
X113604819Y-129064404D02*
X112604819Y-129064404D01*
X113604819Y-128492976D02*
X113033390Y-128921547D01*
X112604819Y-128492976D02*
X113176247Y-129064404D01*
X20666666Y-2454819D02*
X20666666Y-3169104D01*
X20666666Y-3169104D02*
X20619047Y-3311961D01*
X20619047Y-3311961D02*
X20523809Y-3407200D01*
X20523809Y-3407200D02*
X20380952Y-3454819D01*
X20380952Y-3454819D02*
X20285714Y-3454819D01*
X21666666Y-3454819D02*
X21095238Y-3454819D01*
X21380952Y-3454819D02*
X21380952Y-2454819D01*
X21380952Y-2454819D02*
X21285714Y-2597676D01*
X21285714Y-2597676D02*
X21190476Y-2692914D01*
X21190476Y-2692914D02*
X21095238Y-2740533D01*
X42487319Y-76676785D02*
X41487319Y-76676785D01*
X41487319Y-76676785D02*
X41487319Y-76438690D01*
X41487319Y-76438690D02*
X41534938Y-76295833D01*
X41534938Y-76295833D02*
X41630176Y-76200595D01*
X41630176Y-76200595D02*
X41725414Y-76152976D01*
X41725414Y-76152976D02*
X41915890Y-76105357D01*
X41915890Y-76105357D02*
X42058747Y-76105357D01*
X42058747Y-76105357D02*
X42249223Y-76152976D01*
X42249223Y-76152976D02*
X42344461Y-76200595D01*
X42344461Y-76200595D02*
X42439700Y-76295833D01*
X42439700Y-76295833D02*
X42487319Y-76438690D01*
X42487319Y-76438690D02*
X42487319Y-76676785D01*
X42487319Y-75152976D02*
X42487319Y-75724404D01*
X42487319Y-75438690D02*
X41487319Y-75438690D01*
X41487319Y-75438690D02*
X41630176Y-75533928D01*
X41630176Y-75533928D02*
X41725414Y-75629166D01*
X41725414Y-75629166D02*
X41773033Y-75724404D01*
X42487319Y-74676785D02*
X42487319Y-74486309D01*
X42487319Y-74486309D02*
X42439700Y-74391071D01*
X42439700Y-74391071D02*
X42392080Y-74343452D01*
X42392080Y-74343452D02*
X42249223Y-74248214D01*
X42249223Y-74248214D02*
X42058747Y-74200595D01*
X42058747Y-74200595D02*
X41677795Y-74200595D01*
X41677795Y-74200595D02*
X41582557Y-74248214D01*
X41582557Y-74248214D02*
X41534938Y-74295833D01*
X41534938Y-74295833D02*
X41487319Y-74391071D01*
X41487319Y-74391071D02*
X41487319Y-74581547D01*
X41487319Y-74581547D02*
X41534938Y-74676785D01*
X41534938Y-74676785D02*
X41582557Y-74724404D01*
X41582557Y-74724404D02*
X41677795Y-74772023D01*
X41677795Y-74772023D02*
X41915890Y-74772023D01*
X41915890Y-74772023D02*
X42011128Y-74724404D01*
X42011128Y-74724404D02*
X42058747Y-74676785D01*
X42058747Y-74676785D02*
X42106366Y-74581547D01*
X42106366Y-74581547D02*
X42106366Y-74391071D01*
X42106366Y-74391071D02*
X42058747Y-74295833D01*
X42058747Y-74295833D02*
X42011128Y-74248214D01*
X42011128Y-74248214D02*
X41915890Y-74200595D01*
X42167319Y-71914404D02*
X41167319Y-71914404D01*
X42167319Y-71342976D02*
X41595890Y-71771547D01*
X41167319Y-71342976D02*
X41738747Y-71914404D01*
X94874819Y-133826785D02*
X93874819Y-133826785D01*
X93874819Y-133826785D02*
X93874819Y-133588690D01*
X93874819Y-133588690D02*
X93922438Y-133445833D01*
X93922438Y-133445833D02*
X94017676Y-133350595D01*
X94017676Y-133350595D02*
X94112914Y-133302976D01*
X94112914Y-133302976D02*
X94303390Y-133255357D01*
X94303390Y-133255357D02*
X94446247Y-133255357D01*
X94446247Y-133255357D02*
X94636723Y-133302976D01*
X94636723Y-133302976D02*
X94731961Y-133350595D01*
X94731961Y-133350595D02*
X94827200Y-133445833D01*
X94827200Y-133445833D02*
X94874819Y-133588690D01*
X94874819Y-133588690D02*
X94874819Y-133826785D01*
X94208152Y-132398214D02*
X94874819Y-132398214D01*
X93827200Y-132636309D02*
X94541485Y-132874404D01*
X94541485Y-132874404D02*
X94541485Y-132255357D01*
X94208152Y-131445833D02*
X94874819Y-131445833D01*
X93827200Y-131683928D02*
X94541485Y-131922023D01*
X94541485Y-131922023D02*
X94541485Y-131302976D01*
X94554819Y-129064404D02*
X93554819Y-129064404D01*
X94554819Y-128492976D02*
X93983390Y-128921547D01*
X93554819Y-128492976D02*
X94126247Y-129064404D01*
X118687319Y-76676785D02*
X117687319Y-76676785D01*
X117687319Y-76676785D02*
X117687319Y-76438690D01*
X117687319Y-76438690D02*
X117734938Y-76295833D01*
X117734938Y-76295833D02*
X117830176Y-76200595D01*
X117830176Y-76200595D02*
X117925414Y-76152976D01*
X117925414Y-76152976D02*
X118115890Y-76105357D01*
X118115890Y-76105357D02*
X118258747Y-76105357D01*
X118258747Y-76105357D02*
X118449223Y-76152976D01*
X118449223Y-76152976D02*
X118544461Y-76200595D01*
X118544461Y-76200595D02*
X118639700Y-76295833D01*
X118639700Y-76295833D02*
X118687319Y-76438690D01*
X118687319Y-76438690D02*
X118687319Y-76676785D01*
X117782557Y-75724404D02*
X117734938Y-75676785D01*
X117734938Y-75676785D02*
X117687319Y-75581547D01*
X117687319Y-75581547D02*
X117687319Y-75343452D01*
X117687319Y-75343452D02*
X117734938Y-75248214D01*
X117734938Y-75248214D02*
X117782557Y-75200595D01*
X117782557Y-75200595D02*
X117877795Y-75152976D01*
X117877795Y-75152976D02*
X117973033Y-75152976D01*
X117973033Y-75152976D02*
X118115890Y-75200595D01*
X118115890Y-75200595D02*
X118687319Y-75772023D01*
X118687319Y-75772023D02*
X118687319Y-75152976D01*
X117687319Y-74819642D02*
X117687319Y-74200595D01*
X117687319Y-74200595D02*
X118068271Y-74533928D01*
X118068271Y-74533928D02*
X118068271Y-74391071D01*
X118068271Y-74391071D02*
X118115890Y-74295833D01*
X118115890Y-74295833D02*
X118163509Y-74248214D01*
X118163509Y-74248214D02*
X118258747Y-74200595D01*
X118258747Y-74200595D02*
X118496842Y-74200595D01*
X118496842Y-74200595D02*
X118592080Y-74248214D01*
X118592080Y-74248214D02*
X118639700Y-74295833D01*
X118639700Y-74295833D02*
X118687319Y-74391071D01*
X118687319Y-74391071D02*
X118687319Y-74676785D01*
X118687319Y-74676785D02*
X118639700Y-74772023D01*
X118639700Y-74772023D02*
X118592080Y-74819642D01*
X118367319Y-71914404D02*
X117367319Y-71914404D01*
X118367319Y-71342976D02*
X117795890Y-71771547D01*
X117367319Y-71342976D02*
X117938747Y-71914404D01*
X71062319Y-57626785D02*
X70062319Y-57626785D01*
X70062319Y-57626785D02*
X70062319Y-57388690D01*
X70062319Y-57388690D02*
X70109938Y-57245833D01*
X70109938Y-57245833D02*
X70205176Y-57150595D01*
X70205176Y-57150595D02*
X70300414Y-57102976D01*
X70300414Y-57102976D02*
X70490890Y-57055357D01*
X70490890Y-57055357D02*
X70633747Y-57055357D01*
X70633747Y-57055357D02*
X70824223Y-57102976D01*
X70824223Y-57102976D02*
X70919461Y-57150595D01*
X70919461Y-57150595D02*
X71014700Y-57245833D01*
X71014700Y-57245833D02*
X71062319Y-57388690D01*
X71062319Y-57388690D02*
X71062319Y-57626785D01*
X71062319Y-56102976D02*
X71062319Y-56674404D01*
X71062319Y-56388690D02*
X70062319Y-56388690D01*
X70062319Y-56388690D02*
X70205176Y-56483928D01*
X70205176Y-56483928D02*
X70300414Y-56579166D01*
X70300414Y-56579166D02*
X70348033Y-56674404D01*
X70157557Y-55722023D02*
X70109938Y-55674404D01*
X70109938Y-55674404D02*
X70062319Y-55579166D01*
X70062319Y-55579166D02*
X70062319Y-55341071D01*
X70062319Y-55341071D02*
X70109938Y-55245833D01*
X70109938Y-55245833D02*
X70157557Y-55198214D01*
X70157557Y-55198214D02*
X70252795Y-55150595D01*
X70252795Y-55150595D02*
X70348033Y-55150595D01*
X70348033Y-55150595D02*
X70490890Y-55198214D01*
X70490890Y-55198214D02*
X71062319Y-55769642D01*
X71062319Y-55769642D02*
X71062319Y-55150595D01*
X70742319Y-52864404D02*
X69742319Y-52864404D01*
X70742319Y-52292976D02*
X70170890Y-52721547D01*
X69742319Y-52292976D02*
X70313747Y-52864404D01*
X104399819Y-95726785D02*
X103399819Y-95726785D01*
X103399819Y-95726785D02*
X103399819Y-95488690D01*
X103399819Y-95488690D02*
X103447438Y-95345833D01*
X103447438Y-95345833D02*
X103542676Y-95250595D01*
X103542676Y-95250595D02*
X103637914Y-95202976D01*
X103637914Y-95202976D02*
X103828390Y-95155357D01*
X103828390Y-95155357D02*
X103971247Y-95155357D01*
X103971247Y-95155357D02*
X104161723Y-95202976D01*
X104161723Y-95202976D02*
X104256961Y-95250595D01*
X104256961Y-95250595D02*
X104352200Y-95345833D01*
X104352200Y-95345833D02*
X104399819Y-95488690D01*
X104399819Y-95488690D02*
X104399819Y-95726785D01*
X103399819Y-94822023D02*
X103399819Y-94202976D01*
X103399819Y-94202976D02*
X103780771Y-94536309D01*
X103780771Y-94536309D02*
X103780771Y-94393452D01*
X103780771Y-94393452D02*
X103828390Y-94298214D01*
X103828390Y-94298214D02*
X103876009Y-94250595D01*
X103876009Y-94250595D02*
X103971247Y-94202976D01*
X103971247Y-94202976D02*
X104209342Y-94202976D01*
X104209342Y-94202976D02*
X104304580Y-94250595D01*
X104304580Y-94250595D02*
X104352200Y-94298214D01*
X104352200Y-94298214D02*
X104399819Y-94393452D01*
X104399819Y-94393452D02*
X104399819Y-94679166D01*
X104399819Y-94679166D02*
X104352200Y-94774404D01*
X104352200Y-94774404D02*
X104304580Y-94822023D01*
X104399819Y-93250595D02*
X104399819Y-93822023D01*
X104399819Y-93536309D02*
X103399819Y-93536309D01*
X103399819Y-93536309D02*
X103542676Y-93631547D01*
X103542676Y-93631547D02*
X103637914Y-93726785D01*
X103637914Y-93726785D02*
X103685533Y-93822023D01*
X104079819Y-90964404D02*
X103079819Y-90964404D01*
X104079819Y-90392976D02*
X103508390Y-90821547D01*
X103079819Y-90392976D02*
X103651247Y-90964404D01*
X80587319Y-76676785D02*
X79587319Y-76676785D01*
X79587319Y-76676785D02*
X79587319Y-76438690D01*
X79587319Y-76438690D02*
X79634938Y-76295833D01*
X79634938Y-76295833D02*
X79730176Y-76200595D01*
X79730176Y-76200595D02*
X79825414Y-76152976D01*
X79825414Y-76152976D02*
X80015890Y-76105357D01*
X80015890Y-76105357D02*
X80158747Y-76105357D01*
X80158747Y-76105357D02*
X80349223Y-76152976D01*
X80349223Y-76152976D02*
X80444461Y-76200595D01*
X80444461Y-76200595D02*
X80539700Y-76295833D01*
X80539700Y-76295833D02*
X80587319Y-76438690D01*
X80587319Y-76438690D02*
X80587319Y-76676785D01*
X79682557Y-75724404D02*
X79634938Y-75676785D01*
X79634938Y-75676785D02*
X79587319Y-75581547D01*
X79587319Y-75581547D02*
X79587319Y-75343452D01*
X79587319Y-75343452D02*
X79634938Y-75248214D01*
X79634938Y-75248214D02*
X79682557Y-75200595D01*
X79682557Y-75200595D02*
X79777795Y-75152976D01*
X79777795Y-75152976D02*
X79873033Y-75152976D01*
X79873033Y-75152976D02*
X80015890Y-75200595D01*
X80015890Y-75200595D02*
X80587319Y-75772023D01*
X80587319Y-75772023D02*
X80587319Y-75152976D01*
X80587319Y-74200595D02*
X80587319Y-74772023D01*
X80587319Y-74486309D02*
X79587319Y-74486309D01*
X79587319Y-74486309D02*
X79730176Y-74581547D01*
X79730176Y-74581547D02*
X79825414Y-74676785D01*
X79825414Y-74676785D02*
X79873033Y-74772023D01*
X80267319Y-71914404D02*
X79267319Y-71914404D01*
X80267319Y-71342976D02*
X79695890Y-71771547D01*
X79267319Y-71342976D02*
X79838747Y-71914404D01*
X161549819Y-76676785D02*
X160549819Y-76676785D01*
X160549819Y-76676785D02*
X160549819Y-76438690D01*
X160549819Y-76438690D02*
X160597438Y-76295833D01*
X160597438Y-76295833D02*
X160692676Y-76200595D01*
X160692676Y-76200595D02*
X160787914Y-76152976D01*
X160787914Y-76152976D02*
X160978390Y-76105357D01*
X160978390Y-76105357D02*
X161121247Y-76105357D01*
X161121247Y-76105357D02*
X161311723Y-76152976D01*
X161311723Y-76152976D02*
X161406961Y-76200595D01*
X161406961Y-76200595D02*
X161502200Y-76295833D01*
X161502200Y-76295833D02*
X161549819Y-76438690D01*
X161549819Y-76438690D02*
X161549819Y-76676785D01*
X160645057Y-75724404D02*
X160597438Y-75676785D01*
X160597438Y-75676785D02*
X160549819Y-75581547D01*
X160549819Y-75581547D02*
X160549819Y-75343452D01*
X160549819Y-75343452D02*
X160597438Y-75248214D01*
X160597438Y-75248214D02*
X160645057Y-75200595D01*
X160645057Y-75200595D02*
X160740295Y-75152976D01*
X160740295Y-75152976D02*
X160835533Y-75152976D01*
X160835533Y-75152976D02*
X160978390Y-75200595D01*
X160978390Y-75200595D02*
X161549819Y-75772023D01*
X161549819Y-75772023D02*
X161549819Y-75152976D01*
X160549819Y-74248214D02*
X160549819Y-74724404D01*
X160549819Y-74724404D02*
X161026009Y-74772023D01*
X161026009Y-74772023D02*
X160978390Y-74724404D01*
X160978390Y-74724404D02*
X160930771Y-74629166D01*
X160930771Y-74629166D02*
X160930771Y-74391071D01*
X160930771Y-74391071D02*
X160978390Y-74295833D01*
X160978390Y-74295833D02*
X161026009Y-74248214D01*
X161026009Y-74248214D02*
X161121247Y-74200595D01*
X161121247Y-74200595D02*
X161359342Y-74200595D01*
X161359342Y-74200595D02*
X161454580Y-74248214D01*
X161454580Y-74248214D02*
X161502200Y-74295833D01*
X161502200Y-74295833D02*
X161549819Y-74391071D01*
X161549819Y-74391071D02*
X161549819Y-74629166D01*
X161549819Y-74629166D02*
X161502200Y-74724404D01*
X161502200Y-74724404D02*
X161454580Y-74772023D01*
X161229819Y-71914404D02*
X160229819Y-71914404D01*
X161229819Y-71342976D02*
X160658390Y-71771547D01*
X160229819Y-71342976D02*
X160801247Y-71914404D01*
X80587319Y-33338094D02*
X79587319Y-33338094D01*
X79587319Y-33338094D02*
X79587319Y-33099999D01*
X79587319Y-33099999D02*
X79634938Y-32957142D01*
X79634938Y-32957142D02*
X79730176Y-32861904D01*
X79730176Y-32861904D02*
X79825414Y-32814285D01*
X79825414Y-32814285D02*
X80015890Y-32766666D01*
X80015890Y-32766666D02*
X80158747Y-32766666D01*
X80158747Y-32766666D02*
X80349223Y-32814285D01*
X80349223Y-32814285D02*
X80444461Y-32861904D01*
X80444461Y-32861904D02*
X80539700Y-32957142D01*
X80539700Y-32957142D02*
X80587319Y-33099999D01*
X80587319Y-33099999D02*
X80587319Y-33338094D01*
X79587319Y-32433332D02*
X79587319Y-31814285D01*
X79587319Y-31814285D02*
X79968271Y-32147618D01*
X79968271Y-32147618D02*
X79968271Y-32004761D01*
X79968271Y-32004761D02*
X80015890Y-31909523D01*
X80015890Y-31909523D02*
X80063509Y-31861904D01*
X80063509Y-31861904D02*
X80158747Y-31814285D01*
X80158747Y-31814285D02*
X80396842Y-31814285D01*
X80396842Y-31814285D02*
X80492080Y-31861904D01*
X80492080Y-31861904D02*
X80539700Y-31909523D01*
X80539700Y-31909523D02*
X80587319Y-32004761D01*
X80587319Y-32004761D02*
X80587319Y-32290475D01*
X80587319Y-32290475D02*
X80539700Y-32385713D01*
X80539700Y-32385713D02*
X80492080Y-32433332D01*
X80267319Y-29051904D02*
X79267319Y-29051904D01*
X80267319Y-28480476D02*
X79695890Y-28909047D01*
X79267319Y-28480476D02*
X79838747Y-29051904D01*
X39473247Y-6362809D02*
X39511342Y-6248523D01*
X39511342Y-6248523D02*
X39549438Y-6210428D01*
X39549438Y-6210428D02*
X39625628Y-6172332D01*
X39625628Y-6172332D02*
X39739914Y-6172332D01*
X39739914Y-6172332D02*
X39816104Y-6210428D01*
X39816104Y-6210428D02*
X39854200Y-6248523D01*
X39854200Y-6248523D02*
X39892295Y-6324713D01*
X39892295Y-6324713D02*
X39892295Y-6629475D01*
X39892295Y-6629475D02*
X39092295Y-6629475D01*
X39092295Y-6629475D02*
X39092295Y-6362809D01*
X39092295Y-6362809D02*
X39130390Y-6286618D01*
X39130390Y-6286618D02*
X39168485Y-6248523D01*
X39168485Y-6248523D02*
X39244676Y-6210428D01*
X39244676Y-6210428D02*
X39320866Y-6210428D01*
X39320866Y-6210428D02*
X39397057Y-6248523D01*
X39397057Y-6248523D02*
X39435152Y-6286618D01*
X39435152Y-6286618D02*
X39473247Y-6362809D01*
X39473247Y-6362809D02*
X39473247Y-6629475D01*
X39092295Y-5677094D02*
X39092295Y-5600904D01*
X39092295Y-5600904D02*
X39130390Y-5524713D01*
X39130390Y-5524713D02*
X39168485Y-5486618D01*
X39168485Y-5486618D02*
X39244676Y-5448523D01*
X39244676Y-5448523D02*
X39397057Y-5410428D01*
X39397057Y-5410428D02*
X39587533Y-5410428D01*
X39587533Y-5410428D02*
X39739914Y-5448523D01*
X39739914Y-5448523D02*
X39816104Y-5486618D01*
X39816104Y-5486618D02*
X39854200Y-5524713D01*
X39854200Y-5524713D02*
X39892295Y-5600904D01*
X39892295Y-5600904D02*
X39892295Y-5677094D01*
X39892295Y-5677094D02*
X39854200Y-5753285D01*
X39854200Y-5753285D02*
X39816104Y-5791380D01*
X39816104Y-5791380D02*
X39739914Y-5829475D01*
X39739914Y-5829475D02*
X39587533Y-5867571D01*
X39587533Y-5867571D02*
X39397057Y-5867571D01*
X39397057Y-5867571D02*
X39244676Y-5829475D01*
X39244676Y-5829475D02*
X39168485Y-5791380D01*
X39168485Y-5791380D02*
X39130390Y-5753285D01*
X39130390Y-5753285D02*
X39092295Y-5677094D01*
X66049366Y-7233333D02*
X66049366Y-7466666D01*
X66416033Y-7466666D02*
X65716033Y-7466666D01*
X65716033Y-7466666D02*
X65716033Y-7133333D01*
X65716033Y-6733333D02*
X65716033Y-6666666D01*
X65716033Y-6666666D02*
X65749366Y-6599999D01*
X65749366Y-6599999D02*
X65782700Y-6566666D01*
X65782700Y-6566666D02*
X65849366Y-6533333D01*
X65849366Y-6533333D02*
X65982700Y-6499999D01*
X65982700Y-6499999D02*
X66149366Y-6499999D01*
X66149366Y-6499999D02*
X66282700Y-6533333D01*
X66282700Y-6533333D02*
X66349366Y-6566666D01*
X66349366Y-6566666D02*
X66382700Y-6599999D01*
X66382700Y-6599999D02*
X66416033Y-6666666D01*
X66416033Y-6666666D02*
X66416033Y-6733333D01*
X66416033Y-6733333D02*
X66382700Y-6799999D01*
X66382700Y-6799999D02*
X66349366Y-6833333D01*
X66349366Y-6833333D02*
X66282700Y-6866666D01*
X66282700Y-6866666D02*
X66149366Y-6899999D01*
X66149366Y-6899999D02*
X65982700Y-6899999D01*
X65982700Y-6899999D02*
X65849366Y-6866666D01*
X65849366Y-6866666D02*
X65782700Y-6833333D01*
X65782700Y-6833333D02*
X65749366Y-6799999D01*
X65749366Y-6799999D02*
X65716033Y-6733333D01*
X55132295Y-17551475D02*
X54332295Y-17551475D01*
X54332295Y-17551475D02*
X54332295Y-17360999D01*
X54332295Y-17360999D02*
X54370390Y-17246713D01*
X54370390Y-17246713D02*
X54446580Y-17170523D01*
X54446580Y-17170523D02*
X54522771Y-17132428D01*
X54522771Y-17132428D02*
X54675152Y-17094332D01*
X54675152Y-17094332D02*
X54789438Y-17094332D01*
X54789438Y-17094332D02*
X54941819Y-17132428D01*
X54941819Y-17132428D02*
X55018009Y-17170523D01*
X55018009Y-17170523D02*
X55094200Y-17246713D01*
X55094200Y-17246713D02*
X55132295Y-17360999D01*
X55132295Y-17360999D02*
X55132295Y-17551475D01*
X54598961Y-16408618D02*
X55132295Y-16408618D01*
X54294200Y-16599094D02*
X54865628Y-16789571D01*
X54865628Y-16789571D02*
X54865628Y-16294332D01*
X64873247Y-6362809D02*
X64911342Y-6248523D01*
X64911342Y-6248523D02*
X64949438Y-6210428D01*
X64949438Y-6210428D02*
X65025628Y-6172332D01*
X65025628Y-6172332D02*
X65139914Y-6172332D01*
X65139914Y-6172332D02*
X65216104Y-6210428D01*
X65216104Y-6210428D02*
X65254200Y-6248523D01*
X65254200Y-6248523D02*
X65292295Y-6324713D01*
X65292295Y-6324713D02*
X65292295Y-6629475D01*
X65292295Y-6629475D02*
X64492295Y-6629475D01*
X64492295Y-6629475D02*
X64492295Y-6362809D01*
X64492295Y-6362809D02*
X64530390Y-6286618D01*
X64530390Y-6286618D02*
X64568485Y-6248523D01*
X64568485Y-6248523D02*
X64644676Y-6210428D01*
X64644676Y-6210428D02*
X64720866Y-6210428D01*
X64720866Y-6210428D02*
X64797057Y-6248523D01*
X64797057Y-6248523D02*
X64835152Y-6286618D01*
X64835152Y-6286618D02*
X64873247Y-6362809D01*
X64873247Y-6362809D02*
X64873247Y-6629475D01*
X64568485Y-5867571D02*
X64530390Y-5829475D01*
X64530390Y-5829475D02*
X64492295Y-5753285D01*
X64492295Y-5753285D02*
X64492295Y-5562809D01*
X64492295Y-5562809D02*
X64530390Y-5486618D01*
X64530390Y-5486618D02*
X64568485Y-5448523D01*
X64568485Y-5448523D02*
X64644676Y-5410428D01*
X64644676Y-5410428D02*
X64720866Y-5410428D01*
X64720866Y-5410428D02*
X64835152Y-5448523D01*
X64835152Y-5448523D02*
X65292295Y-5905666D01*
X65292295Y-5905666D02*
X65292295Y-5410428D01*
X66186104Y-11633332D02*
X66224200Y-11671428D01*
X66224200Y-11671428D02*
X66262295Y-11785713D01*
X66262295Y-11785713D02*
X66262295Y-11861904D01*
X66262295Y-11861904D02*
X66224200Y-11976190D01*
X66224200Y-11976190D02*
X66148009Y-12052380D01*
X66148009Y-12052380D02*
X66071819Y-12090475D01*
X66071819Y-12090475D02*
X65919438Y-12128571D01*
X65919438Y-12128571D02*
X65805152Y-12128571D01*
X65805152Y-12128571D02*
X65652771Y-12090475D01*
X65652771Y-12090475D02*
X65576580Y-12052380D01*
X65576580Y-12052380D02*
X65500390Y-11976190D01*
X65500390Y-11976190D02*
X65462295Y-11861904D01*
X65462295Y-11861904D02*
X65462295Y-11785713D01*
X65462295Y-11785713D02*
X65500390Y-11671428D01*
X65500390Y-11671428D02*
X65538485Y-11633332D01*
X65462295Y-11366666D02*
X65462295Y-10833332D01*
X65462295Y-10833332D02*
X66262295Y-11176190D01*
X62333247Y-6362809D02*
X62371342Y-6248523D01*
X62371342Y-6248523D02*
X62409438Y-6210428D01*
X62409438Y-6210428D02*
X62485628Y-6172332D01*
X62485628Y-6172332D02*
X62599914Y-6172332D01*
X62599914Y-6172332D02*
X62676104Y-6210428D01*
X62676104Y-6210428D02*
X62714200Y-6248523D01*
X62714200Y-6248523D02*
X62752295Y-6324713D01*
X62752295Y-6324713D02*
X62752295Y-6629475D01*
X62752295Y-6629475D02*
X61952295Y-6629475D01*
X61952295Y-6629475D02*
X61952295Y-6362809D01*
X61952295Y-6362809D02*
X61990390Y-6286618D01*
X61990390Y-6286618D02*
X62028485Y-6248523D01*
X62028485Y-6248523D02*
X62104676Y-6210428D01*
X62104676Y-6210428D02*
X62180866Y-6210428D01*
X62180866Y-6210428D02*
X62257057Y-6248523D01*
X62257057Y-6248523D02*
X62295152Y-6286618D01*
X62295152Y-6286618D02*
X62333247Y-6362809D01*
X62333247Y-6362809D02*
X62333247Y-6629475D01*
X61952295Y-5905666D02*
X61952295Y-5410428D01*
X61952295Y-5410428D02*
X62257057Y-5677094D01*
X62257057Y-5677094D02*
X62257057Y-5562809D01*
X62257057Y-5562809D02*
X62295152Y-5486618D01*
X62295152Y-5486618D02*
X62333247Y-5448523D01*
X62333247Y-5448523D02*
X62409438Y-5410428D01*
X62409438Y-5410428D02*
X62599914Y-5410428D01*
X62599914Y-5410428D02*
X62676104Y-5448523D01*
X62676104Y-5448523D02*
X62714200Y-5486618D01*
X62714200Y-5486618D02*
X62752295Y-5562809D01*
X62752295Y-5562809D02*
X62752295Y-5791380D01*
X62752295Y-5791380D02*
X62714200Y-5867571D01*
X62714200Y-5867571D02*
X62676104Y-5905666D01*
X54713247Y-6305666D02*
X54713247Y-6572332D01*
X55132295Y-6572332D02*
X54332295Y-6572332D01*
X54332295Y-6572332D02*
X54332295Y-6191380D01*
X54332295Y-5543761D02*
X54332295Y-5696142D01*
X54332295Y-5696142D02*
X54370390Y-5772333D01*
X54370390Y-5772333D02*
X54408485Y-5810428D01*
X54408485Y-5810428D02*
X54522771Y-5886618D01*
X54522771Y-5886618D02*
X54675152Y-5924714D01*
X54675152Y-5924714D02*
X54979914Y-5924714D01*
X54979914Y-5924714D02*
X55056104Y-5886618D01*
X55056104Y-5886618D02*
X55094200Y-5848523D01*
X55094200Y-5848523D02*
X55132295Y-5772333D01*
X55132295Y-5772333D02*
X55132295Y-5619952D01*
X55132295Y-5619952D02*
X55094200Y-5543761D01*
X55094200Y-5543761D02*
X55056104Y-5505666D01*
X55056104Y-5505666D02*
X54979914Y-5467571D01*
X54979914Y-5467571D02*
X54789438Y-5467571D01*
X54789438Y-5467571D02*
X54713247Y-5505666D01*
X54713247Y-5505666D02*
X54675152Y-5543761D01*
X54675152Y-5543761D02*
X54637057Y-5619952D01*
X54637057Y-5619952D02*
X54637057Y-5772333D01*
X54637057Y-5772333D02*
X54675152Y-5848523D01*
X54675152Y-5848523D02*
X54713247Y-5886618D01*
X54713247Y-5886618D02*
X54789438Y-5924714D01*
X41670390Y-6648523D02*
X41632295Y-6724713D01*
X41632295Y-6724713D02*
X41632295Y-6838999D01*
X41632295Y-6838999D02*
X41670390Y-6953285D01*
X41670390Y-6953285D02*
X41746580Y-7029475D01*
X41746580Y-7029475D02*
X41822771Y-7067570D01*
X41822771Y-7067570D02*
X41975152Y-7105666D01*
X41975152Y-7105666D02*
X42089438Y-7105666D01*
X42089438Y-7105666D02*
X42241819Y-7067570D01*
X42241819Y-7067570D02*
X42318009Y-7029475D01*
X42318009Y-7029475D02*
X42394200Y-6953285D01*
X42394200Y-6953285D02*
X42432295Y-6838999D01*
X42432295Y-6838999D02*
X42432295Y-6762808D01*
X42432295Y-6762808D02*
X42394200Y-6648523D01*
X42394200Y-6648523D02*
X42356104Y-6610427D01*
X42356104Y-6610427D02*
X42089438Y-6610427D01*
X42089438Y-6610427D02*
X42089438Y-6762808D01*
X42432295Y-6267570D02*
X41632295Y-6267570D01*
X41632295Y-6267570D02*
X42432295Y-5810427D01*
X42432295Y-5810427D02*
X41632295Y-5810427D01*
X42432295Y-5429475D02*
X41632295Y-5429475D01*
X41632295Y-5429475D02*
X41632295Y-5238999D01*
X41632295Y-5238999D02*
X41670390Y-5124713D01*
X41670390Y-5124713D02*
X41746580Y-5048523D01*
X41746580Y-5048523D02*
X41822771Y-5010428D01*
X41822771Y-5010428D02*
X41975152Y-4972332D01*
X41975152Y-4972332D02*
X42089438Y-4972332D01*
X42089438Y-4972332D02*
X42241819Y-5010428D01*
X42241819Y-5010428D02*
X42318009Y-5048523D01*
X42318009Y-5048523D02*
X42394200Y-5124713D01*
X42394200Y-5124713D02*
X42432295Y-5238999D01*
X42432295Y-5238999D02*
X42432295Y-5429475D01*
X44210390Y-17570523D02*
X44172295Y-17646713D01*
X44172295Y-17646713D02*
X44172295Y-17760999D01*
X44172295Y-17760999D02*
X44210390Y-17875285D01*
X44210390Y-17875285D02*
X44286580Y-17951475D01*
X44286580Y-17951475D02*
X44362771Y-17989570D01*
X44362771Y-17989570D02*
X44515152Y-18027666D01*
X44515152Y-18027666D02*
X44629438Y-18027666D01*
X44629438Y-18027666D02*
X44781819Y-17989570D01*
X44781819Y-17989570D02*
X44858009Y-17951475D01*
X44858009Y-17951475D02*
X44934200Y-17875285D01*
X44934200Y-17875285D02*
X44972295Y-17760999D01*
X44972295Y-17760999D02*
X44972295Y-17684808D01*
X44972295Y-17684808D02*
X44934200Y-17570523D01*
X44934200Y-17570523D02*
X44896104Y-17532427D01*
X44896104Y-17532427D02*
X44629438Y-17532427D01*
X44629438Y-17532427D02*
X44629438Y-17684808D01*
X44972295Y-17189570D02*
X44172295Y-17189570D01*
X44172295Y-17189570D02*
X44972295Y-16732427D01*
X44972295Y-16732427D02*
X44172295Y-16732427D01*
X44972295Y-16351475D02*
X44172295Y-16351475D01*
X44172295Y-16351475D02*
X44172295Y-16160999D01*
X44172295Y-16160999D02*
X44210390Y-16046713D01*
X44210390Y-16046713D02*
X44286580Y-15970523D01*
X44286580Y-15970523D02*
X44362771Y-15932428D01*
X44362771Y-15932428D02*
X44515152Y-15894332D01*
X44515152Y-15894332D02*
X44629438Y-15894332D01*
X44629438Y-15894332D02*
X44781819Y-15932428D01*
X44781819Y-15932428D02*
X44858009Y-15970523D01*
X44858009Y-15970523D02*
X44934200Y-16046713D01*
X44934200Y-16046713D02*
X44972295Y-16160999D01*
X44972295Y-16160999D02*
X44972295Y-16351475D01*
X66364543Y-5336149D02*
X66317403Y-5241868D01*
X66317403Y-5241868D02*
X66317403Y-5194728D01*
X66317403Y-5194728D02*
X66340973Y-5124017D01*
X66340973Y-5124017D02*
X66411683Y-5053307D01*
X66411683Y-5053307D02*
X66482394Y-5029736D01*
X66482394Y-5029736D02*
X66529535Y-5029736D01*
X66529535Y-5029736D02*
X66600245Y-5053307D01*
X66600245Y-5053307D02*
X66788807Y-5241868D01*
X66788807Y-5241868D02*
X66293832Y-5736843D01*
X66293832Y-5736843D02*
X66128841Y-5571852D01*
X66128841Y-5571852D02*
X66105271Y-5501141D01*
X66105271Y-5501141D02*
X66105271Y-5454000D01*
X66105271Y-5454000D02*
X66128841Y-5383290D01*
X66128841Y-5383290D02*
X66175981Y-5336149D01*
X66175981Y-5336149D02*
X66246692Y-5312579D01*
X66246692Y-5312579D02*
X66293832Y-5312579D01*
X66293832Y-5312579D02*
X66364543Y-5336149D01*
X66364543Y-5336149D02*
X66529535Y-5501141D01*
X65586726Y-5029736D02*
X65681006Y-5124017D01*
X65681006Y-5124017D02*
X65751717Y-5147588D01*
X65751717Y-5147588D02*
X65798858Y-5147588D01*
X65798858Y-5147588D02*
X65916709Y-5124017D01*
X65916709Y-5124017D02*
X66034560Y-5053307D01*
X66034560Y-5053307D02*
X66223122Y-4864745D01*
X66223122Y-4864745D02*
X66246692Y-4794034D01*
X66246692Y-4794034D02*
X66246692Y-4746894D01*
X66246692Y-4746894D02*
X66223122Y-4676183D01*
X66223122Y-4676183D02*
X66128841Y-4581902D01*
X66128841Y-4581902D02*
X66058130Y-4558332D01*
X66058130Y-4558332D02*
X66010990Y-4558332D01*
X66010990Y-4558332D02*
X65940279Y-4581902D01*
X65940279Y-4581902D02*
X65822428Y-4699753D01*
X65822428Y-4699753D02*
X65798858Y-4770464D01*
X65798858Y-4770464D02*
X65798858Y-4817604D01*
X65798858Y-4817604D02*
X65822428Y-4888315D01*
X65822428Y-4888315D02*
X65916709Y-4982596D01*
X65916709Y-4982596D02*
X65987419Y-5006166D01*
X65987419Y-5006166D02*
X66034560Y-5006166D01*
X66034560Y-5006166D02*
X66105271Y-4982596D01*
X46750390Y-17570523D02*
X46712295Y-17646713D01*
X46712295Y-17646713D02*
X46712295Y-17760999D01*
X46712295Y-17760999D02*
X46750390Y-17875285D01*
X46750390Y-17875285D02*
X46826580Y-17951475D01*
X46826580Y-17951475D02*
X46902771Y-17989570D01*
X46902771Y-17989570D02*
X47055152Y-18027666D01*
X47055152Y-18027666D02*
X47169438Y-18027666D01*
X47169438Y-18027666D02*
X47321819Y-17989570D01*
X47321819Y-17989570D02*
X47398009Y-17951475D01*
X47398009Y-17951475D02*
X47474200Y-17875285D01*
X47474200Y-17875285D02*
X47512295Y-17760999D01*
X47512295Y-17760999D02*
X47512295Y-17684808D01*
X47512295Y-17684808D02*
X47474200Y-17570523D01*
X47474200Y-17570523D02*
X47436104Y-17532427D01*
X47436104Y-17532427D02*
X47169438Y-17532427D01*
X47169438Y-17532427D02*
X47169438Y-17684808D01*
X47512295Y-17189570D02*
X46712295Y-17189570D01*
X46712295Y-17189570D02*
X47512295Y-16732427D01*
X47512295Y-16732427D02*
X46712295Y-16732427D01*
X47512295Y-16351475D02*
X46712295Y-16351475D01*
X46712295Y-16351475D02*
X46712295Y-16160999D01*
X46712295Y-16160999D02*
X46750390Y-16046713D01*
X46750390Y-16046713D02*
X46826580Y-15970523D01*
X46826580Y-15970523D02*
X46902771Y-15932428D01*
X46902771Y-15932428D02*
X47055152Y-15894332D01*
X47055152Y-15894332D02*
X47169438Y-15894332D01*
X47169438Y-15894332D02*
X47321819Y-15932428D01*
X47321819Y-15932428D02*
X47398009Y-15970523D01*
X47398009Y-15970523D02*
X47474200Y-16046713D01*
X47474200Y-16046713D02*
X47512295Y-16160999D01*
X47512295Y-16160999D02*
X47512295Y-16351475D01*
X46712295Y-7105666D02*
X47512295Y-6838999D01*
X47512295Y-6838999D02*
X46712295Y-6572333D01*
X47436104Y-5848523D02*
X47474200Y-5886619D01*
X47474200Y-5886619D02*
X47512295Y-6000904D01*
X47512295Y-6000904D02*
X47512295Y-6077095D01*
X47512295Y-6077095D02*
X47474200Y-6191381D01*
X47474200Y-6191381D02*
X47398009Y-6267571D01*
X47398009Y-6267571D02*
X47321819Y-6305666D01*
X47321819Y-6305666D02*
X47169438Y-6343762D01*
X47169438Y-6343762D02*
X47055152Y-6343762D01*
X47055152Y-6343762D02*
X46902771Y-6305666D01*
X46902771Y-6305666D02*
X46826580Y-6267571D01*
X46826580Y-6267571D02*
X46750390Y-6191381D01*
X46750390Y-6191381D02*
X46712295Y-6077095D01*
X46712295Y-6077095D02*
X46712295Y-6000904D01*
X46712295Y-6000904D02*
X46750390Y-5886619D01*
X46750390Y-5886619D02*
X46788485Y-5848523D01*
X47436104Y-5048523D02*
X47474200Y-5086619D01*
X47474200Y-5086619D02*
X47512295Y-5200904D01*
X47512295Y-5200904D02*
X47512295Y-5277095D01*
X47512295Y-5277095D02*
X47474200Y-5391381D01*
X47474200Y-5391381D02*
X47398009Y-5467571D01*
X47398009Y-5467571D02*
X47321819Y-5505666D01*
X47321819Y-5505666D02*
X47169438Y-5543762D01*
X47169438Y-5543762D02*
X47055152Y-5543762D01*
X47055152Y-5543762D02*
X46902771Y-5505666D01*
X46902771Y-5505666D02*
X46826580Y-5467571D01*
X46826580Y-5467571D02*
X46750390Y-5391381D01*
X46750390Y-5391381D02*
X46712295Y-5277095D01*
X46712295Y-5277095D02*
X46712295Y-5200904D01*
X46712295Y-5200904D02*
X46750390Y-5086619D01*
X46750390Y-5086619D02*
X46788485Y-5048523D01*
X57596104Y-17094332D02*
X57634200Y-17132428D01*
X57634200Y-17132428D02*
X57672295Y-17246713D01*
X57672295Y-17246713D02*
X57672295Y-17322904D01*
X57672295Y-17322904D02*
X57634200Y-17437190D01*
X57634200Y-17437190D02*
X57558009Y-17513380D01*
X57558009Y-17513380D02*
X57481819Y-17551475D01*
X57481819Y-17551475D02*
X57329438Y-17589571D01*
X57329438Y-17589571D02*
X57215152Y-17589571D01*
X57215152Y-17589571D02*
X57062771Y-17551475D01*
X57062771Y-17551475D02*
X56986580Y-17513380D01*
X56986580Y-17513380D02*
X56910390Y-17437190D01*
X56910390Y-17437190D02*
X56872295Y-17322904D01*
X56872295Y-17322904D02*
X56872295Y-17246713D01*
X56872295Y-17246713D02*
X56910390Y-17132428D01*
X56910390Y-17132428D02*
X56948485Y-17094332D01*
X56872295Y-16408618D02*
X56872295Y-16560999D01*
X56872295Y-16560999D02*
X56910390Y-16637190D01*
X56910390Y-16637190D02*
X56948485Y-16675285D01*
X56948485Y-16675285D02*
X57062771Y-16751475D01*
X57062771Y-16751475D02*
X57215152Y-16789571D01*
X57215152Y-16789571D02*
X57519914Y-16789571D01*
X57519914Y-16789571D02*
X57596104Y-16751475D01*
X57596104Y-16751475D02*
X57634200Y-16713380D01*
X57634200Y-16713380D02*
X57672295Y-16637190D01*
X57672295Y-16637190D02*
X57672295Y-16484809D01*
X57672295Y-16484809D02*
X57634200Y-16408618D01*
X57634200Y-16408618D02*
X57596104Y-16370523D01*
X57596104Y-16370523D02*
X57519914Y-16332428D01*
X57519914Y-16332428D02*
X57329438Y-16332428D01*
X57329438Y-16332428D02*
X57253247Y-16370523D01*
X57253247Y-16370523D02*
X57215152Y-16408618D01*
X57215152Y-16408618D02*
X57177057Y-16484809D01*
X57177057Y-16484809D02*
X57177057Y-16637190D01*
X57177057Y-16637190D02*
X57215152Y-16713380D01*
X57215152Y-16713380D02*
X57253247Y-16751475D01*
X57253247Y-16751475D02*
X57329438Y-16789571D01*
X66262295Y-14630475D02*
X65462295Y-14630475D01*
X65462295Y-14630475D02*
X65462295Y-14439999D01*
X65462295Y-14439999D02*
X65500390Y-14325713D01*
X65500390Y-14325713D02*
X65576580Y-14249523D01*
X65576580Y-14249523D02*
X65652771Y-14211428D01*
X65652771Y-14211428D02*
X65805152Y-14173332D01*
X65805152Y-14173332D02*
X65919438Y-14173332D01*
X65919438Y-14173332D02*
X66071819Y-14211428D01*
X66071819Y-14211428D02*
X66148009Y-14249523D01*
X66148009Y-14249523D02*
X66224200Y-14325713D01*
X66224200Y-14325713D02*
X66262295Y-14439999D01*
X66262295Y-14439999D02*
X66262295Y-14630475D01*
X65462295Y-13449523D02*
X65462295Y-13830475D01*
X65462295Y-13830475D02*
X65843247Y-13868571D01*
X65843247Y-13868571D02*
X65805152Y-13830475D01*
X65805152Y-13830475D02*
X65767057Y-13754285D01*
X65767057Y-13754285D02*
X65767057Y-13563809D01*
X65767057Y-13563809D02*
X65805152Y-13487618D01*
X65805152Y-13487618D02*
X65843247Y-13449523D01*
X65843247Y-13449523D02*
X65919438Y-13411428D01*
X65919438Y-13411428D02*
X66109914Y-13411428D01*
X66109914Y-13411428D02*
X66186104Y-13449523D01*
X66186104Y-13449523D02*
X66224200Y-13487618D01*
X66224200Y-13487618D02*
X66262295Y-13563809D01*
X66262295Y-13563809D02*
X66262295Y-13754285D01*
X66262295Y-13754285D02*
X66224200Y-13830475D01*
X66224200Y-13830475D02*
X66186104Y-13868571D01*
X49633247Y-6305666D02*
X49633247Y-6572332D01*
X50052295Y-6572332D02*
X49252295Y-6572332D01*
X49252295Y-6572332D02*
X49252295Y-6191380D01*
X49518961Y-5543761D02*
X50052295Y-5543761D01*
X49214200Y-5734237D02*
X49785628Y-5924714D01*
X49785628Y-5924714D02*
X49785628Y-5429475D01*
X57253247Y-6305666D02*
X57253247Y-6572332D01*
X57672295Y-6572332D02*
X56872295Y-6572332D01*
X56872295Y-6572332D02*
X56872295Y-6191380D01*
X56872295Y-5962809D02*
X56872295Y-5429475D01*
X56872295Y-5429475D02*
X57672295Y-5772333D01*
X52173247Y-6305666D02*
X52173247Y-6572332D01*
X52592295Y-6572332D02*
X51792295Y-6572332D01*
X51792295Y-6572332D02*
X51792295Y-6191380D01*
X51792295Y-5505666D02*
X51792295Y-5886618D01*
X51792295Y-5886618D02*
X52173247Y-5924714D01*
X52173247Y-5924714D02*
X52135152Y-5886618D01*
X52135152Y-5886618D02*
X52097057Y-5810428D01*
X52097057Y-5810428D02*
X52097057Y-5619952D01*
X52097057Y-5619952D02*
X52135152Y-5543761D01*
X52135152Y-5543761D02*
X52173247Y-5505666D01*
X52173247Y-5505666D02*
X52249438Y-5467571D01*
X52249438Y-5467571D02*
X52439914Y-5467571D01*
X52439914Y-5467571D02*
X52516104Y-5505666D01*
X52516104Y-5505666D02*
X52554200Y-5543761D01*
X52554200Y-5543761D02*
X52592295Y-5619952D01*
X52592295Y-5619952D02*
X52592295Y-5810428D01*
X52592295Y-5810428D02*
X52554200Y-5886618D01*
X52554200Y-5886618D02*
X52516104Y-5924714D01*
X52592295Y-17551475D02*
X51792295Y-17551475D01*
X51792295Y-17551475D02*
X51792295Y-17360999D01*
X51792295Y-17360999D02*
X51830390Y-17246713D01*
X51830390Y-17246713D02*
X51906580Y-17170523D01*
X51906580Y-17170523D02*
X51982771Y-17132428D01*
X51982771Y-17132428D02*
X52135152Y-17094332D01*
X52135152Y-17094332D02*
X52249438Y-17094332D01*
X52249438Y-17094332D02*
X52401819Y-17132428D01*
X52401819Y-17132428D02*
X52478009Y-17170523D01*
X52478009Y-17170523D02*
X52554200Y-17246713D01*
X52554200Y-17246713D02*
X52592295Y-17360999D01*
X52592295Y-17360999D02*
X52592295Y-17551475D01*
X51792295Y-16599094D02*
X51792295Y-16522904D01*
X51792295Y-16522904D02*
X51830390Y-16446713D01*
X51830390Y-16446713D02*
X51868485Y-16408618D01*
X51868485Y-16408618D02*
X51944676Y-16370523D01*
X51944676Y-16370523D02*
X52097057Y-16332428D01*
X52097057Y-16332428D02*
X52287533Y-16332428D01*
X52287533Y-16332428D02*
X52439914Y-16370523D01*
X52439914Y-16370523D02*
X52516104Y-16408618D01*
X52516104Y-16408618D02*
X52554200Y-16446713D01*
X52554200Y-16446713D02*
X52592295Y-16522904D01*
X52592295Y-16522904D02*
X52592295Y-16599094D01*
X52592295Y-16599094D02*
X52554200Y-16675285D01*
X52554200Y-16675285D02*
X52516104Y-16713380D01*
X52516104Y-16713380D02*
X52439914Y-16751475D01*
X52439914Y-16751475D02*
X52287533Y-16789571D01*
X52287533Y-16789571D02*
X52097057Y-16789571D01*
X52097057Y-16789571D02*
X51944676Y-16751475D01*
X51944676Y-16751475D02*
X51868485Y-16713380D01*
X51868485Y-16713380D02*
X51830390Y-16675285D01*
X51830390Y-16675285D02*
X51792295Y-16599094D01*
X42432295Y-17551475D02*
X41632295Y-17551475D01*
X41632295Y-17551475D02*
X41632295Y-17360999D01*
X41632295Y-17360999D02*
X41670390Y-17246713D01*
X41670390Y-17246713D02*
X41746580Y-17170523D01*
X41746580Y-17170523D02*
X41822771Y-17132428D01*
X41822771Y-17132428D02*
X41975152Y-17094332D01*
X41975152Y-17094332D02*
X42089438Y-17094332D01*
X42089438Y-17094332D02*
X42241819Y-17132428D01*
X42241819Y-17132428D02*
X42318009Y-17170523D01*
X42318009Y-17170523D02*
X42394200Y-17246713D01*
X42394200Y-17246713D02*
X42432295Y-17360999D01*
X42432295Y-17360999D02*
X42432295Y-17551475D01*
X41708485Y-16789571D02*
X41670390Y-16751475D01*
X41670390Y-16751475D02*
X41632295Y-16675285D01*
X41632295Y-16675285D02*
X41632295Y-16484809D01*
X41632295Y-16484809D02*
X41670390Y-16408618D01*
X41670390Y-16408618D02*
X41708485Y-16370523D01*
X41708485Y-16370523D02*
X41784676Y-16332428D01*
X41784676Y-16332428D02*
X41860866Y-16332428D01*
X41860866Y-16332428D02*
X41975152Y-16370523D01*
X41975152Y-16370523D02*
X42432295Y-16827666D01*
X42432295Y-16827666D02*
X42432295Y-16332428D01*
X59793247Y-6362809D02*
X59831342Y-6248523D01*
X59831342Y-6248523D02*
X59869438Y-6210428D01*
X59869438Y-6210428D02*
X59945628Y-6172332D01*
X59945628Y-6172332D02*
X60059914Y-6172332D01*
X60059914Y-6172332D02*
X60136104Y-6210428D01*
X60136104Y-6210428D02*
X60174200Y-6248523D01*
X60174200Y-6248523D02*
X60212295Y-6324713D01*
X60212295Y-6324713D02*
X60212295Y-6629475D01*
X60212295Y-6629475D02*
X59412295Y-6629475D01*
X59412295Y-6629475D02*
X59412295Y-6362809D01*
X59412295Y-6362809D02*
X59450390Y-6286618D01*
X59450390Y-6286618D02*
X59488485Y-6248523D01*
X59488485Y-6248523D02*
X59564676Y-6210428D01*
X59564676Y-6210428D02*
X59640866Y-6210428D01*
X59640866Y-6210428D02*
X59717057Y-6248523D01*
X59717057Y-6248523D02*
X59755152Y-6286618D01*
X59755152Y-6286618D02*
X59793247Y-6362809D01*
X59793247Y-6362809D02*
X59793247Y-6629475D01*
X60212295Y-5410428D02*
X60212295Y-5867571D01*
X60212295Y-5638999D02*
X59412295Y-5638999D01*
X59412295Y-5638999D02*
X59526580Y-5715190D01*
X59526580Y-5715190D02*
X59602771Y-5791380D01*
X59602771Y-5791380D02*
X59640866Y-5867571D01*
X60212295Y-17551475D02*
X59412295Y-17551475D01*
X59412295Y-17551475D02*
X59412295Y-17360999D01*
X59412295Y-17360999D02*
X59450390Y-17246713D01*
X59450390Y-17246713D02*
X59526580Y-17170523D01*
X59526580Y-17170523D02*
X59602771Y-17132428D01*
X59602771Y-17132428D02*
X59755152Y-17094332D01*
X59755152Y-17094332D02*
X59869438Y-17094332D01*
X59869438Y-17094332D02*
X60021819Y-17132428D01*
X60021819Y-17132428D02*
X60098009Y-17170523D01*
X60098009Y-17170523D02*
X60174200Y-17246713D01*
X60174200Y-17246713D02*
X60212295Y-17360999D01*
X60212295Y-17360999D02*
X60212295Y-17551475D01*
X59412295Y-16827666D02*
X59412295Y-16294332D01*
X59412295Y-16294332D02*
X60212295Y-16637190D01*
X44904200Y-6300213D02*
X44942295Y-6185927D01*
X44942295Y-6185927D02*
X44942295Y-5995451D01*
X44942295Y-5995451D02*
X44904200Y-5919260D01*
X44904200Y-5919260D02*
X44866104Y-5881165D01*
X44866104Y-5881165D02*
X44789914Y-5843070D01*
X44789914Y-5843070D02*
X44713723Y-5843070D01*
X44713723Y-5843070D02*
X44637533Y-5881165D01*
X44637533Y-5881165D02*
X44599438Y-5919260D01*
X44599438Y-5919260D02*
X44561342Y-5995451D01*
X44561342Y-5995451D02*
X44523247Y-6147832D01*
X44523247Y-6147832D02*
X44485152Y-6224022D01*
X44485152Y-6224022D02*
X44447057Y-6262117D01*
X44447057Y-6262117D02*
X44370866Y-6300213D01*
X44370866Y-6300213D02*
X44294676Y-6300213D01*
X44294676Y-6300213D02*
X44218485Y-6262117D01*
X44218485Y-6262117D02*
X44180390Y-6224022D01*
X44180390Y-6224022D02*
X44142295Y-6147832D01*
X44142295Y-6147832D02*
X44142295Y-5957355D01*
X44142295Y-5957355D02*
X44180390Y-5843070D01*
X44142295Y-5614498D02*
X44142295Y-5157355D01*
X44942295Y-5385927D02*
X44142295Y-5385927D01*
X50052295Y-17551475D02*
X49252295Y-17551475D01*
X49252295Y-17551475D02*
X49252295Y-17360999D01*
X49252295Y-17360999D02*
X49290390Y-17246713D01*
X49290390Y-17246713D02*
X49366580Y-17170523D01*
X49366580Y-17170523D02*
X49442771Y-17132428D01*
X49442771Y-17132428D02*
X49595152Y-17094332D01*
X49595152Y-17094332D02*
X49709438Y-17094332D01*
X49709438Y-17094332D02*
X49861819Y-17132428D01*
X49861819Y-17132428D02*
X49938009Y-17170523D01*
X49938009Y-17170523D02*
X50014200Y-17246713D01*
X50014200Y-17246713D02*
X50052295Y-17360999D01*
X50052295Y-17360999D02*
X50052295Y-17551475D01*
X50052295Y-16332428D02*
X50052295Y-16789571D01*
X50052295Y-16560999D02*
X49252295Y-16560999D01*
X49252295Y-16560999D02*
X49366580Y-16637190D01*
X49366580Y-16637190D02*
X49442771Y-16713380D01*
X49442771Y-16713380D02*
X49480866Y-16789571D01*
X62333247Y-17513380D02*
X62333247Y-17246714D01*
X62752295Y-17132428D02*
X62752295Y-17513380D01*
X62752295Y-17513380D02*
X61952295Y-17513380D01*
X61952295Y-17513380D02*
X61952295Y-17132428D01*
X61952295Y-16446713D02*
X61952295Y-16599094D01*
X61952295Y-16599094D02*
X61990390Y-16675285D01*
X61990390Y-16675285D02*
X62028485Y-16713380D01*
X62028485Y-16713380D02*
X62142771Y-16789570D01*
X62142771Y-16789570D02*
X62295152Y-16827666D01*
X62295152Y-16827666D02*
X62599914Y-16827666D01*
X62599914Y-16827666D02*
X62676104Y-16789570D01*
X62676104Y-16789570D02*
X62714200Y-16751475D01*
X62714200Y-16751475D02*
X62752295Y-16675285D01*
X62752295Y-16675285D02*
X62752295Y-16522904D01*
X62752295Y-16522904D02*
X62714200Y-16446713D01*
X62714200Y-16446713D02*
X62676104Y-16408618D01*
X62676104Y-16408618D02*
X62599914Y-16370523D01*
X62599914Y-16370523D02*
X62409438Y-16370523D01*
X62409438Y-16370523D02*
X62333247Y-16408618D01*
X62333247Y-16408618D02*
X62295152Y-16446713D01*
X62295152Y-16446713D02*
X62257057Y-16522904D01*
X62257057Y-16522904D02*
X62257057Y-16675285D01*
X62257057Y-16675285D02*
X62295152Y-16751475D01*
X62295152Y-16751475D02*
X62333247Y-16789570D01*
X62333247Y-16789570D02*
X62409438Y-16827666D01*
X65963850Y-18064543D02*
X66058131Y-18017403D01*
X66058131Y-18017403D02*
X66105271Y-18017403D01*
X66105271Y-18017403D02*
X66175982Y-18040973D01*
X66175982Y-18040973D02*
X66246692Y-18111683D01*
X66246692Y-18111683D02*
X66270263Y-18182394D01*
X66270263Y-18182394D02*
X66270263Y-18229535D01*
X66270263Y-18229535D02*
X66246692Y-18300245D01*
X66246692Y-18300245D02*
X66058131Y-18488807D01*
X66058131Y-18488807D02*
X65563156Y-17993832D01*
X65563156Y-17993832D02*
X65728147Y-17828841D01*
X65728147Y-17828841D02*
X65798858Y-17805271D01*
X65798858Y-17805271D02*
X65845999Y-17805271D01*
X65845999Y-17805271D02*
X65916709Y-17828841D01*
X65916709Y-17828841D02*
X65963850Y-17875981D01*
X65963850Y-17875981D02*
X65987420Y-17946692D01*
X65987420Y-17946692D02*
X65987420Y-17993832D01*
X65987420Y-17993832D02*
X65963850Y-18064543D01*
X65963850Y-18064543D02*
X65798858Y-18229535D01*
X66293833Y-17263155D02*
X66058131Y-17498858D01*
X66058131Y-17498858D02*
X66270263Y-17758130D01*
X66270263Y-17758130D02*
X66270263Y-17710990D01*
X66270263Y-17710990D02*
X66293833Y-17640279D01*
X66293833Y-17640279D02*
X66411684Y-17522428D01*
X66411684Y-17522428D02*
X66482395Y-17498858D01*
X66482395Y-17498858D02*
X66529535Y-17498858D01*
X66529535Y-17498858D02*
X66600246Y-17522428D01*
X66600246Y-17522428D02*
X66718097Y-17640279D01*
X66718097Y-17640279D02*
X66741667Y-17710990D01*
X66741667Y-17710990D02*
X66741667Y-17758130D01*
X66741667Y-17758130D02*
X66718097Y-17828841D01*
X66718097Y-17828841D02*
X66600246Y-17946692D01*
X66600246Y-17946692D02*
X66529535Y-17970262D01*
X66529535Y-17970262D02*
X66482395Y-17970262D01*
X64873247Y-17284809D02*
X64911342Y-17170523D01*
X64911342Y-17170523D02*
X64949438Y-17132428D01*
X64949438Y-17132428D02*
X65025628Y-17094332D01*
X65025628Y-17094332D02*
X65139914Y-17094332D01*
X65139914Y-17094332D02*
X65216104Y-17132428D01*
X65216104Y-17132428D02*
X65254200Y-17170523D01*
X65254200Y-17170523D02*
X65292295Y-17246713D01*
X65292295Y-17246713D02*
X65292295Y-17551475D01*
X65292295Y-17551475D02*
X64492295Y-17551475D01*
X64492295Y-17551475D02*
X64492295Y-17284809D01*
X64492295Y-17284809D02*
X64530390Y-17208618D01*
X64530390Y-17208618D02*
X64568485Y-17170523D01*
X64568485Y-17170523D02*
X64644676Y-17132428D01*
X64644676Y-17132428D02*
X64720866Y-17132428D01*
X64720866Y-17132428D02*
X64797057Y-17170523D01*
X64797057Y-17170523D02*
X64835152Y-17208618D01*
X64835152Y-17208618D02*
X64873247Y-17284809D01*
X64873247Y-17284809D02*
X64873247Y-17551475D01*
X64758961Y-16408618D02*
X65292295Y-16408618D01*
X64454200Y-16599094D02*
X65025628Y-16789571D01*
X65025628Y-16789571D02*
X65025628Y-16294332D01*
X66049366Y-16283333D02*
X66082700Y-16183333D01*
X66082700Y-16183333D02*
X66116033Y-16149999D01*
X66116033Y-16149999D02*
X66182700Y-16116666D01*
X66182700Y-16116666D02*
X66282700Y-16116666D01*
X66282700Y-16116666D02*
X66349366Y-16149999D01*
X66349366Y-16149999D02*
X66382700Y-16183333D01*
X66382700Y-16183333D02*
X66416033Y-16249999D01*
X66416033Y-16249999D02*
X66416033Y-16516666D01*
X66416033Y-16516666D02*
X65716033Y-16516666D01*
X65716033Y-16516666D02*
X65716033Y-16283333D01*
X65716033Y-16283333D02*
X65749366Y-16216666D01*
X65749366Y-16216666D02*
X65782700Y-16183333D01*
X65782700Y-16183333D02*
X65849366Y-16149999D01*
X65849366Y-16149999D02*
X65916033Y-16149999D01*
X65916033Y-16149999D02*
X65982700Y-16183333D01*
X65982700Y-16183333D02*
X66016033Y-16216666D01*
X66016033Y-16216666D02*
X66049366Y-16283333D01*
X66049366Y-16283333D02*
X66049366Y-16516666D01*
X65716033Y-15883333D02*
X65716033Y-15416666D01*
X65716033Y-15416666D02*
X66416033Y-15716666D01*
X39092295Y-17262348D02*
X39092295Y-16805205D01*
X39892295Y-17033777D02*
X39092295Y-17033777D01*
X39092295Y-16614729D02*
X39892295Y-16081395D01*
X39092295Y-16081395D02*
X39892295Y-16614729D01*
X39092295Y-15624252D02*
X39092295Y-15548062D01*
X39092295Y-15548062D02*
X39130390Y-15471871D01*
X39130390Y-15471871D02*
X39168485Y-15433776D01*
X39168485Y-15433776D02*
X39244676Y-15395681D01*
X39244676Y-15395681D02*
X39397057Y-15357586D01*
X39397057Y-15357586D02*
X39587533Y-15357586D01*
X39587533Y-15357586D02*
X39739914Y-15395681D01*
X39739914Y-15395681D02*
X39816104Y-15433776D01*
X39816104Y-15433776D02*
X39854200Y-15471871D01*
X39854200Y-15471871D02*
X39892295Y-15548062D01*
X39892295Y-15548062D02*
X39892295Y-15624252D01*
X39892295Y-15624252D02*
X39854200Y-15700443D01*
X39854200Y-15700443D02*
X39816104Y-15738538D01*
X39816104Y-15738538D02*
X39739914Y-15776633D01*
X39739914Y-15776633D02*
X39587533Y-15814729D01*
X39587533Y-15814729D02*
X39397057Y-15814729D01*
X39397057Y-15814729D02*
X39244676Y-15776633D01*
X39244676Y-15776633D02*
X39168485Y-15738538D01*
X39168485Y-15738538D02*
X39130390Y-15700443D01*
X39130390Y-15700443D02*
X39092295Y-15624252D01*
X39054200Y-14443300D02*
X40082771Y-15129014D01*
X39892295Y-14176633D02*
X39092295Y-14176633D01*
X39092295Y-14176633D02*
X39092295Y-13986157D01*
X39092295Y-13986157D02*
X39130390Y-13871871D01*
X39130390Y-13871871D02*
X39206580Y-13795681D01*
X39206580Y-13795681D02*
X39282771Y-13757586D01*
X39282771Y-13757586D02*
X39435152Y-13719490D01*
X39435152Y-13719490D02*
X39549438Y-13719490D01*
X39549438Y-13719490D02*
X39701819Y-13757586D01*
X39701819Y-13757586D02*
X39778009Y-13795681D01*
X39778009Y-13795681D02*
X39854200Y-13871871D01*
X39854200Y-13871871D02*
X39892295Y-13986157D01*
X39892295Y-13986157D02*
X39892295Y-14176633D01*
X39092295Y-13452824D02*
X39092295Y-12957586D01*
X39092295Y-12957586D02*
X39397057Y-13224252D01*
X39397057Y-13224252D02*
X39397057Y-13109967D01*
X39397057Y-13109967D02*
X39435152Y-13033776D01*
X39435152Y-13033776D02*
X39473247Y-12995681D01*
X39473247Y-12995681D02*
X39549438Y-12957586D01*
X39549438Y-12957586D02*
X39739914Y-12957586D01*
X39739914Y-12957586D02*
X39816104Y-12995681D01*
X39816104Y-12995681D02*
X39854200Y-13033776D01*
X39854200Y-13033776D02*
X39892295Y-13109967D01*
X39892295Y-13109967D02*
X39892295Y-13338538D01*
X39892295Y-13338538D02*
X39854200Y-13414729D01*
X39854200Y-13414729D02*
X39816104Y-13452824D01*
X65843247Y-9226666D02*
X65843247Y-9493332D01*
X66262295Y-9493332D02*
X65462295Y-9493332D01*
X65462295Y-9493332D02*
X65462295Y-9112380D01*
X66262295Y-8388571D02*
X66262295Y-8845714D01*
X66262295Y-8617142D02*
X65462295Y-8617142D01*
X65462295Y-8617142D02*
X65576580Y-8693333D01*
X65576580Y-8693333D02*
X65652771Y-8769523D01*
X65652771Y-8769523D02*
X65690866Y-8845714D01*
X37724819Y-33338094D02*
X36724819Y-33338094D01*
X36724819Y-33338094D02*
X36724819Y-33099999D01*
X36724819Y-33099999D02*
X36772438Y-32957142D01*
X36772438Y-32957142D02*
X36867676Y-32861904D01*
X36867676Y-32861904D02*
X36962914Y-32814285D01*
X36962914Y-32814285D02*
X37153390Y-32766666D01*
X37153390Y-32766666D02*
X37296247Y-32766666D01*
X37296247Y-32766666D02*
X37486723Y-32814285D01*
X37486723Y-32814285D02*
X37581961Y-32861904D01*
X37581961Y-32861904D02*
X37677200Y-32957142D01*
X37677200Y-32957142D02*
X37724819Y-33099999D01*
X37724819Y-33099999D02*
X37724819Y-33338094D01*
X37724819Y-31814285D02*
X37724819Y-32385713D01*
X37724819Y-32099999D02*
X36724819Y-32099999D01*
X36724819Y-32099999D02*
X36867676Y-32195237D01*
X36867676Y-32195237D02*
X36962914Y-32290475D01*
X36962914Y-32290475D02*
X37010533Y-32385713D01*
X37404819Y-29051904D02*
X36404819Y-29051904D01*
X37404819Y-28480476D02*
X36833390Y-28909047D01*
X36404819Y-28480476D02*
X36976247Y-29051904D01*
X137737319Y-33338094D02*
X136737319Y-33338094D01*
X136737319Y-33338094D02*
X136737319Y-33099999D01*
X136737319Y-33099999D02*
X136784938Y-32957142D01*
X136784938Y-32957142D02*
X136880176Y-32861904D01*
X136880176Y-32861904D02*
X136975414Y-32814285D01*
X136975414Y-32814285D02*
X137165890Y-32766666D01*
X137165890Y-32766666D02*
X137308747Y-32766666D01*
X137308747Y-32766666D02*
X137499223Y-32814285D01*
X137499223Y-32814285D02*
X137594461Y-32861904D01*
X137594461Y-32861904D02*
X137689700Y-32957142D01*
X137689700Y-32957142D02*
X137737319Y-33099999D01*
X137737319Y-33099999D02*
X137737319Y-33338094D01*
X136737319Y-31909523D02*
X136737319Y-32099999D01*
X136737319Y-32099999D02*
X136784938Y-32195237D01*
X136784938Y-32195237D02*
X136832557Y-32242856D01*
X136832557Y-32242856D02*
X136975414Y-32338094D01*
X136975414Y-32338094D02*
X137165890Y-32385713D01*
X137165890Y-32385713D02*
X137546842Y-32385713D01*
X137546842Y-32385713D02*
X137642080Y-32338094D01*
X137642080Y-32338094D02*
X137689700Y-32290475D01*
X137689700Y-32290475D02*
X137737319Y-32195237D01*
X137737319Y-32195237D02*
X137737319Y-32004761D01*
X137737319Y-32004761D02*
X137689700Y-31909523D01*
X137689700Y-31909523D02*
X137642080Y-31861904D01*
X137642080Y-31861904D02*
X137546842Y-31814285D01*
X137546842Y-31814285D02*
X137308747Y-31814285D01*
X137308747Y-31814285D02*
X137213509Y-31861904D01*
X137213509Y-31861904D02*
X137165890Y-31909523D01*
X137165890Y-31909523D02*
X137118271Y-32004761D01*
X137118271Y-32004761D02*
X137118271Y-32195237D01*
X137118271Y-32195237D02*
X137165890Y-32290475D01*
X137165890Y-32290475D02*
X137213509Y-32338094D01*
X137213509Y-32338094D02*
X137308747Y-32385713D01*
X137417319Y-29051904D02*
X136417319Y-29051904D01*
X137417319Y-28480476D02*
X136845890Y-28909047D01*
X136417319Y-28480476D02*
X136988747Y-29051904D01*
X199649819Y-114776785D02*
X198649819Y-114776785D01*
X198649819Y-114776785D02*
X198649819Y-114538690D01*
X198649819Y-114538690D02*
X198697438Y-114395833D01*
X198697438Y-114395833D02*
X198792676Y-114300595D01*
X198792676Y-114300595D02*
X198887914Y-114252976D01*
X198887914Y-114252976D02*
X199078390Y-114205357D01*
X199078390Y-114205357D02*
X199221247Y-114205357D01*
X199221247Y-114205357D02*
X199411723Y-114252976D01*
X199411723Y-114252976D02*
X199506961Y-114300595D01*
X199506961Y-114300595D02*
X199602200Y-114395833D01*
X199602200Y-114395833D02*
X199649819Y-114538690D01*
X199649819Y-114538690D02*
X199649819Y-114776785D01*
X198983152Y-113348214D02*
X199649819Y-113348214D01*
X198602200Y-113586309D02*
X199316485Y-113824404D01*
X199316485Y-113824404D02*
X199316485Y-113205357D01*
X198745057Y-112872023D02*
X198697438Y-112824404D01*
X198697438Y-112824404D02*
X198649819Y-112729166D01*
X198649819Y-112729166D02*
X198649819Y-112491071D01*
X198649819Y-112491071D02*
X198697438Y-112395833D01*
X198697438Y-112395833D02*
X198745057Y-112348214D01*
X198745057Y-112348214D02*
X198840295Y-112300595D01*
X198840295Y-112300595D02*
X198935533Y-112300595D01*
X198935533Y-112300595D02*
X199078390Y-112348214D01*
X199078390Y-112348214D02*
X199649819Y-112919642D01*
X199649819Y-112919642D02*
X199649819Y-112300595D01*
X199329819Y-110014404D02*
X198329819Y-110014404D01*
X199329819Y-109442976D02*
X198758390Y-109871547D01*
X198329819Y-109442976D02*
X198901247Y-110014404D01*
X99637319Y-33338094D02*
X98637319Y-33338094D01*
X98637319Y-33338094D02*
X98637319Y-33099999D01*
X98637319Y-33099999D02*
X98684938Y-32957142D01*
X98684938Y-32957142D02*
X98780176Y-32861904D01*
X98780176Y-32861904D02*
X98875414Y-32814285D01*
X98875414Y-32814285D02*
X99065890Y-32766666D01*
X99065890Y-32766666D02*
X99208747Y-32766666D01*
X99208747Y-32766666D02*
X99399223Y-32814285D01*
X99399223Y-32814285D02*
X99494461Y-32861904D01*
X99494461Y-32861904D02*
X99589700Y-32957142D01*
X99589700Y-32957142D02*
X99637319Y-33099999D01*
X99637319Y-33099999D02*
X99637319Y-33338094D01*
X98970652Y-31909523D02*
X99637319Y-31909523D01*
X98589700Y-32147618D02*
X99303985Y-32385713D01*
X99303985Y-32385713D02*
X99303985Y-31766666D01*
X99317319Y-29051904D02*
X98317319Y-29051904D01*
X99317319Y-28480476D02*
X98745890Y-28909047D01*
X98317319Y-28480476D02*
X98888747Y-29051904D01*
X37724819Y-114776785D02*
X36724819Y-114776785D01*
X36724819Y-114776785D02*
X36724819Y-114538690D01*
X36724819Y-114538690D02*
X36772438Y-114395833D01*
X36772438Y-114395833D02*
X36867676Y-114300595D01*
X36867676Y-114300595D02*
X36962914Y-114252976D01*
X36962914Y-114252976D02*
X37153390Y-114205357D01*
X37153390Y-114205357D02*
X37296247Y-114205357D01*
X37296247Y-114205357D02*
X37486723Y-114252976D01*
X37486723Y-114252976D02*
X37581961Y-114300595D01*
X37581961Y-114300595D02*
X37677200Y-114395833D01*
X37677200Y-114395833D02*
X37724819Y-114538690D01*
X37724819Y-114538690D02*
X37724819Y-114776785D01*
X36724819Y-113872023D02*
X36724819Y-113252976D01*
X36724819Y-113252976D02*
X37105771Y-113586309D01*
X37105771Y-113586309D02*
X37105771Y-113443452D01*
X37105771Y-113443452D02*
X37153390Y-113348214D01*
X37153390Y-113348214D02*
X37201009Y-113300595D01*
X37201009Y-113300595D02*
X37296247Y-113252976D01*
X37296247Y-113252976D02*
X37534342Y-113252976D01*
X37534342Y-113252976D02*
X37629580Y-113300595D01*
X37629580Y-113300595D02*
X37677200Y-113348214D01*
X37677200Y-113348214D02*
X37724819Y-113443452D01*
X37724819Y-113443452D02*
X37724819Y-113729166D01*
X37724819Y-113729166D02*
X37677200Y-113824404D01*
X37677200Y-113824404D02*
X37629580Y-113872023D01*
X36724819Y-112348214D02*
X36724819Y-112824404D01*
X36724819Y-112824404D02*
X37201009Y-112872023D01*
X37201009Y-112872023D02*
X37153390Y-112824404D01*
X37153390Y-112824404D02*
X37105771Y-112729166D01*
X37105771Y-112729166D02*
X37105771Y-112491071D01*
X37105771Y-112491071D02*
X37153390Y-112395833D01*
X37153390Y-112395833D02*
X37201009Y-112348214D01*
X37201009Y-112348214D02*
X37296247Y-112300595D01*
X37296247Y-112300595D02*
X37534342Y-112300595D01*
X37534342Y-112300595D02*
X37629580Y-112348214D01*
X37629580Y-112348214D02*
X37677200Y-112395833D01*
X37677200Y-112395833D02*
X37724819Y-112491071D01*
X37724819Y-112491071D02*
X37724819Y-112729166D01*
X37724819Y-112729166D02*
X37677200Y-112824404D01*
X37677200Y-112824404D02*
X37629580Y-112872023D01*
X37404819Y-110014404D02*
X36404819Y-110014404D01*
X37404819Y-109442976D02*
X36833390Y-109871547D01*
X36404819Y-109442976D02*
X36976247Y-110014404D01*
X150949819Y-114776785D02*
X149949819Y-114776785D01*
X149949819Y-114776785D02*
X149949819Y-114538690D01*
X149949819Y-114538690D02*
X149997438Y-114395833D01*
X149997438Y-114395833D02*
X150092676Y-114300595D01*
X150092676Y-114300595D02*
X150187914Y-114252976D01*
X150187914Y-114252976D02*
X150378390Y-114205357D01*
X150378390Y-114205357D02*
X150521247Y-114205357D01*
X150521247Y-114205357D02*
X150711723Y-114252976D01*
X150711723Y-114252976D02*
X150806961Y-114300595D01*
X150806961Y-114300595D02*
X150902200Y-114395833D01*
X150902200Y-114395833D02*
X150949819Y-114538690D01*
X150949819Y-114538690D02*
X150949819Y-114776785D01*
X150283152Y-113348214D02*
X150949819Y-113348214D01*
X149902200Y-113586309D02*
X150616485Y-113824404D01*
X150616485Y-113824404D02*
X150616485Y-113205357D01*
X149949819Y-112633928D02*
X149949819Y-112538690D01*
X149949819Y-112538690D02*
X149997438Y-112443452D01*
X149997438Y-112443452D02*
X150045057Y-112395833D01*
X150045057Y-112395833D02*
X150140295Y-112348214D01*
X150140295Y-112348214D02*
X150330771Y-112300595D01*
X150330771Y-112300595D02*
X150568866Y-112300595D01*
X150568866Y-112300595D02*
X150759342Y-112348214D01*
X150759342Y-112348214D02*
X150854580Y-112395833D01*
X150854580Y-112395833D02*
X150902200Y-112443452D01*
X150902200Y-112443452D02*
X150949819Y-112538690D01*
X150949819Y-112538690D02*
X150949819Y-112633928D01*
X150949819Y-112633928D02*
X150902200Y-112729166D01*
X150902200Y-112729166D02*
X150854580Y-112776785D01*
X150854580Y-112776785D02*
X150759342Y-112824404D01*
X150759342Y-112824404D02*
X150568866Y-112872023D01*
X150568866Y-112872023D02*
X150330771Y-112872023D01*
X150330771Y-112872023D02*
X150140295Y-112824404D01*
X150140295Y-112824404D02*
X150045057Y-112776785D01*
X150045057Y-112776785D02*
X149997438Y-112729166D01*
X149997438Y-112729166D02*
X149949819Y-112633928D01*
X150629819Y-110014404D02*
X149629819Y-110014404D01*
X150629819Y-109442976D02*
X150058390Y-109871547D01*
X149629819Y-109442976D02*
X150201247Y-110014404D01*
X194887319Y-133714285D02*
X193887319Y-133714285D01*
X193887319Y-133714285D02*
X193887319Y-133476190D01*
X193887319Y-133476190D02*
X193934938Y-133333333D01*
X193934938Y-133333333D02*
X194030176Y-133238095D01*
X194030176Y-133238095D02*
X194125414Y-133190476D01*
X194125414Y-133190476D02*
X194315890Y-133142857D01*
X194315890Y-133142857D02*
X194458747Y-133142857D01*
X194458747Y-133142857D02*
X194649223Y-133190476D01*
X194649223Y-133190476D02*
X194744461Y-133238095D01*
X194744461Y-133238095D02*
X194839700Y-133333333D01*
X194839700Y-133333333D02*
X194887319Y-133476190D01*
X194887319Y-133476190D02*
X194887319Y-133714285D01*
X194220652Y-132285714D02*
X194887319Y-132285714D01*
X193839700Y-132523809D02*
X194553985Y-132761904D01*
X194553985Y-132761904D02*
X194553985Y-132142857D01*
X194887319Y-131714285D02*
X194887319Y-131523809D01*
X194887319Y-131523809D02*
X194839700Y-131428571D01*
X194839700Y-131428571D02*
X194792080Y-131380952D01*
X194792080Y-131380952D02*
X194649223Y-131285714D01*
X194649223Y-131285714D02*
X194458747Y-131238095D01*
X194458747Y-131238095D02*
X194077795Y-131238095D01*
X194077795Y-131238095D02*
X193982557Y-131285714D01*
X193982557Y-131285714D02*
X193934938Y-131333333D01*
X193934938Y-131333333D02*
X193887319Y-131428571D01*
X193887319Y-131428571D02*
X193887319Y-131619047D01*
X193887319Y-131619047D02*
X193934938Y-131714285D01*
X193934938Y-131714285D02*
X193982557Y-131761904D01*
X193982557Y-131761904D02*
X194077795Y-131809523D01*
X194077795Y-131809523D02*
X194315890Y-131809523D01*
X194315890Y-131809523D02*
X194411128Y-131761904D01*
X194411128Y-131761904D02*
X194458747Y-131714285D01*
X194458747Y-131714285D02*
X194506366Y-131619047D01*
X194506366Y-131619047D02*
X194506366Y-131428571D01*
X194506366Y-131428571D02*
X194458747Y-131333333D01*
X194458747Y-131333333D02*
X194411128Y-131285714D01*
X194411128Y-131285714D02*
X194315890Y-131238095D01*
X194567319Y-128951904D02*
X193567319Y-128951904D01*
X194567319Y-128380476D02*
X193995890Y-128809047D01*
X193567319Y-128380476D02*
X194138747Y-128951904D01*
X156787319Y-138589285D02*
X155787319Y-138589285D01*
X155787319Y-138589285D02*
X155787319Y-138351190D01*
X155787319Y-138351190D02*
X155834938Y-138208333D01*
X155834938Y-138208333D02*
X155930176Y-138113095D01*
X155930176Y-138113095D02*
X156025414Y-138065476D01*
X156025414Y-138065476D02*
X156215890Y-138017857D01*
X156215890Y-138017857D02*
X156358747Y-138017857D01*
X156358747Y-138017857D02*
X156549223Y-138065476D01*
X156549223Y-138065476D02*
X156644461Y-138113095D01*
X156644461Y-138113095D02*
X156739700Y-138208333D01*
X156739700Y-138208333D02*
X156787319Y-138351190D01*
X156787319Y-138351190D02*
X156787319Y-138589285D01*
X156120652Y-137160714D02*
X156787319Y-137160714D01*
X155739700Y-137398809D02*
X156453985Y-137636904D01*
X156453985Y-137636904D02*
X156453985Y-137017857D01*
X155787319Y-136732142D02*
X155787319Y-136065476D01*
X155787319Y-136065476D02*
X156787319Y-136494047D01*
X156467319Y-133826904D02*
X155467319Y-133826904D01*
X156467319Y-133255476D02*
X155895890Y-133684047D01*
X155467319Y-133255476D02*
X156038747Y-133826904D01*
X75824819Y-114776785D02*
X74824819Y-114776785D01*
X74824819Y-114776785D02*
X74824819Y-114538690D01*
X74824819Y-114538690D02*
X74872438Y-114395833D01*
X74872438Y-114395833D02*
X74967676Y-114300595D01*
X74967676Y-114300595D02*
X75062914Y-114252976D01*
X75062914Y-114252976D02*
X75253390Y-114205357D01*
X75253390Y-114205357D02*
X75396247Y-114205357D01*
X75396247Y-114205357D02*
X75586723Y-114252976D01*
X75586723Y-114252976D02*
X75681961Y-114300595D01*
X75681961Y-114300595D02*
X75777200Y-114395833D01*
X75777200Y-114395833D02*
X75824819Y-114538690D01*
X75824819Y-114538690D02*
X75824819Y-114776785D01*
X74824819Y-113872023D02*
X74824819Y-113252976D01*
X74824819Y-113252976D02*
X75205771Y-113586309D01*
X75205771Y-113586309D02*
X75205771Y-113443452D01*
X75205771Y-113443452D02*
X75253390Y-113348214D01*
X75253390Y-113348214D02*
X75301009Y-113300595D01*
X75301009Y-113300595D02*
X75396247Y-113252976D01*
X75396247Y-113252976D02*
X75634342Y-113252976D01*
X75634342Y-113252976D02*
X75729580Y-113300595D01*
X75729580Y-113300595D02*
X75777200Y-113348214D01*
X75777200Y-113348214D02*
X75824819Y-113443452D01*
X75824819Y-113443452D02*
X75824819Y-113729166D01*
X75824819Y-113729166D02*
X75777200Y-113824404D01*
X75777200Y-113824404D02*
X75729580Y-113872023D01*
X74824819Y-112919642D02*
X74824819Y-112252976D01*
X74824819Y-112252976D02*
X75824819Y-112681547D01*
X75504819Y-110014404D02*
X74504819Y-110014404D01*
X75504819Y-109442976D02*
X74933390Y-109871547D01*
X74504819Y-109442976D02*
X75076247Y-110014404D01*
X32962319Y-57626785D02*
X31962319Y-57626785D01*
X31962319Y-57626785D02*
X31962319Y-57388690D01*
X31962319Y-57388690D02*
X32009938Y-57245833D01*
X32009938Y-57245833D02*
X32105176Y-57150595D01*
X32105176Y-57150595D02*
X32200414Y-57102976D01*
X32200414Y-57102976D02*
X32390890Y-57055357D01*
X32390890Y-57055357D02*
X32533747Y-57055357D01*
X32533747Y-57055357D02*
X32724223Y-57102976D01*
X32724223Y-57102976D02*
X32819461Y-57150595D01*
X32819461Y-57150595D02*
X32914700Y-57245833D01*
X32914700Y-57245833D02*
X32962319Y-57388690D01*
X32962319Y-57388690D02*
X32962319Y-57626785D01*
X32962319Y-56102976D02*
X32962319Y-56674404D01*
X32962319Y-56388690D02*
X31962319Y-56388690D01*
X31962319Y-56388690D02*
X32105176Y-56483928D01*
X32105176Y-56483928D02*
X32200414Y-56579166D01*
X32200414Y-56579166D02*
X32248033Y-56674404D01*
X31962319Y-55483928D02*
X31962319Y-55388690D01*
X31962319Y-55388690D02*
X32009938Y-55293452D01*
X32009938Y-55293452D02*
X32057557Y-55245833D01*
X32057557Y-55245833D02*
X32152795Y-55198214D01*
X32152795Y-55198214D02*
X32343271Y-55150595D01*
X32343271Y-55150595D02*
X32581366Y-55150595D01*
X32581366Y-55150595D02*
X32771842Y-55198214D01*
X32771842Y-55198214D02*
X32867080Y-55245833D01*
X32867080Y-55245833D02*
X32914700Y-55293452D01*
X32914700Y-55293452D02*
X32962319Y-55388690D01*
X32962319Y-55388690D02*
X32962319Y-55483928D01*
X32962319Y-55483928D02*
X32914700Y-55579166D01*
X32914700Y-55579166D02*
X32867080Y-55626785D01*
X32867080Y-55626785D02*
X32771842Y-55674404D01*
X32771842Y-55674404D02*
X32581366Y-55722023D01*
X32581366Y-55722023D02*
X32343271Y-55722023D01*
X32343271Y-55722023D02*
X32152795Y-55674404D01*
X32152795Y-55674404D02*
X32057557Y-55626785D01*
X32057557Y-55626785D02*
X32009938Y-55579166D01*
X32009938Y-55579166D02*
X31962319Y-55483928D01*
X32642319Y-52864404D02*
X31642319Y-52864404D01*
X32642319Y-52292976D02*
X32070890Y-52721547D01*
X31642319Y-52292976D02*
X32213747Y-52864404D01*
X162856069Y-95726785D02*
X161856069Y-95726785D01*
X161856069Y-95726785D02*
X161856069Y-95488690D01*
X161856069Y-95488690D02*
X161903688Y-95345833D01*
X161903688Y-95345833D02*
X161998926Y-95250595D01*
X161998926Y-95250595D02*
X162094164Y-95202976D01*
X162094164Y-95202976D02*
X162284640Y-95155357D01*
X162284640Y-95155357D02*
X162427497Y-95155357D01*
X162427497Y-95155357D02*
X162617973Y-95202976D01*
X162617973Y-95202976D02*
X162713211Y-95250595D01*
X162713211Y-95250595D02*
X162808450Y-95345833D01*
X162808450Y-95345833D02*
X162856069Y-95488690D01*
X162856069Y-95488690D02*
X162856069Y-95726785D01*
X161856069Y-94822023D02*
X161856069Y-94202976D01*
X161856069Y-94202976D02*
X162237021Y-94536309D01*
X162237021Y-94536309D02*
X162237021Y-94393452D01*
X162237021Y-94393452D02*
X162284640Y-94298214D01*
X162284640Y-94298214D02*
X162332259Y-94250595D01*
X162332259Y-94250595D02*
X162427497Y-94202976D01*
X162427497Y-94202976D02*
X162665592Y-94202976D01*
X162665592Y-94202976D02*
X162760830Y-94250595D01*
X162760830Y-94250595D02*
X162808450Y-94298214D01*
X162808450Y-94298214D02*
X162856069Y-94393452D01*
X162856069Y-94393452D02*
X162856069Y-94679166D01*
X162856069Y-94679166D02*
X162808450Y-94774404D01*
X162808450Y-94774404D02*
X162760830Y-94822023D01*
X161856069Y-93869642D02*
X161856069Y-93250595D01*
X161856069Y-93250595D02*
X162237021Y-93583928D01*
X162237021Y-93583928D02*
X162237021Y-93441071D01*
X162237021Y-93441071D02*
X162284640Y-93345833D01*
X162284640Y-93345833D02*
X162332259Y-93298214D01*
X162332259Y-93298214D02*
X162427497Y-93250595D01*
X162427497Y-93250595D02*
X162665592Y-93250595D01*
X162665592Y-93250595D02*
X162760830Y-93298214D01*
X162760830Y-93298214D02*
X162808450Y-93345833D01*
X162808450Y-93345833D02*
X162856069Y-93441071D01*
X162856069Y-93441071D02*
X162856069Y-93726785D01*
X162856069Y-93726785D02*
X162808450Y-93822023D01*
X162808450Y-93822023D02*
X162760830Y-93869642D01*
X162536069Y-90964404D02*
X161536069Y-90964404D01*
X162536069Y-90392976D02*
X161964640Y-90821547D01*
X161536069Y-90392976D02*
X162107497Y-90964404D01*
X199649819Y-57626785D02*
X198649819Y-57626785D01*
X198649819Y-57626785D02*
X198649819Y-57388690D01*
X198649819Y-57388690D02*
X198697438Y-57245833D01*
X198697438Y-57245833D02*
X198792676Y-57150595D01*
X198792676Y-57150595D02*
X198887914Y-57102976D01*
X198887914Y-57102976D02*
X199078390Y-57055357D01*
X199078390Y-57055357D02*
X199221247Y-57055357D01*
X199221247Y-57055357D02*
X199411723Y-57102976D01*
X199411723Y-57102976D02*
X199506961Y-57150595D01*
X199506961Y-57150595D02*
X199602200Y-57245833D01*
X199602200Y-57245833D02*
X199649819Y-57388690D01*
X199649819Y-57388690D02*
X199649819Y-57626785D01*
X199649819Y-56102976D02*
X199649819Y-56674404D01*
X199649819Y-56388690D02*
X198649819Y-56388690D01*
X198649819Y-56388690D02*
X198792676Y-56483928D01*
X198792676Y-56483928D02*
X198887914Y-56579166D01*
X198887914Y-56579166D02*
X198935533Y-56674404D01*
X198649819Y-55769642D02*
X198649819Y-55102976D01*
X198649819Y-55102976D02*
X199649819Y-55531547D01*
X199329819Y-52864404D02*
X198329819Y-52864404D01*
X199329819Y-52292976D02*
X198758390Y-52721547D01*
X198329819Y-52292976D02*
X198901247Y-52864404D01*
X109162319Y-57626785D02*
X108162319Y-57626785D01*
X108162319Y-57626785D02*
X108162319Y-57388690D01*
X108162319Y-57388690D02*
X108209938Y-57245833D01*
X108209938Y-57245833D02*
X108305176Y-57150595D01*
X108305176Y-57150595D02*
X108400414Y-57102976D01*
X108400414Y-57102976D02*
X108590890Y-57055357D01*
X108590890Y-57055357D02*
X108733747Y-57055357D01*
X108733747Y-57055357D02*
X108924223Y-57102976D01*
X108924223Y-57102976D02*
X109019461Y-57150595D01*
X109019461Y-57150595D02*
X109114700Y-57245833D01*
X109114700Y-57245833D02*
X109162319Y-57388690D01*
X109162319Y-57388690D02*
X109162319Y-57626785D01*
X109162319Y-56102976D02*
X109162319Y-56674404D01*
X109162319Y-56388690D02*
X108162319Y-56388690D01*
X108162319Y-56388690D02*
X108305176Y-56483928D01*
X108305176Y-56483928D02*
X108400414Y-56579166D01*
X108400414Y-56579166D02*
X108448033Y-56674404D01*
X108495652Y-55245833D02*
X109162319Y-55245833D01*
X108114700Y-55483928D02*
X108828985Y-55722023D01*
X108828985Y-55722023D02*
X108828985Y-55102976D01*
X108842319Y-52864404D02*
X107842319Y-52864404D01*
X108842319Y-52292976D02*
X108270890Y-52721547D01*
X107842319Y-52292976D02*
X108413747Y-52864404D01*
X85349819Y-95726785D02*
X84349819Y-95726785D01*
X84349819Y-95726785D02*
X84349819Y-95488690D01*
X84349819Y-95488690D02*
X84397438Y-95345833D01*
X84397438Y-95345833D02*
X84492676Y-95250595D01*
X84492676Y-95250595D02*
X84587914Y-95202976D01*
X84587914Y-95202976D02*
X84778390Y-95155357D01*
X84778390Y-95155357D02*
X84921247Y-95155357D01*
X84921247Y-95155357D02*
X85111723Y-95202976D01*
X85111723Y-95202976D02*
X85206961Y-95250595D01*
X85206961Y-95250595D02*
X85302200Y-95345833D01*
X85302200Y-95345833D02*
X85349819Y-95488690D01*
X85349819Y-95488690D02*
X85349819Y-95726785D01*
X84349819Y-94822023D02*
X84349819Y-94202976D01*
X84349819Y-94202976D02*
X84730771Y-94536309D01*
X84730771Y-94536309D02*
X84730771Y-94393452D01*
X84730771Y-94393452D02*
X84778390Y-94298214D01*
X84778390Y-94298214D02*
X84826009Y-94250595D01*
X84826009Y-94250595D02*
X84921247Y-94202976D01*
X84921247Y-94202976D02*
X85159342Y-94202976D01*
X85159342Y-94202976D02*
X85254580Y-94250595D01*
X85254580Y-94250595D02*
X85302200Y-94298214D01*
X85302200Y-94298214D02*
X85349819Y-94393452D01*
X85349819Y-94393452D02*
X85349819Y-94679166D01*
X85349819Y-94679166D02*
X85302200Y-94774404D01*
X85302200Y-94774404D02*
X85254580Y-94822023D01*
X84349819Y-93583928D02*
X84349819Y-93488690D01*
X84349819Y-93488690D02*
X84397438Y-93393452D01*
X84397438Y-93393452D02*
X84445057Y-93345833D01*
X84445057Y-93345833D02*
X84540295Y-93298214D01*
X84540295Y-93298214D02*
X84730771Y-93250595D01*
X84730771Y-93250595D02*
X84968866Y-93250595D01*
X84968866Y-93250595D02*
X85159342Y-93298214D01*
X85159342Y-93298214D02*
X85254580Y-93345833D01*
X85254580Y-93345833D02*
X85302200Y-93393452D01*
X85302200Y-93393452D02*
X85349819Y-93488690D01*
X85349819Y-93488690D02*
X85349819Y-93583928D01*
X85349819Y-93583928D02*
X85302200Y-93679166D01*
X85302200Y-93679166D02*
X85254580Y-93726785D01*
X85254580Y-93726785D02*
X85159342Y-93774404D01*
X85159342Y-93774404D02*
X84968866Y-93822023D01*
X84968866Y-93822023D02*
X84730771Y-93822023D01*
X84730771Y-93822023D02*
X84540295Y-93774404D01*
X84540295Y-93774404D02*
X84445057Y-93726785D01*
X84445057Y-93726785D02*
X84397438Y-93679166D01*
X84397438Y-93679166D02*
X84349819Y-93583928D01*
X85029819Y-90964404D02*
X84029819Y-90964404D01*
X85029819Y-90392976D02*
X84458390Y-90821547D01*
X84029819Y-90392976D02*
X84601247Y-90964404D01*
X132974819Y-133826785D02*
X131974819Y-133826785D01*
X131974819Y-133826785D02*
X131974819Y-133588690D01*
X131974819Y-133588690D02*
X132022438Y-133445833D01*
X132022438Y-133445833D02*
X132117676Y-133350595D01*
X132117676Y-133350595D02*
X132212914Y-133302976D01*
X132212914Y-133302976D02*
X132403390Y-133255357D01*
X132403390Y-133255357D02*
X132546247Y-133255357D01*
X132546247Y-133255357D02*
X132736723Y-133302976D01*
X132736723Y-133302976D02*
X132831961Y-133350595D01*
X132831961Y-133350595D02*
X132927200Y-133445833D01*
X132927200Y-133445833D02*
X132974819Y-133588690D01*
X132974819Y-133588690D02*
X132974819Y-133826785D01*
X132308152Y-132398214D02*
X132974819Y-132398214D01*
X131927200Y-132636309D02*
X132641485Y-132874404D01*
X132641485Y-132874404D02*
X132641485Y-132255357D01*
X131974819Y-131445833D02*
X131974819Y-131636309D01*
X131974819Y-131636309D02*
X132022438Y-131731547D01*
X132022438Y-131731547D02*
X132070057Y-131779166D01*
X132070057Y-131779166D02*
X132212914Y-131874404D01*
X132212914Y-131874404D02*
X132403390Y-131922023D01*
X132403390Y-131922023D02*
X132784342Y-131922023D01*
X132784342Y-131922023D02*
X132879580Y-131874404D01*
X132879580Y-131874404D02*
X132927200Y-131826785D01*
X132927200Y-131826785D02*
X132974819Y-131731547D01*
X132974819Y-131731547D02*
X132974819Y-131541071D01*
X132974819Y-131541071D02*
X132927200Y-131445833D01*
X132927200Y-131445833D02*
X132879580Y-131398214D01*
X132879580Y-131398214D02*
X132784342Y-131350595D01*
X132784342Y-131350595D02*
X132546247Y-131350595D01*
X132546247Y-131350595D02*
X132451009Y-131398214D01*
X132451009Y-131398214D02*
X132403390Y-131445833D01*
X132403390Y-131445833D02*
X132355771Y-131541071D01*
X132355771Y-131541071D02*
X132355771Y-131731547D01*
X132355771Y-131731547D02*
X132403390Y-131826785D01*
X132403390Y-131826785D02*
X132451009Y-131874404D01*
X132451009Y-131874404D02*
X132546247Y-131922023D01*
X132654819Y-129064404D02*
X131654819Y-129064404D01*
X132654819Y-128492976D02*
X132083390Y-128921547D01*
X131654819Y-128492976D02*
X132226247Y-129064404D01*
X23437319Y-76676785D02*
X22437319Y-76676785D01*
X22437319Y-76676785D02*
X22437319Y-76438690D01*
X22437319Y-76438690D02*
X22484938Y-76295833D01*
X22484938Y-76295833D02*
X22580176Y-76200595D01*
X22580176Y-76200595D02*
X22675414Y-76152976D01*
X22675414Y-76152976D02*
X22865890Y-76105357D01*
X22865890Y-76105357D02*
X23008747Y-76105357D01*
X23008747Y-76105357D02*
X23199223Y-76152976D01*
X23199223Y-76152976D02*
X23294461Y-76200595D01*
X23294461Y-76200595D02*
X23389700Y-76295833D01*
X23389700Y-76295833D02*
X23437319Y-76438690D01*
X23437319Y-76438690D02*
X23437319Y-76676785D01*
X23437319Y-75152976D02*
X23437319Y-75724404D01*
X23437319Y-75438690D02*
X22437319Y-75438690D01*
X22437319Y-75438690D02*
X22580176Y-75533928D01*
X22580176Y-75533928D02*
X22675414Y-75629166D01*
X22675414Y-75629166D02*
X22723033Y-75724404D01*
X22865890Y-74581547D02*
X22818271Y-74676785D01*
X22818271Y-74676785D02*
X22770652Y-74724404D01*
X22770652Y-74724404D02*
X22675414Y-74772023D01*
X22675414Y-74772023D02*
X22627795Y-74772023D01*
X22627795Y-74772023D02*
X22532557Y-74724404D01*
X22532557Y-74724404D02*
X22484938Y-74676785D01*
X22484938Y-74676785D02*
X22437319Y-74581547D01*
X22437319Y-74581547D02*
X22437319Y-74391071D01*
X22437319Y-74391071D02*
X22484938Y-74295833D01*
X22484938Y-74295833D02*
X22532557Y-74248214D01*
X22532557Y-74248214D02*
X22627795Y-74200595D01*
X22627795Y-74200595D02*
X22675414Y-74200595D01*
X22675414Y-74200595D02*
X22770652Y-74248214D01*
X22770652Y-74248214D02*
X22818271Y-74295833D01*
X22818271Y-74295833D02*
X22865890Y-74391071D01*
X22865890Y-74391071D02*
X22865890Y-74581547D01*
X22865890Y-74581547D02*
X22913509Y-74676785D01*
X22913509Y-74676785D02*
X22961128Y-74724404D01*
X22961128Y-74724404D02*
X23056366Y-74772023D01*
X23056366Y-74772023D02*
X23246842Y-74772023D01*
X23246842Y-74772023D02*
X23342080Y-74724404D01*
X23342080Y-74724404D02*
X23389700Y-74676785D01*
X23389700Y-74676785D02*
X23437319Y-74581547D01*
X23437319Y-74581547D02*
X23437319Y-74391071D01*
X23437319Y-74391071D02*
X23389700Y-74295833D01*
X23389700Y-74295833D02*
X23342080Y-74248214D01*
X23342080Y-74248214D02*
X23246842Y-74200595D01*
X23246842Y-74200595D02*
X23056366Y-74200595D01*
X23056366Y-74200595D02*
X22961128Y-74248214D01*
X22961128Y-74248214D02*
X22913509Y-74295833D01*
X22913509Y-74295833D02*
X22865890Y-74391071D01*
X23117319Y-71914404D02*
X22117319Y-71914404D01*
X23117319Y-71342976D02*
X22545890Y-71771547D01*
X22117319Y-71342976D02*
X22688747Y-71914404D01*
X161549819Y-33338094D02*
X160549819Y-33338094D01*
X160549819Y-33338094D02*
X160549819Y-33099999D01*
X160549819Y-33099999D02*
X160597438Y-32957142D01*
X160597438Y-32957142D02*
X160692676Y-32861904D01*
X160692676Y-32861904D02*
X160787914Y-32814285D01*
X160787914Y-32814285D02*
X160978390Y-32766666D01*
X160978390Y-32766666D02*
X161121247Y-32766666D01*
X161121247Y-32766666D02*
X161311723Y-32814285D01*
X161311723Y-32814285D02*
X161406961Y-32861904D01*
X161406961Y-32861904D02*
X161502200Y-32957142D01*
X161502200Y-32957142D02*
X161549819Y-33099999D01*
X161549819Y-33099999D02*
X161549819Y-33338094D01*
X160549819Y-32433332D02*
X160549819Y-31766666D01*
X160549819Y-31766666D02*
X161549819Y-32195237D01*
X161229819Y-29051904D02*
X160229819Y-29051904D01*
X161229819Y-28480476D02*
X160658390Y-28909047D01*
X160229819Y-28480476D02*
X160801247Y-29051904D01*
X137737319Y-76676785D02*
X136737319Y-76676785D01*
X136737319Y-76676785D02*
X136737319Y-76438690D01*
X136737319Y-76438690D02*
X136784938Y-76295833D01*
X136784938Y-76295833D02*
X136880176Y-76200595D01*
X136880176Y-76200595D02*
X136975414Y-76152976D01*
X136975414Y-76152976D02*
X137165890Y-76105357D01*
X137165890Y-76105357D02*
X137308747Y-76105357D01*
X137308747Y-76105357D02*
X137499223Y-76152976D01*
X137499223Y-76152976D02*
X137594461Y-76200595D01*
X137594461Y-76200595D02*
X137689700Y-76295833D01*
X137689700Y-76295833D02*
X137737319Y-76438690D01*
X137737319Y-76438690D02*
X137737319Y-76676785D01*
X136832557Y-75724404D02*
X136784938Y-75676785D01*
X136784938Y-75676785D02*
X136737319Y-75581547D01*
X136737319Y-75581547D02*
X136737319Y-75343452D01*
X136737319Y-75343452D02*
X136784938Y-75248214D01*
X136784938Y-75248214D02*
X136832557Y-75200595D01*
X136832557Y-75200595D02*
X136927795Y-75152976D01*
X136927795Y-75152976D02*
X137023033Y-75152976D01*
X137023033Y-75152976D02*
X137165890Y-75200595D01*
X137165890Y-75200595D02*
X137737319Y-75772023D01*
X137737319Y-75772023D02*
X137737319Y-75152976D01*
X137070652Y-74295833D02*
X137737319Y-74295833D01*
X136689700Y-74533928D02*
X137403985Y-74772023D01*
X137403985Y-74772023D02*
X137403985Y-74152976D01*
X137417319Y-71914404D02*
X136417319Y-71914404D01*
X137417319Y-71342976D02*
X136845890Y-71771547D01*
X136417319Y-71342976D02*
X136988747Y-71914404D01*
X73443569Y-133826785D02*
X72443569Y-133826785D01*
X72443569Y-133826785D02*
X72443569Y-133588690D01*
X72443569Y-133588690D02*
X72491188Y-133445833D01*
X72491188Y-133445833D02*
X72586426Y-133350595D01*
X72586426Y-133350595D02*
X72681664Y-133302976D01*
X72681664Y-133302976D02*
X72872140Y-133255357D01*
X72872140Y-133255357D02*
X73014997Y-133255357D01*
X73014997Y-133255357D02*
X73205473Y-133302976D01*
X73205473Y-133302976D02*
X73300711Y-133350595D01*
X73300711Y-133350595D02*
X73395950Y-133445833D01*
X73395950Y-133445833D02*
X73443569Y-133588690D01*
X73443569Y-133588690D02*
X73443569Y-133826785D01*
X72776902Y-132398214D02*
X73443569Y-132398214D01*
X72395950Y-132636309D02*
X73110235Y-132874404D01*
X73110235Y-132874404D02*
X73110235Y-132255357D01*
X72443569Y-131969642D02*
X72443569Y-131350595D01*
X72443569Y-131350595D02*
X72824521Y-131683928D01*
X72824521Y-131683928D02*
X72824521Y-131541071D01*
X72824521Y-131541071D02*
X72872140Y-131445833D01*
X72872140Y-131445833D02*
X72919759Y-131398214D01*
X72919759Y-131398214D02*
X73014997Y-131350595D01*
X73014997Y-131350595D02*
X73253092Y-131350595D01*
X73253092Y-131350595D02*
X73348330Y-131398214D01*
X73348330Y-131398214D02*
X73395950Y-131445833D01*
X73395950Y-131445833D02*
X73443569Y-131541071D01*
X73443569Y-131541071D02*
X73443569Y-131826785D01*
X73443569Y-131826785D02*
X73395950Y-131922023D01*
X73395950Y-131922023D02*
X73348330Y-131969642D01*
X73123569Y-129064404D02*
X72123569Y-129064404D01*
X73123569Y-128492976D02*
X72552140Y-128921547D01*
X72123569Y-128492976D02*
X72694997Y-129064404D01*
X199649819Y-95726785D02*
X198649819Y-95726785D01*
X198649819Y-95726785D02*
X198649819Y-95488690D01*
X198649819Y-95488690D02*
X198697438Y-95345833D01*
X198697438Y-95345833D02*
X198792676Y-95250595D01*
X198792676Y-95250595D02*
X198887914Y-95202976D01*
X198887914Y-95202976D02*
X199078390Y-95155357D01*
X199078390Y-95155357D02*
X199221247Y-95155357D01*
X199221247Y-95155357D02*
X199411723Y-95202976D01*
X199411723Y-95202976D02*
X199506961Y-95250595D01*
X199506961Y-95250595D02*
X199602200Y-95345833D01*
X199602200Y-95345833D02*
X199649819Y-95488690D01*
X199649819Y-95488690D02*
X199649819Y-95726785D01*
X198649819Y-94822023D02*
X198649819Y-94202976D01*
X198649819Y-94202976D02*
X199030771Y-94536309D01*
X199030771Y-94536309D02*
X199030771Y-94393452D01*
X199030771Y-94393452D02*
X199078390Y-94298214D01*
X199078390Y-94298214D02*
X199126009Y-94250595D01*
X199126009Y-94250595D02*
X199221247Y-94202976D01*
X199221247Y-94202976D02*
X199459342Y-94202976D01*
X199459342Y-94202976D02*
X199554580Y-94250595D01*
X199554580Y-94250595D02*
X199602200Y-94298214D01*
X199602200Y-94298214D02*
X199649819Y-94393452D01*
X199649819Y-94393452D02*
X199649819Y-94679166D01*
X199649819Y-94679166D02*
X199602200Y-94774404D01*
X199602200Y-94774404D02*
X199554580Y-94822023D01*
X198983152Y-93345833D02*
X199649819Y-93345833D01*
X198602200Y-93583928D02*
X199316485Y-93822023D01*
X199316485Y-93822023D02*
X199316485Y-93202976D01*
X199329819Y-90964404D02*
X198329819Y-90964404D01*
X199329819Y-90392976D02*
X198758390Y-90821547D01*
X198329819Y-90392976D02*
X198901247Y-90964404D01*
X66299819Y-95726785D02*
X65299819Y-95726785D01*
X65299819Y-95726785D02*
X65299819Y-95488690D01*
X65299819Y-95488690D02*
X65347438Y-95345833D01*
X65347438Y-95345833D02*
X65442676Y-95250595D01*
X65442676Y-95250595D02*
X65537914Y-95202976D01*
X65537914Y-95202976D02*
X65728390Y-95155357D01*
X65728390Y-95155357D02*
X65871247Y-95155357D01*
X65871247Y-95155357D02*
X66061723Y-95202976D01*
X66061723Y-95202976D02*
X66156961Y-95250595D01*
X66156961Y-95250595D02*
X66252200Y-95345833D01*
X66252200Y-95345833D02*
X66299819Y-95488690D01*
X66299819Y-95488690D02*
X66299819Y-95726785D01*
X65395057Y-94774404D02*
X65347438Y-94726785D01*
X65347438Y-94726785D02*
X65299819Y-94631547D01*
X65299819Y-94631547D02*
X65299819Y-94393452D01*
X65299819Y-94393452D02*
X65347438Y-94298214D01*
X65347438Y-94298214D02*
X65395057Y-94250595D01*
X65395057Y-94250595D02*
X65490295Y-94202976D01*
X65490295Y-94202976D02*
X65585533Y-94202976D01*
X65585533Y-94202976D02*
X65728390Y-94250595D01*
X65728390Y-94250595D02*
X66299819Y-94822023D01*
X66299819Y-94822023D02*
X66299819Y-94202976D01*
X66299819Y-93726785D02*
X66299819Y-93536309D01*
X66299819Y-93536309D02*
X66252200Y-93441071D01*
X66252200Y-93441071D02*
X66204580Y-93393452D01*
X66204580Y-93393452D02*
X66061723Y-93298214D01*
X66061723Y-93298214D02*
X65871247Y-93250595D01*
X65871247Y-93250595D02*
X65490295Y-93250595D01*
X65490295Y-93250595D02*
X65395057Y-93298214D01*
X65395057Y-93298214D02*
X65347438Y-93345833D01*
X65347438Y-93345833D02*
X65299819Y-93441071D01*
X65299819Y-93441071D02*
X65299819Y-93631547D01*
X65299819Y-93631547D02*
X65347438Y-93726785D01*
X65347438Y-93726785D02*
X65395057Y-93774404D01*
X65395057Y-93774404D02*
X65490295Y-93822023D01*
X65490295Y-93822023D02*
X65728390Y-93822023D01*
X65728390Y-93822023D02*
X65823628Y-93774404D01*
X65823628Y-93774404D02*
X65871247Y-93726785D01*
X65871247Y-93726785D02*
X65918866Y-93631547D01*
X65918866Y-93631547D02*
X65918866Y-93441071D01*
X65918866Y-93441071D02*
X65871247Y-93345833D01*
X65871247Y-93345833D02*
X65823628Y-93298214D01*
X65823628Y-93298214D02*
X65728390Y-93250595D01*
X65979819Y-90964404D02*
X64979819Y-90964404D01*
X65979819Y-90392976D02*
X65408390Y-90821547D01*
X64979819Y-90392976D02*
X65551247Y-90964404D01*
X175837319Y-119539285D02*
X174837319Y-119539285D01*
X174837319Y-119539285D02*
X174837319Y-119301190D01*
X174837319Y-119301190D02*
X174884938Y-119158333D01*
X174884938Y-119158333D02*
X174980176Y-119063095D01*
X174980176Y-119063095D02*
X175075414Y-119015476D01*
X175075414Y-119015476D02*
X175265890Y-118967857D01*
X175265890Y-118967857D02*
X175408747Y-118967857D01*
X175408747Y-118967857D02*
X175599223Y-119015476D01*
X175599223Y-119015476D02*
X175694461Y-119063095D01*
X175694461Y-119063095D02*
X175789700Y-119158333D01*
X175789700Y-119158333D02*
X175837319Y-119301190D01*
X175837319Y-119301190D02*
X175837319Y-119539285D01*
X175170652Y-118110714D02*
X175837319Y-118110714D01*
X174789700Y-118348809D02*
X175503985Y-118586904D01*
X175503985Y-118586904D02*
X175503985Y-117967857D01*
X175837319Y-117063095D02*
X175837319Y-117634523D01*
X175837319Y-117348809D02*
X174837319Y-117348809D01*
X174837319Y-117348809D02*
X174980176Y-117444047D01*
X174980176Y-117444047D02*
X175075414Y-117539285D01*
X175075414Y-117539285D02*
X175123033Y-117634523D01*
X175517319Y-114776904D02*
X174517319Y-114776904D01*
X175517319Y-114205476D02*
X174945890Y-114634047D01*
X174517319Y-114205476D02*
X175088747Y-114776904D01*
X175837319Y-138589285D02*
X174837319Y-138589285D01*
X174837319Y-138589285D02*
X174837319Y-138351190D01*
X174837319Y-138351190D02*
X174884938Y-138208333D01*
X174884938Y-138208333D02*
X174980176Y-138113095D01*
X174980176Y-138113095D02*
X175075414Y-138065476D01*
X175075414Y-138065476D02*
X175265890Y-138017857D01*
X175265890Y-138017857D02*
X175408747Y-138017857D01*
X175408747Y-138017857D02*
X175599223Y-138065476D01*
X175599223Y-138065476D02*
X175694461Y-138113095D01*
X175694461Y-138113095D02*
X175789700Y-138208333D01*
X175789700Y-138208333D02*
X175837319Y-138351190D01*
X175837319Y-138351190D02*
X175837319Y-138589285D01*
X175170652Y-137160714D02*
X175837319Y-137160714D01*
X174789700Y-137398809D02*
X175503985Y-137636904D01*
X175503985Y-137636904D02*
X175503985Y-137017857D01*
X175265890Y-136494047D02*
X175218271Y-136589285D01*
X175218271Y-136589285D02*
X175170652Y-136636904D01*
X175170652Y-136636904D02*
X175075414Y-136684523D01*
X175075414Y-136684523D02*
X175027795Y-136684523D01*
X175027795Y-136684523D02*
X174932557Y-136636904D01*
X174932557Y-136636904D02*
X174884938Y-136589285D01*
X174884938Y-136589285D02*
X174837319Y-136494047D01*
X174837319Y-136494047D02*
X174837319Y-136303571D01*
X174837319Y-136303571D02*
X174884938Y-136208333D01*
X174884938Y-136208333D02*
X174932557Y-136160714D01*
X174932557Y-136160714D02*
X175027795Y-136113095D01*
X175027795Y-136113095D02*
X175075414Y-136113095D01*
X175075414Y-136113095D02*
X175170652Y-136160714D01*
X175170652Y-136160714D02*
X175218271Y-136208333D01*
X175218271Y-136208333D02*
X175265890Y-136303571D01*
X175265890Y-136303571D02*
X175265890Y-136494047D01*
X175265890Y-136494047D02*
X175313509Y-136589285D01*
X175313509Y-136589285D02*
X175361128Y-136636904D01*
X175361128Y-136636904D02*
X175456366Y-136684523D01*
X175456366Y-136684523D02*
X175646842Y-136684523D01*
X175646842Y-136684523D02*
X175742080Y-136636904D01*
X175742080Y-136636904D02*
X175789700Y-136589285D01*
X175789700Y-136589285D02*
X175837319Y-136494047D01*
X175837319Y-136494047D02*
X175837319Y-136303571D01*
X175837319Y-136303571D02*
X175789700Y-136208333D01*
X175789700Y-136208333D02*
X175742080Y-136160714D01*
X175742080Y-136160714D02*
X175646842Y-136113095D01*
X175646842Y-136113095D02*
X175456366Y-136113095D01*
X175456366Y-136113095D02*
X175361128Y-136160714D01*
X175361128Y-136160714D02*
X175313509Y-136208333D01*
X175313509Y-136208333D02*
X175265890Y-136303571D01*
X175517319Y-133826904D02*
X174517319Y-133826904D01*
X175517319Y-133255476D02*
X174945890Y-133684047D01*
X174517319Y-133255476D02*
X175088747Y-133826904D01*
X90112319Y-57626785D02*
X89112319Y-57626785D01*
X89112319Y-57626785D02*
X89112319Y-57388690D01*
X89112319Y-57388690D02*
X89159938Y-57245833D01*
X89159938Y-57245833D02*
X89255176Y-57150595D01*
X89255176Y-57150595D02*
X89350414Y-57102976D01*
X89350414Y-57102976D02*
X89540890Y-57055357D01*
X89540890Y-57055357D02*
X89683747Y-57055357D01*
X89683747Y-57055357D02*
X89874223Y-57102976D01*
X89874223Y-57102976D02*
X89969461Y-57150595D01*
X89969461Y-57150595D02*
X90064700Y-57245833D01*
X90064700Y-57245833D02*
X90112319Y-57388690D01*
X90112319Y-57388690D02*
X90112319Y-57626785D01*
X90112319Y-56102976D02*
X90112319Y-56674404D01*
X90112319Y-56388690D02*
X89112319Y-56388690D01*
X89112319Y-56388690D02*
X89255176Y-56483928D01*
X89255176Y-56483928D02*
X89350414Y-56579166D01*
X89350414Y-56579166D02*
X89398033Y-56674404D01*
X89112319Y-55769642D02*
X89112319Y-55150595D01*
X89112319Y-55150595D02*
X89493271Y-55483928D01*
X89493271Y-55483928D02*
X89493271Y-55341071D01*
X89493271Y-55341071D02*
X89540890Y-55245833D01*
X89540890Y-55245833D02*
X89588509Y-55198214D01*
X89588509Y-55198214D02*
X89683747Y-55150595D01*
X89683747Y-55150595D02*
X89921842Y-55150595D01*
X89921842Y-55150595D02*
X90017080Y-55198214D01*
X90017080Y-55198214D02*
X90064700Y-55245833D01*
X90064700Y-55245833D02*
X90112319Y-55341071D01*
X90112319Y-55341071D02*
X90112319Y-55626785D01*
X90112319Y-55626785D02*
X90064700Y-55722023D01*
X90064700Y-55722023D02*
X90017080Y-55769642D01*
X89792319Y-52864404D02*
X88792319Y-52864404D01*
X89792319Y-52292976D02*
X89220890Y-52721547D01*
X88792319Y-52292976D02*
X89363747Y-52864404D01*
X128212319Y-57626785D02*
X127212319Y-57626785D01*
X127212319Y-57626785D02*
X127212319Y-57388690D01*
X127212319Y-57388690D02*
X127259938Y-57245833D01*
X127259938Y-57245833D02*
X127355176Y-57150595D01*
X127355176Y-57150595D02*
X127450414Y-57102976D01*
X127450414Y-57102976D02*
X127640890Y-57055357D01*
X127640890Y-57055357D02*
X127783747Y-57055357D01*
X127783747Y-57055357D02*
X127974223Y-57102976D01*
X127974223Y-57102976D02*
X128069461Y-57150595D01*
X128069461Y-57150595D02*
X128164700Y-57245833D01*
X128164700Y-57245833D02*
X128212319Y-57388690D01*
X128212319Y-57388690D02*
X128212319Y-57626785D01*
X128212319Y-56102976D02*
X128212319Y-56674404D01*
X128212319Y-56388690D02*
X127212319Y-56388690D01*
X127212319Y-56388690D02*
X127355176Y-56483928D01*
X127355176Y-56483928D02*
X127450414Y-56579166D01*
X127450414Y-56579166D02*
X127498033Y-56674404D01*
X127212319Y-55198214D02*
X127212319Y-55674404D01*
X127212319Y-55674404D02*
X127688509Y-55722023D01*
X127688509Y-55722023D02*
X127640890Y-55674404D01*
X127640890Y-55674404D02*
X127593271Y-55579166D01*
X127593271Y-55579166D02*
X127593271Y-55341071D01*
X127593271Y-55341071D02*
X127640890Y-55245833D01*
X127640890Y-55245833D02*
X127688509Y-55198214D01*
X127688509Y-55198214D02*
X127783747Y-55150595D01*
X127783747Y-55150595D02*
X128021842Y-55150595D01*
X128021842Y-55150595D02*
X128117080Y-55198214D01*
X128117080Y-55198214D02*
X128164700Y-55245833D01*
X128164700Y-55245833D02*
X128212319Y-55341071D01*
X128212319Y-55341071D02*
X128212319Y-55579166D01*
X128212319Y-55579166D02*
X128164700Y-55674404D01*
X128164700Y-55674404D02*
X128117080Y-55722023D01*
X127892319Y-52864404D02*
X126892319Y-52864404D01*
X127892319Y-52292976D02*
X127320890Y-52721547D01*
X126892319Y-52292976D02*
X127463747Y-52864404D01*
X56774819Y-33338094D02*
X55774819Y-33338094D01*
X55774819Y-33338094D02*
X55774819Y-33099999D01*
X55774819Y-33099999D02*
X55822438Y-32957142D01*
X55822438Y-32957142D02*
X55917676Y-32861904D01*
X55917676Y-32861904D02*
X56012914Y-32814285D01*
X56012914Y-32814285D02*
X56203390Y-32766666D01*
X56203390Y-32766666D02*
X56346247Y-32766666D01*
X56346247Y-32766666D02*
X56536723Y-32814285D01*
X56536723Y-32814285D02*
X56631961Y-32861904D01*
X56631961Y-32861904D02*
X56727200Y-32957142D01*
X56727200Y-32957142D02*
X56774819Y-33099999D01*
X56774819Y-33099999D02*
X56774819Y-33338094D01*
X55870057Y-32385713D02*
X55822438Y-32338094D01*
X55822438Y-32338094D02*
X55774819Y-32242856D01*
X55774819Y-32242856D02*
X55774819Y-32004761D01*
X55774819Y-32004761D02*
X55822438Y-31909523D01*
X55822438Y-31909523D02*
X55870057Y-31861904D01*
X55870057Y-31861904D02*
X55965295Y-31814285D01*
X55965295Y-31814285D02*
X56060533Y-31814285D01*
X56060533Y-31814285D02*
X56203390Y-31861904D01*
X56203390Y-31861904D02*
X56774819Y-32433332D01*
X56774819Y-32433332D02*
X56774819Y-31814285D01*
X56454819Y-29051904D02*
X55454819Y-29051904D01*
X56454819Y-28480476D02*
X55883390Y-28909047D01*
X55454819Y-28480476D02*
X56026247Y-29051904D01*
X94874819Y-114776785D02*
X93874819Y-114776785D01*
X93874819Y-114776785D02*
X93874819Y-114538690D01*
X93874819Y-114538690D02*
X93922438Y-114395833D01*
X93922438Y-114395833D02*
X94017676Y-114300595D01*
X94017676Y-114300595D02*
X94112914Y-114252976D01*
X94112914Y-114252976D02*
X94303390Y-114205357D01*
X94303390Y-114205357D02*
X94446247Y-114205357D01*
X94446247Y-114205357D02*
X94636723Y-114252976D01*
X94636723Y-114252976D02*
X94731961Y-114300595D01*
X94731961Y-114300595D02*
X94827200Y-114395833D01*
X94827200Y-114395833D02*
X94874819Y-114538690D01*
X94874819Y-114538690D02*
X94874819Y-114776785D01*
X93874819Y-113872023D02*
X93874819Y-113252976D01*
X93874819Y-113252976D02*
X94255771Y-113586309D01*
X94255771Y-113586309D02*
X94255771Y-113443452D01*
X94255771Y-113443452D02*
X94303390Y-113348214D01*
X94303390Y-113348214D02*
X94351009Y-113300595D01*
X94351009Y-113300595D02*
X94446247Y-113252976D01*
X94446247Y-113252976D02*
X94684342Y-113252976D01*
X94684342Y-113252976D02*
X94779580Y-113300595D01*
X94779580Y-113300595D02*
X94827200Y-113348214D01*
X94827200Y-113348214D02*
X94874819Y-113443452D01*
X94874819Y-113443452D02*
X94874819Y-113729166D01*
X94874819Y-113729166D02*
X94827200Y-113824404D01*
X94827200Y-113824404D02*
X94779580Y-113872023D01*
X94303390Y-112681547D02*
X94255771Y-112776785D01*
X94255771Y-112776785D02*
X94208152Y-112824404D01*
X94208152Y-112824404D02*
X94112914Y-112872023D01*
X94112914Y-112872023D02*
X94065295Y-112872023D01*
X94065295Y-112872023D02*
X93970057Y-112824404D01*
X93970057Y-112824404D02*
X93922438Y-112776785D01*
X93922438Y-112776785D02*
X93874819Y-112681547D01*
X93874819Y-112681547D02*
X93874819Y-112491071D01*
X93874819Y-112491071D02*
X93922438Y-112395833D01*
X93922438Y-112395833D02*
X93970057Y-112348214D01*
X93970057Y-112348214D02*
X94065295Y-112300595D01*
X94065295Y-112300595D02*
X94112914Y-112300595D01*
X94112914Y-112300595D02*
X94208152Y-112348214D01*
X94208152Y-112348214D02*
X94255771Y-112395833D01*
X94255771Y-112395833D02*
X94303390Y-112491071D01*
X94303390Y-112491071D02*
X94303390Y-112681547D01*
X94303390Y-112681547D02*
X94351009Y-112776785D01*
X94351009Y-112776785D02*
X94398628Y-112824404D01*
X94398628Y-112824404D02*
X94493866Y-112872023D01*
X94493866Y-112872023D02*
X94684342Y-112872023D01*
X94684342Y-112872023D02*
X94779580Y-112824404D01*
X94779580Y-112824404D02*
X94827200Y-112776785D01*
X94827200Y-112776785D02*
X94874819Y-112681547D01*
X94874819Y-112681547D02*
X94874819Y-112491071D01*
X94874819Y-112491071D02*
X94827200Y-112395833D01*
X94827200Y-112395833D02*
X94779580Y-112348214D01*
X94779580Y-112348214D02*
X94684342Y-112300595D01*
X94684342Y-112300595D02*
X94493866Y-112300595D01*
X94493866Y-112300595D02*
X94398628Y-112348214D01*
X94398628Y-112348214D02*
X94351009Y-112395833D01*
X94351009Y-112395833D02*
X94303390Y-112491071D01*
X94554819Y-110014404D02*
X93554819Y-110014404D01*
X94554819Y-109442976D02*
X93983390Y-109871547D01*
X93554819Y-109442976D02*
X94126247Y-110014404D01*
X99637319Y-76676785D02*
X98637319Y-76676785D01*
X98637319Y-76676785D02*
X98637319Y-76438690D01*
X98637319Y-76438690D02*
X98684938Y-76295833D01*
X98684938Y-76295833D02*
X98780176Y-76200595D01*
X98780176Y-76200595D02*
X98875414Y-76152976D01*
X98875414Y-76152976D02*
X99065890Y-76105357D01*
X99065890Y-76105357D02*
X99208747Y-76105357D01*
X99208747Y-76105357D02*
X99399223Y-76152976D01*
X99399223Y-76152976D02*
X99494461Y-76200595D01*
X99494461Y-76200595D02*
X99589700Y-76295833D01*
X99589700Y-76295833D02*
X99637319Y-76438690D01*
X99637319Y-76438690D02*
X99637319Y-76676785D01*
X98732557Y-75724404D02*
X98684938Y-75676785D01*
X98684938Y-75676785D02*
X98637319Y-75581547D01*
X98637319Y-75581547D02*
X98637319Y-75343452D01*
X98637319Y-75343452D02*
X98684938Y-75248214D01*
X98684938Y-75248214D02*
X98732557Y-75200595D01*
X98732557Y-75200595D02*
X98827795Y-75152976D01*
X98827795Y-75152976D02*
X98923033Y-75152976D01*
X98923033Y-75152976D02*
X99065890Y-75200595D01*
X99065890Y-75200595D02*
X99637319Y-75772023D01*
X99637319Y-75772023D02*
X99637319Y-75152976D01*
X98732557Y-74772023D02*
X98684938Y-74724404D01*
X98684938Y-74724404D02*
X98637319Y-74629166D01*
X98637319Y-74629166D02*
X98637319Y-74391071D01*
X98637319Y-74391071D02*
X98684938Y-74295833D01*
X98684938Y-74295833D02*
X98732557Y-74248214D01*
X98732557Y-74248214D02*
X98827795Y-74200595D01*
X98827795Y-74200595D02*
X98923033Y-74200595D01*
X98923033Y-74200595D02*
X99065890Y-74248214D01*
X99065890Y-74248214D02*
X99637319Y-74819642D01*
X99637319Y-74819642D02*
X99637319Y-74200595D01*
X99317319Y-71914404D02*
X98317319Y-71914404D01*
X99317319Y-71342976D02*
X98745890Y-71771547D01*
X98317319Y-71342976D02*
X98888747Y-71914404D01*
X199649819Y-76676785D02*
X198649819Y-76676785D01*
X198649819Y-76676785D02*
X198649819Y-76438690D01*
X198649819Y-76438690D02*
X198697438Y-76295833D01*
X198697438Y-76295833D02*
X198792676Y-76200595D01*
X198792676Y-76200595D02*
X198887914Y-76152976D01*
X198887914Y-76152976D02*
X199078390Y-76105357D01*
X199078390Y-76105357D02*
X199221247Y-76105357D01*
X199221247Y-76105357D02*
X199411723Y-76152976D01*
X199411723Y-76152976D02*
X199506961Y-76200595D01*
X199506961Y-76200595D02*
X199602200Y-76295833D01*
X199602200Y-76295833D02*
X199649819Y-76438690D01*
X199649819Y-76438690D02*
X199649819Y-76676785D01*
X198745057Y-75724404D02*
X198697438Y-75676785D01*
X198697438Y-75676785D02*
X198649819Y-75581547D01*
X198649819Y-75581547D02*
X198649819Y-75343452D01*
X198649819Y-75343452D02*
X198697438Y-75248214D01*
X198697438Y-75248214D02*
X198745057Y-75200595D01*
X198745057Y-75200595D02*
X198840295Y-75152976D01*
X198840295Y-75152976D02*
X198935533Y-75152976D01*
X198935533Y-75152976D02*
X199078390Y-75200595D01*
X199078390Y-75200595D02*
X199649819Y-75772023D01*
X199649819Y-75772023D02*
X199649819Y-75152976D01*
X198649819Y-74295833D02*
X198649819Y-74486309D01*
X198649819Y-74486309D02*
X198697438Y-74581547D01*
X198697438Y-74581547D02*
X198745057Y-74629166D01*
X198745057Y-74629166D02*
X198887914Y-74724404D01*
X198887914Y-74724404D02*
X199078390Y-74772023D01*
X199078390Y-74772023D02*
X199459342Y-74772023D01*
X199459342Y-74772023D02*
X199554580Y-74724404D01*
X199554580Y-74724404D02*
X199602200Y-74676785D01*
X199602200Y-74676785D02*
X199649819Y-74581547D01*
X199649819Y-74581547D02*
X199649819Y-74391071D01*
X199649819Y-74391071D02*
X199602200Y-74295833D01*
X199602200Y-74295833D02*
X199554580Y-74248214D01*
X199554580Y-74248214D02*
X199459342Y-74200595D01*
X199459342Y-74200595D02*
X199221247Y-74200595D01*
X199221247Y-74200595D02*
X199126009Y-74248214D01*
X199126009Y-74248214D02*
X199078390Y-74295833D01*
X199078390Y-74295833D02*
X199030771Y-74391071D01*
X199030771Y-74391071D02*
X199030771Y-74581547D01*
X199030771Y-74581547D02*
X199078390Y-74676785D01*
X199078390Y-74676785D02*
X199126009Y-74724404D01*
X199126009Y-74724404D02*
X199221247Y-74772023D01*
X199329819Y-71914404D02*
X198329819Y-71914404D01*
X199329819Y-71342976D02*
X198758390Y-71771547D01*
X198329819Y-71342976D02*
X198901247Y-71914404D01*
X118687319Y-33338094D02*
X117687319Y-33338094D01*
X117687319Y-33338094D02*
X117687319Y-33099999D01*
X117687319Y-33099999D02*
X117734938Y-32957142D01*
X117734938Y-32957142D02*
X117830176Y-32861904D01*
X117830176Y-32861904D02*
X117925414Y-32814285D01*
X117925414Y-32814285D02*
X118115890Y-32766666D01*
X118115890Y-32766666D02*
X118258747Y-32766666D01*
X118258747Y-32766666D02*
X118449223Y-32814285D01*
X118449223Y-32814285D02*
X118544461Y-32861904D01*
X118544461Y-32861904D02*
X118639700Y-32957142D01*
X118639700Y-32957142D02*
X118687319Y-33099999D01*
X118687319Y-33099999D02*
X118687319Y-33338094D01*
X117687319Y-31861904D02*
X117687319Y-32338094D01*
X117687319Y-32338094D02*
X118163509Y-32385713D01*
X118163509Y-32385713D02*
X118115890Y-32338094D01*
X118115890Y-32338094D02*
X118068271Y-32242856D01*
X118068271Y-32242856D02*
X118068271Y-32004761D01*
X118068271Y-32004761D02*
X118115890Y-31909523D01*
X118115890Y-31909523D02*
X118163509Y-31861904D01*
X118163509Y-31861904D02*
X118258747Y-31814285D01*
X118258747Y-31814285D02*
X118496842Y-31814285D01*
X118496842Y-31814285D02*
X118592080Y-31861904D01*
X118592080Y-31861904D02*
X118639700Y-31909523D01*
X118639700Y-31909523D02*
X118687319Y-32004761D01*
X118687319Y-32004761D02*
X118687319Y-32242856D01*
X118687319Y-32242856D02*
X118639700Y-32338094D01*
X118639700Y-32338094D02*
X118592080Y-32385713D01*
X118367319Y-29051904D02*
X117367319Y-29051904D01*
X118367319Y-28480476D02*
X117795890Y-28909047D01*
X117367319Y-28480476D02*
X117938747Y-29051904D01*
X28199819Y-95726785D02*
X27199819Y-95726785D01*
X27199819Y-95726785D02*
X27199819Y-95488690D01*
X27199819Y-95488690D02*
X27247438Y-95345833D01*
X27247438Y-95345833D02*
X27342676Y-95250595D01*
X27342676Y-95250595D02*
X27437914Y-95202976D01*
X27437914Y-95202976D02*
X27628390Y-95155357D01*
X27628390Y-95155357D02*
X27771247Y-95155357D01*
X27771247Y-95155357D02*
X27961723Y-95202976D01*
X27961723Y-95202976D02*
X28056961Y-95250595D01*
X28056961Y-95250595D02*
X28152200Y-95345833D01*
X28152200Y-95345833D02*
X28199819Y-95488690D01*
X28199819Y-95488690D02*
X28199819Y-95726785D01*
X27295057Y-94774404D02*
X27247438Y-94726785D01*
X27247438Y-94726785D02*
X27199819Y-94631547D01*
X27199819Y-94631547D02*
X27199819Y-94393452D01*
X27199819Y-94393452D02*
X27247438Y-94298214D01*
X27247438Y-94298214D02*
X27295057Y-94250595D01*
X27295057Y-94250595D02*
X27390295Y-94202976D01*
X27390295Y-94202976D02*
X27485533Y-94202976D01*
X27485533Y-94202976D02*
X27628390Y-94250595D01*
X27628390Y-94250595D02*
X28199819Y-94822023D01*
X28199819Y-94822023D02*
X28199819Y-94202976D01*
X27199819Y-93869642D02*
X27199819Y-93202976D01*
X27199819Y-93202976D02*
X28199819Y-93631547D01*
X27879819Y-90964404D02*
X26879819Y-90964404D01*
X27879819Y-90392976D02*
X27308390Y-90821547D01*
X26879819Y-90392976D02*
X27451247Y-90964404D01*
D11*
X43555000Y-92392500D02*
X43555000Y-96632500D01*
X43555000Y-96632500D02*
X45795000Y-96632500D01*
X44675000Y-91742500D02*
X44675000Y-92392500D01*
X44675000Y-97282500D02*
X44675000Y-96632500D01*
X45795000Y-92392500D02*
X43555000Y-92392500D01*
X45795000Y-92992500D02*
X43555000Y-92992500D01*
X45795000Y-93112500D02*
X43555000Y-93112500D01*
X45795000Y-93232500D02*
X43555000Y-93232500D01*
X45795000Y-96632500D02*
X45795000Y-92392500D01*
D12*
X38200000Y-27100000D02*
X38200000Y-26100000D01*
X38200000Y-39100000D02*
X38200000Y-38100000D01*
X38200000Y-39100000D02*
X39200000Y-39100000D01*
X39200000Y-26100000D02*
X38200000Y-26100000D01*
X50200000Y-39100000D02*
X51200000Y-39100000D01*
X51200000Y-26100000D02*
X50200000Y-26100000D01*
X51200000Y-26100000D02*
X51200000Y-27100000D01*
X51200000Y-38100000D02*
X51200000Y-39100000D01*
D11*
X195955000Y-30480000D02*
X195955000Y-34720000D01*
X195955000Y-34720000D02*
X198195000Y-34720000D01*
X197075000Y-29830000D02*
X197075000Y-30480000D01*
X197075000Y-35370000D02*
X197075000Y-34720000D01*
X198195000Y-30480000D02*
X195955000Y-30480000D01*
X198195000Y-31080000D02*
X195955000Y-31080000D01*
X198195000Y-31200000D02*
X195955000Y-31200000D01*
X198195000Y-31320000D02*
X195955000Y-31320000D01*
X198195000Y-34720000D02*
X198195000Y-30480000D01*
D12*
X4862500Y-69962500D02*
X4862500Y-68962500D01*
X4862500Y-81962500D02*
X4862500Y-80962500D01*
X4862500Y-81962500D02*
X5862500Y-81962500D01*
X5862500Y-68962500D02*
X4862500Y-68962500D01*
X16862500Y-81962500D02*
X17862500Y-81962500D01*
X17862500Y-68962500D02*
X16862500Y-68962500D01*
X17862500Y-68962500D02*
X17862500Y-69962500D01*
X17862500Y-80962500D02*
X17862500Y-81962500D01*
D11*
X176905000Y-30480000D02*
X176905000Y-34720000D01*
X176905000Y-34720000D02*
X179145000Y-34720000D01*
X178025000Y-29830000D02*
X178025000Y-30480000D01*
X178025000Y-35370000D02*
X178025000Y-34720000D01*
X179145000Y-30480000D02*
X176905000Y-30480000D01*
X179145000Y-31080000D02*
X176905000Y-31080000D01*
X179145000Y-31200000D02*
X176905000Y-31200000D01*
X179145000Y-31320000D02*
X176905000Y-31320000D01*
X179145000Y-34720000D02*
X179145000Y-30480000D01*
D12*
X123925000Y-108062500D02*
X123925000Y-107062500D01*
X123925000Y-120062500D02*
X123925000Y-119062500D01*
X123925000Y-120062500D02*
X124925000Y-120062500D01*
X124925000Y-107062500D02*
X123925000Y-107062500D01*
X135925000Y-120062500D02*
X136925000Y-120062500D01*
X136925000Y-107062500D02*
X135925000Y-107062500D01*
X136925000Y-107062500D02*
X136925000Y-108062500D01*
X136925000Y-119062500D02*
X136925000Y-120062500D01*
X181075000Y-50912500D02*
X181075000Y-49912500D01*
X181075000Y-62912500D02*
X181075000Y-61912500D01*
X181075000Y-62912500D02*
X182075000Y-62912500D01*
X182075000Y-49912500D02*
X181075000Y-49912500D01*
X193075000Y-62912500D02*
X194075000Y-62912500D01*
X194075000Y-49912500D02*
X193075000Y-49912500D01*
X194075000Y-49912500D02*
X194075000Y-50912500D01*
X194075000Y-61912500D02*
X194075000Y-62912500D01*
D11*
X110230000Y-111442500D02*
X110230000Y-115682500D01*
X110230000Y-115682500D02*
X112470000Y-115682500D01*
X111350000Y-110792500D02*
X111350000Y-111442500D01*
X111350000Y-116332500D02*
X111350000Y-115682500D01*
X112470000Y-111442500D02*
X110230000Y-111442500D01*
X112470000Y-112042500D02*
X110230000Y-112042500D01*
X112470000Y-112162500D02*
X110230000Y-112162500D01*
X112470000Y-112282500D02*
X110230000Y-112282500D01*
X112470000Y-115682500D02*
X112470000Y-111442500D01*
D12*
X95350000Y-127112500D02*
X95350000Y-126112500D01*
X95350000Y-139112500D02*
X95350000Y-138112500D01*
X95350000Y-139112500D02*
X96350000Y-139112500D01*
X96350000Y-126112500D02*
X95350000Y-126112500D01*
X107350000Y-139112500D02*
X108350000Y-139112500D01*
X108350000Y-126112500D02*
X107350000Y-126112500D01*
X108350000Y-126112500D02*
X108350000Y-127112500D01*
X108350000Y-138112500D02*
X108350000Y-139112500D01*
X38200000Y-108062500D02*
X38200000Y-107062500D01*
X38200000Y-120062500D02*
X38200000Y-119062500D01*
X38200000Y-120062500D02*
X39200000Y-120062500D01*
X39200000Y-107062500D02*
X38200000Y-107062500D01*
X50200000Y-120062500D02*
X51200000Y-120062500D01*
X51200000Y-107062500D02*
X50200000Y-107062500D01*
X51200000Y-107062500D02*
X51200000Y-108062500D01*
X51200000Y-119062500D02*
X51200000Y-120062500D01*
D11*
X57842500Y-73342500D02*
X57842500Y-77582500D01*
X57842500Y-77582500D02*
X60082500Y-77582500D01*
X58962500Y-72692500D02*
X58962500Y-73342500D01*
X58962500Y-78232500D02*
X58962500Y-77582500D01*
X60082500Y-73342500D02*
X57842500Y-73342500D01*
X60082500Y-73942500D02*
X57842500Y-73942500D01*
X60082500Y-74062500D02*
X57842500Y-74062500D01*
X60082500Y-74182500D02*
X57842500Y-74182500D01*
X60082500Y-77582500D02*
X60082500Y-73342500D01*
X161542500Y-54292500D02*
X161542500Y-58532500D01*
X161542500Y-58532500D02*
X163782500Y-58532500D01*
X162662500Y-53642500D02*
X162662500Y-54292500D01*
X162662500Y-59182500D02*
X162662500Y-58532500D01*
X163782500Y-54292500D02*
X161542500Y-54292500D01*
X163782500Y-54892500D02*
X161542500Y-54892500D01*
X163782500Y-55012500D02*
X161542500Y-55012500D01*
X163782500Y-55132500D02*
X161542500Y-55132500D01*
X163782500Y-58532500D02*
X163782500Y-54292500D01*
D12*
X71537500Y-50912500D02*
X71537500Y-49912500D01*
X71537500Y-62912500D02*
X71537500Y-61912500D01*
X71537500Y-62912500D02*
X72537500Y-62912500D01*
X72537500Y-49912500D02*
X71537500Y-49912500D01*
X83537500Y-62912500D02*
X84537500Y-62912500D01*
X84537500Y-49912500D02*
X83537500Y-49912500D01*
X84537500Y-49912500D02*
X84537500Y-50912500D01*
X84537500Y-61912500D02*
X84537500Y-62912500D01*
D11*
X53080000Y-111442500D02*
X53080000Y-115682500D01*
X53080000Y-115682500D02*
X55320000Y-115682500D01*
X54200000Y-110792500D02*
X54200000Y-111442500D01*
X54200000Y-116332500D02*
X54200000Y-115682500D01*
X55320000Y-111442500D02*
X53080000Y-111442500D01*
X55320000Y-112042500D02*
X53080000Y-112042500D01*
X55320000Y-112162500D02*
X53080000Y-112162500D01*
X55320000Y-112282500D02*
X53080000Y-112282500D01*
X55320000Y-115682500D02*
X55320000Y-111442500D01*
D12*
X95350000Y-108062500D02*
X95350000Y-107062500D01*
X95350000Y-120062500D02*
X95350000Y-119062500D01*
X95350000Y-120062500D02*
X96350000Y-120062500D01*
X96350000Y-107062500D02*
X95350000Y-107062500D01*
X107350000Y-120062500D02*
X108350000Y-120062500D01*
X108350000Y-107062500D02*
X107350000Y-107062500D01*
X108350000Y-107062500D02*
X108350000Y-108062500D01*
X108350000Y-119062500D02*
X108350000Y-120062500D01*
D11*
X119755000Y-92392500D02*
X119755000Y-96632500D01*
X119755000Y-96632500D02*
X121995000Y-96632500D01*
X120875000Y-91742500D02*
X120875000Y-92392500D01*
X120875000Y-97282500D02*
X120875000Y-96632500D01*
X121995000Y-92392500D02*
X119755000Y-92392500D01*
X121995000Y-92992500D02*
X119755000Y-92992500D01*
X121995000Y-93112500D02*
X119755000Y-93112500D01*
X121995000Y-93232500D02*
X119755000Y-93232500D01*
X121995000Y-96632500D02*
X121995000Y-92392500D01*
X48317500Y-54292500D02*
X48317500Y-58532500D01*
X48317500Y-58532500D02*
X50557500Y-58532500D01*
X49437500Y-53642500D02*
X49437500Y-54292500D01*
X49437500Y-59182500D02*
X49437500Y-58532500D01*
X50557500Y-54292500D02*
X48317500Y-54292500D01*
X50557500Y-54892500D02*
X48317500Y-54892500D01*
X50557500Y-55012500D02*
X48317500Y-55012500D01*
X50557500Y-55132500D02*
X48317500Y-55132500D01*
X50557500Y-58532500D02*
X50557500Y-54292500D01*
D12*
X181075000Y-27100000D02*
X181075000Y-26100000D01*
X181075000Y-39100000D02*
X181075000Y-38100000D01*
X181075000Y-39100000D02*
X182075000Y-39100000D01*
X182075000Y-26100000D02*
X181075000Y-26100000D01*
X193075000Y-39100000D02*
X194075000Y-39100000D01*
X194075000Y-26100000D02*
X193075000Y-26100000D01*
X194075000Y-26100000D02*
X194075000Y-27100000D01*
X194075000Y-38100000D02*
X194075000Y-39100000D01*
D11*
X110230000Y-130492500D02*
X110230000Y-134732500D01*
X110230000Y-134732500D02*
X112470000Y-134732500D01*
X111350000Y-129842500D02*
X111350000Y-130492500D01*
X111350000Y-135382500D02*
X111350000Y-134732500D01*
X112470000Y-130492500D02*
X110230000Y-130492500D01*
X112470000Y-131092500D02*
X110230000Y-131092500D01*
X112470000Y-131212500D02*
X110230000Y-131212500D01*
X112470000Y-131332500D02*
X110230000Y-131332500D01*
X112470000Y-134732500D02*
X112470000Y-130492500D01*
D12*
X81062500Y-27100000D02*
X81062500Y-26100000D01*
X81062500Y-39100000D02*
X81062500Y-38100000D01*
X81062500Y-39100000D02*
X82062500Y-39100000D01*
X82062500Y-26100000D02*
X81062500Y-26100000D01*
X93062500Y-39100000D02*
X94062500Y-39100000D01*
X94062500Y-26100000D02*
X93062500Y-26100000D01*
X94062500Y-26100000D02*
X94062500Y-27100000D01*
X94062500Y-38100000D02*
X94062500Y-39100000D01*
X114400000Y-127112500D02*
X114400000Y-126112500D01*
X114400000Y-139112500D02*
X114400000Y-138112500D01*
X114400000Y-139112500D02*
X115400000Y-139112500D01*
X115400000Y-126112500D02*
X114400000Y-126112500D01*
X126400000Y-139112500D02*
X127400000Y-139112500D01*
X127400000Y-126112500D02*
X126400000Y-126112500D01*
X127400000Y-126112500D02*
X127400000Y-127112500D01*
X127400000Y-138112500D02*
X127400000Y-139112500D01*
X90587500Y-50912500D02*
X90587500Y-49912500D01*
X90587500Y-62912500D02*
X90587500Y-61912500D01*
X90587500Y-62912500D02*
X91587500Y-62912500D01*
X91587500Y-49912500D02*
X90587500Y-49912500D01*
X102587500Y-62912500D02*
X103587500Y-62912500D01*
X103587500Y-49912500D02*
X102587500Y-49912500D01*
X103587500Y-49912500D02*
X103587500Y-50912500D01*
X103587500Y-61912500D02*
X103587500Y-62912500D01*
X109637500Y-50912500D02*
X109637500Y-49912500D01*
X109637500Y-62912500D02*
X109637500Y-61912500D01*
X109637500Y-62912500D02*
X110637500Y-62912500D01*
X110637500Y-49912500D02*
X109637500Y-49912500D01*
X121637500Y-62912500D02*
X122637500Y-62912500D01*
X122637500Y-49912500D02*
X121637500Y-49912500D01*
X122637500Y-49912500D02*
X122637500Y-50912500D01*
X122637500Y-61912500D02*
X122637500Y-62912500D01*
X54868750Y-127112500D02*
X54868750Y-126112500D01*
X54868750Y-139112500D02*
X54868750Y-138112500D01*
X54868750Y-139112500D02*
X55868750Y-139112500D01*
X55868750Y-126112500D02*
X54868750Y-126112500D01*
X66868750Y-139112500D02*
X67868750Y-139112500D01*
X67868750Y-126112500D02*
X66868750Y-126112500D01*
X67868750Y-126112500D02*
X67868750Y-127112500D01*
X67868750Y-138112500D02*
X67868750Y-139112500D01*
D11*
X11565000Y-2970000D02*
X12565000Y-1970000D01*
X11565000Y-12090000D02*
X11565000Y-2970000D01*
X11565000Y-12090000D02*
X13990000Y-12090000D01*
X12565000Y-1970000D02*
X29435000Y-1970000D01*
X16010000Y-12090000D02*
X17348233Y-12090000D01*
X18651767Y-12090000D02*
X20348233Y-12090000D01*
X21651767Y-12090000D02*
X23348233Y-12090000D01*
X24651767Y-12090000D02*
X26348233Y-12090000D01*
X29435000Y-1970000D02*
X30435000Y-2970000D01*
X30435000Y-2970000D02*
X30435000Y-12090000D01*
X30435000Y-12090000D02*
X27651767Y-12090000D01*
X38792500Y-73342500D02*
X38792500Y-77582500D01*
X38792500Y-77582500D02*
X41032500Y-77582500D01*
X39912500Y-72692500D02*
X39912500Y-73342500D01*
X39912500Y-78232500D02*
X39912500Y-77582500D01*
X41032500Y-73342500D02*
X38792500Y-73342500D01*
X41032500Y-73942500D02*
X38792500Y-73942500D01*
X41032500Y-74062500D02*
X38792500Y-74062500D01*
X41032500Y-74182500D02*
X38792500Y-74182500D01*
X41032500Y-77582500D02*
X41032500Y-73342500D01*
D12*
X66775000Y-89012500D02*
X66775000Y-88012500D01*
X66775000Y-101012500D02*
X66775000Y-100012500D01*
X66775000Y-101012500D02*
X67775000Y-101012500D01*
X67775000Y-88012500D02*
X66775000Y-88012500D01*
X78775000Y-101012500D02*
X79775000Y-101012500D01*
X79775000Y-88012500D02*
X78775000Y-88012500D01*
X79775000Y-88012500D02*
X79775000Y-89012500D01*
X79775000Y-100012500D02*
X79775000Y-101012500D01*
D11*
X91180000Y-130492500D02*
X91180000Y-134732500D01*
X91180000Y-134732500D02*
X93420000Y-134732500D01*
X92300000Y-129842500D02*
X92300000Y-130492500D01*
X92300000Y-135382500D02*
X92300000Y-134732500D01*
X93420000Y-130492500D02*
X91180000Y-130492500D01*
X93420000Y-131092500D02*
X91180000Y-131092500D01*
X93420000Y-131212500D02*
X91180000Y-131212500D01*
X93420000Y-131332500D02*
X91180000Y-131332500D01*
X93420000Y-134732500D02*
X93420000Y-130492500D01*
X114992500Y-73342500D02*
X114992500Y-77582500D01*
X114992500Y-77582500D02*
X117232500Y-77582500D01*
X116112500Y-72692500D02*
X116112500Y-73342500D01*
X116112500Y-78232500D02*
X116112500Y-77582500D01*
X117232500Y-73342500D02*
X114992500Y-73342500D01*
X117232500Y-73942500D02*
X114992500Y-73942500D01*
X117232500Y-74062500D02*
X114992500Y-74062500D01*
X117232500Y-74182500D02*
X114992500Y-74182500D01*
X117232500Y-77582500D02*
X117232500Y-73342500D01*
X67367500Y-54292500D02*
X67367500Y-58532500D01*
X67367500Y-58532500D02*
X69607500Y-58532500D01*
X68487500Y-53642500D02*
X68487500Y-54292500D01*
X68487500Y-59182500D02*
X68487500Y-58532500D01*
X69607500Y-54292500D02*
X67367500Y-54292500D01*
X69607500Y-54892500D02*
X67367500Y-54892500D01*
X69607500Y-55012500D02*
X67367500Y-55012500D01*
X69607500Y-55132500D02*
X67367500Y-55132500D01*
X69607500Y-58532500D02*
X69607500Y-54292500D01*
X100705000Y-92392500D02*
X100705000Y-96632500D01*
X100705000Y-96632500D02*
X102945000Y-96632500D01*
X101825000Y-91742500D02*
X101825000Y-92392500D01*
X101825000Y-97282500D02*
X101825000Y-96632500D01*
X102945000Y-92392500D02*
X100705000Y-92392500D01*
X102945000Y-92992500D02*
X100705000Y-92992500D01*
X102945000Y-93112500D02*
X100705000Y-93112500D01*
X102945000Y-93232500D02*
X100705000Y-93232500D01*
X102945000Y-96632500D02*
X102945000Y-92392500D01*
X76892500Y-73342500D02*
X76892500Y-77582500D01*
X76892500Y-77582500D02*
X79132500Y-77582500D01*
X78012500Y-72692500D02*
X78012500Y-73342500D01*
X78012500Y-78232500D02*
X78012500Y-77582500D01*
X79132500Y-73342500D02*
X76892500Y-73342500D01*
X79132500Y-73942500D02*
X76892500Y-73942500D01*
X79132500Y-74062500D02*
X76892500Y-74062500D01*
X79132500Y-74182500D02*
X76892500Y-74182500D01*
X79132500Y-77582500D02*
X79132500Y-73342500D01*
D12*
X28675000Y-89012500D02*
X28675000Y-88012500D01*
X28675000Y-101012500D02*
X28675000Y-100012500D01*
X28675000Y-101012500D02*
X29675000Y-101012500D01*
X29675000Y-88012500D02*
X28675000Y-88012500D01*
X40675000Y-101012500D02*
X41675000Y-101012500D01*
X41675000Y-88012500D02*
X40675000Y-88012500D01*
X41675000Y-88012500D02*
X41675000Y-89012500D01*
X41675000Y-100012500D02*
X41675000Y-101012500D01*
D11*
X157855000Y-73342500D02*
X157855000Y-77582500D01*
X157855000Y-77582500D02*
X160095000Y-77582500D01*
X158975000Y-72692500D02*
X158975000Y-73342500D01*
X158975000Y-78232500D02*
X158975000Y-77582500D01*
X160095000Y-73342500D02*
X157855000Y-73342500D01*
X160095000Y-73942500D02*
X157855000Y-73942500D01*
X160095000Y-74062500D02*
X157855000Y-74062500D01*
X160095000Y-74182500D02*
X157855000Y-74182500D01*
X160095000Y-77582500D02*
X160095000Y-73342500D01*
D12*
X76300000Y-127112500D02*
X76300000Y-126112500D01*
X76300000Y-139112500D02*
X76300000Y-138112500D01*
X76300000Y-139112500D02*
X77300000Y-139112500D01*
X77300000Y-126112500D02*
X76300000Y-126112500D01*
X88300000Y-139112500D02*
X89300000Y-139112500D01*
X89300000Y-126112500D02*
X88300000Y-126112500D01*
X89300000Y-126112500D02*
X89300000Y-127112500D01*
X89300000Y-138112500D02*
X89300000Y-139112500D01*
D11*
X76892500Y-30480000D02*
X76892500Y-34720000D01*
X76892500Y-34720000D02*
X79132500Y-34720000D01*
X78012500Y-29830000D02*
X78012500Y-30480000D01*
X78012500Y-35370000D02*
X78012500Y-34720000D01*
X79132500Y-30480000D02*
X76892500Y-30480000D01*
X79132500Y-31080000D02*
X76892500Y-31080000D01*
X79132500Y-31200000D02*
X76892500Y-31200000D01*
X79132500Y-31320000D02*
X76892500Y-31320000D01*
X79132500Y-34720000D02*
X79132500Y-30480000D01*
D12*
X62012500Y-69962500D02*
X62012500Y-68962500D01*
X62012500Y-81962500D02*
X62012500Y-80962500D01*
X62012500Y-81962500D02*
X63012500Y-81962500D01*
X63012500Y-68962500D02*
X62012500Y-68962500D01*
X74012500Y-81962500D02*
X75012500Y-81962500D01*
X75012500Y-68962500D02*
X74012500Y-68962500D01*
X75012500Y-68962500D02*
X75012500Y-69962500D01*
X75012500Y-80962500D02*
X75012500Y-81962500D01*
D13*
X35720000Y-2610000D02*
X35720000Y-20390000D01*
X35720000Y-20390000D02*
X38260000Y-20390000D01*
X38260000Y-2610000D02*
X35720000Y-2610000D01*
X38260000Y-17850000D02*
X38260000Y-20390000D01*
X38260000Y-17850000D02*
X40800000Y-17850000D01*
X38260000Y-20390000D02*
X68740000Y-20390000D01*
X40800000Y-17850000D02*
X40800000Y-20390000D01*
X68740000Y-2610000D02*
X38260000Y-2610000D01*
X68740000Y-20390000D02*
X68740000Y-2610000D01*
D10*
X44239360Y-7068432D02*
X44139360Y-7068432D01*
X44139360Y-6568432D01*
X44239360Y-6568432D01*
X44239360Y-7068432D01*
G36*
X44239360Y-7068432D02*
G01*
X44139360Y-7068432D01*
X44139360Y-6568432D01*
X44239360Y-6568432D01*
X44239360Y-7068432D01*
G37*
X44439360Y-6668432D02*
X44139360Y-6668432D01*
X44139360Y-6568432D01*
X44439360Y-6568432D01*
X44439360Y-6668432D01*
G36*
X44439360Y-6668432D02*
G01*
X44139360Y-6668432D01*
X44139360Y-6568432D01*
X44439360Y-6568432D01*
X44439360Y-6668432D01*
G37*
X44939360Y-7068432D02*
X44139360Y-7068432D01*
X44139360Y-6968432D01*
X44939360Y-6968432D01*
X44939360Y-7068432D01*
G36*
X44939360Y-7068432D02*
G01*
X44139360Y-7068432D01*
X44139360Y-6968432D01*
X44939360Y-6968432D01*
X44939360Y-7068432D01*
G37*
X44639360Y-6868432D02*
X44539360Y-6868432D01*
X44539360Y-6768432D01*
X44639360Y-6768432D01*
X44639360Y-6868432D01*
G36*
X44639360Y-6868432D02*
G01*
X44539360Y-6868432D01*
X44539360Y-6768432D01*
X44639360Y-6768432D01*
X44639360Y-6868432D01*
G37*
X44939360Y-6668432D02*
X44739360Y-6668432D01*
X44739360Y-6568432D01*
X44939360Y-6568432D01*
X44939360Y-6668432D01*
G36*
X44939360Y-6668432D02*
G01*
X44739360Y-6668432D01*
X44739360Y-6568432D01*
X44939360Y-6568432D01*
X44939360Y-6668432D01*
G37*
D12*
X142975000Y-69962500D02*
X142975000Y-68962500D01*
X142975000Y-81962500D02*
X142975000Y-80962500D01*
X142975000Y-81962500D02*
X143975000Y-81962500D01*
X143975000Y-68962500D02*
X142975000Y-68962500D01*
X154975000Y-81962500D02*
X155975000Y-81962500D01*
X155975000Y-68962500D02*
X154975000Y-68962500D01*
X155975000Y-68962500D02*
X155975000Y-69962500D01*
X155975000Y-80962500D02*
X155975000Y-81962500D01*
D11*
X34030000Y-30480000D02*
X34030000Y-34720000D01*
X34030000Y-34720000D02*
X36270000Y-34720000D01*
X35150000Y-29830000D02*
X35150000Y-30480000D01*
X35150000Y-35370000D02*
X35150000Y-34720000D01*
X36270000Y-30480000D02*
X34030000Y-30480000D01*
X36270000Y-31080000D02*
X34030000Y-31080000D01*
X36270000Y-31200000D02*
X34030000Y-31200000D01*
X36270000Y-31320000D02*
X34030000Y-31320000D01*
X36270000Y-34720000D02*
X36270000Y-30480000D01*
D12*
X142975000Y-27100000D02*
X142975000Y-26100000D01*
X142975000Y-39100000D02*
X142975000Y-38100000D01*
X142975000Y-39100000D02*
X143975000Y-39100000D01*
X143975000Y-26100000D02*
X142975000Y-26100000D01*
X154975000Y-39100000D02*
X155975000Y-39100000D01*
X155975000Y-26100000D02*
X154975000Y-26100000D01*
X155975000Y-26100000D02*
X155975000Y-27100000D01*
X155975000Y-38100000D02*
X155975000Y-39100000D01*
D11*
X134042500Y-30480000D02*
X134042500Y-34720000D01*
X134042500Y-34720000D02*
X136282500Y-34720000D01*
X135162500Y-29830000D02*
X135162500Y-30480000D01*
X135162500Y-35370000D02*
X135162500Y-34720000D01*
X136282500Y-30480000D02*
X134042500Y-30480000D01*
X136282500Y-31080000D02*
X134042500Y-31080000D01*
X136282500Y-31200000D02*
X134042500Y-31200000D01*
X136282500Y-31320000D02*
X134042500Y-31320000D01*
X136282500Y-34720000D02*
X136282500Y-30480000D01*
D12*
X138212500Y-131875000D02*
X138212500Y-130875000D01*
X138212500Y-143875000D02*
X138212500Y-142875000D01*
X138212500Y-143875000D02*
X139212500Y-143875000D01*
X139212500Y-130875000D02*
X138212500Y-130875000D01*
X150212500Y-143875000D02*
X151212500Y-143875000D01*
X151212500Y-130875000D02*
X150212500Y-130875000D01*
X151212500Y-130875000D02*
X151212500Y-131875000D01*
X151212500Y-142875000D02*
X151212500Y-143875000D01*
D11*
X195955000Y-111442500D02*
X195955000Y-115682500D01*
X195955000Y-115682500D02*
X198195000Y-115682500D01*
X197075000Y-110792500D02*
X197075000Y-111442500D01*
X197075000Y-116332500D02*
X197075000Y-115682500D01*
X198195000Y-111442500D02*
X195955000Y-111442500D01*
X198195000Y-112042500D02*
X195955000Y-112042500D01*
X198195000Y-112162500D02*
X195955000Y-112162500D01*
X198195000Y-112282500D02*
X195955000Y-112282500D01*
X198195000Y-115682500D02*
X198195000Y-111442500D01*
X95942500Y-30480000D02*
X95942500Y-34720000D01*
X95942500Y-34720000D02*
X98182500Y-34720000D01*
X97062500Y-29830000D02*
X97062500Y-30480000D01*
X97062500Y-35370000D02*
X97062500Y-34720000D01*
X98182500Y-30480000D02*
X95942500Y-30480000D01*
X98182500Y-31080000D02*
X95942500Y-31080000D01*
X98182500Y-31200000D02*
X95942500Y-31200000D01*
X98182500Y-31320000D02*
X95942500Y-31320000D01*
X98182500Y-34720000D02*
X98182500Y-30480000D01*
X34030000Y-111442500D02*
X34030000Y-115682500D01*
X34030000Y-115682500D02*
X36270000Y-115682500D01*
X35150000Y-110792500D02*
X35150000Y-111442500D01*
X35150000Y-116332500D02*
X35150000Y-115682500D01*
X36270000Y-111442500D02*
X34030000Y-111442500D01*
X36270000Y-112042500D02*
X34030000Y-112042500D01*
X36270000Y-112162500D02*
X34030000Y-112162500D01*
X36270000Y-112282500D02*
X34030000Y-112282500D01*
X36270000Y-115682500D02*
X36270000Y-111442500D01*
D12*
X81062500Y-69962500D02*
X81062500Y-68962500D01*
X81062500Y-81962500D02*
X81062500Y-80962500D01*
X81062500Y-81962500D02*
X82062500Y-81962500D01*
X82062500Y-68962500D02*
X81062500Y-68962500D01*
X93062500Y-81962500D02*
X94062500Y-81962500D01*
X94062500Y-68962500D02*
X93062500Y-68962500D01*
X94062500Y-68962500D02*
X94062500Y-69962500D01*
X94062500Y-80962500D02*
X94062500Y-81962500D01*
X9625000Y-89012500D02*
X9625000Y-88012500D01*
X9625000Y-101012500D02*
X9625000Y-100012500D01*
X9625000Y-101012500D02*
X10625000Y-101012500D01*
X10625000Y-88012500D02*
X9625000Y-88012500D01*
X21625000Y-101012500D02*
X22625000Y-101012500D01*
X22625000Y-88012500D02*
X21625000Y-88012500D01*
X22625000Y-88012500D02*
X22625000Y-89012500D01*
X22625000Y-100012500D02*
X22625000Y-101012500D01*
D11*
X147255000Y-111442500D02*
X147255000Y-115682500D01*
X147255000Y-115682500D02*
X149495000Y-115682500D01*
X148375000Y-110792500D02*
X148375000Y-111442500D01*
X148375000Y-116332500D02*
X148375000Y-115682500D01*
X149495000Y-111442500D02*
X147255000Y-111442500D01*
X149495000Y-112042500D02*
X147255000Y-112042500D01*
X149495000Y-112162500D02*
X147255000Y-112162500D01*
X149495000Y-112282500D02*
X147255000Y-112282500D01*
X149495000Y-115682500D02*
X149495000Y-111442500D01*
X191192500Y-130380000D02*
X191192500Y-134620000D01*
X191192500Y-134620000D02*
X193432500Y-134620000D01*
X192312500Y-129730000D02*
X192312500Y-130380000D01*
X192312500Y-135270000D02*
X192312500Y-134620000D01*
X193432500Y-130380000D02*
X191192500Y-130380000D01*
X193432500Y-130980000D02*
X191192500Y-130980000D01*
X193432500Y-131100000D02*
X191192500Y-131100000D01*
X193432500Y-131220000D02*
X191192500Y-131220000D01*
X193432500Y-134620000D02*
X193432500Y-130380000D01*
X153092500Y-135255000D02*
X153092500Y-139495000D01*
X153092500Y-139495000D02*
X155332500Y-139495000D01*
X154212500Y-134605000D02*
X154212500Y-135255000D01*
X154212500Y-140145000D02*
X154212500Y-139495000D01*
X155332500Y-135255000D02*
X153092500Y-135255000D01*
X155332500Y-135855000D02*
X153092500Y-135855000D01*
X155332500Y-135975000D02*
X153092500Y-135975000D01*
X155332500Y-136095000D02*
X153092500Y-136095000D01*
X155332500Y-139495000D02*
X155332500Y-135255000D01*
D12*
X100112500Y-69962500D02*
X100112500Y-68962500D01*
X100112500Y-81962500D02*
X100112500Y-80962500D01*
X100112500Y-81962500D02*
X101112500Y-81962500D01*
X101112500Y-68962500D02*
X100112500Y-68962500D01*
X112112500Y-81962500D02*
X113112500Y-81962500D01*
X113112500Y-68962500D02*
X112112500Y-68962500D01*
X113112500Y-68962500D02*
X113112500Y-69962500D01*
X113112500Y-80962500D02*
X113112500Y-81962500D01*
D11*
X72130000Y-111442500D02*
X72130000Y-115682500D01*
X72130000Y-115682500D02*
X74370000Y-115682500D01*
X73250000Y-110792500D02*
X73250000Y-111442500D01*
X73250000Y-116332500D02*
X73250000Y-115682500D01*
X74370000Y-111442500D02*
X72130000Y-111442500D01*
X74370000Y-112042500D02*
X72130000Y-112042500D01*
X74370000Y-112162500D02*
X72130000Y-112162500D01*
X74370000Y-112282500D02*
X72130000Y-112282500D01*
X74370000Y-115682500D02*
X74370000Y-111442500D01*
D12*
X138212500Y-50912500D02*
X138212500Y-49912500D01*
X138212500Y-62912500D02*
X138212500Y-61912500D01*
X138212500Y-62912500D02*
X139212500Y-62912500D01*
X139212500Y-49912500D02*
X138212500Y-49912500D01*
X150212500Y-62912500D02*
X151212500Y-62912500D01*
X151212500Y-49912500D02*
X150212500Y-49912500D01*
X151212500Y-49912500D02*
X151212500Y-50912500D01*
X151212500Y-61912500D02*
X151212500Y-62912500D01*
X14387500Y-50912500D02*
X14387500Y-49912500D01*
X14387500Y-62912500D02*
X14387500Y-61912500D01*
X14387500Y-62912500D02*
X15387500Y-62912500D01*
X15387500Y-49912500D02*
X14387500Y-49912500D01*
X26387500Y-62912500D02*
X27387500Y-62912500D01*
X27387500Y-49912500D02*
X26387500Y-49912500D01*
X27387500Y-49912500D02*
X27387500Y-50912500D01*
X27387500Y-61912500D02*
X27387500Y-62912500D01*
D11*
X29267500Y-54292500D02*
X29267500Y-58532500D01*
X29267500Y-58532500D02*
X31507500Y-58532500D01*
X30387500Y-53642500D02*
X30387500Y-54292500D01*
X30387500Y-59182500D02*
X30387500Y-58532500D01*
X31507500Y-54292500D02*
X29267500Y-54292500D01*
X31507500Y-54892500D02*
X29267500Y-54892500D01*
X31507500Y-55012500D02*
X29267500Y-55012500D01*
X31507500Y-55132500D02*
X29267500Y-55132500D01*
X31507500Y-58532500D02*
X31507500Y-54292500D01*
D12*
X181075000Y-108062500D02*
X181075000Y-107062500D01*
X181075000Y-120062500D02*
X181075000Y-119062500D01*
X181075000Y-120062500D02*
X182075000Y-120062500D01*
X182075000Y-107062500D02*
X181075000Y-107062500D01*
X193075000Y-120062500D02*
X194075000Y-120062500D01*
X194075000Y-107062500D02*
X193075000Y-107062500D01*
X194075000Y-107062500D02*
X194075000Y-108062500D01*
X194075000Y-119062500D02*
X194075000Y-120062500D01*
D11*
X159161250Y-92392500D02*
X159161250Y-96632500D01*
X159161250Y-96632500D02*
X161401250Y-96632500D01*
X160281250Y-91742500D02*
X160281250Y-92392500D01*
X160281250Y-97282500D02*
X160281250Y-96632500D01*
X161401250Y-92392500D02*
X159161250Y-92392500D01*
X161401250Y-92992500D02*
X159161250Y-92992500D01*
X161401250Y-93112500D02*
X159161250Y-93112500D01*
X161401250Y-93232500D02*
X159161250Y-93232500D01*
X161401250Y-96632500D02*
X161401250Y-92392500D01*
D12*
X19150000Y-108062500D02*
X19150000Y-107062500D01*
X19150000Y-120062500D02*
X19150000Y-119062500D01*
X19150000Y-120062500D02*
X20150000Y-120062500D01*
X20150000Y-107062500D02*
X19150000Y-107062500D01*
X31150000Y-120062500D02*
X32150000Y-120062500D01*
X32150000Y-107062500D02*
X31150000Y-107062500D01*
X32150000Y-107062500D02*
X32150000Y-108062500D01*
X32150000Y-119062500D02*
X32150000Y-120062500D01*
X181075000Y-89012500D02*
X181075000Y-88012500D01*
X181075000Y-101012500D02*
X181075000Y-100012500D01*
X181075000Y-101012500D02*
X182075000Y-101012500D01*
X182075000Y-88012500D02*
X181075000Y-88012500D01*
X193075000Y-101012500D02*
X194075000Y-101012500D01*
X194075000Y-88012500D02*
X193075000Y-88012500D01*
X194075000Y-88012500D02*
X194075000Y-89012500D01*
X194075000Y-100012500D02*
X194075000Y-101012500D01*
X21531250Y-127112500D02*
X21531250Y-126112500D01*
X21531250Y-139112500D02*
X21531250Y-138112500D01*
X21531250Y-139112500D02*
X22531250Y-139112500D01*
X22531250Y-126112500D02*
X21531250Y-126112500D01*
X33531250Y-139112500D02*
X34531250Y-139112500D01*
X34531250Y-126112500D02*
X33531250Y-126112500D01*
X34531250Y-126112500D02*
X34531250Y-127112500D01*
X34531250Y-138112500D02*
X34531250Y-139112500D01*
X119162500Y-69962500D02*
X119162500Y-68962500D01*
X119162500Y-81962500D02*
X119162500Y-80962500D01*
X119162500Y-81962500D02*
X120162500Y-81962500D01*
X120162500Y-68962500D02*
X119162500Y-68962500D01*
X131162500Y-81962500D02*
X132162500Y-81962500D01*
X132162500Y-68962500D02*
X131162500Y-68962500D01*
X132162500Y-68962500D02*
X132162500Y-69962500D01*
X132162500Y-80962500D02*
X132162500Y-81962500D01*
X42962500Y-69962500D02*
X42962500Y-68962500D01*
X42962500Y-81962500D02*
X42962500Y-80962500D01*
X42962500Y-81962500D02*
X43962500Y-81962500D01*
X43962500Y-68962500D02*
X42962500Y-68962500D01*
X54962500Y-81962500D02*
X55962500Y-81962500D01*
X55962500Y-68962500D02*
X54962500Y-68962500D01*
X55962500Y-68962500D02*
X55962500Y-69962500D01*
X55962500Y-80962500D02*
X55962500Y-81962500D01*
X135831250Y-89012500D02*
X135831250Y-88012500D01*
X135831250Y-101012500D02*
X135831250Y-100012500D01*
X135831250Y-101012500D02*
X136831250Y-101012500D01*
X136831250Y-88012500D02*
X135831250Y-88012500D01*
X147831250Y-101012500D02*
X148831250Y-101012500D01*
X148831250Y-88012500D02*
X147831250Y-88012500D01*
X148831250Y-88012500D02*
X148831250Y-89012500D01*
X148831250Y-100012500D02*
X148831250Y-101012500D01*
X157262500Y-131875000D02*
X157262500Y-130875000D01*
X157262500Y-143875000D02*
X157262500Y-142875000D01*
X157262500Y-143875000D02*
X158262500Y-143875000D01*
X158262500Y-130875000D02*
X157262500Y-130875000D01*
X169262500Y-143875000D02*
X170262500Y-143875000D01*
X170262500Y-130875000D02*
X169262500Y-130875000D01*
X170262500Y-130875000D02*
X170262500Y-131875000D01*
X170262500Y-142875000D02*
X170262500Y-143875000D01*
D11*
X195955000Y-54292500D02*
X195955000Y-58532500D01*
X195955000Y-58532500D02*
X198195000Y-58532500D01*
X197075000Y-53642500D02*
X197075000Y-54292500D01*
X197075000Y-59182500D02*
X197075000Y-58532500D01*
X198195000Y-54292500D02*
X195955000Y-54292500D01*
X198195000Y-54892500D02*
X195955000Y-54892500D01*
X198195000Y-55012500D02*
X195955000Y-55012500D01*
X198195000Y-55132500D02*
X195955000Y-55132500D01*
X198195000Y-58532500D02*
X198195000Y-54292500D01*
X105467500Y-54292500D02*
X105467500Y-58532500D01*
X105467500Y-58532500D02*
X107707500Y-58532500D01*
X106587500Y-53642500D02*
X106587500Y-54292500D01*
X106587500Y-59182500D02*
X106587500Y-58532500D01*
X107707500Y-54292500D02*
X105467500Y-54292500D01*
X107707500Y-54892500D02*
X105467500Y-54892500D01*
X107707500Y-55012500D02*
X105467500Y-55012500D01*
X107707500Y-55132500D02*
X105467500Y-55132500D01*
X107707500Y-58532500D02*
X107707500Y-54292500D01*
D12*
X119162500Y-27100000D02*
X119162500Y-26100000D01*
X119162500Y-39100000D02*
X119162500Y-38100000D01*
X119162500Y-39100000D02*
X120162500Y-39100000D01*
X120162500Y-26100000D02*
X119162500Y-26100000D01*
X131162500Y-39100000D02*
X132162500Y-39100000D01*
X132162500Y-26100000D02*
X131162500Y-26100000D01*
X132162500Y-26100000D02*
X132162500Y-27100000D01*
X132162500Y-38100000D02*
X132162500Y-39100000D01*
D11*
X81655000Y-92392500D02*
X81655000Y-96632500D01*
X81655000Y-96632500D02*
X83895000Y-96632500D01*
X82775000Y-91742500D02*
X82775000Y-92392500D01*
X82775000Y-97282500D02*
X82775000Y-96632500D01*
X83895000Y-92392500D02*
X81655000Y-92392500D01*
X83895000Y-92992500D02*
X81655000Y-92992500D01*
X83895000Y-93112500D02*
X81655000Y-93112500D01*
X83895000Y-93232500D02*
X81655000Y-93232500D01*
X83895000Y-96632500D02*
X83895000Y-92392500D01*
D12*
X52487500Y-50912500D02*
X52487500Y-49912500D01*
X52487500Y-62912500D02*
X52487500Y-61912500D01*
X52487500Y-62912500D02*
X53487500Y-62912500D01*
X53487500Y-49912500D02*
X52487500Y-49912500D01*
X64487500Y-62912500D02*
X65487500Y-62912500D01*
X65487500Y-49912500D02*
X64487500Y-49912500D01*
X65487500Y-49912500D02*
X65487500Y-50912500D01*
X65487500Y-61912500D02*
X65487500Y-62912500D01*
X162025000Y-27100000D02*
X162025000Y-26100000D01*
X162025000Y-39100000D02*
X162025000Y-38100000D01*
X162025000Y-39100000D02*
X163025000Y-39100000D01*
X163025000Y-26100000D02*
X162025000Y-26100000D01*
X174025000Y-39100000D02*
X175025000Y-39100000D01*
X175025000Y-26100000D02*
X174025000Y-26100000D01*
X175025000Y-26100000D02*
X175025000Y-27100000D01*
X175025000Y-38100000D02*
X175025000Y-39100000D01*
D11*
X129280000Y-130492500D02*
X129280000Y-134732500D01*
X129280000Y-134732500D02*
X131520000Y-134732500D01*
X130400000Y-129842500D02*
X130400000Y-130492500D01*
X130400000Y-135382500D02*
X130400000Y-134732500D01*
X131520000Y-130492500D02*
X129280000Y-130492500D01*
X131520000Y-131092500D02*
X129280000Y-131092500D01*
X131520000Y-131212500D02*
X129280000Y-131212500D01*
X131520000Y-131332500D02*
X129280000Y-131332500D01*
X131520000Y-134732500D02*
X131520000Y-130492500D01*
X19742500Y-73342500D02*
X19742500Y-77582500D01*
X19742500Y-77582500D02*
X21982500Y-77582500D01*
X20862500Y-72692500D02*
X20862500Y-73342500D01*
X20862500Y-78232500D02*
X20862500Y-77582500D01*
X21982500Y-73342500D02*
X19742500Y-73342500D01*
X21982500Y-73942500D02*
X19742500Y-73942500D01*
X21982500Y-74062500D02*
X19742500Y-74062500D01*
X21982500Y-74182500D02*
X19742500Y-74182500D01*
X21982500Y-77582500D02*
X21982500Y-73342500D01*
D12*
X19150000Y-27100000D02*
X19150000Y-26100000D01*
X19150000Y-39100000D02*
X19150000Y-38100000D01*
X19150000Y-39100000D02*
X20150000Y-39100000D01*
X20150000Y-26100000D02*
X19150000Y-26100000D01*
X31150000Y-39100000D02*
X32150000Y-39100000D01*
X32150000Y-26100000D02*
X31150000Y-26100000D01*
X32150000Y-26100000D02*
X32150000Y-27100000D01*
X32150000Y-38100000D02*
X32150000Y-39100000D01*
D11*
X157855000Y-30480000D02*
X157855000Y-34720000D01*
X157855000Y-34720000D02*
X160095000Y-34720000D01*
X158975000Y-29830000D02*
X158975000Y-30480000D01*
X158975000Y-35370000D02*
X158975000Y-34720000D01*
X160095000Y-30480000D02*
X157855000Y-30480000D01*
X160095000Y-31080000D02*
X157855000Y-31080000D01*
X160095000Y-31200000D02*
X157855000Y-31200000D01*
X160095000Y-31320000D02*
X157855000Y-31320000D01*
X160095000Y-34720000D02*
X160095000Y-30480000D01*
X134042500Y-73342500D02*
X134042500Y-77582500D01*
X134042500Y-77582500D02*
X136282500Y-77582500D01*
X135162500Y-72692500D02*
X135162500Y-73342500D01*
X135162500Y-78232500D02*
X135162500Y-77582500D01*
X136282500Y-73342500D02*
X134042500Y-73342500D01*
X136282500Y-73942500D02*
X134042500Y-73942500D01*
X136282500Y-74062500D02*
X134042500Y-74062500D01*
X136282500Y-74182500D02*
X134042500Y-74182500D01*
X136282500Y-77582500D02*
X136282500Y-73342500D01*
D12*
X23912500Y-69962500D02*
X23912500Y-68962500D01*
X23912500Y-81962500D02*
X23912500Y-80962500D01*
X23912500Y-81962500D02*
X24912500Y-81962500D01*
X24912500Y-68962500D02*
X23912500Y-68962500D01*
X35912500Y-81962500D02*
X36912500Y-81962500D01*
X36912500Y-68962500D02*
X35912500Y-68962500D01*
X36912500Y-68962500D02*
X36912500Y-69962500D01*
X36912500Y-80962500D02*
X36912500Y-81962500D01*
D11*
X69748750Y-130492500D02*
X69748750Y-134732500D01*
X69748750Y-134732500D02*
X71988750Y-134732500D01*
X70868750Y-129842500D02*
X70868750Y-130492500D01*
X70868750Y-135382500D02*
X70868750Y-134732500D01*
X71988750Y-130492500D02*
X69748750Y-130492500D01*
X71988750Y-131092500D02*
X69748750Y-131092500D01*
X71988750Y-131212500D02*
X69748750Y-131212500D01*
X71988750Y-131332500D02*
X69748750Y-131332500D01*
X71988750Y-134732500D02*
X71988750Y-130492500D01*
D12*
X100112500Y-27100000D02*
X100112500Y-26100000D01*
X100112500Y-39100000D02*
X100112500Y-38100000D01*
X100112500Y-39100000D02*
X101112500Y-39100000D01*
X101112500Y-26100000D02*
X100112500Y-26100000D01*
X112112500Y-39100000D02*
X113112500Y-39100000D01*
X113112500Y-26100000D02*
X112112500Y-26100000D01*
X113112500Y-26100000D02*
X113112500Y-27100000D01*
X113112500Y-38100000D02*
X113112500Y-39100000D01*
D11*
X195955000Y-92392500D02*
X195955000Y-96632500D01*
X195955000Y-96632500D02*
X198195000Y-96632500D01*
X197075000Y-91742500D02*
X197075000Y-92392500D01*
X197075000Y-97282500D02*
X197075000Y-96632500D01*
X198195000Y-92392500D02*
X195955000Y-92392500D01*
X198195000Y-92992500D02*
X195955000Y-92992500D01*
X198195000Y-93112500D02*
X195955000Y-93112500D01*
X198195000Y-93232500D02*
X195955000Y-93232500D01*
X198195000Y-96632500D02*
X198195000Y-92392500D01*
D12*
X33437500Y-50912500D02*
X33437500Y-49912500D01*
X33437500Y-62912500D02*
X33437500Y-61912500D01*
X33437500Y-62912500D02*
X34437500Y-62912500D01*
X34437500Y-49912500D02*
X33437500Y-49912500D01*
X45437500Y-62912500D02*
X46437500Y-62912500D01*
X46437500Y-49912500D02*
X45437500Y-49912500D01*
X46437500Y-49912500D02*
X46437500Y-50912500D01*
X46437500Y-61912500D02*
X46437500Y-62912500D01*
D11*
X62605000Y-92392500D02*
X62605000Y-96632500D01*
X62605000Y-96632500D02*
X64845000Y-96632500D01*
X63725000Y-91742500D02*
X63725000Y-92392500D01*
X63725000Y-97282500D02*
X63725000Y-96632500D01*
X64845000Y-92392500D02*
X62605000Y-92392500D01*
X64845000Y-92992500D02*
X62605000Y-92992500D01*
X64845000Y-93112500D02*
X62605000Y-93112500D01*
X64845000Y-93232500D02*
X62605000Y-93232500D01*
X64845000Y-96632500D02*
X64845000Y-92392500D01*
D12*
X181075000Y-69962500D02*
X181075000Y-68962500D01*
X181075000Y-81962500D02*
X181075000Y-80962500D01*
X181075000Y-81962500D02*
X182075000Y-81962500D01*
X182075000Y-68962500D02*
X181075000Y-68962500D01*
X193075000Y-81962500D02*
X194075000Y-81962500D01*
X194075000Y-68962500D02*
X193075000Y-68962500D01*
X194075000Y-68962500D02*
X194075000Y-69962500D01*
X194075000Y-80962500D02*
X194075000Y-81962500D01*
D11*
X172142500Y-116205000D02*
X172142500Y-120445000D01*
X172142500Y-120445000D02*
X174382500Y-120445000D01*
X173262500Y-115555000D02*
X173262500Y-116205000D01*
X173262500Y-121095000D02*
X173262500Y-120445000D01*
X174382500Y-116205000D02*
X172142500Y-116205000D01*
X174382500Y-116805000D02*
X172142500Y-116805000D01*
X174382500Y-116925000D02*
X172142500Y-116925000D01*
X174382500Y-117045000D02*
X172142500Y-117045000D01*
X174382500Y-120445000D02*
X174382500Y-116205000D01*
D12*
X104875000Y-89012500D02*
X104875000Y-88012500D01*
X104875000Y-101012500D02*
X104875000Y-100012500D01*
X104875000Y-101012500D02*
X105875000Y-101012500D01*
X105875000Y-88012500D02*
X104875000Y-88012500D01*
X116875000Y-101012500D02*
X117875000Y-101012500D01*
X117875000Y-88012500D02*
X116875000Y-88012500D01*
X117875000Y-88012500D02*
X117875000Y-89012500D01*
X117875000Y-100012500D02*
X117875000Y-101012500D01*
D11*
X172142500Y-135255000D02*
X172142500Y-139495000D01*
X172142500Y-139495000D02*
X174382500Y-139495000D01*
X173262500Y-134605000D02*
X173262500Y-135255000D01*
X173262500Y-140145000D02*
X173262500Y-139495000D01*
X174382500Y-135255000D02*
X172142500Y-135255000D01*
X174382500Y-135855000D02*
X172142500Y-135855000D01*
X174382500Y-135975000D02*
X172142500Y-135975000D01*
X174382500Y-136095000D02*
X172142500Y-136095000D01*
X174382500Y-139495000D02*
X174382500Y-135255000D01*
D12*
X76300000Y-108062500D02*
X76300000Y-107062500D01*
X76300000Y-120062500D02*
X76300000Y-119062500D01*
X76300000Y-120062500D02*
X77300000Y-120062500D01*
X77300000Y-107062500D02*
X76300000Y-107062500D01*
X88300000Y-120062500D02*
X89300000Y-120062500D01*
X89300000Y-107062500D02*
X88300000Y-107062500D01*
X89300000Y-107062500D02*
X89300000Y-108062500D01*
X89300000Y-119062500D02*
X89300000Y-120062500D01*
D11*
X86417500Y-54292500D02*
X86417500Y-58532500D01*
X86417500Y-58532500D02*
X88657500Y-58532500D01*
X87537500Y-53642500D02*
X87537500Y-54292500D01*
X87537500Y-59182500D02*
X87537500Y-58532500D01*
X88657500Y-54292500D02*
X86417500Y-54292500D01*
X88657500Y-54892500D02*
X86417500Y-54892500D01*
X88657500Y-55012500D02*
X86417500Y-55012500D01*
X88657500Y-55132500D02*
X86417500Y-55132500D01*
X88657500Y-58532500D02*
X88657500Y-54292500D01*
D12*
X85825000Y-89012500D02*
X85825000Y-88012500D01*
X85825000Y-101012500D02*
X85825000Y-100012500D01*
X85825000Y-101012500D02*
X86825000Y-101012500D01*
X86825000Y-88012500D02*
X85825000Y-88012500D01*
X97825000Y-101012500D02*
X98825000Y-101012500D01*
X98825000Y-88012500D02*
X97825000Y-88012500D01*
X98825000Y-88012500D02*
X98825000Y-89012500D01*
X98825000Y-100012500D02*
X98825000Y-101012500D01*
X157262500Y-112825000D02*
X157262500Y-111825000D01*
X157262500Y-124825000D02*
X157262500Y-123825000D01*
X157262500Y-124825000D02*
X158262500Y-124825000D01*
X158262500Y-111825000D02*
X157262500Y-111825000D01*
X169262500Y-124825000D02*
X170262500Y-124825000D01*
X170262500Y-111825000D02*
X169262500Y-111825000D01*
X170262500Y-111825000D02*
X170262500Y-112825000D01*
X170262500Y-123825000D02*
X170262500Y-124825000D01*
D11*
X124517500Y-54292500D02*
X124517500Y-58532500D01*
X124517500Y-58532500D02*
X126757500Y-58532500D01*
X125637500Y-53642500D02*
X125637500Y-54292500D01*
X125637500Y-59182500D02*
X125637500Y-58532500D01*
X126757500Y-54292500D02*
X124517500Y-54292500D01*
X126757500Y-54892500D02*
X124517500Y-54892500D01*
X126757500Y-55012500D02*
X124517500Y-55012500D01*
X126757500Y-55132500D02*
X124517500Y-55132500D01*
X126757500Y-58532500D02*
X126757500Y-54292500D01*
X53080000Y-30480000D02*
X53080000Y-34720000D01*
X53080000Y-34720000D02*
X55320000Y-34720000D01*
X54200000Y-29830000D02*
X54200000Y-30480000D01*
X54200000Y-35370000D02*
X54200000Y-34720000D01*
X55320000Y-30480000D02*
X53080000Y-30480000D01*
X55320000Y-31080000D02*
X53080000Y-31080000D01*
X55320000Y-31200000D02*
X53080000Y-31200000D01*
X55320000Y-31320000D02*
X53080000Y-31320000D01*
X55320000Y-34720000D02*
X55320000Y-30480000D01*
D12*
X57250000Y-108062500D02*
X57250000Y-107062500D01*
X57250000Y-120062500D02*
X57250000Y-119062500D01*
X57250000Y-120062500D02*
X58250000Y-120062500D01*
X58250000Y-107062500D02*
X57250000Y-107062500D01*
X69250000Y-120062500D02*
X70250000Y-120062500D01*
X70250000Y-107062500D02*
X69250000Y-107062500D01*
X70250000Y-107062500D02*
X70250000Y-108062500D01*
X70250000Y-119062500D02*
X70250000Y-120062500D01*
D11*
X91180000Y-111442500D02*
X91180000Y-115682500D01*
X91180000Y-115682500D02*
X93420000Y-115682500D01*
X92300000Y-110792500D02*
X92300000Y-111442500D01*
X92300000Y-116332500D02*
X92300000Y-115682500D01*
X93420000Y-111442500D02*
X91180000Y-111442500D01*
X93420000Y-112042500D02*
X91180000Y-112042500D01*
X93420000Y-112162500D02*
X91180000Y-112162500D01*
X93420000Y-112282500D02*
X91180000Y-112282500D01*
X93420000Y-115682500D02*
X93420000Y-111442500D01*
D12*
X176312500Y-131875000D02*
X176312500Y-130875000D01*
X176312500Y-143875000D02*
X176312500Y-142875000D01*
X176312500Y-143875000D02*
X177312500Y-143875000D01*
X177312500Y-130875000D02*
X176312500Y-130875000D01*
X188312500Y-143875000D02*
X189312500Y-143875000D01*
X189312500Y-130875000D02*
X188312500Y-130875000D01*
X189312500Y-130875000D02*
X189312500Y-131875000D01*
X189312500Y-142875000D02*
X189312500Y-143875000D01*
D11*
X95942500Y-73342500D02*
X95942500Y-77582500D01*
X95942500Y-77582500D02*
X98182500Y-77582500D01*
X97062500Y-72692500D02*
X97062500Y-73342500D01*
X97062500Y-78232500D02*
X97062500Y-77582500D01*
X98182500Y-73342500D02*
X95942500Y-73342500D01*
X98182500Y-73942500D02*
X95942500Y-73942500D01*
X98182500Y-74062500D02*
X95942500Y-74062500D01*
X98182500Y-74182500D02*
X95942500Y-74182500D01*
X98182500Y-77582500D02*
X98182500Y-73342500D01*
X195955000Y-73342500D02*
X195955000Y-77582500D01*
X195955000Y-77582500D02*
X198195000Y-77582500D01*
X197075000Y-72692500D02*
X197075000Y-73342500D01*
X197075000Y-78232500D02*
X197075000Y-77582500D01*
X198195000Y-73342500D02*
X195955000Y-73342500D01*
X198195000Y-73942500D02*
X195955000Y-73942500D01*
X198195000Y-74062500D02*
X195955000Y-74062500D01*
X198195000Y-74182500D02*
X195955000Y-74182500D01*
X198195000Y-77582500D02*
X198195000Y-73342500D01*
X114992500Y-30480000D02*
X114992500Y-34720000D01*
X114992500Y-34720000D02*
X117232500Y-34720000D01*
X116112500Y-29830000D02*
X116112500Y-30480000D01*
X116112500Y-35370000D02*
X116112500Y-34720000D01*
X117232500Y-30480000D02*
X114992500Y-30480000D01*
X117232500Y-31080000D02*
X114992500Y-31080000D01*
X117232500Y-31200000D02*
X114992500Y-31200000D01*
X117232500Y-31320000D02*
X114992500Y-31320000D01*
X117232500Y-34720000D02*
X117232500Y-30480000D01*
D12*
X62012500Y-27100000D02*
X62012500Y-26100000D01*
X62012500Y-39100000D02*
X62012500Y-38100000D01*
X62012500Y-39100000D02*
X63012500Y-39100000D01*
X63012500Y-26100000D02*
X62012500Y-26100000D01*
X74012500Y-39100000D02*
X75012500Y-39100000D01*
X75012500Y-26100000D02*
X74012500Y-26100000D01*
X75012500Y-26100000D02*
X75012500Y-27100000D01*
X75012500Y-38100000D02*
X75012500Y-39100000D01*
X47725000Y-89012500D02*
X47725000Y-88012500D01*
X47725000Y-101012500D02*
X47725000Y-100012500D01*
X47725000Y-101012500D02*
X48725000Y-101012500D01*
X48725000Y-88012500D02*
X47725000Y-88012500D01*
X59725000Y-101012500D02*
X60725000Y-101012500D01*
X60725000Y-88012500D02*
X59725000Y-88012500D01*
X60725000Y-88012500D02*
X60725000Y-89012500D01*
X60725000Y-100012500D02*
X60725000Y-101012500D01*
D11*
X24505000Y-92392500D02*
X24505000Y-96632500D01*
X24505000Y-96632500D02*
X26745000Y-96632500D01*
X25625000Y-91742500D02*
X25625000Y-92392500D01*
X25625000Y-97282500D02*
X25625000Y-96632500D01*
X26745000Y-92392500D02*
X24505000Y-92392500D01*
X26745000Y-92992500D02*
X24505000Y-92992500D01*
X26745000Y-93112500D02*
X24505000Y-93112500D01*
X26745000Y-93232500D02*
X24505000Y-93232500D01*
X26745000Y-96632500D02*
X26745000Y-92392500D01*
D14*
X39530000Y-19120000D03*
D15*
X42070000Y-19120000D03*
X44610000Y-19120000D03*
X47150000Y-19120000D03*
X49690000Y-19120000D03*
X52230000Y-19120000D03*
X54770000Y-19120000D03*
X57310000Y-19120000D03*
X59850000Y-19120000D03*
X62390000Y-19120000D03*
X64930000Y-19120000D03*
X67470000Y-19120000D03*
X67470000Y-3880000D03*
X64930000Y-3880000D03*
X62390000Y-3880000D03*
X59850000Y-3880000D03*
X57310000Y-3880000D03*
X54770000Y-3880000D03*
X52230000Y-3880000D03*
X49690000Y-3880000D03*
X47150000Y-3880000D03*
X44610000Y-3880000D03*
X42070000Y-3880000D03*
X39530000Y-3880000D03*
X67470000Y-16580000D03*
X67470000Y-14040000D03*
X67470000Y-11500000D03*
X67470000Y-8960000D03*
X67470000Y-6420000D03*
%LPC*%
D16*
X44675000Y-90702500D03*
D17*
X44675000Y-98322500D03*
D18*
X44700000Y-32600000D03*
D19*
X40300000Y-37300000D03*
X47300000Y-38350000D03*
D16*
X197075000Y-28790000D03*
D17*
X197075000Y-36410000D03*
D18*
X11362500Y-75462500D03*
D19*
X6962500Y-80162500D03*
X13962500Y-81212500D03*
D16*
X178025000Y-28790000D03*
D17*
X178025000Y-36410000D03*
D18*
X130425000Y-113562500D03*
D19*
X126025000Y-118262500D03*
X133025000Y-119312500D03*
D18*
X187575000Y-56412500D03*
D19*
X183175000Y-61112500D03*
X190175000Y-62162500D03*
D16*
X111350000Y-109752500D03*
D17*
X111350000Y-117372500D03*
D18*
X101850000Y-132612500D03*
D19*
X97450000Y-137312500D03*
X104450000Y-138362500D03*
D18*
X44700000Y-113562500D03*
D19*
X40300000Y-118262500D03*
X47300000Y-119312500D03*
D16*
X58962500Y-71652500D03*
D17*
X58962500Y-79272500D03*
D16*
X162662500Y-52602500D03*
D17*
X162662500Y-60222500D03*
D18*
X78037500Y-56412500D03*
D19*
X73637500Y-61112500D03*
X80637500Y-62162500D03*
D16*
X54200000Y-109752500D03*
D17*
X54200000Y-117372500D03*
D18*
X101850000Y-113562500D03*
D19*
X97450000Y-118262500D03*
X104450000Y-119312500D03*
D16*
X120875000Y-90702500D03*
D17*
X120875000Y-98322500D03*
D16*
X49437500Y-52602500D03*
D17*
X49437500Y-60222500D03*
D18*
X187575000Y-32600000D03*
D19*
X183175000Y-37300000D03*
X190175000Y-38350000D03*
D16*
X111350000Y-128802500D03*
D17*
X111350000Y-136422500D03*
D18*
X87562500Y-32600000D03*
D19*
X83162500Y-37300000D03*
X90162500Y-38350000D03*
D18*
X120900000Y-132612500D03*
D19*
X116500000Y-137312500D03*
X123500000Y-138362500D03*
D18*
X97087500Y-56412500D03*
D19*
X92687500Y-61112500D03*
X99687500Y-62162500D03*
D18*
X116137500Y-56412500D03*
D19*
X111737500Y-61112500D03*
X118737500Y-62162500D03*
D18*
X61368750Y-132612500D03*
D19*
X56968750Y-137312500D03*
X63968750Y-138362500D03*
D20*
X17150000Y-6680000D03*
X24850000Y-6680000D03*
D21*
X15000000Y-11000000D03*
D22*
X18000000Y-11000000D03*
X21000000Y-11000000D03*
X24000000Y-11000000D03*
X27000000Y-11000000D03*
D16*
X39912500Y-71652500D03*
D17*
X39912500Y-79272500D03*
D18*
X73275000Y-94512500D03*
D19*
X68875000Y-99212500D03*
X75875000Y-100262500D03*
D16*
X92300000Y-128802500D03*
D17*
X92300000Y-136422500D03*
D16*
X116112500Y-71652500D03*
D17*
X116112500Y-79272500D03*
D23*
X5000000Y-5000000D03*
D16*
X68487500Y-52602500D03*
D17*
X68487500Y-60222500D03*
D16*
X101825000Y-90702500D03*
D17*
X101825000Y-98322500D03*
D16*
X78012500Y-71652500D03*
D17*
X78012500Y-79272500D03*
D18*
X35175000Y-94512500D03*
D19*
X30775000Y-99212500D03*
X37775000Y-100262500D03*
D16*
X158975000Y-71652500D03*
D17*
X158975000Y-79272500D03*
D18*
X82800000Y-132612500D03*
D19*
X78400000Y-137312500D03*
X85400000Y-138362500D03*
D16*
X78012500Y-28790000D03*
D17*
X78012500Y-36410000D03*
D18*
X68512500Y-75462500D03*
D19*
X64112500Y-80162500D03*
X71112500Y-81212500D03*
D14*
X39530000Y-19120000D03*
D15*
X42070000Y-19120000D03*
X44610000Y-19120000D03*
X47150000Y-19120000D03*
X49690000Y-19120000D03*
X52230000Y-19120000D03*
X54770000Y-19120000D03*
X57310000Y-19120000D03*
X59850000Y-19120000D03*
X62390000Y-19120000D03*
X64930000Y-19120000D03*
X67470000Y-19120000D03*
X67470000Y-3880000D03*
X64930000Y-3880000D03*
X62390000Y-3880000D03*
X59850000Y-3880000D03*
X57310000Y-3880000D03*
X54770000Y-3880000D03*
X52230000Y-3880000D03*
X49690000Y-3880000D03*
X47150000Y-3880000D03*
X44610000Y-3880000D03*
X42070000Y-3880000D03*
X39530000Y-3880000D03*
X67470000Y-16580000D03*
X67470000Y-14040000D03*
X67470000Y-11500000D03*
X67470000Y-8960000D03*
X67470000Y-6420000D03*
D18*
X149475000Y-75462500D03*
D19*
X145075000Y-80162500D03*
X152075000Y-81212500D03*
D16*
X35150000Y-28790000D03*
D17*
X35150000Y-36410000D03*
D18*
X149475000Y-32600000D03*
D19*
X145075000Y-37300000D03*
X152075000Y-38350000D03*
D16*
X135162500Y-28790000D03*
D17*
X135162500Y-36410000D03*
D18*
X144712500Y-137375000D03*
D19*
X140312500Y-142075000D03*
X147312500Y-143125000D03*
D16*
X197075000Y-109752500D03*
D17*
X197075000Y-117372500D03*
D16*
X97062500Y-28790000D03*
D17*
X97062500Y-36410000D03*
D16*
X35150000Y-109752500D03*
D17*
X35150000Y-117372500D03*
D23*
X77000000Y-11000000D03*
D18*
X87562500Y-75462500D03*
D19*
X83162500Y-80162500D03*
X90162500Y-81212500D03*
D18*
X16125000Y-94512500D03*
D19*
X11725000Y-99212500D03*
X18725000Y-100262500D03*
D16*
X148375000Y-109752500D03*
D17*
X148375000Y-117372500D03*
D16*
X192312500Y-128690000D03*
D17*
X192312500Y-136310000D03*
D16*
X154212500Y-133565000D03*
D17*
X154212500Y-141185000D03*
D18*
X106612500Y-75462500D03*
D19*
X102212500Y-80162500D03*
X109212500Y-81212500D03*
D16*
X73250000Y-109752500D03*
D17*
X73250000Y-117372500D03*
D18*
X144712500Y-56412500D03*
D19*
X140312500Y-61112500D03*
X147312500Y-62162500D03*
D23*
X196000000Y-5000000D03*
D18*
X20887500Y-56412500D03*
D19*
X16487500Y-61112500D03*
X23487500Y-62162500D03*
D16*
X30387500Y-52602500D03*
D17*
X30387500Y-60222500D03*
D18*
X187575000Y-113562500D03*
D19*
X183175000Y-118262500D03*
X190175000Y-119312500D03*
D16*
X160281250Y-90702500D03*
D17*
X160281250Y-98322500D03*
D18*
X25650000Y-113562500D03*
D19*
X21250000Y-118262500D03*
X28250000Y-119312500D03*
D18*
X187575000Y-94512500D03*
D19*
X183175000Y-99212500D03*
X190175000Y-100262500D03*
D18*
X28031250Y-132612500D03*
D19*
X23631250Y-137312500D03*
X30631250Y-138362500D03*
D18*
X125662500Y-75462500D03*
D19*
X121262500Y-80162500D03*
X128262500Y-81212500D03*
D18*
X49462500Y-75462500D03*
D19*
X45062500Y-80162500D03*
X52062500Y-81212500D03*
D18*
X142331250Y-94512500D03*
D19*
X137931250Y-99212500D03*
X144931250Y-100262500D03*
D18*
X163762500Y-137375000D03*
D19*
X159362500Y-142075000D03*
X166362500Y-143125000D03*
D23*
X196000000Y-143000000D03*
D16*
X197075000Y-52602500D03*
D17*
X197075000Y-60222500D03*
D16*
X106587500Y-52602500D03*
D17*
X106587500Y-60222500D03*
D18*
X125662500Y-32600000D03*
D19*
X121262500Y-37300000D03*
X128262500Y-38350000D03*
D16*
X82775000Y-90702500D03*
D17*
X82775000Y-98322500D03*
D18*
X58987500Y-56412500D03*
D19*
X54587500Y-61112500D03*
X61587500Y-62162500D03*
D18*
X168525000Y-32600000D03*
D19*
X164125000Y-37300000D03*
X171125000Y-38350000D03*
D16*
X130400000Y-128802500D03*
D17*
X130400000Y-136422500D03*
D16*
X20862500Y-71652500D03*
D17*
X20862500Y-79272500D03*
D18*
X25650000Y-32600000D03*
D19*
X21250000Y-37300000D03*
X28250000Y-38350000D03*
D16*
X158975000Y-28790000D03*
D17*
X158975000Y-36410000D03*
D16*
X135162500Y-71652500D03*
D17*
X135162500Y-79272500D03*
D18*
X30412500Y-75462500D03*
D19*
X26012500Y-80162500D03*
X33012500Y-81212500D03*
D16*
X70868750Y-128802500D03*
D17*
X70868750Y-136422500D03*
D18*
X106612500Y-32600000D03*
D19*
X102212500Y-37300000D03*
X109212500Y-38350000D03*
D16*
X197075000Y-90702500D03*
D17*
X197075000Y-98322500D03*
D18*
X39937500Y-56412500D03*
D19*
X35537500Y-61112500D03*
X42537500Y-62162500D03*
D16*
X63725000Y-90702500D03*
D17*
X63725000Y-98322500D03*
D18*
X187575000Y-75462500D03*
D19*
X183175000Y-80162500D03*
X190175000Y-81212500D03*
D16*
X173262500Y-114515000D03*
D17*
X173262500Y-122135000D03*
D18*
X111375000Y-94512500D03*
D19*
X106975000Y-99212500D03*
X113975000Y-100262500D03*
D16*
X173262500Y-133565000D03*
D17*
X173262500Y-141185000D03*
D18*
X82800000Y-113562500D03*
D19*
X78400000Y-118262500D03*
X85400000Y-119312500D03*
D16*
X87537500Y-52602500D03*
D17*
X87537500Y-60222500D03*
D18*
X92325000Y-94512500D03*
D19*
X87925000Y-99212500D03*
X94925000Y-100262500D03*
D18*
X163762500Y-118325000D03*
D19*
X159362500Y-123025000D03*
X166362500Y-124075000D03*
D16*
X125637500Y-52602500D03*
D17*
X125637500Y-60222500D03*
D23*
X5000000Y-117000000D03*
D16*
X54200000Y-28790000D03*
D17*
X54200000Y-36410000D03*
D18*
X63750000Y-113562500D03*
D19*
X59350000Y-118262500D03*
X66350000Y-119312500D03*
D16*
X92300000Y-109752500D03*
D17*
X92300000Y-117372500D03*
D18*
X182812500Y-137375000D03*
D19*
X178412500Y-142075000D03*
X185412500Y-143125000D03*
D16*
X97062500Y-71652500D03*
D17*
X97062500Y-79272500D03*
D16*
X197075000Y-71652500D03*
D17*
X197075000Y-79272500D03*
D16*
X116112500Y-28790000D03*
D17*
X116112500Y-36410000D03*
D18*
X68512500Y-32600000D03*
D19*
X64112500Y-37300000D03*
X71112500Y-38350000D03*
D18*
X54225000Y-94512500D03*
D19*
X49825000Y-99212500D03*
X56825000Y-100262500D03*
D16*
X25625000Y-90702500D03*
D17*
X25625000Y-98322500D03*
%LPD*%
M02*
