G04 #@! TF.GenerationSoftware,KiCad,Pcbnew,8.0.7*
G04 #@! TF.CreationDate,2025-01-12T17:34:05+00:00*
G04 #@! TF.ProjectId,gateronLPkeyboard-right,67617465-726f-46e4-9c50-6b6579626f61,rev?*
G04 #@! TF.SameCoordinates,Original*
G04 #@! TF.FileFunction,Legend,Bot*
G04 #@! TF.FilePolarity,Positive*
%FSLAX46Y46*%
G04 Gerber Fmt 4.6, Leading zero omitted, Abs format (unit mm)*
G04 Created by KiCad (PCBNEW 8.0.7) date 2025-01-12 17:34:05*
%MOMM*%
%LPD*%
G01*
G04 APERTURE LIST*
G04 Aperture macros list*
%AMRoundRect*
0 Rectangle with rounded corners*
0 $1 Rounding radius*
0 $2 $3 $4 $5 $6 $7 $8 $9 X,Y pos of 4 corners*
0 Add a 4 corners polygon primitive as box body*
4,1,4,$2,$3,$4,$5,$6,$7,$8,$9,$2,$3,0*
0 Add four circle primitives for the rounded corners*
1,1,$1+$1,$2,$3*
1,1,$1+$1,$4,$5*
1,1,$1+$1,$6,$7*
1,1,$1+$1,$8,$9*
0 Add four rect primitives between the rounded corners*
20,1,$1+$1,$2,$3,$4,$5,0*
20,1,$1+$1,$4,$5,$6,$7,0*
20,1,$1+$1,$6,$7,$8,$9,0*
20,1,$1+$1,$8,$9,$2,$3,0*%
G04 Aperture macros list end*
%ADD10C,0.150000*%
%ADD11C,0.381000*%
%ADD12R,2.200000X2.200000*%
%ADD13C,2.200000*%
%ADD14R,1.600000X1.600000*%
%ADD15O,1.600000X1.600000*%
%ADD16C,5.250000*%
%ADD17C,2.500000*%
%ADD18C,3.000000*%
%ADD19RoundRect,0.250001X-0.499999X-0.759999X0.499999X-0.759999X0.499999X0.759999X-0.499999X0.759999X0*%
%ADD20O,1.500000X2.020000*%
%ADD21C,3.200000*%
G04 APERTURE END LIST*
D10*
X65843247Y-8693333D02*
X65843247Y-8426667D01*
X66262295Y-8426667D02*
X65462295Y-8426667D01*
X65462295Y-8426667D02*
X65462295Y-8807619D01*
X66262295Y-9531428D02*
X66262295Y-9074285D01*
X66262295Y-9302857D02*
X65462295Y-9302857D01*
X65462295Y-9302857D02*
X65576580Y-9226666D01*
X65576580Y-9226666D02*
X65652771Y-9150476D01*
X65652771Y-9150476D02*
X65690866Y-9074285D01*
X57253247Y-5772333D02*
X57253247Y-5505667D01*
X57672295Y-5505667D02*
X56872295Y-5505667D01*
X56872295Y-5505667D02*
X56872295Y-5886619D01*
X56872295Y-6115190D02*
X56872295Y-6648524D01*
X56872295Y-6648524D02*
X57672295Y-6305666D01*
X44914200Y-5926666D02*
X44952295Y-6040952D01*
X44952295Y-6040952D02*
X44952295Y-6231428D01*
X44952295Y-6231428D02*
X44914200Y-6307619D01*
X44914200Y-6307619D02*
X44876104Y-6345714D01*
X44876104Y-6345714D02*
X44799914Y-6383809D01*
X44799914Y-6383809D02*
X44723723Y-6383809D01*
X44723723Y-6383809D02*
X44647533Y-6345714D01*
X44647533Y-6345714D02*
X44609438Y-6307619D01*
X44609438Y-6307619D02*
X44571342Y-6231428D01*
X44571342Y-6231428D02*
X44533247Y-6079047D01*
X44533247Y-6079047D02*
X44495152Y-6002857D01*
X44495152Y-6002857D02*
X44457057Y-5964762D01*
X44457057Y-5964762D02*
X44380866Y-5926666D01*
X44380866Y-5926666D02*
X44304676Y-5926666D01*
X44304676Y-5926666D02*
X44228485Y-5964762D01*
X44228485Y-5964762D02*
X44190390Y-6002857D01*
X44190390Y-6002857D02*
X44152295Y-6079047D01*
X44152295Y-6079047D02*
X44152295Y-6269524D01*
X44152295Y-6269524D02*
X44190390Y-6383809D01*
X44152295Y-6612381D02*
X44152295Y-7069524D01*
X44952295Y-6840952D02*
X44152295Y-6840952D01*
X64873247Y-16637190D02*
X64911342Y-16751476D01*
X64911342Y-16751476D02*
X64949438Y-16789571D01*
X64949438Y-16789571D02*
X65025628Y-16827667D01*
X65025628Y-16827667D02*
X65139914Y-16827667D01*
X65139914Y-16827667D02*
X65216104Y-16789571D01*
X65216104Y-16789571D02*
X65254200Y-16751476D01*
X65254200Y-16751476D02*
X65292295Y-16675286D01*
X65292295Y-16675286D02*
X65292295Y-16370524D01*
X65292295Y-16370524D02*
X64492295Y-16370524D01*
X64492295Y-16370524D02*
X64492295Y-16637190D01*
X64492295Y-16637190D02*
X64530390Y-16713381D01*
X64530390Y-16713381D02*
X64568485Y-16751476D01*
X64568485Y-16751476D02*
X64644676Y-16789571D01*
X64644676Y-16789571D02*
X64720866Y-16789571D01*
X64720866Y-16789571D02*
X64797057Y-16751476D01*
X64797057Y-16751476D02*
X64835152Y-16713381D01*
X64835152Y-16713381D02*
X64873247Y-16637190D01*
X64873247Y-16637190D02*
X64873247Y-16370524D01*
X64758961Y-17513381D02*
X65292295Y-17513381D01*
X64454200Y-17322905D02*
X65025628Y-17132428D01*
X65025628Y-17132428D02*
X65025628Y-17627667D01*
X41670390Y-5429476D02*
X41632295Y-5353286D01*
X41632295Y-5353286D02*
X41632295Y-5239000D01*
X41632295Y-5239000D02*
X41670390Y-5124714D01*
X41670390Y-5124714D02*
X41746580Y-5048524D01*
X41746580Y-5048524D02*
X41822771Y-5010429D01*
X41822771Y-5010429D02*
X41975152Y-4972333D01*
X41975152Y-4972333D02*
X42089438Y-4972333D01*
X42089438Y-4972333D02*
X42241819Y-5010429D01*
X42241819Y-5010429D02*
X42318009Y-5048524D01*
X42318009Y-5048524D02*
X42394200Y-5124714D01*
X42394200Y-5124714D02*
X42432295Y-5239000D01*
X42432295Y-5239000D02*
X42432295Y-5315191D01*
X42432295Y-5315191D02*
X42394200Y-5429476D01*
X42394200Y-5429476D02*
X42356104Y-5467572D01*
X42356104Y-5467572D02*
X42089438Y-5467572D01*
X42089438Y-5467572D02*
X42089438Y-5315191D01*
X42432295Y-5810429D02*
X41632295Y-5810429D01*
X41632295Y-5810429D02*
X42432295Y-6267572D01*
X42432295Y-6267572D02*
X41632295Y-6267572D01*
X42432295Y-6648524D02*
X41632295Y-6648524D01*
X41632295Y-6648524D02*
X41632295Y-6839000D01*
X41632295Y-6839000D02*
X41670390Y-6953286D01*
X41670390Y-6953286D02*
X41746580Y-7029476D01*
X41746580Y-7029476D02*
X41822771Y-7067571D01*
X41822771Y-7067571D02*
X41975152Y-7105667D01*
X41975152Y-7105667D02*
X42089438Y-7105667D01*
X42089438Y-7105667D02*
X42241819Y-7067571D01*
X42241819Y-7067571D02*
X42318009Y-7029476D01*
X42318009Y-7029476D02*
X42394200Y-6953286D01*
X42394200Y-6953286D02*
X42432295Y-6839000D01*
X42432295Y-6839000D02*
X42432295Y-6648524D01*
X60212295Y-16370524D02*
X59412295Y-16370524D01*
X59412295Y-16370524D02*
X59412295Y-16561000D01*
X59412295Y-16561000D02*
X59450390Y-16675286D01*
X59450390Y-16675286D02*
X59526580Y-16751476D01*
X59526580Y-16751476D02*
X59602771Y-16789571D01*
X59602771Y-16789571D02*
X59755152Y-16827667D01*
X59755152Y-16827667D02*
X59869438Y-16827667D01*
X59869438Y-16827667D02*
X60021819Y-16789571D01*
X60021819Y-16789571D02*
X60098009Y-16751476D01*
X60098009Y-16751476D02*
X60174200Y-16675286D01*
X60174200Y-16675286D02*
X60212295Y-16561000D01*
X60212295Y-16561000D02*
X60212295Y-16370524D01*
X59412295Y-17094333D02*
X59412295Y-17627667D01*
X59412295Y-17627667D02*
X60212295Y-17284809D01*
X66364543Y-17663850D02*
X66317403Y-17758131D01*
X66317403Y-17758131D02*
X66317403Y-17805271D01*
X66317403Y-17805271D02*
X66340973Y-17875982D01*
X66340973Y-17875982D02*
X66411683Y-17946692D01*
X66411683Y-17946692D02*
X66482394Y-17970263D01*
X66482394Y-17970263D02*
X66529535Y-17970263D01*
X66529535Y-17970263D02*
X66600245Y-17946692D01*
X66600245Y-17946692D02*
X66788807Y-17758131D01*
X66788807Y-17758131D02*
X66293832Y-17263156D01*
X66293832Y-17263156D02*
X66128841Y-17428147D01*
X66128841Y-17428147D02*
X66105271Y-17498858D01*
X66105271Y-17498858D02*
X66105271Y-17545999D01*
X66105271Y-17545999D02*
X66128841Y-17616709D01*
X66128841Y-17616709D02*
X66175981Y-17663850D01*
X66175981Y-17663850D02*
X66246692Y-17687420D01*
X66246692Y-17687420D02*
X66293832Y-17687420D01*
X66293832Y-17687420D02*
X66364543Y-17663850D01*
X66364543Y-17663850D02*
X66529535Y-17498858D01*
X65563155Y-17993833D02*
X65798858Y-17758131D01*
X65798858Y-17758131D02*
X66058130Y-17970263D01*
X66058130Y-17970263D02*
X66010990Y-17970263D01*
X66010990Y-17970263D02*
X65940279Y-17993833D01*
X65940279Y-17993833D02*
X65822428Y-18111684D01*
X65822428Y-18111684D02*
X65798858Y-18182395D01*
X65798858Y-18182395D02*
X65798858Y-18229535D01*
X65798858Y-18229535D02*
X65822428Y-18300246D01*
X65822428Y-18300246D02*
X65940279Y-18418097D01*
X65940279Y-18418097D02*
X66010990Y-18441667D01*
X66010990Y-18441667D02*
X66058130Y-18441667D01*
X66058130Y-18441667D02*
X66128841Y-18418097D01*
X66128841Y-18418097D02*
X66246692Y-18300246D01*
X66246692Y-18300246D02*
X66270262Y-18229535D01*
X66270262Y-18229535D02*
X66270262Y-18182395D01*
X46712295Y-4972333D02*
X47512295Y-5239000D01*
X47512295Y-5239000D02*
X46712295Y-5505666D01*
X47436104Y-6229476D02*
X47474200Y-6191380D01*
X47474200Y-6191380D02*
X47512295Y-6077095D01*
X47512295Y-6077095D02*
X47512295Y-6000904D01*
X47512295Y-6000904D02*
X47474200Y-5886618D01*
X47474200Y-5886618D02*
X47398009Y-5810428D01*
X47398009Y-5810428D02*
X47321819Y-5772333D01*
X47321819Y-5772333D02*
X47169438Y-5734237D01*
X47169438Y-5734237D02*
X47055152Y-5734237D01*
X47055152Y-5734237D02*
X46902771Y-5772333D01*
X46902771Y-5772333D02*
X46826580Y-5810428D01*
X46826580Y-5810428D02*
X46750390Y-5886618D01*
X46750390Y-5886618D02*
X46712295Y-6000904D01*
X46712295Y-6000904D02*
X46712295Y-6077095D01*
X46712295Y-6077095D02*
X46750390Y-6191380D01*
X46750390Y-6191380D02*
X46788485Y-6229476D01*
X47436104Y-7029476D02*
X47474200Y-6991380D01*
X47474200Y-6991380D02*
X47512295Y-6877095D01*
X47512295Y-6877095D02*
X47512295Y-6800904D01*
X47512295Y-6800904D02*
X47474200Y-6686618D01*
X47474200Y-6686618D02*
X47398009Y-6610428D01*
X47398009Y-6610428D02*
X47321819Y-6572333D01*
X47321819Y-6572333D02*
X47169438Y-6534237D01*
X47169438Y-6534237D02*
X47055152Y-6534237D01*
X47055152Y-6534237D02*
X46902771Y-6572333D01*
X46902771Y-6572333D02*
X46826580Y-6610428D01*
X46826580Y-6610428D02*
X46750390Y-6686618D01*
X46750390Y-6686618D02*
X46712295Y-6800904D01*
X46712295Y-6800904D02*
X46712295Y-6877095D01*
X46712295Y-6877095D02*
X46750390Y-6991380D01*
X46750390Y-6991380D02*
X46788485Y-7029476D01*
X66262295Y-13449524D02*
X65462295Y-13449524D01*
X65462295Y-13449524D02*
X65462295Y-13640000D01*
X65462295Y-13640000D02*
X65500390Y-13754286D01*
X65500390Y-13754286D02*
X65576580Y-13830476D01*
X65576580Y-13830476D02*
X65652771Y-13868571D01*
X65652771Y-13868571D02*
X65805152Y-13906667D01*
X65805152Y-13906667D02*
X65919438Y-13906667D01*
X65919438Y-13906667D02*
X66071819Y-13868571D01*
X66071819Y-13868571D02*
X66148009Y-13830476D01*
X66148009Y-13830476D02*
X66224200Y-13754286D01*
X66224200Y-13754286D02*
X66262295Y-13640000D01*
X66262295Y-13640000D02*
X66262295Y-13449524D01*
X65462295Y-14630476D02*
X65462295Y-14249524D01*
X65462295Y-14249524D02*
X65843247Y-14211428D01*
X65843247Y-14211428D02*
X65805152Y-14249524D01*
X65805152Y-14249524D02*
X65767057Y-14325714D01*
X65767057Y-14325714D02*
X65767057Y-14516190D01*
X65767057Y-14516190D02*
X65805152Y-14592381D01*
X65805152Y-14592381D02*
X65843247Y-14630476D01*
X65843247Y-14630476D02*
X65919438Y-14668571D01*
X65919438Y-14668571D02*
X66109914Y-14668571D01*
X66109914Y-14668571D02*
X66186104Y-14630476D01*
X66186104Y-14630476D02*
X66224200Y-14592381D01*
X66224200Y-14592381D02*
X66262295Y-14516190D01*
X66262295Y-14516190D02*
X66262295Y-14325714D01*
X66262295Y-14325714D02*
X66224200Y-14249524D01*
X66224200Y-14249524D02*
X66186104Y-14211428D01*
X42432295Y-16370524D02*
X41632295Y-16370524D01*
X41632295Y-16370524D02*
X41632295Y-16561000D01*
X41632295Y-16561000D02*
X41670390Y-16675286D01*
X41670390Y-16675286D02*
X41746580Y-16751476D01*
X41746580Y-16751476D02*
X41822771Y-16789571D01*
X41822771Y-16789571D02*
X41975152Y-16827667D01*
X41975152Y-16827667D02*
X42089438Y-16827667D01*
X42089438Y-16827667D02*
X42241819Y-16789571D01*
X42241819Y-16789571D02*
X42318009Y-16751476D01*
X42318009Y-16751476D02*
X42394200Y-16675286D01*
X42394200Y-16675286D02*
X42432295Y-16561000D01*
X42432295Y-16561000D02*
X42432295Y-16370524D01*
X41708485Y-17132428D02*
X41670390Y-17170524D01*
X41670390Y-17170524D02*
X41632295Y-17246714D01*
X41632295Y-17246714D02*
X41632295Y-17437190D01*
X41632295Y-17437190D02*
X41670390Y-17513381D01*
X41670390Y-17513381D02*
X41708485Y-17551476D01*
X41708485Y-17551476D02*
X41784676Y-17589571D01*
X41784676Y-17589571D02*
X41860866Y-17589571D01*
X41860866Y-17589571D02*
X41975152Y-17551476D01*
X41975152Y-17551476D02*
X42432295Y-17094333D01*
X42432295Y-17094333D02*
X42432295Y-17589571D01*
X46750390Y-16351476D02*
X46712295Y-16275286D01*
X46712295Y-16275286D02*
X46712295Y-16161000D01*
X46712295Y-16161000D02*
X46750390Y-16046714D01*
X46750390Y-16046714D02*
X46826580Y-15970524D01*
X46826580Y-15970524D02*
X46902771Y-15932429D01*
X46902771Y-15932429D02*
X47055152Y-15894333D01*
X47055152Y-15894333D02*
X47169438Y-15894333D01*
X47169438Y-15894333D02*
X47321819Y-15932429D01*
X47321819Y-15932429D02*
X47398009Y-15970524D01*
X47398009Y-15970524D02*
X47474200Y-16046714D01*
X47474200Y-16046714D02*
X47512295Y-16161000D01*
X47512295Y-16161000D02*
X47512295Y-16237191D01*
X47512295Y-16237191D02*
X47474200Y-16351476D01*
X47474200Y-16351476D02*
X47436104Y-16389572D01*
X47436104Y-16389572D02*
X47169438Y-16389572D01*
X47169438Y-16389572D02*
X47169438Y-16237191D01*
X47512295Y-16732429D02*
X46712295Y-16732429D01*
X46712295Y-16732429D02*
X47512295Y-17189572D01*
X47512295Y-17189572D02*
X46712295Y-17189572D01*
X47512295Y-17570524D02*
X46712295Y-17570524D01*
X46712295Y-17570524D02*
X46712295Y-17761000D01*
X46712295Y-17761000D02*
X46750390Y-17875286D01*
X46750390Y-17875286D02*
X46826580Y-17951476D01*
X46826580Y-17951476D02*
X46902771Y-17989571D01*
X46902771Y-17989571D02*
X47055152Y-18027667D01*
X47055152Y-18027667D02*
X47169438Y-18027667D01*
X47169438Y-18027667D02*
X47321819Y-17989571D01*
X47321819Y-17989571D02*
X47398009Y-17951476D01*
X47398009Y-17951476D02*
X47474200Y-17875286D01*
X47474200Y-17875286D02*
X47512295Y-17761000D01*
X47512295Y-17761000D02*
X47512295Y-17570524D01*
X62333247Y-5715190D02*
X62371342Y-5829476D01*
X62371342Y-5829476D02*
X62409438Y-5867571D01*
X62409438Y-5867571D02*
X62485628Y-5905667D01*
X62485628Y-5905667D02*
X62599914Y-5905667D01*
X62599914Y-5905667D02*
X62676104Y-5867571D01*
X62676104Y-5867571D02*
X62714200Y-5829476D01*
X62714200Y-5829476D02*
X62752295Y-5753286D01*
X62752295Y-5753286D02*
X62752295Y-5448524D01*
X62752295Y-5448524D02*
X61952295Y-5448524D01*
X61952295Y-5448524D02*
X61952295Y-5715190D01*
X61952295Y-5715190D02*
X61990390Y-5791381D01*
X61990390Y-5791381D02*
X62028485Y-5829476D01*
X62028485Y-5829476D02*
X62104676Y-5867571D01*
X62104676Y-5867571D02*
X62180866Y-5867571D01*
X62180866Y-5867571D02*
X62257057Y-5829476D01*
X62257057Y-5829476D02*
X62295152Y-5791381D01*
X62295152Y-5791381D02*
X62333247Y-5715190D01*
X62333247Y-5715190D02*
X62333247Y-5448524D01*
X61952295Y-6172333D02*
X61952295Y-6667571D01*
X61952295Y-6667571D02*
X62257057Y-6400905D01*
X62257057Y-6400905D02*
X62257057Y-6515190D01*
X62257057Y-6515190D02*
X62295152Y-6591381D01*
X62295152Y-6591381D02*
X62333247Y-6629476D01*
X62333247Y-6629476D02*
X62409438Y-6667571D01*
X62409438Y-6667571D02*
X62599914Y-6667571D01*
X62599914Y-6667571D02*
X62676104Y-6629476D01*
X62676104Y-6629476D02*
X62714200Y-6591381D01*
X62714200Y-6591381D02*
X62752295Y-6515190D01*
X62752295Y-6515190D02*
X62752295Y-6286619D01*
X62752295Y-6286619D02*
X62714200Y-6210428D01*
X62714200Y-6210428D02*
X62676104Y-6172333D01*
X66049366Y-15716667D02*
X66082700Y-15816667D01*
X66082700Y-15816667D02*
X66116033Y-15850000D01*
X66116033Y-15850000D02*
X66182700Y-15883333D01*
X66182700Y-15883333D02*
X66282700Y-15883333D01*
X66282700Y-15883333D02*
X66349366Y-15850000D01*
X66349366Y-15850000D02*
X66382700Y-15816667D01*
X66382700Y-15816667D02*
X66416033Y-15750000D01*
X66416033Y-15750000D02*
X66416033Y-15483333D01*
X66416033Y-15483333D02*
X65716033Y-15483333D01*
X65716033Y-15483333D02*
X65716033Y-15716667D01*
X65716033Y-15716667D02*
X65749366Y-15783333D01*
X65749366Y-15783333D02*
X65782700Y-15816667D01*
X65782700Y-15816667D02*
X65849366Y-15850000D01*
X65849366Y-15850000D02*
X65916033Y-15850000D01*
X65916033Y-15850000D02*
X65982700Y-15816667D01*
X65982700Y-15816667D02*
X66016033Y-15783333D01*
X66016033Y-15783333D02*
X66049366Y-15716667D01*
X66049366Y-15716667D02*
X66049366Y-15483333D01*
X65716033Y-16116667D02*
X65716033Y-16583333D01*
X65716033Y-16583333D02*
X66416033Y-16283333D01*
X39092295Y-12881395D02*
X39092295Y-13338538D01*
X39892295Y-13109966D02*
X39092295Y-13109966D01*
X39092295Y-13529014D02*
X39892295Y-14062348D01*
X39092295Y-14062348D02*
X39892295Y-13529014D01*
X39092295Y-14519491D02*
X39092295Y-14595681D01*
X39092295Y-14595681D02*
X39130390Y-14671872D01*
X39130390Y-14671872D02*
X39168485Y-14709967D01*
X39168485Y-14709967D02*
X39244676Y-14748062D01*
X39244676Y-14748062D02*
X39397057Y-14786157D01*
X39397057Y-14786157D02*
X39587533Y-14786157D01*
X39587533Y-14786157D02*
X39739914Y-14748062D01*
X39739914Y-14748062D02*
X39816104Y-14709967D01*
X39816104Y-14709967D02*
X39854200Y-14671872D01*
X39854200Y-14671872D02*
X39892295Y-14595681D01*
X39892295Y-14595681D02*
X39892295Y-14519491D01*
X39892295Y-14519491D02*
X39854200Y-14443300D01*
X39854200Y-14443300D02*
X39816104Y-14405205D01*
X39816104Y-14405205D02*
X39739914Y-14367110D01*
X39739914Y-14367110D02*
X39587533Y-14329014D01*
X39587533Y-14329014D02*
X39397057Y-14329014D01*
X39397057Y-14329014D02*
X39244676Y-14367110D01*
X39244676Y-14367110D02*
X39168485Y-14405205D01*
X39168485Y-14405205D02*
X39130390Y-14443300D01*
X39130390Y-14443300D02*
X39092295Y-14519491D01*
X39054200Y-15700443D02*
X40082771Y-15014729D01*
X39892295Y-15967110D02*
X39092295Y-15967110D01*
X39092295Y-15967110D02*
X39092295Y-16157586D01*
X39092295Y-16157586D02*
X39130390Y-16271872D01*
X39130390Y-16271872D02*
X39206580Y-16348062D01*
X39206580Y-16348062D02*
X39282771Y-16386157D01*
X39282771Y-16386157D02*
X39435152Y-16424253D01*
X39435152Y-16424253D02*
X39549438Y-16424253D01*
X39549438Y-16424253D02*
X39701819Y-16386157D01*
X39701819Y-16386157D02*
X39778009Y-16348062D01*
X39778009Y-16348062D02*
X39854200Y-16271872D01*
X39854200Y-16271872D02*
X39892295Y-16157586D01*
X39892295Y-16157586D02*
X39892295Y-15967110D01*
X39092295Y-16690919D02*
X39092295Y-17186157D01*
X39092295Y-17186157D02*
X39397057Y-16919491D01*
X39397057Y-16919491D02*
X39397057Y-17033776D01*
X39397057Y-17033776D02*
X39435152Y-17109967D01*
X39435152Y-17109967D02*
X39473247Y-17148062D01*
X39473247Y-17148062D02*
X39549438Y-17186157D01*
X39549438Y-17186157D02*
X39739914Y-17186157D01*
X39739914Y-17186157D02*
X39816104Y-17148062D01*
X39816104Y-17148062D02*
X39854200Y-17109967D01*
X39854200Y-17109967D02*
X39892295Y-17033776D01*
X39892295Y-17033776D02*
X39892295Y-16805205D01*
X39892295Y-16805205D02*
X39854200Y-16729014D01*
X39854200Y-16729014D02*
X39816104Y-16690919D01*
X59793247Y-5715190D02*
X59831342Y-5829476D01*
X59831342Y-5829476D02*
X59869438Y-5867571D01*
X59869438Y-5867571D02*
X59945628Y-5905667D01*
X59945628Y-5905667D02*
X60059914Y-5905667D01*
X60059914Y-5905667D02*
X60136104Y-5867571D01*
X60136104Y-5867571D02*
X60174200Y-5829476D01*
X60174200Y-5829476D02*
X60212295Y-5753286D01*
X60212295Y-5753286D02*
X60212295Y-5448524D01*
X60212295Y-5448524D02*
X59412295Y-5448524D01*
X59412295Y-5448524D02*
X59412295Y-5715190D01*
X59412295Y-5715190D02*
X59450390Y-5791381D01*
X59450390Y-5791381D02*
X59488485Y-5829476D01*
X59488485Y-5829476D02*
X59564676Y-5867571D01*
X59564676Y-5867571D02*
X59640866Y-5867571D01*
X59640866Y-5867571D02*
X59717057Y-5829476D01*
X59717057Y-5829476D02*
X59755152Y-5791381D01*
X59755152Y-5791381D02*
X59793247Y-5715190D01*
X59793247Y-5715190D02*
X59793247Y-5448524D01*
X60212295Y-6667571D02*
X60212295Y-6210428D01*
X60212295Y-6439000D02*
X59412295Y-6439000D01*
X59412295Y-6439000D02*
X59526580Y-6362809D01*
X59526580Y-6362809D02*
X59602771Y-6286619D01*
X59602771Y-6286619D02*
X59640866Y-6210428D01*
X52592295Y-16370524D02*
X51792295Y-16370524D01*
X51792295Y-16370524D02*
X51792295Y-16561000D01*
X51792295Y-16561000D02*
X51830390Y-16675286D01*
X51830390Y-16675286D02*
X51906580Y-16751476D01*
X51906580Y-16751476D02*
X51982771Y-16789571D01*
X51982771Y-16789571D02*
X52135152Y-16827667D01*
X52135152Y-16827667D02*
X52249438Y-16827667D01*
X52249438Y-16827667D02*
X52401819Y-16789571D01*
X52401819Y-16789571D02*
X52478009Y-16751476D01*
X52478009Y-16751476D02*
X52554200Y-16675286D01*
X52554200Y-16675286D02*
X52592295Y-16561000D01*
X52592295Y-16561000D02*
X52592295Y-16370524D01*
X51792295Y-17322905D02*
X51792295Y-17399095D01*
X51792295Y-17399095D02*
X51830390Y-17475286D01*
X51830390Y-17475286D02*
X51868485Y-17513381D01*
X51868485Y-17513381D02*
X51944676Y-17551476D01*
X51944676Y-17551476D02*
X52097057Y-17589571D01*
X52097057Y-17589571D02*
X52287533Y-17589571D01*
X52287533Y-17589571D02*
X52439914Y-17551476D01*
X52439914Y-17551476D02*
X52516104Y-17513381D01*
X52516104Y-17513381D02*
X52554200Y-17475286D01*
X52554200Y-17475286D02*
X52592295Y-17399095D01*
X52592295Y-17399095D02*
X52592295Y-17322905D01*
X52592295Y-17322905D02*
X52554200Y-17246714D01*
X52554200Y-17246714D02*
X52516104Y-17208619D01*
X52516104Y-17208619D02*
X52439914Y-17170524D01*
X52439914Y-17170524D02*
X52287533Y-17132428D01*
X52287533Y-17132428D02*
X52097057Y-17132428D01*
X52097057Y-17132428D02*
X51944676Y-17170524D01*
X51944676Y-17170524D02*
X51868485Y-17208619D01*
X51868485Y-17208619D02*
X51830390Y-17246714D01*
X51830390Y-17246714D02*
X51792295Y-17322905D01*
X65963850Y-4935456D02*
X66058131Y-4982596D01*
X66058131Y-4982596D02*
X66105271Y-4982596D01*
X66105271Y-4982596D02*
X66175982Y-4959026D01*
X66175982Y-4959026D02*
X66246692Y-4888316D01*
X66246692Y-4888316D02*
X66270263Y-4817605D01*
X66270263Y-4817605D02*
X66270263Y-4770464D01*
X66270263Y-4770464D02*
X66246692Y-4699754D01*
X66246692Y-4699754D02*
X66058131Y-4511192D01*
X66058131Y-4511192D02*
X65563156Y-5006167D01*
X65563156Y-5006167D02*
X65728147Y-5171158D01*
X65728147Y-5171158D02*
X65798858Y-5194728D01*
X65798858Y-5194728D02*
X65845999Y-5194728D01*
X65845999Y-5194728D02*
X65916709Y-5171158D01*
X65916709Y-5171158D02*
X65963850Y-5124018D01*
X65963850Y-5124018D02*
X65987420Y-5053307D01*
X65987420Y-5053307D02*
X65987420Y-5006167D01*
X65987420Y-5006167D02*
X65963850Y-4935456D01*
X65963850Y-4935456D02*
X65798858Y-4770464D01*
X66270263Y-5713273D02*
X66175982Y-5618993D01*
X66175982Y-5618993D02*
X66152411Y-5548282D01*
X66152411Y-5548282D02*
X66152411Y-5501141D01*
X66152411Y-5501141D02*
X66175982Y-5383290D01*
X66175982Y-5383290D02*
X66246692Y-5265439D01*
X66246692Y-5265439D02*
X66435254Y-5076877D01*
X66435254Y-5076877D02*
X66505965Y-5053307D01*
X66505965Y-5053307D02*
X66553105Y-5053307D01*
X66553105Y-5053307D02*
X66623816Y-5076877D01*
X66623816Y-5076877D02*
X66718097Y-5171158D01*
X66718097Y-5171158D02*
X66741667Y-5241869D01*
X66741667Y-5241869D02*
X66741667Y-5289009D01*
X66741667Y-5289009D02*
X66718097Y-5359720D01*
X66718097Y-5359720D02*
X66600246Y-5477571D01*
X66600246Y-5477571D02*
X66529535Y-5501141D01*
X66529535Y-5501141D02*
X66482395Y-5501141D01*
X66482395Y-5501141D02*
X66411684Y-5477571D01*
X66411684Y-5477571D02*
X66317403Y-5383290D01*
X66317403Y-5383290D02*
X66293833Y-5312580D01*
X66293833Y-5312580D02*
X66293833Y-5265439D01*
X66293833Y-5265439D02*
X66317403Y-5194728D01*
X64873247Y-5715190D02*
X64911342Y-5829476D01*
X64911342Y-5829476D02*
X64949438Y-5867571D01*
X64949438Y-5867571D02*
X65025628Y-5905667D01*
X65025628Y-5905667D02*
X65139914Y-5905667D01*
X65139914Y-5905667D02*
X65216104Y-5867571D01*
X65216104Y-5867571D02*
X65254200Y-5829476D01*
X65254200Y-5829476D02*
X65292295Y-5753286D01*
X65292295Y-5753286D02*
X65292295Y-5448524D01*
X65292295Y-5448524D02*
X64492295Y-5448524D01*
X64492295Y-5448524D02*
X64492295Y-5715190D01*
X64492295Y-5715190D02*
X64530390Y-5791381D01*
X64530390Y-5791381D02*
X64568485Y-5829476D01*
X64568485Y-5829476D02*
X64644676Y-5867571D01*
X64644676Y-5867571D02*
X64720866Y-5867571D01*
X64720866Y-5867571D02*
X64797057Y-5829476D01*
X64797057Y-5829476D02*
X64835152Y-5791381D01*
X64835152Y-5791381D02*
X64873247Y-5715190D01*
X64873247Y-5715190D02*
X64873247Y-5448524D01*
X64568485Y-6210428D02*
X64530390Y-6248524D01*
X64530390Y-6248524D02*
X64492295Y-6324714D01*
X64492295Y-6324714D02*
X64492295Y-6515190D01*
X64492295Y-6515190D02*
X64530390Y-6591381D01*
X64530390Y-6591381D02*
X64568485Y-6629476D01*
X64568485Y-6629476D02*
X64644676Y-6667571D01*
X64644676Y-6667571D02*
X64720866Y-6667571D01*
X64720866Y-6667571D02*
X64835152Y-6629476D01*
X64835152Y-6629476D02*
X65292295Y-6172333D01*
X65292295Y-6172333D02*
X65292295Y-6667571D01*
X54713247Y-5772333D02*
X54713247Y-5505667D01*
X55132295Y-5505667D02*
X54332295Y-5505667D01*
X54332295Y-5505667D02*
X54332295Y-5886619D01*
X54332295Y-6534238D02*
X54332295Y-6381857D01*
X54332295Y-6381857D02*
X54370390Y-6305666D01*
X54370390Y-6305666D02*
X54408485Y-6267571D01*
X54408485Y-6267571D02*
X54522771Y-6191381D01*
X54522771Y-6191381D02*
X54675152Y-6153285D01*
X54675152Y-6153285D02*
X54979914Y-6153285D01*
X54979914Y-6153285D02*
X55056104Y-6191381D01*
X55056104Y-6191381D02*
X55094200Y-6229476D01*
X55094200Y-6229476D02*
X55132295Y-6305666D01*
X55132295Y-6305666D02*
X55132295Y-6458047D01*
X55132295Y-6458047D02*
X55094200Y-6534238D01*
X55094200Y-6534238D02*
X55056104Y-6572333D01*
X55056104Y-6572333D02*
X54979914Y-6610428D01*
X54979914Y-6610428D02*
X54789438Y-6610428D01*
X54789438Y-6610428D02*
X54713247Y-6572333D01*
X54713247Y-6572333D02*
X54675152Y-6534238D01*
X54675152Y-6534238D02*
X54637057Y-6458047D01*
X54637057Y-6458047D02*
X54637057Y-6305666D01*
X54637057Y-6305666D02*
X54675152Y-6229476D01*
X54675152Y-6229476D02*
X54713247Y-6191381D01*
X54713247Y-6191381D02*
X54789438Y-6153285D01*
X52173247Y-5772333D02*
X52173247Y-5505667D01*
X52592295Y-5505667D02*
X51792295Y-5505667D01*
X51792295Y-5505667D02*
X51792295Y-5886619D01*
X51792295Y-6572333D02*
X51792295Y-6191381D01*
X51792295Y-6191381D02*
X52173247Y-6153285D01*
X52173247Y-6153285D02*
X52135152Y-6191381D01*
X52135152Y-6191381D02*
X52097057Y-6267571D01*
X52097057Y-6267571D02*
X52097057Y-6458047D01*
X52097057Y-6458047D02*
X52135152Y-6534238D01*
X52135152Y-6534238D02*
X52173247Y-6572333D01*
X52173247Y-6572333D02*
X52249438Y-6610428D01*
X52249438Y-6610428D02*
X52439914Y-6610428D01*
X52439914Y-6610428D02*
X52516104Y-6572333D01*
X52516104Y-6572333D02*
X52554200Y-6534238D01*
X52554200Y-6534238D02*
X52592295Y-6458047D01*
X52592295Y-6458047D02*
X52592295Y-6267571D01*
X52592295Y-6267571D02*
X52554200Y-6191381D01*
X52554200Y-6191381D02*
X52516104Y-6153285D01*
X62333247Y-16408619D02*
X62333247Y-16675285D01*
X62752295Y-16789571D02*
X62752295Y-16408619D01*
X62752295Y-16408619D02*
X61952295Y-16408619D01*
X61952295Y-16408619D02*
X61952295Y-16789571D01*
X61952295Y-17475286D02*
X61952295Y-17322905D01*
X61952295Y-17322905D02*
X61990390Y-17246714D01*
X61990390Y-17246714D02*
X62028485Y-17208619D01*
X62028485Y-17208619D02*
X62142771Y-17132429D01*
X62142771Y-17132429D02*
X62295152Y-17094333D01*
X62295152Y-17094333D02*
X62599914Y-17094333D01*
X62599914Y-17094333D02*
X62676104Y-17132429D01*
X62676104Y-17132429D02*
X62714200Y-17170524D01*
X62714200Y-17170524D02*
X62752295Y-17246714D01*
X62752295Y-17246714D02*
X62752295Y-17399095D01*
X62752295Y-17399095D02*
X62714200Y-17475286D01*
X62714200Y-17475286D02*
X62676104Y-17513381D01*
X62676104Y-17513381D02*
X62599914Y-17551476D01*
X62599914Y-17551476D02*
X62409438Y-17551476D01*
X62409438Y-17551476D02*
X62333247Y-17513381D01*
X62333247Y-17513381D02*
X62295152Y-17475286D01*
X62295152Y-17475286D02*
X62257057Y-17399095D01*
X62257057Y-17399095D02*
X62257057Y-17246714D01*
X62257057Y-17246714D02*
X62295152Y-17170524D01*
X62295152Y-17170524D02*
X62333247Y-17132429D01*
X62333247Y-17132429D02*
X62409438Y-17094333D01*
X49633247Y-5772333D02*
X49633247Y-5505667D01*
X50052295Y-5505667D02*
X49252295Y-5505667D01*
X49252295Y-5505667D02*
X49252295Y-5886619D01*
X49518961Y-6534238D02*
X50052295Y-6534238D01*
X49214200Y-6343762D02*
X49785628Y-6153285D01*
X49785628Y-6153285D02*
X49785628Y-6648524D01*
X66186104Y-11366667D02*
X66224200Y-11328571D01*
X66224200Y-11328571D02*
X66262295Y-11214286D01*
X66262295Y-11214286D02*
X66262295Y-11138095D01*
X66262295Y-11138095D02*
X66224200Y-11023809D01*
X66224200Y-11023809D02*
X66148009Y-10947619D01*
X66148009Y-10947619D02*
X66071819Y-10909524D01*
X66071819Y-10909524D02*
X65919438Y-10871428D01*
X65919438Y-10871428D02*
X65805152Y-10871428D01*
X65805152Y-10871428D02*
X65652771Y-10909524D01*
X65652771Y-10909524D02*
X65576580Y-10947619D01*
X65576580Y-10947619D02*
X65500390Y-11023809D01*
X65500390Y-11023809D02*
X65462295Y-11138095D01*
X65462295Y-11138095D02*
X65462295Y-11214286D01*
X65462295Y-11214286D02*
X65500390Y-11328571D01*
X65500390Y-11328571D02*
X65538485Y-11366667D01*
X65462295Y-11633333D02*
X65462295Y-12166667D01*
X65462295Y-12166667D02*
X66262295Y-11823809D01*
X44210390Y-16351476D02*
X44172295Y-16275286D01*
X44172295Y-16275286D02*
X44172295Y-16161000D01*
X44172295Y-16161000D02*
X44210390Y-16046714D01*
X44210390Y-16046714D02*
X44286580Y-15970524D01*
X44286580Y-15970524D02*
X44362771Y-15932429D01*
X44362771Y-15932429D02*
X44515152Y-15894333D01*
X44515152Y-15894333D02*
X44629438Y-15894333D01*
X44629438Y-15894333D02*
X44781819Y-15932429D01*
X44781819Y-15932429D02*
X44858009Y-15970524D01*
X44858009Y-15970524D02*
X44934200Y-16046714D01*
X44934200Y-16046714D02*
X44972295Y-16161000D01*
X44972295Y-16161000D02*
X44972295Y-16237191D01*
X44972295Y-16237191D02*
X44934200Y-16351476D01*
X44934200Y-16351476D02*
X44896104Y-16389572D01*
X44896104Y-16389572D02*
X44629438Y-16389572D01*
X44629438Y-16389572D02*
X44629438Y-16237191D01*
X44972295Y-16732429D02*
X44172295Y-16732429D01*
X44172295Y-16732429D02*
X44972295Y-17189572D01*
X44972295Y-17189572D02*
X44172295Y-17189572D01*
X44972295Y-17570524D02*
X44172295Y-17570524D01*
X44172295Y-17570524D02*
X44172295Y-17761000D01*
X44172295Y-17761000D02*
X44210390Y-17875286D01*
X44210390Y-17875286D02*
X44286580Y-17951476D01*
X44286580Y-17951476D02*
X44362771Y-17989571D01*
X44362771Y-17989571D02*
X44515152Y-18027667D01*
X44515152Y-18027667D02*
X44629438Y-18027667D01*
X44629438Y-18027667D02*
X44781819Y-17989571D01*
X44781819Y-17989571D02*
X44858009Y-17951476D01*
X44858009Y-17951476D02*
X44934200Y-17875286D01*
X44934200Y-17875286D02*
X44972295Y-17761000D01*
X44972295Y-17761000D02*
X44972295Y-17570524D01*
X66049366Y-6766667D02*
X66049366Y-6533333D01*
X66416033Y-6533333D02*
X65716033Y-6533333D01*
X65716033Y-6533333D02*
X65716033Y-6866667D01*
X65716033Y-7266667D02*
X65716033Y-7333333D01*
X65716033Y-7333333D02*
X65749366Y-7400000D01*
X65749366Y-7400000D02*
X65782700Y-7433333D01*
X65782700Y-7433333D02*
X65849366Y-7466667D01*
X65849366Y-7466667D02*
X65982700Y-7500000D01*
X65982700Y-7500000D02*
X66149366Y-7500000D01*
X66149366Y-7500000D02*
X66282700Y-7466667D01*
X66282700Y-7466667D02*
X66349366Y-7433333D01*
X66349366Y-7433333D02*
X66382700Y-7400000D01*
X66382700Y-7400000D02*
X66416033Y-7333333D01*
X66416033Y-7333333D02*
X66416033Y-7266667D01*
X66416033Y-7266667D02*
X66382700Y-7200000D01*
X66382700Y-7200000D02*
X66349366Y-7166667D01*
X66349366Y-7166667D02*
X66282700Y-7133333D01*
X66282700Y-7133333D02*
X66149366Y-7100000D01*
X66149366Y-7100000D02*
X65982700Y-7100000D01*
X65982700Y-7100000D02*
X65849366Y-7133333D01*
X65849366Y-7133333D02*
X65782700Y-7166667D01*
X65782700Y-7166667D02*
X65749366Y-7200000D01*
X65749366Y-7200000D02*
X65716033Y-7266667D01*
X39473247Y-5715190D02*
X39511342Y-5829476D01*
X39511342Y-5829476D02*
X39549438Y-5867571D01*
X39549438Y-5867571D02*
X39625628Y-5905667D01*
X39625628Y-5905667D02*
X39739914Y-5905667D01*
X39739914Y-5905667D02*
X39816104Y-5867571D01*
X39816104Y-5867571D02*
X39854200Y-5829476D01*
X39854200Y-5829476D02*
X39892295Y-5753286D01*
X39892295Y-5753286D02*
X39892295Y-5448524D01*
X39892295Y-5448524D02*
X39092295Y-5448524D01*
X39092295Y-5448524D02*
X39092295Y-5715190D01*
X39092295Y-5715190D02*
X39130390Y-5791381D01*
X39130390Y-5791381D02*
X39168485Y-5829476D01*
X39168485Y-5829476D02*
X39244676Y-5867571D01*
X39244676Y-5867571D02*
X39320866Y-5867571D01*
X39320866Y-5867571D02*
X39397057Y-5829476D01*
X39397057Y-5829476D02*
X39435152Y-5791381D01*
X39435152Y-5791381D02*
X39473247Y-5715190D01*
X39473247Y-5715190D02*
X39473247Y-5448524D01*
X39092295Y-6400905D02*
X39092295Y-6477095D01*
X39092295Y-6477095D02*
X39130390Y-6553286D01*
X39130390Y-6553286D02*
X39168485Y-6591381D01*
X39168485Y-6591381D02*
X39244676Y-6629476D01*
X39244676Y-6629476D02*
X39397057Y-6667571D01*
X39397057Y-6667571D02*
X39587533Y-6667571D01*
X39587533Y-6667571D02*
X39739914Y-6629476D01*
X39739914Y-6629476D02*
X39816104Y-6591381D01*
X39816104Y-6591381D02*
X39854200Y-6553286D01*
X39854200Y-6553286D02*
X39892295Y-6477095D01*
X39892295Y-6477095D02*
X39892295Y-6400905D01*
X39892295Y-6400905D02*
X39854200Y-6324714D01*
X39854200Y-6324714D02*
X39816104Y-6286619D01*
X39816104Y-6286619D02*
X39739914Y-6248524D01*
X39739914Y-6248524D02*
X39587533Y-6210428D01*
X39587533Y-6210428D02*
X39397057Y-6210428D01*
X39397057Y-6210428D02*
X39244676Y-6248524D01*
X39244676Y-6248524D02*
X39168485Y-6286619D01*
X39168485Y-6286619D02*
X39130390Y-6324714D01*
X39130390Y-6324714D02*
X39092295Y-6400905D01*
X57596104Y-16827667D02*
X57634200Y-16789571D01*
X57634200Y-16789571D02*
X57672295Y-16675286D01*
X57672295Y-16675286D02*
X57672295Y-16599095D01*
X57672295Y-16599095D02*
X57634200Y-16484809D01*
X57634200Y-16484809D02*
X57558009Y-16408619D01*
X57558009Y-16408619D02*
X57481819Y-16370524D01*
X57481819Y-16370524D02*
X57329438Y-16332428D01*
X57329438Y-16332428D02*
X57215152Y-16332428D01*
X57215152Y-16332428D02*
X57062771Y-16370524D01*
X57062771Y-16370524D02*
X56986580Y-16408619D01*
X56986580Y-16408619D02*
X56910390Y-16484809D01*
X56910390Y-16484809D02*
X56872295Y-16599095D01*
X56872295Y-16599095D02*
X56872295Y-16675286D01*
X56872295Y-16675286D02*
X56910390Y-16789571D01*
X56910390Y-16789571D02*
X56948485Y-16827667D01*
X56872295Y-17513381D02*
X56872295Y-17361000D01*
X56872295Y-17361000D02*
X56910390Y-17284809D01*
X56910390Y-17284809D02*
X56948485Y-17246714D01*
X56948485Y-17246714D02*
X57062771Y-17170524D01*
X57062771Y-17170524D02*
X57215152Y-17132428D01*
X57215152Y-17132428D02*
X57519914Y-17132428D01*
X57519914Y-17132428D02*
X57596104Y-17170524D01*
X57596104Y-17170524D02*
X57634200Y-17208619D01*
X57634200Y-17208619D02*
X57672295Y-17284809D01*
X57672295Y-17284809D02*
X57672295Y-17437190D01*
X57672295Y-17437190D02*
X57634200Y-17513381D01*
X57634200Y-17513381D02*
X57596104Y-17551476D01*
X57596104Y-17551476D02*
X57519914Y-17589571D01*
X57519914Y-17589571D02*
X57329438Y-17589571D01*
X57329438Y-17589571D02*
X57253247Y-17551476D01*
X57253247Y-17551476D02*
X57215152Y-17513381D01*
X57215152Y-17513381D02*
X57177057Y-17437190D01*
X57177057Y-17437190D02*
X57177057Y-17284809D01*
X57177057Y-17284809D02*
X57215152Y-17208619D01*
X57215152Y-17208619D02*
X57253247Y-17170524D01*
X57253247Y-17170524D02*
X57329438Y-17132428D01*
X55132295Y-16370524D02*
X54332295Y-16370524D01*
X54332295Y-16370524D02*
X54332295Y-16561000D01*
X54332295Y-16561000D02*
X54370390Y-16675286D01*
X54370390Y-16675286D02*
X54446580Y-16751476D01*
X54446580Y-16751476D02*
X54522771Y-16789571D01*
X54522771Y-16789571D02*
X54675152Y-16827667D01*
X54675152Y-16827667D02*
X54789438Y-16827667D01*
X54789438Y-16827667D02*
X54941819Y-16789571D01*
X54941819Y-16789571D02*
X55018009Y-16751476D01*
X55018009Y-16751476D02*
X55094200Y-16675286D01*
X55094200Y-16675286D02*
X55132295Y-16561000D01*
X55132295Y-16561000D02*
X55132295Y-16370524D01*
X54598961Y-17513381D02*
X55132295Y-17513381D01*
X54294200Y-17322905D02*
X54865628Y-17132428D01*
X54865628Y-17132428D02*
X54865628Y-17627667D01*
X50052295Y-16370524D02*
X49252295Y-16370524D01*
X49252295Y-16370524D02*
X49252295Y-16561000D01*
X49252295Y-16561000D02*
X49290390Y-16675286D01*
X49290390Y-16675286D02*
X49366580Y-16751476D01*
X49366580Y-16751476D02*
X49442771Y-16789571D01*
X49442771Y-16789571D02*
X49595152Y-16827667D01*
X49595152Y-16827667D02*
X49709438Y-16827667D01*
X49709438Y-16827667D02*
X49861819Y-16789571D01*
X49861819Y-16789571D02*
X49938009Y-16751476D01*
X49938009Y-16751476D02*
X50014200Y-16675286D01*
X50014200Y-16675286D02*
X50052295Y-16561000D01*
X50052295Y-16561000D02*
X50052295Y-16370524D01*
X50052295Y-17589571D02*
X50052295Y-17132428D01*
X50052295Y-17361000D02*
X49252295Y-17361000D01*
X49252295Y-17361000D02*
X49366580Y-17284809D01*
X49366580Y-17284809D02*
X49442771Y-17208619D01*
X49442771Y-17208619D02*
X49480866Y-17132428D01*
D11*
X35720000Y-2610000D02*
X35720000Y-20390000D01*
X35720000Y-20390000D02*
X68740000Y-20390000D01*
X38260000Y-17850000D02*
X38260000Y-20390000D01*
X38260000Y-17850000D02*
X40800000Y-17850000D01*
X40800000Y-17850000D02*
X40800000Y-20390000D01*
X68740000Y-2610000D02*
X35720000Y-2610000D01*
X68740000Y-20390000D02*
X68740000Y-2610000D01*
D10*
X44949030Y-5255365D02*
X44149030Y-5255365D01*
X44149030Y-5155365D01*
X44949030Y-5155365D01*
X44949030Y-5255365D01*
G36*
X44949030Y-5255365D02*
G01*
X44149030Y-5255365D01*
X44149030Y-5155365D01*
X44949030Y-5155365D01*
X44949030Y-5255365D01*
G37*
X44249030Y-5655365D02*
X44149030Y-5655365D01*
X44149030Y-5155365D01*
X44249030Y-5155365D01*
X44249030Y-5655365D01*
G36*
X44249030Y-5655365D02*
G01*
X44149030Y-5655365D01*
X44149030Y-5155365D01*
X44249030Y-5155365D01*
X44249030Y-5655365D01*
G37*
X44449030Y-5655365D02*
X44149030Y-5655365D01*
X44149030Y-5555365D01*
X44449030Y-5555365D01*
X44449030Y-5655365D01*
G36*
X44449030Y-5655365D02*
G01*
X44149030Y-5655365D01*
X44149030Y-5555365D01*
X44449030Y-5555365D01*
X44449030Y-5655365D01*
G37*
X44649030Y-5455365D02*
X44549030Y-5455365D01*
X44549030Y-5355365D01*
X44649030Y-5355365D01*
X44649030Y-5455365D01*
G36*
X44649030Y-5455365D02*
G01*
X44549030Y-5455365D01*
X44549030Y-5355365D01*
X44649030Y-5355365D01*
X44649030Y-5455365D01*
G37*
X44949030Y-5655365D02*
X44749030Y-5655365D01*
X44749030Y-5555365D01*
X44949030Y-5555365D01*
X44949030Y-5655365D01*
G36*
X44949030Y-5655365D02*
G01*
X44749030Y-5655365D01*
X44749030Y-5555365D01*
X44949030Y-5555365D01*
X44949030Y-5655365D01*
G37*
D12*
X39530000Y-19120000D03*
D13*
X42070000Y-19120000D03*
X44610000Y-19120000D03*
X47150000Y-19120000D03*
X49690000Y-19120000D03*
X52230000Y-19120000D03*
X54770000Y-19120000D03*
X57310000Y-19120000D03*
X59850000Y-19120000D03*
X62390000Y-19120000D03*
X64930000Y-19120000D03*
X67470000Y-19120000D03*
X67470000Y-3880000D03*
X64930000Y-3880000D03*
X62390000Y-3880000D03*
X59850000Y-3880000D03*
X57310000Y-3880000D03*
X54770000Y-3880000D03*
X52230000Y-3880000D03*
X49690000Y-3880000D03*
X47150000Y-3880000D03*
X44610000Y-3880000D03*
X42070000Y-3880000D03*
X39530000Y-3880000D03*
X67470000Y-16580000D03*
X67470000Y-14040000D03*
X67470000Y-11500000D03*
X67470000Y-8960000D03*
X67470000Y-6420000D03*
%LPC*%
D14*
X44675000Y-90702500D03*
D15*
X44675000Y-98322500D03*
D16*
X44700000Y-32600000D03*
D17*
X40300000Y-37300000D03*
X47300000Y-38350000D03*
D14*
X197075000Y-28790000D03*
D15*
X197075000Y-36410000D03*
D16*
X11362500Y-75462500D03*
D17*
X6962500Y-80162500D03*
X13962500Y-81212500D03*
D14*
X178025000Y-28790000D03*
D15*
X178025000Y-36410000D03*
D16*
X130425000Y-113562500D03*
D17*
X126025000Y-118262500D03*
X133025000Y-119312500D03*
D16*
X187575000Y-56412500D03*
D17*
X183175000Y-61112500D03*
X190175000Y-62162500D03*
D14*
X111350000Y-109752500D03*
D15*
X111350000Y-117372500D03*
D16*
X101850000Y-132612500D03*
D17*
X97450000Y-137312500D03*
X104450000Y-138362500D03*
D16*
X44700000Y-113562500D03*
D17*
X40300000Y-118262500D03*
X47300000Y-119312500D03*
D14*
X58962500Y-71652500D03*
D15*
X58962500Y-79272500D03*
D14*
X162662500Y-52602500D03*
D15*
X162662500Y-60222500D03*
D16*
X78037500Y-56412500D03*
D17*
X73637500Y-61112500D03*
X80637500Y-62162500D03*
D14*
X54200000Y-109752500D03*
D15*
X54200000Y-117372500D03*
D16*
X101850000Y-113562500D03*
D17*
X97450000Y-118262500D03*
X104450000Y-119312500D03*
D14*
X120875000Y-90702500D03*
D15*
X120875000Y-98322500D03*
D14*
X49437500Y-52602500D03*
D15*
X49437500Y-60222500D03*
D16*
X187575000Y-32600000D03*
D17*
X183175000Y-37300000D03*
X190175000Y-38350000D03*
D14*
X111350000Y-128802500D03*
D15*
X111350000Y-136422500D03*
D16*
X87562500Y-32600000D03*
D17*
X83162500Y-37300000D03*
X90162500Y-38350000D03*
D16*
X120900000Y-132612500D03*
D17*
X116500000Y-137312500D03*
X123500000Y-138362500D03*
D16*
X97087500Y-56412500D03*
D17*
X92687500Y-61112500D03*
X99687500Y-62162500D03*
D16*
X116137500Y-56412500D03*
D17*
X111737500Y-61112500D03*
X118737500Y-62162500D03*
D16*
X61368750Y-132612500D03*
D17*
X56968750Y-137312500D03*
X63968750Y-138362500D03*
D18*
X17150000Y-6680000D03*
X24850000Y-6680000D03*
D19*
X15000000Y-11000000D03*
D20*
X18000000Y-11000000D03*
X21000000Y-11000000D03*
X24000000Y-11000000D03*
X27000000Y-11000000D03*
D14*
X39912500Y-71652500D03*
D15*
X39912500Y-79272500D03*
D16*
X73275000Y-94512500D03*
D17*
X68875000Y-99212500D03*
X75875000Y-100262500D03*
D14*
X92300000Y-128802500D03*
D15*
X92300000Y-136422500D03*
D14*
X116112500Y-71652500D03*
D15*
X116112500Y-79272500D03*
D21*
X5000000Y-5000000D03*
D14*
X68487500Y-52602500D03*
D15*
X68487500Y-60222500D03*
D14*
X101825000Y-90702500D03*
D15*
X101825000Y-98322500D03*
D14*
X78012500Y-71652500D03*
D15*
X78012500Y-79272500D03*
D16*
X35175000Y-94512500D03*
D17*
X30775000Y-99212500D03*
X37775000Y-100262500D03*
D14*
X158975000Y-71652500D03*
D15*
X158975000Y-79272500D03*
D16*
X82800000Y-132612500D03*
D17*
X78400000Y-137312500D03*
X85400000Y-138362500D03*
D14*
X78012500Y-28790000D03*
D15*
X78012500Y-36410000D03*
D16*
X68512500Y-75462500D03*
D17*
X64112500Y-80162500D03*
X71112500Y-81212500D03*
D12*
X39530000Y-19120000D03*
D13*
X42070000Y-19120000D03*
X44610000Y-19120000D03*
X47150000Y-19120000D03*
X49690000Y-19120000D03*
X52230000Y-19120000D03*
X54770000Y-19120000D03*
X57310000Y-19120000D03*
X59850000Y-19120000D03*
X62390000Y-19120000D03*
X64930000Y-19120000D03*
X67470000Y-19120000D03*
X67470000Y-3880000D03*
X64930000Y-3880000D03*
X62390000Y-3880000D03*
X59850000Y-3880000D03*
X57310000Y-3880000D03*
X54770000Y-3880000D03*
X52230000Y-3880000D03*
X49690000Y-3880000D03*
X47150000Y-3880000D03*
X44610000Y-3880000D03*
X42070000Y-3880000D03*
X39530000Y-3880000D03*
X67470000Y-16580000D03*
X67470000Y-14040000D03*
X67470000Y-11500000D03*
X67470000Y-8960000D03*
X67470000Y-6420000D03*
D16*
X149475000Y-75462500D03*
D17*
X145075000Y-80162500D03*
X152075000Y-81212500D03*
D14*
X35150000Y-28790000D03*
D15*
X35150000Y-36410000D03*
D16*
X149475000Y-32600000D03*
D17*
X145075000Y-37300000D03*
X152075000Y-38350000D03*
D14*
X135162500Y-28790000D03*
D15*
X135162500Y-36410000D03*
D16*
X144712500Y-137375000D03*
D17*
X140312500Y-142075000D03*
X147312500Y-143125000D03*
D14*
X197075000Y-109752500D03*
D15*
X197075000Y-117372500D03*
D14*
X97062500Y-28790000D03*
D15*
X97062500Y-36410000D03*
D14*
X35150000Y-109752500D03*
D15*
X35150000Y-117372500D03*
D21*
X77000000Y-11000000D03*
D16*
X87562500Y-75462500D03*
D17*
X83162500Y-80162500D03*
X90162500Y-81212500D03*
D16*
X16125000Y-94512500D03*
D17*
X11725000Y-99212500D03*
X18725000Y-100262500D03*
D14*
X148375000Y-109752500D03*
D15*
X148375000Y-117372500D03*
D14*
X192312500Y-128690000D03*
D15*
X192312500Y-136310000D03*
D14*
X154212500Y-133565000D03*
D15*
X154212500Y-141185000D03*
D16*
X106612500Y-75462500D03*
D17*
X102212500Y-80162500D03*
X109212500Y-81212500D03*
D14*
X73250000Y-109752500D03*
D15*
X73250000Y-117372500D03*
D16*
X144712500Y-56412500D03*
D17*
X140312500Y-61112500D03*
X147312500Y-62162500D03*
D21*
X196000000Y-5000000D03*
D16*
X20887500Y-56412500D03*
D17*
X16487500Y-61112500D03*
X23487500Y-62162500D03*
D14*
X30387500Y-52602500D03*
D15*
X30387500Y-60222500D03*
D16*
X187575000Y-113562500D03*
D17*
X183175000Y-118262500D03*
X190175000Y-119312500D03*
D14*
X160281250Y-90702500D03*
D15*
X160281250Y-98322500D03*
D16*
X25650000Y-113562500D03*
D17*
X21250000Y-118262500D03*
X28250000Y-119312500D03*
D16*
X187575000Y-94512500D03*
D17*
X183175000Y-99212500D03*
X190175000Y-100262500D03*
D16*
X28031250Y-132612500D03*
D17*
X23631250Y-137312500D03*
X30631250Y-138362500D03*
D16*
X125662500Y-75462500D03*
D17*
X121262500Y-80162500D03*
X128262500Y-81212500D03*
D16*
X49462500Y-75462500D03*
D17*
X45062500Y-80162500D03*
X52062500Y-81212500D03*
D16*
X142331250Y-94512500D03*
D17*
X137931250Y-99212500D03*
X144931250Y-100262500D03*
D16*
X163762500Y-137375000D03*
D17*
X159362500Y-142075000D03*
X166362500Y-143125000D03*
D21*
X196000000Y-143000000D03*
D14*
X197075000Y-52602500D03*
D15*
X197075000Y-60222500D03*
D14*
X106587500Y-52602500D03*
D15*
X106587500Y-60222500D03*
D16*
X125662500Y-32600000D03*
D17*
X121262500Y-37300000D03*
X128262500Y-38350000D03*
D14*
X82775000Y-90702500D03*
D15*
X82775000Y-98322500D03*
D16*
X58987500Y-56412500D03*
D17*
X54587500Y-61112500D03*
X61587500Y-62162500D03*
D16*
X168525000Y-32600000D03*
D17*
X164125000Y-37300000D03*
X171125000Y-38350000D03*
D14*
X130400000Y-128802500D03*
D15*
X130400000Y-136422500D03*
D14*
X20862500Y-71652500D03*
D15*
X20862500Y-79272500D03*
D16*
X25650000Y-32600000D03*
D17*
X21250000Y-37300000D03*
X28250000Y-38350000D03*
D14*
X158975000Y-28790000D03*
D15*
X158975000Y-36410000D03*
D14*
X135162500Y-71652500D03*
D15*
X135162500Y-79272500D03*
D16*
X30412500Y-75462500D03*
D17*
X26012500Y-80162500D03*
X33012500Y-81212500D03*
D14*
X70868750Y-128802500D03*
D15*
X70868750Y-136422500D03*
D16*
X106612500Y-32600000D03*
D17*
X102212500Y-37300000D03*
X109212500Y-38350000D03*
D14*
X197075000Y-90702500D03*
D15*
X197075000Y-98322500D03*
D16*
X39937500Y-56412500D03*
D17*
X35537500Y-61112500D03*
X42537500Y-62162500D03*
D14*
X63725000Y-90702500D03*
D15*
X63725000Y-98322500D03*
D16*
X187575000Y-75462500D03*
D17*
X183175000Y-80162500D03*
X190175000Y-81212500D03*
D14*
X173262500Y-114515000D03*
D15*
X173262500Y-122135000D03*
D16*
X111375000Y-94512500D03*
D17*
X106975000Y-99212500D03*
X113975000Y-100262500D03*
D14*
X173262500Y-133565000D03*
D15*
X173262500Y-141185000D03*
D16*
X82800000Y-113562500D03*
D17*
X78400000Y-118262500D03*
X85400000Y-119312500D03*
D14*
X87537500Y-52602500D03*
D15*
X87537500Y-60222500D03*
D16*
X92325000Y-94512500D03*
D17*
X87925000Y-99212500D03*
X94925000Y-100262500D03*
D16*
X163762500Y-118325000D03*
D17*
X159362500Y-123025000D03*
X166362500Y-124075000D03*
D14*
X125637500Y-52602500D03*
D15*
X125637500Y-60222500D03*
D21*
X5000000Y-117000000D03*
D14*
X54200000Y-28790000D03*
D15*
X54200000Y-36410000D03*
D16*
X63750000Y-113562500D03*
D17*
X59350000Y-118262500D03*
X66350000Y-119312500D03*
D14*
X92300000Y-109752500D03*
D15*
X92300000Y-117372500D03*
D16*
X182812500Y-137375000D03*
D17*
X178412500Y-142075000D03*
X185412500Y-143125000D03*
D14*
X97062500Y-71652500D03*
D15*
X97062500Y-79272500D03*
D14*
X197075000Y-71652500D03*
D15*
X197075000Y-79272500D03*
D14*
X116112500Y-28790000D03*
D15*
X116112500Y-36410000D03*
D16*
X68512500Y-32600000D03*
D17*
X64112500Y-37300000D03*
X71112500Y-38350000D03*
D16*
X54225000Y-94512500D03*
D17*
X49825000Y-99212500D03*
X56825000Y-100262500D03*
D14*
X25625000Y-90702500D03*
D15*
X25625000Y-98322500D03*
%LPD*%
M02*
