0
SECTION
2
HEADER
9
$INSUNITS
70
4
9
$ACADVER
1
AC1014
9
$HANDSEED
5
FFFF
0
ENDSEC
0
SECTION
2
TABLES
0
TABLE
2
VPORT
5
8
100
AcDbSymbolTable
0
ENDTAB
0
TABLE
2
LTYPE
5
5
100
AcDbSymbolTable
0
LTYPE
5
14
100
AcDbSymbolTableRecord
100
AcDbLinetypeTableRecord
2
BYBLOCK
70
0
0
LTYPE
5
15
100
AcDbSymbolTableRecord
100
AcDbLinetypeTableRecord
2
BYLAYER
70
0
0
LTYPE
5
16
100
AcDbSymbolTableRecord
100
AcDbLinetypeTableRecord
2
DASHED
70
0
3
Dashed __ __ __ __ __ __ __ __ __ __ __ __ __ _
72
65
73
2
40
0.75
49
0.5
74
0
49
-0.25
74
0
0
ENDTAB
0
TABLE
2
LAYER
5
2
100
AcDbSymbolTable
70
3
0
LAYER
5
50
100
AcDbSymbolTableRecord
100
AcDbLayerTableRecord
2
1
70
0
62
7
6
DASHED
0
LAYER
5
51
100
AcDbSymbolTableRecord
100
AcDbLayerTableRecord
2
0
70
0
62
7
6
CONTINUOUS
0
ENDTAB
0
TABLE
2
STYLE
5
3
100
AcDbSymbolTable
70
1
0
STYLE
5
11
100
AcDbSymbolTableRecord
100
AcDbTextStyleTableRecord
2
STANDARD
70
0
0
ENDTAB
0
TABLE
2
VIEW
5
6
100
AcDbSymbolTable
70
0
0
ENDTAB
0
TABLE
2
UCS
5
7
100
AcDbSymbolTable
70
0
0
ENDTAB
0
TABLE
2
APPID
5
9
100
AcDbSymbolTable
70
2
0
APPID
5
12
100
AcDbSymbolTableRecord
100
AcDbRegAppTableRecord
2
ACAD
70
0
0
ENDTAB
0
TABLE
2
DIMSTYLE
5
A
100
AcDbSymbolTable
70
1
0
ENDTAB
0
TABLE
2
BLOCK_RECORD
5
1
100
AcDbSymbolTable
70
1
0
BLOCK_RECORD
5
1F
100
AcDbSymbolTableRecord
100
AcDbBlockTableRecord
2
*MODEL_SPACE
0
BLOCK_RECORD
5
1B
100
AcDbSymbolTableRecord
100
AcDbBlockTableRecord
2
*PAPER_SPACE
0
ENDTAB
0
ENDSEC
0
SECTION
2
BLOCKS
0
BLOCK
5
20
100
AcDbEntity
100
AcDbBlockBegin
2
*MODEL_SPACE
0
ENDBLK
5
21
100
AcDbEntity
100
AcDbBlockEnd
0
BLOCK
5
1C
100
AcDbEntity
100
AcDbBlockBegin
2
*PAPER_SPACE
0
ENDBLK
5
1D
100
AcDbEntity
100
AcDbBlockEnd
0
ENDSEC
0
SECTION
2
ENTITIES
0
CIRCLE
5
100
100
AcDbEntity
8
0
100
AcDbCircle
10
-4
20
138
30
0
40
1.0500000000000003
210
0
220
0
230
1
0
LWPOLYLINE
5
101
100
AcDbEntity
8
0
100
AcDbPolyline
90
12
70
1
43
0.0
10
-20.912500000000023
20
38.037500000000023
42
0.41421356237308971
10
-19.212500000000006
20
36.337500000000034
10
-6.5125000000000455
20
36.337500000000048
42
0.41421356237309276
10
-4.8125000000000382
20
38.037500000000037
10
-4.812500000000048
20
50.737500000000047
42
0.41421356237309465
10
-6.5125000000000455
20
52.43750000000005
10
-19.212500000000006
20
52.437500000000057
42
0.41421356237309503
10
-20.912500000000016
20
50.737500000000047
10
-20.912500000000016
20
49.887500000000003
10
-23.862500000000004
20
49.887500000000003
10
-23.862500000000004
20
38.887500000000017
10
-20.912500000000023
20
38.887500000000017
0
LWPOLYLINE
5
102
100
AcDbEntity
8
0
100
AcDbPolyline
90
60
70
1
43
0.0
10
-173.31249999999997
20
104.71250000000009
42
0.41421356237309503
10
-171.61250000000001
20
103.01250000000012
10
-158.91249999999999
20
103.0125000000001
42
0.41421356237309503
10
-157.21250000000001
20
104.71250000000009
10
-157.21250000000001
20
105.56250000000003
10
-154.26249999999999
20
105.56250000000003
10
-154.26249999999999
20
104.71250000000009
42
0.41421356237309503
10
-152.5625
20
103.01250000000012
10
-139.86250000000007
20
103.0125000000001
42
0.41421356237309503
10
-138.16250000000008
20
104.71250000000009
10
-138.16250000000008
20
105.56250000000003
10
-135.21250000000001
20
105.56250000000003
10
-135.21250000000001
20
104.71250000000009
42
0.41421356237309503
10
-133.51250000000005
20
103.01250000000012
10
-120.81250000000004
20
103.0125000000001
42
0.41421356237309503
10
-119.11250000000007
20
104.71250000000009
10
-119.11250000000007
20
105.56250000000003
10
-116.16250000000007
20
105.56250000000003
10
-116.16250000000007
20
104.71250000000009
42
0.41421356237309503
10
-114.46250000000003
20
103.01250000000005
10
-101.76250000000003
20
103.0125000000001
42
0.41421356237309503
10
-100.06250000000006
20
104.71250000000009
10
-100.06250000000006
20
105.56250000000003
10
-97.112500000000011
20
105.56250000000003
10
-97.112500000000011
20
104.71250000000009
42
0.41421356237309503
10
-95.412500000000051
20
103.01250000000012
10
-82.71250000000002
20
103.0125000000001
42
0.41421356237309503
10
-81.012500000000045
20
104.71250000000009
10
-81.012500000000017
20
117.41250000000011
42
0.41421356237309503
10
-82.71250000000002
20
119.11250000000011
10
-95.412500000000051
20
119.1125000000001
42
0.41421356237309503
10
-97.11250000000004
20
117.41250000000011
10
-97.11250000000004
20
116.5625
10
-100.06250000000003
20
116.5625
10
-100.06250000000003
20
117.41250000000011
42
0.41421356237309503
10
-101.76250000000003
20
119.11250000000011
10
-114.46250000000003
20
119.1125000000001
42
0.41421356237309503
10
-116.16250000000001
20
117.41250000000011
10
-116.16250000000001
20
116.5625
10
-119.11250000000004
20
116.5625
10
-119.11250000000004
20
117.41250000000011
42
0.41421356237309503
10
-120.81250000000004
20
119.11250000000011
10
-133.51250000000005
20
119.1125000000001
42
0.41421356237309503
10
-135.21250000000003
20
117.41250000000011
10
-135.21250000000003
20
116.5625
10
-138.16250000000005
20
116.5625
10
-138.16250000000005
20
117.41250000000011
42
0.41421356237309503
10
-139.86250000000007
20
119.11250000000011
10
-152.5625
20
119.1125000000001
42
0.41421356237309503
10
-154.26249999999999
20
117.41250000000011
10
-154.26249999999999
20
116.5625
10
-157.21250000000003
20
116.5625
10
-157.21250000000003
20
117.41250000000011
42
0.41421356237309503
10
-158.91249999999999
20
119.11250000000008
10
-171.61250000000001
20
119.1125000000001
42
0.41421356237309503
10
-173.3125
20
117.41250000000011
10
-173.3125
20
116.5625
10
-176.26250000000002
20
116.5625
10
-176.26250000000002
20
105.56250000000003
10
-173.3125
20
105.56250000000003
0
LWPOLYLINE
5
103
100
AcDbEntity
8
0
100
AcDbPolyline
90
48
70
1
43
0.0
10
-78.062500000000043
20
23.750000000000128
42
0.41421356237310042
10
-76.36250000000004
20
22.050000000000097
10
-63.662500000000044
20
22.050000000000036
42
0.41421356237309354
10
-61.962500000000034
20
23.750000000000036
10
-61.962500000000034
20
36.45000000000001
42
0.41421356237310192
10
-63.662500000000044
20
38.150000000000041
10
-76.362500000000097
20
38.150000000000084
42
0.41421356237308282
10
-78.062500000000028
20
36.450000000000102
10
-78.062500000000028
20
35.600000000000009
10
-81.012500000000017
20
35.600000000000009
10
-81.012500000000003
20
36.450000000000124
42
0.41421356237308971
10
-82.71250000000002
20
38.150000000000105
10
-95.412500000000051
20
38.150000000000055
42
0.41421356237309659
10
-97.11250000000004
20
36.450000000000067
10
-97.11250000000004
20
35.600000000000009
10
-100.06250000000003
20
35.600000000000009
10
-100.06250000000001
20
36.450000000000045
42
0.41421356237310042
10
-101.76250000000003
20
38.150000000000084
10
-114.46250000000006
20
38.150000000000055
42
0.41421356237309659
10
-116.16250000000005
20
36.450000000000067
10
-116.16250000000005
20
35.600000000000009
10
-119.11250000000004
20
35.600000000000009
10
-119.11250000000003
20
36.450000000000045
42
0.41421356237310042
10
-120.81250000000004
20
38.150000000000084
10
-133.51250000000007
20
38.150000000000055
42
0.41421356237309659
10
-135.21250000000006
20
36.450000000000067
10
-135.21250000000006
20
35.600000000000009
10
-138.16249999999999
20
35.600000000000009
10
-138.16249999999999
20
24.599999999999991
10
-135.21250000000009
20
24.599999999999991
10
-135.21250000000009
20
23.75000000000005
42
0.41421356237308971
10
-133.51250000000007
20
22.050000000000061
10
-120.81250000000004
20
22.050000000000082
42
0.41421356237309354
10
-119.11250000000004
20
23.750000000000071
10
-119.11250000000004
20
24.599999999999991
10
-116.16250000000008
20
24.599999999999991
10
-116.16250000000008
20
23.75000000000005
42
0.41421356237308971
10
-114.46250000000006
20
22.050000000000061
10
-101.76250000000003
20
22.050000000000082
42
0.41421356237309431
10
-100.06250000000003
20
23.750000000000075
10
-100.06250000000003
20
24.599999999999991
10
-97.11250000000004
20
24.599999999999991
10
-97.11250000000004
20
23.75000000000005
42
0.41421356237308971
10
-95.412500000000051
20
22.050000000000097
10
-82.71250000000002
20
22.050000000000097
42
0.41421356237309737
10
-81.012500000000017
20
23.75000000000011
10
-81.012500000000017
20
24.599999999999991
10
-78.062500000000043
20
24.599999999999991
0
LWPOLYLINE
5
104
100
AcDbEntity
8
0
100
AcDbPolyline
90
12
70
1
43
0.0
10
-59.012500000000003
20
66.612500000000054
42
0.41421356237309503
10
-57.312500000000028
20
64.91250000000008
10
-44.612500000000068
20
64.912500000000051
42
0.41421356237309503
10
-42.912500000000058
20
66.612500000000054
10
-42.912500000000058
20
79.312500000000085
42
0.41421356237309503
10
-44.612500000000068
20
81.012500000000088
10
-57.312500000000028
20
81.012500000000074
42
0.41421356237309503
10
-59.012500000000031
20
79.312500000000085
10
-59.012500000000031
20
78.462500000000006
10
-61.962500000000006
20
78.462500000000006
10
-61.962500000000006
20
67.462500000000006
10
-59.012500000000003
20
67.462500000000006
0
CIRCLE
5
105
100
AcDbEntity
8
0
100
AcDbCircle
10
-178
20
138
30
0
40
1.0500000000000014
210
0
220
0
230
1
0
LWPOLYLINE
5
106
100
AcDbEntity
8
0
100
AcDbPolyline
90
12
70
1
43
0.0
10
-20.912500000000041
20
114.2375000000001
42
0.41421356237309503
10
-19.212500000000006
20
112.53750000000005
10
-6.5125000000000455
20
112.53750000000011
42
0.41421356237309503
10
-4.812500000000056
20
114.2375000000001
10
-4.812500000000048
20
126.93750000000006
42
0.41421356237309392
10
-6.512500000000041
20
128.63750000000005
10
-19.212500000000006
20
128.63750000000007
42
0.41421356237309503
10
-20.912500000000016
20
126.93750000000006
10
-20.912500000000019
20
126.08750000000001
10
-23.862500000000004
20
126.08750000000001
10
-23.862500000000004
20
115.08750000000003
10
-20.912500000000044
20
115.08750000000003
0
LWPOLYLINE
5
107
100
AcDbEntity
8
0
100
AcDbPolyline
90
84
70
1
43
0.0
10
-54.250000000000036
20
47.562500000000057
42
0.41421356237309503
10
-52.550000000000026
20
45.862500000000054
10
-39.850000000000065
20
45.862500000000054
42
0.41421356237309503
10
-38.150000000000055
20
47.562500000000057
10
-38.150000000000055
20
60.262500000000053
42
0.41421356237309503
10
-39.850000000000065
20
61.962500000000063
10
-52.550000000000026
20
61.962500000000055
42
0.41421356237309503
10
-54.250000000000028
20
60.262500000000053
10
-54.250000000000028
20
59.412499999999994
10
-57.200000000000045
20
59.412499999999994
10
-57.200000000000045
20
60.262500000000053
42
0.41421356237309503
10
-58.900000000000041
20
61.962500000000055
10
-71.600000000000037
20
61.96250000000007
42
0.41421356237309503
10
-73.30000000000004
20
60.262500000000074
10
-73.30000000000004
20
59.412499999999994
10
-76.250000000000028
20
59.412499999999994
10
-76.250000000000028
20
60.262500000000074
42
0.41421356237309503
10
-77.950000000000031
20
61.962500000000077
10
-90.650000000000048
20
61.96250000000007
42
0.41421356237309503
10
-92.350000000000051
20
60.262500000000074
10
-92.350000000000051
20
59.412499999999994
10
-95.30000000000004
20
59.412499999999994
10
-95.30000000000004
20
60.262500000000074
42
0.41421356237309503
10
-97.000000000000028
20
61.962500000000063
10
-109.70000000000006
20
61.96250000000007
42
0.41421356237309503
10
-111.40000000000006
20
60.262500000000074
10
-111.40000000000006
20
59.412499999999994
10
-114.35000000000004
20
59.412499999999994
10
-114.35000000000002
20
60.262500000000074
42
0.41421356237309503
10
-116.05000000000004
20
61.962500000000077
10
-128.75000000000003
20
61.96250000000007
42
0.41421356237309503
10
-130.45000000000005
20
60.262500000000074
10
-130.45000000000005
20
59.412499999999994
10
-133.40000000000006
20
59.412499999999994
10
-133.40000000000003
20
60.262500000000074
42
0.41421356237309503
10
-135.10000000000005
20
61.962500000000077
10
-147.80000000000004
20
61.96250000000007
42
0.41421356237309503
10
-149.50000000000006
20
60.262500000000074
10
-149.50000000000006
20
59.412499999999994
10
-152.45000000000002
20
59.412499999999994
10
-152.45000000000002
20
60.262500000000074
42
0.41421356237309503
10
-154.15000000000003
20
61.962500000000077
10
-166.85000000000002
20
61.962500000000091
42
0.41421356237309503
10
-168.55000000000004
20
60.262500000000074
10
-168.55000000000004
20
59.412499999999994
10
-171.50000000000003
20
59.412499999999994
10
-171.50000000000003
20
48.412499999999994
10
-168.55000000000004
20
48.412499999999994
10
-168.55000000000004
20
47.562500000000078
42
0.41421356237309503
10
-166.85000000000002
20
45.862500000000068
10
-154.15000000000003
20
45.862500000000075
42
0.41421356237309503
10
-152.45000000000002
20
47.562500000000078
10
-152.45000000000002
20
48.412499999999994
10
-149.50000000000006
20
48.412499999999994
10
-149.50000000000006
20
47.562500000000078
42
0.41421356237309503
10
-147.80000000000004
20
45.862500000000068
10
-135.10000000000005
20
45.862500000000075
42
0.41421356237309503
10
-133.40000000000006
20
47.562500000000078
10
-133.40000000000006
20
48.412499999999994
10
-130.45000000000005
20
48.412499999999994
10
-130.45000000000005
20
47.562500000000078
42
0.41421356237309503
10
-128.75000000000003
20
45.862500000000068
10
-116.05000000000004
20
45.862500000000075
42
0.41421356237309503
10
-114.35000000000004
20
47.562500000000078
10
-114.35000000000004
20
48.412499999999994
10
-111.40000000000006
20
48.412499999999994
10
-111.40000000000008
20
47.562500000000078
42
0.41421356237309503
10
-109.70000000000006
20
45.862500000000068
10
-97.000000000000028
20
45.862500000000075
42
0.41421356237309503
10
-95.300000000000026
20
47.562500000000078
10
-95.300000000000026
20
48.412499999999994
10
-92.350000000000009
20
48.412499999999994
10
-92.350000000000023
20
47.562500000000078
42
0.41421356237309503
10
-90.650000000000048
20
45.862500000000104
10
-77.950000000000031
20
45.862500000000068
42
0.41421356237309503
10
-76.250000000000028
20
47.562500000000078
10
-76.250000000000028
20
48.412499999999994
10
-73.30000000000004
20
48.412499999999994
10
-73.30000000000004
20
47.562500000000078
42
0.41421356237309503
10
-71.600000000000037
20
45.862500000000068
10
-58.900000000000041
20
45.862500000000054
42
0.41421356237309503
10
-57.200000000000031
20
47.562500000000057
10
-57.200000000000031
20
48.412499999999994
10
-54.250000000000036
20
48.412499999999994
0
LWPOLYLINE
5
108
100
AcDbEntity
8
0
100
AcDbPolyline
90
24
70
1
43
0.0
10
-159.02500000000006
20
23.75000000000005
42
0.41421356237308971
10
-157.32500000000002
20
22.050000000000026
10
-144.62500000000006
20
22.050000000000082
42
0.41421356237309276
10
-142.92500000000007
20
23.750000000000068
10
-142.92500000000004
20
36.450000000000045
42
0.41421356237310042
10
-144.62500000000006
20
38.150000000000084
10
-157.32500000000002
20
38.150000000000055
42
0.41421356237309581
10
-159.02500000000001
20
36.450000000000074
10
-159.02500000000001
20
35.599999999999987
10
-161.97500000000002
20
35.599999999999987
10
-161.97500000000002
20
36.450000000000045
42
0.41421356237310042
10
-163.67500000000004
20
38.150000000000084
10
-176.37500000000003
20
38.150000000000055
42
0.41421356237309581
10
-178.07500000000002
20
36.450000000000074
10
-178.07500000000002
20
35.599999999999987
10
-181.02499999999998
20
35.599999999999987
10
-181.02499999999998
20
24.600000000000009
10
-178.07500000000005
20
24.600000000000009
10
-178.07500000000005
20
23.75000000000005
42
0.41421356237308971
10
-176.37500000000003
20
22.050000000000061
10
-163.67500000000004
20
22.050000000000061
42
0.41421356237309354
10
-161.97500000000002
20
23.750000000000071
10
-161.97500000000002
20
24.600000000000009
10
-159.02500000000006
20
24.600000000000009
0
LWPOLYLINE
5
109
100
AcDbEntity
8
0
100
AcDbPolyline
90
60
70
1
43
0.0
10
-139.97500000000002
20
66.612500000000054
42
0.41421356237309503
10
-138.27500000000003
20
64.91250000000008
10
-125.57500000000005
20
64.912500000000051
42
0.41421356237309503
10
-123.87500000000004
20
66.612500000000054
10
-123.87500000000004
20
67.462500000000006
10
-120.92500000000003
20
67.462500000000006
10
-120.92500000000004
20
66.612500000000054
42
0.41421356237309503
10
-119.22500000000007
20
64.91250000000008
10
-106.52500000000003
20
64.912500000000065
42
0.41421356237309503
10
-104.82500000000003
20
66.612500000000068
10
-104.82500000000003
20
67.462500000000006
10
-101.87500000000001
20
67.462500000000006
10
-101.87500000000003
20
66.612500000000054
42
0.41421356237309503
10
-100.17500000000005
20
64.91250000000008
10
-87.475000000000023
20
64.912500000000051
42
0.41421356237309503
10
-85.77500000000002
20
66.612500000000054
10
-85.77500000000002
20
67.462500000000006
10
-82.825000000000003
20
67.462500000000006
10
-82.825000000000017
20
66.612500000000054
42
0.41421356237309503
10
-81.125000000000043
20
64.91250000000008
10
-68.42500000000004
20
64.912500000000051
42
0.41421356237309503
10
-66.725000000000037
20
66.612500000000054
10
-66.725000000000051
20
79.312500000000085
42
0.41421356237309503
10
-68.42500000000004
20
81.012500000000074
10
-81.125
20
81.012500000000074
42
0.41421356237309503
10
-82.825000000000003
20
79.312500000000085
10
-82.825000000000003
20
78.462500000000006
10
-85.775000000000034
20
78.462500000000006
10
-85.775000000000034
20
79.312500000000085
42
0.41421356237309503
10
-87.475000000000023
20
81.012500000000074
10
-100.17500000000005
20
81.012500000000074
42
0.41421356237309503
10
-101.87500000000006
20
79.312500000000085
10
-101.87500000000006
20
78.462500000000006
10
-104.82500000000003
20
78.462500000000006
10
-104.82500000000003
20
79.312500000000085
42
0.41421356237309503
10
-106.52500000000003
20
81.012500000000088
10
-119.22500000000002
20
81.012500000000074
42
0.41421356237309503
10
-120.92500000000003
20
79.312500000000085
10
-120.92500000000003
20
78.462500000000006
10
-123.87500000000004
20
78.462500000000006
10
-123.87500000000003
20
79.312500000000085
42
0.41421356237309503
10
-125.57500000000005
20
81.012500000000088
10
-138.27500000000001
20
81.012500000000074
42
0.41421356237309503
10
-139.97499999999999
20
79.312500000000085
10
-139.97499999999999
20
78.462500000000006
10
-142.92500000000001
20
78.462500000000006
10
-142.92500000000001
20
79.312500000000085
42
0.41421356237309503
10
-144.62500000000003
20
81.012500000000088
10
-157.32500000000002
20
81.012500000000074
42
0.41421356237309503
10
-159.02500000000001
20
79.312500000000085
10
-159.02500000000001
20
78.462500000000006
10
-161.97500000000002
20
78.462500000000006
10
-161.97500000000002
20
67.462500000000006
10
-159.02500000000006
20
67.462500000000006
10
-159.02500000000006
20
66.612500000000054
42
0.41421356237309503
10
-157.32500000000002
20
64.912500000000009
10
-144.62500000000006
20
64.912500000000051
42
0.41421356237309503
10
-142.92500000000007
20
66.612500000000054
10
-142.92500000000007
20
67.462500000000006
10
-139.97499999999999
20
67.462500000000006
0
LWPOLYLINE
5
110
100
AcDbEntity
8
0
100
AcDbPolyline
90
12
70
1
43
0.0
10
-59.012500000000038
20
123.76250000000006
42
0.41421356237309659
10
-57.312500000000028
20
122.06250000000006
10
-44.612499999999997
20
122.06250000000004
42
0.41421356237309503
10
-42.912499999999987
20
123.76250000000006
10
-42.912499999999994
20
136.46250000000012
42
0.41421356237309503
10
-44.612499999999983
20
138.16250000000008
10
-57.312500000000028
20
138.16250000000011
42
0.41421356237309503
10
-59.012500000000038
20
136.46250000000009
10
-59.012500000000038
20
135.61250000000001
10
-61.962500000000006
20
135.61250000000001
10
-61.962500000000006
20
124.6125
10
-59.012500000000045
20
124.6125
0
LWPOLYLINE
5
111
100
AcDbEntity
8
0
100
AcDbPolyline
90
12
70
1
43
0.0
10
-54.250000000000028
20
23.750000000000092
42
0.41421356237310042
10
-52.550000000000026
20
22.050000000000061
10
-39.850000000000044
20
22.050000000000054
42
0.41421356237309048
10
-38.150000000000063
20
23.750000000000068
10
-38.150000000000055
20
36.450000000000088
42
0.41421356237309048
10
-39.850000000000072
20
38.150000000000063
10
-52.550000000000054
20
38.150000000000048
42
0.41421356237308665
10
-54.250000000000007
20
36.450000000000074
10
-54.250000000000007
20
35.599999999999987
10
-57.200000000000003
20
35.599999999999987
10
-57.200000000000003
20
24.600000000000009
10
-54.250000000000028
20
24.600000000000009
0
LWPOLYLINE
5
112
100
AcDbEntity
8
0
100
AcDbPolyline
90
12
70
1
43
0.0
10
-20.912500000000016
20
57.087500000000063
42
0.41421356237309503
10
-19.212500000000006
20
55.38750000000006
10
-6.5125000000000401
20
55.38750000000006
42
0.4142135623730937
10
-4.8125000000000409
20
57.087500000000063
10
-4.8125000000000462
20
69.78750000000008
42
0.41421356237309542
10
-6.5125000000000473
20
71.487500000000082
10
-19.212500000000006
20
71.487500000000082
42
0.41421356237309503
10
-20.912500000000005
20
69.78750000000008
10
-20.912500000000005
20
68.9375
10
-23.862500000000004
20
68.9375
10
-23.862500000000004
20
57.937500000000014
10
-20.912500000000016
20
57.937500000000014
0
LWPOLYLINE
5
113
100
AcDbEntity
8
0
100
AcDbPolyline
90
12
70
1
43
0.0
10
-61.393749999999997
20
85.66250000000008
42
0.41421356237309503
10
-59.69375000000003
20
83.962500000000105
10
-46.993750000000034
20
83.962500000000077
42
0.41421356237309503
10
-45.293750000000031
20
85.66250000000008
10
-45.293750000000031
20
98.362500000000097
42
0.41421356237309503
10
-46.993750000000034
20
100.0625000000001
10
-59.69375000000003
20
100.0625000000001
42
0.41421356237309503
10
-61.393750000000026
20
98.362500000000097
10
-61.393750000000026
20
97.512499999999989
10
-64.343750000000014
20
97.512499999999989
10
-64.343750000000014
20
86.512500000000017
10
-61.393750000000004
20
86.512500000000017
0
LWPOLYLINE
5
114
100
AcDbEntity
8
0
100
AcDbPolyline
90
60
70
1
43
0.0
10
-87.587500000000006
20
85.66250000000008
42
0.41421356237309503
10
-85.887500000000045
20
83.962500000000105
10
-73.187500000000014
20
83.962500000000077
42
0.41421356237309503
10
-71.487500000000011
20
85.66250000000008
10
-71.487500000000011
20
98.362500000000097
42
0.41421356237309503
10
-73.187500000000014
20
100.0625000000001
10
-85.887500000000045
20
100.0625000000001
42
0.41421356237309503
10
-87.587500000000048
20
98.362500000000097
10
-87.587500000000048
20
97.512499999999989
10
-90.537500000000051
20
97.512499999999989
10
-90.537500000000051
20
98.362500000000097
42
0.41421356237309503
10
-92.237500000000026
20
100.06250000000009
10
-104.93750000000003
20
100.0625000000001
42
0.41421356237309503
10
-106.63750000000002
20
98.362500000000097
10
-106.63750000000002
20
97.512499999999989
10
-109.58750000000003
20
97.512499999999989
10
-109.58750000000003
20
98.362500000000097
42
0.41421356237309503
10
-111.28750000000004
20
100.0625000000001
10
-123.98750000000004
20
100.0625000000001
42
0.41421356237309503
10
-125.68750000000003
20
98.362500000000097
10
-125.68750000000003
20
97.512499999999989
10
-128.63750000000005
20
97.512499999999989
10
-128.63750000000005
20
98.362500000000097
42
0.41421356237309503
10
-130.33750000000003
20
100.0625000000001
10
-143.03750000000002
20
100.0625000000001
42
0.41421356237309503
10
-144.73750000000001
20
98.362500000000097
10
-144.73750000000001
20
97.512499999999989
10
-147.68750000000006
20
97.512499999999989
10
-147.68750000000006
20
98.362500000000097
42
0.41421356237309503
10
-149.38750000000005
20
100.0625000000001
10
-162.08750000000003
20
100.06250000000011
42
0.41421356237309503
10
-163.78750000000002
20
98.362500000000097
10
-163.78750000000002
20
97.512499999999989
10
-166.73750000000001
20
97.512499999999989
10
-166.73750000000001
20
86.512500000000017
10
-163.78749999999999
20
86.512500000000017
10
-163.78749999999997
20
85.66250000000008
42
0.41421356237309503
10
-162.08750000000003
20
83.962500000000105
10
-149.38750000000005
20
83.962500000000077
42
0.41421356237309503
10
-147.68750000000006
20
85.66250000000008
10
-147.68750000000006
20
86.512500000000017
10
-144.73749999999998
20
86.512500000000017
10
-144.73749999999998
20
85.66250000000008
42
0.41421356237309503
10
-143.03750000000002
20
83.962500000000105
10
-130.33750000000003
20
83.962500000000077
42
0.41421356237309503
10
-128.63750000000005
20
85.66250000000008
10
-128.63750000000005
20
86.512500000000017
10
-125.6875
20
86.512500000000017
10
-125.6875
20
85.66250000000008
42
0.41421356237309503
10
-123.98750000000004
20
83.962500000000105
10
-111.28750000000004
20
83.962500000000077
42
0.41421356237309503
10
-109.58750000000003
20
85.66250000000008
10
-109.58750000000003
20
86.512500000000017
10
-106.63749999999999
20
86.512500000000017
10
-106.63749999999999
20
85.66250000000008
42
0.41421356237309503
10
-104.93750000000003
20
83.962500000000105
10
-92.237500000000026
20
83.962500000000077
42
0.41421356237309503
10
-90.537500000000023
20
85.66250000000008
10
-90.537500000000023
20
86.512500000000017
10
-87.587500000000006
20
86.512500000000017
0
LWPOLYLINE
5
115
100
AcDbEntity
8
0
100
AcDbPolyline
90
12
70
1
43
0.0
10
-20.91249999999998
20
76.13750000000006
42
0.41421356237309503
10
-19.212500000000006
20
74.437500000000085
10
-6.5125000000000455
20
74.437500000000057
42
0.41421356237309503
10
-4.8125000000000471
20
76.13750000000006
10
-4.812500000000048
20
88.837500000000091
42
0.41421356237309542
10
-6.5125000000000499
20
90.537500000000094
10
-19.212500000000006
20
90.537500000000094
42
0.41421356237309503
10
-20.912500000000005
20
88.837500000000091
10
-20.912500000000005
20
87.987500000000011
10
-23.862500000000004
20
87.987500000000011
10
-23.862500000000004
20
76.987500000000011
10
-20.91249999999998
20
76.987500000000011
0
LWPOLYLINE
5
116
100
AcDbEntity
8
0
100
AcDbPolyline
90
12
70
1
43
0.0
10
-85.206250000000011
20
123.76250000000005
42
0.41421356237309503
10
-83.506250000000023
20
122.06250000000006
10
-70.806250000000006
20
122.06250000000004
42
0.41421356237309503
10
-69.106250000000003
20
123.76250000000006
10
-69.106250000000003
20
136.46250000000009
42
0.41421356237309503
10
-70.806250000000006
20
138.16250000000008
10
-83.506250000000009
20
138.16250000000008
42
0.41421356237309503
10
-85.206250000000011
20
136.46250000000009
10
-85.206250000000011
20
135.61250000000001
10
-88.15625
20
135.61250000000001
10
-88.15625
20
124.6125
10
-85.206250000000011
20
124.6125
0
CIRCLE
5
117
100
AcDbEntity
8
0
100
AcDbCircle
10
-178
20
4
30
0
40
1.0500000000000014
210
0
220
0
230
1
0
CIRCLE
5
118
100
AcDbEntity
8
0
100
AcDbCircle
10
-4
20
4
30
0
40
1.0500000000000003
210
0
220
0
230
1
0
LWPOLYLINE
5
119
100
AcDbEntity
8
0
100
AcDbPolyline
90
12
70
1
43
0.0
10
-20.912500000000041
20
95.187500000000085
42
0.41421356237309503
10
-19.212500000000006
20
93.48750000000004
10
-6.5125000000000401
20
93.487500000000082
42
0.4142135623730937
10
-4.8125000000000497
20
95.187500000000085
10
-4.8125000000000462
20
107.8875000000001
42
0.41421356237309581
10
-6.5125000000000499
20
109.58750000000011
10
-19.212500000000006
20
109.58750000000009
42
0.41421356237309503
10
-20.912499999999994
20
107.8875000000001
10
-20.912500000000001
20
107.03750000000001
10
-23.862500000000004
20
107.03750000000001
10
-23.862500000000004
20
96.037500000000023
10
-20.912500000000044
20
96.037500000000023
0
LWPOLYLINE
5
120
100
AcDbEntity
8
0
100
AcDbPolyline
90
12
70
1
43
0.0
10
-109.01875000000003
20
123.76250000000006
42
0.41421356237309503
10
-107.31875000000002
20
122.06250000000006
10
-94.618750000000034
20
122.06250000000006
42
0.41421356237309503
10
-92.918750000000031
20
123.76250000000006
10
-92.918750000000031
20
136.46250000000009
42
0.41421356237309503
10
-94.618750000000034
20
138.16250000000008
10
-107.31875000000002
20
138.16250000000008
42
0.41421356237309503
10
-109.01875000000003
20
136.46250000000009
10
-109.01875000000003
20
135.61250000000001
10
-111.96875
20
135.61250000000001
10
-111.96875
20
124.6125
10
-109.01875000000003
20
124.6125
0
LWPOLYLINE
5
121
100
AcDbEntity
8
0
100
AcDbPolyline
90
16
70
1
43
0.0
10
1.0004999999999771
20
141.00050000000007
42
0.41421356237309725
10
-0.99949999999999806
20
143.00050000000007
10
-181.00000000000006
20
143.0005000000001
42
0.41421356237309503
10
-183.00000000000006
20
141.00050000000013
10
-183.00000000000006
20
1.0000000000000675
42
0.41421356237309531
10
-181.00000000000006
20
-0.99999999999992695
10
-174.56455419148173
20
-0.99999999999992151
10
-174.56455419148173
20
13.093379241090659
10
-154.56455419148173
20
13.093379241090659
10
-154.56455419148173
20
-0.99999999999992095
10
-0.99950000000001538
20
-0.99999999999994693
42
0.41421356237309437
10
1.0004999999999735
20
1.0000000000000502
10
1.0004999999999742
20
6.8999999999999346
10
-34.209999999999994
20
6.8999999999999346
10
-34.209999999999994
20
27.899999999999928
10
1.0004999999999731
20
27.899999999999928
0
CIRCLE
5
122
100
AcDbEntity
8
0
100
AcDbCircle
10
-151
20
9
30
0
40
1.0500000000000043
210
0
220
0
230
1
0
CIRCLE
5
123
100
AcDbEntity
8
0
100
AcDbCircle
10
-41.000000000000007
20
15.5
30
0
40
1.05
210
0
220
0
230
1
0
LWPOLYLINE
5
124
100
AcDbEntity
8
0
100
AcDbPolyline
90
12
70
1
43
0.0
10
-154.01875000000001
20
121.6125000000001
10
-154.01875000000001
20
139.61250000000013
10
-124.11875000000002
20
139.61250000000013
10
-124.11875000000002
20
121.6125000000001
10
-130.11875000000001
20
121.6125000000001
10
-130.11875000000001
20
123.61250000000013
10
-131.0253805778124
20
123.61250000000013
42
-0.38856686094334703
10
-132.71875
20
122.06250000000013
10
-145.41875000000002
20
122.06250000000013
42
-0.38856686094334703
10
-147.11211942218762
20
123.61250000000013
10
-148.01875000000001
20
123.61250000000013
10
-148.01875000000001
20
121.6125000000001
0
LWPOLYLINE
5
125
100
AcDbEntity
8
0
100
AcDbPolyline
90
4
70
1
43
0.0
10
-157
20
124.6125
10
-160
20
124.6125
10
-160
20
135.61250000000001
10
-157
20
135.61250000000001
0
LWPOLYLINE
5
126
100
AcDbEntity
8
0
100
AcDbPolyline
90
4
70
1
43
0.0
10
-75.499750000000006
20
116.5625
10
-75.499750000000006
20
105.56250000000003
10
-78.49975000000002
20
105.56250000000003
10
-78.49975000000002
20
116.56250000000011
0
LWPOLYLINE
5
127
100
AcDbEntity
8
0
100
AcDbPolyline
90
12
70
1
43
0.0
10
-73.056250000000048
20
102.56250000000009
10
-73.056250000000048
20
120.56250000000011
10
-43.156250000000036
20
120.56250000000011
10
-43.156250000000036
20
102.56250000000009
10
-49.156250000000028
20
102.56250000000009
10
-49.156250000000043
20
104.56250000000011
10
-50.062880577812436
20
104.56250000000013
42
-0.38856686094335735
10
-51.756250000000051
20
103.0125000000001
10
-64.45625000000004
20
103.01250000000012
42
-0.38856686094335097
10
-66.149619422187598
20
104.56250000000011
10
-67.056250000000034
20
104.56250000000011
10
-67.056250000000034
20
102.56250000000009
0
ENDSEC
0
SECTION
2
OBJECTS
0
DICTIONARY
5
C
100
AcDbDictionary
3
ACAD_GROUP
350
D
3
ACAD_MLINESTYLE
350
17
0
DICTIONARY
5
D
100
AcDbDictionary
0
DICTIONARY
5
1A
330
C
100
AcDbDictionary
0
DICTIONARY
5
17
100
AcDbDictionary
0
ENDSEC
0
EOF
