0
SECTION
2
HEADER
9
$INSUNITS
70
4
9
$ACADVER
1
AC1014
9
$HANDSEED
5
FFFF
0
ENDSEC
0
SECTION
2
TABLES
0
TABLE
2
VPORT
5
8
100
AcDbSymbolTable
0
ENDTAB
0
TABLE
2
LTYPE
5
5
100
AcDbSymbolTable
0
LTYPE
5
14
100
AcDbSymbolTableRecord
100
AcDbLinetypeTableRecord
2
BYBLOCK
70
0
0
LTYPE
5
15
100
AcDbSymbolTableRecord
100
AcDbLinetypeTableRecord
2
BYLAYER
70
0
0
LTYPE
5
16
100
AcDbSymbolTableRecord
100
AcDbLinetypeTableRecord
2
DASHED
70
0
3
Dashed __ __ __ __ __ __ __ __ __ __ __ __ __ _
72
65
73
2
40
0.75
49
0.5
74
0
49
-0.25
74
0
0
ENDTAB
0
TABLE
2
LAYER
5
2
100
AcDbSymbolTable
70
3
0
LAYER
5
50
100
AcDbSymbolTableRecord
100
AcDbLayerTableRecord
2
1
70
0
62
7
6
DASHED
0
LAYER
5
51
100
AcDbSymbolTableRecord
100
AcDbLayerTableRecord
2
0
70
0
62
7
6
CONTINUOUS
0
ENDTAB
0
TABLE
2
STYLE
5
3
100
AcDbSymbolTable
70
1
0
STYLE
5
11
100
AcDbSymbolTableRecord
100
AcDbTextStyleTableRecord
2
STANDARD
70
0
0
ENDTAB
0
TABLE
2
VIEW
5
6
100
AcDbSymbolTable
70
0
0
ENDTAB
0
TABLE
2
UCS
5
7
100
AcDbSymbolTable
70
0
0
ENDTAB
0
TABLE
2
APPID
5
9
100
AcDbSymbolTable
70
2
0
APPID
5
12
100
AcDbSymbolTableRecord
100
AcDbRegAppTableRecord
2
ACAD
70
0
0
ENDTAB
0
TABLE
2
DIMSTYLE
5
A
100
AcDbSymbolTable
70
1
0
ENDTAB
0
TABLE
2
BLOCK_RECORD
5
1
100
AcDbSymbolTable
70
1
0
BLOCK_RECORD
5
1F
100
AcDbSymbolTableRecord
100
AcDbBlockTableRecord
2
*MODEL_SPACE
0
BLOCK_RECORD
5
1B
100
AcDbSymbolTableRecord
100
AcDbBlockTableRecord
2
*PAPER_SPACE
0
ENDTAB
0
ENDSEC
0
SECTION
2
BLOCKS
0
BLOCK
5
20
100
AcDbEntity
100
AcDbBlockBegin
2
*MODEL_SPACE
0
ENDBLK
5
21
100
AcDbEntity
100
AcDbBlockEnd
0
BLOCK
5
1C
100
AcDbEntity
100
AcDbBlockBegin
2
*PAPER_SPACE
0
ENDBLK
5
1D
100
AcDbEntity
100
AcDbBlockEnd
0
ENDSEC
0
SECTION
2
ENTITIES
0
CIRCLE
5
100
100
AcDbEntity
8
0
100
AcDbCircle
10
-41.000000000000007
20
15.5
30
0
40
1.05
210
0
220
0
230
1
0
CIRCLE
5
101
100
AcDbEntity
8
0
100
AcDbCircle
10
-151
20
9
30
0
40
1.0500000000000043
210
0
220
0
230
1
0
LWPOLYLINE
5
102
100
AcDbEntity
8
0
100
AcDbPolyline
90
16
70
1
43
0.0
10
1.0004999999996385
20
141.00050000000007
42
0.41421356237309553
10
-0.99950000000035899
20
143.00050000000007
10
-181.00000000000009
20
143.00050000000007
42
0.41421356237309503
10
-183
20
141.00050000000013
10
-183.00000000000006
20
1.0000000000000497
42
0.4142135623730942
10
-181.00000000000006
20
-0.99999999999993705
10
-174.56455419148173
20
-0.99999999999992817
10
-174.56455419148173
20
13.09337924109065
10
-154.56455419148173
20
13.09337924109065
10
-154.56455419148173
20
-0.99999999999993427
10
-0.99950000000001538
20
-0.99999999999994937
42
0.41421356237309548
10
1.0004999999999862
20
1.0000000000000584
10
1.0004999999999742
20
6.9000001430510132
10
-34.210000000000008
20
6.9000001430510149
10
-34.210000000000008
20
27.899998474120959
10
1.0004999999999731
20
27.899998474120956
0
CIRCLE
5
103
100
AcDbEntity
8
0
100
AcDbCircle
10
-4
20
4
30
0
40
1.0500000000000003
210
0
220
0
230
1
0
CIRCLE
5
104
100
AcDbEntity
8
0
100
AcDbCircle
10
-178
20
4
30
0
40
1.0500000000000014
210
0
220
0
230
1
0
CIRCLE
5
105
100
AcDbEntity
8
0
100
AcDbCircle
10
-4
20
138
30
0
40
1.0500000000000003
210
0
220
0
230
1
0
CIRCLE
5
106
100
AcDbEntity
8
0
100
AcDbCircle
10
-178
20
138
30
0
40
1.0500000000000014
210
0
220
0
230
1
0
LWPOLYLINE
5
107
100
AcDbEntity
8
0
100
AcDbPolyline
90
4
70
1
43
0.0
10
-2.8625000000000034
20
34.387500000000003
10
-22.862499999999997
20
34.387500000000003
10
-22.862499999999997
20
130.58750000000001
10
-2.8625000000000012
20
130.58750000000001
0
LWPOLYLINE
5
108
100
AcDbEntity
8
0
100
AcDbPolyline
90
12
70
1
43
0.0
10
-36.199999439239505
20
140
10
-36.200000000000003
20
43.912499999999994
10
-170.5
20
43.912500000000001
10
-170.5
20
63.912500000000001
10
-160.97499999999999
20
63.912500000000001
10
-160.97499999999999
20
82.012500000000003
10
-165.73750000000004
20
82.012500000000003
10
-165.73750000000004
20
101.06250000000001
10
-175.26250000000002
20
101.06250000000001
10
-175.26250000000002
20
121.06250000000001
10
-165.73750000000001
20
121.06250000000001
10
-165.73750000000001
20
140
0
LWPOLYLINE
5
109
100
AcDbEntity
8
0
100
AcDbPolyline
90
4
70
1
43
0.0
10
-36.200000000000003
20
40.099999999999994
10
-36.200000000000003
20
20.100000000000009
10
-180.02500000000001
20
20.100000000000009
10
-180.02500000000001
20
40.099999999999994
0
ENDSEC
0
SECTION
2
OBJECTS
0
DICTIONARY
5
C
100
AcDbDictionary
3
ACAD_GROUP
350
D
3
ACAD_MLINESTYLE
350
17
0
DICTIONARY
5
D
100
AcDbDictionary
0
DICTIONARY
5
1A
330
C
100
AcDbDictionary
0
DICTIONARY
5
17
100
AcDbDictionary
0
ENDSEC
0
EOF
