0
SECTION
2
HEADER
9
$INSUNITS
70
4
9
$ACADVER
1
AC1014
9
$HANDSEED
5
FFFF
0
ENDSEC
0
SECTION
2
TABLES
0
TABLE
2
VPORT
5
8
100
AcDbSymbolTable
0
ENDTAB
0
TABLE
2
LTYPE
5
5
100
AcDbSymbolTable
0
LTYPE
5
14
100
AcDbSymbolTableRecord
100
AcDbLinetypeTableRecord
2
BYBLOCK
70
0
0
LTYPE
5
15
100
AcDbSymbolTableRecord
100
AcDbLinetypeTableRecord
2
BYLAYER
70
0
0
LTYPE
5
16
100
AcDbSymbolTableRecord
100
AcDbLinetypeTableRecord
2
DASHED
70
0
3
Dashed __ __ __ __ __ __ __ __ __ __ __ __ __ _
72
65
73
2
40
0.75
49
0.5
74
0
49
-0.25
74
0
0
ENDTAB
0
TABLE
2
LAYER
5
2
100
AcDbSymbolTable
70
3
0
LAYER
5
50
100
AcDbSymbolTableRecord
100
AcDbLayerTableRecord
2
1
70
0
62
7
6
DASHED
0
LAYER
5
51
100
AcDbSymbolTableRecord
100
AcDbLayerTableRecord
2
0
70
0
62
7
6
CONTINUOUS
0
ENDTAB
0
TABLE
2
STYLE
5
3
100
AcDbSymbolTable
70
1
0
STYLE
5
11
100
AcDbSymbolTableRecord
100
AcDbTextStyleTableRecord
2
STANDARD
70
0
0
ENDTAB
0
TABLE
2
VIEW
5
6
100
AcDbSymbolTable
70
0
0
ENDTAB
0
TABLE
2
UCS
5
7
100
AcDbSymbolTable
70
0
0
ENDTAB
0
TABLE
2
APPID
5
9
100
AcDbSymbolTable
70
2
0
APPID
5
12
100
AcDbSymbolTableRecord
100
AcDbRegAppTableRecord
2
ACAD
70
0
0
ENDTAB
0
TABLE
2
DIMSTYLE
5
A
100
AcDbSymbolTable
70
1
0
ENDTAB
0
TABLE
2
BLOCK_RECORD
5
1
100
AcDbSymbolTable
70
1
0
BLOCK_RECORD
5
1F
100
AcDbSymbolTableRecord
100
AcDbBlockTableRecord
2
*MODEL_SPACE
0
BLOCK_RECORD
5
1B
100
AcDbSymbolTableRecord
100
AcDbBlockTableRecord
2
*PAPER_SPACE
0
ENDTAB
0
ENDSEC
0
SECTION
2
BLOCKS
0
BLOCK
5
20
100
AcDbEntity
100
AcDbBlockBegin
2
*MODEL_SPACE
0
ENDBLK
5
21
100
AcDbEntity
100
AcDbBlockEnd
0
BLOCK
5
1C
100
AcDbEntity
100
AcDbBlockBegin
2
*PAPER_SPACE
0
ENDBLK
5
1D
100
AcDbEntity
100
AcDbBlockEnd
0
ENDSEC
0
SECTION
2
ENTITIES
0
LWPOLYLINE
5
100
100
AcDbEntity
8
0
100
AcDbPolyline
90
24
70
1
43
0.0
10
-64.956250000000011
20
111.1125000000001
10
-67.056250000000034
20
111.1125000000001
10
-67.056250000000034
20
105.1125000000001
10
-73.056250000000048
20
105.1125000000001
10
-73.056250000000048
20
117.61250000000011
10
-67.056250000000034
20
117.61250000000011
10
-67.056250000000034
20
113.6125000000001
10
-64.956250000000011
20
113.6125000000001
10
-64.956250000000026
20
117.41250000000011
42
-0.41421356237309503
10
-64.45625000000004
20
117.91250000000011
10
-51.756250000000037
20
117.91250000000012
42
-0.41421356237309503
10
-51.25625000000003
20
117.41250000000011
10
-51.25625000000003
20
113.6125000000001
10
-49.156250000000028
20
113.6125000000001
10
-49.156250000000028
20
117.61250000000011
10
-43.156250000000036
20
117.61250000000011
10
-43.156250000000036
20
105.1125000000001
10
-49.156250000000028
20
105.1125000000001
10
-49.156250000000028
20
111.1125000000001
10
-51.25625000000003
20
111.1125000000001
10
-51.256250000000037
20
104.71250000000009
42
-0.41421356237310025
10
-51.756250000000037
20
104.21250000000009
10
-64.45625000000004
20
104.21250000000008
42
-0.41421356237308982
10
-64.956250000000026
20
104.71250000000009
0
LWPOLYLINE
5
101
100
AcDbEntity
8
0
100
AcDbPolyline
90
24
70
1
43
0.0
10
-132.21875
20
132.66250000000011
10
-130.11875000000001
20
132.66250000000011
10
-130.11875000000001
20
136.66250000000014
10
-124.11875000000002
20
136.66250000000014
10
-124.11875000000002
20
124.16250000000011
10
-130.11875000000001
20
124.16250000000011
10
-130.11875000000001
20
130.16250000000011
10
-132.21875
20
130.16250000000011
10
-132.21875
20
123.76250000000013
42
-0.41421356237309503
10
-132.71875
20
123.26250000000013
10
-145.41875000000002
20
123.26250000000013
42
-0.41421356237309503
10
-145.91875000000002
20
123.76250000000013
10
-145.91875000000002
20
130.16250000000011
10
-148.01875000000001
20
130.16250000000011
10
-148.01875000000001
20
124.16250000000011
10
-154.01875000000001
20
124.16250000000011
10
-154.01875000000001
20
136.66250000000014
10
-148.01875000000001
20
136.66250000000014
10
-148.01875000000001
20
132.66250000000011
10
-145.91875000000002
20
132.66250000000011
10
-145.91875000000002
20
136.46250000000009
42
-0.41421356237309503
10
-145.41875000000002
20
136.96250000000009
10
-132.71875
20
136.96250000000009
42
-0.41421356237309503
10
-132.21875
20
136.46250000000009
0
LWPOLYLINE
5
102
100
AcDbEntity
8
0
100
AcDbPolyline
90
8
70
1
43
0.0
10
-95.412500000000051
20
117.91250000000008
10
-82.71250000000002
20
117.91250000000012
42
-0.41421356237309503
10
-82.212500000000006
20
117.41250000000011
10
-82.212500000000034
20
104.71250000000009
42
-0.41421356237309503
10
-82.71250000000002
20
104.21250000000009
10
-95.412500000000051
20
104.21250000000009
42
-0.41421356237309503
10
-95.912500000000037
20
104.71250000000009
10
-95.912500000000023
20
117.41250000000011
42
-0.41421356237309503
0
LWPOLYLINE
5
103
100
AcDbEntity
8
0
100
AcDbPolyline
90
8
70
1
43
0.0
10
-100.17500000000005
20
79.812500000000057
10
-87.475000000000023
20
79.812500000000071
42
-0.41421356237309503
10
-86.975000000000037
20
79.312500000000085
10
-86.975000000000023
20
66.612500000000054
42
-0.41421356237309503
10
-87.475000000000023
20
66.11250000000004
10
-100.17500000000005
20
66.112500000000068
42
-0.41421356237309503
10
-100.67500000000004
20
66.612500000000054
10
-100.67500000000003
20
79.312500000000085
42
-0.41421356237309503
0
LWPOLYLINE
5
104
100
AcDbEntity
8
0
100
AcDbPolyline
90
8
70
1
43
0.0
10
-90.650000000000048
20
60.762500000000045
10
-77.950000000000031
20
60.762500000000081
42
-0.41421356237309503
10
-77.450000000000031
20
60.262500000000074
10
-77.450000000000031
20
47.562500000000078
42
-0.41421356237309503
10
-77.950000000000031
20
47.062500000000071
10
-90.650000000000048
20
47.062500000000085
42
-0.41421356237309503
10
-91.150000000000034
20
47.562500000000078
10
-91.15000000000002
20
60.262500000000074
42
-0.41421356237309503
0
LWPOLYLINE
5
105
100
AcDbEntity
8
0
100
AcDbPolyline
90
8
70
1
43
0.0
10
-95.412500000000051
20
36.950000000000067
10
-82.71250000000002
20
36.950000000000102
42
-0.41421356237309503
10
-82.212500000000006
20
36.450000000000095
10
-82.212500000000006
20
23.750000000000099
42
-0.41421356237309503
10
-82.71250000000002
20
23.250000000000092
10
-95.412500000000051
20
23.250000000000092
42
-0.41421356237309503
10
-95.912500000000037
20
23.750000000000078
10
-95.912500000000037
20
36.450000000000074
42
-0.41421356237309503
0
LWPOLYLINE
5
106
100
AcDbEntity
8
0
100
AcDbPolyline
90
16
70
1
43
0.0
10
-154.56455419148173
20
-0.99999999999993372
10
-0.99950000000001538
20
-0.99999999999994937
42
0.41421356237309453
10
1.0004999999999806
20
1.00000000000005
10
1.0004999999999653
20
6.9000001430510167
10
-34.210000000000001
20
6.9000001430510149
10
-34.210000000000001
20
27.899998474120956
10
1.000499999999982
20
27.899998474120959
10
1.0004999999999802
20
141.00050000000007
42
0.41421356237309453
10
-0.9994999999999985
20
143.00050000000005
10
-181.00000000000006
20
143.00050000000007
42
0.41421356237309503
10
-183.00000000000006
20
141.0005000000001
10
-183.00000000000006
20
1.0000000000000675
42
0.4142135623730942
10
-181.00000000000006
20
-0.9999999999999194
10
-174.56455419148173
20
-0.99999999999992817
10
-174.56455419148173
20
13.09337924109065
10
-154.56455419148173
20
13.09337924109065
0
LWPOLYLINE
5
107
100
AcDbEntity
8
0
100
AcDbPolyline
90
8
70
1
43
0.0
10
-73.187500000000014
20
85.162500000000108
10
-85.887500000000045
20
85.16250000000008
42
-0.41421356237309503
10
-86.387500000000031
20
85.66250000000008
10
-86.387500000000045
20
98.362500000000097
42
-0.41421356237309503
10
-85.887500000000045
20
98.862500000000111
10
-73.187500000000014
20
98.862500000000111
42
-0.41421356237309503
10
-72.687500000000014
20
98.362500000000097
10
-72.687500000000043
20
85.66250000000008
42
-0.41421356237309503
0
LWPOLYLINE
5
108
100
AcDbEntity
8
0
100
AcDbPolyline
90
8
70
1
43
0.0
10
-123.98750000000004
20
98.862500000000068
10
-111.28750000000004
20
98.862500000000111
42
-0.41421356237309503
10
-110.78750000000002
20
98.362500000000097
10
-110.78750000000002
20
85.66250000000008
42
-0.41421356237309503
10
-111.28750000000004
20
85.162500000000065
10
-123.98750000000004
20
85.162500000000065
42
-0.41421356237309503
10
-124.48750000000004
20
85.66250000000008
10
-124.48750000000001
20
98.362500000000097
42
-0.41421356237309503
0
LWPOLYLINE
5
109
100
AcDbEntity
8
0
100
AcDbPolyline
90
8
70
1
43
0.0
10
-114.46250000000003
20
117.91250000000008
10
-101.76250000000003
20
117.91250000000012
42
-0.41421356237309503
10
-101.26250000000002
20
117.41250000000011
10
-101.26250000000005
20
104.71250000000009
42
-0.41421356237309503
10
-101.76250000000003
20
104.21250000000009
10
-114.46250000000003
20
104.21250000000008
42
-0.41421356237309503
10
-114.96250000000003
20
104.71250000000009
10
-114.96250000000001
20
117.41250000000011
42
-0.41421356237309503
0
LWPOLYLINE
5
110
100
AcDbEntity
8
0
100
AcDbPolyline
90
8
70
1
43
0.0
10
-162.08750000000003
20
98.862500000000068
10
-149.38750000000005
20
98.862500000000111
42
-0.41421356237309503
10
-148.88750000000005
20
98.362500000000097
10
-148.88750000000005
20
85.66250000000008
42
-0.41421356237309503
10
-149.38750000000005
20
85.162500000000065
10
-162.08750000000003
20
85.162500000000065
42
-0.41421356237309503
10
-162.58750000000003
20
85.66250000000008
10
-162.58749999999998
20
98.362500000000097
42
-0.41421356237309503
0
LWPOLYLINE
5
111
100
AcDbEntity
8
0
100
AcDbPolyline
90
8
70
1
43
0.0
10
-143.03750000000002
20
98.862500000000068
10
-130.33750000000003
20
98.862500000000111
42
-0.41421356237309503
10
-129.83750000000003
20
98.362500000000097
10
-129.83750000000003
20
85.66250000000008
42
-0.41421356237309503
10
-130.33750000000003
20
85.162500000000065
10
-143.03750000000002
20
85.162500000000065
42
-0.41421356237309503
10
-143.53750000000002
20
85.66250000000008
10
-143.53749999999997
20
98.362500000000097
42
-0.41421356237309503
0
LWPOLYLINE
5
112
100
AcDbEntity
8
0
100
AcDbPolyline
90
8
70
1
43
0.0
10
-171.61250000000001
20
117.91250000000008
10
-158.91249999999999
20
117.91250000000008
42
-0.41421356237309503
10
-158.41250000000002
20
117.41250000000011
10
-158.41249999999999
20
104.71250000000009
42
-0.41421356237309503
10
-158.91249999999999
20
104.21250000000009
10
-171.61250000000001
20
104.21250000000008
42
-0.41421356237309503
10
-172.11250000000004
20
104.71250000000009
10
-172.11250000000001
20
117.41250000000011
42
-0.41421356237309503
0
LWPOLYLINE
5
113
100
AcDbEntity
8
0
100
AcDbPolyline
90
8
70
1
43
0.0
10
-157.32500000000002
20
36.950000000000067
10
-144.62500000000006
20
36.950000000000081
42
-0.41421356237309503
10
-144.12500000000006
20
36.450000000000074
10
-144.12500000000006
20
23.750000000000078
42
-0.41421356237309503
10
-144.62500000000006
20
23.250000000000071
10
-157.32500000000002
20
23.250000000000036
42
-0.41421356237309503
10
-157.82500000000005
20
23.750000000000078
10
-157.82500000000002
20
36.450000000000074
42
-0.41421356237309503
0
LWPOLYLINE
5
114
100
AcDbEntity
8
0
100
AcDbPolyline
90
8
70
1
43
0.0
10
-128.75000000000003
20
60.762500000000045
10
-116.05000000000004
20
60.762500000000081
42
-0.41421356237309503
10
-115.55000000000004
20
60.262500000000074
10
-115.55000000000004
20
47.562500000000078
42
-0.41421356237309503
10
-116.05000000000004
20
47.062500000000071
10
-128.75000000000003
20
47.062500000000071
42
-0.41421356237309503
10
-129.25000000000006
20
47.562500000000078
10
-129.25
20
60.262500000000074
42
-0.41421356237309503
0
LWPOLYLINE
5
115
100
AcDbEntity
8
0
100
AcDbPolyline
90
8
70
1
43
0.0
10
-109.70000000000006
20
60.762500000000045
10
-97.000000000000028
20
60.76250000000006
42
-0.41421356237309503
10
-96.500000000000043
20
60.262500000000074
10
-96.500000000000028
20
47.562500000000078
42
-0.41421356237309503
10
-97.000000000000028
20
47.062500000000071
10
-109.70000000000006
20
47.062500000000071
42
-0.41421356237309503
10
-110.20000000000007
20
47.562500000000078
10
-110.20000000000003
20
60.262500000000074
42
-0.41421356237309503
0
LWPOLYLINE
5
116
100
AcDbEntity
8
0
100
AcDbPolyline
90
8
70
1
43
0.0
10
-114.46250000000006
20
36.950000000000067
10
-101.76250000000003
20
36.950000000000081
42
-0.41421356237309503
10
-101.26250000000002
20
36.450000000000074
10
-101.26250000000002
20
23.750000000000078
42
-0.41421356237309503
10
-101.76250000000003
20
23.250000000000071
10
-114.46250000000006
20
23.250000000000071
42
-0.41421356237309503
10
-114.96250000000006
20
23.750000000000078
10
-114.96250000000005
20
36.450000000000074
42
-0.41421356237309503
0
LWPOLYLINE
5
117
100
AcDbEntity
8
0
100
AcDbPolyline
90
8
70
1
43
0.0
10
-76.362500000000054
20
36.950000000000067
10
-63.662500000000044
20
36.950000000000038
42
-0.41421356237310025
10
-63.162500000000037
20
36.450000000000038
10
-63.162500000000037
20
23.750000000000043
42
-0.41421356237309503
10
-63.662500000000044
20
23.250000000000036
10
-76.36250000000004
20
23.250000000000107
42
-0.41421356237309503
10
-76.862500000000026
20
23.750000000000099
10
-76.862500000000011
20
36.450000000000095
42
-0.4142135623730846
0
CIRCLE
5
118
100
AcDbEntity
8
0
100
AcDbCircle
10
-41.000000000000007
20
15.5
30
0
40
1.05
210
0
220
0
230
1
0
CIRCLE
5
119
100
AcDbEntity
8
0
100
AcDbCircle
10
-151
20
9
30
0
40
1.0500000000000043
210
0
220
0
230
1
0
LWPOLYLINE
5
120
100
AcDbEntity
8
0
100
AcDbPolyline
90
8
70
1
43
0.0
10
-57.812500000000036
20
123.76250000000006
10
-57.812500000000036
20
136.46250000000009
42
-0.41421356237309503
10
-57.312500000000028
20
136.96250000000009
10
-44.612499999999983
20
136.96250000000009
42
-0.41421356237309503
10
-44.11249999999999
20
136.46250000000012
10
-44.11249999999999
20
123.76250000000006
42
-0.41421356237309503
10
-44.612499999999997
20
123.26250000000005
10
-57.312500000000036
20
123.26250000000005
42
-0.41421356237309503
0
LWPOLYLINE
5
121
100
AcDbEntity
8
0
100
AcDbPolyline
90
8
70
1
43
0.0
10
-44.612500000000068
20
66.112500000000082
10
-57.312500000000028
20
66.112500000000054
42
-0.41421356237309503
10
-57.812500000000028
20
66.612500000000054
10
-57.812500000000028
20
79.312500000000085
42
-0.41421356237309503
10
-57.312500000000028
20
79.812500000000085
10
-44.612500000000068
20
79.812500000000085
42
-0.41421356237309503
10
-44.112500000000061
20
79.312500000000085
10
-44.112500000000097
20
66.612500000000054
42
-0.41421356237309503
0
LWPOLYLINE
5
122
100
AcDbEntity
8
0
100
AcDbPolyline
90
8
70
1
43
0.0
10
-39.850000000000072
20
23.250000000000057
10
-52.550000000000026
20
23.250000000000064
42
-0.41421356237309503
10
-53.050000000000026
20
23.750000000000064
10
-53.050000000000004
20
36.45000000000006
42
-0.41421356237308982
10
-52.550000000000026
20
36.950000000000045
10
-39.850000000000065
20
36.950000000000067
42
-0.41421356237309503
10
-39.350000000000058
20
36.45000000000006
10
-39.350000000000065
20
23.750000000000064
42
-0.41421356237309503
0
LWPOLYLINE
5
123
100
AcDbEntity
8
0
100
AcDbPolyline
90
8
70
1
43
0.0
10
-39.850000000000065
20
47.06250000000005
10
-52.550000000000026
20
47.062500000000057
42
-0.41421356237309503
10
-53.050000000000026
20
47.562500000000057
10
-53.050000000000026
20
60.262500000000053
42
-0.41421356237309503
10
-52.550000000000026
20
60.762500000000053
10
-39.850000000000065
20
60.76250000000006
42
-0.41421356237309503
10
-39.350000000000058
20
60.262500000000053
10
-39.350000000000058
20
47.562500000000057
42
-0.41421356237309503
0
LWPOLYLINE
5
124
100
AcDbEntity
8
0
100
AcDbPolyline
90
8
70
1
43
0.0
10
-120.81250000000004
20
104.21250000000012
10
-133.51250000000005
20
104.21250000000008
42
-0.41421356237309503
10
-134.01250000000005
20
104.71250000000009
10
-134.01250000000002
20
117.41250000000011
42
-0.41421356237309503
10
-133.51250000000005
20
117.91250000000011
10
-120.81250000000004
20
117.91250000000012
42
-0.41421356237309503
10
-120.31250000000003
20
117.41250000000011
10
-120.31250000000007
20
104.71250000000009
42
-0.41421356237309503
0
LWPOLYLINE
5
125
100
AcDbEntity
8
0
100
AcDbPolyline
90
8
70
1
43
0.0
10
-139.86250000000007
20
104.21250000000012
10
-152.5625
20
104.21250000000008
42
-0.41421356237309503
10
-153.06250000000003
20
104.71250000000009
10
-153.0625
20
117.41250000000011
42
-0.41421356237309503
10
-152.5625
20
117.91250000000011
10
-139.86250000000007
20
117.91250000000012
42
-0.41421356237309503
10
-139.36250000000004
20
117.41250000000011
10
-139.36250000000007
20
104.71250000000009
42
-0.41421356237309503
0
LWPOLYLINE
5
126
100
AcDbEntity
8
0
100
AcDbPolyline
90
8
70
1
43
0.0
10
-107.81875000000002
20
123.76250000000006
10
-107.81875000000002
20
136.46250000000009
42
-0.41421356237309503
10
-107.31875000000002
20
136.96250000000009
10
-94.618750000000034
20
136.96250000000009
42
-0.41421356237309503
10
-94.11875000000002
20
136.46250000000009
10
-94.11875000000002
20
123.76250000000006
42
-0.41421356237309503
10
-94.618750000000034
20
123.26250000000005
10
-107.31875000000002
20
123.26250000000005
42
-0.41421356237309503
0
LWPOLYLINE
5
127
100
AcDbEntity
8
0
100
AcDbPolyline
90
8
70
1
43
0.0
10
-84.006250000000023
20
123.76250000000005
42
0.41421356237309503
10
-83.506250000000023
20
123.26250000000005
10
-70.806250000000006
20
123.26250000000005
42
0.41421356237309503
10
-70.306250000000006
20
123.76250000000006
10
-70.306250000000006
20
136.46250000000009
42
0.41421356237309503
10
-70.806250000000006
20
136.96250000000009
10
-83.506250000000009
20
136.96250000000009
42
0.41421356237309503
10
-84.006250000000023
20
136.46250000000009
0
CIRCLE
5
128
100
AcDbEntity
8
0
100
AcDbCircle
10
-178
20
4
30
0
40
1.0500000000000014
210
0
220
0
230
1
0
CIRCLE
5
129
100
AcDbEntity
8
0
100
AcDbCircle
10
-178
20
138
30
0
40
1.0500000000000014
210
0
220
0
230
1
0
CIRCLE
5
130
100
AcDbEntity
8
0
100
AcDbCircle
10
-4
20
4
30
0
40
1.0500000000000003
210
0
220
0
230
1
0
CIRCLE
5
131
100
AcDbEntity
8
0
100
AcDbCircle
10
-4
20
138
30
0
40
1.0500000000000003
210
0
220
0
230
1
0
LWPOLYLINE
5
132
100
AcDbEntity
8
0
100
AcDbPolyline
90
8
70
1
43
0.0
10
-6.5125000000000473
20
94.687500000000028
10
-19.212500000000006
20
94.687500000000071
42
-0.41421356237309503
10
-19.712500000000006
20
95.187500000000085
10
-19.712499999999995
20
107.8875000000001
42
-0.41421356237309503
10
-19.212500000000006
20
108.3875000000001
10
-6.5125000000000455
20
108.38750000000012
42
-0.41421356237309503
10
-6.0125000000000473
20
107.8875000000001
10
-6.0125000000000046
20
95.187500000000085
42
-0.41421356237309503
0
LWPOLYLINE
5
133
100
AcDbEntity
8
0
100
AcDbPolyline
90
8
70
1
43
0.0
10
-6.5125000000000437
20
113.73750000000004
10
-19.212500000000006
20
113.73750000000008
42
-0.41421356237309503
10
-19.712500000000006
20
114.2375000000001
10
-19.712500000000013
20
126.93750000000006
42
-0.41421356237309503
10
-19.212500000000006
20
127.43750000000006
10
-6.5125000000000473
20
127.43750000000006
42
-0.41421356237309503
10
-6.012500000000049
20
126.93750000000006
10
-6.0125000000000028
20
114.2375000000001
42
-0.4142135623730937
0
LWPOLYLINE
5
134
100
AcDbEntity
8
0
100
AcDbPolyline
90
8
70
1
43
0.0
10
-6.5125000000000455
20
75.637500000000088
10
-19.212500000000006
20
75.63750000000006
42
-0.41421356237309503
10
-19.712500000000006
20
76.13750000000006
10
-19.712500000000013
20
88.837500000000091
42
-0.41421356237309503
10
-19.212500000000006
20
89.337500000000105
10
-6.5125000000000473
20
89.337500000000105
42
-0.41421356237309503
10
-6.012500000000049
20
88.837500000000091
10
-6.0125000000000739
20
76.13750000000006
42
-0.41421356237309503
0
LWPOLYLINE
5
135
100
AcDbEntity
8
0
100
AcDbPolyline
90
8
70
1
43
0.0
10
-6.5125000000000455
20
37.537500000000044
10
-19.212500000000006
20
37.537500000000051
42
-0.41421356237309503
10
-19.712500000000006
20
38.037500000000051
10
-19.712500000000013
20
50.737500000000047
42
-0.41421356237309503
10
-19.212500000000006
20
51.237500000000054
10
-6.5125000000000473
20
51.237500000000047
42
-0.41421356237309503
10
-6.012500000000049
20
50.737500000000047
10
-6.0125000000000384
20
38.037500000000051
42
-0.41421356237309503
0
LWPOLYLINE
5
136
100
AcDbEntity
8
0
100
AcDbPolyline
90
8
70
1
43
0.0
10
-6.5125000000000473
20
56.587500000000055
10
-19.212500000000006
20
56.587500000000063
42
-0.41421356237309503
10
-19.712500000000006
20
57.087500000000063
10
-19.712500000000006
20
69.78750000000008
42
-0.41421356237309503
10
-19.212500000000006
20
70.28750000000008
10
-6.5125000000000455
20
70.28750000000008
42
-0.41421356237309503
10
-6.0125000000000473
20
69.78750000000008
10
-6.0125000000000401
20
57.087500000000063
42
-0.41421356237309503
0
LWPOLYLINE
5
137
100
AcDbEntity
8
0
100
AcDbPolyline
90
8
70
1
43
0.0
10
-46.993750000000034
20
85.162500000000108
10
-59.69375000000003
20
85.162500000000065
42
-0.41421356237309503
10
-60.19375000000003
20
85.66250000000008
10
-60.193750000000037
20
98.362500000000097
42
-0.41421356237309503
10
-59.69375000000003
20
98.862500000000111
10
-46.993750000000034
20
98.862500000000111
42
-0.41421356237309503
10
-46.493750000000027
20
98.362500000000097
10
-46.493750000000063
20
85.66250000000008
42
-0.41421356237309503
0
LWPOLYLINE
5
138
100
AcDbEntity
8
0
100
AcDbPolyline
90
8
70
1
43
0.0
10
-81.125
20
79.812500000000057
10
-68.42500000000004
20
79.812500000000085
42
-0.41421356237309503
10
-67.925000000000054
20
79.312500000000085
10
-67.92500000000004
20
66.612500000000054
42
-0.41421356237309503
10
-68.42500000000004
20
66.11250000000004
10
-81.125000000000043
20
66.11250000000004
42
-0.41421356237309503
10
-81.625000000000057
20
66.612500000000054
10
-81.624999999999972
20
79.312500000000085
42
-0.41421356237309503
0
LWPOLYLINE
5
139
100
AcDbEntity
8
0
100
AcDbPolyline
90
8
70
1
43
0.0
10
-71.600000000000037
20
60.762500000000045
10
-58.900000000000041
20
60.762500000000053
42
-0.41421356237309503
10
-58.400000000000041
20
60.262500000000053
10
-58.400000000000034
20
47.562500000000057
42
-0.41421356237309503
10
-58.900000000000041
20
47.06250000000005
10
-71.600000000000037
20
47.062500000000078
42
-0.41421356237309503
10
-72.100000000000037
20
47.562500000000078
10
-72.100000000000009
20
60.262500000000074
42
-0.41421356237309503
0
LWPOLYLINE
5
140
100
AcDbEntity
8
0
100
AcDbPolyline
90
8
70
1
43
0.0
10
-92.237500000000026
20
85.162500000000108
10
-104.93750000000003
20
85.162500000000065
42
-0.41421356237309503
10
-105.43750000000003
20
85.66250000000008
10
-105.43750000000003
20
98.362500000000097
42
-0.41421356237309503
10
-104.93750000000003
20
98.862500000000111
10
-92.237500000000026
20
98.862500000000097
42
-0.41421356237309503
10
-91.73750000000004
20
98.362500000000097
10
-91.737500000000054
20
85.66250000000008
42
-0.41421356237309503
0
LWPOLYLINE
5
141
100
AcDbEntity
8
0
100
AcDbPolyline
90
8
70
1
43
0.0
10
-106.52500000000003
20
66.112500000000097
10
-119.22500000000007
20
66.11250000000004
42
-0.41421356237309503
10
-119.72500000000008
20
66.612500000000054
10
-119.72500000000004
20
79.312500000000085
42
-0.41421356237309503
10
-119.22500000000002
20
79.812500000000085
10
-106.52500000000003
20
79.812500000000099
42
-0.41421356237309503
10
-106.02500000000003
20
79.312500000000085
10
-106.02500000000006
20
66.612500000000068
42
-0.41421356237309503
0
LWPOLYLINE
5
142
100
AcDbEntity
8
0
100
AcDbPolyline
90
8
70
1
43
0.0
10
-147.80000000000004
20
60.762500000000045
10
-135.10000000000005
20
60.762500000000081
42
-0.41421356237309503
10
-134.60000000000005
20
60.262500000000074
10
-134.60000000000005
20
47.562500000000078
42
-0.41421356237309503
10
-135.10000000000005
20
47.062500000000071
10
-147.80000000000004
20
47.062500000000071
42
-0.41421356237309503
10
-148.30000000000007
20
47.562500000000078
10
-148.30000000000001
20
60.262500000000074
42
-0.41421356237309503
0
LWPOLYLINE
5
143
100
AcDbEntity
8
0
100
AcDbPolyline
90
8
70
1
43
0.0
10
-133.51250000000007
20
36.950000000000067
10
-120.81250000000004
20
36.950000000000081
42
-0.41421356237309503
10
-120.31250000000003
20
36.450000000000074
10
-120.31250000000003
20
23.750000000000078
42
-0.41421356237309503
10
-120.81250000000004
20
23.250000000000071
10
-133.51250000000007
20
23.250000000000071
42
-0.41421356237309503
10
-134.01250000000007
20
23.750000000000078
10
-134.01250000000007
20
36.450000000000074
42
-0.41421356237309503
0
LWPOLYLINE
5
144
100
AcDbEntity
8
0
100
AcDbPolyline
90
8
70
1
43
0.0
10
-154.15000000000003
20
47.062500000000071
10
-166.85000000000002
20
47.062500000000071
42
-0.41421356237309503
10
-167.35000000000002
20
47.562500000000078
10
-167.35000000000002
20
60.262500000000074
42
-0.41421356237309503
10
-166.85000000000002
20
60.762500000000074
10
-154.15000000000003
20
60.762500000000081
42
-0.41421356237309503
10
-153.65000000000003
20
60.262500000000074
10
-153.65000000000003
20
47.562500000000078
42
-0.41421356237309503
0
LWPOLYLINE
5
145
100
AcDbEntity
8
0
100
AcDbPolyline
90
8
70
1
43
0.0
10
-176.37500000000003
20
36.950000000000067
10
-163.67500000000004
20
36.950000000000081
42
-0.41421356237309503
10
-163.17500000000001
20
36.450000000000074
10
-163.17500000000001
20
23.750000000000078
42
-0.41421356237309503
10
-163.67500000000004
20
23.250000000000071
10
-176.37500000000003
20
23.250000000000071
42
-0.41421356237309503
10
-176.87500000000003
20
23.750000000000078
10
-176.875
20
36.450000000000074
42
-0.41421356237309503
0
LWPOLYLINE
5
146
100
AcDbEntity
8
0
100
AcDbPolyline
90
8
70
1
43
0.0
10
-138.27500000000001
20
79.812500000000057
10
-125.57500000000005
20
79.812500000000085
42
-0.41421356237309503
10
-125.07500000000005
20
79.312500000000085
10
-125.07500000000005
20
66.612500000000054
42
-0.41421356237309503
10
-125.57500000000005
20
66.11250000000004
10
-138.27500000000003
20
66.11250000000004
42
-0.41421356237309503
10
-138.77500000000003
20
66.612500000000054
10
-138.77499999999998
20
79.312500000000085
42
-0.41421356237309503
0
LWPOLYLINE
5
147
100
AcDbEntity
8
0
100
AcDbPolyline
90
8
70
1
43
0.0
10
-157.32500000000002
20
79.812500000000057
10
-144.62500000000003
20
79.812500000000085
42
-0.41421356237309503
10
-144.125
20
79.312500000000085
10
-144.12500000000006
20
66.612500000000054
42
-0.41421356237309503
10
-144.62500000000006
20
66.11250000000004
10
-157.32500000000002
20
66.112500000000011
42
-0.41421356237309503
10
-157.82500000000005
20
66.612500000000054
10
-157.82499999999999
20
79.312500000000085
42
-0.41421356237309503
0
ENDSEC
0
SECTION
2
OBJECTS
0
DICTIONARY
5
C
100
AcDbDictionary
3
ACAD_GROUP
350
D
3
ACAD_MLINESTYLE
350
17
0
DICTIONARY
5
D
100
AcDbDictionary
0
DICTIONARY
5
1A
330
C
100
AcDbDictionary
0
DICTIONARY
5
17
100
AcDbDictionary
0
ENDSEC
0
EOF
